<?xml version="1.0" encoding="utf-8"?>
<!-- Generator: Adobe Illustrator 16.0.0, SVG Export Plug-In . SVG Version: 6.00 Build 0)  -->
<!DOCTYPE svg PUBLIC "-//W3C//DTD SVG 1.1//EN" "http://www.w3.org/Graphics/SVG/1.1/DTD/svg11.dtd">
<svg version="1.1" id="Layer_5" xmlns="http://www.w3.org/2000/svg" xmlns:xlink="http://www.w3.org/1999/xlink" x="0px" y="0px"
	 width="40px" height="40px" viewBox="0 0 40 40" enable-background="new 0 0 40 40" xml:space="preserve">
<path d="M36.05,12.353c0.175-1.911-0.086-3.628-0.821-5.02c-0.288-0.544-0.649-1.039-1.086-1.476
	c-0.849-0.848-1.916-1.412-3.145-1.708c-1.019-0.246-2.146-0.309-3.352-0.199c0.965,1.714,1.775,3.749,2.386,6.017
	C32.301,10.577,34.335,11.387,36.05,12.353z M27.693,27.691c1.068-1.067,2.043-2.172,2.922-3.295
	c0.172-1.414,0.264-2.886,0.264-4.396s-0.091-2.982-0.264-4.397c-0.879-1.123-1.854-2.228-2.922-3.296s-2.174-2.044-3.297-2.922
	C22.982,9.212,21.512,9.121,20,9.121c-1.511,0-2.982,0.091-4.397,0.264c-1.123,0.878-2.228,1.854-3.295,2.922
	c-1.068,1.068-2.044,2.173-2.923,3.296C9.212,17.018,9.121,18.489,9.121,20s0.091,2.982,0.264,4.396
	c0.878,1.123,1.854,2.229,2.923,3.295c1.068,1.068,2.173,2.045,3.295,2.924c1.415,0.172,2.886,0.264,4.397,0.264
	c1.512,0,2.982-0.091,4.396-0.264C25.52,29.736,26.625,28.761,27.693,27.691z M16.282,31.133c1.231,0.915,2.479,1.712,3.718,2.385
	c1.238-0.673,2.486-1.47,3.718-2.385c-1.208,0.107-2.45,0.164-3.718,0.164C18.732,31.297,17.491,31.241,16.282,31.133z
	 M6.166,19.399c0.803-1.328,1.734-2.662,2.786-3.976c0.185-1.673,0.47-3.275,0.841-4.781c-2.213,0.716-4.15,1.657-5.706,2.766
	C4.403,15.292,5.107,17.328,6.166,19.399z M14.756,9.499c-1.518,0.224-2.963,0.542-4.315,0.943c-0.4,1.352-0.719,2.797-0.943,4.315
	c0.778-0.931,1.617-1.849,2.513-2.745S13.826,10.277,14.756,9.499z M6.482,20c0.672,1.239,1.469,2.486,2.384,3.718
	C8.759,22.509,8.703,21.268,8.703,20c0-1.268,0.057-2.509,0.164-3.718C7.952,17.514,7.155,18.761,6.482,20z M9.793,29.357
	c-0.371-1.508-0.656-3.108-0.841-4.781C7.9,23.262,6.969,21.93,6.166,20.6c-1.059,2.071-1.763,4.107-2.079,5.991
	C5.643,27.7,7.58,28.643,9.793,29.357z M14.756,30.501c-0.931-0.778-1.849-1.617-2.745-2.513c-0.896-0.896-1.735-1.814-2.513-2.745
	c0.224,1.518,0.542,2.963,0.943,4.315C11.793,29.959,13.239,30.277,14.756,30.501z M23.718,8.867
	C22.486,7.952,21.238,7.155,20,6.482c-1.239,0.672-2.486,1.469-3.718,2.384C17.49,8.759,18.732,8.702,20,8.702
	C21.268,8.702,22.509,8.759,23.718,8.867z M30.501,14.756c-0.224-1.518-0.542-2.963-0.942-4.315c-1.353-0.4-2.797-0.719-4.315-0.943
	c0.93,0.778,1.849,1.617,2.745,2.513C28.884,12.908,29.723,13.826,30.501,14.756z M30.501,25.244
	c-0.778,0.931-1.617,1.849-2.513,2.745c-0.896,0.896-1.814,1.735-2.745,2.513c1.519-0.225,2.963-0.542,4.315-0.941
	C29.959,28.207,30.277,26.761,30.501,25.244z M33.834,20.602c-0.803,1.328-1.734,2.662-2.786,3.976
	c-0.185,1.673-0.47,3.274-0.841,4.78c2.213-0.715,4.15-1.656,5.706-2.767C35.598,24.708,34.893,22.672,33.834,20.602z M33.518,20
	c-0.672-1.239-1.469-2.486-2.384-3.718c0.107,1.208,0.164,2.45,0.164,3.718c0,1.268-0.056,2.509-0.164,3.718
	C32.048,22.486,32.846,21.239,33.518,20z M30.207,10.643c0.371,1.506,0.656,3.108,0.841,4.781c1.052,1.314,1.983,2.647,2.786,3.976
	c1.059-2.071,1.764-4.107,2.079-5.991C34.357,12.3,32.42,11.358,30.207,10.643z M24.576,8.952c1.673,0.185,3.273,0.47,4.781,0.841
	c-0.717-2.213-1.657-4.15-2.767-5.706c-1.884,0.315-3.919,1.02-5.991,2.079C21.93,6.969,23.262,7.9,24.576,8.952z M25.941,3.244
	c-0.854-1.026-1.792-1.837-2.789-2.392C22.154,0.298,21.096,0,20,0c-1.435,0-2.806,0.511-4.06,1.44
	c-0.662,0.49-1.291,1.096-1.881,1.804C15.954,3.774,17.966,4.64,20,5.812C22.035,4.639,24.046,3.773,25.941,3.244z M15.424,8.952
	C16.738,7.9,18.071,6.969,19.4,6.166c-2.071-1.059-4.107-1.763-5.991-2.079c-1.109,1.555-2.05,3.493-2.766,5.706
	C12.149,9.422,13.751,9.137,15.424,8.952z M9.967,9.967c0.61-2.268,1.42-4.303,2.385-6.017C10.646,3.795,9.093,3.986,7.79,4.554
	C7.063,4.87,6.413,5.303,5.858,5.858C4.944,6.771,4.361,7.941,4.085,9.292c-0.192,0.941-0.234,1.97-0.135,3.062
	C5.665,11.387,7.7,10.577,9.967,9.967z M3.244,14.059c-0.85,0.707-1.552,1.471-2.083,2.28C0.409,17.483,0,18.715,0,20
	c0,1.096,0.298,2.154,0.853,3.152c0.554,0.997,1.365,1.935,2.392,2.789C3.774,24.046,4.64,22.034,5.812,20
	C4.639,17.965,3.773,15.954,3.244,14.059z M3.95,27.646c-0.122,1.329-0.032,2.564,0.281,3.662c0.313,1.099,0.851,2.059,1.626,2.834
	c0.738,0.737,1.642,1.26,2.672,1.579c1.137,0.352,2.428,0.455,3.823,0.328c-0.965-1.714-1.775-3.749-2.385-6.017
	C7.699,29.423,5.665,28.613,3.95,27.646z M15.424,31.048c-1.673-0.185-3.275-0.47-4.781-0.841c0.716,2.213,1.657,4.15,2.766,5.706
	c1.884-0.315,3.919-1.021,5.991-2.079C18.071,33.031,16.738,32.1,15.424,31.048z M14.059,36.756
	c0.807,0.971,1.689,1.748,2.626,2.299C17.73,39.669,18.844,40,20,40c1.285,0,2.52-0.41,3.665-1.163
	c0.807-0.531,1.57-1.232,2.276-2.081c-1.896-0.529-3.907-1.396-5.941-2.568C17.965,35.361,15.954,36.227,14.059,36.756z
	 M24.576,31.048c-1.314,1.052-2.646,1.983-3.977,2.786c2.071,1.059,4.107,1.764,5.991,2.079c1.109-1.556,2.05-3.493,2.767-5.706
	C27.852,30.578,26.249,30.863,24.576,31.048z M30.033,30.033c-0.61,2.268-1.42,4.302-2.385,6.017
	c1.238,0.112,2.396,0.043,3.436-0.22c1.192-0.302,2.23-0.859,3.059-1.688c0.755-0.756,1.284-1.686,1.601-2.747
	c0.334-1.118,0.432-2.384,0.308-3.749C34.335,28.613,32.301,29.423,30.033,30.033z M36.756,14.059
	c-0.529,1.895-1.396,3.907-2.568,5.941c1.172,2.035,2.039,4.046,2.568,5.941c0.956-0.796,1.726-1.664,2.274-2.586
	C39.66,22.298,40,21.171,40,20c0-1.37-0.465-2.681-1.315-3.889C38.174,15.387,37.525,14.7,36.756,14.059z"/>
</svg>
