<?xml version="1.0" encoding="utf-8"?>
<svg version="1.1" id="Layer_2" xmlns="http://www.w3.org/2000/svg" xmlns:xlink="http://www.w3.org/1999/xlink" x="0px" y="0px"
	 width="40px" height="40px" viewBox="0 0 40 40" enable-background="new 0 0 40 40" xml:space="preserve">
<path d="M38.428,12.214c-1.007-2.381-2.449-4.521-4.286-6.356c-1.836-1.836-3.975-3.278-6.356-4.286C25.319,0.529,22.699,0,20,0
	s-5.319,0.529-7.786,1.572C9.833,2.58,7.694,4.021,5.858,5.858C4.021,7.694,2.58,9.833,1.572,12.214C0.529,14.681,0,17.301,0,20
	s0.529,5.319,1.572,7.786c1.008,2.381,2.449,4.521,4.286,6.356c1.836,1.836,3.975,3.278,6.356,4.286C14.681,39.471,17.301,40,20,40
	s5.319-0.529,7.786-1.572c2.381-1.007,4.521-2.449,6.356-4.286c1.836-1.836,3.278-3.975,4.286-6.356C39.471,25.319,40,22.699,40,20
	S39.471,14.681,38.428,12.214z M20,36.561c-4.75,0-9.04-2.01-12.063-5.225C5.15,28.371,3.439,24.381,3.439,20
	c0-4.792,2.045-9.114,5.309-12.141C11.705,5.118,15.66,3.439,20,3.439c3.315,0,6.407,0.979,9,2.664
	c2.625,1.706,4.74,4.136,6.058,7.004c0.965,2.1,1.503,4.435,1.503,6.893c0,2.788-0.692,5.417-1.915,7.725s-2.974,4.294-5.092,5.795
	C26.853,35.435,23.555,36.561,20,36.561z M16.913,13.057c0,0-1.069,0.303-1.371,0.379l-0.039,0.01c-0.232,0.055,0,10.507,0,10.507
	l0,0c-0.436-0.19-0.94-0.28-1.468-0.252c-0.387,0.02-0.785,0.103-1.178,0.254c-0.744,0.287-1.339,0.771-1.72,1.34
	c-0.46,0.687-0.607,1.497-0.325,2.229c0.258,0.668,0.825,1.144,1.532,1.374c0.708,0.23,1.557,0.213,2.379-0.104
	c0.58-0.223,1.068-0.566,1.436-0.976c0.56-0.624,0.839-1.401,0.727-2.142l0.025,0.032v-7.868l8.653-1.992
	c0.01,3.48,0.103,6.827,0.103,6.827l0,0c-0.308-0.135-0.65-0.219-1.011-0.247c-0.523-0.041-1.085,0.037-1.635,0.249
	c-0.662,0.255-1.205,0.666-1.585,1.153c-0.564,0.724-0.767,1.616-0.459,2.415c0.236,0.611,0.73,1.062,1.354,1.31
	c0.741,0.295,1.665,0.305,2.557-0.04c0.305-0.118,0.585-0.269,0.836-0.445c0.95-0.669,1.473-1.702,1.327-2.672l0.025,0.031V10.57
	l-10.165,2.526V13.057z"/>
</svg>
