<?xml version="1.0" encoding="utf-8"?>
<!-- Generator: Adobe Illustrator 16.0.0, SVG Export Plug-In . SVG Version: 6.00 Build 0)  -->
<!DOCTYPE svg PUBLIC "-//W3C//DTD SVG 1.1//EN" "http://www.w3.org/Graphics/SVG/1.1/DTD/svg11.dtd">
<svg version="1.1" id="Layer_7" xmlns="http://www.w3.org/2000/svg" xmlns:xlink="http://www.w3.org/1999/xlink" x="0px" y="0px"
	 width="40px" height="40px" viewBox="0 0 40 40" enable-background="new 0 0 40 40" xml:space="preserve">
<path d="M26.342,6.663c1.686,0.819,1.577,1.413,1.577,1.413c0.108,1.059-0.804,1.437-0.804,1.437c0.084-0.082,0.158-0.181,0.22-0.28
	c0.153-0.251,0.3-0.54,0.332-0.838c0.009-0.09,0.001-0.184-0.024-0.27c-0.039-0.132-0.109-0.25-0.197-0.355
	c-0.071-0.085-0.152-0.162-0.239-0.231c-0.312-0.249-0.702-0.359-1.019-0.598c-0.076-0.058-0.148-0.123-0.213-0.195
	c-0.016-0.016-0.067-0.06-0.07-0.083c0.029,0.242,0.33,0.761,0.33,0.761c0.262,0.727-0.303,0.955-0.303,0.955
	c-0.428-0.621-1.498-0.902-1.498-0.902s0.969,0.779,0.739,1.533c0,0-0.024,0.287,0.384,0.405c0,0,0.512,0.297,0.077,0.64
	c0,0,0.818,0.258,0.984,0.654c0,0,0.188-0.684,1.179-0.93c2.159-0.276,2.936-0.634,2.936-0.634c0.134-0.076,0.256-0.158,0.369-0.244
	c-0.086,0.113-0.166,0.235-0.244,0.37c0,0-0.357,0.775-0.633,2.935c-0.246,0.99-0.931,1.179-0.931,1.179
	c0.396,0.166,0.654,0.984,0.654,0.984c0.342-0.435,0.64,0.077,0.64,0.077c0.119,0.409,0.405,0.384,0.405,0.384
	c0.754-0.229,1.532,0.74,1.532,0.74s-0.28-1.071-0.901-1.499c0,0,0.228-0.564,0.955-0.302c0,0,0.519,0.3,0.761,0.33
	c-0.023-0.003-0.066-0.055-0.083-0.07c-0.071-0.065-0.137-0.137-0.194-0.214c-0.239-0.315-0.351-0.706-0.599-1.018
	c-0.069-0.087-0.146-0.168-0.231-0.239c-0.104-0.088-0.223-0.159-0.354-0.198c-0.087-0.026-0.18-0.034-0.271-0.024
	c-0.297,0.031-0.586,0.177-0.838,0.332c-0.1,0.062-0.199,0.136-0.279,0.22c0,0,0.378-0.912,1.437-0.804c0,0,0.595-0.107,1.414,1.578
	c0,0,1,1.881,1.906,0.411c0,0-0.64,0.285-1.136-0.545c0,0-1.686-2.688-3.166-1.453l-0.285,0.241v-0.069
	c0.764-1.114,2.154-0.936,3.01-0.488c0.124,0.065,0.237,0.146,0.342,0.238c0.17,0.148,0.305,0.33,0.416,0.524
	c0.135,0.235,0.237,0.482,0.4,0.7c0.08,0.107,0.17,0.206,0.264,0.3c0.059,0.059,0.121,0.116,0.186,0.169
	c0.105,0.087,0.228,0.167,0.348,0.232c0.204,0.112,0.443,0.183,0.676,0.135c0.199-0.041,0.405-0.183,0.526-0.346
	c0.032-0.045,0.057-0.097,0.09-0.14c0.188-0.249,0.526,0.318,0.526,0.318s0.064-0.753-0.83-0.76
	c-0.268,0.018-0.604,0.021-0.844,0.15c-0.078-0.172-0.033-0.27,0.016-0.399c0.046-0.12,0.135-0.217,0.191-0.331
	c-0.164-0.07-0.305-0.033-0.481-0.046c-0.149-0.012-0.293-0.055-0.331-0.218c-0.068-0.301,0.128-0.609,0.37-0.772
	c0.11-0.074,0.288-0.094,0.407-0.022c0,0,0.192,0.071,0.351,0.486c0,0,0.166,0.436,0.579,0.58c0.402,0.14,1.047-0.006,1.51-0.472
	c-0.074,0.076-0.308,0.096-0.404,0.11c-0.242,0.035-0.511,0.012-0.729-0.101c-0.437-0.224-0.404-0.725-0.703-1.05
	c-0.181-0.198-0.448-0.191-0.694-0.154c0,0-0.572,0.122-1.06,0.737c-0.144,0.181-0.368,0.088-0.54,0.011
	c-0.216-0.098-0.423-0.218-0.643-0.31c-0.233-0.098-0.502-0.146-0.752-0.175c-0.695-0.08-1.388,0.09-1.939,0.527
	c0.193-0.301,0.719-0.875,1.918-0.861c0,0,3.109,0.41,3.684-0.868c0,0,0.209-0.639-0.506-0.687c0,0-0.563-0.019-0.678,0.467
	c0,0-0.048,0.458,0.219,0.506c0,0-0.601,0.439-2.127,0.229c0,0-1.917-0.458-2.604,0.973c0,0-0.182-1.937,1.393-2.862
	c0,0,0.891-0.486,1.467-0.219c0,0,0.231,0.105,0.069,0.305c0,0-0.448,0.563,0.296,0.954c0,0,0.936,0.458,1.105-0.439
	c0,0,0.244-1.145-1.313-1.479c0,0-1.164-0.124-2.161,0.63c0.754-0.998,0.631-2.161,0.631-2.161
	c-0.334-1.557-1.479-1.314-1.479-1.314c-0.897,0.172-0.438,1.106-0.438,1.106c0.391,0.744,0.953,0.296,0.953,0.296
	c0.2-0.162,0.305,0.07,0.305,0.07c0.268,0.576-0.219,1.466-0.219,1.466c-0.925,1.574-2.861,1.393-2.861,1.393
	c1.431-0.687,0.973-2.604,0.973-2.604c-0.21-1.526,0.229-2.127,0.229-2.127c0.049,0.267,0.506,0.219,0.506,0.219
	c0.486-0.114,0.468-0.677,0.468-0.677c-0.048-0.715-0.687-0.505-0.687-0.505c-1.279,0.572-0.869,3.682-0.869,3.682
	c0.015,1.199-0.561,1.725-0.861,1.918c0.438-0.552,0.607-1.244,0.527-1.939c-0.029-0.25-0.078-0.519-0.176-0.752
	c-0.092-0.219-0.212-0.426-0.31-0.643c-0.078-0.171-0.17-0.397,0.011-0.54c0.615-0.487,0.737-1.059,0.737-1.059
	c0.038-0.246,0.044-0.514-0.154-0.695c-0.325-0.298-0.827-0.267-1.05-0.703c-0.113-0.219-0.135-0.488-0.102-0.73
	c0.015-0.096,0.035-0.329,0.11-0.404c-0.466,0.462-0.612,1.107-0.472,1.51c0.144,0.413,0.58,0.58,0.58,0.58
	c0.414,0.157,0.486,0.351,0.486,0.351c0.071,0.119,0.051,0.297-0.022,0.407c-0.163,0.242-0.472,0.439-0.772,0.37
	c-0.164-0.038-0.207-0.181-0.219-0.331c-0.014-0.178,0.023-0.317-0.046-0.482c-0.114,0.057-0.211,0.146-0.331,0.192
	c-0.129,0.049-0.229,0.094-0.398,0.016c0.129-0.24,0.133-0.577,0.149-0.845c-0.007-0.894-0.76-0.83-0.76-0.83
	s0.567,0.338,0.317,0.527c-0.043,0.033-0.095,0.057-0.14,0.09c-0.164,0.121-0.306,0.327-0.346,0.526
	C25.9,3.94,25.971,4.179,26.083,4.383c0.065,0.12,0.146,0.242,0.231,0.347c0.055,0.064,0.11,0.126,0.17,0.186
	c0.094,0.094,0.193,0.184,0.3,0.264c0.218,0.163,0.465,0.266,0.7,0.4c0.195,0.111,0.375,0.247,0.523,0.416
	c0.092,0.105,0.174,0.218,0.238,0.342c0.447,0.856,0.626,2.246-0.488,3.01h-0.068l0.24-0.285c1.236-1.481-1.453-3.167-1.453-3.167
	c-0.83-0.496-0.545-1.135-0.545-1.135C24.46,5.662,26.342,6.663,26.342,6.663z M37.619,22.743c-1.794-2.242-4.281-1.164-4.281-1.164
	c1.281,0.118,1.688,1.481,1.826,2.178c0.279,1.405,1.559,1.175,1.559,1.175c-0.31-0.097-0.341-0.438-0.341-0.438
	c-0.096-0.47-0.331-0.918-0.331-0.918c0.342,0.235,0.779,0.171,0.779,0.171c0.139-0.896-0.289-1.238-0.289-1.238
	C36.786,22.455,37.619,22.743,37.619,22.743z M31.275,23.909c0.043-0.345-0.189-0.685-0.43-0.911
	c-0.134-0.127-0.31-0.292-0.486-0.357c-0.092-0.035-0.198-0.055-0.213,0.065c-0.015,0.121,0.109,0.2,0.181,0.274
	c0.062,0.064,0.108,0.141,0.146,0.22c0.074,0.153,0.111,0.325,0.127,0.493c0.033,0.34-0.139,0.606-0.215,0.926
	c-0.035,0.15-0.127,0.708,0.198,0.652c-0.095,0.017-0.022-0.234-0.013-0.256C30.752,24.607,31.218,24.384,31.275,23.909z
	 M32.189,22.956c-0.248-0.272-1.071-0.771-1.264-0.923c-1.083-0.865-0.416-1.669-0.416-1.669c-1.037,0.993,0.088,2.163,0.708,2.683
	c0.206,0.172,0.497,0.443,0.539,0.523c0.37,0.725-0.688,1.232-0.688,1.232C33.139,24.439,32.698,23.52,32.189,22.956z
	 M29.494,27.646c-0.764-1.385-1.941-0.567-1.941-0.567c1.243,0.042,1.504,1.491,1.504,1.491c0.039,0.234,0.078,0.435,0.117,0.604
	c-0.17-0.039-0.369-0.077-0.604-0.118c0,0-1.45-0.26-1.492-1.502c0,0-0.816,1.176,0.568,1.94c0,0,0.391,0.192,0.845,0.188
	c0.259-0.002,0.544-0.028,0.803-0.056c0.17,0.534,0.3,0.517,0.3,0.517h0.023c-0.063-0.03-0.051-0.25-0.021-0.547
	c0.297-0.029,0.516-0.041,0.547,0.021v-0.023c0,0,0.018-0.129-0.517-0.3c0.026-0.259,0.054-0.543,0.056-0.803
	C29.688,28.038,29.494,27.646,29.494,27.646z M29.205,23.945c-0.25-0.026-0.449,0.026-0.6,0.126
	c-0.452,0.299-0.472,1.018-0.146,1.272c0,0-0.02-0.188-0.02-0.255c0-0.241,0.194-0.437,0.436-0.437c0.182,0,0.336,0.111,0.402,0.267
	c0,0,0.179,0.599-0.838,0.692c0,0-0.435,0.009-0.953-0.07c-0.449-0.069-0.962-0.205-1.311-0.471c0,0-0.886-0.912-1.803-0.799
	c0,0,1.029,0.422,1.886,1.287c0.489,0.495,1.128,0.806,1.747,0.84c0.463,0.026,0.914-0.102,1.284-0.422
	c0.268-0.232,0.457-0.506,0.562-0.775C30.085,24.602,29.895,24.019,29.205,23.945z M24.62,30.385
	c-0.319,0.076-0.586,0.248-0.925,0.215c-0.17-0.016-0.34-0.053-0.494-0.127c-0.079-0.037-0.155-0.084-0.219-0.146
	c-0.076-0.071-0.155-0.194-0.275-0.181c-0.12,0.016-0.102,0.121-0.066,0.213c0.066,0.177,0.231,0.353,0.358,0.486
	c0.228,0.24,0.565,0.473,0.911,0.43c0.475-0.059,0.699-0.523,1.107-0.705c0.021-0.01,0.272-0.081,0.256,0.013
	C25.329,30.258,24.771,30.35,24.62,30.385z M20,37.514c0,0,0.47-0.515,0-1.201C19.53,37,20,37.514,20,37.514z M14.984,30.57
	c0.408,0.182,0.632,0.646,1.107,0.705c0.345,0.043,0.684-0.189,0.911-0.43c0.127-0.134,0.292-0.31,0.358-0.486
	c0.034-0.092,0.054-0.198-0.066-0.213c-0.12-0.014-0.2,0.109-0.275,0.181c-0.064,0.062-0.14,0.108-0.219,0.146
	c-0.154,0.074-0.325,0.111-0.494,0.127c-0.339,0.033-0.606-0.139-0.925-0.215c-0.15-0.035-0.708-0.127-0.653,0.198
	C14.711,30.489,14.962,30.561,14.984,30.57z M10.382,30.145h0.023c0,0,0.129,0.018,0.3-0.517c0.259,0.027,0.543,0.054,0.803,0.056
	c0.454,0.004,0.845-0.188,0.845-0.188c1.385-0.765,0.568-1.94,0.568-1.94c-0.042,1.242-1.491,1.502-1.491,1.502
	c-0.235,0.041-0.434,0.079-0.604,0.118c0.039-0.17,0.078-0.368,0.118-0.604c0,0,0.26-1.449,1.503-1.491c0,0-1.177-0.815-1.941,0.567
	c0,0-0.193,0.392-0.189,0.846c0.002,0.259,0.029,0.544,0.056,0.803c-0.534,0.17-0.517,0.3-0.517,0.3v0.023
	c0.031-0.062,0.25-0.052,0.548-0.022C10.433,29.895,10.444,30.113,10.382,30.145z M15.628,24.271
	c-0.917-0.112-1.803,0.799-1.803,0.799c-0.361,0.275-0.898,0.411-1.359,0.478c-0.498,0.072-0.905,0.063-0.905,0.063
	c-1.017-0.092-0.837-0.691-0.837-0.691c0.066-0.156,0.221-0.266,0.402-0.266c0.241,0,0.436,0.195,0.436,0.436
	c0,0.065-0.02,0.255-0.02,0.255c0.321-0.252,0.305-0.955-0.13-1.261c-0.153-0.107-0.357-0.166-0.616-0.139
	c-0.613,0.065-0.831,0.534-0.708,1.06c0.078,0.332,0.29,0.687,0.624,0.976c0.639,0.553,1.521,0.532,2.284,0.136
	c0.27-0.141,0.524-0.328,0.747-0.554C14.598,24.695,15.628,24.271,15.628,24.271z M9.527,23.201
	c0.038-0.079,0.085-0.155,0.146-0.219c0.071-0.076,0.194-0.155,0.18-0.275c-0.015-0.12-0.121-0.102-0.212-0.066
	c-0.177,0.066-0.353,0.231-0.486,0.358c-0.24,0.228-0.473,0.565-0.43,0.911c0.059,0.475,0.524,0.699,0.706,1.107
	c0.01,0.021,0.081,0.272-0.013,0.256c0.326,0.057,0.234-0.502,0.198-0.652c-0.076-0.319-0.248-0.586-0.215-0.926
	C9.416,23.525,9.453,23.355,9.527,23.201z M9.489,20.364c0,0,0.667,0.804-0.416,1.669c-0.192,0.152-1.017,0.65-1.263,0.923
	c-0.508,0.563-0.949,1.483,1.12,1.847c0,0-1.058-0.508-0.688-1.232c0.042-0.08,0.333-0.353,0.539-0.523
	C9.402,22.527,10.526,21.357,9.489,20.364z M3.278,24.932c0,0,1.279,0.23,1.559-1.175c0.139-0.696,0.545-2.062,1.826-2.178
	c0,0-2.488-1.078-4.282,1.164c0,0,0.833-0.288,1.079-0.235c0,0-0.427,0.342-0.289,1.238c0,0,0.438,0.064,0.779-0.171
	c0,0-0.235,0.448-0.331,0.918C3.619,24.494,3.587,24.835,3.278,24.932z M2.381,17.257c1.794,2.242,4.282,1.164,4.282,1.164
	c-1.281-0.118-1.688-1.481-1.826-2.178c-0.279-1.406-1.559-1.174-1.559-1.174c0.31,0.096,0.341,0.438,0.341,0.438
	c0.096,0.47,0.331,0.918,0.331,0.918c-0.341-0.235-0.779-0.171-0.779-0.171c-0.139,0.897,0.289,1.238,0.289,1.238
	C3.214,17.545,2.381,17.257,2.381,17.257z M8.724,16.091c-0.043,0.345,0.19,0.684,0.43,0.911c0.133,0.127,0.309,0.292,0.486,0.358
	c0.091,0.034,0.198,0.054,0.212-0.066s-0.109-0.2-0.18-0.275c-0.061-0.064-0.108-0.14-0.146-0.219
	c-0.074-0.154-0.111-0.325-0.127-0.494c-0.033-0.339,0.139-0.606,0.215-0.925c0.036-0.15,0.127-0.708-0.198-0.653
	c0.094-0.016,0.023,0.235,0.013,0.257C9.248,15.392,8.782,15.616,8.724,16.091z M7.811,17.044c0.247,0.272,1.071,0.77,1.263,0.923
	c1.083,0.865,0.416,1.669,0.416,1.669c1.037-0.993-0.087-2.163-0.708-2.683c-0.206-0.172-0.497-0.443-0.539-0.524
	c-0.37-0.724,0.688-1.232,0.688-1.232C6.862,15.561,7.302,16.481,7.811,17.044z M6.835,14.929c-0.366,0.649-0.572,1.784-0.134,2.679
	c0,0,0.21-0.286,0.444-0.334c0,0-0.844-1.65,0.691-3.253C7.837,14.021,7.241,14.208,6.835,14.929z M5.891,15.429
	c-0.406-0.833-1.508-0.375-1.508-0.375c0.969,0.063,0.985,1.183,0.985,1.183c0.253,1.491,1.294,2.03,1.294,2.03
	c-0.112-0.106-0.32-0.739-0.46-1.4C6.083,16.309,6.037,15.73,5.891,15.429z M5.891,24.57c0.146-0.301,0.193-0.879,0.312-1.438
	c0.141-0.66,0.349-1.293,0.46-1.4c0,0-1.042,0.539-1.294,2.031c0,0-0.017,1.119-0.985,1.182C4.383,24.945,5.484,25.404,5.891,24.57z
	 M7.837,25.979c-1.536-1.603-0.691-3.252-0.691-3.252c-0.233-0.049-0.444-0.334-0.444-0.334c-0.438,0.896-0.232,2.029,0.134,2.678
	C7.241,25.792,7.837,25.979,7.837,25.979z M11.236,20c-0.076-0.111-0.439-0.56-1.178-0.259c0,0-0.395,0.171-0.632,0.259
	c0.237,0.087,0.632,0.259,0.632,0.259C10.797,20.561,11.16,20.111,11.236,20z M10.506,12.353c0.764,1.385,1.941,0.568,1.941,0.568
	c-1.243-0.042-1.503-1.492-1.503-1.492c-0.04-0.234-0.079-0.434-0.118-0.604c0.17,0.039,0.369,0.078,0.604,0.118
	c0,0,1.45,0.26,1.491,1.503c0,0,0.816-1.177-0.568-1.941c0,0-0.391-0.193-0.845-0.189c-0.26,0.002-0.544,0.029-0.803,0.056
	c-0.17-0.534-0.3-0.517-0.3-0.517h-0.023c0.062,0.031,0.051,0.251,0.022,0.548c-0.297,0.029-0.517,0.04-0.548-0.022v0.023
	c0,0-0.017,0.129,0.517,0.3c-0.027,0.259-0.054,0.543-0.056,0.803C10.313,11.962,10.506,12.353,10.506,12.353z M10.795,16.055
	c0.317,0.033,0.552-0.062,0.711-0.217c0.341-0.334,0.331-0.95,0.035-1.182c0,0,0.02,0.188,0.02,0.255
	c0,0.241-0.195,0.436-0.436,0.436c-0.181,0-0.335-0.11-0.402-0.266c0,0-0.179-0.599,0.837-0.692c0,0,1.512-0.031,2.264,0.541
	c0,0,0.886,0.912,1.803,0.799c0,0-1.03-0.422-1.886-1.288c-0.422-0.427-0.955-0.717-1.491-0.811c-0.55-0.096-1.103,0.014-1.54,0.393
	c-0.174,0.151-0.314,0.319-0.42,0.492c-0.21,0.344-0.284,0.708-0.205,0.997S10.396,16.013,10.795,16.055z M15.38,9.615
	c0.319-0.076,0.586-0.248,0.925-0.215c0.169,0.016,0.34,0.053,0.494,0.127c0.079,0.038,0.155,0.085,0.219,0.146
	c0.076,0.071,0.155,0.194,0.275,0.18s0.101-0.121,0.066-0.212c-0.066-0.177-0.231-0.353-0.358-0.486
	c-0.228-0.24-0.566-0.473-0.911-0.43c-0.475,0.059-0.699,0.524-1.107,0.706c-0.022,0.01-0.273,0.081-0.257-0.013
	C14.671,9.742,15.229,9.651,15.38,9.615z M20,2.487c0,0-0.47,0.514,0,1.201C20.47,3,20,2.487,20,2.487z M25.016,9.43
	c-0.408-0.182-0.632-0.647-1.106-0.706c-0.345-0.043-0.685,0.19-0.911,0.43c-0.127,0.133-0.292,0.309-0.357,0.486
	c-0.035,0.091-0.055,0.198,0.065,0.212c0.121,0.015,0.2-0.109,0.274-0.18c0.064-0.061,0.141-0.108,0.22-0.146
	c0.153-0.074,0.325-0.111,0.493-0.127c0.34-0.033,0.606,0.139,0.926,0.215c0.15,0.036,0.708,0.127,0.652-0.198
	C25.289,9.511,25.038,9.44,25.016,9.43z M29.618,9.855h-0.022c0,0-0.13-0.017-0.301,0.517c-0.259-0.027-0.543-0.054-0.803-0.056
	c-0.454-0.003-0.846,0.189-0.846,0.189c-1.385,0.764-0.567,1.941-0.567,1.941c0.042-1.243,1.491-1.503,1.491-1.503
	c0.234-0.04,0.435-0.079,0.604-0.118c-0.038,0.17-0.077,0.369-0.118,0.604c0,0-0.26,1.45-1.502,1.492c0,0,1.176,0.816,1.94-0.568
	c0,0,0.192-0.391,0.188-0.845c-0.002-0.259-0.029-0.544-0.056-0.803c0.534-0.17,0.517-0.3,0.517-0.3v-0.023
	c-0.031,0.062-0.25,0.051-0.547,0.022C29.566,10.106,29.557,9.887,29.618,9.855z M24.372,15.728
	c0.917,0.113,1.803-0.799,1.803-0.799c0.351-0.267,0.867-0.403,1.318-0.471c0.516-0.079,0.946-0.07,0.946-0.07
	c1.017,0.093,0.836,0.692,0.836,0.692c-0.065,0.156-0.221,0.266-0.401,0.266c-0.241,0-0.437-0.195-0.437-0.436
	c0-0.065,0.021-0.255,0.021-0.255c-0.324,0.255-0.305,0.974,0.147,1.273c0.15,0.1,0.349,0.152,0.599,0.126
	c0.671-0.071,0.868-0.627,0.663-1.211c-0.1-0.285-0.296-0.577-0.579-0.823c-0.54-0.467-1.255-0.525-1.925-0.292
	c-0.401,0.14-0.786,0.385-1.106,0.709C25.402,15.305,24.372,15.728,24.372,15.728z M30.008,17.961
	c0.061-0.392-0.42-0.886-0.072-1.24c-0.027,0.027-0.109,0.047-0.145,0.065c-0.1,0.053-0.201,0.113-0.275,0.2
	c-0.187,0.22-0.082,0.44,0.063,0.646c0.071,0.1,0.151,0.197,0.2,0.309c0.035,0.076,0.119,0.344,0.063,0.411
	C29.936,18.244,29.986,18.098,30.008,17.961z M23.014,29.518c-0.22-0.188-0.439-0.084-0.646,0.063
	c-0.101,0.07-0.197,0.15-0.31,0.201c-0.076,0.033-0.344,0.119-0.41,0.063c0.107,0.09,0.254,0.143,0.391,0.164
	c0.393,0.061,0.886-0.42,1.24-0.072c-0.027-0.027-0.047-0.109-0.065-0.145C23.161,29.693,23.102,29.591,23.014,29.518z
	 M19.741,29.941c0,0,0.171,0.395,0.259,0.632c0.087-0.237,0.259-0.632,0.259-0.632c0.302-0.738-0.148-1.103-0.259-1.178
	C19.889,28.84,19.44,29.203,19.741,29.941z M17.632,29.581c-0.207-0.146-0.426-0.25-0.646-0.063c-0.086,0.074-0.146,0.176-0.2,0.275
	c-0.019,0.035-0.038,0.117-0.065,0.145c0.354-0.348,0.849,0.131,1.24,0.072c0.137-0.021,0.283-0.072,0.391-0.164
	c-0.067,0.057-0.335-0.029-0.411-0.063C17.829,29.73,17.732,29.65,17.632,29.581z M16.986,10.483c0.22,0.187,0.44,0.083,0.646-0.063
	c0.1-0.071,0.197-0.151,0.309-0.201c0.076-0.034,0.344-0.119,0.411-0.063c-0.108-0.09-0.254-0.143-0.391-0.164
	c-0.392-0.06-0.886,0.42-1.24,0.073c0.027,0.027,0.047,0.109,0.065,0.144C16.839,10.307,16.899,10.409,16.986,10.483z
	 M20.259,10.058c0,0-0.171-0.394-0.259-0.631c-0.087,0.237-0.259,0.631-0.259,0.631C19.44,10.797,19.889,11.16,20,11.236
	C20.111,11.16,20.561,10.797,20.259,10.058z M22.368,10.419c0.207,0.146,0.426,0.25,0.646,0.063c0.086-0.074,0.146-0.176,0.2-0.275
	c0.019-0.035,0.038-0.117,0.065-0.144c-0.354,0.347-0.85-0.132-1.24-0.073c-0.137,0.021-0.283,0.073-0.391,0.164
	c0.066-0.056,0.334,0.029,0.41,0.063C22.171,10.269,22.268,10.349,22.368,10.419z M23.945,10.795
	c-0.035,0.332,0.07,0.574,0.238,0.732c0.339,0.319,0.934,0.303,1.16,0.014c0,0-0.189,0.02-0.255,0.02
	c-0.241,0-0.437-0.195-0.437-0.436c0-0.181,0.111-0.335,0.267-0.402c0,0,0.601-0.179,0.692,0.837c0,0,0.007,0.33-0.044,0.757
	c-0.059,0.489-0.192,1.106-0.497,1.507c0,0-0.912,0.886-0.799,1.803c0,0,0.422-1.03,1.287-1.886c0.389-0.384,0.663-0.859,0.78-1.345
	c0.145-0.597,0.051-1.209-0.362-1.686c-0.341-0.394-0.772-0.619-1.15-0.651C24.377,10.02,24.003,10.252,23.945,10.795z
	 M22.956,7.811c-0.272,0.247-0.771,1.071-0.923,1.263c-0.865,1.083-1.669,0.416-1.669,0.416c0.994,1.037,2.164-0.087,2.683-0.708
	c0.172-0.206,0.443-0.497,0.523-0.539c0.725-0.37,1.232,0.688,1.232,0.688C24.439,6.862,23.52,7.302,22.956,7.811z M17.044,7.811
	c-0.563-0.508-1.483-0.949-1.847,1.12c0,0,0.508-1.058,1.232-0.688c0.082,0.042,0.353,0.333,0.524,0.539
	c0.52,0.622,1.689,1.745,2.683,0.708c0,0-0.804,0.667-1.669-0.416C17.813,8.882,17.317,8.057,17.044,7.811z M14.021,10.711
	c-0.374,0.432-0.486,0.977-0.396,1.52c0.09,0.542,0.382,1.084,0.814,1.512c0.866,0.855,1.288,1.886,1.288,1.886
	c0.113-0.917-0.799-1.803-0.799-1.803c-0.267-0.351-0.403-0.867-0.471-1.318c-0.079-0.516-0.07-0.946-0.07-0.946
	c0.093-1.017,0.692-0.837,0.692-0.837c0.156,0.066,0.266,0.221,0.266,0.402c0,0.241-0.195,0.436-0.436,0.436
	c-0.065,0-0.255-0.02-0.255-0.02c0.246,0.312,0.919,0.306,1.237-0.097c0.123-0.156,0.192-0.371,0.163-0.649
	c-0.063-0.601-0.513-0.822-1.025-0.716C14.688,10.151,14.32,10.366,14.021,10.711z M9.992,17.961
	c0.021,0.137,0.073,0.283,0.164,0.391c-0.056-0.067,0.029-0.335,0.063-0.411c0.05-0.112,0.13-0.209,0.201-0.309
	c0.146-0.207,0.25-0.426,0.063-0.646c-0.074-0.086-0.176-0.146-0.275-0.2c-0.035-0.019-0.117-0.038-0.144-0.065
	C10.412,17.075,9.932,17.569,9.992,17.961z M10.064,23.279c0.027-0.027,0.109-0.047,0.144-0.065c0.099-0.053,0.201-0.112,0.275-0.2
	c0.187-0.22,0.083-0.439-0.063-0.646c-0.071-0.101-0.151-0.197-0.201-0.31c-0.034-0.076-0.119-0.344-0.063-0.41
	c-0.09,0.107-0.143,0.254-0.164,0.391C9.932,22.432,10.412,22.925,10.064,23.279z M16.055,29.205
	c0.035-0.332-0.07-0.573-0.239-0.732c-0.338-0.319-0.933-0.304-1.16-0.014c0,0,0.189-0.02,0.255-0.02
	c0.241,0,0.436,0.194,0.436,0.436c0,0.182-0.11,0.336-0.266,0.402c0,0-0.599,0.179-0.692-0.838c0,0-0.012-0.563,0.11-1.174
	c0.077-0.389,0.208-0.797,0.431-1.09c0,0,0.912-0.886,0.799-1.803c0,0-0.422,1.031-1.288,1.886
	c-0.367,0.362-0.632,0.808-0.759,1.266c-0.173,0.622-0.09,1.268,0.341,1.766c0.272,0.314,0.601,0.521,0.914,0.608
	C15.486,30.052,15.988,29.841,16.055,29.205z M17.044,32.189c0.273-0.248,0.77-1.071,0.923-1.264
	c0.865-1.083,1.669-0.416,1.669-0.416c-0.993-1.037-2.163,0.088-2.683,0.708c-0.172,0.206-0.443,0.497-0.524,0.539
	c-0.724,0.37-1.232-0.688-1.232-0.688C15.561,33.139,16.481,32.698,17.044,32.189z M22.956,32.189
	c0.563,0.508,1.483,0.949,1.847-1.121c0,0-0.508,1.059-1.232,0.688c-0.08-0.042-0.353-0.333-0.523-0.539
	c-0.52-0.622-1.689-1.745-2.683-0.708c0,0,0.804-0.667,1.669,0.416C22.188,31.118,22.684,31.943,22.956,32.189z M25.979,29.289
	c0.365-0.421,0.48-0.948,0.403-1.478c-0.082-0.557-0.378-1.115-0.821-1.554c-0.865-0.855-1.287-1.886-1.287-1.886
	c-0.113,0.917,0.799,1.803,0.799,1.803c0.275,0.361,0.411,0.898,0.478,1.359c0.072,0.497,0.063,0.905,0.063,0.905
	c-0.092,1.017-0.692,0.836-0.692,0.836c-0.155-0.065-0.267-0.221-0.267-0.401c0-0.241,0.195-0.437,0.437-0.437
	c0.065,0,0.255,0.021,0.255,0.021c-0.285-0.363-1.153-0.294-1.36,0.328c-0.039,0.119-0.055,0.258-0.038,0.418
	c0.046,0.439,0.299,0.676,0.632,0.729C25.005,30.002,25.56,29.773,25.979,29.289z M30.008,22.039
	c-0.021-0.137-0.072-0.283-0.164-0.391c0.057,0.066-0.029,0.334-0.063,0.41c-0.051,0.112-0.131,0.209-0.201,0.31
	c-0.146,0.207-0.25,0.426-0.063,0.646c0.073,0.086,0.176,0.146,0.274,0.2c0.035,0.019,0.117,0.038,0.144,0.065
	C29.588,22.925,30.068,22.432,30.008,22.039z M29.941,19.741C29.203,19.44,28.84,19.889,28.764,20
	c0.076,0.111,0.439,0.561,1.18,0.259c0,0,0.394-0.171,0.631-0.259C30.336,19.913,29.941,19.741,29.941,19.741z M30.473,16.799
	c-0.037,0.079-0.084,0.155-0.146,0.219c-0.071,0.076-0.194,0.155-0.181,0.275c0.015,0.12,0.121,0.101,0.213,0.066
	c0.177-0.066,0.353-0.231,0.486-0.358c0.24-0.228,0.473-0.566,0.43-0.911c-0.059-0.475-0.523-0.699-0.705-1.107
	c-0.01-0.022-0.082-0.273,0.013-0.257c-0.326-0.056-0.233,0.502-0.198,0.653c0.076,0.319,0.248,0.586,0.215,0.925
	C30.584,16.474,30.547,16.645,30.473,16.799z M30.512,19.636c0,0-0.668-0.804,0.415-1.669c0.192-0.153,1.017-0.65,1.263-0.923
	c0.509-0.563,0.949-1.483-1.119-1.847c0,0,1.058,0.508,0.688,1.232c-0.042,0.081-0.333,0.353-0.539,0.524
	C30.598,17.473,29.475,18.643,30.512,19.636z M32.163,14.021c1.536,1.603,0.69,3.253,0.69,3.253
	c0.234,0.048,0.444,0.334,0.444,0.334c0.438-0.896,0.231-2.03-0.134-2.679C32.759,14.208,32.163,14.021,32.163,14.021z
	 M34.632,16.238c0,0,0.017-1.12,0.985-1.183c0,0-1.102-0.458-1.508,0.375c-0.146,0.301-0.193,0.88-0.313,1.438
	c-0.141,0.661-0.349,1.293-0.46,1.4C33.338,18.268,34.379,17.729,34.632,16.238z M33.165,25.07c0.366-0.648,0.571-1.783,0.134-2.678
	c0,0-0.21,0.285-0.443,0.334c0,0,0.844,1.649-0.691,3.252C32.163,25.979,32.759,25.792,33.165,25.07z M34.109,24.57
	c0.406,0.834,1.508,0.375,1.508,0.375c-0.969-0.063-0.985-1.182-0.985-1.182c-0.253-1.492-1.294-2.031-1.294-2.031
	c0.111,0.106,0.319,0.74,0.46,1.4C33.917,23.691,33.963,24.27,34.109,24.57z M37.619,17.257c0,0-0.833,0.288-1.079,0.235
	c0,0,0.427-0.341,0.289-1.238c0,0-0.438-0.064-0.779,0.171c0,0,0.235-0.449,0.331-0.918c0,0,0.032-0.342,0.342-0.438
	c0,0-1.279-0.231-1.56,1.174c-0.14,0.697-0.544,2.061-1.826,2.178C33.338,18.421,35.825,19.5,37.619,17.257z M22.393,6.702
	c0,0,0.285,0.21,0.334,0.444c0,0,1.649-0.844,3.252,0.691c0,0-0.188-0.596-0.908-1.001C24.422,6.47,23.288,6.263,22.393,6.702z
	 M23.762,5.368c-1.49,0.253-2.029,1.294-2.029,1.294c0.105-0.112,0.738-0.32,1.399-0.46c0.56-0.119,1.138-0.165,1.438-0.312
	c0.832-0.406,0.375-1.508,0.375-1.508C24.882,5.352,23.762,5.368,23.762,5.368z M21.579,6.663c0.118-1.281,1.481-1.688,2.178-1.826
	c1.406-0.279,1.175-1.559,1.175-1.559c-0.096,0.31-0.438,0.341-0.438,0.341c-0.471,0.096-0.918,0.331-0.918,0.331
	c0.234-0.341,0.171-0.779,0.171-0.779c-0.896-0.139-1.238,0.289-1.238,0.289c-0.053-0.246,0.235-1.079,0.235-1.079
	C20.5,4.175,21.579,6.663,21.579,6.663z M19.181,4.974c0,0,0.956-0.299,0.374-1.24c0,0-0.583-0.418-0.657-0.672
	c0,0,0.523-0.03,0.732,0.448c0,0-0.393-0.956,0.371-1.419c0.765,0.463,0.371,1.419,0.371,1.419c0.209-0.478,0.731-0.448,0.731-0.448
	c-0.074,0.254-0.657,0.672-0.657,0.672c-0.583,0.941,0.374,1.24,0.374,1.24c-0.133-0.717,0.852-1.777,0.852-1.777
	c0.688-1.062,0.165-1.628,0.165-1.628c-0.09,0.717-0.567,0.702-0.567,0.702c-0.194-0.896,0.313-1.329,0.313-1.329
	c-0.97,0.094-1.041,0.71-1.045,0.831C20.557,0.824,20,0,20,0s-0.557,0.824-0.536,1.771c-0.005-0.121-0.076-0.736-1.045-0.831
	c0,0,0.508,0.433,0.314,1.329c0,0-0.478,0.015-0.568-0.702c0,0-0.522,0.567,0.165,1.628C18.33,3.196,19.315,4.256,19.181,4.974z
	 M16.243,4.836c0.697,0.139,2.061,0.545,2.178,1.826c0,0,1.078-2.488-1.164-4.282c0,0,0.288,0.833,0.235,1.079
	c0,0-0.341-0.427-1.238-0.289c0,0-0.064,0.438,0.171,0.779c0,0-0.449-0.235-0.918-0.331c0,0-0.342-0.032-0.438-0.341
	C15.069,3.278,14.837,4.557,16.243,4.836z M15.429,5.891c0.301,0.146,0.88,0.193,1.438,0.312c0.661,0.141,1.293,0.349,1.4,0.46
	c0,0-0.539-1.042-2.03-1.294c0,0-1.12-0.017-1.183-0.985C15.055,4.383,14.596,5.484,15.429,5.891z M14.021,7.837
	c1.603-1.536,3.253-0.691,3.253-0.691c0.048-0.233,0.334-0.444,0.334-0.444c-0.896-0.438-2.03-0.232-2.679,0.134
	C14.208,7.241,14.021,7.837,14.021,7.837z M3.132,12.554c0.413-0.144,0.58-0.58,0.58-0.58c0.157-0.415,0.351-0.486,0.351-0.486
	c0.119-0.072,0.297-0.052,0.407,0.022c0.242,0.163,0.439,0.472,0.37,0.772c-0.038,0.164-0.181,0.207-0.331,0.218
	c-0.178,0.014-0.317-0.023-0.482,0.046c0.057,0.114,0.146,0.21,0.192,0.331c0.049,0.129,0.094,0.227,0.016,0.399
	c-0.24-0.129-0.577-0.133-0.845-0.15c-0.894,0.007-0.83,0.76-0.83,0.76s0.338-0.567,0.527-0.318c0.033,0.043,0.057,0.095,0.09,0.14
	c0.121,0.164,0.327,0.306,0.526,0.346c0.233,0.047,0.472-0.023,0.676-0.135c0.12-0.065,0.242-0.145,0.347-0.232
	c0.064-0.054,0.126-0.11,0.186-0.169c0.094-0.094,0.184-0.193,0.264-0.3c0.163-0.218,0.266-0.465,0.4-0.7
	c0.111-0.195,0.247-0.376,0.416-0.524c0.105-0.092,0.218-0.173,0.342-0.238c0.856-0.447,2.246-0.626,3.01,0.488v0.069l-0.285-0.241
	c-1.481-1.236-3.167,1.453-3.167,1.453c-0.496,0.83-1.135,0.545-1.135,0.545c0.906,1.47,1.907-0.411,1.907-0.411
	c0.819-1.685,1.413-1.578,1.413-1.578c1.059-0.108,1.437,0.804,1.437,0.804c-0.082-0.084-0.181-0.158-0.28-0.22
	c-0.251-0.154-0.54-0.3-0.838-0.332c-0.09-0.009-0.184-0.002-0.27,0.024c-0.132,0.04-0.25,0.11-0.355,0.198
	c-0.085,0.071-0.162,0.152-0.231,0.239c-0.249,0.312-0.359,0.702-0.598,1.018c-0.058,0.077-0.123,0.149-0.195,0.214
	c-0.016,0.015-0.06,0.067-0.083,0.07c0.242-0.029,0.761-0.33,0.761-0.33c0.727-0.262,0.955,0.302,0.955,0.302
	c-0.621,0.428-0.902,1.499-0.902,1.499s0.779-0.97,1.533-0.74c0,0,0.287,0.025,0.405-0.384c0,0,0.297-0.511,0.64-0.077
	c0,0,0.258-0.818,0.654-0.984c0,0-0.684-0.189-0.93-1.179c-0.276-2.159-0.634-2.935-0.634-2.935C9.068,9.136,8.986,9.013,8.9,8.9
	c0.113,0.086,0.235,0.167,0.37,0.244c0,0,0.775,0.358,2.935,0.634c0.99,0.246,1.179,0.93,1.179,0.93
	c0.166-0.396,0.984-0.654,0.984-0.654c-0.435-0.342,0.077-0.64,0.077-0.64c0.409-0.119,0.384-0.405,0.384-0.405
	c-0.229-0.754,0.74-1.533,0.74-1.533s-1.071,0.281-1.499,0.902c0,0-0.564-0.228-0.302-0.955c0,0,0.3-0.519,0.33-0.761
	c-0.003,0.023-0.055,0.067-0.07,0.083c-0.065,0.072-0.137,0.137-0.214,0.195c-0.315,0.239-0.706,0.35-1.018,0.598
	c-0.087,0.069-0.168,0.146-0.239,0.231c-0.088,0.105-0.159,0.223-0.198,0.355c-0.026,0.086-0.034,0.18-0.024,0.27
	c0.031,0.298,0.177,0.586,0.332,0.838c0.061,0.1,0.135,0.199,0.219,0.28c0,0-0.912-0.378-0.804-1.437c0,0-0.107-0.594,1.578-1.413
	c0,0,1.881-1,0.411-1.907c0,0,0.285,0.639-0.545,1.135c0,0-2.688,1.686-1.453,3.167l0.241,0.285h-0.069
	c-1.114-0.764-0.935-2.154-0.488-3.01c0.065-0.124,0.146-0.237,0.238-0.342c0.148-0.169,0.33-0.305,0.524-0.416
	c0.235-0.134,0.482-0.237,0.7-0.4c0.107-0.08,0.206-0.17,0.3-0.264c0.059-0.059,0.116-0.121,0.169-0.186
	c0.088-0.105,0.167-0.227,0.232-0.347c0.112-0.204,0.183-0.443,0.135-0.676c-0.041-0.199-0.183-0.405-0.346-0.526
	c-0.044-0.033-0.097-0.057-0.14-0.09c-0.249-0.189,0.318-0.527,0.318-0.527s-0.753-0.064-0.76,0.83
	c0.018,0.268,0.021,0.604,0.15,0.845c-0.171,0.078-0.27,0.033-0.399-0.016c-0.12-0.046-0.217-0.135-0.331-0.192
	c-0.07,0.165-0.033,0.305-0.046,0.482c-0.012,0.149-0.055,0.293-0.218,0.331c-0.301,0.069-0.609-0.128-0.772-0.37
	c-0.074-0.11-0.094-0.288-0.022-0.407c0,0,0.072-0.193,0.486-0.351c0,0,0.436-0.167,0.58-0.58c0.14-0.403-0.006-1.047-0.472-1.51
	c0.076,0.075,0.096,0.308,0.11,0.404c0.034,0.242,0.012,0.511-0.101,0.73c-0.224,0.436-0.725,0.404-1.05,0.703
	c-0.198,0.181-0.191,0.449-0.154,0.695c0,0,0.122,0.572,0.737,1.059c0.181,0.143,0.088,0.368,0.011,0.54
	c-0.098,0.216-0.218,0.423-0.31,0.643c-0.098,0.233-0.146,0.502-0.175,0.752c-0.08,0.695,0.09,1.387,0.528,1.939
	c-0.301-0.193-0.876-0.719-0.862-1.918c0,0,0.41-3.11-0.868-3.682c0,0-0.639-0.21-0.687,0.505c0,0-0.019,0.563,0.467,0.677
	c0,0,0.458,0.048,0.506-0.219c0,0,0.439,0.601,0.229,2.127c0,0-0.458,1.917,0.973,2.604c0,0-1.937,0.181-2.862-1.393
	c0,0-0.486-0.891-0.219-1.466c0,0,0.105-0.232,0.305-0.07c0,0,0.563,0.448,0.954-0.296c0,0,0.458-0.935-0.439-1.106
	c0,0-1.145-0.243-1.479,1.314c0,0-0.124,1.164,0.63,2.161c-0.998-0.754-2.161-0.63-2.161-0.63C4.608,8.03,4.851,9.175,4.851,9.175
	c0.172,0.897,1.106,0.439,1.106,0.439C6.702,9.223,6.253,8.66,6.253,8.66c-0.162-0.2,0.07-0.305,0.07-0.305
	C6.899,8.087,7.79,8.574,7.79,8.574c1.574,0.925,1.393,2.862,1.393,2.862c-0.687-1.431-2.604-0.973-2.604-0.973
	c-1.526,0.21-2.127-0.229-2.127-0.229C4.718,10.186,4.67,9.728,4.67,9.728C4.556,9.242,3.993,9.261,3.993,9.261
	C3.277,9.309,3.487,9.948,3.487,9.948c0.572,1.278,3.682,0.868,3.682,0.868c1.199-0.014,1.725,0.561,1.918,0.861
	C8.536,11.24,7.843,11.07,7.148,11.15c-0.25,0.029-0.519,0.077-0.752,0.175c-0.219,0.092-0.426,0.212-0.643,0.31
	c-0.171,0.078-0.397,0.17-0.54-0.011c-0.487-0.615-1.059-0.737-1.059-0.737c-0.246-0.038-0.514-0.044-0.695,0.154
	c-0.298,0.325-0.267,0.827-0.703,1.05c-0.219,0.113-0.488,0.135-0.73,0.101c-0.096-0.014-0.329-0.034-0.404-0.11
	C2.084,12.548,2.729,12.694,3.132,12.554z M1.568,21.835c0,0,0.567,0.522,1.628-0.165c0,0,1.06-0.986,1.777-0.852
	c0,0-0.299-0.956-1.24-0.374c0,0-0.418,0.583-0.672,0.657c0,0-0.03-0.522,0.448-0.731c0,0-0.956,0.394-1.419-0.371
	c0.463-0.764,1.419-0.371,1.419-0.371c-0.478-0.209-0.448-0.732-0.448-0.732c0.254,0.075,0.672,0.657,0.672,0.657
	c0.941,0.583,1.24-0.374,1.24-0.374c-0.717,0.135-1.777-0.851-1.777-0.851c-1.061-0.687-1.628-0.165-1.628-0.165
	c0.717,0.09,0.702,0.568,0.702,0.568c-0.896,0.194-1.329-0.314-1.329-0.314c0.094,0.969,0.71,1.041,0.831,1.045
	C0.824,19.443,0,20,0,20s0.824,0.557,1.771,0.536c-0.121,0.005-0.736,0.075-0.831,1.045c0,0,0.433-0.508,1.329-0.313
	C2.27,21.268,2.285,21.745,1.568,21.835z M2.487,20c0,0,0.514,0.47,1.201,0C3,19.53,2.487,20,2.487,20z M13.659,33.338
	c-1.685-0.818-1.578-1.414-1.578-1.414c-0.108-1.059,0.804-1.438,0.804-1.438c-0.084,0.082-0.158,0.182-0.219,0.281
	c-0.155,0.25-0.301,0.539-0.332,0.838c-0.009,0.09-0.001,0.184,0.024,0.27c0.04,0.132,0.11,0.25,0.198,0.355
	c0.071,0.084,0.152,0.162,0.239,0.23c0.312,0.249,0.702,0.359,1.018,0.598c0.077,0.059,0.149,0.125,0.214,0.195
	c0.015,0.016,0.067,0.061,0.07,0.083c-0.029-0.243-0.33-0.761-0.33-0.761c-0.262-0.727,0.302-0.955,0.302-0.955
	c0.428,0.621,1.499,0.902,1.499,0.902s-0.97-0.779-0.74-1.533c0,0,0.025-0.287-0.384-0.405c0,0-0.511-0.297-0.077-0.64
	c0,0-0.818-0.258-0.984-0.654c0,0-0.189,0.684-1.179,0.93c-2.159,0.276-2.935,0.635-2.935,0.635C9.136,30.932,9.013,31.014,8.9,31.1
	c0.086-0.113,0.167-0.234,0.244-0.369c0,0,0.358-0.775,0.634-2.936c0.246-0.99,0.93-1.179,0.93-1.179
	c-0.396-0.166-0.654-0.984-0.654-0.984c-0.342,0.435-0.64-0.077-0.64-0.077c-0.119-0.408-0.405-0.384-0.405-0.384
	c-0.754,0.229-1.533-0.739-1.533-0.739s0.281,1.07,0.902,1.498c0,0-0.228,0.564-0.955,0.303c0,0-0.519-0.301-0.761-0.33
	c0.023,0.003,0.067,0.055,0.083,0.07c0.072,0.064,0.137,0.137,0.195,0.213c0.239,0.315,0.35,0.707,0.598,1.019
	c0.069,0.087,0.146,0.168,0.231,0.239c0.105,0.088,0.223,0.158,0.355,0.197c0.086,0.026,0.18,0.034,0.27,0.024
	c0.298-0.031,0.586-0.177,0.838-0.332c0.1-0.062,0.199-0.135,0.28-0.219c0,0-0.378,0.911-1.437,0.804c0,0-0.594,0.107-1.413-1.578
	c0,0-1-1.881-1.907-0.41c0,0,0.639-0.285,1.135,0.545c0,0,1.686,2.688,3.167,1.452l0.285-0.241v0.069
	c-0.764,1.114-2.154,0.937-3.01,0.488c-0.124-0.065-0.237-0.146-0.342-0.239c-0.169-0.148-0.305-0.329-0.416-0.523
	c-0.134-0.234-0.237-0.481-0.4-0.699c-0.08-0.107-0.17-0.206-0.264-0.301c-0.059-0.059-0.121-0.115-0.186-0.168
	c-0.105-0.088-0.227-0.168-0.347-0.232c-0.204-0.112-0.443-0.184-0.676-0.135c-0.199,0.041-0.405,0.183-0.526,0.346
	c-0.033,0.044-0.057,0.098-0.09,0.141c-0.189,0.248-0.527-0.318-0.527-0.318s-0.064,0.753,0.83,0.76
	c0.268-0.018,0.604-0.021,0.845-0.15c0.078,0.172,0.033,0.271-0.016,0.399c-0.046,0.12-0.135,0.217-0.192,0.331
	c0.165,0.07,0.305,0.033,0.482,0.046c0.149,0.012,0.293,0.056,0.331,0.219c0.069,0.3-0.128,0.609-0.37,0.772
	c-0.11,0.074-0.288,0.093-0.407,0.021c0,0-0.193-0.07-0.351-0.486c0,0-0.167-0.436-0.58-0.58c-0.403-0.139-1.047,0.007-1.51,0.473
	c0.075-0.076,0.308-0.096,0.404-0.109c0.242-0.035,0.511-0.013,0.73,0.101c0.436,0.224,0.404,0.725,0.703,1.05
	c0.181,0.198,0.449,0.191,0.695,0.154c0,0,0.572-0.122,1.059-0.737c0.143-0.181,0.368-0.088,0.54-0.011
	c0.216,0.098,0.423,0.218,0.643,0.31c0.233,0.099,0.502,0.146,0.752,0.175c0.695,0.08,1.387-0.09,1.939-0.526
	c-0.193,0.301-0.719,0.875-1.918,0.86c0,0-3.11-0.41-3.682,0.868c0,0-0.21,0.64,0.505,0.688c0,0,0.563,0.019,0.677-0.468
	c0,0,0.048-0.457-0.219-0.506c0,0,0.601-0.438,2.127-0.229c0,0,1.917,0.458,2.604-0.973c0,0,0.181,1.937-1.393,2.861
	c0,0-0.891,0.486-1.466,0.219c0,0-0.232-0.104-0.07-0.305c0,0,0.448-0.563-0.296-0.954c0,0-0.935-0.458-1.106,0.439
	c0,0-0.243,1.145,1.314,1.479c0,0,1.164,0.123,2.161-0.631c-0.754,0.998-0.63,2.161-0.63,2.161c0.334,1.558,1.479,1.313,1.479,1.313
	c0.897-0.172,0.439-1.105,0.439-1.105c-0.391-0.744-0.954-0.296-0.954-0.296c-0.2,0.162-0.305-0.07-0.305-0.07
	c-0.267-0.575,0.219-1.466,0.219-1.466c0.925-1.574,2.862-1.393,2.862-1.393c-1.431,0.687-0.973,2.604-0.973,2.604
	c0.21,1.526-0.229,2.127-0.229,2.127c-0.048-0.267-0.506-0.219-0.506-0.219c-0.486,0.113-0.467,0.677-0.467,0.677
	c0.048,0.716,0.687,0.507,0.687,0.507c1.278-0.574,0.868-3.684,0.868-3.684c-0.014-1.199,0.561-1.725,0.862-1.918
	c-0.438,0.552-0.608,1.244-0.528,1.939c0.029,0.25,0.077,0.519,0.175,0.752c0.092,0.219,0.212,0.426,0.31,0.643
	c0.078,0.171,0.17,0.396-0.011,0.54c-0.615,0.485-0.737,1.059-0.737,1.059c-0.038,0.246-0.044,0.515,0.154,0.695
	c0.325,0.298,0.827,0.267,1.05,0.703c0.113,0.219,0.135,0.487,0.101,0.729c-0.014,0.096-0.034,0.329-0.11,0.404
	c0.466-0.462,0.612-1.107,0.472-1.51c-0.144-0.413-0.58-0.579-0.58-0.579c-0.415-0.158-0.486-0.351-0.486-0.351
	c-0.072-0.119-0.052-0.297,0.022-0.408c0.163-0.241,0.472-0.438,0.772-0.369c0.164,0.038,0.207,0.181,0.218,0.331
	c0.014,0.178-0.023,0.317,0.046,0.481c0.114-0.057,0.21-0.146,0.331-0.191c0.129-0.049,0.228-0.094,0.399-0.016
	c-0.129,0.239-0.133,0.576-0.15,0.844c0.007,0.895,0.76,0.83,0.76,0.83s-0.567-0.338-0.318-0.526c0.043-0.033,0.096-0.058,0.14-0.09
	c0.164-0.121,0.306-0.327,0.346-0.526c0.047-0.232-0.023-0.472-0.135-0.676c-0.065-0.12-0.144-0.242-0.232-0.348
	c-0.054-0.063-0.11-0.125-0.169-0.186c-0.094-0.094-0.193-0.184-0.3-0.264c-0.218-0.163-0.465-0.266-0.7-0.4
	c-0.195-0.111-0.376-0.247-0.524-0.416c-0.092-0.105-0.173-0.218-0.238-0.342c-0.447-0.855-0.626-2.246,0.488-3.01h0.069
	l-0.241,0.285c-1.236,1.48,1.453,3.166,1.453,3.166c0.83,0.496,0.545,1.136,0.545,1.136C15.54,34.338,13.659,33.338,13.659,33.338z
	 M17.608,33.298c0,0-0.286-0.21-0.334-0.444c0,0-1.65,0.845-3.253-0.69c0,0,0.188,0.596,0.908,1.001
	C15.578,33.53,16.712,33.736,17.608,33.298z M16.238,34.632c1.491-0.253,2.03-1.294,2.03-1.294c-0.106,0.111-0.739,0.319-1.4,0.46
	c-0.559,0.119-1.138,0.165-1.438,0.312c-0.833,0.406-0.375,1.509-0.375,1.509C15.118,34.648,16.238,34.632,16.238,34.632z
	 M18.421,33.338c-0.118,1.281-1.481,1.688-2.178,1.826c-1.406,0.279-1.174,1.559-1.174,1.559c0.096-0.31,0.438-0.341,0.438-0.341
	c0.47-0.096,0.918-0.331,0.918-0.331c-0.235,0.342-0.171,0.779-0.171,0.779c0.897,0.139,1.238-0.289,1.238-0.289
	c0.053,0.246-0.235,1.079-0.235,1.079C19.5,35.825,18.421,33.338,18.421,33.338z M20.818,35.025c0,0-0.956,0.3-0.374,1.24
	c0,0,0.583,0.418,0.657,0.672c0,0-0.522,0.03-0.731-0.447c0,0,0.394,0.955-0.371,1.419c-0.764-0.464-0.371-1.419-0.371-1.419
	c-0.209,0.478-0.732,0.447-0.732,0.447c0.075-0.254,0.657-0.672,0.657-0.672c0.583-0.94-0.374-1.24-0.374-1.24
	c0.135,0.718-0.851,1.777-0.851,1.777c-0.687,1.062-0.165,1.629-0.165,1.629c0.09-0.718,0.568-0.703,0.568-0.703
	c0.194,0.896-0.314,1.33-0.314,1.33c0.969-0.095,1.041-0.711,1.045-0.832C19.443,39.176,20,40,20,40s0.557-0.824,0.536-1.771
	c0.005,0.121,0.075,0.736,1.045,0.832c0,0-0.508-0.434-0.313-1.33c0,0,0.478-0.015,0.567,0.703c0,0,0.522-0.567-0.165-1.629
	C21.67,36.805,20.686,35.744,20.818,35.025z M23.757,35.164c-0.696-0.139-2.062-0.544-2.178-1.826c0,0-1.078,2.487,1.164,4.281
	c0,0-0.288-0.833-0.235-1.079c0,0,0.342,0.427,1.238,0.289c0,0,0.064-0.438-0.171-0.779c0,0,0.448,0.235,0.918,0.331
	c0,0,0.342,0.032,0.438,0.342C24.932,36.723,25.163,35.443,23.757,35.164z M24.57,34.109c-0.301-0.146-0.879-0.193-1.438-0.313
	c-0.66-0.141-1.293-0.349-1.4-0.46c0,0,0.539,1.041,2.031,1.294c0,0,1.119,0.018,1.182,0.985
	C24.945,35.617,25.404,34.516,24.57,34.109z M25.979,32.163c-1.603,1.536-3.252,0.69-3.252,0.69
	c-0.049,0.234-0.334,0.444-0.334,0.444c0.896,0.438,2.029,0.231,2.678-0.134C25.792,32.759,25.979,32.163,25.979,32.163z
	 M36.868,27.445c-0.413,0.145-0.579,0.58-0.579,0.58c-0.158,0.416-0.352,0.486-0.352,0.486c-0.119,0.071-0.297,0.053-0.406-0.021
	c-0.242-0.163-0.439-0.473-0.37-0.772c0.038-0.163,0.181-0.207,0.331-0.219c0.178-0.015,0.316,0.022,0.482-0.046
	c-0.058-0.114-0.146-0.21-0.192-0.331c-0.05-0.129-0.095-0.228-0.017-0.399c0.24,0.129,0.577,0.133,0.846,0.15
	c0.894-0.007,0.83-0.76,0.83-0.76s-0.338,0.566-0.527,0.318c-0.033-0.043-0.057-0.097-0.09-0.141
	c-0.121-0.164-0.327-0.307-0.526-0.346c-0.233-0.047-0.472,0.022-0.676,0.135c-0.12,0.064-0.242,0.145-0.347,0.232
	c-0.064,0.054-0.127,0.109-0.187,0.168c-0.094,0.095-0.185,0.193-0.264,0.301c-0.163,0.218-0.267,0.465-0.4,0.699
	c-0.11,0.194-0.247,0.375-0.416,0.523c-0.104,0.092-0.218,0.174-0.342,0.239c-0.856,0.446-2.246,0.626-3.01-0.488v-0.069
	l0.284,0.241c1.481,1.236,3.168-1.452,3.168-1.452c0.496-0.83,1.135-0.545,1.135-0.545c-0.906-1.471-1.906,0.41-1.906,0.41
	c-0.818,1.686-1.414,1.578-1.414,1.578c-1.059,0.107-1.438-0.804-1.438-0.804c0.082,0.084,0.182,0.157,0.281,0.219
	c0.25,0.155,0.539,0.301,0.838,0.332c0.09,0.009,0.184,0.001,0.271-0.024c0.131-0.039,0.25-0.109,0.354-0.197
	c0.084-0.071,0.162-0.152,0.23-0.239c0.249-0.312,0.359-0.702,0.598-1.019c0.059-0.076,0.125-0.148,0.195-0.213
	c0.016-0.016,0.061-0.067,0.083-0.07c-0.243,0.029-0.761,0.33-0.761,0.33c-0.727,0.262-0.955-0.303-0.955-0.303
	c0.621-0.428,0.902-1.498,0.902-1.498s-0.779,0.969-1.533,0.739c0,0-0.287-0.024-0.405,0.384c0,0-0.297,0.512-0.64,0.077
	c0,0-0.258,0.818-0.654,0.984c0,0,0.684,0.188,0.93,1.179c0.276,2.159,0.635,2.936,0.635,2.936c0.076,0.135,0.158,0.256,0.244,0.369
	c-0.113-0.086-0.236-0.166-0.371-0.244c0,0-0.775-0.357-2.935-0.633c-0.989-0.246-1.179-0.931-1.179-0.931
	c-0.166,0.396-0.984,0.653-0.984,0.653c0.436,0.343-0.076,0.641-0.076,0.641c-0.41,0.119-0.385,0.405-0.385,0.405
	c0.229,0.754-0.74,1.532-0.74,1.532s1.071-0.28,1.5-0.901c0,0,0.563,0.228,0.301,0.955c0,0-0.299,0.519-0.33,0.761
	c0.004-0.023,0.056-0.066,0.07-0.083c0.065-0.071,0.137-0.137,0.215-0.194c0.314-0.24,0.705-0.351,1.018-0.599
	c0.087-0.069,0.168-0.146,0.238-0.231c0.088-0.104,0.16-0.223,0.199-0.354c0.025-0.086,0.033-0.181,0.023-0.271
	c-0.031-0.297-0.178-0.586-0.332-0.838c-0.063-0.1-0.135-0.199-0.221-0.279c0,0,0.912,0.378,0.805,1.437
	c0,0,0.107,0.595-1.577,1.414c0,0-1.881,1-0.412,1.906c0,0-0.284-0.64,0.546-1.136c0,0,2.688-1.686,1.452-3.166l-0.241-0.285h0.069
	c1.114,0.764,0.937,2.154,0.488,3.01c-0.065,0.124-0.146,0.237-0.238,0.342c-0.147,0.17-0.33,0.305-0.524,0.416
	c-0.234,0.135-0.481,0.237-0.699,0.4c-0.107,0.08-0.206,0.17-0.301,0.264c-0.059,0.059-0.115,0.121-0.168,0.186
	c-0.088,0.105-0.168,0.228-0.232,0.348c-0.112,0.204-0.184,0.443-0.135,0.676c0.041,0.199,0.183,0.405,0.346,0.526
	c0.045,0.032,0.098,0.057,0.141,0.09c0.248,0.188-0.318,0.526-0.318,0.526s0.752,0.064,0.76-0.83
	c-0.018-0.268-0.021-0.604-0.15-0.844c0.172-0.078,0.271-0.033,0.399,0.016c0.12,0.046,0.216,0.135,0.331,0.191
	c0.068-0.164,0.031-0.305,0.046-0.481c0.012-0.149,0.055-0.293,0.219-0.331c0.3-0.069,0.609,0.128,0.772,0.37
	c0.074,0.11,0.094,0.288,0.021,0.407c0,0-0.07,0.192-0.486,0.351c0,0-0.436,0.166-0.58,0.579c-0.139,0.402,0.007,1.047,0.473,1.51
	c-0.076-0.074-0.096-0.309-0.109-0.404c-0.035-0.242-0.013-0.511,0.101-0.729c0.224-0.437,0.725-0.404,1.05-0.703
	c0.197-0.181,0.191-0.449,0.154-0.694c0,0-0.123-0.572-0.737-1.06c-0.181-0.144-0.088-0.369-0.011-0.54
	c0.098-0.216,0.218-0.423,0.31-0.643c0.099-0.233,0.146-0.502,0.175-0.752c0.08-0.695-0.09-1.388-0.527-1.939
	c0.302,0.193,0.875,0.719,0.863,1.918c0,0-0.412,3.109,0.867,3.684c0,0,0.639,0.209,0.688-0.507c0,0,0.019-0.563-0.467-0.677
	c0,0-0.459-0.048-0.506,0.219c0,0-0.439-0.601-0.229-2.127c0,0,0.458-1.917-0.974-2.604c0,0,1.938-0.182,2.862,1.393
	c0,0,0.486,0.891,0.22,1.467c0,0-0.105,0.231-0.306,0.069c0,0-0.563-0.448-0.954,0.296c0,0-0.458,0.936,0.439,1.105
	c0,0,1.145,0.244,1.479-1.313c0,0,0.124-1.164-0.63-2.161c0.998,0.754,2.161,0.631,2.161,0.631c1.557-0.334,1.314-1.479,1.314-1.479
	c-0.172-0.897-1.106-0.438-1.106-0.438c-0.744,0.391-0.296,0.953-0.296,0.953c0.162,0.2-0.07,0.305-0.07,0.305
	c-0.576,0.268-1.466-0.219-1.466-0.219c-1.574-0.925-1.394-2.861-1.394-2.861c0.688,1.431,2.604,0.973,2.604,0.973
	c1.526-0.21,2.127,0.229,2.127,0.229c-0.267,0.049-0.219,0.506-0.219,0.506c0.114,0.486,0.677,0.468,0.677,0.468
	c0.715-0.048,0.506-0.687,0.506-0.687c-0.572-1.279-3.683-0.869-3.683-0.869c-1.199,0.015-1.726-0.561-1.918-0.86
	c0.552,0.437,1.243,0.606,1.938,0.526c0.25-0.028,0.52-0.076,0.752-0.175c0.219-0.092,0.426-0.212,0.644-0.31
	c0.171-0.078,0.397-0.17,0.54,0.011c0.486,0.615,1.059,0.737,1.059,0.737c0.246,0.037,0.514,0.044,0.695-0.154
	c0.298-0.325,0.268-0.827,0.703-1.05c0.219-0.113,0.488-0.136,0.73-0.101c0.096,0.014,0.328,0.033,0.403,0.109
	C37.916,27.452,37.271,27.307,36.868,27.445z M38.229,20.536C39.176,20.557,40,20,40,20s-0.824-0.557-1.771-0.536
	c0.121-0.005,0.736-0.076,0.832-1.045c0,0-0.434,0.508-1.33,0.314c0,0-0.015-0.478,0.703-0.568c0,0-0.567-0.522-1.629,0.165
	c0,0-1.06,0.986-1.777,0.851c0,0,0.3,0.956,1.24,0.374c0,0,0.418-0.583,0.672-0.657c0,0,0.031,0.523-0.447,0.732
	c0,0,0.956-0.393,1.419,0.371c-0.463,0.765-1.419,0.371-1.419,0.371c0.479,0.209,0.447,0.731,0.447,0.731
	c-0.254-0.074-0.672-0.656-0.672-0.656c-0.94-0.583-1.24,0.373-1.24,0.373c0.718-0.135,1.777,0.852,1.777,0.852
	c1.062,0.688,1.629,0.165,1.629,0.165c-0.718-0.09-0.703-0.567-0.703-0.567c0.896-0.194,1.33,0.313,1.33,0.313
	C38.965,20.611,38.35,20.541,38.229,20.536z M37.514,20c0,0-0.515-0.47-1.201,0C37,20.47,37.514,20,37.514,20z M21.014,32.536
	c0.244,0.612,0.938,0.551,0.938,0.551c0.611-0.133,0.541-0.796,0.541-0.796c-0.082-0.93-0.827-0.439-0.827-0.439
	c0.092-1.275-0.949-1.111-0.949-1.111c-0.388,0.092-0.459,0.582-0.459,0.582C20.001,31.127,20,30.657,20,30.657
	s-0.001,0.47-0.257,0.663c0,0-0.071-0.489-0.459-0.581c0,0-1.041-0.164-0.949,1.112c0,0-0.745-0.49-0.827,0.438
	c0,0-0.071,0.664,0.541,0.796c0,0,0.693,0.061,0.938-0.551c0,0,0.031,0.123,0.256,0.204c0,0-1.344,0.847,0.757,2.47
	c2.102-1.623,0.757-2.47,0.757-2.47C20.98,32.658,21.014,32.536,21.014,32.536z M18.752,31.801c0,0,0.042-0.847,0.624-0.316
	C19.376,31.484,19.252,31.617,18.752,31.801z M20.604,33.291C20.818,33.832,20,34.566,20,34.566s-0.818-0.734-0.604-1.275
	c0,0,0.521-0.623,0.438-0.909c0,0-0.459-0.245-0.551-0.438c0,0,0.595,0.031,0.716-0.377c0.121,0.408,0.716,0.377,0.716,0.377
	c-0.092,0.193-0.551,0.438-0.551,0.438C20.083,32.668,20.604,33.291,20.604,33.291z M20.624,31.484
	c0.582-0.531,0.624,0.315,0.624,0.315C20.748,31.617,20.624,31.484,20.624,31.484z M7.26,20.757
	c0.082,0.226,0.204,0.257,0.204,0.257c-0.612,0.244-0.551,0.938-0.551,0.938c0.133,0.611,0.796,0.541,0.796,0.541
	c0.929-0.082,0.439-0.827,0.439-0.827c1.276,0.092,1.112-0.949,1.112-0.949c-0.092-0.388-0.582-0.459-0.582-0.459
	C8.873,20.001,9.343,20,9.343,20s-0.47-0.001-0.664-0.257c0,0,0.49-0.071,0.582-0.459c0,0,0.164-1.041-1.112-0.949
	c0,0,0.49-0.745-0.439-0.827c0,0-0.664-0.071-0.796,0.541c0,0-0.061,0.693,0.551,0.938c0,0-0.123,0.031-0.204,0.256
	c0,0-0.847-1.344-2.47,0.757C6.413,22.102,7.26,20.757,7.26,20.757z M8.199,21.248c0.184-0.5,0.316-0.624,0.316-0.624
	C9.046,21.206,8.199,21.248,8.199,21.248z M8.516,19.376c0,0-0.132-0.124-0.316-0.624C8.199,18.752,9.046,18.794,8.516,19.376z
	 M6.709,19.396c0,0,0.623,0.521,0.909,0.439c0,0,0.245-0.459,0.439-0.551c0,0-0.031,0.595,0.377,0.716
	c-0.408,0.121-0.377,0.716-0.377,0.716c-0.194-0.092-0.439-0.551-0.439-0.551c-0.286-0.082-0.909,0.438-0.909,0.438
	C6.168,20.818,5.433,20,5.433,20S6.168,19.182,6.709,19.396z M32.74,19.243c-0.082-0.225-0.204-0.256-0.204-0.256
	c0.612-0.245,0.551-0.938,0.551-0.938c-0.133-0.612-0.796-0.541-0.796-0.541c-0.93,0.082-0.439,0.827-0.439,0.827
	c-1.275-0.092-1.111,0.949-1.111,0.949c0.092,0.388,0.582,0.459,0.582,0.459C31.127,19.999,30.657,20,30.657,20
	s0.47,0.001,0.663,0.257c0,0-0.489,0.071-0.582,0.459c0,0-0.163,1.041,1.113,0.949c0,0-0.49,0.745,0.438,0.827
	c0,0,0.664,0.07,0.796-0.541c0,0,0.061-0.693-0.551-0.938c0,0,0.123-0.031,0.203-0.257c0,0,0.848,1.345,2.471-0.757
	C33.587,17.899,32.74,19.243,32.74,19.243z M31.801,18.752c-0.184,0.5-0.316,0.624-0.316,0.624
	C30.954,18.794,31.801,18.752,31.801,18.752z M31.484,20.624c0,0,0.132,0.124,0.315,0.624
	C31.801,21.248,30.954,21.206,31.484,20.624z M33.291,20.604c0,0-0.623-0.521-0.909-0.438c0,0-0.245,0.459-0.438,0.551
	c0,0,0.031-0.595-0.377-0.716c0.408-0.121,0.377-0.716,0.377-0.716c0.193,0.092,0.438,0.551,0.438,0.551
	c0.286,0.082,0.909-0.439,0.909-0.439C33.832,19.182,34.566,20,34.566,20S33.832,20.818,33.291,20.604z M18.987,7.464
	c-0.245-0.612-0.938-0.551-0.938-0.551c-0.612,0.133-0.541,0.796-0.541,0.796c0.082,0.929,0.827,0.439,0.827,0.439
	c-0.092,1.276,0.949,1.112,0.949,1.112c0.388-0.092,0.459-0.582,0.459-0.582C19.999,8.873,20,9.343,20,9.343s0.001-0.47,0.257-0.664
	c0,0,0.071,0.49,0.459,0.582c0,0,1.041,0.164,0.949-1.112c0,0,0.745,0.49,0.827-0.439c0,0,0.07-0.664-0.541-0.796
	c0,0-0.693-0.061-0.938,0.551c0,0-0.031-0.123-0.257-0.204c0,0,1.345-0.847-0.757-2.47c-2.101,1.623-0.757,2.47-0.757,2.47
	C19.019,7.342,18.987,7.464,18.987,7.464z M21.248,8.199c0,0-0.042,0.847-0.624,0.316C20.624,8.516,20.748,8.383,21.248,8.199z
	 M19.396,6.709C19.182,6.168,20,5.433,20,5.433s0.818,0.735,0.604,1.276c0,0-0.521,0.623-0.438,0.909c0,0,0.459,0.245,0.551,0.439
	c0,0-0.595-0.031-0.716,0.377c-0.121-0.408-0.716-0.377-0.716-0.377c0.092-0.194,0.551-0.439,0.551-0.439
	C19.917,7.332,19.396,6.709,19.396,6.709z M19.376,8.516C18.794,9.047,18.752,8.2,18.752,8.2
	C19.252,8.383,19.376,8.516,19.376,8.516z M29.835,19.392c0,0-0.63-0.522-1.297-0.404c0,0,0.231-0.687,1.185,0.05
	c0,0,0.211-0.294-0.382-1.21c0,0-0.688-1.164,0.495-1.469c0,0-0.096-0.229-0.84,0.076c0,0-0.4-0.057-0.916-0.801
	c0,0-0.262-0.333-0.688-0.437c-0.604-0.148-1.447,0.032-1.525,1.143c0,0-0.458-0.611-1.583,0.019c0,0-0.683,0.477-1.328,0.687
	c0.209-0.646,0.687-1.328,0.687-1.328c0.629-1.126,0.02-1.583,0.02-1.583c1.109-0.079,1.291-0.921,1.143-1.526
	c-0.104-0.425-0.438-0.687-0.438-0.687c-0.744-0.515-0.801-0.916-0.801-0.916c0.305-0.744,0.076-0.84,0.076-0.84
	c-0.306,1.183-1.469,0.495-1.469,0.495c-0.916-0.592-1.21-0.382-1.21-0.382c0.736,0.952,0.05,1.185,0.05,1.185
	c0.118-0.667-0.404-1.297-0.404-1.297c0.049,0.866-0.487,1.344-0.607,1.439c-0.12-0.096-0.656-0.573-0.608-1.439
	c0,0-0.522,0.63-0.404,1.297c0,0-0.687-0.232,0.05-1.185c0,0-0.294-0.21-1.21,0.382c0,0-1.164,0.688-1.469-0.495
	c0,0-0.229,0.096,0.076,0.84c0,0-0.057,0.4-0.801,0.916c0,0-0.333,0.262-0.437,0.687c-0.148,0.605,0.032,1.448,1.143,1.526
	c0,0-0.611,0.458,0.019,1.583c0,0,0.477,0.682,0.687,1.328c-0.646-0.209-1.328-0.687-1.328-0.687
	c-1.126-0.629-1.583-0.019-1.583-0.019c-0.079-1.111-0.921-1.291-1.526-1.143c-0.425,0.104-0.687,0.437-0.687,0.437
	c-0.515,0.744-0.916,0.801-0.916,0.801c-0.744-0.305-0.84-0.076-0.84-0.076c1.183,0.305,0.495,1.469,0.495,1.469
	c-0.592,0.916-0.382,1.21-0.382,1.21c0.952-0.736,1.185-0.05,1.185-0.05c-0.667-0.118-1.297,0.404-1.297,0.404
	c0.866-0.048,1.344,0.488,1.439,0.608c-0.096,0.12-0.573,0.656-1.439,0.607c0,0,0.63,0.522,1.297,0.404c0,0-0.232,0.688-1.185-0.05
	c0,0-0.21,0.294,0.382,1.21c0,0,0.688,1.164-0.495,1.469c0,0,0.096,0.229,0.84-0.076c0,0,0.4,0.058,0.916,0.802
	c0,0,0.262,0.333,0.687,0.437c0.605,0.148,1.448-0.031,1.526-1.142c0,0,0.458,0.61,1.583-0.019c0,0,0.682-0.479,1.328-0.688
	c-0.209,0.646-0.687,1.328-0.687,1.328c-0.63,1.126-0.019,1.583-0.019,1.583c-1.111,0.079-1.291,0.921-1.143,1.526
	c0.104,0.424,0.437,0.687,0.437,0.687c0.744,0.515,0.801,0.916,0.801,0.916c-0.305,0.744-0.076,0.84-0.076,0.84
	c0.305-1.183,1.469-0.495,1.469-0.495c0.916,0.592,1.21,0.383,1.21,0.383c-0.736-0.953-0.05-1.186-0.05-1.186
	c-0.118,0.667,0.404,1.297,0.404,1.297c-0.048-0.866,0.488-1.344,0.608-1.439c0.12,0.096,0.656,0.573,0.607,1.439
	c0,0,0.522-0.63,0.404-1.297c0,0,0.688,0.232-0.05,1.186c0,0,0.294,0.209,1.21-0.383c0,0,1.164-0.688,1.469,0.495
	c0,0,0.229-0.096-0.076-0.84c0,0,0.057-0.399,0.801-0.916c0,0,0.333-0.263,0.438-0.687c0.147-0.605-0.033-1.449-1.143-1.526
	c0,0,0.609-0.458-0.02-1.583c0,0-0.478-0.682-0.687-1.328c0.646,0.209,1.328,0.688,1.328,0.688c1.126,0.629,1.583,0.019,1.583,0.019
	c0.078,1.11,0.921,1.291,1.525,1.142c0.426-0.104,0.688-0.437,0.688-0.437c0.516-0.744,0.916-0.802,0.916-0.802
	c0.744,0.306,0.84,0.076,0.84,0.076c-1.184-0.305-0.495-1.469-0.495-1.469c0.593-0.916,0.382-1.21,0.382-1.21
	c-0.951,0.736-1.185,0.05-1.185,0.05c0.667,0.118,1.297-0.404,1.297-0.404c-0.866,0.049-1.344-0.487-1.438-0.607
	C28.492,19.88,28.969,19.344,29.835,19.392z M22.613,12.036c0.328,0.004,0.712,0.168,0.957,0.8c0,0,0.18,0.591-0.18,1.036
	c0,0-0.496-0.225-0.849-0.158c0,0,0.337-0.923-0.54-1.516C22.001,12.198,22.277,12.032,22.613,12.036z M21.084,12.655
	c0.156-0.183,0.492-0.154,0.75,0.066c0.258,0.22,0.34,0.546,0.184,0.729c-0.156,0.183-0.492,0.154-0.75-0.066
	C21.012,13.165,20.928,12.838,21.084,12.655z M18.166,12.721c0.258-0.22,0.593-0.249,0.75-0.066c0.157,0.183,0.074,0.51-0.184,0.729
	c-0.258,0.22-0.593,0.249-0.75,0.066C17.825,13.267,17.909,12.941,18.166,12.721z M16.431,12.835c0.244-0.632,0.628-0.796,0.956-0.8
	c0.336-0.004,0.612,0.162,0.612,0.162c-0.877,0.593-0.54,1.516-0.54,1.516c-0.353-0.067-0.848,0.158-0.848,0.158
	C16.25,13.427,16.431,12.835,16.431,12.835z M17.536,13.847c0,0,0.675,0.977,1.569,0.019c0,0,0.476-0.507,0.619-1.236
	c0,0,0.098,0.325,0.275,0.419c0.178-0.095,0.275-0.419,0.275-0.419c0.144,0.729,0.619,1.236,0.619,1.236
	c0.896,0.958,1.569-0.019,1.569-0.019c1.437,0.362,0.031,2.919,0.031,2.919c-0.034,0.137-0.058,0.262-0.073,0.376
	c-0.063,0-0.124-0.007-0.18-0.021c0,0-0.027,0.003-0.07-0.002c0.143-0.328,0.174-0.784-0.141-1.388
	c0.107,0.028,0.213,0.037,0.305,0.014c0.08-0.02,0.175-0.095,0.232-0.152c0.283-0.284,0.193-0.757-0.01-1.057
	c-0.035-0.052-0.072-0.101-0.115-0.147c-0.01-0.009-0.047-0.037-0.051-0.05c0.332,1.629-1.244,0.31-1.244,0.31
	c-0.383-0.816-0.929-1.089-1.147-1.169c-0.219,0.08-0.765,0.353-1.148,1.169c0,0-1.576,1.32-1.244-0.31
	c-0.003,0.013-0.042,0.041-0.05,0.05c-0.042,0.046-0.081,0.095-0.116,0.147c-0.204,0.299-0.293,0.772-0.009,1.057
	c0.057,0.057,0.152,0.132,0.232,0.152c0.091,0.023,0.197,0.014,0.304-0.014c-0.314,0.604-0.283,1.061-0.141,1.388
	c-0.042,0.006-0.07,0.002-0.07,0.002c-0.056,0.014-0.117,0.021-0.18,0.021c-0.016-0.114-0.04-0.239-0.073-0.376
	C17.505,16.766,16.101,14.209,17.536,13.847z M12.835,16.431c0,0,0.591-0.18,1.036,0.18c0,0-0.225,0.495-0.158,0.848
	c0,0-0.923-0.337-1.516,0.54c0,0-0.166-0.276-0.162-0.612C12.04,17.059,12.204,16.675,12.835,16.431z M12.721,18.166
	c0.22-0.258,0.546-0.34,0.729-0.184c0.183,0.156,0.154,0.492-0.066,0.75c-0.22,0.257-0.546,0.34-0.729,0.184
	C12.472,18.76,12.501,18.424,12.721,18.166z M12.655,21.084c0.183-0.156,0.51-0.074,0.729,0.184c0.22,0.258,0.249,0.594,0.066,0.75
	c-0.183,0.157-0.51,0.074-0.729-0.184C12.501,21.576,12.472,21.241,12.655,21.084z M12.835,23.568
	c-0.632-0.243-0.796-0.627-0.8-0.955c-0.004-0.336,0.162-0.612,0.162-0.612c0.593,0.877,1.516,0.54,1.516,0.54
	c-0.067,0.354,0.158,0.848,0.158,0.848C13.427,23.75,12.835,23.568,12.835,23.568z M16.766,22.495c0,0-2.557,1.405-2.919-0.031
	c0,0,0.977-0.675,0.019-1.569c0,0-0.507-0.476-1.236-0.619c0,0,0.325-0.098,0.419-0.275c-0.095-0.178-0.419-0.275-0.419-0.275
	c0.729-0.144,1.236-0.619,1.236-0.619c0.958-0.895-0.019-1.569-0.019-1.569c0.362-1.436,2.919-0.031,2.919-0.031
	c0.137,0.034,0.262,0.058,0.376,0.073c0,0.063-0.007,0.124-0.021,0.18c0,0,0.003,0.027-0.002,0.07
	c-0.328-0.143-0.784-0.174-1.388,0.141c0.028-0.106,0.037-0.213,0.014-0.304c-0.02-0.08-0.095-0.176-0.152-0.232
	c-0.284-0.284-0.757-0.194-1.057,0.009c-0.052,0.035-0.101,0.073-0.147,0.116c-0.009,0.009-0.037,0.047-0.05,0.05
	c1.629-0.332,0.31,1.244,0.31,1.244c-0.816,0.383-1.089,0.929-1.169,1.148c0.08,0.219,0.353,0.766,1.169,1.148
	c0,0,1.32,1.576-0.31,1.244c0.013,0.002,0.041,0.041,0.05,0.049c0.046,0.043,0.095,0.082,0.147,0.117
	c0.299,0.203,0.772,0.293,1.057,0.008c0.057-0.057,0.132-0.151,0.152-0.231c0.023-0.091,0.014-0.198-0.014-0.304
	c0.604,0.314,1.061,0.283,1.388,0.141c0.005,0.042,0.002,0.07,0.002,0.07c0.014,0.056,0.021,0.117,0.021,0.18
	C17.028,22.438,16.903,22.461,16.766,22.495z M17.386,27.964c-0.327-0.004-0.711-0.168-0.956-0.8c0,0-0.18-0.591,0.18-1.036
	c0,0,0.495,0.226,0.848,0.158c0,0-0.337,0.923,0.54,1.516C17.999,27.802,17.723,27.968,17.386,27.964z M18.916,27.345
	c-0.156,0.183-0.492,0.154-0.75-0.065c-0.257-0.221-0.34-0.547-0.184-0.729c0.156-0.183,0.492-0.153,0.75,0.066
	C18.989,26.835,19.072,27.162,18.916,27.345z M21.834,27.279c-0.258,0.22-0.593,0.248-0.75,0.065s-0.074-0.51,0.184-0.729
	c0.258-0.22,0.594-0.249,0.75-0.066C22.175,26.732,22.092,27.059,21.834,27.279z M23.568,27.165c-0.243,0.632-0.627,0.796-0.955,0.8
	c-0.336,0.004-0.612-0.162-0.612-0.162c0.877-0.593,0.54-1.516,0.54-1.516c0.354,0.066,0.848-0.158,0.848-0.158
	C23.75,26.573,23.568,27.165,23.568,27.165z M22.464,26.152c0,0-0.675-0.977-1.569-0.019c0,0-0.476,0.507-0.619,1.236
	c0,0-0.098-0.325-0.275-0.419c-0.178,0.095-0.275,0.419-0.275,0.419c-0.144-0.729-0.619-1.236-0.619-1.236
	c-0.895-0.958-1.569,0.019-1.569,0.019c-1.436-0.361-0.031-2.918-0.031-2.918c0.034-0.137,0.058-0.262,0.073-0.377
	c0.063,0,0.124,0.008,0.18,0.021c0,0,0.027-0.003,0.07,0.002c-0.143,0.327-0.174,0.784,0.141,1.389
	c-0.106-0.028-0.213-0.037-0.304-0.015c-0.08,0.021-0.176,0.095-0.232,0.152c-0.284,0.284-0.194,0.757,0.009,1.057
	c0.035,0.052,0.073,0.101,0.116,0.147c0.009,0.01,0.047,0.037,0.05,0.05c-0.332-1.629,1.244-0.31,1.244-0.31
	c0.383,0.815,0.929,1.09,1.148,1.168c0.219-0.08,0.766-0.353,1.148-1.168c0,0,1.576-1.32,1.244,0.31
	c0.002-0.013,0.041-0.041,0.049-0.05c0.043-0.047,0.082-0.096,0.117-0.147c0.203-0.299,0.293-0.772,0.008-1.057
	c-0.057-0.058-0.151-0.132-0.231-0.152c-0.091-0.022-0.196-0.014-0.304,0.015c0.314-0.604,0.283-1.062,0.14-1.389
	c0.042-0.006,0.07-0.002,0.07-0.002c0.056-0.014,0.116-0.021,0.18-0.021c0.017,0.115,0.04,0.24,0.073,0.377
	C22.495,23.234,23.898,25.791,22.464,26.152z M23.234,22.495c-0.137-0.034-0.262-0.058-0.377-0.073c0-0.063,0.008-0.124,0.021-0.18
	c0,0-0.003-0.027,0.002-0.07c0.327,0.143,0.784,0.174,1.389-0.141c-0.028,0.105-0.037,0.213-0.015,0.304
	c0.021,0.08,0.095,0.175,0.152,0.231c0.284,0.285,0.757,0.194,1.057-0.008c0.052-0.035,0.101-0.074,0.147-0.117
	c0.01-0.008,0.037-0.047,0.05-0.049c-1.629,0.332-0.31-1.244-0.31-1.244c0.815-0.383,1.09-0.93,1.17-1.148
	c-0.08-0.219-0.354-0.765-1.17-1.148c0,0-1.32-1.576,0.31-1.244c-0.013-0.003-0.041-0.042-0.05-0.05
	c-0.047-0.042-0.096-0.081-0.147-0.116c-0.299-0.204-0.772-0.293-1.057-0.009c-0.058,0.057-0.132,0.152-0.152,0.232
	c-0.022,0.091-0.014,0.197,0.015,0.304c-0.604-0.313-1.062-0.283-1.389-0.141c-0.006-0.042-0.002-0.07-0.002-0.07
	c-0.014-0.056-0.021-0.117-0.021-0.18c0.115-0.016,0.24-0.04,0.377-0.073c0,0,2.557-1.405,2.918,0.031c0,0-0.977,0.675-0.019,1.569
	c0,0,0.507,0.476,1.236,0.619c0,0-0.325,0.098-0.419,0.275c0.095,0.178,0.419,0.275,0.419,0.275
	c-0.729,0.144-1.236,0.619-1.236,0.619c-0.958,0.896,0.019,1.569,0.019,1.569C25.791,23.898,23.234,22.495,23.234,22.495z
	 M27.346,18.916c-0.184,0.156-0.511,0.074-0.729-0.184c-0.22-0.258-0.249-0.593-0.066-0.75c0.183-0.157,0.511-0.074,0.729,0.184
	S27.527,18.759,27.346,18.916z M27.279,21.834c-0.221,0.257-0.547,0.34-0.729,0.184s-0.153-0.492,0.066-0.75
	c0.22-0.257,0.546-0.34,0.729-0.184C27.527,21.24,27.499,21.576,27.279,21.834z M27.165,23.568c0,0-0.591,0.181-1.036-0.18
	c0,0,0.225-0.494,0.158-0.848c0,0,0.923,0.337,1.516-0.54c0,0,0.166,0.276,0.162,0.612C27.96,22.941,27.796,23.325,27.165,23.568z
	 M27.802,17.999c-0.593-0.877-1.516-0.54-1.516-0.54c0.067-0.353-0.158-0.848-0.158-0.848c0.444-0.36,1.036-0.18,1.036-0.18
	c0.632,0.244,0.796,0.628,0.8,0.956C27.968,17.723,27.802,17.999,27.802,17.999z M17.489,12.288c0,0-0.863,0.262-0.698,0.998
	c0,0.116,0.094,0.21,0.21,0.21s0.21-0.094,0.21-0.21c0-0.023-0.004-0.045-0.011-0.066l0.011-0.001
	C17.211,13.218,16.934,12.648,17.489,12.288z M13.218,17.211L13.22,17.2c0.021,0.007,0.043,0.011,0.066,0.011
	c0.116,0,0.21-0.094,0.21-0.21s-0.094-0.21-0.21-0.21c-0.735-0.165-0.998,0.698-0.998,0.698
	C12.648,16.934,13.218,17.211,13.218,17.211z M13.286,22.789c-0.023,0-0.045,0.004-0.066,0.011l-0.001-0.011
	c0,0-0.57,0.277-0.93-0.278c0,0,0.262,0.863,0.998,0.698c0.116,0,0.21-0.094,0.21-0.21C13.496,22.883,13.402,22.789,13.286,22.789z
	 M22.789,13.218L22.8,13.22c-0.007,0.021-0.011,0.043-0.011,0.066c0,0.116,0.094,0.21,0.21,0.21s0.21-0.094,0.21-0.21
	c0.165-0.735-0.697-0.998-0.697-0.998C23.066,12.648,22.789,13.218,22.789,13.218z M22.512,27.712c0,0,0.862-0.262,0.697-0.998
	c0-0.116-0.094-0.21-0.21-0.21s-0.21,0.094-0.21,0.21c0,0.022,0.004,0.045,0.011,0.066l-0.011,0.001
	C22.789,26.782,23.066,27.352,22.512,27.712z M26.782,22.789L26.779,22.8c-0.021-0.007-0.043-0.011-0.065-0.011
	c-0.116,0-0.21,0.094-0.21,0.21s0.094,0.21,0.21,0.21c0.735,0.165,0.998-0.698,0.998-0.698
	C27.352,23.066,26.782,22.789,26.782,22.789z M17.211,26.782L17.2,26.78c0.007-0.021,0.011-0.044,0.011-0.066
	c0-0.116-0.094-0.21-0.21-0.21s-0.21,0.094-0.21,0.21c-0.165,0.735,0.698,0.998,0.698,0.998
	C16.934,27.352,17.211,26.782,17.211,26.782z M26.714,16.791c-0.116,0-0.21,0.094-0.21,0.21s0.094,0.21,0.21,0.21
	c0.022,0,0.045-0.004,0.065-0.011l0.002,0.011c0,0,0.57-0.277,0.93,0.278C27.712,17.489,27.45,16.626,26.714,16.791z"/>
</svg>
