<?xml version="1.0" encoding="utf-8"?>
<svg version="1.1" id="Layer_2" xmlns="http://www.w3.org/2000/svg" xmlns:xlink="http://www.w3.org/1999/xlink" x="0px" y="0px"
	 width="40px" height="40px" viewBox="0 0 40 40" enable-background="new 0 0 40 40" xml:space="preserve">
<path d="M20,0c-2.959,0-5.769,0.643-8.296,1.797C9.42,2.839,7.367,4.298,5.642,6.077c-1.772,1.827-3.198,3.99-4.173,6.386
	C0.522,14.789,0,17.333,0,20c0,2.87,0.604,5.598,1.692,8.065c1.03,2.335,2.494,4.437,4.29,6.201
	c1.948,1.914,4.286,3.433,6.884,4.425C15.082,39.536,17.487,40,20,40c1.84,0,3.621-0.248,5.313-0.713
	c3.228-0.887,6.129-2.563,8.483-4.807c1.933-1.842,3.497-4.067,4.571-6.555C39.418,25.495,40,22.815,40,20
	c0-2.916-0.624-5.687-1.746-8.185c-0.796-1.772-1.843-3.408-3.095-4.862c-1.91-2.217-4.298-4.01-7.004-5.22
	C25.664,0.619,22.904,0,20,0z M15.287,27.904h-2.159V12.096h2.159V27.904z M16.336,27.904V12.096L30.026,20L16.336,27.904z"/>
</svg>
