<?xml version="1.0" encoding="utf-8"?>
<svg version="1.1" id="Layer_3" xmlns="http://www.w3.org/2000/svg" xmlns:xlink="http://www.w3.org/1999/xlink" x="0px" y="0px"
	 width="38px" height="40px" viewBox="0 0 38 40" enable-background="new 0 0 38 40" xml:space="preserve">
<path d="M36.642,5.077c-1.017-1.875-2.492-3.173-4.029-3.987l2.3,7.226L36.642,5.077z M29,7.598l4.631,1.464
	l-2.564-8.056l-3.985,3.066L29,7.598z M29.284,9.197l0.219,3.876l3.658-2.65L29.284,9.197z M28.388,20.633l2.545-0.65l-1.741-3.26
	L28.388,20.633z M23.208,31.018c0.334-0.366,0.8-0.868,1.383-1.492c0.741-0.792,1.489-1.584,1.824-1.939l0.22-4.27l-6.492,5.834
	l2.859,2.092C23.063,31.175,23.132,31.1,23.208,31.018z M20.119,27.232l6.247-5.614l-4.126-3.682L20.119,27.232z M27.293,28.759
	c-0.765,0.809-1.543,1.638-2.179,2.322l4.989-1.017L27.293,28.759z M28.139,14.61l-0.253-4.485l-5.09,6.375l4.195,3.743l1.152-5.604
	C28.142,14.628,28.14,14.619,28.139,14.61z M21.627,7.05l5.617,0.347l-1.389-2.552L21.627,7.05z M29.845,0.125
	c-0.41-0.074-0.807-0.114-1.181-0.122c-1.827-0.04-3.399,0.254-4.7,0.876l2.23,2.055L29.845,0.125z M22.686,1.664
	c-0.189,0.146-0.37,0.3-0.542,0.464c-1.401,1.335-1.992,3.043-2.24,4.197l5.006-2.612L22.686,1.664z M27.073,8.828l-7.349-0.454
	v4.147l2.106,2.872L27.073,8.828z M19,25.628l2.027-8.886L19,13.978l-2.027,2.764L19,25.628z M12.885,31.081
	c-0.635-0.684-1.415-1.513-2.178-2.322l-2.811,1.305L12.885,31.081z M10.114,10.125L9.86,14.61c0,0.009-0.002,0.019-0.003,0.028
	l1.152,5.604l4.194-3.743L10.114,10.125z M14.792,31.018c0.075,0.083,0.144,0.158,0.206,0.226l2.858-2.092l-6.492-5.835l0.22,4.27
	c0.335,0.355,1.083,1.147,1.825,1.939C13.993,30.15,14.458,30.652,14.792,31.018z M15.761,17.936l-4.127,3.682l6.247,5.614
	L15.761,17.936z M16.169,15.394l2.106-2.872V8.374l-7.348,0.454L16.169,15.394z M12.145,4.844l-1.389,2.552l5.617-0.347
	L12.145,4.844z M18.097,6.325c-0.248-1.154-0.838-2.862-2.24-4.197c-0.172-0.164-0.354-0.318-0.542-0.464l-2.224,2.049L18.097,6.325
	z M14.036,0.879c-1.302-0.622-2.874-0.916-4.701-0.876c-0.374,0.008-0.77,0.048-1.181,0.122l3.652,2.809L14.036,0.879z M9,7.598
	l1.919-3.526L6.934,1.006L4.369,9.062L9,7.598z M9.611,20.633l-0.804-3.911l-1.741,3.26L9.611,20.633z M8.497,13.074l0.219-3.876
	l-3.878,1.226L8.497,13.074z M5.388,1.09C3.85,1.904,2.375,3.203,1.359,5.077l1.729,3.238L5.388,1.09z M0.626,6.775
	C0.229,7.971,0,9.343,0.002,10.908c0,0.009,0,0.018,0,0.026c0,0.017-0.017,0.604,0.05,1.612l2.324-2.493L0.626,6.775z M0.514,16.209
	c0.274,1.507,0.693,3.254,1.333,5.127l2.692-1.28L0.514,16.209z M4.975,28.023l0.263-6.704l-2.896,1.377
	C2.983,24.344,3.837,26.157,4.975,28.023z M3.351,11.126l-2.858,3.065l5.314,5.08l2.451-4.59L3.351,11.126z M9.856,22.181
	l-3.171-0.811l-0.307,7.81l3.749-1.741L9.856,22.181z M7.349,31.421c0.83,1.043,1.76,2.083,2.8,3.099l2.898-1.938L7.349,31.421z
	 M14.539,33.319l-3.309,2.212c1.777,1.59,3.845,3.105,6.252,4.469c-0.354-0.793-0.78-1.75-1.204-2.707
	C15.354,35.208,14.833,34.017,14.539,33.319z M19,30.102l-3.246,2.375c0.51,1.22,2.009,4.604,3.246,7.374
	c1.237-2.77,2.736-6.154,3.246-7.374L19,30.102z M21.722,37.293c-0.424,0.957-0.85,1.914-1.204,2.707
	c2.407-1.364,4.475-2.878,6.252-4.469l-3.309-2.212C23.167,34.017,22.646,35.208,21.722,37.293z M27.851,34.52
	c1.041-1.016,1.97-2.055,2.8-3.099l-5.698,1.161L27.851,34.52z M28.144,22.181l-0.271,5.259l3.748,1.741l-0.306-7.81L28.144,22.181z
	 M33.025,28.023c1.137-1.866,1.992-3.679,2.632-5.327l-2.896-1.377L33.025,28.023z M36.153,21.336
	c0.64-1.874,1.059-3.621,1.333-5.127l-4.024,3.847L36.153,21.336z M29.742,14.682l2.451,4.59l5.315-5.08l-2.858-3.065L29.742,14.682
	z M37.998,10.934c0-0.008,0-0.018,0-0.026C38,9.343,37.771,7.971,37.374,6.775l-1.75,3.279l2.324,2.493
	C38.015,11.539,37.998,10.951,37.998,10.934z"/>
</svg>
