<?xml version="1.0" encoding="utf-8"?>
<svg version="1.1" id="Layer_2" xmlns="http://www.w3.org/2000/svg" xmlns:xlink="http://www.w3.org/1999/xlink" x="0px" y="0px"
	 width="40px" height="40px" viewBox="0 0 40 40" enable-background="new 0 0 40 40" xml:space="preserve">
<path d="M26.974,1.255l-1.988,1.639l2.413,0.902L26.974,1.255z M19.967,2.756c-3.013,0-5.848,0.775-8.316,2.137
	c-3.608,1.99-6.432,5.232-7.883,9.136c-0.695,1.87-1.075,3.893-1.075,6.001c0,2.144,0.393,4.198,1.11,6.094
	c1.578,4.171,4.726,7.577,8.72,9.492c2.255,1.082,4.78,1.688,7.444,1.688c3.702,0,7.136-1.17,9.951-3.161
	c2.788-1.972,4.969-4.748,6.202-7.988c0.725-1.904,1.122-3.97,1.122-6.125c0-3.73-1.189-7.189-3.208-10.016
	c-1.862-2.607-4.43-4.678-7.422-5.929C24.566,3.229,22.321,2.756,19.967,2.756z M19.967,36.914c-2.397,0-4.679-0.502-6.746-1.407
	c-3.014-1.318-5.571-3.492-7.363-6.213c-1.753-2.661-2.774-5.846-2.774-9.264c0-2.048,0.367-4.012,1.038-5.83
	c1.421-3.852,4.209-7.047,7.773-8.996c2.399-1.312,5.151-2.059,8.073-2.059c3.6,0,6.94,1.132,9.684,3.06
	c2.782,1.955,4.951,4.727,6.152,7.965c0.678,1.826,1.048,3.8,1.048,5.858c0,3.112-0.846,6.03-2.32,8.536
	c-1.475,2.506-3.577,4.6-6.09,6.064C25.949,36.082,23.054,36.914,19.967,36.914z M34.119,5.835l-2.488,0.667l1.821,1.822
	L34.119,5.835z M19.967,3.602c-1.673,0-3.288,0.251-4.81,0.718c-2.187,0.671-4.182,1.787-5.877,3.242
	c-2.352,2.019-4.128,4.69-5.045,7.73c-0.453,1.501-0.696,3.091-0.696,4.738c0,2.501,0.562,4.874,1.566,6.998
	c0.822,1.74,1.942,3.314,3.292,4.655c1.625,1.613,3.583,2.89,5.762,3.716c1.807,0.685,3.765,1.06,5.808,1.06
	c2.233,0,4.364-0.448,6.307-1.258c2.402-1.002,4.517-2.559,6.184-4.51c1.464-1.713,2.583-3.731,3.248-5.943
	c0.449-1.495,0.69-3.078,0.69-4.717c0-1.006-0.091-1.991-0.265-2.947c-0.366-2.014-1.101-3.902-2.132-5.59
	c-1.097-1.796-2.528-3.366-4.208-4.623C27.05,4.818,23.648,3.602,19.967,3.602z M19.967,36.068c-1.179,0-2.329-0.128-3.437-0.371
	c-3.255-0.713-6.143-2.419-8.331-4.782C5.55,28.055,3.929,24.228,3.929,20.03c0-1.874,0.323-3.674,0.917-5.348
	c1.033-2.912,2.885-5.44,5.277-7.306c2.719-2.12,6.137-3.385,9.844-3.385c1.179,0,2.328,0.128,3.434,0.37
	c2.381,0.521,4.565,1.573,6.423,3.025c1.88,1.469,3.425,3.347,4.5,5.5c1.076,2.152,1.681,4.579,1.681,7.144
	c0,1.988-0.364,3.893-1.028,5.651c-1.28,3.388-3.675,6.232-6.736,8.083C25.824,35.227,22.992,36.068,19.967,36.068z M19.967,0
	l-1.288,2.231h2.576L19.967,0z M37.769,21.256L40,19.967l-2.231-1.288V21.256z M38.186,11.677l-2.564-0.247l1.068,2.344
	L38.186,11.677z M19.967,4.432c-2.43,0-4.729,0.555-6.779,1.546c-1.84,0.89-3.479,2.129-4.83,3.634
	c-1.701,1.894-2.946,4.207-3.56,6.765c-0.281,1.172-0.43,2.396-0.43,3.654c0,2.376,0.531,4.628,1.481,6.645
	c0.936,1.984,2.278,3.74,3.918,5.159c1.551,1.342,3.37,2.383,5.366,3.033c1.522,0.495,3.146,0.763,4.833,0.763
	c1.507,0,2.964-0.214,4.342-0.613c2.438-0.705,4.631-1.989,6.419-3.694c1.833-1.747,3.241-3.936,4.053-6.396
	c0.509-1.54,0.784-3.187,0.784-4.897c0-1.82-0.312-3.568-0.885-5.192c-0.504-1.428-1.21-2.761-2.084-3.964
	c-1.329-1.83-3.046-3.36-5.03-4.469C25.319,5.148,22.727,4.432,19.967,4.432z M31.677,33.452l2.488,0.667l-0.667-2.488
	L31.677,33.452z M5.881,34.165l2.488-0.667l-1.821-1.822L5.881,34.165z M13.026,38.745l1.988-1.639l-2.413-0.902L13.026,38.745z
	 M20.032,40l1.289-2.231h-2.576L20.032,40z M36.204,27.399l2.541-0.425l-1.639-1.988L36.204,27.399z M28.323,38.186l0.247-2.564
	l-2.344,1.068L28.323,38.186z M8.323,6.548L5.835,5.881l0.667,2.488L8.323,6.548z M3.796,12.601l-2.541,0.425l1.639,1.988
	L3.796,12.601z M11.677,1.814L11.43,4.378l2.344-1.068L11.677,1.814z M1.814,28.323l2.564,0.247L3.31,26.226L1.814,28.323z
	 M2.231,18.745L0,20.033l2.231,1.288V18.745z"/>
</svg>
