<?xml version="1.0" encoding="utf-8"?>
<!-- Generator: Adobe Illustrator 16.0.0, SVG Export Plug-In . SVG Version: 6.00 Build 0)  -->
<!DOCTYPE svg PUBLIC "-//W3C//DTD SVG 1.1//EN" "http://www.w3.org/Graphics/SVG/1.1/DTD/svg11.dtd">
<svg version="1.1" id="Layer_7" xmlns="http://www.w3.org/2000/svg" xmlns:xlink="http://www.w3.org/1999/xlink" x="0px" y="0px"
	 width="35px" height="40px" viewBox="0 0 35 40" enable-background="new 0 0 35 40" xml:space="preserve">
<path d="M17.621,4.039c0.684,0,1.238-0.55,1.238-1.228C18.857,2.133,17.621,0,17.621,0s-1.237,2.133-1.237,2.811
	S16.938,4.039,17.621,4.039z M13.47,4.039c0.683,0,1.237-0.55,1.237-1.228S13.47,0,13.47,0s-1.238,2.133-1.238,2.811
	S12.786,4.039,13.47,4.039z M21.773,4.039c0.683,0,1.235-0.55,1.235-1.228S21.773,0,21.773,0s-1.237,2.133-1.237,2.811
	S21.089,4.039,21.773,4.039z M28.18,13.952c0-1.026-0.838-1.858-1.873-1.858h-3.785v-7.47c-0.508,0.127-1.023,0.125-1.551,0v7.47
	h-2.6v-7.47c-0.509,0.127-1.026,0.125-1.552,0v7.47h-2.6v-7.47c-0.509,0.127-1.026,0.125-1.551,0v7.47H8.723
	c-1.034,0-1.872,0.832-1.872,1.858v8.304H28.18V13.952z M0,38.223C0.62,39.285,1.777,40,3.103,40h28.793
	c1.326,0,2.481-0.715,3.104-1.777H0z M5.368,28.67c0.282-0.538,0.587-1.121,1.036-1.488c0.281-0.23,0.619-0.379,1.042-0.379
	c0.404,0,0.729,0.135,1.002,0.348c0.471,0.365,0.786,0.967,1.076,1.521c0.167,0.319,0.317,0.596,0.468,0.819
	c0.282,0.421,0.563,0.658,0.962,0.658c0.382,0,0.656-0.219,0.927-0.606c0.162-0.232,0.322-0.526,0.503-0.871
	c0.222-0.423,0.458-0.873,0.766-1.226c0.331-0.377,0.744-0.643,1.313-0.643c0.532,0,0.929,0.232,1.248,0.572
	c0.34,0.361,0.593,0.844,0.83,1.295c0.181,0.345,0.341,0.639,0.503,0.871c0.27,0.388,0.544,0.605,0.927,0.605
	c0.356,0,0.619-0.188,0.871-0.527c0.182-0.244,0.357-0.565,0.559-0.949c0.229-0.438,0.476-0.904,0.8-1.262
	c0.323-0.358,0.729-0.605,1.278-0.605c0.506,0,0.89,0.211,1.201,0.523c0.362,0.365,0.629,0.872,0.875,1.344
	c0.162,0.309,0.308,0.576,0.452,0.796c0.287,0.435,0.572,0.681,0.978,0.681c0.426,0,0.719-0.271,1.021-0.745
	c0.132-0.207,0.265-0.452,0.411-0.731c0.225-0.427,0.462-0.881,0.773-1.234c0.33-0.371,0.74-0.633,1.305-0.633
	c0.391,0,0.708,0.125,0.977,0.326c0.483,0.364,0.805,0.977,1.102,1.541c0.191,0.363,0.359,0.67,0.53,0.908
	c0.217,0.301,0.438,0.492,0.718,0.55v-4.114c0-1.357-1.11-2.462-2.48-2.462H6.04c-1.371,0-2.481,1.104-2.481,2.462v4.047
	c0.117,0.058,0.242,0.086,0.383,0.086c0.369,0,0.639-0.206,0.901-0.574C5.013,29.335,5.179,29.03,5.368,28.67z M31.818,30.861
	c-0.439-0.047-0.779-0.26-1.06-0.556c-0.343-0.362-0.598-0.848-0.837-1.302c-0.177-0.338-0.334-0.627-0.492-0.857
	c-0.272-0.396-0.551-0.619-0.938-0.619c-0.391,0-0.668,0.228-0.943,0.631c-0.156,0.229-0.313,0.514-0.486,0.847
	c-0.224,0.427-0.462,0.882-0.775,1.236c-0.329,0.371-0.739,0.631-1.303,0.631c-0.639,0-1.082-0.336-1.432-0.789
	c-0.251-0.326-0.454-0.712-0.646-1.078c-0.177-0.336-0.333-0.623-0.49-0.853c-0.274-0.399-0.552-0.625-0.938-0.625
	c-0.369,0-0.639,0.201-0.897,0.563c-0.173,0.239-0.343,0.548-0.533,0.914c-0.212,0.404-0.437,0.833-0.726,1.178
	c-0.337,0.402-0.761,0.689-1.352,0.689c-0.549,0-0.954-0.248-1.279-0.605s-0.57-0.824-0.799-1.262
	c-0.177-0.338-0.334-0.627-0.493-0.856c-0.273-0.396-0.55-0.619-0.937-0.619c-0.374,0-0.645,0.209-0.91,0.582
	c-0.168,0.236-0.333,0.537-0.52,0.895c-0.229,0.438-0.474,0.904-0.799,1.262s-0.729,0.605-1.279,0.605
	c-0.648,0-1.095-0.345-1.447-0.808c-0.245-0.321-0.443-0.7-0.631-1.06c-0.224-0.427-0.417-0.775-0.62-1.027
	c-0.234-0.289-0.483-0.448-0.81-0.448c-0.358,0-0.622,0.19-0.875,0.534c-0.18,0.242-0.354,0.562-0.554,0.941
	c-0.229,0.438-0.474,0.904-0.799,1.262c-0.325,0.357-0.729,0.605-1.279,0.605c-0.136,0-0.264-0.016-0.383-0.044v6.188h28.262v-6.154
	l0,0V30.861z"/>
</svg>
