<?xml version="1.0" encoding="utf-8"?>
<svg version="1.1" id="Layer_1" xmlns="http://www.w3.org/2000/svg" xmlns:xlink="http://www.w3.org/1999/xlink" x="0px" y="0px"
	 width="40px" height="40px" viewBox="0 0 40 40" enable-background="new 0 0 40 40" xml:space="preserve">
<path d="M34.356,30.005l-2.84-3.05l-2.871,3.05l-2.839-3.05l-2.871,3.05l-2.84-3.05l-2.871,3.05l-2.84-3.05l-2.87,3.05l-2.84-3.05
	l-2.87,3.05l-2.84-3.05L0.081,30.02h40l-2.853-3.064L34.356,30.005z M34.356,33.362l-2.84-3.05l-2.871,3.05l-2.839-3.05l-2.871,3.05
	l-2.84-3.05l-2.871,3.05l-2.84-3.05l-2.87,3.05l-2.84-3.05l-2.87,3.05l-2.84-3.05l-2.884,3.064h40l-2.853-3.064L34.356,33.362z
	 M34.356,36.721l-2.84-3.05l-2.871,3.05l-2.839-3.05l-2.871,3.05l-2.84-3.05l-2.871,3.05l-2.84-3.05l-2.87,3.05l-2.84-3.05
	l-2.87,3.05l-2.84-3.05l-2.884,3.064h40l-2.853-3.064L34.356,36.721z M34.356,40.078l-2.84-3.05l-2.871,3.05l-2.839-3.05
	l-2.871,3.05l-2.84-3.05l-2.871,3.05l-2.84-3.05l-2.87,3.05l-2.84-3.05l-2.87,3.05l-2.84-3.05l-2.884,3.064h40l-2.853-3.064
	L34.356,40.078z M34.356,26.647l-2.84-3.05l-2.871,3.05l-2.839-3.05l-2.871,3.05l-2.84-3.05l-2.871,3.05l-2.84-3.05l-2.87,3.05
	l-2.84-3.05l-2.87,3.05l-2.84-3.05l-2.884,3.064h40l-2.853-3.064L34.356,26.647z M37.228,0.093l-2.871,3.05l-2.84-3.05l-2.871,3.05
	l-2.839-3.05l-2.871,3.05l-2.84-3.05l-2.871,3.05l-2.84-3.05l-2.87,3.05l-2.84-3.05l-2.87,3.05l-2.84-3.05L0.081,3.158h40
	L37.228,0.093z M34.356,9.858l-2.84-3.05l-2.871,3.05l-2.839-3.05l-2.871,3.05l-2.84-3.05l-2.871,3.05l-2.84-3.05l-2.87,3.05
	l-2.84-3.05l-2.87,3.05l-2.84-3.05L0.081,9.873h40l-2.853-3.064L34.356,9.858z M34.356,23.289l-2.84-3.05l-2.871,3.05l-2.839-3.05
	l-2.871,3.05l-2.84-3.05l-2.871,3.05l-2.84-3.05l-2.87,3.05l-2.84-3.05l-2.87,3.05l-2.84-3.05l-2.884,3.064h40l-2.853-3.064
	L34.356,23.289z M34.356,6.5l-2.84-3.05L28.646,6.5l-2.839-3.05L22.936,6.5l-2.84-3.05L17.225,6.5l-2.84-3.05l-2.87,3.05l-2.84-3.05
	L5.805,6.5l-2.84-3.05L0.081,6.516h40l-2.853-3.065L34.356,6.5z M34.356,13.216l-2.84-3.05l-2.871,3.05l-2.839-3.05l-2.871,3.05
	l-2.84-3.05l-2.871,3.05l-2.84-3.05l-2.87,3.05l-2.84-3.05l-2.87,3.05l-2.84-3.05L0.081,13.23h40l-2.853-3.064L34.356,13.216z
	 M34.356,19.932l-2.84-3.05l-2.871,3.05l-2.839-3.05l-2.871,3.05l-2.84-3.05l-2.871,3.05l-2.84-3.05l-2.87,3.05l-2.84-3.05
	l-2.87,3.05l-2.84-3.05l-2.884,3.064h40l-2.853-3.064L34.356,19.932z M34.356,16.574l-2.84-3.05l-2.871,3.05l-2.839-3.05
	l-2.871,3.05l-2.84-3.05l-2.871,3.05l-2.84-3.05l-2.87,3.05l-2.84-3.05l-2.87,3.05l-2.84-3.05l-2.884,3.064h40l-2.853-3.064
	L34.356,16.574z"/>
</svg>
