<?xml version="1.0" encoding="utf-8"?>
<svg version="1.1" id="Layer_2" xmlns="http://www.w3.org/2000/svg" xmlns:xlink="http://www.w3.org/1999/xlink" x="0px" y="0px"
	 width="40px" height="40px" viewBox="0 0 40 40" enable-background="new 0 0 40 40" xml:space="preserve">
<path d="M21.444,2.908c-0.005-0.442-0.118-0.869-0.314-1.252c-0.22-0.431-0.544-0.807-0.934-1.091
	C19.725,0.221,19.156,0.01,18.556,0c0,0.853,0.302,1.395,0.898,1.996C20.051,2.596,20.592,2.903,21.444,2.908z M12.208,3.76
	c0.789,0.307,1.407,0.369,2.188,0.028c-0.219-0.48-0.569-0.876-0.992-1.165c-0.47-0.321-1.03-0.511-1.599-0.538
	C11.39,2.066,10.97,2.134,10.577,2.3C10.922,3.08,11.418,3.453,12.208,3.76z M15.622,2.535c0.698,0.479,1.285,0.681,2.124,0.528
	c-0.106-0.53-0.367-1.006-0.727-1.39c-0.319-0.34-0.716-0.607-1.152-0.775c-0.471-0.181-0.987-0.245-1.499-0.157
	C14.526,1.579,14.924,2.055,15.622,2.535z M9.439,5.41c0.831,0.162,1.45,0.112,2.159-0.362c-0.291-0.419-0.689-0.739-1.139-0.949
	C9.945,3.859,9.364,3.763,8.8,3.828C8.369,3.876,7.948,4.02,7.575,4.264C8.053,4.969,8.608,5.248,9.439,5.41z M3.025,14.05
	c0.785-0.317,1.276-0.696,1.612-1.48c-0.473-0.193-0.981-0.244-1.472-0.174c-0.596,0.084-1.167,0.345-1.617,0.744
	c-0.299,0.265-0.545,0.591-0.711,0.967C1.623,14.437,2.24,14.368,3.025,14.05z M4.55,10.753c0.828-0.179,1.377-0.468,1.841-1.183
	c-0.415-0.26-0.885-0.396-1.36-0.421C4.519,9.122,4,9.226,3.537,9.447c-0.459,0.219-0.863,0.552-1.152,0.987
	C3.103,10.894,3.722,10.932,4.55,10.753z M2.237,17.172c0.716-0.452,1.132-0.913,1.322-1.744c-0.405-0.085-0.816-0.075-1.208,0.015
	c-0.503,0.115-0.975,0.362-1.361,0.705c-0.433,0.384-0.757,0.89-0.896,1.469C0.926,17.802,1.521,17.624,2.237,17.172z M6.891,7.684
	c0.846,0.028,1.449-0.12,2.073-0.701c-0.28-0.291-0.616-0.509-0.98-0.655C7.479,6.125,6.92,6.063,6.382,6.143
	C5.827,6.225,5.294,6.459,4.868,6.848C5.452,7.469,6.044,7.656,6.891,7.684z M36.117,14.39c0.469-0.197,0.864-0.52,1.162-0.915
	c0.373-0.494,0.594-1.101,0.622-1.719c0.017-0.384-0.041-0.771-0.184-1.139c-0.79,0.322-1.177,0.808-1.508,1.587
	C35.879,12.983,35.8,13.599,36.117,14.39z M35.768,10.639c0.276-0.484,0.417-1.044,0.405-1.601c-0.011-0.497-0.143-0.991-0.41-1.427
	c-0.72,0.458-1.015,1.004-1.201,1.83c-0.187,0.826-0.155,1.446,0.299,2.168C35.243,11.36,35.548,11.023,35.768,10.639z
	 M37.011,17.75c0.442-0.102,0.844-0.312,1.182-0.597c0.445-0.375,0.781-0.88,0.957-1.435c0.142-0.451,0.179-0.936,0.083-1.412
	c-0.833,0.182-1.298,0.594-1.757,1.305C37.017,16.324,36.833,16.917,37.011,17.75z M37.008,21.401
	c0.45,0.008,0.886-0.096,1.28-0.287c0.518-0.25,0.962-0.648,1.269-1.134c0.259-0.41,0.419-0.883,0.443-1.381
	c-0.852-0.025-1.403,0.261-2.021,0.84C37.361,20.018,37.039,20.548,37.008,21.401z M33.733,7.899
	c0.225-0.615,0.248-1.302,0.063-1.93c-0.119-0.403-0.323-0.783-0.615-1.103c-0.621,0.584-0.808,1.177-0.835,2.023
	s0.12,1.449,0.701,2.073C33.359,8.662,33.588,8.295,33.733,7.899z M27.457,4.624c0.236-0.578,0.259-1.211,0.11-1.8
	c-0.124-0.487-0.366-0.944-0.704-1.316c-0.26-0.287-0.578-0.523-0.942-0.684c-0.331,0.786-0.261,1.403,0.056,2.188
	C26.293,3.796,26.672,4.288,27.457,4.624z M30.357,6.433c0.257-0.386,0.406-0.825,0.454-1.273c0.056-0.53-0.029-1.074-0.241-1.562
	c-0.205-0.471-0.528-0.89-0.959-1.195c-0.48,0.704-0.536,1.323-0.382,2.155C29.383,5.391,29.656,5.948,30.357,6.433z M24.598,3.542
	c0.119-0.562,0.053-1.137-0.155-1.655C24.29,1.503,24.06,1.151,23.77,0.857c-0.369-0.375-0.835-0.654-1.361-0.78
	c-0.186,0.832-0.008,1.427,0.445,2.143C23.306,2.936,23.767,3.352,24.598,3.542z M4.173,29.396c-0.29,0.542-0.413,1.171-0.349,1.783
	c0.047,0.439,0.19,0.869,0.439,1.25c0.706-0.479,0.984-1.034,1.146-1.865c0.162-0.831,0.112-1.45-0.362-2.158
	C4.675,28.663,4.381,29.006,4.173,29.396z M31.065,33.107c0.338,0.332,0.752,0.562,1.195,0.69c0.591,0.172,1.235,0.162,1.821-0.03
	c0.399-0.131,0.772-0.346,1.083-0.646c-0.603-0.603-1.2-0.772-2.047-0.775C32.27,32.343,31.671,32.508,31.065,33.107z
	 M18.599,37.008c-0.01,0.534,0.139,1.048,0.401,1.496c0.211,0.359,0.496,0.675,0.831,0.923c0.451,0.334,0.993,0.546,1.57,0.573
	c0.025-0.852-0.261-1.403-0.84-2.021C19.982,37.361,19.452,37.039,18.599,37.008z M2.908,18.556
	c-0.477,0.005-0.934,0.136-1.34,0.361c-0.413,0.229-0.772,0.554-1.042,0.942C0.205,20.319,0.01,20.867,0,21.444
	c0.853,0,1.395-0.303,1.996-0.899C2.596,19.949,2.903,19.408,2.908,18.556z M24.411,37.446c-0.711-0.459-1.305-0.643-2.139-0.465
	c0.086,0.375,0.25,0.721,0.472,1.023c0.332,0.454,0.792,0.81,1.311,1.025c0.519,0.215,1.096,0.288,1.662,0.174
	C25.535,38.37,25.123,37.905,24.411,37.446z M30.562,34.563c-0.826-0.187-1.446-0.155-2.168,0.298
	c0.19,0.292,0.432,0.54,0.708,0.738c0.47,0.339,1.039,0.536,1.617,0.569c0.578,0.034,1.166-0.094,1.673-0.405
	C31.934,35.044,31.387,34.749,30.562,34.563z M35.45,29.224c-0.833,0.154-1.39,0.427-1.875,1.129
	c0.501,0.334,1.09,0.485,1.676,0.469c0.585-0.015,1.167-0.197,1.651-0.528c0.27-0.184,0.509-0.414,0.703-0.688
	C36.901,29.125,36.283,29.07,35.45,29.224z M37.787,22.851c-0.703,0.473-1.105,0.946-1.271,1.782
	c0.477,0.086,0.958,0.041,1.404-0.109c0.536-0.18,1.021-0.509,1.385-0.942c0.297-0.353,0.513-0.775,0.61-1.239
	C39.079,22.182,38.489,22.377,37.787,22.851z M36.994,25.973c-0.775,0.34-1.256,0.734-1.568,1.527
	c0.464,0.173,0.958,0.212,1.434,0.138c0.623-0.097,1.215-0.389,1.669-0.828c0.277-0.268,0.501-0.59,0.65-0.957
	C38.383,25.545,37.769,25.633,36.994,25.973z M27.796,36.21c-0.779-0.331-1.396-0.41-2.187-0.093
	c0.199,0.472,0.524,0.87,0.923,1.168c0.5,0.375,1.115,0.595,1.739,0.617c0.375,0.013,0.752-0.045,1.111-0.185
	C29.061,36.928,28.576,36.541,27.796,36.21z M3.789,25.604c-0.521,0.237-0.943,0.63-1.237,1.103
	c-0.294,0.472-0.46,1.025-0.469,1.582c-0.006,0.384,0.063,0.771,0.217,1.135c0.78-0.345,1.153-0.842,1.46-1.63
	C4.067,27.003,4.129,26.386,3.789,25.604z M2.565,24.401c0.479-0.698,0.681-1.285,0.528-2.124c-0.521,0.104-0.989,0.357-1.369,0.707
	c-0.433,0.398-0.75,0.921-0.898,1.491c-0.099,0.38-0.123,0.781-0.055,1.18C1.609,25.497,2.085,25.099,2.565,24.401z M6.23,32.265
	c-0.153,0.533-0.16,1.107-0.019,1.643c0.122,0.464,0.354,0.899,0.697,1.254c0.603-0.603,0.772-1.2,0.775-2.047
	c0.002-0.847-0.163-1.445-0.762-2.052C6.589,31.403,6.358,31.82,6.23,32.265z M9.574,33.618c-0.279,0.446-0.417,0.957-0.424,1.469
	c-0.008,0.512,0.113,1.027,0.349,1.481c0.218,0.419,0.535,0.788,0.939,1.057c0.46-0.718,0.498-1.338,0.319-2.165
	C10.579,34.631,10.29,34.082,9.574,33.618z M15.393,36.499c-0.092,0.513-0.033,1.032,0.146,1.506
	c0.187,0.497,0.502,0.944,0.909,1.285c0.353,0.296,0.773,0.512,1.236,0.608c0.161-0.837-0.035-1.427-0.508-2.129
	S16.229,36.665,15.393,36.499z M26.404,34.625c1.96-0.86,3.714-2.102,5.168-3.632c1.575-1.657,2.797-3.652,3.547-5.864
	c0.546-1.61,0.842-3.335,0.842-5.129c0-1.934-0.344-3.788-0.974-5.503c-0.714-1.943-1.795-3.709-3.159-5.214
	c-1.273-1.405-2.794-2.582-4.493-3.462C25.14,4.682,22.645,4.039,20,4.039c-2.367,0-4.613,0.515-6.633,1.439
	c-2.034,0.931-3.839,2.276-5.306,3.929c-1.386,1.561-2.47,3.395-3.162,5.411c-0.557,1.625-0.86,3.368-0.86,5.183
	c0,1.984,0.362,3.883,1.023,5.635c0.985,2.61,2.634,4.894,4.742,6.646c1.408,1.17,3.021,2.103,4.776,2.737
	c1.692,0.611,3.518,0.944,5.42,0.944C22.277,35.962,24.443,35.485,26.404,34.625z M12.525,35.413
	c-0.201,0.539-0.221,1.118-0.093,1.663c0.106,0.451,0.314,0.878,0.605,1.239c0.298,0.369,0.683,0.668,1.135,0.852
	c0.308-0.795,0.22-1.41-0.12-2.186C13.713,36.205,13.319,35.725,12.525,35.413z"/>
</svg>
