<?xml version="1.0" encoding="utf-8"?>
<svg version="1.1" id="Layer_2" xmlns="http://www.w3.org/2000/svg" xmlns:xlink="http://www.w3.org/1999/xlink" x="0px" y="0px"
	 width="33px" height="40px" viewBox="0 0 33 40" enable-background="new 0 0 33 40" xml:space="preserve">
<path d="M32.891,21.081c0.007-0.075,0.011-0.114,0.011-0.114
	c-0.038,0.075-0.075,0.147-0.112,0.22l-3.493,3.669l1.089,0.479c-3.534,5.29-6.433,6.337-6.433,6.337
	c-5.244,3.172-5.357-1.02-5.357-1.02l-0.357-16.066l7.712-1.419V11.62h-7.778l-0.069-3.116c0.708-0.273,1.328-0.723,1.805-1.294
	c0.637-0.762,1.02-1.741,1.02-2.809c0-1.379-0.638-2.61-1.638-3.417C18.529,0.369,17.558,0,16.5,0c-1.304,0-2.477,0.56-3.287,1.452
	c-0.709,0.781-1.142,1.815-1.142,2.95c0,1.044,0.366,2.004,0.978,2.759c0.461,0.568,1.061,1.021,1.749,1.306l-0.07,3.154H7.067
	v1.548l7.596,1.397l-0.357,16.087c0,0-0.114,4.192-5.357,1.02c0,0-2.887-1.043-6.411-6.304l1.165-0.513L0,20.967l0.302,5.386
	l0.828-0.365c1.186,3.46,3.574,7.805,8.331,9.934c0,0,6.107,2.352,6.969,3.992V40c0.006-0.015,0.014-0.029,0.021-0.044
	c0.007,0.015,0.015,0.029,0.021,0.044v-0.086c0.862-1.641,6.969-3.992,6.969-3.992c4.774-2.137,7.163-6.505,8.344-9.971l0.914,0.402
	L33,20.967L32.891,21.081z M16.5,6.073c-0.559,0-1.054-0.271-1.359-0.688c-0.202-0.276-0.322-0.616-0.322-0.983
	c0-0.438,0.169-0.835,0.446-1.133c0.307-0.331,0.747-0.538,1.235-0.538c0.355,0,0.686,0.109,0.957,0.296
	c0.438,0.302,0.725,0.805,0.725,1.375c0,0.461-0.188,0.879-0.493,1.182C17.384,5.886,16.964,6.073,16.5,6.073z"/>
</svg>
