<?xml version="1.0" encoding="utf-8"?>
<svg version="1.1" id="Layer_7" xmlns="http://www.w3.org/2000/svg" xmlns:xlink="http://www.w3.org/1999/xlink" x="0px" y="0px"
	 width="40px" height="39px" viewBox="0 0 40 39" enable-background="new 0 0 40 39" xml:space="preserve">
<path d="M18.592,38.998v-18.17l-9.464,9.443C12.073,33.237,15.402,36.064,18.592,38.998z M10.065,0
	C4.509,0,0,5.429,0,12.119c0,6.397,3.013,11.479,7.192,16.111l11.4-11.375V4.27C16.83,1.366,13.682,0,10.065,0z M21.408,39
	c3.239-2.979,6.622-5.849,9.6-8.865l-9.6-9.579V39z M29.933,0c-3.615,0-6.764,1.366-8.525,4.27v12.313l11.529,11.504
	C37.049,23.494,40,18.451,40,12.119C40,5.429,35.493,0,29.933,0z"/>
</svg>
