<?xml version="1.0" encoding="utf-8"?>
<svg version="1.1" id="Layer_2" xmlns="http://www.w3.org/2000/svg" xmlns:xlink="http://www.w3.org/1999/xlink" x="0px" y="0px"
	 width="35px" height="40px" viewBox="0 0 35 40" enable-background="new 0 0 35 40" xml:space="preserve">
<path d="M0,14.685v9.235h6.524l7.811,6.157V8.444l-7.919,6.24H0z M21.881,15.408
	c-0.105-0.226-0.376-0.325-0.604-0.221l-2.788,1.27c-0.11,0.05-0.195,0.141-0.237,0.253c-0.042,0.112-0.037,0.236,0.014,0.345
	c0.249,0.533,0.427,1.111,0.535,1.72c0.141,0.796,0.161,1.644,0.061,2.515c-0.099,0.861-0.315,1.744-0.648,2.618
	c-0.089,0.233,0.03,0.493,0.265,0.581l2.868,1.073c0.052,0.02,0.106,0.029,0.161,0.029c0.064,0,0.128-0.014,0.188-0.04
	c0.11-0.049,0.197-0.14,0.239-0.251c0.414-1.086,0.695-2.191,0.842-3.286c0.114-0.847,0.148-1.688,0.103-2.508
	C22.796,18.052,22.464,16.66,21.881,15.408z M26.555,8.733c-0.047-0.117-0.142-0.208-0.259-0.253
	c-0.119-0.045-0.25-0.04-0.364,0.016l-3.288,1.591c-0.214,0.104-0.312,0.353-0.223,0.572c0.658,1.633,1.161,3.165,1.512,4.611
	c0.412,1.696,0.614,3.276,0.614,4.766c0,1.678-0.25,3.46-0.761,5.385c-0.339,1.28-0.794,2.624-1.365,4.041
	c-0.046,0.114-0.043,0.243,0.008,0.354c0.052,0.112,0.147,0.198,0.266,0.239l3.139,1.08c0.049,0.017,0.1,0.025,0.149,0.025
	c0.181,0,0.351-0.107,0.422-0.281c0.74-1.8,1.302-3.459,1.701-5.043c0.519-2.062,0.762-3.998,0.762-5.957
	c0-2.58-0.396-5.227-1.18-7.904C27.373,10.897,26.995,9.816,26.555,8.733z M30.939,0.273c-0.051-0.119-0.152-0.21-0.276-0.251
	c-0.125-0.041-0.261-0.026-0.374,0.039l-3.092,1.796c-0.199,0.116-0.279,0.36-0.188,0.569c0.985,2.244,1.779,4.585,2.375,6.981
	c0.862,3.464,1.307,7.041,1.307,10.592c0,3.407-0.41,6.836-1.203,10.167c-0.606,2.543-1.436,5.029-2.479,7.405
	c-0.092,0.209-0.012,0.453,0.188,0.569l3.092,1.796C30.36,39.979,30.44,40,30.521,40c0.048,0,0.096-0.007,0.143-0.022
	c0.124-0.041,0.225-0.132,0.276-0.251c1.147-2.656,2.061-5.437,2.729-8.283C34.546,27.697,35,23.837,35,20
	c0-3.859-0.458-7.741-1.347-11.505C32.987,5.669,32.078,2.91,30.939,0.273z"/>
</svg>
