<?xml version="1.0" encoding="utf-8"?>
<svg version="1.1" id="Layer_2" xmlns="http://www.w3.org/2000/svg" xmlns:xlink="http://www.w3.org/1999/xlink" x="0px" y="0px"
	 width="40px" height="40px" viewBox="0 0 40 40" enable-background="new 0 0 40 40" xml:space="preserve">
<path d="M39.746,22.047c0.178-0.294,0.285-0.557,0.246-0.987l-0.052-0.247c-0.107-0.311-0.255-0.432-0.255-0.433l-0.007-0.001
	c-0.094-0.095-0.231-0.249-0.274-0.38h0.005l-0.012-0.021c-0.049-0.129,0.014-0.262,0.083-0.364
	c0.114-0.171,0.241-0.329,0.328-0.524c0.141-0.317,0.224-0.593,0.139-1.014c-0.013-0.082-0.043-0.165-0.088-0.236
	c-0.167-0.291-0.338-0.388-0.338-0.388l-0.007-0.001c-0.11-0.079-0.279-0.211-0.347-0.332l-0.134,0.02l0.138-0.021L39.157,17.1
	c-0.063-0.121-0.014-0.263,0.044-0.376c0.095-0.186,0.204-0.364,0.269-0.57c0.105-0.338,0.113-0.616-0.047-1.017l-0.124-0.221
	c-0.195-0.267-0.373-0.336-0.373-0.336l-0.005-0.001c-0.118-0.063-0.297-0.171-0.377-0.282l0.005-0.001l-0.015-0.018
	c-0.081-0.111-0.064-0.254-0.028-0.373c0.062-0.195,0.135-0.386,0.158-0.596c0.042-0.346,0.039-0.634-0.166-1.012
	c-0.036-0.073-0.098-0.141-0.159-0.199c-0.245-0.229-0.436-0.27-0.436-0.27l-0.007,0.001c-0.129-0.043-0.33-0.12-0.43-0.215
	l-0.118,0.057l0.124-0.059l-0.018-0.015c-0.097-0.098-0.093-0.248-0.07-0.372c0.037-0.205,0.089-0.409,0.09-0.625
	c-0.017-0.345-0.077-0.621-0.352-0.956L36.94,9.469c-0.265-0.197-0.455-0.212-0.455-0.212l-0.006,0.001
	c-0.133-0.025-0.324-0.082-0.447-0.155L36.035,9.1l-0.021-0.012C35.9,9.009,35.877,8.863,35.877,8.74
	c0-0.206,0.016-0.41-0.022-0.619c-0.065-0.341-0.14-0.625-0.46-0.916l-0.214-0.14c-0.299-0.148-0.495-0.131-0.495-0.131
	l-0.006,0.001c-0.135-0.003-0.347-0.018-0.471-0.082l-0.104,0.094v0l0.107-0.098l-0.022-0.007c-0.119-0.067-0.158-0.213-0.173-0.339
	c-0.027-0.207-0.025-0.425-0.106-0.616c-0.12-0.322-0.253-0.572-0.612-0.814l-0.225-0.118c-0.308-0.114-0.494-0.073-0.494-0.073
	l-0.005,0.003c-0.129,0.01-0.35,0.038-0.485-0.004l-0.093,0.118l0.096-0.122l-0.022-0.004c-0.132-0.043-0.196-0.177-0.231-0.296
	c-0.059-0.198-0.104-0.398-0.201-0.589c-0.164-0.306-0.306-0.574-0.714-0.733l-0.245-0.073c-0.328-0.057-0.508,0.016-0.509,0.016
	l-0.003,0.002c-0.131,0.035-0.337,0.082-0.473,0.057l0.001-0.004l-0.022-0.003c-0.133-0.028-0.212-0.158-0.263-0.275
	c-0.081-0.201-0.164-0.374-0.291-0.545c-0.208-0.275-0.41-0.478-0.822-0.607l-0.247-0.048c-0.325-0.028-0.496,0.081-0.496,0.082
	L27.55,1.858C27.425,1.917,27.226,2,27.084,2l0.003-0.004l-0.024,0.002c-0.138-0.004-0.238-0.114-0.307-0.218
	c-0.116-0.172-0.215-0.354-0.365-0.509c-0.243-0.259-0.465-0.446-0.902-0.482L25.235,0.79c-0.331,0.041-0.481,0.162-0.481,0.162
	L24.75,0.957c-0.115,0.072-0.297,0.177-0.435,0.191l0.001-0.005l-0.022,0.005c-0.135,0.01-0.25-0.089-0.333-0.188
	c-0.14-0.152-0.27-0.303-0.44-0.427c-0.282-0.202-0.535-0.337-0.967-0.341L22.306,0.22c-0.318,0.066-0.451,0.228-0.451,0.226
	l-0.004,0.006c-0.102,0.093-0.267,0.23-0.401,0.272l0-0.005l-0.022,0.009c-0.133,0.037-0.26-0.039-0.358-0.118
	c-0.161-0.131-0.311-0.273-0.499-0.377c-0.307-0.172-0.576-0.295-1.004-0.199l-0.242,0.075c-0.305,0.137-0.412,0.297-0.412,0.297
	L18.91,0.413c-0.088,0.102-0.233,0.256-0.359,0.311l0.01,0.143l-0.01-0.148l-0.02,0.011c-0.126,0.051-0.264-0.011-0.374-0.08
	c-0.18-0.121-0.347-0.22-0.546-0.289c-0.329-0.109-0.609-0.165-1.023-0.04l-0.231,0.101c-0.282,0.166-0.367,0.335-0.367,0.339v0.007
	c-0.072,0.118-0.189,0.299-0.304,0.378l-0.001-0.004l-0.02,0.015c-0.116,0.076-0.26,0.041-0.377-0.006
	c-0.192-0.077-0.376-0.168-0.586-0.213c-0.344-0.067-0.64-0.115-1.021,0.103l-0.21,0.145c-0.25,0.221-0.304,0.405-0.304,0.405v0.006
	C13.112,1.721,13.021,1.91,12.914,2l-0.001-0.005l-0.016,0.018c-0.105,0.084-0.256,0.066-0.38,0.032
	c-0.207-0.061-0.394-0.103-0.607-0.111c-0.347-0.007-0.63,0.021-0.989,0.263l-0.192,0.163c-0.224,0.236-0.243,0.44-0.245,0.44
	l0.001,0.006c-0.033,0.134-0.093,0.341-0.179,0.451l0.072,0.125l-0.076-0.129l-0.012,0.021c-0.089,0.104-0.238,0.113-0.364,0.103
	C9.719,3.355,9.516,3.322,9.301,3.34c-0.356,0.024-0.636,0.089-0.94,0.405L8.203,3.943C8.028,4.226,8.029,4.417,8.029,4.418
	L8.03,4.424C8.016,4.557,7.982,4.765,7.908,4.88l0.094,0.117l-0.097-0.12l-0.01,0.02C7.82,5.012,7.664,5.029,7.544,5.044
	c-0.203,0.018-0.406,0.02-0.61,0.075C6.599,5.212,6.333,5.321,6.06,5.654l-0.136,0.21C5.792,6.167,5.832,6.367,5.83,6.366
	l0.002,0.005C5.84,6.509,5.842,6.722,5.79,6.853L5.787,6.849L5.78,6.872C5.724,6.997,5.584,7.049,5.461,7.074
	C5.257,7.116,5.049,7.143,4.849,7.222C4.509,7.343,4.292,7.515,4.078,7.89L3.981,8.124c-0.085,0.318-0.03,0.502-0.03,0.502
	l0.004,0.005c0.022,0.131,0.052,0.337,0.013,0.469L3.964,9.098L3.96,9.122c-0.044,0.125-0.161,0.206-0.278,0.25
	c-0.191,0.076-0.386,0.137-0.565,0.25c-0.296,0.184-0.521,0.365-0.689,0.76c-0.034,0.074-0.054,0.163-0.059,0.246
	c-0.026,0.334,0.062,0.509,0.062,0.509l0.003,0.005c0.048,0.128,0.112,0.331,0.1,0.469l0.122,0.059v0L2.528,11.61v0.024
	c-0.016,0.135-0.136,0.225-0.249,0.285c-0.185,0.099-0.376,0.185-0.547,0.319c-0.262,0.227-0.438,0.446-0.53,0.87l-0.024,0.25
	c0.01,0.33,0.117,0.488,0.117,0.488l0.005,0.003c0.063,0.119,0.142,0.305,0.154,0.446L1.45,14.293l0.005,0.024
	c0.009,0.139-0.09,0.246-0.188,0.324c-0.159,0.128-0.329,0.243-0.468,0.404c-0.231,0.263-0.393,0.501-0.438,0.928l0.026,0.255
	c0.073,0.326,0.209,0.468,0.209,0.468l0.005,0.003c0.082,0.108,0.204,0.282,0.232,0.419l-0.004,0l0.007,0.022
	c0.024,0.134-0.065,0.255-0.154,0.347c-0.147,0.149-0.305,0.286-0.429,0.464c-0.178,0.296-0.284,0.558-0.244,0.988l0.051,0.247
	c0.107,0.312,0.255,0.431,0.255,0.432l0.006,0.002c0.093,0.095,0.232,0.25,0.275,0.379H0.589l0.012,0.021
	c0.051,0.129-0.012,0.263-0.082,0.364c-0.115,0.171-0.242,0.33-0.328,0.523c-0.142,0.318-0.225,0.594-0.141,1.015
	c0.013,0.082,0.045,0.165,0.089,0.237c0.168,0.292,0.339,0.386,0.339,0.387h0.006c0.112,0.08,0.28,0.211,0.348,0.333l-0.005,0
	l0.013,0.02c0.063,0.121,0.015,0.263-0.043,0.376c-0.096,0.186-0.206,0.363-0.271,0.569c-0.104,0.339-0.112,0.617,0.047,1.017
	l0.125,0.221c0.194,0.267,0.374,0.337,0.374,0.337l0.005,0.001c0.118,0.063,0.296,0.169,0.376,0.282l-0.005,0.001l0.016,0.018
	c0.08,0.11,0.065,0.254,0.027,0.373c-0.059,0.197-0.134,0.386-0.157,0.596c-0.041,0.346-0.038,0.634,0.166,1.013
	c0.036,0.073,0.097,0.141,0.158,0.198c0.246,0.229,0.438,0.27,0.438,0.27h0.006c0.13,0.043,0.33,0.119,0.43,0.215l0.122-0.059
	L2.528,28.39l0.019,0.013c0.096,0.098,0.09,0.248,0.068,0.373c-0.036,0.206-0.089,0.408-0.089,0.625
	c0.016,0.345,0.077,0.62,0.351,0.955l0.182,0.175c0.263,0.198,0.454,0.212,0.454,0.212l0.006-0.001
	c0.134,0.024,0.323,0.082,0.448,0.155L3.963,30.9l0.021,0.011c0.114,0.078,0.138,0.224,0.138,0.348c0,0.206-0.016,0.409,0.021,0.619
	c0.065,0.341,0.139,0.626,0.46,0.916l0.214,0.14c0.3,0.148,0.494,0.131,0.495,0.131l0.005-0.002
	c0.136,0.003,0.348,0.021,0.472,0.082L5.787,33.15l0.021,0.008c0.119,0.066,0.158,0.211,0.173,0.338
	c0.027,0.207,0.027,0.426,0.106,0.616c0.121,0.322,0.255,0.574,0.613,0.814l0.225,0.117c0.307,0.116,0.494,0.074,0.494,0.074
	l0.004-0.002c0.13-0.011,0.35-0.038,0.484,0.004l-0.002,0.004l0.023,0.004c0.132,0.044,0.195,0.177,0.231,0.298
	c0.059,0.197,0.104,0.397,0.199,0.588c0.164,0.307,0.307,0.574,0.714,0.732l0.246,0.073c0.328,0.058,0.509-0.014,0.509-0.014
	L9.831,36.8c0.13-0.036,0.336-0.082,0.473-0.055l-0.001,0.003l0.023,0.001c0.132,0.029,0.211,0.159,0.262,0.277
	c0.079,0.2,0.163,0.374,0.29,0.543c0.209,0.275,0.41,0.479,0.821,0.609l0.248,0.047c0.325,0.027,0.497-0.081,0.497-0.082
	l0.004-0.004C12.573,38.083,12.771,38,12.913,38l-0.001,0.004l0.024-0.002c0.138,0.004,0.237,0.114,0.307,0.218
	c0.116,0.172,0.216,0.354,0.366,0.508c0.242,0.26,0.465,0.445,0.901,0.483l0.255-0.001c0.332-0.04,0.481-0.161,0.481-0.161
	l0.003-0.006c0.115-0.071,0.297-0.176,0.435-0.19l-0.001,0.004l0.023-0.004c0.135-0.01,0.248,0.09,0.332,0.188
	c0.139,0.151,0.269,0.303,0.44,0.427c0.281,0.202,0.533,0.337,0.965,0.341l0.251-0.027c0.317-0.068,0.45-0.229,0.45-0.228
	l0.002-0.005c0.104-0.093,0.268-0.23,0.403-0.273v0.005l0.021-0.01c0.133-0.037,0.261,0.038,0.359,0.117
	c0.16,0.131,0.311,0.274,0.498,0.378c0.308,0.172,0.578,0.294,1.004,0.199l0.243-0.075c0.303-0.137,0.412-0.298,0.412-0.298
	l0.002-0.006c0.088-0.102,0.232-0.255,0.359-0.311l-0.011-0.143l0.012,0.148l0.02-0.012c0.125-0.05,0.264,0.012,0.372,0.081
	c0.18,0.121,0.347,0.219,0.547,0.288c0.329,0.109,0.608,0.165,1.023,0.04l0.231-0.101c0.282-0.165,0.366-0.334,0.366-0.338
	l0.001-0.007c0.07-0.118,0.189-0.3,0.304-0.379l0.001,0.003l0.019-0.014c0.115-0.075,0.26-0.042,0.376,0.006
	c0.194,0.078,0.378,0.17,0.587,0.214c0.344,0.068,0.641,0.116,1.021-0.103l0.209-0.146c0.25-0.22,0.307-0.405,0.307-0.405v-0.006
	c0.054-0.123,0.145-0.313,0.25-0.403l0.001,0.004l0.017-0.017c0.105-0.086,0.256-0.066,0.381-0.032
	c0.207,0.06,0.394,0.102,0.607,0.111c0.346,0.008,0.631-0.021,0.99-0.262l0.191-0.164c0.223-0.235,0.245-0.439,0.245-0.439
	l-0.001-0.006c0.032-0.134,0.093-0.34,0.18-0.45l0.001,0.003l0.013-0.021c0.09-0.104,0.238-0.114,0.364-0.101
	c0.207,0.018,0.411,0.051,0.625,0.031c0.357-0.023,0.638-0.088,0.939-0.404l0.159-0.197c0.175-0.282,0.175-0.475,0.175-0.475
	l-0.002-0.006c0.015-0.133,0.048-0.341,0.122-0.457l-0.093-0.117l0.097,0.121l0.011-0.021c0.074-0.114,0.23-0.132,0.35-0.146
	c0.203-0.019,0.407-0.02,0.61-0.077c0.335-0.092,0.601-0.202,0.875-0.534l0.136-0.21c0.131-0.304,0.091-0.504,0.093-0.502
	l-0.002-0.005c-0.007-0.138-0.01-0.351,0.041-0.48l-0.103-0.096c0,0,0,0,0.001,0l0.106,0.1l0.007-0.023
	c0.054-0.125,0.194-0.177,0.318-0.203c0.205-0.041,0.412-0.068,0.612-0.148c0.34-0.121,0.558-0.292,0.773-0.666l0.094-0.235
	c0.087-0.319,0.031-0.501,0.031-0.503l-0.002-0.005c-0.026-0.13-0.052-0.336-0.014-0.469l0.002,0.003l0.004-0.022
	c0.044-0.128,0.162-0.209,0.279-0.253c0.189-0.075,0.385-0.137,0.566-0.247c0.296-0.184,0.52-0.366,0.688-0.761
	c0.034-0.074,0.053-0.163,0.059-0.247c0.027-0.334-0.061-0.508-0.061-0.508l-0.004-0.006c-0.047-0.127-0.111-0.33-0.099-0.469
	l-0.122-0.059l0-0.001l0.127,0.061l0-0.022c0.016-0.136,0.137-0.226,0.249-0.287c0.184-0.099,0.375-0.186,0.546-0.319
	c0.264-0.228,0.439-0.448,0.53-0.869l0.023-0.253c-0.008-0.328-0.116-0.487-0.114-0.487L38.7,26.149
	c-0.063-0.118-0.144-0.304-0.156-0.444l0.005,0.001l-0.005-0.024c-0.01-0.137,0.09-0.247,0.188-0.324
	c0.16-0.128,0.329-0.242,0.469-0.403c0.23-0.263,0.392-0.502,0.437-0.928l-0.026-0.255c-0.072-0.327-0.207-0.469-0.207-0.469
	L39.397,23.3c-0.082-0.108-0.203-0.283-0.231-0.42l0.004,0.001l-0.007-0.022c-0.023-0.134,0.064-0.256,0.155-0.345
	C39.464,22.364,39.622,22.226,39.746,22.047z M37.893,14.816c0,0,0.083,0.033,0.173,0.154l0.058,0.102
	c0.076,0.183,0.063,0.311,0.027,0.468c-0.02,0.094-0.063,0.179-0.1,0.267c-0.021,0.054-0.038,0.121-0.003,0.175l0.007,0.008
	l-0.132,0.029c-0.071-0.078-0.142-0.178-0.17-0.287l-0.017-0.086c-0.011-0.098,0.006-0.195,0.038-0.29
	c0.036-0.106,0.104-0.218,0.096-0.335c-0.004-0.053-0.039-0.09-0.086-0.127h-0.002c0,0-0.099-0.066-0.195-0.171l0.13-0.039
	c0.037,0.053,0.119,0.102,0.173,0.131L37.893,14.816z M36.343,11.058c-0.003,0.001,0.098,0.008,0.207,0.109l0.074,0.087
	c0.111,0.164,0.125,0.294,0.122,0.456c-0.001,0.099-0.026,0.19-0.044,0.285c-0.011,0.058-0.013,0.127,0.031,0.173l0.008,0.006
	l-0.082,0.04l0.081-0.038c0.046,0.045,0.138,0.081,0.198,0.1l0.004-0.001c0,0.001,0.088,0.02,0.202,0.125l0.076,0.09
	c0.116,0.162,0.119,0.295,0.098,0.456c-0.01,0.1-0.045,0.19-0.07,0.284c-0.017,0.057-0.024,0.127,0.015,0.177l0.007,0.007l-0.001,0
	c0.042,0.049,0.131,0.092,0.188,0.117h0.002c0,0,0.087,0.026,0.189,0.139l0.065,0.095c0.095,0.174,0.095,0.304,0.075,0.461
	c-0.011,0.096-0.046,0.182-0.075,0.272c-0.021,0.056-0.036,0.125-0.002,0.178l0.008,0.007l-0.13,0.039
	c-0.07-0.075-0.139-0.17-0.182-0.275l-0.025-0.084c-0.022-0.097-0.013-0.194,0.01-0.29c0.025-0.109,0.084-0.224,0.064-0.339
	c-0.009-0.052-0.048-0.086-0.1-0.12l-0.001,0.001c0,0-0.107-0.059-0.214-0.155h0.002c-0.078-0.069-0.156-0.158-0.195-0.263
	l-0.025-0.085c-0.023-0.097-0.01-0.199,0.003-0.295c0.016-0.108,0.063-0.227,0.032-0.34c-0.014-0.051-0.055-0.081-0.11-0.11
	l-0.001,0c0,0-0.114-0.048-0.23-0.135l0.002-0.001c-0.085-0.063-0.173-0.145-0.221-0.245l-0.034-0.082
	c-0.031-0.094-0.033-0.195-0.021-0.294c0.014-0.113,0.059-0.237,0.027-0.352c-0.015-0.051-0.055-0.081-0.114-0.106l-0.002,0.003
	c0,0-0.118-0.041-0.242-0.116l0.118-0.066c0.051,0.04,0.148,0.069,0.21,0.083H36.343z M34.844,8.792h0.005c0,0,0.089,0,0.219,0.079
	l0.091,0.074c0.141,0.138,0.177,0.261,0.204,0.418c0.017,0.095,0.008,0.188,0.008,0.282c-0.001,0.058,0.001,0.13,0.052,0.171
	l0.008,0.005l-0.002,0.001c0.051,0.04,0.144,0.064,0.204,0.077l0.003-0.001c0,0,0.089,0.008,0.21,0.097l0.083,0.08
	c0.127,0.153,0.154,0.281,0.165,0.44c0.007,0.097-0.009,0.19-0.018,0.286c-0.005,0.057-0.002,0.124,0.047,0.167l0.01,0.005
	l-0.119,0.067c-0.09-0.054-0.186-0.129-0.246-0.224l-0.04-0.078c-0.041-0.092-0.051-0.19-0.048-0.288
	c0.002-0.114,0.036-0.239-0.007-0.351c-0.019-0.049-0.063-0.073-0.12-0.096v0.001c0,0-0.116-0.035-0.239-0.106l0.002-0.002
	c-0.086-0.053-0.184-0.122-0.253-0.209l-0.049-0.075c-0.049-0.085-0.068-0.181-0.075-0.279c-0.006-0.112,0.017-0.238-0.037-0.344
	C34.88,8.94,34.832,8.92,34.774,8.902l-0.001,0c0,0-0.12-0.025-0.248-0.085l0.107-0.083C34.687,8.77,34.783,8.785,34.844,8.792z
	 M24.881,2.079l0.001-0.002c0,0,0.072-0.056,0.225-0.077h0.117c0.196,0.025,0.306,0.088,0.418,0.208
	c0.07,0.073,0.118,0.156,0.173,0.238c0.034,0.049,0.081,0.101,0.145,0.103l0.01-0.002l0,0.002c0.065,0,0.154-0.04,0.208-0.067
	l0.003-0.002c0,0,0.075-0.05,0.228-0.054l0.116,0.01c0.194,0.04,0.293,0.125,0.4,0.241c0.066,0.072,0.11,0.154,0.162,0.234
	c0.031,0.048,0.078,0.096,0.14,0.104h0.012l-0.001,0.002c0.064,0.005,0.156-0.026,0.211-0.048l0.003-0.003
	c0,0,0.077-0.042,0.228-0.031l0.113,0.021c0.189,0.059,0.281,0.152,0.378,0.28c0.06,0.078,0.096,0.166,0.142,0.25
	c0.026,0.051,0.066,0.105,0.131,0.114h0.01l-0.033,0.064l0.032-0.062c0.065,0.007,0.161-0.022,0.221-0.045l0.003-0.001
	c0,0,0.082-0.04,0.236-0.028l0.112,0.029c0.182,0.077,0.265,0.18,0.35,0.316c0.054,0.084,0.083,0.175,0.121,0.265
	c0.023,0.054,0.059,0.112,0.121,0.126l0.011,0.001l-0.001,0.002c0.064,0.013,0.161-0.008,0.222-0.024l0.002-0.002
	c0,0,0.085-0.031,0.236-0.007l0.112,0.033c0.181,0.082,0.269,0.172,0.34,0.322c0.046,0.089,0.068,0.183,0.098,0.276
	c0.018,0.057,0.049,0.12,0.108,0.14l0.012,0.001l-0.001,0.002c0.063,0.017,0.16,0.006,0.22-0.004L30.979,5
	c0,0,0.086-0.026,0.234,0.014l0.107,0.043c0.176,0.095,0.246,0.203,0.316,0.348c0.042,0.085,0.06,0.177,0.086,0.268
	c0.018,0.055,0.046,0.116,0.103,0.143l0.01,0.004L31.834,5.82c0.06,0.023,0.157,0.02,0.217,0.014l0.003-0.001
	c0,0,0.086-0.018,0.229,0.034l0.102,0.053c0.165,0.112,0.225,0.227,0.283,0.377c0.036,0.09,0.046,0.184,0.064,0.278
	c0.01,0.056,0.034,0.12,0.092,0.147l0.012,0.002l-0.091,0.095l0.089-0.092c0.06,0.024,0.163,0.024,0.225,0.02l0.002-0.002
	c0,0.002,0.094-0.017,0.234,0.043l0.096,0.062c0.153,0.125,0.204,0.246,0.247,0.402c0.027,0.096,0.03,0.191,0.04,0.288
	c0.006,0.057,0.025,0.125,0.079,0.155l0.012,0.004l-0.003,0.002c0.059,0.03,0.157,0.037,0.221,0.04l0.003-0.001
	c0,0,0.089-0.006,0.227,0.06l0.099,0.065c0.155,0.124,0.203,0.243,0.229,0.407c0.019,0.098,0.012,0.194,0.013,0.292
	c0.001,0.059,0.015,0.128,0.067,0.165l0.009,0.005l-0.107,0.083c-0.094-0.044-0.196-0.107-0.263-0.197l-0.049-0.075
	c-0.049-0.087-0.069-0.187-0.086-0.28c-0.016-0.109-0.004-0.237-0.065-0.335c-0.028-0.044-0.077-0.063-0.139-0.073h-0.001
	c0,0-0.122-0.016-0.257-0.065l0.001-0.001c-0.099-0.037-0.206-0.089-0.281-0.172l-0.056-0.069c-0.057-0.082-0.087-0.175-0.104-0.275
	c-0.021-0.112-0.013-0.245-0.076-0.346c-0.028-0.045-0.081-0.055-0.142-0.063l-0.001,0c0,0-0.125-0.004-0.265-0.042l0.001-0.001
	c-0.104-0.026-0.215-0.07-0.3-0.147L32.38,6.613c-0.064-0.075-0.101-0.166-0.127-0.263c-0.03-0.108-0.033-0.238-0.105-0.333
	c-0.033-0.041-0.083-0.054-0.141-0.059l-0.001,0.001c0,0-0.122-0.001-0.26-0.034l0.002-0.002c-0.098-0.028-0.219-0.056-0.308-0.125
	l-0.066-0.057c-0.071-0.069-0.118-0.155-0.151-0.247c-0.04-0.104-0.053-0.234-0.135-0.321c-0.035-0.038-0.085-0.045-0.146-0.045
	l0,0.001c0,0-0.122,0.011-0.264-0.011l0.001-0.002C30.576,5.099,30.461,5.067,30.372,5l-0.068-0.057
	c-0.069-0.074-0.125-0.151-0.166-0.239c-0.047-0.1-0.073-0.227-0.161-0.304c-0.039-0.034-0.091-0.038-0.152-0.032l-0.001,0.001
	c0,0-0.121,0.021-0.265,0.01l0-0.001c-0.105-0.006-0.223-0.028-0.318-0.085l-0.074-0.05c-0.077-0.063-0.133-0.146-0.178-0.235
	c-0.053-0.101-0.08-0.236-0.173-0.308c-0.042-0.031-0.095-0.028-0.158-0.017c0,0-0.12,0.033-0.266,0.036l0.001-0.002
	c-0.106,0.003-0.226-0.006-0.328-0.056l-0.078-0.042c-0.083-0.055-0.146-0.131-0.198-0.217c-0.059-0.096-0.101-0.221-0.196-0.29
	c-0.043-0.031-0.095-0.028-0.153-0.017L27.44,3.102c0,0-0.114,0.032-0.256,0.039l0.001-0.001c-0.104,0.007-0.228,0.012-0.333-0.026
	l-0.08-0.036c-0.088-0.045-0.157-0.114-0.216-0.194c-0.067-0.089-0.118-0.208-0.22-0.268c-0.045-0.027-0.097-0.02-0.155-0.001
	l0,0.001c0,0-0.113,0.044-0.255,0.063l0-0.001C25.823,2.69,25.706,2.692,25.6,2.654l-0.082-0.035
	c-0.087-0.051-0.164-0.106-0.228-0.181c-0.075-0.081-0.136-0.193-0.242-0.243c-0.047-0.022-0.098-0.01-0.156,0.013V2.21
	c0,0-0.11,0.056-0.25,0.088l0.035-0.132C24.741,2.16,24.827,2.112,24.881,2.079z M20.857,1.454c0,0,0.058-0.07,0.201-0.118
	l0.115-0.025c0.198-0.019,0.317,0.033,0.455,0.112l0.223,0.174c0.043,0.034,0.102,0.081,0.163,0.067l0.011-0.003v0.002
	c0.063-0.013,0.14-0.07,0.187-0.107l0.001-0.003c0,0,0.063-0.062,0.209-0.097l0.115-0.013c0.2,0,0.313,0.064,0.444,0.157
	l0.208,0.196c0.041,0.042,0.097,0.083,0.159,0.071l0.012-0.003l-0.001,0.002c0.063-0.012,0.147-0.069,0.198-0.106l0.002-0.003
	c0,0,0.068-0.062,0.219-0.096l0.115,0c0.197,0.02,0.306,0.095,0.427,0.2c0.077,0.065,0.13,0.145,0.194,0.218
	c0.036,0.046,0.088,0.092,0.152,0.087l0.011-0.002l-0.036,0.131c-0.102,0.025-0.221,0.039-0.33,0.01l-0.084-0.027
	c-0.093-0.037-0.17-0.099-0.239-0.173c-0.078-0.084-0.145-0.198-0.254-0.248c-0.05-0.015-0.1,0-0.155,0.03V1.89
	c0,0-0.106,0.064-0.244,0.11l0.019-0.101l-0.019,0.099c-0.101,0.035-0.219,0.061-0.331,0.043l-0.086-0.019
	c-0.094-0.029-0.178-0.083-0.252-0.148c-0.084-0.075-0.159-0.182-0.272-0.22c-0.051-0.017-0.098,0-0.151,0.029l0,0.001
	c0,0-0.1,0.066-0.234,0.113l0.003-0.026l-0.003,0.024c-0.097,0.031-0.212,0.067-0.325,0.062L21.595,1.85
	c-0.097-0.019-0.184-0.064-0.263-0.122c-0.09-0.066-0.173-0.164-0.288-0.191c-0.052-0.012-0.098,0.01-0.149,0.044v0.001
	c0,0-0.095,0.077-0.226,0.136l0.006-0.135c0.061-0.02,0.136-0.084,0.181-0.127L20.857,1.454z M7.257,6.283L7.32,6.186
	c0.126-0.153,0.247-0.202,0.401-0.244C7.815,5.917,7.91,5.916,8.004,5.907C8.062,5.901,8.127,5.884,8.16,5.829l0.003-0.011
	l0.001,0.002c0.03-0.061,0.043-0.156,0.049-0.216l0-0.002c0,0-0.001-0.088,0.077-0.217l0.071-0.09
	C8.5,5.154,8.626,5.116,8.785,5.088c0.097-0.017,0.191-0.009,0.287-0.011c0.059,0,0.128-0.01,0.164-0.063l0.006-0.01l0.001,0.001
	C9.278,4.95,9.296,4.854,9.305,4.791l0-0.002c0,0,0.002-0.092,0.083-0.223l0.072-0.091C9.608,4.343,9.74,4.321,9.902,4.307
	c0.1-0.009,0.194,0.007,0.292,0.014c0.058,0.005,0.127,0,0.169-0.047l0.005-0.01l0.001,0.002c0.041-0.052,0.067-0.147,0.08-0.207
	V4.055c0,0,0.009-0.089,0.101-0.21l0.082-0.084c0.153-0.127,0.28-0.152,0.438-0.163c0.099-0.001,0.195,0.025,0.292,0.041
	c0.059,0.01,0.129,0.012,0.174-0.032l0.007-0.01L11.544,3.6c0.044-0.047,0.078-0.138,0.097-0.197V3.4c0,0,0.016-0.087,0.118-0.198
	l0.089-0.077c0.165-0.11,0.293-0.123,0.455-0.118c0.097,0.002,0.187,0.027,0.28,0.046c0.058,0.011,0.125,0.014,0.171-0.031
	l0.007-0.009l0.001,0.003c0.046-0.05,0.089-0.131,0.111-0.189V2.824c0,0,0.023-0.085,0.135-0.186l0.095-0.066
	c0.173-0.094,0.305-0.096,0.466-0.076c0.097,0.012,0.187,0.046,0.278,0.072c0.056,0.017,0.124,0.026,0.174-0.015l0.008-0.007
	l0,0.001c0.049-0.043,0.095-0.13,0.122-0.189V2.357c0,0,0.029-0.086,0.143-0.188l0.097-0.067c0.181-0.08,0.313-0.064,0.472-0.031
	c0.098,0.02,0.186,0.062,0.275,0.098c0.056,0.022,0.123,0.037,0.176,0.003l0.008-0.007l0,0.002c0.054-0.038,0.106-0.12,0.137-0.176
	V1.988c0,0,0.036-0.083,0.159-0.174l0.103-0.056c0.183-0.077,0.311-0.063,0.466-0.026c0.093,0.021,0.178,0.076,0.266,0.12
	c0.054,0.027,0.122,0.048,0.176,0.019l0.009-0.006l0,0.002c0.056-0.031,0.115-0.108,0.149-0.159l0-0.003
	c0,0,0.042-0.079,0.173-0.156l0.106-0.047c0.19-0.057,0.317-0.031,0.469,0.021c0.093,0.03,0.172,0.081,0.256,0.125
	c0.051,0.028,0.115,0.051,0.173,0.021l0.008-0.006v0.002c0.058-0.032,0.122-0.112,0.161-0.157l0.001-0.002
	c0,0,0.047-0.075,0.183-0.138l0.11-0.035c0.194-0.038,0.321,0,0.468,0.065l0.245,0.151c0.048,0.032,0.112,0.062,0.171,0.037
	l0.01-0.004v0.002c0.059-0.025,0.129-0.097,0.171-0.145l0.001-0.002c0,0,0.052-0.074,0.192-0.139l0.113-0.035
	c0.195-0.043,0.318,0.013,0.462,0.092l0.233,0.177c0.045,0.035,0.107,0.07,0.168,0.053l0.01-0.003l-0.006,0.135
	c-0.094,0.044-0.207,0.082-0.319,0.077l-0.089-0.01c-0.098-0.019-0.187-0.066-0.271-0.122c-0.095-0.057-0.185-0.146-0.302-0.162
	c-0.052-0.006-0.096,0.02-0.145,0.059l0,0.003c0,0-0.089,0.084-0.214,0.157V1.715c-0.091,0.055-0.201,0.104-0.313,0.11l-0.088-0.002
	c-0.1-0.008-0.192-0.045-0.278-0.094c-0.1-0.056-0.197-0.146-0.315-0.161c-0.053-0.006-0.095,0.02-0.142,0.058v0.002
	c0,0-0.083,0.082-0.203,0.171V1.796c-0.086,0.063-0.191,0.123-0.303,0.14L17.6,1.944c-0.099,0.002-0.193-0.026-0.284-0.067
	c-0.103-0.046-0.205-0.125-0.325-0.128c-0.053-0.001-0.093,0.029-0.135,0.073v0.001c0,0-0.077,0.094-0.191,0.177l0-0.001
	c-0.083,0.062-0.185,0.121-0.296,0.137L16.28,2.148c-0.098,0.012-0.194-0.005-0.286-0.039c-0.105-0.036-0.212-0.105-0.331-0.097
	c-0.052,0.003-0.09,0.039-0.129,0.088h0c0,0-0.069,0.101-0.177,0.198l0-0.003c-0.078,0.069-0.174,0.141-0.284,0.167l-0.086,0.017
	c-0.099,0.012-0.198-0.005-0.294-0.036c-0.11-0.036-0.225-0.105-0.339-0.082c-0.053,0.008-0.087,0.047-0.123,0.099l0.001,0.001
	c0,0-0.062,0.107-0.16,0.215l-0.001-0.002C14,2.753,13.91,2.833,13.804,2.872L13.72,2.896c-0.098,0.021-0.197,0.014-0.294-0.009
	c-0.11-0.023-0.23-0.081-0.347-0.06c-0.052,0.008-0.085,0.046-0.117,0.097v0.001c0,0.002-0.057,0.102-0.147,0.214l-0.001-0.001
	c-0.065,0.084-0.148,0.172-0.249,0.221l-0.082,0.034c-0.094,0.03-0.192,0.032-0.291,0.02c-0.11-0.014-0.232-0.06-0.346-0.029
	c-0.051,0.014-0.081,0.056-0.108,0.109l0,0c0,0-0.047,0.113-0.131,0.228l-0.024-0.047l0.023,0.045
	c-0.061,0.083-0.141,0.169-0.243,0.218l-0.081,0.034c-0.092,0.04-0.189,0.05-0.286,0.046c-0.111-0.005-0.236-0.041-0.346,0.002
	c-0.048,0.019-0.075,0.063-0.098,0.121l0.001,0.001c0,0-0.038,0.116-0.111,0.239l-0.027-0.043l0.025,0.041
	c-0.054,0.09-0.127,0.185-0.224,0.243l-0.078,0.042c-0.091,0.039-0.19,0.05-0.292,0.049C9.73,4.709,9.603,4.679,9.499,4.734
	c-0.047,0.023-0.069,0.07-0.088,0.129l0.001,0.001c0,0-0.028,0.12-0.091,0.251L9.32,5.115C9.274,5.209,9.21,5.312,9.121,5.379
	L9.046,5.427C8.959,5.476,8.862,5.495,8.763,5.503c-0.114,0.008-0.244-0.014-0.35,0.04C8.364,5.567,8.344,5.613,8.328,5.67
	l0.001,0.002c0.001,0.003-0.028,0.112-0.077,0.251L8.174,5.83L8.25,5.922C8.213,6.021,8.159,6.129,8.075,6.205L8.007,6.261
	C7.925,6.318,7.83,6.347,7.734,6.362C7.622,6.38,7.492,6.371,7.392,6.433C7.347,6.46,7.33,6.509,7.32,6.568V6.57
	c0,0-0.013,0.12-0.061,0.252L7.165,6.725C7.194,6.668,7.2,6.571,7.2,6.51V6.507C7.2,6.507,7.19,6.419,7.257,6.283z M3.831,10.524
	l0.033-0.112c0.077-0.182,0.18-0.262,0.316-0.348c0.083-0.051,0.173-0.079,0.261-0.113C4.495,9.929,4.554,9.895,4.568,9.83
	l0.001-0.01l0,0c0.014-0.065-0.006-0.164-0.019-0.223L4.549,9.594c0,0-0.027-0.083,0.012-0.228l0.042-0.108
	c0.094-0.172,0.204-0.244,0.348-0.316C5.04,8.897,5.133,8.878,5.225,8.85c0.056-0.017,0.118-0.046,0.139-0.106l0.002-0.012
	l0.002,0.002C5.385,8.669,5.376,8.572,5.366,8.51L5.364,8.507c0,0-0.023-0.087,0.018-0.236l0.043-0.108
	c0.094-0.177,0.223-0.229,0.372-0.291C5.889,7.835,5.984,7.824,6.08,7.804c0.057-0.013,0.123-0.036,0.148-0.095l0.003-0.01
	l0.002,0.002C6.257,7.64,6.255,7.542,6.251,7.479L6.249,7.478c0,0-0.017-0.088,0.037-0.231L6.34,7.143
	c0.111-0.165,0.228-0.224,0.375-0.28c0.088-0.035,0.19-0.035,0.286-0.049c0.059-0.006,0.128-0.025,0.158-0.08l0.004-0.01
	l0.094,0.098C7.224,6.918,7.17,7.025,7.087,7.101L7.022,7.162c-0.076,0.064-0.165,0.1-0.26,0.124
	c-0.107,0.028-0.237,0.029-0.331,0.1C6.39,7.418,6.377,7.467,6.372,7.53h0.001c0,0-0.002,0.122-0.038,0.261L6.333,7.79
	C6.307,7.891,6.264,8.002,6.188,8.085L6.125,8.146C6.049,8.211,5.956,8.25,5.859,8.277C5.745,8.305,5.625,8.322,5.537,8.4
	C5.498,8.437,5.491,8.487,5.489,8.549l0.002,0.001c0,0,0.007,0.123-0.016,0.266L5.473,8.815C5.457,8.92,5.423,9.035,5.357,9.124
	L5.3,9.191C5.229,9.263,5.143,9.31,5.048,9.345c-0.106,0.04-0.238,0.056-0.325,0.138C4.685,9.519,4.679,9.57,4.679,9.628L4.68,9.63
	C4.679,9.628,4.692,9.748,4.685,9.896L4.682,9.895c-0.007,0.106-0.029,0.226-0.086,0.321l-0.05,0.073
	C4.482,10.366,4.4,10.42,4.311,10.463c-0.101,0.049-0.228,0.077-0.307,0.165c-0.036,0.04-0.038,0.091-0.032,0.151l0.001,0.001
	c0,0,0.022,0.117,0.015,0.259L3.87,10.972c0.012-0.063-0.01-0.157-0.027-0.215l-0.001-0.002C3.841,10.755,3.806,10.672,3.831,10.524
	z M2.621,12.85c0.035-0.197,0.143-0.284,0.269-0.386c0.079-0.061,0.167-0.1,0.253-0.146c0.05-0.028,0.107-0.069,0.116-0.133
	l-0.002-0.011l0.055,0.025L3.26,12.174c0.006-0.064-0.025-0.157-0.047-0.216l-0.001-0.001c0,0-0.041-0.081-0.03-0.232l0.022-0.115
	c0.059-0.188,0.153-0.279,0.279-0.374c0.077-0.058,0.162-0.093,0.255-0.131c0.055-0.024,0.115-0.061,0.129-0.122l0.001-0.012
	l0.118,0.067c-0.003,0.104-0.029,0.217-0.079,0.316l-0.043,0.078c-0.056,0.082-0.131,0.144-0.215,0.193
	c-0.096,0.058-0.218,0.096-0.289,0.191c-0.031,0.041-0.027,0.094-0.017,0.154l0.001,0c0,0,0.033,0.117,0.039,0.261l-0.002-0.001
	c0.004,0.104-0.004,0.223-0.054,0.323l-0.043,0.077c-0.055,0.083-0.131,0.148-0.218,0.202c-0.094,0.062-0.208,0.112-0.268,0.212
	c-0.027,0.045-0.02,0.096-0.003,0.156l0.001,0.001c0,0,0.043,0.115,0.063,0.258L2.73,13.413c0-0.064-0.038-0.157-0.066-0.213
	l-0.002-0.001c0,0-0.048-0.078-0.053-0.231L2.621,12.85z M4.365,30.102l-0.002,0.001c0,0-0.089-0.008-0.209-0.099l-0.084-0.08
	c-0.126-0.15-0.153-0.28-0.164-0.439c-0.008-0.097,0.01-0.189,0.018-0.285c0.006-0.057,0.001-0.125-0.047-0.167l-0.01-0.005
	l0.002-0.001c-0.052-0.042-0.148-0.069-0.21-0.084H3.656c0.002-0.001-0.098-0.008-0.208-0.109l-0.074-0.087
	c-0.111-0.163-0.124-0.294-0.122-0.456c0.001-0.099,0.027-0.19,0.044-0.286c0.01-0.057,0.013-0.125-0.032-0.171l-0.009-0.007
	l0.002,0c-0.048-0.046-0.14-0.082-0.199-0.101H3.056c0,0-0.088-0.02-0.202-0.124l-0.077-0.088c-0.115-0.163-0.118-0.295-0.097-0.458
	c0.01-0.1,0.043-0.19,0.069-0.283c0.017-0.057,0.025-0.127-0.014-0.177l-0.009-0.006l0.081-0.031l-0.078,0.029
	c-0.042-0.049-0.13-0.092-0.188-0.117H2.539c0,0-0.085-0.025-0.188-0.139l-0.067-0.095C2.19,26.059,2.191,25.93,2.21,25.773
	c0.012-0.096,0.047-0.183,0.074-0.271c0.023-0.056,0.037-0.126,0.002-0.179L2.28,25.317l0.098-0.031l-0.096,0.028
	c-0.037-0.05-0.12-0.102-0.175-0.13H2.105c0,0-0.083-0.033-0.173-0.155l-0.056-0.1C1.8,24.746,1.813,24.616,1.848,24.46
	c0.02-0.095,0.063-0.179,0.099-0.268c0.022-0.053,0.038-0.12,0.003-0.173L1.943,24.01l0.002,0c-0.038-0.055-0.122-0.108-0.177-0.141
	l-0.003-0.001c0.003,0-0.09-0.035-0.168-0.164l-0.046-0.105c-0.057-0.188-0.032-0.317,0.018-0.47c0.03-0.096,0.081-0.176,0.126-0.26
	c0.027-0.053,0.049-0.12,0.02-0.175L1.71,22.684l0.113-0.017l-0.111,0.016c-0.032-0.056-0.11-0.118-0.162-0.154H1.548
	c0,0-0.079-0.044-0.157-0.177l-0.047-0.108c-0.055-0.19-0.039-0.313,0.033-0.465l0.151-0.252c0.032-0.049,0.061-0.112,0.038-0.171
	l-0.005-0.01h0.002c-0.026-0.06-0.096-0.126-0.144-0.167H1.416c0,0-0.074-0.05-0.137-0.188l-0.037-0.11
	c-0.037-0.194,0.001-0.318,0.067-0.463l0.152-0.24c0.031-0.046,0.061-0.109,0.037-0.169l-0.005-0.01h0.002
	c-0.019-0.061-0.084-0.132-0.127-0.174l-0.002-0.001c0,0-0.069-0.055-0.119-0.197l-0.025-0.113
	c-0.018-0.195,0.033-0.316,0.114-0.456l0.174-0.229c0.038-0.043,0.073-0.104,0.056-0.164l-0.005-0.012h0.002
	c-0.019-0.063-0.083-0.138-0.126-0.185l-0.003-0.001c0,0-0.068-0.059-0.118-0.206l-0.023-0.115
	c-0.012-0.198,0.061-0.313,0.152-0.447l0.199-0.213c0.041-0.042,0.082-0.099,0.072-0.161L1.71,17.314h0.001
	c-0.013-0.063-0.068-0.144-0.107-0.192l-0.003-0.001c0,0-0.062-0.065-0.097-0.213l-0.013-0.117c0.002-0.199,0.064-0.311,0.159-0.438
	c0.054-0.079,0.131-0.136,0.208-0.2c0.045-0.038,0.092-0.092,0.088-0.154l-0.002-0.011l0.049,0.011l-0.047-0.011
	c-0.007-0.062-0.055-0.147-0.089-0.198l-0.003-0.001c0,0-0.056-0.069-0.075-0.22l-0.001-0.115c0.021-0.196,0.095-0.303,0.202-0.423
	c0.064-0.073,0.143-0.126,0.216-0.186c0.046-0.035,0.091-0.087,0.087-0.15L2.28,14.683l0.002,0
	c-0.007-0.066-0.054-0.154-0.086-0.209l-0.002,0c0,0-0.05-0.074-0.056-0.223l0.01-0.115c0.04-0.192,0.125-0.292,0.243-0.403
	c0.072-0.067,0.155-0.113,0.236-0.167c0.048-0.031,0.099-0.079,0.102-0.142l-0.001-0.011l0.126,0.049
	c0.015,0.104,0.017,0.224-0.022,0.328l-0.035,0.082c-0.047,0.088-0.117,0.159-0.197,0.218c-0.09,0.07-0.21,0.124-0.271,0.227
	c-0.026,0.045-0.018,0.095,0,0.153H2.33c-0.002-0.001,0.049,0.111,0.083,0.254L2.41,14.722c0.024,0.105,0.039,0.224,0.011,0.333
	l-0.026,0.083c-0.038,0.093-0.101,0.168-0.174,0.234c-0.082,0.077-0.196,0.14-0.246,0.248c-0.021,0.048-0.009,0.097,0.015,0.153
	l0,0.001c0,0,0.056,0.106,0.089,0.245l-0.003,0c0.026,0.1,0.038,0.217,0.013,0.326L2.072,16.43
	c-0.029,0.095-0.083,0.176-0.148,0.249c-0.074,0.083-0.181,0.154-0.22,0.265c-0.017,0.049,0.001,0.098,0.029,0.153h0.002
	c0,0,0.065,0.103,0.113,0.238L1.811,17.33l0.034,0.005c0.034,0.098,0.061,0.216,0.044,0.325L1.87,17.746
	c-0.028,0.096-0.083,0.18-0.149,0.256c-0.08,0.087-0.179,0.167-0.204,0.28c-0.01,0.051,0.011,0.098,0.044,0.15l0.002,0.001
	c0,0,0.075,0.098,0.136,0.229l-0.04-0.002l0.038,0.002c0.044,0.097,0.082,0.21,0.075,0.322l-0.009,0.088
	C1.745,19.17,1.698,19.257,1.64,19.34c-0.066,0.092-0.165,0.178-0.191,0.294c-0.012,0.051,0.011,0.096,0.043,0.146h0.002
	c0,0,0.075,0.093,0.137,0.219H1.629c0.053,0.093,0.103,0.205,0.107,0.317v0.088c-0.009,0.099-0.046,0.188-0.096,0.275
	c-0.056,0.096-0.146,0.188-0.161,0.307c-0.007,0.051,0.02,0.095,0.058,0.142h0.002c0,0,0.084,0.087,0.158,0.208H1.697
	c0.054,0.089,0.103,0.197,0.108,0.309l-0.001,0.089c-0.011,0.1-0.042,0.192-0.081,0.28c-0.047,0.1-0.127,0.201-0.13,0.317
	c-0.001,0.053,0.029,0.094,0.074,0.136h0.001c0,0,0.094,0.08,0.178,0.198H1.845c0.062,0.083,0.123,0.187,0.139,0.298l0.008,0.087
	c0.001,0.1-0.026,0.196-0.067,0.288c-0.045,0.104-0.125,0.21-0.128,0.329c-0.003,0.053,0.032,0.092,0.081,0.131h0
	c0,0,0.102,0.072,0.2,0.181l-0.004,0.001c0.073,0.08,0.143,0.177,0.171,0.285l0.017,0.087c0.011,0.098-0.007,0.195-0.039,0.289
	c-0.036,0.107-0.105,0.218-0.095,0.335c0.003,0.054,0.039,0.09,0.085,0.127l0.001-0.001c0,0,0.101,0.067,0.196,0.172l-0.001,0
	c0.069,0.076,0.138,0.17,0.18,0.275l0.025,0.085c0.021,0.096,0.013,0.193-0.01,0.288c-0.025,0.109-0.083,0.224-0.063,0.342
	c0.009,0.05,0.047,0.084,0.1,0.118l0.001,0c0,0,0.106,0.058,0.214,0.154l-0.002,0.001c0.077,0.069,0.156,0.158,0.194,0.263
	l0.026,0.084c0.023,0.097,0.009,0.2-0.003,0.295c-0.016,0.109-0.063,0.227-0.032,0.34c0.014,0.051,0.056,0.082,0.111,0.11h0.001
	c0,0,0.113,0.05,0.23,0.134l-0.06,0.029l0.057-0.026c0.085,0.063,0.173,0.143,0.221,0.245l0.034,0.082
	c0.031,0.094,0.033,0.194,0.022,0.294c-0.015,0.113-0.059,0.237-0.027,0.352c0.015,0.05,0.054,0.08,0.113,0.104l0.001-0.002
	c0,0,0.118,0.041,0.243,0.117L3.986,28.96c0.091,0.056,0.186,0.129,0.245,0.225l0.042,0.079c0.039,0.09,0.05,0.189,0.046,0.287
	c-0.002,0.114-0.036,0.24,0.007,0.351c0.019,0.049,0.063,0.073,0.118,0.096l0.001-0.001c0,0,0.117,0.035,0.239,0.106L4.57,30.178
	C4.519,30.138,4.426,30.113,4.365,30.102z M5.154,31.207l-0.003,0.001c0,0-0.09,0-0.22-0.08L4.84,31.056
	c-0.141-0.139-0.178-0.262-0.205-0.42c-0.016-0.095-0.008-0.188-0.007-0.282c0.001-0.058-0.002-0.129-0.05-0.169l-0.009-0.006
	l0.113-0.076c0.087,0.053,0.183,0.124,0.254,0.212l0.048,0.073c0.048,0.086,0.068,0.181,0.074,0.279
	c0.006,0.111-0.015,0.237,0.037,0.343c0.023,0.046,0.069,0.068,0.128,0.086l0.002-0.001c0,0,0.12,0.025,0.248,0.086l-0.107,0.083
	C5.313,31.231,5.215,31.215,5.154,31.207z M12.548,37.033l-0.002,0.001c0,0-0.077,0.044-0.229,0.031l-0.113-0.021
	c-0.189-0.058-0.28-0.152-0.378-0.279c-0.061-0.077-0.097-0.166-0.142-0.25c-0.027-0.051-0.068-0.106-0.132-0.115h-0.012l0-0.001
	c-0.065-0.005-0.16,0.023-0.221,0.044l-0.002,0.002c0,0-0.083,0.039-0.236,0.028l-0.112-0.029c-0.182-0.078-0.265-0.18-0.351-0.317
	c-0.053-0.083-0.083-0.175-0.121-0.264c-0.022-0.054-0.058-0.114-0.122-0.128h-0.01l0.042-0.069l-0.042,0.066
	c-0.064-0.011-0.161,0.01-0.222,0.025l-0.002,0.001c0,0-0.084,0.033-0.236,0.007l-0.111-0.034c-0.182-0.081-0.27-0.17-0.34-0.321
	c-0.047-0.089-0.068-0.184-0.098-0.276c-0.018-0.057-0.048-0.12-0.108-0.14h-0.01l0.068-0.097l-0.068,0.095
	c-0.062-0.018-0.158-0.007-0.222,0.004l-0.001,0.001c0,0-0.086,0.026-0.232-0.014l-0.108-0.043
	c-0.173-0.095-0.245-0.203-0.315-0.347c-0.042-0.086-0.061-0.178-0.087-0.268c-0.017-0.055-0.044-0.116-0.102-0.143l-0.011-0.003
	l0.001-0.001c-0.058-0.024-0.154-0.02-0.216-0.014l-0.003,0.001c0,0-0.087,0.018-0.227-0.035L7.613,34.08
	c-0.164-0.11-0.225-0.227-0.282-0.375c-0.036-0.091-0.045-0.185-0.064-0.28c-0.012-0.057-0.035-0.12-0.093-0.147l-0.011-0.003
	l0.001-0.001c-0.061-0.025-0.16-0.023-0.225-0.02l-0.002,0.001c0.001-0.001-0.094,0.017-0.233-0.043l-0.097-0.062
	c-0.153-0.125-0.203-0.246-0.247-0.401c-0.027-0.096-0.029-0.192-0.04-0.288c-0.005-0.059-0.024-0.126-0.079-0.156L6.23,32.301
	l0.071-0.064l-0.069,0.062c-0.058-0.03-0.156-0.038-0.221-0.041L6.01,32.26c0,0-0.091,0.007-0.229-0.06l-0.097-0.064
	c-0.156-0.125-0.205-0.244-0.23-0.408c-0.018-0.099-0.012-0.194-0.014-0.292c-0.001-0.06-0.013-0.128-0.065-0.165l-0.009-0.003
	l0.106-0.084c0.095,0.043,0.196,0.106,0.264,0.197l0.048,0.073c0.049,0.087,0.068,0.188,0.085,0.28
	c0.018,0.109,0.005,0.237,0.067,0.335c0.027,0.045,0.076,0.063,0.138,0.075l0.001-0.001c0,0,0.122,0.015,0.258,0.065l-0.002,0.001
	c0.099,0.036,0.207,0.089,0.281,0.173l0.056,0.068c0.057,0.082,0.087,0.177,0.104,0.276c0.021,0.112,0.012,0.244,0.076,0.345
	c0.027,0.045,0.082,0.055,0.142,0.063l0.001-0.001c0,0,0.124,0.004,0.267,0.042l-0.042,0.043l0.04-0.041
	c0.102,0.026,0.215,0.07,0.298,0.146l0.062,0.063c0.064,0.075,0.103,0.167,0.128,0.263c0.029,0.11,0.033,0.24,0.105,0.333
	c0.032,0.042,0.081,0.055,0.141,0.059l0.001-0.001c0,0,0.121,0.001,0.258,0.036l0,0c0.097,0.03,0.218,0.056,0.307,0.126l0.068,0.056
	c0.071,0.068,0.116,0.155,0.151,0.248c0.038,0.106,0.053,0.233,0.133,0.32c0.036,0.039,0.087,0.046,0.148,0.046l0-0.001
	c0,0,0.122-0.01,0.264,0.011l-0.002,0.002c0.103,0.017,0.217,0.048,0.308,0.115l0.067,0.057c0.069,0.073,0.125,0.151,0.166,0.239
	c0.047,0.1,0.073,0.226,0.16,0.304c0.04,0.034,0.092,0.037,0.153,0.032l0.001-0.002c0,0,0.121-0.02,0.267-0.01l-0.001,0.002
	c0.104,0.006,0.222,0.026,0.318,0.085l0.073,0.049c0.077,0.063,0.133,0.146,0.178,0.236c0.052,0.102,0.079,0.235,0.174,0.308
	c0.042,0.03,0.095,0.028,0.156,0.017v-0.001c0,0,0.121-0.03,0.267-0.034l-0.001,0.001c0.106-0.004,0.227,0.006,0.328,0.056
	l0.078,0.042c0.083,0.055,0.145,0.131,0.198,0.215c0.059,0.098,0.101,0.222,0.197,0.291c0.042,0.032,0.093,0.028,0.152,0.016
	l0-0.001c0,0,0.116-0.034,0.257-0.041l-0.054,0.125C12.697,36.979,12.604,37.009,12.548,37.033z M13.817,37.521
	c0,0-0.076,0.048-0.228,0.054l-0.116-0.011c-0.195-0.04-0.293-0.125-0.402-0.241c-0.065-0.071-0.11-0.154-0.162-0.232
	c-0.029-0.05-0.077-0.097-0.14-0.103h-0.011l0.054-0.126c0.103-0.005,0.226-0.012,0.332,0.027l0.081,0.035
	c0.088,0.045,0.158,0.117,0.215,0.194c0.068,0.09,0.119,0.209,0.221,0.269c0.045,0.026,0.096,0.019,0.155,0.001l0-0.001
	c0,0,0.112-0.044,0.254-0.064l-0.044,0.128c-0.065,0-0.154,0.041-0.209,0.068L13.817,37.521z M16.439,38.239l0,0.003
	c0,0-0.068,0.062-0.219,0.095l-0.115,0.003c-0.196-0.021-0.305-0.095-0.428-0.202c-0.075-0.065-0.129-0.145-0.192-0.218
	c-0.037-0.045-0.089-0.091-0.152-0.086l-0.012,0v0c-0.064,0.007-0.15,0.054-0.204,0.087l-0.001,0.002c0,0-0.071,0.055-0.223,0.075
	l-0.118,0.001c-0.196-0.026-0.307-0.087-0.419-0.208c-0.069-0.073-0.116-0.157-0.172-0.238c-0.034-0.05-0.082-0.1-0.145-0.103
	l-0.011,0.001l0.044-0.127c0.103-0.015,0.222-0.018,0.327,0.021l0.082,0.036c0.087,0.051,0.164,0.106,0.229,0.179
	c0.073,0.083,0.134,0.195,0.242,0.245c0.047,0.021,0.098,0.01,0.154-0.013l0.001-0.002c0,0,0.11-0.055,0.25-0.088l0,0.002
	c0.103-0.025,0.221-0.038,0.331-0.011l0.083,0.027c0.094,0.038,0.17,0.1,0.238,0.174c0.079,0.083,0.146,0.198,0.255,0.246
	c0.05,0.018,0.099,0,0.155-0.029V38.11c0,0,0.106-0.064,0.244-0.111l-0.023,0.133C16.575,38.145,16.491,38.201,16.439,38.239z
	 M19.142,38.545c0,0-0.059,0.07-0.203,0.118l-0.114,0.024c-0.197,0.018-0.317-0.033-0.455-0.112l-0.222-0.173
	c-0.044-0.034-0.102-0.08-0.164-0.067l-0.011,0.002v-0.001c-0.062,0.014-0.14,0.069-0.187,0.108l-0.002,0.003
	c0,0-0.062,0.062-0.209,0.097l-0.115,0.012c-0.197-0.001-0.313-0.064-0.443-0.158l-0.207-0.196
	c-0.041-0.042-0.098-0.082-0.161-0.071l-0.009,0.003l0.023-0.134c0.101-0.034,0.22-0.06,0.33-0.042l0.087,0.018
	c0.095,0.029,0.177,0.083,0.251,0.149c0.086,0.074,0.161,0.182,0.274,0.22c0.049,0.017,0.097,0,0.15-0.029v-0.001
	c0,0,0.1-0.067,0.234-0.114v0.001c0.096-0.03,0.212-0.064,0.325-0.063l0.088,0.01c0.097,0.019,0.184,0.064,0.262,0.123
	c0.091,0.064,0.175,0.164,0.29,0.191c0.052,0.012,0.097-0.01,0.148-0.044l0.001-0.002c0,0,0.094-0.076,0.224-0.136l-0.005,0.136
	c-0.062,0.02-0.136,0.083-0.181,0.127V38.545z M21.863,38.492l-0.002,0.003c0,0-0.047,0.074-0.183,0.138l-0.109,0.036
	c-0.194,0.037-0.32-0.001-0.468-0.067l-0.247-0.15c-0.047-0.032-0.112-0.062-0.17-0.038l-0.009,0.006l-0.005-0.123l0.004,0.12
	c-0.06,0.025-0.129,0.097-0.171,0.143l-0.001,0.003c0,0-0.052,0.074-0.192,0.139l-0.111,0.035c-0.197,0.043-0.319-0.013-0.462-0.092
	l-0.234-0.176c-0.045-0.037-0.106-0.072-0.168-0.055l-0.01,0.005l0.005-0.136c0.095-0.045,0.208-0.082,0.32-0.076l0.087,0.01
	c0.1,0.018,0.189,0.065,0.272,0.121c0.095,0.057,0.185,0.147,0.301,0.162c0.052,0.007,0.096-0.021,0.146-0.06v-0.001
	c0,0,0.089-0.084,0.214-0.158v0.003c0.09-0.055,0.201-0.103,0.315-0.108l0.087,0.001c0.099,0.008,0.191,0.044,0.278,0.094
	c0.1,0.056,0.196,0.146,0.314,0.162c0.053,0.006,0.095-0.021,0.142-0.06v-0.001c0,0,0.084-0.081,0.202-0.17l0.015,0.134
	C21.964,38.366,21.9,38.449,21.863,38.492z M32.798,33.492c0,0,0.011,0.089-0.056,0.225l-0.064,0.097
	c-0.126,0.153-0.246,0.201-0.401,0.244c-0.093,0.025-0.188,0.026-0.283,0.035c-0.057,0.006-0.124,0.023-0.154,0.079l-0.005,0.011
	l-0.001-0.002c-0.029,0.062-0.042,0.156-0.048,0.216v0.001c0,0,0.003,0.089-0.076,0.218l-0.07,0.09
	c-0.14,0.14-0.265,0.177-0.424,0.205c-0.097,0.018-0.192,0.01-0.288,0.011c-0.059,0.001-0.126,0.012-0.163,0.063l-0.006,0.01
	l-0.001-0.002c-0.035,0.055-0.053,0.153-0.062,0.216l0,0.002c0,0-0.001,0.092-0.083,0.223l-0.073,0.09
	c-0.149,0.131-0.28,0.153-0.442,0.169c-0.098,0.007-0.195-0.007-0.291-0.017c-0.059-0.004-0.129,0-0.169,0.05l-0.006,0.008
	l-0.001-0.002c-0.041,0.051-0.067,0.146-0.081,0.208l0.001,0.003c0,0-0.01,0.089-0.102,0.21l-0.081,0.085
	c-0.155,0.126-0.28,0.15-0.438,0.161c-0.1,0.001-0.195-0.025-0.291-0.041c-0.058-0.009-0.131-0.011-0.175,0.033l-0.006,0.009
	L28.454,36.4c-0.044,0.047-0.078,0.138-0.097,0.197l0.001,0.001c0,0-0.017,0.089-0.12,0.201l-0.088,0.075
	c-0.166,0.11-0.294,0.124-0.455,0.119c-0.096-0.001-0.187-0.027-0.28-0.046c-0.058-0.011-0.125-0.014-0.172,0.031l-0.008,0.009
	l0-0.002c-0.046,0.049-0.088,0.13-0.11,0.189v0.002c0,0-0.023,0.085-0.136,0.186l-0.094,0.066c-0.174,0.094-0.305,0.094-0.466,0.075
	c-0.098-0.011-0.187-0.045-0.279-0.072c-0.056-0.017-0.124-0.026-0.175,0.015l-0.007,0.008l-0.001-0.002
	c-0.049,0.042-0.095,0.131-0.122,0.189v0.003c0,0-0.027,0.086-0.143,0.188l-0.097,0.067c-0.181,0.079-0.313,0.063-0.473,0.03
	c-0.096-0.021-0.184-0.062-0.273-0.098c-0.056-0.023-0.123-0.037-0.176-0.002l-0.007,0.008l-0.01-0.036l0.009,0.033
	c-0.054,0.036-0.106,0.121-0.138,0.174v0.003c0,0-0.035,0.083-0.16,0.173l-0.102,0.057c-0.184,0.076-0.312,0.063-0.466,0.026
	c-0.094-0.021-0.179-0.077-0.266-0.12c-0.054-0.027-0.122-0.049-0.178-0.02l-0.009,0.007l-0.015-0.083l0.014,0.08
	c-0.055,0.032-0.114,0.109-0.149,0.16l0,0.002c0,0-0.042,0.079-0.172,0.156l-0.106,0.046c-0.19,0.058-0.318,0.032-0.471-0.019
	c-0.092-0.03-0.17-0.081-0.255-0.127c-0.049-0.026-0.115-0.049-0.171-0.02l-0.011,0.006l-0.015-0.135
	c0.086-0.063,0.192-0.122,0.304-0.139l0.087-0.008c0.1-0.001,0.194,0.025,0.284,0.067c0.102,0.046,0.205,0.125,0.325,0.128
	c0.052,0.003,0.092-0.029,0.135-0.073v-0.001c0,0,0.077-0.092,0.19-0.178l0,0.002c0.083-0.062,0.185-0.12,0.296-0.138l0.088-0.011
	c0.099-0.011,0.194,0.006,0.287,0.039c0.104,0.035,0.212,0.104,0.33,0.097c0.052-0.003,0.09-0.04,0.129-0.088v-0.001
	c0,0,0.069-0.101,0.176-0.196l0,0.001c0.079-0.071,0.175-0.141,0.283-0.167l0.088-0.018c0.098-0.011,0.197,0.006,0.292,0.038
	c0.11,0.035,0.226,0.104,0.341,0.081c0.051-0.009,0.086-0.047,0.12-0.098v-0.002c0,0,0.062-0.108,0.161-0.215l0,0.002
	c0.072-0.078,0.163-0.157,0.268-0.195l0.084-0.026c0.097-0.022,0.196-0.014,0.294,0.009c0.111,0.024,0.229,0.081,0.346,0.061
	c0.052-0.009,0.085-0.046,0.118-0.098v-0.002c-0.001-0.002,0.056-0.102,0.147-0.215l0.001,0.002c0.064-0.084,0.148-0.172,0.25-0.222
	l0.082-0.033c0.094-0.031,0.193-0.032,0.291-0.02c0.112,0.015,0.233,0.06,0.347,0.03c0.052-0.015,0.08-0.056,0.109-0.11v-0.001
	c0,0,0.045-0.112,0.131-0.227l0.02,0.038l-0.019-0.036c0.061-0.083,0.141-0.17,0.243-0.219l0.081-0.035
	c0.091-0.039,0.188-0.049,0.285-0.046c0.111,0.005,0.234,0.041,0.345-0.001c0.049-0.019,0.075-0.064,0.099-0.121v0
	c0,0,0.036-0.116,0.111-0.24l0.001,0.002c0.055-0.09,0.126-0.185,0.223-0.243l0.079-0.042c0.091-0.04,0.19-0.052,0.291-0.049
	c0.116,0.004,0.245,0.034,0.348-0.021c0.047-0.023,0.068-0.07,0.087-0.13l-0.001,0c0,0,0.028-0.122,0.092-0.252l0.001,0.001
	c0.045-0.096,0.109-0.196,0.199-0.263l0.074-0.05c0.086-0.047,0.184-0.067,0.283-0.075c0.114-0.007,0.244,0.012,0.35-0.04
	c0.048-0.024,0.069-0.071,0.084-0.128l-0.001-0.001c-0.002-0.003,0.027-0.111,0.077-0.251l0.05,0.06l-0.048-0.058
	c0.037-0.1,0.093-0.208,0.175-0.284l0.069-0.055c0.082-0.055,0.176-0.085,0.273-0.101c0.111-0.018,0.242-0.009,0.342-0.07
	c0.045-0.028,0.061-0.077,0.072-0.136l-0.001-0.001c0,0,0.014-0.12,0.06-0.254l0.095,0.098c-0.029,0.057-0.035,0.154-0.036,0.216
	L32.798,33.492z M38.021,24.97c-0.064,0.073-0.144,0.126-0.218,0.185c-0.045,0.036-0.092,0.087-0.086,0.15l0.002,0.012L37.6,25.282
	l0.117,0.035c0.006,0.064,0.053,0.152,0.086,0.208l0.002,0.003c0,0,0.05,0.071,0.055,0.221l-0.01,0.116
	c-0.04,0.193-0.125,0.292-0.243,0.403c-0.073,0.067-0.155,0.113-0.236,0.167c-0.049,0.032-0.1,0.079-0.101,0.142l0,0.012l-0.001,0
	c0,0.065,0.039,0.156,0.066,0.213l0.002,0.001c0,0,0.049,0.077,0.052,0.231l-0.011,0.116c-0.035,0.199-0.142,0.286-0.267,0.387
	c-0.08,0.06-0.168,0.1-0.254,0.146c-0.052,0.028-0.108,0.071-0.116,0.134v0.01h0c-0.007,0.065,0.023,0.157,0.044,0.215l0.003,0.002
	c0,0,0.041,0.08,0.031,0.232l-0.023,0.114c-0.059,0.19-0.153,0.279-0.28,0.374c-0.077,0.058-0.161,0.093-0.255,0.131
	c-0.053,0.024-0.115,0.061-0.128,0.122v0.011l-0.052-0.029l0.049,0.029c-0.011,0.062,0.011,0.157,0.027,0.215l0.002,0.003
	c0,0,0.034,0.083,0.009,0.23l-0.033,0.112c-0.078,0.183-0.179,0.263-0.315,0.347c-0.083,0.051-0.174,0.079-0.261,0.114
	c-0.053,0.021-0.112,0.058-0.127,0.119l-0.001,0.012l-0.001-0.001c-0.012,0.064,0.009,0.163,0.021,0.224l0.001,0.001
	c0,0,0.027,0.084-0.01,0.23l-0.042,0.106c-0.094,0.173-0.205,0.246-0.349,0.317c-0.088,0.044-0.181,0.064-0.273,0.092
	c-0.056,0.017-0.119,0.047-0.139,0.106l-0.001,0.012l-0.001-0.001c-0.019,0.062-0.009,0.16,0.001,0.223l0.001,0.002
	c0,0,0.023,0.089-0.018,0.236l-0.043,0.109c-0.095,0.176-0.223,0.229-0.371,0.29c-0.094,0.037-0.189,0.049-0.284,0.069
	c-0.058,0.012-0.125,0.036-0.15,0.094l-0.003,0.011L33.765,32.3c-0.022,0.06-0.022,0.158-0.016,0.221l0.002,0.003
	c0,0,0.015,0.087-0.038,0.23l-0.054,0.104c-0.111,0.165-0.226,0.224-0.375,0.279c-0.089,0.036-0.189,0.036-0.286,0.049
	c-0.06,0.007-0.128,0.026-0.159,0.08l-0.003,0.011l-0.094-0.098c0.035-0.097,0.088-0.203,0.169-0.279l0.065-0.06
	c0.076-0.063,0.167-0.101,0.26-0.125c0.108-0.029,0.237-0.029,0.331-0.1c0.041-0.032,0.055-0.083,0.059-0.144
	c0,0,0.002-0.122,0.039-0.262l0.001,0.001c0.026-0.102,0.068-0.212,0.144-0.295l0.063-0.061c0.077-0.064,0.17-0.104,0.266-0.131
	c0.116-0.028,0.235-0.046,0.322-0.124c0.04-0.037,0.048-0.086,0.048-0.149h0c0,0-0.01-0.124,0.016-0.268l0.002,0.001
	c0.017-0.105,0.049-0.22,0.117-0.309l0.057-0.068c0.069-0.07,0.157-0.117,0.25-0.152c0.108-0.04,0.239-0.058,0.325-0.139
	c0.039-0.035,0.046-0.085,0.045-0.146l-0.001-0.001c0.003,0.001-0.011-0.117-0.004-0.266l0.052,0.034l-0.048-0.032
	c0.006-0.106,0.027-0.225,0.087-0.321l0.05-0.072c0.063-0.078,0.143-0.132,0.234-0.176c0.101-0.049,0.229-0.076,0.307-0.165
	c0.037-0.04,0.038-0.089,0.032-0.149l-0.002-0.002c0,0-0.022-0.118-0.013-0.26l0,0c0.004-0.104,0.03-0.216,0.081-0.316l0.042-0.077
	c0.055-0.083,0.131-0.144,0.214-0.195c0.096-0.057,0.22-0.096,0.29-0.191c0.031-0.042,0.028-0.093,0.017-0.153l-0.001-0.001
	c0,0-0.033-0.118-0.038-0.26l0.031,0.014l-0.028-0.013c-0.005-0.104,0.005-0.225,0.053-0.325l0.043-0.076
	c0.056-0.084,0.133-0.147,0.219-0.201c0.094-0.063,0.208-0.113,0.269-0.213c0.027-0.045,0.02-0.096,0.003-0.156l-0.003,0
	c0,0-0.041-0.115-0.061-0.259l0.001,0c-0.013-0.104-0.016-0.225,0.023-0.329l0.035-0.081c0.047-0.089,0.117-0.159,0.197-0.219
	c0.089-0.069,0.212-0.124,0.271-0.226c0.027-0.045,0.019-0.095,0.001-0.152l-0.001-0.001c0.002,0.001-0.048-0.11-0.082-0.253
	l0.001,0c-0.023-0.104-0.037-0.225-0.009-0.332l0.026-0.085c0.038-0.092,0.101-0.167,0.173-0.233
	c0.082-0.077,0.197-0.141,0.246-0.248c0.022-0.049,0.01-0.098-0.014-0.154h-0.001c0,0-0.056-0.106-0.089-0.245l0.133,0.031
	c0.006,0.063,0.056,0.147,0.088,0.199l0.002,0.001c0,0.001,0.057,0.069,0.077,0.219l0.001,0.116
	C38.199,24.742,38.126,24.85,38.021,24.97z M38.555,22.3l-0.199,0.214c-0.041,0.042-0.082,0.098-0.07,0.16l0.002,0.011l-0.083-0.012
	l0.081,0.012c0.013,0.062,0.07,0.143,0.108,0.192l0.002,0.002c0,0,0.064,0.064,0.097,0.211l0.012,0.117
	c-0.001,0.199-0.063,0.312-0.158,0.44c-0.053,0.078-0.131,0.135-0.208,0.197c-0.046,0.04-0.092,0.092-0.087,0.155l0.002,0.011
	l-0.133-0.031c-0.026-0.1-0.037-0.216-0.013-0.325l0.018-0.087c0.03-0.093,0.084-0.174,0.148-0.247
	c0.076-0.082,0.183-0.153,0.221-0.266c0.018-0.049,0-0.098-0.029-0.151l-0.001-0.001c0,0-0.066-0.104-0.113-0.239l0.002,0
	c-0.034-0.1-0.061-0.215-0.043-0.326l0.019-0.086c0.029-0.095,0.083-0.178,0.149-0.255c0.078-0.087,0.177-0.166,0.205-0.281
	c0.01-0.051-0.013-0.098-0.045-0.149l-0.002-0.001c0,0-0.076-0.097-0.136-0.229l0.135,0.009c0.021,0.063,0.085,0.14,0.128,0.186
	h0.002c0,0,0.069,0.061,0.118,0.207l0.025,0.115C38.719,22.051,38.647,22.166,38.555,22.3z M38.664,20.943l-0.175,0.229
	c-0.037,0.043-0.071,0.104-0.054,0.166l0.004,0.009l-0.135-0.009c-0.045-0.096-0.082-0.21-0.077-0.322l0.01-0.087
	c0.017-0.099,0.064-0.186,0.122-0.267c0.067-0.092,0.166-0.178,0.193-0.294c0.011-0.051-0.01-0.097-0.044-0.146h-0.001
	c0,0-0.076-0.092-0.138-0.22h0.003c-0.054-0.092-0.103-0.205-0.108-0.315l0.001-0.09c0.008-0.097,0.045-0.188,0.094-0.273
	c0.058-0.096,0.146-0.189,0.163-0.306c0.006-0.054-0.02-0.097-0.059-0.144h-0.003c0,0-0.084-0.087-0.158-0.208h0.003
	c-0.055-0.088-0.104-0.198-0.108-0.309v-0.088c0.012-0.1,0.042-0.192,0.081-0.28c0.047-0.101,0.128-0.2,0.131-0.318
	c0.001-0.052-0.031-0.093-0.074-0.136h-0.002c0,0-0.093-0.08-0.179-0.198h0.002c-0.062-0.083-0.123-0.187-0.14-0.297l-0.008-0.089
	c-0.001-0.099,0.026-0.194,0.067-0.287c0.046-0.104,0.126-0.21,0.127-0.329c0.005-0.053-0.03-0.092-0.08-0.132h-0.001
	c0,0-0.103-0.073-0.199-0.181l0.133-0.029c0.037,0.053,0.12,0.108,0.176,0.141h0.003c-0.003,0.001,0.09,0.037,0.167,0.166
	l0.047,0.104c0.056,0.188,0.032,0.316-0.019,0.472c-0.03,0.094-0.082,0.174-0.125,0.26c-0.027,0.052-0.05,0.118-0.02,0.175
	l0.005,0.008l-0.1,0.014l0.098-0.013c0.031,0.057,0.11,0.118,0.161,0.153l0.004,0.001c0,0,0.08,0.043,0.156,0.176l0.047,0.107
	c0.055,0.19,0.039,0.315-0.032,0.466l-0.151,0.25c-0.033,0.051-0.062,0.114-0.038,0.171l0.005,0.01h-0.003
	c0.027,0.06,0.098,0.127,0.145,0.167l0.002,0.001c0,0,0.074,0.05,0.138,0.188l0.037,0.11c0.039,0.194,0,0.317-0.067,0.463
	l-0.151,0.24c-0.033,0.046-0.062,0.109-0.038,0.168L38.506,20h-0.003c0.02,0.062,0.085,0.132,0.127,0.175l0.002,0.001
	c0,0,0.07,0.055,0.118,0.197l0.025,0.112C38.795,20.682,38.745,20.803,38.664,20.943z"/>
</svg>
