<?xml version="1.0" encoding="utf-8"?>
<svg version="1.1" id="Layer_2" xmlns="http://www.w3.org/2000/svg" xmlns:xlink="http://www.w3.org/1999/xlink" x="0px" y="0px"
	 width="40px" height="20px" viewBox="0 0 40 20" enable-background="new 0 0 40 20" xml:space="preserve">
<path d="M0,20h0.296V0H0V20z M0.649,20h0.844V0H0.649V20z M1.869,20h0.296V0H1.869V20z M2.701,20h0.843V0H2.701V20z M4.529,20h0.296
	V0H4.529V20z M5.518,20h0.296V0H5.518V20z M6.28,20h0.843V0H6.28V20z M7.658,20h0.296V0H7.658V20z M8.627,20h0.843V0H8.627V20z
	 M9.882,20h0.296V0H9.882V20z M10.952,20h0.296V0h-0.296V20z M11.613,20h0.843V0h-0.843V20z M12.846,20h0.296V0h-0.296V20z
	 M14.287,20h0.296V0h-0.296V20z M15.111,20h0.296V0h-0.296V20z M15.742,20h0.844V0h-0.844V20z M17.494,20h0.843V0h-0.843V20z
	 M18.956,20h0.296V0h-0.296V20z M19.681,20h0.296V0h-0.296V20z M20.751,20h0.296V0h-0.296V20z M21.346,20h0.843V0h-0.843V20z
	 M22.761,20h0.296V0h-0.296V20z M24.366,20h0.296V0h-0.296V20z M25.107,20h0.296V0h-0.296V20z M26.225,20h0.296V0h-0.296V20z
	 M26.795,20h0.296V0h-0.296V20z M27.546,20h0.843V0h-0.843V20z M28.781,20h0.843V0h-0.843V20z M30.182,20h0.296V0h-0.296V20z
	 M31.119,20h0.296V0h-0.296V20z M31.787,20h0.843V0h-0.843V20z M33.465,20h0.296V0h-0.296V20z M34.113,20h0.296V0h-0.296V20z
	 M34.832,20h0.296V0h-0.296V20z M36.389,20h0.296V0h-0.296V20z M37.047,20h0.296V0h-0.296V20z M37.757,20H38.6V0h-0.843V20z
	 M39.157,0v20H40V0H39.157z"/>
</svg>
