<?xml version="1.0" encoding="utf-8"?>
<!-- Generator: Adobe Illustrator 16.0.0, SVG Export Plug-In . SVG Version: 6.00 Build 0)  -->
<!DOCTYPE svg PUBLIC "-//W3C//DTD SVG 1.1//EN" "http://www.w3.org/Graphics/SVG/1.1/DTD/svg11.dtd">
<svg version="1.1" id="Layer_1" xmlns="http://www.w3.org/2000/svg" xmlns:xlink="http://www.w3.org/1999/xlink" x="0px" y="0px"
	 width="40px" height="40px" viewBox="0 0 40 40" enable-background="new 0 0 40 40" xml:space="preserve">
<path d="M20,15.515c-1.189,0-2.271,0.465-3.074,1.222c-0.868,0.818-1.411,1.979-1.411,3.263c0,1.174,0.453,2.243,1.193,3.044
	c0.82,0.886,1.992,1.44,3.292,1.44c1.331,0,2.528-0.583,3.351-1.507c0.705-0.793,1.134-1.836,1.134-2.978
	c0-1.509-0.749-2.847-1.896-3.661C21.857,15.82,20.964,15.515,20,15.515z M20,22.124c-0.585,0-1.116-0.238-1.501-0.622
	c-0.385-0.385-0.623-0.916-0.623-1.502c0-0.585,0.238-1.116,0.623-1.501s0.916-0.623,1.501-0.623c0.526,0,1.008,0.192,1.379,0.51
	c0.456,0.39,0.745,0.969,0.745,1.614c0,0.616-0.265,1.173-0.686,1.561C21.061,21.91,20.555,22.124,20,22.124z M38.428,12.215
	c-0.479-1.133-1.056-2.211-1.728-3.228c-0.74-1.121-1.595-2.167-2.558-3.129C33.224,4.94,32.23,4.12,31.168,3.404
	c-1.062-0.716-2.191-1.328-3.383-1.832c-0.795-0.336-1.605-0.619-2.43-0.848C23.622,0.243,21.83,0,20,0
	c-1.674,0-3.316,0.203-4.911,0.606c-0.978,0.247-1.937,0.569-2.875,0.966c-1.662,0.703-3.206,1.617-4.611,2.729
	C6.995,4.784,6.413,5.303,5.858,5.858C5.06,6.657,4.335,7.513,3.689,8.421c-0.839,1.18-1.548,2.448-2.118,3.794
	c-0.261,0.617-0.489,1.243-0.686,1.877C0.297,15.996,0,17.976,0,20c0,1.596,0.185,3.162,0.551,4.686
	c0.253,1.056,0.594,2.09,1.021,3.1c0.463,1.096,1.019,2.14,1.662,3.127c0.755,1.159,1.632,2.239,2.625,3.23
	c0.918,0.918,1.912,1.737,2.974,2.453c1.062,0.716,2.192,1.328,3.383,1.832c0.742,0.313,1.498,0.581,2.265,0.802
	C16.264,39.741,18.112,40,20,40c1.242,0,2.467-0.112,3.667-0.335c1.409-0.261,2.786-0.674,4.118-1.237
	c0.896-0.379,1.757-0.818,2.58-1.317c1.368-0.829,2.632-1.822,3.777-2.968c0.836-0.837,1.59-1.736,2.259-2.692
	c0.8-1.144,1.478-2.368,2.026-3.665c0.231-0.548,0.438-1.104,0.618-1.666C39.68,24.15,40,22.101,40,20
	c0-1.698-0.209-3.364-0.624-4.98C39.131,14.066,38.814,13.13,38.428,12.215z M20,37.639c-2.793,0-5.437-0.652-7.787-1.813
	c-2.061-1.019-3.896-2.428-5.406-4.13c-1.436-1.618-2.58-3.501-3.347-5.564C2.75,24.222,2.361,22.155,2.361,20
	c0-3.083,0.795-5.983,2.19-8.507C5.53,9.721,6.806,8.135,8.31,6.801c1.214-1.077,2.578-1.989,4.055-2.701
	C14.677,2.985,17.267,2.361,20,2.361c2.694,0,5.25,0.607,7.536,1.692c1.651,0.784,3.163,1.817,4.485,3.05
	c1.468,1.369,2.702,2.984,3.637,4.78c1.265,2.431,1.98,5.192,1.98,8.117c0,1.617-0.219,3.185-0.628,4.673
	c-0.549,1.996-1.44,3.851-2.607,5.498c-1.553,2.193-3.593,4.018-5.962,5.313C25.933,36.857,23.056,37.639,20,37.639z M23.255,12.295
	c-1.019-0.432-2.116-0.658-3.255-0.658c-1.139,0-2.236,0.227-3.255,0.658c-0.998,0.422-1.894,1.029-2.657,1.792
	c-0.764,0.763-1.37,1.66-1.792,2.657c-0.432,1.019-0.659,2.116-0.659,3.255c0,1.14,0.227,2.235,0.659,3.255
	c0.422,0.998,1.029,1.895,1.792,2.657c0.763,0.764,1.66,1.37,2.657,1.792c1.019,0.432,2.116,0.658,3.255,0.658
	c1.139,0,2.236-0.227,3.255-0.658c0.998-0.422,1.894-1.029,2.657-1.792c0.764-0.765,1.37-1.66,1.792-2.658
	c0.433-1.019,0.659-2.116,0.659-3.255c0-1.139-0.227-2.236-0.659-3.255c-0.422-0.998-1.029-1.894-1.792-2.657
	C25.148,13.324,24.253,12.717,23.255,12.295z M20,26.003c-1.574,0-3.009-0.608-4.081-1.604c-1.182-1.097-1.922-2.663-1.922-4.399
	c0-1.78,0.778-3.381,2.013-4.481c1.062-0.946,2.46-1.522,3.99-1.522c1.403,0,2.695,0.483,3.718,1.293
	c1.391,1.101,2.285,2.803,2.285,4.71c0,1.655-0.673,3.156-1.76,4.243S21.655,26.003,20,26.003z M26.275,5.146
	C24.292,4.307,22.18,3.879,20,3.879c-2.179,0-4.292,0.428-6.275,1.268c-1.92,0.812-3.645,1.976-5.124,3.455
	s-2.642,3.203-3.455,5.124C4.307,15.708,3.879,17.821,3.879,20c0,2.18,0.428,4.292,1.268,6.275c0.813,1.92,1.976,3.645,3.455,5.123
	c0.524,0.524,1.08,1.01,1.663,1.453c1.063,0.808,2.221,1.479,3.461,2.002c1.984,0.84,4.096,1.269,6.275,1.269
	c2.179,0,4.292-0.429,6.274-1.269c1.92-0.812,3.646-1.976,5.125-3.455c1.479-1.479,2.642-3.203,3.455-5.123
	c0.838-1.984,1.268-4.096,1.268-6.275c0-2.179-0.428-4.292-1.268-6.275c-0.813-1.92-1.977-3.645-3.455-5.124
	C29.92,7.122,28.195,5.958,26.275,5.146z M20,33.76c-1.625,0-3.186-0.283-4.635-0.803c-1.662-0.597-3.176-1.504-4.473-2.651
	C9.427,29.01,8.24,27.407,7.431,25.6C6.666,23.888,6.24,21.993,6.24,20c0-2.401,0.618-4.66,1.704-6.627
	c0.666-1.205,1.506-2.301,2.488-3.252c1.505-1.458,3.341-2.577,5.383-3.23C17.135,6.468,18.541,6.24,20,6.24
	c2.471,0,4.792,0.655,6.799,1.8c1.036,0.591,1.989,1.313,2.835,2.144c1.591,1.562,2.805,3.505,3.491,5.681
	C33.537,17.171,33.76,18.56,33.76,20c0,1.172-0.147,2.31-0.424,3.396c-0.396,1.552-1.056,2.999-1.93,4.291
	c-1.119,1.655-2.589,3.055-4.302,4.092C25.029,33.036,22.598,33.76,20,33.76z M24.766,8.721C23.264,8.085,21.659,7.758,20,7.758
	s-3.264,0.327-4.766,0.963c-1.458,0.617-2.769,1.502-3.89,2.624c-1.121,1.122-2.006,2.432-2.624,3.89
	C8.085,16.736,7.758,18.341,7.758,20s0.327,3.264,0.963,4.766c0.617,1.459,1.502,2.77,2.624,3.891
	c1.122,1.121,2.432,2.006,3.89,2.624c1.502,0.636,3.106,0.963,4.766,0.963s3.265-0.327,4.767-0.963
	c1.457-0.617,2.769-1.503,3.89-2.624c1.12-1.121,2.006-2.432,2.624-3.891c0.636-1.502,0.963-3.105,0.963-4.766
	s-0.327-3.264-0.963-4.766c-0.617-1.458-1.502-2.769-2.624-3.89C27.535,10.223,26.225,9.338,24.766,8.721z M20,29.882
	c-1.371,0-2.678-0.28-3.866-0.788c-1.048-0.447-2.004-1.07-2.83-1.832c-1.174-1.083-2.085-2.446-2.627-3.983
	c-0.362-1.026-0.559-2.13-0.559-3.278c0-1.854,0.513-3.589,1.404-5.073c0.676-1.125,1.569-2.105,2.621-2.882
	c0.802-0.592,1.696-1.065,2.657-1.395c1.004-0.344,2.081-0.531,3.2-0.531c0.842,0,1.659,0.106,2.44,0.305
	c1.114,0.284,2.153,0.757,3.081,1.384c1.272,0.86,2.334,2.009,3.092,3.351c0.808,1.432,1.269,3.083,1.269,4.841
	c0,1.063-0.169,2.089-0.481,3.05c-0.247,0.758-0.583,1.476-0.995,2.142c-0.741,1.196-1.73,2.224-2.896,3.009
	C23.934,29.262,22.038,29.882,20,29.882z"/>
</svg>
