<?xml version="1.0" encoding="utf-8"?>
<svg version="1.1" id="Layer_2" xmlns="http://www.w3.org/2000/svg" xmlns:xlink="http://www.w3.org/1999/xlink" x="0px" y="0px"
	 width="40px" height="38px" viewBox="0 0 40 38" enable-background="new 0 0 40 38" xml:space="preserve">
<path d="M40,15.213c0-1.67-0.362-3.151-1.235-4.579c-0.465-0.761-1.152-1.488-1.555-2.237c-0.264-0.49-0.276-0.909-0.171-1.452
	l0.465-2.387l-2.422,0.28c-1.446,0.167-2.349-0.101-2.546-1.674l-0.274-2.197l-2.092,0.74c-0.69,0.244-1.283,0.316-1.998,0.146
	c-0.892-0.213-1.853-0.697-2.728-1.013C23.874,0.273,22.361,0,20.687,0c-1.745,0-3.34,0.261-4.992,0.811
	c-0.964,0.321-1.982,0.796-2.96,1.024c-0.839,0.196-1.541,0.128-2.359-0.14l-2.04-0.669L8.049,3.147
	C7.902,4.244,7.428,4.712,6.358,4.843C5.955,4.892,5.536,4.88,5.132,4.837l-2.44-0.261l0.503,2.395
	c0.101,0.48,0.101,0.863-0.133,1.3C2.897,8.58,2.655,8.878,2.435,9.151c-0.357,0.441-0.712,0.871-1.031,1.342
	C0.422,11.945,0,13.462,0,15.213C0,16.592,0.263,17.828,0.855,19C0.263,20.172,0,21.408,0,22.787c0,1.75,0.422,3.268,1.404,4.72
	c0.318,0.471,0.674,0.9,1.031,1.341c0.221,0.273,0.462,0.572,0.628,0.881c0.233,0.437,0.234,0.82,0.133,1.3l-0.503,2.395l2.44-0.261
	c0.404-0.043,0.823-0.056,1.226-0.006c1.07,0.131,1.543,0.599,1.691,1.695l0.286,2.122l2.04-0.669
	c0.818-0.268,1.52-0.335,2.359-0.14c0.978,0.228,1.996,0.703,2.96,1.024C17.346,37.739,18.942,38,20.687,38
	c1.674,0,3.188-0.273,4.757-0.841c0.875-0.316,1.836-0.8,2.728-1.013c0.714-0.17,1.308-0.097,1.998,0.146l2.092,0.74l0.274-2.196
	c0.197-1.573,1.1-1.841,2.546-1.674l2.422,0.279l-0.465-2.386c-0.105-0.543-0.093-0.962,0.171-1.452
	c0.403-0.749,1.089-1.476,1.555-2.237C39.638,25.938,40,24.457,40,22.787c0-1.362-0.241-2.602-0.806-3.787
	C39.759,17.814,40,16.575,40,15.213z M38.811,22.787c0,1.451-0.302,2.72-1.061,3.961c-0.267,0.437-0.572,0.839-0.879,1.247
	c-0.252,0.334-0.509,0.677-0.708,1.047c-0.396,0.735-0.45,1.424-0.291,2.239l0.155,0.795l-0.807-0.093
	c-0.652-0.075-1.361-0.068-1.993,0.132c-1.215,0.385-1.72,1.367-1.871,2.573l-0.091,0.732l-0.698-0.246
	c-0.908-0.321-1.731-0.407-2.671-0.182c-0.452,0.107-0.891,0.273-1.322,0.445c-0.512,0.205-1.018,0.419-1.536,0.607
	c-1.44,0.521-2.816,0.77-4.352,0.77c-1.617,0-3.085-0.24-4.616-0.749c-0.554-0.185-1.095-0.396-1.642-0.6
	c-0.466-0.173-0.938-0.341-1.423-0.454c-1.054-0.246-1.975-0.168-3.001,0.168l-0.68,0.223l-0.095-0.707
	c-0.221-1.637-1.118-2.518-2.726-2.714c-0.494-0.061-1.003-0.049-1.498,0.004l-0.813,0.087l0.168-0.798
	c0.159-0.756,0.12-1.414-0.248-2.101c-0.204-0.382-0.48-0.732-0.752-1.068c-0.334-0.414-0.671-0.818-0.97-1.26
	c-0.849-1.255-1.201-2.542-1.201-4.057c0-1.405,0.304-2.616,1.027-3.787c-0.724-1.171-1.027-2.382-1.027-3.787
	c0-1.514,0.352-2.801,1.201-4.057c0.299-0.442,0.636-0.846,0.97-1.26C3.632,9.56,3.909,9.21,4.112,8.828
	c0.367-0.687,0.406-1.344,0.248-2.1L4.192,5.929l0.813,0.087C5.5,6.069,6.009,6.081,6.503,6.02c1.608-0.197,2.505-1.078,2.726-2.714
	l0.095-0.707l0.68,0.223c1.026,0.336,1.947,0.414,3.001,0.168c0.485-0.113,0.957-0.28,1.423-0.454
	c0.546-0.204,1.088-0.416,1.642-0.6c1.531-0.509,3-0.749,4.616-0.749c1.536,0,2.912,0.249,4.352,0.77
	c0.518,0.188,1.024,0.402,1.536,0.607c0.431,0.172,0.87,0.337,1.322,0.445c0.94,0.224,1.763,0.139,2.671-0.183l0.698-0.246
	l0.091,0.732c0.151,1.207,0.655,2.188,1.871,2.573c0.631,0.2,1.34,0.207,1.993,0.132l0.807-0.093l-0.155,0.795
	c-0.159,0.814-0.105,1.504,0.291,2.24c0.199,0.37,0.456,0.712,0.708,1.046c0.308,0.408,0.612,0.811,0.879,1.247
	c0.759,1.241,1.061,2.51,1.061,3.961c0,1.382-0.275,2.601-0.958,3.787C38.536,20.186,38.811,21.405,38.811,22.787z M37.453,11.41
	c-0.262-0.427-0.561-0.822-0.862-1.222c-0.257-0.341-0.517-0.688-0.719-1.064c-0.414-0.771-0.475-1.5-0.308-2.353l0.103-0.527
	l-0.534,0.062c-0.676,0.078-1.406,0.068-2.06-0.139c-1.283-0.406-1.833-1.442-1.993-2.718l-0.061-0.484l-0.461,0.163
	c-0.938,0.332-1.793,0.418-2.764,0.187c-0.458-0.109-0.903-0.276-1.34-0.451c-0.506-0.202-1.006-0.415-1.518-0.6
	c-1.408-0.51-2.751-0.753-4.253-0.753c-1.584,0-3.021,0.235-4.52,0.734c-0.548,0.182-1.083,0.391-1.624,0.593
	c-0.471,0.175-0.947,0.344-1.437,0.458c-1.082,0.252-2.033,0.174-3.086-0.172l-0.45-0.147L9.502,3.446
	C9.271,5.159,8.31,6.104,6.625,6.309C6.119,6.371,5.6,6.359,5.093,6.306L4.555,6.248l0.111,0.528
	c0.167,0.796,0.122,1.495-0.264,2.218c-0.209,0.391-0.489,0.747-0.767,1.091c-0.329,0.406-0.66,0.803-0.953,1.237
	c-0.821,1.214-1.159,2.453-1.159,3.917c0,1.4,0.31,2.596,1.055,3.76c-0.746,1.164-1.055,2.359-1.055,3.76
	c0,1.463,0.338,2.703,1.159,3.917c0.293,0.434,0.625,0.831,0.953,1.237c0.278,0.344,0.558,0.7,0.767,1.091
	c0.386,0.724,0.432,1.422,0.264,2.218l-0.111,0.528l0.538-0.058c0.506-0.054,1.026-0.065,1.532-0.003
	c1.685,0.206,2.646,1.15,2.877,2.863l0.063,0.468l0.45-0.147c1.053-0.345,2.004-0.424,3.086-0.171
	c0.49,0.114,0.966,0.282,1.437,0.458c0.541,0.201,1.076,0.41,1.624,0.593c1.499,0.499,2.936,0.734,4.52,0.734
	c1.502,0,2.845-0.244,4.253-0.753c0.512-0.185,1.012-0.397,1.518-0.6c0.437-0.175,0.881-0.342,1.34-0.451
	c0.97-0.231,1.826-0.145,2.764,0.187l0.461,0.164l0.061-0.485c0.16-1.275,0.71-2.312,1.993-2.717
	c0.654-0.207,1.384-0.217,2.06-0.139l0.534,0.062l-0.103-0.527c-0.167-0.854-0.106-1.583,0.308-2.353
	c0.203-0.376,0.462-0.724,0.719-1.064c0.301-0.399,0.601-0.794,0.862-1.222c0.734-1.201,1.024-2.426,1.024-3.83
	c0-1.376-0.279-2.582-0.982-3.76c0.704-1.179,0.982-2.384,0.982-3.76C38.477,13.836,38.187,12.611,37.453,11.41z"/>
</svg>
