<?xml version="1.0" encoding="utf-8"?>
<!-- Generator: Adobe Illustrator 16.0.0, SVG Export Plug-In . SVG Version: 6.00 Build 0)  -->
<!DOCTYPE svg PUBLIC "-//W3C//DTD SVG 1.1//EN" "http://www.w3.org/Graphics/SVG/1.1/DTD/svg11.dtd">
<svg version="1.1" id="Layer_3" xmlns="http://www.w3.org/2000/svg" xmlns:xlink="http://www.w3.org/1999/xlink" x="0px" y="0px"
	 width="40px" height="40px" viewBox="0 0 40 40" enable-background="new 0 0 40 40" xml:space="preserve">
<path d="M19.11,35.057V21.693L8.104,29.262c1.383,1.772,3.154,3.229,5.183,4.242C15.059,34.389,17.028,34.934,19.11,35.057z
	 M4.917,20c0,2.852,0.795,5.52,2.176,7.797l12.017-8.265V4.944c-4.74,0.277-8.898,2.753-11.469,6.419
	C5.925,13.812,4.917,16.79,4.917,20z M20.891,4.944v14.587l12.017,8.265c1.38-2.276,2.176-4.946,2.176-7.797
	c0-3.505-1.202-6.734-3.214-9.297C29.275,7.402,25.339,5.205,20.891,4.944z M20,0c-4.944,0-9.47,1.794-12.96,4.767
	C2.732,8.436,0,13.899,0,20c0,5.661,2.352,10.771,6.131,14.411C9.727,37.872,14.615,40,20,40c5.404,0,10.309-2.143,13.907-5.626
	C37.664,30.738,40,25.643,40,20c0-5.605-2.307-10.673-6.021-14.304c-1.401-1.37-3.004-2.535-4.758-3.448C26.461,0.812,23.325,0,20,0
	z M32.837,32.837c-1.667,1.667-3.608,2.976-5.771,3.89c-2.238,0.947-4.616,1.428-7.066,1.428c-1.225,0-2.432-0.12-3.612-0.359
	c-1.181-0.238-2.335-0.595-3.455-1.068c-2.162-0.914-4.103-2.223-5.77-3.89s-2.976-3.608-3.89-5.771
	C2.326,24.828,1.846,22.45,1.846,20s0.48-4.828,1.427-7.067c0.914-2.162,2.223-4.103,3.89-5.77s3.608-2.976,5.77-3.89
	C15.172,2.326,17.55,1.846,20,1.846c1.168,0,2.319,0.109,3.447,0.326c1.238,0.238,2.448,0.605,3.619,1.101
	c0.194,0.082,0.387,0.167,0.577,0.256c1.932,0.896,3.676,2.117,5.193,3.634c1.667,1.667,2.976,3.608,3.89,5.77
	c0.947,2.239,1.428,4.617,1.428,7.067s-0.48,4.828-1.428,7.066C35.813,29.229,34.503,31.17,32.837,32.837z M20.891,35.057
	c2.305-0.136,4.475-0.791,6.389-1.851c1.793-0.992,3.363-2.338,4.617-3.944l-11.006-7.568V35.057z"/>
</svg>
