<?xml version="1.0" encoding="utf-8"?>
<svg version="1.1" id="Layer_2" xmlns="http://www.w3.org/2000/svg" xmlns:xlink="http://www.w3.org/1999/xlink" x="0px" y="0px"
	 width="40px" height="33px" viewBox="0 0 40 33" enable-background="new 0 0 40 33" xml:space="preserve">
<path d="M39.816,6.539l-4.889-5.856l-4.853,5.856H39.816z M32.343,0h-9.716l4.926,5.781L32.343,0z M25.013,6.539l-5.019-5.891
	l-5.091,5.891H25.013z M17.348,0H7.583l4.765,5.785L17.348,0z M5.01,0.691L0.169,6.539h9.657L5.01,0.691z M0,8.966l17.319,23.352
	L11.405,8.966H0z M13.905,8.966L19.992,33l6.001-24.034H13.905z M28.49,8.966l-5.841,23.396L40,8.966H28.49z"/>
</svg>
