<?xml version="1.0" encoding="utf-8"?>
<svg version="1.1" id="Layer_2" xmlns="http://www.w3.org/2000/svg" xmlns:xlink="http://www.w3.org/1999/xlink" x="0px" y="0px"
	 width="40px" height="40px" viewBox="0 0 40 40" enable-background="new 0 0 40 40" xml:space="preserve">
<path d="M39.981,19.949l-0.023-0.044c-0.184-0.355-0.411-0.66-0.668-0.923c0.224-0.284,0.417-0.602,0.561-0.968l0.017-0.052
	l0.014-0.053l-0.023-0.043l-0.027-0.042c-0.191-0.29-0.412-0.538-0.651-0.751c0.168-0.28,0.307-0.587,0.404-0.926l0.013-0.053
	l0.008-0.055l-0.028-0.041l-0.031-0.04c-0.193-0.24-0.406-0.442-0.631-0.62c0.116-0.256,0.21-0.531,0.268-0.828l0.008-0.054
	l0.004-0.055l-0.031-0.038l-0.034-0.036c-0.215-0.226-0.447-0.413-0.69-0.57c0.098-0.276,0.171-0.569,0.205-0.883l0.003-0.054
	l-0.001-0.055l-0.034-0.035l-0.037-0.033c-0.283-0.25-0.585-0.446-0.9-0.595c0.097-0.329,0.158-0.676,0.16-1.047l-0.002-0.055
	l-0.006-0.055l-0.038-0.032l-0.041-0.029c-0.331-0.238-0.678-0.406-1.032-0.524c0.076-0.37,0.104-0.759,0.063-1.167l-0.007-0.054
	l-0.013-0.054l-0.041-0.028l-0.043-0.025c-0.345-0.195-0.697-0.326-1.053-0.407c0.032-0.358,0.021-0.728-0.058-1.11L35.55,7.461
	l-0.018-0.052l-0.043-0.023l-0.045-0.02c-0.361-0.158-0.723-0.248-1.083-0.292c-0.005-0.366-0.06-0.74-0.181-1.119l-0.019-0.051
	l-0.023-0.05l-0.045-0.019L34.045,5.82c-0.326-0.104-0.647-0.156-0.963-0.174c-0.044-0.309-0.126-0.621-0.257-0.932l-0.023-0.049
	l-0.028-0.047l-0.047-0.015l-0.049-0.011c-0.307-0.067-0.607-0.092-0.899-0.086c-0.074-0.286-0.177-0.571-0.326-0.852l-0.027-0.047
	l-0.032-0.045l-0.048-0.01l-0.05-0.006c-0.329-0.042-0.645-0.039-0.95-0.002c-0.098-0.289-0.231-0.573-0.41-0.849L29.903,2.65
	l-0.035-0.042l-0.049-0.006L29.769,2.6c-0.344-0.013-0.67,0.021-0.982,0.09c-0.129-0.294-0.294-0.58-0.51-0.852l-0.036-0.041
	l-0.04-0.039l-0.049-0.001l-0.05,0.003c-0.37,0.02-0.715,0.091-1.039,0.202c-0.16-0.299-0.359-0.585-0.615-0.85l-0.04-0.037
	L26.366,1.04l-0.049,0.003l-0.049,0.008c-0.356,0.055-0.684,0.158-0.987,0.295c-0.188-0.276-0.415-0.535-0.69-0.77l-0.043-0.034
	L24.5,0.513l-0.048,0.008l-0.048,0.013c-0.441,0.113-0.832,0.294-1.179,0.523c-0.014-0.012-0.029-0.022-0.044-0.031
	c0.006-0.003,0.012-0.006,0.018-0.009c-0.246-0.317-0.541-0.606-0.906-0.85l-0.047-0.028l-0.049-0.025l-0.047,0.014l-0.046,0.018
	c-0.396,0.153-0.741,0.361-1.043,0.606c-0.273-0.274-0.59-0.517-0.964-0.71l-0.05-0.023L19.995,0l-0.046,0.019l-0.044,0.023
	c-0.297,0.153-0.556,0.338-0.788,0.544c-0.251-0.188-0.53-0.353-0.844-0.48l-0.051-0.019l-0.053-0.014l-0.043,0.023l-0.042,0.027
	c-0.271,0.173-0.507,0.373-0.713,0.589c-0.252-0.149-0.526-0.276-0.827-0.369L16.489,0.33l-0.055-0.01l-0.042,0.027l-0.039,0.03
	c-0.283,0.218-0.519,0.462-0.718,0.725c-0.294-0.151-0.614-0.27-0.966-0.343l-0.053-0.009l-0.055-0.004l-0.039,0.031l-0.037,0.034
	c-0.291,0.271-0.518,0.571-0.701,0.888c-0.336-0.138-0.699-0.234-1.092-0.272L12.64,1.424l-0.055,0.001L12.549,1.46l-0.033,0.038
	c-0.251,0.291-0.446,0.6-0.593,0.921c-0.34-0.1-0.7-0.161-1.086-0.16l-0.054,0.002l-0.055,0.007l-0.032,0.038l-0.028,0.041
	c-0.22,0.312-0.376,0.638-0.489,0.97C9.836,3.257,9.477,3.241,9.101,3.28L9.047,3.289L8.993,3.301L8.965,3.342L8.941,3.386
	C8.735,3.753,8.604,4.129,8.527,4.508c-0.388-0.04-0.789-0.03-1.206,0.061L7.269,4.583L7.217,4.601L7.193,4.645L7.174,4.69
	C7.039,5.01,6.957,5.329,6.912,5.646C6.598,5.664,6.279,5.717,5.955,5.82L5.904,5.838l-0.05,0.023L5.835,5.907L5.82,5.955
	c-0.105,0.33-0.158,0.656-0.175,0.976C5.32,6.975,4.994,7.059,4.667,7.198L4.618,7.221L4.57,7.249L4.556,7.296l-0.01,0.049
	C4.479,7.647,4.454,7.942,4.46,8.229c-0.27,0.073-0.538,0.172-0.802,0.313L3.611,8.57L3.566,8.602L3.556,8.65L3.549,8.699
	C3.501,9.064,3.508,9.416,3.557,9.752c-0.331,0.103-0.656,0.249-0.97,0.457l-0.043,0.032l-0.042,0.036l-0.006,0.049l-0.001,0.05
	c-0.013,0.416,0.044,0.805,0.148,1.172c0.001,0,0.002-0.001,0.003-0.002c0.007,0.048,0.016,0.095,0.026,0.142
	c-0.387,0.15-0.759,0.365-1.105,0.659l-0.04,0.037L1.49,12.424l0,0.049l0.004,0.05c0.028,0.317,0.096,0.613,0.191,0.894
	c-0.259,0.157-0.507,0.344-0.736,0.577l-0.036,0.04L0.88,14.077l0.005,0.049l0.009,0.049c0.064,0.363,0.181,0.694,0.33,1
	c-0.271,0.195-0.525,0.428-0.753,0.709l-0.032,0.044l-0.029,0.047l0.009,0.048l0.014,0.047c0.105,0.373,0.258,0.707,0.447,1.009
	c-0.275,0.231-0.527,0.502-0.74,0.83l-0.028,0.046l-0.024,0.05l0.014,0.047l0.019,0.046c0.139,0.352,0.324,0.659,0.538,0.934
	c-0.236,0.251-0.444,0.54-0.616,0.871l-0.023,0.049L0,20.005l0.019,0.045l0.023,0.044c0.183,0.354,0.408,0.657,0.663,0.919
	c-0.229,0.287-0.426,0.61-0.572,0.983l-0.018,0.051l-0.013,0.054l0.023,0.043l0.027,0.042c0.193,0.293,0.417,0.541,0.66,0.755
	c-0.164,0.276-0.3,0.578-0.396,0.912l-0.012,0.053l-0.008,0.055l0.027,0.041l0.031,0.039c0.192,0.239,0.404,0.441,0.628,0.617
	c-0.12,0.261-0.216,0.539-0.275,0.842l-0.008,0.053l-0.003,0.055l0.031,0.039l0.035,0.036c0.216,0.228,0.45,0.416,0.696,0.574
	c-0.096,0.272-0.167,0.56-0.2,0.869L1.354,27.18l0.001,0.055l0.034,0.036l0.038,0.033c0.282,0.249,0.583,0.444,0.896,0.593
	c-0.1,0.333-0.161,0.684-0.164,1.061l0.002,0.054l0.006,0.055l0.038,0.032l0.041,0.029c0.332,0.239,0.68,0.407,1.037,0.525
	c-0.074,0.366-0.101,0.751-0.06,1.156l0.008,0.054l0.012,0.054l0.041,0.028l0.043,0.025c0.343,0.195,0.695,0.325,1.049,0.406
	c-0.033,0.362-0.022,0.735,0.057,1.123l0.014,0.053l0.018,0.052l0.043,0.023l0.046,0.02c0.362,0.159,0.726,0.249,1.086,0.291
	c0.006,0.363,0.062,0.733,0.181,1.108l0.019,0.051l0.023,0.05l0.045,0.019l0.048,0.015c0.323,0.103,0.643,0.156,0.957,0.173
	c0.044,0.313,0.126,0.628,0.259,0.943l0.023,0.049l0.028,0.047l0.047,0.015l0.049,0.011c0.31,0.068,0.612,0.093,0.906,0.085
	c0.073,0.283,0.177,0.565,0.324,0.842l0.028,0.047l0.032,0.045l0.048,0.01l0.049,0.006c0.327,0.042,0.642,0.039,0.946,0.003
	c0.098,0.291,0.229,0.577,0.41,0.854l0.032,0.044l0.036,0.042l0.049,0.006l0.05,0.002c0.347,0.014,0.674-0.023,0.987-0.094
	c0.128,0.293,0.294,0.579,0.509,0.85l0.036,0.041l0.04,0.039l0.049,0.001l0.05-0.003c0.368-0.02,0.712-0.091,1.035-0.201
	c0.16,0.298,0.359,0.584,0.615,0.848l0.039,0.038l0.043,0.034l0.049-0.003l0.049-0.007c0.357-0.055,0.684-0.161,0.988-0.298
	c0.189,0.277,0.417,0.538,0.693,0.773l0.043,0.034l0.046,0.03l0.049-0.008l0.048-0.013c0.443-0.113,0.833-0.297,1.182-0.527
	c0.25,0.329,0.551,0.629,0.928,0.88l0.046,0.028l0.049,0.024l0.047-0.014l0.047-0.018c0.388-0.149,0.725-0.353,1.023-0.59
	c0.005-0.002,0.01-0.005,0.015-0.008c0.273,0.277,0.594,0.521,0.971,0.716l0.049,0.023L20.005,40l0.045-0.019l0.044-0.023
	c0.302-0.156,0.566-0.345,0.802-0.556c0.248,0.185,0.521,0.345,0.83,0.471l0.051,0.019l0.053,0.014l0.043-0.023l0.042-0.027
	c0.266-0.17,0.496-0.364,0.698-0.576c0.257,0.153,0.536,0.283,0.843,0.378l0.053,0.014l0.054,0.009l0.042-0.026l0.04-0.03
	c0.276-0.213,0.507-0.452,0.704-0.708c0.285,0.143,0.592,0.256,0.929,0.326l0.054,0.008l0.055,0.004l0.039-0.031l0.036-0.034
	c0.296-0.276,0.528-0.583,0.712-0.906c0.347,0.147,0.722,0.25,1.13,0.29l0.054,0.003l0.055-0.002l0.035-0.034l0.033-0.038
	c0.247-0.285,0.439-0.589,0.585-0.904c0.328,0.092,0.674,0.148,1.043,0.147l0.055-0.002l0.054-0.007l0.032-0.038l0.029-0.041
	c0.222-0.317,0.381-0.647,0.495-0.985c0.356,0.067,0.73,0.087,1.123,0.046l0.054-0.008l0.054-0.013l0.028-0.041l0.024-0.044
	c0.204-0.363,0.334-0.735,0.412-1.11c0.373,0.034,0.758,0.021,1.157-0.066l0.053-0.014l0.052-0.019l0.023-0.043l0.02-0.046
	c0.136-0.32,0.22-0.641,0.266-0.959c0.329-0.015,0.665-0.069,1.004-0.177l0.051-0.019l0.05-0.023l0.019-0.045l0.015-0.048
	c0.105-0.33,0.159-0.656,0.175-0.977c0.308-0.045,0.619-0.127,0.928-0.258l0.049-0.023l0.048-0.028l0.014-0.047l0.011-0.048
	c0.065-0.301,0.09-0.593,0.085-0.879c0.286-0.073,0.571-0.177,0.852-0.326l0.047-0.027l0.045-0.032l0.01-0.048l0.007-0.049
	c0.047-0.368,0.041-0.722-0.009-1.061c0.315-0.102,0.625-0.243,0.924-0.441l0.044-0.032l0.042-0.036l0.005-0.049l0.002-0.05
	c0.013-0.439-0.049-0.851-0.165-1.236c-0.003,0.002-0.006,0.004-0.009,0.006c0-0.004,0-0.009,0-0.013
	c-0.001-0.006-0.002-0.011-0.003-0.017c-0.001-0.014-0.004-0.027-0.007-0.04c0.406-0.151,0.796-0.372,1.158-0.679l0.04-0.037
	l0.037-0.041l0-0.049l-0.004-0.05c-0.029-0.321-0.098-0.621-0.194-0.905c0.247-0.152,0.483-0.334,0.702-0.557l0.037-0.041
	l0.034-0.044l-0.005-0.049l-0.009-0.049c-0.064-0.357-0.176-0.684-0.321-0.987c0.282-0.199,0.545-0.439,0.781-0.731l0.032-0.043
	l0.029-0.047l-0.01-0.048l-0.014-0.048c-0.106-0.375-0.261-0.712-0.453-1.017c0.267-0.228,0.512-0.492,0.72-0.812l0.028-0.047
	l0.024-0.05l-0.015-0.047l-0.018-0.046c-0.138-0.347-0.319-0.652-0.529-0.925c0.242-0.255,0.457-0.55,0.632-0.889l0.023-0.049
	L40,19.995L39.981,19.949z M39.323,17.973c-0.106,0.252-0.239,0.479-0.391,0.686c-0.227-0.183-0.469-0.342-0.724-0.477
	c0.254-0.208,0.488-0.443,0.693-0.706C39.054,17.624,39.195,17.788,39.323,17.973z M39.055,16.155
	c-0.244,0.775-0.724,1.363-1.306,1.812c-0.756-0.313-1.57-0.46-2.305-0.519c-0.036-0.219-0.076-0.437-0.121-0.652
	c0.792-0.382,1.642-0.921,2.288-1.656C38.147,15.349,38.646,15.671,39.055,16.155z M35.51,17.891c0.58,0.051,1.204,0.164,1.796,0.38
	c-0.539,0.33-1.128,0.563-1.688,0.729C35.595,18.627,35.559,18.257,35.51,17.891z M37.233,21.754
	c-0.571,0.2-1.167,0.306-1.724,0.355c0.046-0.347,0.082-0.697,0.105-1.05C36.15,21.219,36.714,21.443,37.233,21.754z M34.788,14.864
	c0.739-0.082,1.567-0.081,2.349,0.125c-0.548,0.594-1.246,1.042-1.913,1.371C35.104,15.851,34.958,15.352,34.788,14.864z
	 M36.854,25.137c-0.703,0.14-1.429,0.13-2.085,0.055c0.146-0.414,0.275-0.834,0.386-1.263C35.74,24.232,36.349,24.629,36.854,25.137
	z M38.656,14.564c-0.038,0.172-0.09,0.335-0.151,0.491c-0.191-0.114-0.39-0.211-0.593-0.293c0.123-0.173,0.236-0.354,0.333-0.546
	C38.387,14.319,38.525,14.434,38.656,14.564z M38.124,12.973c-0.084,0.627-0.33,1.167-0.67,1.632
	c-0.94-0.271-1.947-0.267-2.819-0.162c-0.094-0.247-0.193-0.49-0.299-0.73c0.55-0.424,1.117-0.952,1.568-1.575
	C36.686,12.183,37.461,12.417,38.124,12.973z M33.699,12.427c0.511-0.148,1.074-0.262,1.648-0.29
	c-0.358,0.45-0.779,0.84-1.197,1.168C34.009,13.007,33.858,12.714,33.699,12.427z M33.946,27.112
	c0.353,0.294,0.706,0.635,1.018,1.019c-0.493-0.053-0.971-0.164-1.41-0.3C33.69,27.595,33.821,27.355,33.946,27.112z M37.328,11.204
	c-0.009,0.251-0.046,0.49-0.104,0.719c-0.34-0.114-0.689-0.182-1.041-0.214c0.165-0.279,0.304-0.574,0.407-0.886
	C36.843,10.917,37.09,11.042,37.328,11.204z M34.337,7.556c0.253,0.04,0.508,0.107,0.762,0.211c0.048,0.267,0.06,0.527,0.046,0.78
	c-0.346-0.036-0.692-0.029-1.033,0.012C34.223,8.236,34.301,7.901,34.337,7.556z M36.291,9.395c0.063,0.863-0.199,1.629-0.619,2.29
	c-0.77,0.002-1.529,0.154-2.195,0.354c-0.234-0.396-0.485-0.78-0.752-1.153c0.447-0.524,0.889-1.151,1.201-1.848
	C34.706,8.916,35.521,8.984,36.291,9.395z M31.847,9.771c0.464-0.247,0.984-0.472,1.532-0.618c-0.256,0.507-0.583,0.969-0.921,1.372
	C32.262,10.268,32.058,10.016,31.847,9.771z M33.611,31.373c-0.75-0.137-1.463-0.45-2.073-0.798c0.323-0.352,0.629-0.719,0.919-1.1
	C32.908,30.013,33.343,30.659,33.611,31.373z M32.419,5.053c0.078,0.198,0.133,0.397,0.171,0.595
	c-0.234,0.016-0.465,0.053-0.691,0.106c0.013-0.252,0.007-0.506-0.025-0.76C32.053,5,32.234,5.018,32.419,5.053z M31.848,6.241
	c0.602-0.153,1.241-0.176,1.897,0.014c0.243,0.839,0.141,1.65-0.139,2.389c-0.746,0.162-1.452,0.464-2.057,0.793
	c-0.21-0.23-0.428-0.454-0.652-0.671C31.319,8.041,31.706,7.165,31.848,6.241z M29.475,7.542c0.537-0.45,1.181-0.883,1.893-1.152
	c-0.137,0.749-0.45,1.46-0.796,2.068C30.22,8.137,29.854,7.832,29.475,7.542z M30.945,33.427c-0.545-0.263-1.042-0.61-1.471-0.969
	c0.28-0.213,0.553-0.436,0.818-0.667C30.558,32.283,30.798,32.839,30.945,33.427z M29.595,3.099c0.106,0.173,0.191,0.35,0.262,0.529
	c-0.26,0.064-0.51,0.156-0.75,0.265c-0.029-0.25-0.077-0.499-0.15-0.743C29.162,3.115,29.375,3.096,29.595,3.099z M29.14,4.383
	c0.582-0.278,1.23-0.43,1.938-0.356c0.304,0.612,0.395,1.246,0.352,1.865c-0.883,0.304-1.675,0.839-2.314,1.384
	c-0.148-0.106-0.299-0.21-0.451-0.312C28.939,6.195,29.156,5.292,29.14,4.383z M27.976,2.273c0.428,0.568,0.632,1.202,0.694,1.844
	c-0.786,0.455-1.447,1.105-1.965,1.737c-0.243-0.115-0.489-0.224-0.738-0.327c0.111-0.748,0.15-1.598,0.003-2.424
	C26.526,2.657,27.19,2.337,27.976,2.273z M26.192,1.574c0.167,0.182,0.306,0.374,0.423,0.574c-0.269,0.13-0.521,0.285-0.756,0.463
	c-0.081-0.29-0.191-0.573-0.331-0.845C25.737,1.683,25.958,1.617,26.192,1.574z M24.442,4.989c0.296-0.527,0.669-1.071,1.134-1.534
	c0.09,0.649,0.058,1.309-0.026,1.907C25.187,5.225,24.817,5.1,24.442,4.989z M24.786,36.692c-0.411-0.464-0.74-0.992-0.998-1.503
	c0.354-0.088,0.704-0.188,1.048-0.3C24.888,35.459,24.889,36.081,24.786,36.692z M24.38,1.062c0.587,0.526,0.922,1.183,1.095,1.875
	c-0.617,0.569-1.1,1.268-1.464,1.931c-0.478-0.126-0.964-0.23-1.458-0.311c-0.046-0.576-0.146-1.201-0.337-1.808
	C22.713,1.986,23.408,1.337,24.38,1.062z M21.39,1.082c0.004,0.004,0.008,0.008,0.011,0.012c0.221-0.165,0.467-0.308,0.74-0.42
	c0.251,0.177,0.466,0.38,0.65,0.6c0.001-0.001,0.003-0.002,0.004-0.003c0.015,0.025,0.03,0.05,0.046,0.075
	c-0.311,0.262-0.581,0.565-0.814,0.891c-0.168-0.404-0.384-0.792-0.66-1.142C21.375,1.09,21.382,1.085,21.39,1.082z M21.439,4.415
	c0.122-0.374,0.276-0.761,0.469-1.137c0.104,0.409,0.167,0.82,0.201,1.212C21.887,4.46,21.664,4.436,21.439,4.415z M22.109,35.51
	c-0.062,0.698-0.21,1.46-0.525,2.153c-0.433-0.627-0.715-1.351-0.9-2.027C21.165,35.615,21.64,35.573,22.109,35.51z M20,0.562
	c0.885,0.487,1.416,1.276,1.729,2.133c-0.323,0.549-0.562,1.135-0.736,1.687C20.664,4.36,20.333,4.349,20,4.349
	c-0.079,0-0.158,0.002-0.236,0.003c-0.214-0.813-0.561-1.706-1.114-2.46C18.966,1.359,19.402,0.891,20,0.562z M17.891,4.491
	c0.062-0.698,0.211-1.46,0.525-2.153c0.433,0.626,0.715,1.351,0.9,2.027C18.834,4.385,18.359,4.427,17.891,4.491z M18.561,35.585
	c-0.122,0.375-0.276,0.762-0.47,1.137c-0.104-0.409-0.166-0.821-0.201-1.212C18.113,35.54,18.336,35.564,18.561,35.585z
	 M18.225,0.632c0.195,0.085,0.375,0.188,0.542,0.301c-0.16,0.182-0.3,0.376-0.426,0.579c-0.17-0.188-0.355-0.364-0.559-0.522
	C17.917,0.861,18.063,0.741,18.225,0.632z M16.541,0.872c0.647,0.218,1.159,0.601,1.566,1.069c-0.41,0.839-0.592,1.778-0.659,2.616
	c-0.269,0.044-0.535,0.095-0.799,0.153c-0.323-0.654-0.756-1.347-1.317-1.93C15.532,2.063,15.902,1.39,16.541,0.872z M15.164,5.111
	c-0.052-0.57-0.053-1.192,0.05-1.803c0.411,0.464,0.74,0.992,0.998,1.503C15.857,4.899,15.508,5,15.164,5.111z M15.559,35.011
	c-0.296,0.527-0.67,1.071-1.134,1.534c-0.09-0.649-0.058-1.309,0.025-1.907C14.813,34.776,15.183,34.9,15.559,35.011z M14.243,1.874
	c0.133-0.207,0.29-0.404,0.476-0.588c0.23,0.054,0.443,0.132,0.644,0.226c-0.169,0.292-0.301,0.601-0.4,0.917
	c-0.296-0.253-0.623-0.473-0.982-0.644C14.07,1.81,14.158,1.838,14.243,1.874z M12.798,1.945c0.815,0.101,1.486,0.476,2.037,0.978
	c-0.167,0.791-0.167,1.607-0.095,2.333c-0.375,0.134-0.744,0.281-1.105,0.442c-0.441-0.565-0.992-1.147-1.645-1.601
	C12.039,3.34,12.266,2.591,12.798,1.945z M13.228,5.886c-0.317,0.152-0.628,0.316-0.934,0.489c-0.16-0.535-0.283-1.127-0.309-1.731
	C12.465,5.01,12.881,5.449,13.228,5.886z M10.992,2.764c0.266,0.006,0.518,0.045,0.759,0.108c-0.1,0.312-0.163,0.632-0.193,0.954
	c-0.287-0.162-0.59-0.296-0.91-0.393C10.736,3.205,10.848,2.98,10.992,2.764z M9.307,3.767c0.834-0.066,1.579,0.175,2.227,0.568
	c0,0.795,0.162,1.581,0.374,2.266c-0.35,0.212-0.691,0.438-1.022,0.675C10.339,6.81,9.681,6.351,8.95,6.037
	C8.844,5.287,8.917,4.507,9.307,3.767z M9.707,8.209C9.442,7.717,9.202,7.161,9.055,6.573c0.545,0.263,1.042,0.61,1.471,0.969
	C10.245,7.756,9.972,7.978,9.707,8.209z M10.525,32.458c-0.536,0.45-1.18,0.883-1.892,1.151c0.137-0.749,0.449-1.459,0.796-2.067
	C9.78,31.863,10.146,32.169,10.525,32.458z M7.579,5.03c0.302-0.058,0.594-0.066,0.879-0.045C8.434,5.278,8.44,5.57,8.472,5.858
	C8.127,5.748,7.77,5.672,7.403,5.647C7.441,5.442,7.498,5.236,7.579,5.03z M6.255,6.255C7.059,6.022,7.837,6.108,8.55,6.362
	c0.16,0.78,0.478,1.518,0.824,2.147C9.167,8.701,8.966,8.897,8.77,9.099C8.042,8.676,7.165,8.289,6.239,8.147
	C6.088,7.547,6.065,6.91,6.255,6.255z M7.542,10.525C7.092,9.987,6.657,9.341,6.389,8.627c0.75,0.137,1.463,0.45,2.073,0.797
	C8.139,9.777,7.833,10.145,7.542,10.525z M8.153,30.229c-0.463,0.246-0.983,0.472-1.532,0.617c0.256-0.507,0.584-0.969,0.921-1.372
	C7.738,29.732,7.942,29.984,8.153,30.229z M5.006,7.603c0.214-0.084,0.429-0.14,0.644-0.178c0.017,0.228,0.052,0.452,0.104,0.671
	C5.487,8.082,5.218,8.092,4.95,8.129C4.955,7.956,4.972,7.781,5.006,7.603z M4.03,8.917c0.611-0.303,1.243-0.394,1.86-0.352
	c0.304,0.885,0.84,1.679,1.386,2.319c-0.21,0.292-0.41,0.592-0.599,0.899c-0.603-0.193-1.285-0.347-1.984-0.385
	C4.228,10.687,3.934,9.854,4.03,8.917z M6.054,12.888c-0.353-0.294-0.705-0.635-1.017-1.019c0.492,0.053,0.971,0.164,1.409,0.3
	C6.31,12.405,6.178,12.645,6.054,12.888z M6.301,27.574c-0.511,0.147-1.073,0.261-1.647,0.289c0.358-0.449,0.778-0.839,1.196-1.167
	C5.991,26.993,6.142,27.286,6.301,27.574z M3.658,10.229c0.112,0.413,0.285,0.802,0.5,1.163c-0.336,0.012-0.672,0.056-1.001,0.14
	c-0.021-0.081-0.051-0.157-0.085-0.232c0.001-0.001,0.003-0.002,0.005-0.002c-0.053-0.24-0.083-0.49-0.082-0.752
	C3.211,10.41,3.433,10.308,3.658,10.229z M4.456,11.837c0.412,0.564,0.911,1.052,1.401,1.454c-0.17,0.358-0.328,0.724-0.471,1.097
	c-0.799-0.099-1.712-0.115-2.583,0.089c-0.41-0.515-0.707-1.125-0.79-1.845C2.745,12.041,3.604,11.834,4.456,11.837z M4.846,16.071
	c-0.586-0.303-1.194-0.7-1.699-1.208c0.702-0.14,1.429-0.13,2.084-0.055C5.086,15.222,4.957,15.643,4.846,16.071z M5.211,25.136
	c-0.738,0.082-1.567,0.08-2.348-0.125c0.548-0.593,1.245-1.042,1.912-1.37C4.896,24.149,5.042,24.648,5.211,25.136z M1.871,13.877
	c0.128,0.264,0.284,0.508,0.459,0.737c-0.238,0.081-0.471,0.181-0.695,0.303c-0.093-0.212-0.168-0.438-0.217-0.679
	C1.562,14.1,1.714,13.982,1.871,13.877z M2.646,14.992c0.609,0.655,1.376,1.151,2.095,1.515c-0.071,0.31-0.131,0.624-0.184,0.941
	c-0.715,0.057-1.505,0.197-2.244,0.493c-0.604-0.456-1.104-1.059-1.352-1.857C1.431,15.531,2.018,15.19,2.646,14.992z M4.385,18.941
	c-0.535-0.161-1.099-0.384-1.618-0.696c0.571-0.2,1.167-0.305,1.724-0.354C4.444,18.237,4.408,18.587,4.385,18.941z M4.49,22.109
	c-0.58-0.052-1.204-0.164-1.796-0.38c0.539-0.33,1.128-0.564,1.687-0.729C4.405,21.374,4.441,21.743,4.49,22.109z M0.646,18.057
	c0.154-0.223,0.329-0.415,0.517-0.584c0.205,0.252,0.435,0.479,0.685,0.679c-0.296,0.152-0.577,0.334-0.836,0.551
	C0.872,18.507,0.748,18.293,0.646,18.057z M0.562,20c0.404-0.733,1.015-1.222,1.699-1.547c0.665,0.438,1.412,0.736,2.101,0.936
	C4.354,19.591,4.349,19.795,4.349,20c0,0.185,0.004,0.369,0.011,0.552c-0.71,0.203-1.479,0.509-2.159,0.965
	C1.54,21.192,0.953,20.711,0.562,20z M0.66,22.038c0.109-0.259,0.248-0.489,0.404-0.699c0.228,0.184,0.472,0.344,0.728,0.479
	c-0.258,0.211-0.496,0.45-0.704,0.718C0.934,22.389,0.79,22.224,0.66,22.038z M0.946,23.845c0.243-0.774,0.724-1.363,1.306-1.812
	c0.756,0.312,1.569,0.459,2.305,0.518c0.036,0.219,0.076,0.437,0.121,0.652c-0.792,0.382-1.642,0.921-2.288,1.656
	C1.853,24.651,1.354,24.329,0.946,23.845z M1.333,25.447c0.04-0.177,0.093-0.345,0.158-0.505c0.192,0.115,0.393,0.213,0.598,0.296
	c-0.126,0.177-0.24,0.363-0.339,0.56C1.605,25.694,1.466,25.579,1.333,25.447z M1.876,27.027c0.084-0.628,0.33-1.168,0.67-1.633
	c0.939,0.271,1.946,0.267,2.818,0.163c0.094,0.247,0.193,0.49,0.299,0.73c-0.55,0.424-1.116,0.951-1.567,1.574
	C3.314,27.817,2.539,27.583,1.876,27.027z M3.391,29.171L3.391,29.171c-0.011-0.007-0.024-0.013-0.04-0.015
	c-0.01-0.001-0.02-0.001-0.03-0.002c-0.224-0.089-0.444-0.202-0.656-0.347c0.009-0.256,0.048-0.499,0.109-0.731
	c0.341,0.114,0.691,0.183,1.043,0.214c-0.165,0.279-0.303,0.576-0.407,0.888C3.405,29.176,3.398,29.173,3.391,29.171z M5.661,32.458
	c-0.003-0.001-0.005-0.002-0.006-0.003c-0.011-0.004-0.021-0.004-0.031-0.003c0-0.001,0-0.002,0-0.003
	c-0.242-0.04-0.486-0.105-0.729-0.204c-0.048-0.271-0.059-0.535-0.043-0.792c0.347,0.037,0.693,0.029,1.035-0.012
	C5.776,31.769,5.697,32.108,5.661,32.458z M3.709,30.605c-0.064-0.863,0.199-1.629,0.62-2.29c0.77-0.002,1.529-0.154,2.194-0.353
	c0.234,0.396,0.485,0.78,0.752,1.152c-0.447,0.524-0.888,1.152-1.201,1.848C5.294,31.083,4.479,31.016,3.709,30.605z M7.576,34.957
	c-0.079-0.202-0.132-0.403-0.169-0.605c0.236-0.016,0.468-0.053,0.694-0.107c-0.013,0.255-0.006,0.513,0.027,0.771
	C7.947,35.011,7.763,34.993,7.576,34.957z M8.153,33.759c-0.602,0.153-1.241,0.176-1.898-0.014c-0.243-0.839-0.141-1.65,0.14-2.389
	c0.746-0.161,1.451-0.464,2.057-0.793c0.21,0.23,0.428,0.453,0.652,0.67C8.681,31.96,8.294,32.835,8.153,33.759z M10.401,36.907
	c-0.107-0.175-0.192-0.354-0.262-0.535c0.262-0.064,0.512-0.156,0.754-0.266c0.029,0.251,0.077,0.5,0.151,0.746
	C10.837,36.89,10.624,36.91,10.401,36.907z M10.86,35.617c-0.582,0.278-1.23,0.43-1.938,0.356c-0.304-0.612-0.395-1.246-0.352-1.865
	c0.883-0.304,1.675-0.839,2.314-1.384c0.148,0.106,0.298,0.21,0.451,0.312C11.061,33.806,10.844,34.708,10.86,35.617z
	 M11.712,33.279c0.383,0.239,0.776,0.463,1.181,0.67c-0.431,0.517-0.963,1.036-1.583,1.422
	C11.32,34.639,11.491,33.915,11.712,33.279z M12.024,37.727c-0.428-0.568-0.631-1.202-0.693-1.844
	c0.786-0.455,1.447-1.105,1.965-1.737c0.243,0.115,0.489,0.224,0.738,0.327c-0.111,0.748-0.15,1.597-0.003,2.423
	C13.474,37.343,12.81,37.664,12.024,37.727z M13.804,38.424c-0.166-0.181-0.303-0.373-0.419-0.573
	c0.269-0.13,0.521-0.285,0.755-0.463c0.081,0.289,0.19,0.571,0.329,0.842C14.26,38.314,14.04,38.382,13.804,38.424z M15.621,38.938
	c-0.587-0.526-0.922-1.183-1.095-1.875c0.617-0.569,1.1-1.268,1.464-1.931c0.478,0.126,0.964,0.23,1.458,0.311
	c0.046,0.576,0.147,1.2,0.338,1.808C17.287,38.015,16.592,38.664,15.621,38.938z M18.604,38.87c-0.026,0.024-0.059,0.05-0.083,0.079
	c-0.001,0-0.001-0.001-0.002-0.002c-0.201,0.142-0.42,0.266-0.662,0.367c-0.273-0.193-0.5-0.417-0.693-0.66
	c0.309-0.261,0.576-0.564,0.809-0.89C18.135,38.155,18.343,38.529,18.604,38.87C18.605,38.869,18.605,38.87,18.604,38.87z
	 M20,39.438c-0.885-0.487-1.416-1.276-1.729-2.132c0.323-0.549,0.562-1.136,0.737-1.688c0.328,0.021,0.659,0.032,0.992,0.032
	c0.079,0,0.158-0.001,0.236-0.003c0.215,0.813,0.561,1.706,1.114,2.459C21.034,38.641,20.598,39.109,20,39.438z M21.774,39.346
	c-0.191-0.083-0.365-0.184-0.529-0.295c0.154-0.177,0.292-0.366,0.413-0.563c0.166,0.184,0.346,0.357,0.545,0.512
	C22.073,39.124,21.931,39.24,21.774,39.346z M23.459,39.128c-0.647-0.218-1.159-0.601-1.566-1.069
	c0.41-0.84,0.592-1.779,0.659-2.616c0.269-0.044,0.536-0.095,0.8-0.153c0.323,0.654,0.755,1.347,1.316,1.929
	C24.468,37.937,24.098,38.61,23.459,39.128z M25.231,38.715c-0.215-0.05-0.416-0.12-0.606-0.206
	c0.176-0.298,0.311-0.614,0.413-0.939c0.218,0.188,0.455,0.355,0.708,0.5C25.604,38.297,25.435,38.514,25.231,38.715z
	 M27.202,38.055c-0.815-0.101-1.487-0.476-2.037-0.978c0.167-0.791,0.167-1.607,0.094-2.333c0.375-0.134,0.744-0.282,1.106-0.443
	c0.44,0.566,0.992,1.147,1.644,1.602C27.961,36.659,27.734,37.408,27.202,38.055z M26.772,34.114
	c0.317-0.152,0.628-0.316,0.934-0.489c0.16,0.534,0.283,1.127,0.309,1.731C27.535,34.99,27.119,34.551,26.772,34.114z M27.107,6.052
	c0.431-0.518,0.963-1.037,1.584-1.423c-0.011,0.732-0.182,1.456-0.403,2.093C27.905,6.482,27.511,6.258,27.107,6.052z
	 M28.957,37.241c-0.249-0.006-0.486-0.04-0.714-0.095c0.104-0.318,0.168-0.644,0.199-0.973c0.274,0.155,0.563,0.284,0.867,0.379
	C29.22,36.788,29.105,37.019,28.957,37.241z M30.693,36.233c-0.834,0.066-1.579-0.175-2.228-0.568c0-0.795-0.162-1.581-0.373-2.266
	c0.35-0.212,0.69-0.438,1.022-0.675c0.546,0.466,1.204,0.925,1.936,1.239C31.156,34.713,31.083,35.493,30.693,36.233z M32.37,34.977
	c-0.284,0.054-0.561,0.067-0.83,0.052c0.026-0.298,0.02-0.594-0.012-0.888c0.33,0.106,0.671,0.179,1.023,0.207
	C32.512,34.557,32.453,34.767,32.37,34.977z M33.745,33.745c-0.804,0.233-1.582,0.147-2.296-0.107
	c-0.16-0.78-0.478-1.518-0.823-2.147c0.207-0.191,0.408-0.388,0.604-0.59c0.727,0.423,1.604,0.811,2.53,0.952
	C33.912,32.453,33.935,33.09,33.745,33.745z M34.944,32.404c-0.198,0.078-0.396,0.133-0.593,0.172
	c-0.017-0.229-0.052-0.453-0.104-0.672c0.25,0.013,0.502,0.006,0.755-0.025C34.996,32.051,34.978,32.227,34.944,32.404z
	 M35.97,31.083c-0.611,0.304-1.243,0.395-1.86,0.352c-0.304-0.885-0.84-1.679-1.386-2.319c0.21-0.292,0.41-0.593,0.599-0.9
	c0.604,0.193,1.285,0.347,1.984,0.385C35.772,29.313,36.067,30.146,35.97,31.083z M36.34,29.766
	c-0.112-0.411-0.284-0.798-0.499-1.158c0.32-0.012,0.64-0.052,0.954-0.128c0.018,0.048,0.041,0.094,0.057,0.143
	c0.002,0.007,0.007,0.012,0.011,0.018c0.063,0.261,0.097,0.535,0.096,0.823C36.758,29.588,36.551,29.688,36.34,29.766z
	 M35.545,28.164c-0.412-0.565-0.912-1.053-1.401-1.454c0.17-0.358,0.327-0.725,0.471-1.098c0.799,0.099,1.712,0.115,2.584-0.089
	c0.409,0.515,0.707,1.125,0.79,1.845C37.255,27.959,36.396,28.166,35.545,28.164z M38.124,26.112
	c-0.126-0.259-0.281-0.5-0.454-0.726c0.227-0.077,0.448-0.172,0.663-0.287c0.09,0.21,0.163,0.433,0.212,0.671
	C38.411,25.899,38.27,26.011,38.124,26.112z M37.355,25.008c-0.61-0.655-1.376-1.151-2.095-1.515
	c0.071-0.31,0.131-0.624,0.184-0.941c0.715-0.057,1.505-0.198,2.244-0.493c0.604,0.456,1.104,1.059,1.352,1.857
	C38.569,24.469,37.982,24.81,37.355,25.008z M39.328,21.953c-0.148,0.215-0.316,0.402-0.496,0.568
	c-0.204-0.25-0.433-0.474-0.68-0.673c0.289-0.148,0.563-0.325,0.817-0.535C39.106,21.508,39.228,21.72,39.328,21.953z M37.74,21.547
	c-0.665-0.438-1.411-0.736-2.101-0.936c0.008-0.203,0.013-0.407,0.013-0.612c0-0.185-0.004-0.369-0.011-0.553
	c0.71-0.203,1.479-0.508,2.159-0.964c0.66,0.325,1.247,0.806,1.639,1.518C39.035,20.733,38.424,21.222,37.74,21.547z"/>
</svg>
