<?xml version="1.0" encoding="utf-8"?>
<!-- Generator: Adobe Illustrator 16.0.0, SVG Export Plug-In . SVG Version: 6.00 Build 0)  -->
<!DOCTYPE svg PUBLIC "-//W3C//DTD SVG 1.1//EN" "http://www.w3.org/Graphics/SVG/1.1/DTD/svg11.dtd">
<svg version="1.1" id="Layer_5" xmlns="http://www.w3.org/2000/svg" xmlns:xlink="http://www.w3.org/1999/xlink" x="0px" y="0px"
	 width="40px" height="40px" viewBox="0 0 40 40" enable-background="new 0 0 40 40" xml:space="preserve">
<path d="M38.281,11.875c-0.936-2.097-2.221-4.004-3.783-5.648l-2.557,5.793L38.281,11.875z M28.42,20l0.475,1.075L30.02,20
	l-1.125-1.075L28.42,20z M29.23,18.164l1.354,1.295l2.069-1.976l-2.668-1.034L29.23,18.164z M32.654,22.518l-2.068-1.977
	l-1.355,1.295l0.758,1.715L32.654,22.518z M37.691,27.328l-4.412-4.214l-2.977,1.153l1.289,2.92L37.691,27.328z M33.461,17.795
	L31.152,20l2.309,2.205L39.15,20L33.461,17.795z M37.691,12.671l-6.1,0.14l-1.289,2.92l2.977,1.154L37.691,12.671z M28.125,1.719
	l-0.146,6.339l5.793-2.557C32.129,3.94,30.223,2.654,28.125,1.719z M33.541,6.459l-5.582,2.463l-0.072,3.191l3.19-0.073
	L33.541,6.459z M30.729,12.832l-2.859,0.065l-0.043,1.875l1.748,0.677L30.729,12.832z M29.257,16.166l-1.45-0.563l-0.027,1.175
	l0.85,0.812L29.257,16.166z M27.168,9.271l-2.618,1.155l0.679,1.748l1.875-0.043L27.168,9.271z M27.049,14.471l0.036-1.556
	l-1.556,0.036l0.424,1.095L27.049,14.471z M27.329,2.308L23.113,6.72l1.154,2.978l2.92-1.289L27.329,2.308z M19.459,9.414
	l-1.976-2.069l-1.034,2.668l1.715,0.757L19.459,9.414z M15.604,12.194l1.174,0.027l0.812-0.85l-1.424-0.628L15.604,12.194z
	 M21.075,11.105L20,9.98l-1.075,1.125L20,11.58L21.075,11.105z M23.551,10.013l-1.033-2.668l-1.977,2.069l1.295,1.355L23.551,10.013
	z M24.396,12.194l-0.563-1.451l-1.424,0.628l0.813,0.85L24.396,12.194z M27.184,1.327C25.104,0.524,22.855,0.059,20.51,0
	l2.292,5.914L27.184,1.327z M20,8.848l2.205-2.309L20,0.85l-2.205,5.689L20,8.848z M19.49,0c-2.346,0.059-4.593,0.524-6.673,1.327
	l4.381,4.587L19.49,0z M15.732,9.696l1.154-2.977l-4.214-4.412l0.14,6.1L15.732,9.696z M15.449,10.427l-2.618-1.155l0.065,2.86
	l1.875,0.043L15.449,10.427z M14.046,14.046l0.424-1.095l-1.556-0.036l0.036,1.556L14.046,14.046z M10.427,15.449l1.748-0.678
	l-0.043-1.875l-2.86-0.065L10.427,15.449z M6.539,22.205L8.848,20l-2.309-2.205L0.85,20L6.539,22.205z M8.407,12.812l-6.1-0.14
	l4.412,4.214l2.977-1.154L8.407,12.812z M8.407,27.188l1.289-2.92L6.72,23.114l-4.412,4.214L8.407,27.188z M10.77,21.836
	l-1.355-1.295l-2.069,1.977l2.668,1.033L10.77,21.836z M11.58,20l-0.475-1.075L9.98,20l1.125,1.075L11.58,20z M7.345,17.483
	l2.069,1.976l1.355-1.295l-0.757-1.715L7.345,17.483z M8.922,12.041l3.191,0.073L12.04,8.923L6.459,6.459L8.922,12.041z
	 M11.875,1.719C9.778,2.654,7.871,3.94,6.228,5.501l5.793,2.557L11.875,1.719z M5.501,6.228c-1.561,1.643-2.847,3.55-3.782,5.647
	l6.34,0.146L5.501,6.228z M1.327,12.817C0.524,14.897,0.059,17.144,0,19.49l5.914-2.292L1.327,12.817z M0,20.51
	c0.059,2.346,0.524,4.594,1.327,6.674l4.587-4.382L0,20.51z M1.719,28.125c0.936,2.098,2.221,4.004,3.783,5.646l2.557-5.793
	L1.719,28.125z M11.875,38.281l0.146-6.34l-5.793,2.557C7.871,36.061,9.778,37.346,11.875,38.281z M6.459,33.541l5.582-2.463
	l0.073-3.191L8.923,27.96L6.459,33.541z M9.271,27.168l2.86-0.064l0.043-1.875l-1.748-0.679L9.271,27.168z M10.743,23.834
	l1.451,0.563l0.027-1.174l-0.85-0.813L10.743,23.834z M10.743,16.166l0.628,1.424l0.85-0.812l-0.027-1.175L10.743,16.166z
	 M12.832,30.729l2.618-1.154l-0.678-1.748l-1.875,0.043L12.832,30.729z M12.951,25.529l-0.036,1.556l1.556-0.036l-0.424-1.096
	L12.951,25.529z M12.671,37.691l4.214-4.411l-1.154-2.978l-2.92,1.289L12.671,37.691z M20.541,30.586l1.977,2.069l1.033-2.669
	l-1.715-0.756L20.541,30.586z M24.396,27.807l-1.174-0.027l-0.813,0.85l1.424,0.628L24.396,27.807z M18.925,28.895L20,30.02
	l1.075-1.125L20,28.42L18.925,28.895z M16.449,29.986l1.034,2.669l1.976-2.069l-1.295-1.355L16.449,29.986z M15.604,27.807
	l0.562,1.45l1.424-0.628l-0.812-0.85L15.604,27.807z M12.817,38.673c2.081,0.804,4.327,1.269,6.673,1.327l-2.292-5.914
	L12.817,38.673z M20,31.152l-2.205,2.309L20,39.15l2.205-5.689L20,31.152z M20.51,40c2.346-0.059,4.594-0.523,6.674-1.327
	l-4.382-4.587L20.51,40z M24.268,30.305l-1.154,2.977l4.215,4.412l-0.141-6.101L24.268,30.305z M24.551,29.573l2.618,1.155
	l-0.065-2.86l-1.875-0.043L24.551,29.573z M25.954,25.954l-0.425,1.096l1.557,0.036L27.05,25.53L25.954,25.954z M20,12.37
	c-2.059,0-3.927,0.815-5.299,2.141C13.264,15.898,12.37,17.845,12.37,20c0,2.106,0.854,4.014,2.234,5.395
	c1.381,1.381,3.289,2.235,5.396,2.235c2.203,0,4.188-0.934,5.58-2.426c1.271-1.363,2.05-3.193,2.05-5.204
	c0-2.107-0.854-4.015-2.235-5.396C24.015,13.224,22.107,12.37,20,12.37z M28.628,22.411l-0.851,0.812l0.027,1.174l1.451-0.562
	L28.628,22.411z M29.573,24.551l-1.748,0.678l0.043,1.875l2.86,0.065L29.573,24.551z M31.078,27.959l-3.191-0.073l0.073,3.191
	l5.582,2.463L31.078,27.959z M28.125,38.281c2.098-0.937,4.004-2.221,5.646-3.783l-5.793-2.557L28.125,38.281z M34.499,33.771
	c1.562-1.643,2.847-3.549,3.783-5.646l-6.341-0.146L34.499,33.771z M38.673,27.184c0.804-2.08,1.269-4.328,1.327-6.674l-5.914,2.292
	L38.673,27.184z M40,19.49c-0.059-2.346-0.523-4.593-1.327-6.673l-4.587,4.381L40,19.49z"/>
</svg>
