<?xml version="1.0" encoding="utf-8"?>
<svg version="1.1" id="Layer_1" xmlns="http://www.w3.org/2000/svg" xmlns:xlink="http://www.w3.org/1999/xlink" x="0px" y="0px"
	 width="35px" height="40px" viewBox="0 0 35 40" enable-background="new 0 0 35 40" xml:space="preserve">
<path d="M17.5,39.891l-0.1-0.057l-5.866-9.807H0L17.5,40L35,30.027H23.466L17.6,39.834L17.5,39.891z M35,29.918V9.973l-5.314,9.972
	L35,29.918z M0,29.918l5.315-9.973L0,9.973V29.918z M23.466,9.973H11.534l-6.219,9.972l6.219,10.083h11.932l6.22-10.083
	L23.466,9.973z M35,9.973L17.5,0l5.966,9.973H35z M17.5,0L0,9.973h11.534L17.5,0z"/>
</svg>
