<?xml version="1.0" encoding="utf-8"?>
<svg version="1.1" id="Layer_1" xmlns="http://www.w3.org/2000/svg" xmlns:xlink="http://www.w3.org/1999/xlink" x="0px" y="0px"
	 width="40px" height="34px" viewBox="0 0 40 34" enable-background="new 0 0 40 34" xml:space="preserve">
<path d="M34.913,0l-5.096,5.144L24.721,0l-5.096,5.144L14.529,0L9.434,5.144L4.337,0L0,4.378v2.883l4.337-4.378l5.096,5.144
	l5.096-5.144l5.096,5.144l5.096-5.144l5.096,5.144l5.096-5.144L40,8.018V5.135L34.913,0z M29.817,24.623l-5.096-5.144l-5.096,5.144
	l-5.096-5.144l-5.096,5.144l-5.096-5.144L0,23.858v2.883l4.337-4.379l5.096,5.145l5.096-5.145l5.096,5.145l5.096-5.145l5.096,5.145
	l5.096-5.145L40,27.497v-2.883l-5.087-5.135L29.817,24.623z M29.817,31.117l-5.096-5.144l-5.096,5.144l-5.096-5.144l-5.096,5.144
	l-5.096-5.144L0,30.351v2.883l4.337-4.378L9.434,34l5.096-5.145L19.625,34l5.096-5.145L29.817,34l5.096-5.145L40,33.991v-2.883
	l-5.087-5.135L29.817,31.117z M29.817,18.13l-5.096-5.144l-5.096,5.144l-5.096-5.144L9.434,18.13l-5.096-5.144L0,17.365v2.883
	l4.337-4.378l5.096,5.144l5.096-5.144l5.096,5.144l5.096-5.144l5.096,5.144l5.096-5.144L40,21.004v-2.883l-5.087-5.135L29.817,18.13
	z M29.817,11.637l-5.096-5.144l-5.096,5.144l-5.096-5.144l-5.096,5.144L4.337,6.493L0,10.872v2.883l4.337-4.378l5.096,5.144
	l5.096-5.144l5.096,5.144l5.096-5.144l5.096,5.144l5.096-5.144L40,14.511v-2.883l-5.087-5.135L29.817,11.637z"/>
</svg>
