<?xml version="1.0" encoding="utf-8"?>
<svg version="1.1" id="Layer_2" xmlns="http://www.w3.org/2000/svg" xmlns:xlink="http://www.w3.org/1999/xlink" x="0px" y="0px"
	 width="40px" height="40px" viewBox="0 0 40 40" enable-background="new 0 0 40 40" xml:space="preserve">
<path d="M40,0h-2v2h-2l2-2h-2l-2,2v2l2,2h-2v2h2l-2,2v2l2,2h-2v-2h-2v2l2,2h2l-2,2v2l2,2h-2v-2h-2v2l-2-2v2h-2v2h2l-2,2v-2h-2v2l2,2
	h-2v2l-2-2h2v-2h-2l2-2l2-2l2-2h2l2-2v-2h-2v2h-2l2-2v-2l-2-2v2h-2l-2,2v2l2,2h-2v2l-2-2h2v-2h-2l2-2v-2l-2-2h2v-2h-2l2-2v2l2,2h-2
	v2h2l2-2h2l2-2V8l-2-2l-2-2v2h-2l2-2h2l2-2V0h-2v2h-2l2-2h-2l-2,2V0h-2v2l2,2h-2v2l-2-2h2V2h-2l2-2h-2l-2,2h0.021v2l-2-2H22V0h-2v2
	h-2l2-2h-2l-2,2v2l2,2l2,2v2h-2l2-2h-2l-2,2v2l2,2h-2l-2,2v2h2v-2h2l-2,2v2l2,2h-2l-2,2v2h2v-2h2l-2,2v2l2,2h-2v-2l-2-2h-2l2-2v-2
	l-2-2h2v2h2v-2l-2-2h-2l2-2v-2l-2-2h2v2h2v-2l-2-2h-2l2-2v2h2V8h2V6h-2V4l-2-2h-2l2-2h-2l-2,2L8,4v2l2,2h2l-2,2l-2,2v2l2,2h2l-2,2
	l-2,2v2l-2-2h2v-2H6l2-2v-2l-2-2h2v-2H6l2-2V6L6,4h2V2H6l2-2H6L4,2V0H2v2l2,2l2,2H4L2,8v2l2,2l2,2H4v-2H2v2l-2-2v6l2-2v2l2,2l2,2H4
	v-2H2v2l-2-2v6l2-2v2l2,2l2,2H4v-2H2v2l2,2h2l-2,2v-2H2v2l2,2l2,2H4v-2H2v2h1.897v2H8v-2l-2-2h2v-2H6l2-2v2h2v-2h2l-2,2l-2,2v2l2,2
	h4l2-2v-2l-2-2h-2l2-2v2h2v-2h2l-2,2v2l2,2h-2v2h3.997v-2H20l-2-2h2v2h1.997l-2,2H26v-2l-2-2h2v-2h-2l2-2v2l2,2h-2v2h2l2-2h2l2-2v-2
	h2l-2,2v2l2,2h-2v2h4v-2l-2-2h2l2-2v-2h-2v2h-2l2-2v-2l-2-2h2l2-2v-2h-2v2h-2l2-2v-2l-2-2h2l2-2v-2h-2v2h-2l2-2v-2l-2-2h2l2-2V8h-2
	v2h-2l2-2V6l-2-2h2l2-2V0z M28,16h2l-2,2V16z M32,8v2h-2L32,8z M28,8h2l-2,2V8z M14,4v2l-2-2H14z M10,6V4l2,2H10z M10,14v-2l2,2H10z
	 M4,10V8h2L4,10z M10,38v-2l2,2H10z M14,36v2l-2-2H14z M10,20l2,2h-2V20z M4,18v-2h2L4,18z M4,26v-2h2L4,26z M8,28v2l-2-2H8v-2H6
	l2-2v2h2v-2h2l-2,2L8,28z M10,30v-2l2,2H10z M14,30l-2-2h2V30z M22,26h0.021v2l-2-2H22v-2h2L22,26z M21.997,32.004l-2-0.007l0.007-2
	L21.997,32.004z M22,22v-2l2,2H22z M22,4l2,2h-2V4z M22,10V8h2L22,10h0.021v2l-2-2H22z M18,4h2v2L18,4z M20,12v2l-2-2H20z M20,16
	l2-2v-2l2,2h-2v2h2l-2,2h0.021v2l-2-2H22v-2H20v2h-2L20,16z M20,20v2l-2-2H20z M20,24v2h-2L20,24z M20,28v2l-2-2H20z M20,34h-2l2-2
	V34z M22,38v-2l2,2H22z M22,34h0.021v2l-2-2H22v-2h2L22,34z M22,30v-2l2,2H22z M32,24v2h-2L32,24z M28,34v-2h2L28,34z M32,34h-2l2-2
	V34z M34,26v2l2,2h-2v-2h-2v2l-2-2v2h-2l2-2h2L34,26v-2h2L34,26z M40,40v-4h-2v2L40,40z M0,0v2l2-2H0z M2,30l-2-2v6l2-2V30z M2,2H0
	v2h2V2z M10,2V0H8v2H10z M2,6L0,4v6l2-2V6z M2,6h2V4H2V6z M2,10H0v2h2V10z M2,38l-2-2v4h3.897l-2-2H2z M2,18H0v2h2V18z M2,34H0v2h2
	V34z M32,6h2V4h-2V6z M2,26H0v2h2V26z M40,24v-4h-2v2L40,24z M40,16v-4h-2v2L40,16z M16,2V0h-2v2H16z M32,36v2l-2-2v2h-2l-2,2h6l2-2
	v-2H32z M40,8V4h-2v2L40,8z M8,10h2V8H8V10z M40,32v-4h-2v2L40,32z M8,18h2v-2H8V18z"/>
</svg>
