<?xml version="1.0" encoding="utf-8"?>
<svg version="1.1" id="Layer_2" xmlns="http://www.w3.org/2000/svg" xmlns:xlink="http://www.w3.org/1999/xlink" x="0px" y="0px"
	 width="40px" height="40px" viewBox="0 0 40 40" enable-background="new 0 0 40 40" xml:space="preserve">
<path d="M38.634,15.501l-0.399,0.822l-0.903-0.13l0.656,0.635l-0.402,0.822l0.807-0.428l0.656,0.631l-0.157-0.896l0.805-0.43
	L38.792,16.4L38.634,15.501z M36.408,13.243l0.757,0.511l-0.253,0.878l0.719-0.562l0.757,0.508l-0.313-0.855l0.718-0.563
	l-0.911,0.03l-0.313-0.856l-0.25,0.878L36.408,13.243z M35.819,10.869l-0.097,0.907l0.61-0.678l0.836,0.371l-0.457-0.788l0.61-0.679
	l-0.893,0.188L35.972,9.4l-0.094,0.908l-0.893,0.188L35.819,10.869z M33.106,8.038l0.887,0.223l0.062,0.91l0.483-0.773l0.887,0.22
	l-0.586-0.697l0.483-0.774l-0.847,0.341l-0.586-0.698l0.064,0.91L33.106,8.038z M31.742,6.009l0.219,0.887l0.343-0.848l0.91,0.063
	l-0.697-0.585l0.339-0.847l-0.774,0.483l-0.698-0.586l0.222,0.886l-0.774,0.481L31.742,6.009z M29.134,4.182l0.37,0.836l0.19-0.895
	l0.908-0.096l-0.789-0.455L30,2.681l-0.679,0.608l-0.789-0.454l0.373,0.835l-0.68,0.606L29.134,4.182z M26.248,2.838l0.51,0.757
	l0.033-0.913l0.875-0.252L26.81,2.118l0.03-0.91l-0.562,0.717L25.42,1.613l0.512,0.757L25.37,3.087L26.248,2.838z M22.352,2.412
	l0.822-0.399l0.632,0.658L23.68,1.767l0.82-0.401l-0.898-0.157l-0.127-0.904l-0.43,0.805l-0.898-0.156l0.636,0.654L22.352,2.412z
	 M19.262,2.273L20,1.737l0.738,0.536l-0.282-0.869l0.738-0.537h-0.912L20,0l-0.282,0.867h-0.913l0.739,0.537L19.262,2.273z
	 M16.194,2.67l0.635-0.657l0.82,0.399L17.22,1.607l0.633-0.654l-0.897,0.157l-0.43-0.806L16.4,1.208l-0.898,0.159l0.819,0.398
	L16.194,2.67z M13.21,2.681l0.033,0.913l0.51-0.756l0.877,0.25L14.068,2.37l0.511-0.757l-0.858,0.313L13.16,1.207l0.032,0.911
	l-0.858,0.313L13.21,2.681z M10.307,4.124l0.189,0.893l0.371-0.834l0.908,0.097l-0.679-0.611l0.37-0.833l-0.789,0.454l-0.679-0.61
	l0.191,0.893L9.4,4.03L10.307,4.124z M7.697,6.048l0.342,0.846L8.26,6.009l0.909-0.063L8.396,5.461l0.221-0.885L7.918,5.163
	L7.145,4.679l0.342,0.847L6.788,6.113L7.697,6.048z M5.461,8.396l0.483,0.773L6.007,8.26l0.887-0.222L6.048,7.698l0.064-0.91
	L5.525,7.486L4.679,7.145l0.484,0.773L4.575,8.617L5.461,8.396z M2.833,11.47l0.835-0.373l0.609,0.678l-0.095-0.907l0.834-0.372
	l-0.895-0.189L4.028,9.4l-0.456,0.789L2.679,10l0.61,0.678L2.833,11.47z M1.613,14.58l0.755-0.511l0.719,0.562l-0.252-0.877
	l0.758-0.509l-0.912-0.033l-0.252-0.877l-0.313,0.858l-0.912-0.032l0.72,0.561L1.613,14.58z M0.95,17.855l0.657-0.634l0.806,0.429
	l-0.4-0.822l0.656-0.633l-0.904,0.127l-0.4-0.821l-0.158,0.899l-0.904,0.127l0.806,0.428L0.95,17.855z M0.867,21.195l0.536-0.738
	l0.868,0.282l-0.537-0.739l0.538-0.736l-0.869,0.281l-0.537-0.737v0.913L0,19.999l0.867,0.284V21.195z M1.366,24.499l0.398-0.821
	l0.905,0.127l-0.656-0.634l0.4-0.819L1.607,22.78L0.95,22.147l0.159,0.897l-0.806,0.428L1.207,23.6L1.366,24.499z M3.594,26.758
	l-0.758-0.51l0.253-0.877l-0.721,0.561l-0.755-0.51l0.311,0.857l-0.719,0.561l0.912-0.03l0.314,0.858l0.25-0.878L3.594,26.758z
	 M4.183,29.133l0.096-0.908l-0.61,0.679l-0.835-0.372l0.457,0.79L2.679,30l0.893-0.188l0.457,0.789l0.093-0.908l0.893-0.188
	L4.183,29.133z M6.894,31.963L6.007,31.74l-0.062-0.91l-0.484,0.773l-0.886-0.219l0.587,0.699l-0.483,0.772l0.847-0.341l0.587,0.698
	l-0.065-0.911L6.894,31.963z M8.259,33.992l-0.22-0.885l-0.342,0.844l-0.909-0.063l0.699,0.586l-0.342,0.847l0.773-0.483
	l0.699,0.587l-0.222-0.887l0.773-0.482L8.259,33.992z M10.868,35.816l-0.371-0.832l-0.189,0.892L9.4,35.972l0.789,0.456l-0.19,0.893
	l0.679-0.61l0.791,0.457l-0.372-0.834l0.679-0.61L10.868,35.816z M13.752,37.164l-0.51-0.758l-0.033,0.912l-0.876,0.252l0.857,0.312
	l-0.031,0.913l0.563-0.72l0.857,0.312l-0.511-0.757l0.562-0.718L13.752,37.164z M17.649,37.59l-0.822,0.397l-0.633-0.657
	l0.126,0.904l-0.819,0.4l0.898,0.158l0.126,0.905l0.43-0.807l0.897,0.157l-0.634-0.655L17.649,37.59z M20.738,37.729l-0.739,0.537
	l-0.737-0.537l0.283,0.866l-0.739,0.539h0.911L19.999,40l0.284-0.867h0.912l-0.74-0.537L20.738,37.729z M23.808,37.332l-0.637,0.655
	l-0.819-0.4l0.429,0.805l-0.634,0.658l0.897-0.158l0.43,0.806l0.127-0.905l0.898-0.159l-0.822-0.398L23.808,37.332z M26.788,37.32
	l-0.03-0.913l-0.51,0.757l-0.879-0.252l0.563,0.717l-0.51,0.758l0.856-0.311l0.562,0.718l-0.031-0.913l0.856-0.312L26.788,37.32z
	 M29.693,35.877l-0.188-0.893l-0.373,0.834l-0.908-0.097l0.677,0.612l-0.369,0.834l0.789-0.456L30,37.321l-0.188-0.894l0.789-0.458
	L29.693,35.877z M32.303,33.953l-0.34-0.845l-0.223,0.885l-0.911,0.063l0.775,0.484l-0.221,0.887l0.7-0.586l0.773,0.483
	l-0.341-0.847l0.699-0.587L32.303,33.953z M34.539,31.605l-0.482-0.774l-0.064,0.911l-0.887,0.219l0.847,0.342l-0.062,0.911
	l0.586-0.695l0.846,0.338l-0.484-0.774l0.586-0.699L34.539,31.605z M37.166,28.531l-0.833,0.373l-0.608-0.679l0.095,0.91
	l-0.835,0.369l0.894,0.19l0.097,0.908l0.456-0.789L37.321,30l-0.61-0.68L37.166,28.531z M38.387,25.42l-0.756,0.514l-0.718-0.564
	l0.251,0.878l-0.759,0.51l0.913,0.031l0.252,0.877l0.313-0.857l0.911,0.032l-0.719-0.562L38.387,25.42z M39.048,22.146l-0.655,0.634
	l-0.804-0.43l0.399,0.822l-0.658,0.633l0.904-0.127l0.401,0.821l0.157-0.897l0.904-0.127l-0.807-0.431L39.048,22.146z
	 M38.595,20.458l0.538,0.736l0.001-0.912L40,20.002l-0.867-0.285v-0.911l-0.537,0.74l-0.867-0.284l0.536,0.74l-0.538,0.736
	L38.595,20.458z M32.438,32.127c1.829-1.875,3.237-4.162,4.072-6.708c0.559-1.705,0.862-3.525,0.862-5.417
	c0-2.138-0.386-4.186-1.092-6.077c-0.966-2.587-2.531-4.881-4.525-6.715c-1.478-1.358-3.191-2.464-5.072-3.249
	c-2.057-0.857-4.314-1.332-6.683-1.332c-2.155,0-4.219,0.393-6.124,1.11c-2.036,0.768-3.891,1.906-5.48,3.334
	c-1.327,1.192-2.47,2.586-3.38,4.134c-1.517,2.58-2.386,5.585-2.386,8.794c0,3.031,0.776,5.88,2.142,8.36
	c0.993,1.805,2.297,3.414,3.841,4.755c2.064,1.793,4.555,3.108,7.3,3.771c1.311,0.316,2.68,0.484,4.088,0.484
	c2.766,0,5.381-0.646,7.702-1.797C29.472,34.698,31.072,33.527,32.438,32.127z M33.834,19.844c0.111-0.115,0.266-0.186,0.439-0.186
	c0.11,0,0.214,0.029,0.303,0.081c0.184,0.105,0.307,0.303,0.307,0.53c0,0.155-0.058,0.298-0.155,0.406
	c-0.112,0.125-0.274,0.205-0.456,0.205c-0.213,0-0.401-0.11-0.51-0.275c-0.063-0.097-0.1-0.211-0.1-0.335
	C33.664,20.103,33.729,19.954,33.834,19.844z M6.38,20.698c-0.11,0.111-0.263,0.18-0.432,0.18c-0.168,0-0.321-0.068-0.432-0.179
	c-0.111-0.111-0.179-0.263-0.179-0.431c0-0.169,0.068-0.321,0.179-0.432c0.11-0.11,0.263-0.179,0.432-0.179
	c0.096,0,0.186,0.022,0.267,0.061c0.204,0.099,0.343,0.308,0.343,0.549C6.558,20.436,6.49,20.588,6.38,20.698z"/>
</svg>
