<?xml version="1.0" encoding="utf-8"?>
<!-- Generator: Adobe Illustrator 16.0.0, SVG Export Plug-In . SVG Version: 6.00 Build 0)  -->
<!DOCTYPE svg PUBLIC "-//W3C//DTD SVG 1.1//EN" "http://www.w3.org/Graphics/SVG/1.1/DTD/svg11.dtd">
<svg version="1.1" id="Layer_1" xmlns="http://www.w3.org/2000/svg" xmlns:xlink="http://www.w3.org/1999/xlink" x="0px" y="0px"
	 width="40px" height="40px" viewBox="0 0 40 40" enable-background="new 0 0 40 40" xml:space="preserve">
<path d="M1.932,36.043c-0.315,0-0.612,0.075-0.874,0.208c-0.183,0.092-0.349,0.212-0.492,0.354C0.217,36.954,0,37.436,0,37.965l0,0
	c0,0.521,0.209,0.996,0.549,1.342c0.351,0.357,0.841,0.579,1.383,0.579c0.669,0,1.259-0.339,1.605-0.854
	c0.206-0.306,0.326-0.673,0.326-1.068c0-0.516-0.205-0.985-0.537-1.33C2.975,36.271,2.48,36.043,1.932,36.043z M1.932,30.036
	c-0.492,0-0.941,0.183-1.282,0.483C0.251,30.872,0,31.386,0,31.958c0,0.53,0.216,1.011,0.566,1.358
	c0.152,0.15,0.329,0.276,0.523,0.37c0.255,0.123,0.541,0.192,0.843,0.192c0.517,0,0.987-0.203,1.333-0.531
	c0.368-0.351,0.598-0.844,0.598-1.39c0-0.531-0.216-1.011-0.565-1.358C2.948,30.251,2.465,30.036,1.932,30.036z M1.932,24.029
	c-0.534,0-1.017,0.215-1.366,0.563S0,25.42,0,25.951l0,0l0,0c0,0.531,0.216,1.011,0.565,1.359c0.174,0.174,0.383,0.314,0.614,0.412
	c0.231,0.097,0.486,0.15,0.753,0.15c0.506,0,0.966-0.193,1.311-0.51c0.382-0.352,0.621-0.854,0.621-1.412
	c0-0.448-0.154-0.86-0.412-1.188C3.098,24.316,2.549,24.029,1.932,24.029z M1.932,18.021c-0.465,0-0.891,0.163-1.225,0.435
	C0.275,18.809,0,19.344,0,19.943c0,0.489,0.184,0.936,0.486,1.275c0.354,0.397,0.871,0.647,1.446,0.647
	c0.521,0,0.994-0.206,1.341-0.539c0.364-0.35,0.59-0.84,0.59-1.383c0-0.481-0.177-0.92-0.471-1.258
	C3.038,18.279,2.515,18.021,1.932,18.021z M1.932,12.015c-0.528,0-1.007,0.211-1.356,0.553C0.22,12.916,0,13.4,0,13.936
	c0,0.411,0.129,0.791,0.35,1.103c0.35,0.495,0.928,0.819,1.583,0.819c0.477,0,0.913-0.172,1.25-0.457
	c0.417-0.352,0.682-0.878,0.682-1.465c0-0.597-0.273-1.13-0.703-1.482C2.827,12.179,2.398,12.015,1.932,12.015z M1.932,6.007
	c-0.291,0-0.567,0.064-0.814,0.178C0.911,6.281,0.725,6.412,0.566,6.57C0.217,6.918,0,7.398,0,7.929l0,0l0,0l0,0l0,0l0,0l0,0l0,0
	l0,0l0,0l0,0l0,0l0,0l0,0c0,0.479,0.176,0.917,0.467,1.253C0.821,9.591,1.346,9.85,1.932,9.85c0.58,0,1.101-0.254,1.455-0.657
	c0.297-0.338,0.477-0.78,0.477-1.264c0-0.593-0.27-1.123-0.694-1.476C2.834,6.175,2.403,6.007,1.932,6.007z M1.932,0
	c-0.524,0-1,0.208-1.348,0.545C0.224,0.894,0,1.382,0,1.922c0,0.53,0.216,1.011,0.566,1.358c0.145,0.144,0.313,0.265,0.498,0.357
	C1.325,3.769,1.62,3.843,1.932,3.843c0.486,0,0.931-0.179,1.27-0.475c0.405-0.352,0.661-0.87,0.661-1.447
	c0-0.498-0.19-0.951-0.501-1.292C3.008,0.243,2.499,0,1.932,0z M7.955,36.043c-0.52,0-0.992,0.205-1.339,0.537
	c-0.366,0.35-0.593,0.841-0.593,1.385c0,0.489,0.184,0.936,0.486,1.275c0.354,0.396,0.871,0.646,1.446,0.646
	c0.601,0,1.138-0.271,1.492-0.7c0.275-0.332,0.44-0.756,0.44-1.221c0-0.593-0.27-1.123-0.694-1.476
	C8.857,36.211,8.426,36.043,7.955,36.043z M7.955,30.036c-0.503,0-0.961,0.19-1.305,0.504c-0.386,0.353-0.627,0.856-0.627,1.418
	c0,0.423,0.137,0.813,0.37,1.131c0.352,0.479,0.92,0.791,1.562,0.791c0.629,0,1.188-0.299,1.54-0.762
	c0.246-0.322,0.392-0.724,0.392-1.16c0-0.63-0.305-1.188-0.776-1.54C8.788,30.178,8.388,30.036,7.955,30.036z M7.955,24.029
	c-0.534,0-1.017,0.215-1.366,0.563c-0.15,0.149-0.276,0.324-0.371,0.517c-0.125,0.254-0.195,0.54-0.195,0.843
	c0,0.506,0.196,0.966,0.518,1.309c0.353,0.377,0.856,0.613,1.415,0.613c0.588,0,1.114-0.262,1.468-0.673
	c0.289-0.336,0.464-0.772,0.464-1.249c0-0.622-0.297-1.176-0.757-1.526C8.804,24.176,8.396,24.029,7.955,24.029z M7.955,18.021
	c-0.534,0-1.017,0.215-1.366,0.563c-0.35,0.348-0.566,0.828-0.566,1.358c0,0.448,0.154,0.86,0.413,1.187
	c0.354,0.448,0.903,0.735,1.52,0.735c0.599,0,1.135-0.271,1.489-0.697c0.277-0.333,0.443-0.759,0.443-1.225
	c0-0.439-0.148-0.844-0.398-1.168C9.136,18.317,8.58,18.021,7.955,18.021z M7.955,12.015c-0.496,0-0.948,0.186-1.29,0.491
	c-0.394,0.352-0.642,0.862-0.642,1.43c0,0.441,0.15,0.848,0.401,1.173c0.354,0.456,0.908,0.749,1.531,0.749
	c0.48,0,0.92-0.174,1.258-0.463c0.413-0.353,0.674-0.875,0.674-1.459c0-0.523-0.21-0.998-0.551-1.344
	C8.985,12.236,8.496,12.015,7.955,12.015z M7.955,6.007c-0.524,0-1,0.208-1.348,0.545c-0.36,0.349-0.584,0.837-0.584,1.377
	c0,0.436,0.146,0.838,0.393,1.161c0.353,0.462,0.911,0.76,1.54,0.76c0.484,0,0.927-0.177,1.266-0.469
	C9.63,9.028,9.889,8.508,9.889,7.929c0-0.609-0.285-1.153-0.73-1.505C8.827,6.163,8.409,6.007,7.955,6.007z M7.955,0
	c-0.426,0-0.82,0.137-1.139,0.369c-0.481,0.35-0.793,0.915-0.793,1.553c0,0.481,0.178,0.92,0.471,1.257
	c0.354,0.407,0.877,0.664,1.461,0.664c0.527,0,1.005-0.21,1.354-0.551c0.357-0.349,0.578-0.834,0.578-1.371
	c0-0.589-0.266-1.116-0.685-1.468C8.865,0.171,8.43,0,7.955,0z M13.978,36.156c-0.534,0-1.017,0.215-1.366,0.563
	c-0.35,0.348-0.566,0.829-0.566,1.359c0,0.477,0.175,0.913,0.464,1.249C12.863,39.739,13.39,40,13.978,40
	c0.533,0,1.016-0.215,1.366-0.563c0.35-0.349,0.566-0.83,0.566-1.359c0-0.266-0.054-0.519-0.152-0.748
	c-0.098-0.23-0.239-0.438-0.414-0.611C14.994,36.371,14.511,36.156,13.978,36.156z M13.978,30.148c-0.534,0-1.017,0.216-1.366,0.563
	c-0.349,0.349-0.566,0.828-0.566,1.358c0,0.531,0.216,1.012,0.566,1.359c0.35,0.348,0.833,0.563,1.366,0.563
	c0.575,0,1.091-0.25,1.445-0.646c0.303-0.34,0.487-0.787,0.487-1.277c0-0.508-0.198-0.969-0.521-1.313
	C15.035,30.383,14.534,30.148,13.978,30.148z M13.978,24.143c-0.491,0-0.938,0.182-1.279,0.481c-0.4,0.353-0.653,0.866-0.653,1.438
	c0,0.418,0.133,0.803,0.36,1.117c0.35,0.487,0.924,0.805,1.572,0.805c0.533,0,1.016-0.215,1.366-0.563
	c0.35-0.348,0.566-0.829,0.566-1.359c0-0.529-0.216-1.011-0.566-1.357c-0.175-0.174-0.383-0.314-0.614-0.412
	C14.499,24.196,14.245,24.143,13.978,24.143z M13.978,18.135c-0.534,0-1.017,0.215-1.366,0.563c-0.35,0.348-0.566,0.829-0.566,1.359
	c0,0.53,0.216,1.011,0.566,1.358c0.145,0.144,0.313,0.265,0.498,0.357c0.261,0.132,0.556,0.206,0.869,0.206
	c0.533,0,1.016-0.215,1.366-0.563c0.35-0.349,0.566-0.828,0.566-1.358c0-0.527-0.213-1.004-0.558-1.351
	C15.001,18.353,14.515,18.135,13.978,18.135z M13.978,12.127c-0.389,0-0.751,0.115-1.055,0.312c-0.528,0.343-0.877,0.936-0.877,1.61
	c0,0.531,0.216,1.011,0.566,1.359c0.166,0.165,0.36,0.299,0.577,0.396c0.241,0.107,0.508,0.167,0.79,0.167
	c0.533,0,1.016-0.215,1.366-0.563c0.35-0.348,0.566-0.829,0.566-1.359c0-0.684-0.359-1.285-0.9-1.625
	C14.71,12.236,14.357,12.127,13.978,12.127z M13.978,6.12c-0.534,0-1.017,0.215-1.366,0.563c-0.35,0.348-0.566,0.829-0.566,1.359
	c0,0.244,0.046,0.478,0.129,0.692c0.098,0.252,0.248,0.479,0.437,0.667c0.35,0.348,0.833,0.563,1.366,0.563
	c0.506,0,0.967-0.194,1.311-0.511C15.671,9.102,15.91,8.6,15.91,8.042c0-0.531-0.216-1.011-0.566-1.359
	C14.994,6.335,14.511,6.12,13.978,6.12z M13.978,0.113c-0.48,0-0.92,0.174-1.258,0.463c-0.413,0.352-0.674,0.875-0.674,1.458
	c0,0.504,0.195,0.962,0.514,1.305c0.353,0.379,0.857,0.617,1.418,0.617c0.614,0,1.162-0.286,1.516-0.73
	c0.261-0.327,0.416-0.741,0.416-1.191c0-0.572-0.251-1.085-0.65-1.438C14.918,0.296,14.469,0.113,13.978,0.113z M20,36.156
	c-0.509,0-0.973,0.195-1.318,0.517c-0.378,0.351-0.614,0.851-0.614,1.405c0,0.187,0.027,0.367,0.077,0.538
	c0.092,0.314,0.263,0.596,0.489,0.821C18.983,39.785,19.467,40,20,40l0,0l0,0c0.533,0,1.018-0.215,1.366-0.563
	c0.175-0.174,0.316-0.382,0.414-0.611c0.098-0.23,0.151-0.483,0.151-0.748c0-0.592-0.268-1.12-0.688-1.473
	C20.907,36.325,20.473,36.156,20,36.156z M20,30.148c-0.533,0-1.017,0.216-1.366,0.563c-0.174,0.175-0.315,0.382-0.414,0.611
	s-0.152,0.481-0.152,0.747s0.054,0.519,0.152,0.748c0.098,0.23,0.239,0.438,0.414,0.611c0.14,0.139,0.3,0.256,0.477,0.348
	c0.266,0.138,0.569,0.216,0.89,0.216c0.583,0,1.104-0.257,1.458-0.662c0.295-0.337,0.474-0.778,0.474-1.261
	c0-0.588-0.266-1.114-0.686-1.467C20.91,30.32,20.475,30.148,20,30.148z M20,24.143c-0.522,0-0.997,0.207-1.345,0.541
	c-0.362,0.35-0.587,0.838-0.587,1.381c0,0.427,0.14,0.821,0.377,1.141c0.352,0.475,0.917,0.781,1.555,0.781
	c0.598,0,1.131-0.271,1.484-0.693c0.279-0.333,0.447-0.762,0.447-1.229c0-0.465-0.166-0.891-0.44-1.223
	C21.137,24.414,20.6,24.143,20,24.143z M20,18.135c-0.501,0-0.958,0.19-1.302,0.502c-0.387,0.352-0.63,0.857-0.63,1.42
	c0,0.53,0.216,1.011,0.566,1.358c0.161,0.16,0.351,0.292,0.561,0.388c0.245,0.112,0.518,0.176,0.805,0.176
	c0.613,0,1.159-0.285,1.514-0.727c0.262-0.328,0.418-0.744,0.418-1.195c0-0.609-0.285-1.153-0.729-1.505
	C20.872,18.291,20.454,18.135,20,18.135z M20,12.127c-0.504,0-0.963,0.192-1.307,0.507c-0.384,0.351-0.625,0.855-0.625,1.415
	c0,0.452,0.157,0.867,0.419,1.195c0.354,0.443,0.9,0.727,1.513,0.727c0.375,0,0.727-0.107,1.023-0.292
	c0.545-0.339,0.908-0.943,0.908-1.63c0-0.531-0.216-1.011-0.565-1.359c-0.164-0.163-0.357-0.297-0.571-0.393
	C20.553,12.188,20.284,12.127,20,12.127z M20,6.12c-0.515,0-0.983,0.2-1.33,0.527c-0.371,0.351-0.603,0.846-0.603,1.395
	c0,0.444,0.151,0.852,0.405,1.177C18.827,9.672,19.379,9.964,20,9.964c0.533,0,1.018-0.215,1.366-0.563
	c0.35-0.348,0.565-0.829,0.565-1.359c0-0.587-0.264-1.112-0.681-1.465C20.914,6.292,20.477,6.12,20,6.12z M20,0.113
	c-0.47,0-0.9,0.167-1.235,0.444c-0.426,0.353-0.697,0.884-0.697,1.478c0,0.506,0.196,0.966,0.518,1.309
	C18.938,3.721,19.441,3.957,20,3.957c0.523,0,0.998-0.207,1.346-0.543c0.361-0.349,0.586-0.838,0.586-1.379
	c0-0.593-0.27-1.123-0.693-1.475C20.902,0.281,20.471,0.113,20,0.113z M26.021,36.156c-0.5,0-0.957,0.189-1.301,0.501
	c-0.387,0.352-0.63,0.858-0.63,1.421c0,0.48,0.177,0.92,0.472,1.258C24.917,39.743,25.439,40,26.021,40
	c0.535,0,1.018-0.215,1.367-0.563c0.35-0.349,0.565-0.83,0.565-1.359c0-0.627-0.302-1.184-0.769-1.535
	C26.861,36.3,26.459,36.156,26.021,36.156z M26.021,30.148c-0.431,0-0.828,0.142-1.149,0.379c-0.217,0.16-0.398,0.364-0.532,0.6
	c-0.158,0.278-0.249,0.601-0.249,0.943c0,0.216,0.036,0.423,0.102,0.616c0.097,0.283,0.257,0.536,0.465,0.743
	c0.148,0.148,0.321,0.272,0.512,0.366c0.257,0.126,0.546,0.196,0.853,0.196c0.564,0,1.071-0.24,1.424-0.624
	c0.316-0.343,0.509-0.798,0.509-1.298c0-0.584-0.261-1.104-0.672-1.457C26.943,30.325,26.504,30.148,26.021,30.148z M26.021,24.143
	c-0.506,0-0.969,0.194-1.313,0.513c-0.38,0.351-0.618,0.852-0.618,1.407c0,0.391,0.117,0.752,0.317,1.056
	c0.345,0.522,0.939,0.866,1.613,0.866c0.535,0,1.018-0.215,1.367-0.563s0.565-0.829,0.565-1.359c0-0.529-0.216-1.011-0.565-1.357
	c-0.176-0.174-0.384-0.314-0.615-0.412C26.543,24.196,26.289,24.143,26.021,24.143z M26.021,18.135
	c-0.533,0-1.016,0.215-1.364,0.563c-0.351,0.348-0.566,0.829-0.566,1.359c0,0.41,0.13,0.791,0.351,1.103
	c0.35,0.495,0.928,0.818,1.582,0.818c0.533,0,1.017-0.215,1.365-0.563c0.35-0.348,0.566-0.828,0.566-1.358
	c0-0.599-0.275-1.134-0.708-1.487C26.914,18.298,26.486,18.135,26.021,18.135z M26.021,12.127c-0.461,0-0.887,0.162-1.219,0.432
	c-0.435,0.353-0.712,0.889-0.712,1.49c0,0.468,0.168,0.897,0.448,1.231c0.354,0.422,0.887,0.691,1.482,0.691
	c0.517,0,0.984-0.201,1.332-0.529c0.371-0.35,0.602-0.845,0.602-1.393c0-0.597-0.273-1.13-0.703-1.483
	C26.917,12.292,26.488,12.127,26.021,12.127z M26.021,6.12c-0.629,0-1.188,0.3-1.541,0.765c-0.244,0.322-0.39,0.722-0.39,1.157
	c0,0.5,0.192,0.955,0.507,1.296c0.353,0.384,0.86,0.625,1.424,0.625c0.475,0,0.91-0.17,1.246-0.452
	c0.42-0.353,0.688-0.88,0.688-1.47c0-0.531-0.217-1.011-0.566-1.359C27.039,6.335,26.557,6.12,26.021,6.12z M26.021,0.113
	c-0.512,0-0.978,0.199-1.323,0.523c-0.374,0.35-0.607,0.847-0.607,1.398c0,0.528,0.214,1.006,0.56,1.353
	c0.351,0.351,0.836,0.569,1.373,0.569c0.533,0,1.017-0.215,1.365-0.563c0.15-0.149,0.275-0.323,0.369-0.515
	c0.126-0.254,0.197-0.541,0.197-0.844c0-0.588-0.266-1.115-0.686-1.468C26.934,0.284,26.498,0.113,26.021,0.113z M32.046,36.156
	c-0.534,0-1.017,0.215-1.366,0.563s-0.566,0.829-0.566,1.359c0,0.452,0.158,0.867,0.42,1.195c0.354,0.442,0.9,0.727,1.513,0.727
	c0.615,0,1.163-0.286,1.517-0.732c0.261-0.326,0.416-0.74,0.416-1.189c0-0.624-0.299-1.18-0.763-1.53
	C32.891,36.302,32.484,36.156,32.046,36.156z M32.046,30.148c-0.514,0-0.981,0.201-1.327,0.525c-0.373,0.35-0.605,0.846-0.605,1.396
	c0,0.523,0.212,1,0.554,1.347c0.351,0.354,0.839,0.575,1.379,0.575c0.509,0,0.97-0.195,1.313-0.514
	c0.381-0.352,0.617-0.853,0.617-1.408c0-0.618-0.293-1.168-0.748-1.52C32.902,30.3,32.492,30.148,32.046,30.148z M32.046,24.143
	c-0.534,0-1.017,0.215-1.366,0.563c-0.162,0.162-0.297,0.353-0.394,0.564c-0.11,0.242-0.173,0.511-0.173,0.793
	c0,0.531,0.217,1.012,0.566,1.359s0.834,0.563,1.366,0.563c0.634,0,1.197-0.303,1.55-0.773c0.239-0.32,0.381-0.717,0.381-1.146
	c0-0.58-0.259-1.102-0.666-1.453C32.971,24.318,32.529,24.143,32.046,24.143z M32.046,18.135c-0.534,0-1.017,0.215-1.366,0.563
	c-0.35,0.348-0.566,0.829-0.566,1.359c0,0.392,0.119,0.755,0.32,1.06c0.346,0.519,0.938,0.861,1.612,0.861
	c0.528,0,1.006-0.211,1.354-0.552c0.356-0.348,0.578-0.833,0.578-1.369c0-0.498-0.19-0.951-0.502-1.292
	C33.122,18.377,32.611,18.135,32.046,18.135z M32.046,12.127c-0.534,0-1.017,0.215-1.366,0.563c-0.096,0.095-0.182,0.2-0.255,0.313
	c-0.196,0.301-0.312,0.66-0.312,1.045c0,0.402,0.125,0.775,0.337,1.084c0.348,0.506,0.933,0.838,1.596,0.838
	c0.458,0,0.879-0.159,1.21-0.425c0.439-0.352,0.723-0.892,0.723-1.497c0-0.581-0.26-1.101-0.668-1.453
	C32.971,12.304,32.529,12.127,32.046,12.127z M32.046,6.12c-0.489,0-0.935,0.181-1.274,0.479c-0.403,0.352-0.658,0.868-0.658,1.443
	c0,0.39,0.117,0.752,0.318,1.055c0.344,0.522,0.939,0.867,1.614,0.867c0.431,0,0.829-0.141,1.149-0.378
	c0.475-0.35,0.783-0.911,0.783-1.544c0-0.576-0.256-1.093-0.66-1.446C32.979,6.3,32.533,6.12,32.046,6.12z M32.046,0.113
	c-0.528,0-1.008,0.211-1.356,0.553c-0.354,0.349-0.576,0.833-0.576,1.369c0,0.413,0.131,0.795,0.354,1.108
	c0.35,0.493,0.928,0.814,1.579,0.814c0.533,0,1.017-0.215,1.366-0.563c0.167-0.167,0.304-0.363,0.401-0.581
	c0.106-0.238,0.165-0.501,0.165-0.778c0-0.494-0.188-0.945-0.496-1.285C33.128,0.359,32.616,0.113,32.046,0.113z M38.068,36.156
	c-0.533,0-1.017,0.215-1.366,0.563c-0.351,0.348-0.565,0.829-0.565,1.359c0,0.431,0.143,0.829,0.383,1.15
	C36.873,39.697,37.436,40,38.068,40c0.466,0,0.894-0.164,1.228-0.438C39.727,39.21,40,38.676,40,38.078
	c0-0.494-0.188-0.943-0.494-1.284C39.152,36.402,38.639,36.156,38.068,36.156z M38.068,30.148c-0.478,0-0.914,0.172-1.252,0.457
	c-0.416,0.354-0.68,0.879-0.68,1.465c0,0.531,0.215,1.011,0.565,1.359c0.134,0.133,0.287,0.246,0.455,0.336
	c0.271,0.145,0.582,0.227,0.911,0.227c0.267,0,0.521-0.054,0.752-0.15c0.23-0.098,0.438-0.238,0.613-0.412
	C39.784,33.081,40,32.602,40,32.07l0,0c0-0.569-0.25-1.081-0.646-1.434C39.014,30.334,38.563,30.148,38.068,30.148z M38.068,24.143
	c-0.486,0-0.93,0.178-1.271,0.474c-0.405,0.352-0.661,0.87-0.661,1.448c0,0.521,0.207,0.992,0.545,1.338
	c0.351,0.359,0.842,0.582,1.385,0.582c0.578,0,1.095-0.25,1.449-0.649C39.816,26.996,40,26.551,40,26.063
	c0-0.529-0.216-1.011-0.566-1.357c-0.203-0.202-0.452-0.359-0.729-0.456C38.505,24.18,38.291,24.143,38.068,24.143z M38.068,18.135
	c-0.533,0-1.017,0.215-1.366,0.563c-0.351,0.348-0.565,0.829-0.565,1.359c0,0.516,0.204,0.985,0.537,1.33
	c0.352,0.364,0.846,0.592,1.395,0.592c0.455,0,0.875-0.158,1.205-0.42C39.716,21.206,40,20.665,40,20.057
	c0-0.53-0.216-1.011-0.564-1.358C39.085,18.35,38.602,18.135,38.068,18.135z M38.068,12.127c-0.607,0-1.149,0.279-1.504,0.715
	c-0.268,0.33-0.428,0.75-0.428,1.207c0,0.531,0.217,1.011,0.566,1.359c0.175,0.174,0.383,0.314,0.614,0.412s0.485,0.151,0.751,0.151
	c0.49,0,0.937-0.181,1.277-0.479C39.747,15.14,40,14.624,40,14.049c0-0.62-0.295-1.171-0.753-1.522
	C38.921,12.276,38.512,12.127,38.068,12.127z M38.068,6.12c-0.402,0-0.776,0.122-1.086,0.332c-0.51,0.346-0.846,0.929-0.846,1.59
	c0,0.4,0.122,0.771,0.332,1.079c0.348,0.509,0.934,0.843,1.6,0.843c0.533,0,1.016-0.215,1.365-0.563C39.784,9.053,40,8.573,40,8.042
	c0-0.634-0.309-1.197-0.785-1.547C38.895,6.259,38.498,6.12,38.068,6.12z M38.068,3.957c0.591,0,1.119-0.264,1.474-0.68
	C39.828,2.942,40,2.508,40,2.035c0-0.708-0.387-1.328-0.96-1.661c-0.286-0.166-0.618-0.26-0.972-0.26c-0.444,0-0.854,0.149-1.18,0.4
	c-0.459,0.351-0.752,0.902-0.752,1.521c0,0.487,0.182,0.932,0.481,1.271C36.973,3.705,37.491,3.957,38.068,3.957z"/>
</svg>
