<?xml version="1.0" encoding="utf-8"?>
<svg version="1.1" id="Layer_1" xmlns="http://www.w3.org/2000/svg" xmlns:xlink="http://www.w3.org/1999/xlink" x="0px" y="0px"
	 width="41px" height="25.52px" viewBox="0 0 41 25.52" enable-background="new 0 0 41 25.52" xml:space="preserve">
<path fill="#FFFFFF" stroke="#000000" d="M40.5,4.478v16.563c0,1.993-0.075,2.993-0.721,3.49c-0.556,0.431-1.536,0.486-3.257,0.486
	H4.478c-1.745,0-2.729-0.059-3.281-0.506C0.573,24.008,0.5,23.009,0.5,21.041V4.478c0-1.856,0.066-2.852,0.597-3.382
	c0.229-0.23,0.55-0.374,0.988-0.461c0.361-0.071,0.803-0.106,1.344-0.123c0.314-0.009,0.664-0.012,1.049-0.012h32.046
	c1.774,0,2.762,0.06,3.309,0.529C40.429,1.542,40.5,2.54,40.5,4.478z"/>
</svg>
