<?xml version="1.0" encoding="utf-8"?>
<svg version="1.1" id="Layer_1" xmlns="http://www.w3.org/2000/svg" xmlns:xlink="http://www.w3.org/1999/xlink" x="0px" y="0px"
	 width="41px" height="39.9px" viewBox="0 0 41 39.9" enable-background="new 0 0 41 39.9" xml:space="preserve">
<path fill="none" stroke="#1F1A17" d="M21.133,38.784
	c-0.211,0.206-0.422,0.411-0.633,0.616c-10.001-9.727-20-19.451-20-29.177c0-5.367,4.479-9.724,10-9.724
	c4.977,0,7.475,2.408,9.962,7.222c0.006,0.012,0.011,0.021,0.017,0.032c0.004,0.006,0.008,0.013,0.01,0.02
	c0.004,0.008,0.008,0.014,0.011,0.021c0.005-0.009,0.009-0.017,0.015-0.026c0.002-0.006,0.006-0.012,0.008-0.018
	c0.004-0.008,0.008-0.016,0.013-0.023c2.489-4.815,4.987-7.226,9.967-7.226c5.521,0,9.999,4.357,9.999,9.724
	C40.5,19.746,30.918,29.264,21.133,38.784"/>
</svg>
