<?xml version="1.0" encoding="utf-8"?>
<svg version="1.1"
	 id="svg2" xmlns:sodipodi="http://sodipodi.sourceforge.net/DTD/sodipodi-0.dtd" xmlns:rdf="http://www.w3.org/1999/02/22-rdf-syntax-ns#" xmlns:inkscape="http://www.inkscape.org/namespaces/inkscape" xmlns:dc="http://purl.org/dc/elements/1.1/" xmlns:svg="http://www.w3.org/2000/svg" xmlns:cc="http://creativecommons.org/ns#" inkscape:version="0.47 r22583" sodipodi:docname="New document 1"
	 xmlns="http://www.w3.org/2000/svg" xmlns:xlink="http://www.w3.org/1999/xlink" x="0px" y="0px" width="41px" height="27.074px"
	 viewBox="0 0 41 27.074" enable-background="new 0 0 41 27.074" xml:space="preserve">
<path fill="#FFFFFF" stroke="#000000" d="M11.85,10.479H0.5v-1.2h40v1.2H11.85 M0.5,13.406h40v-1.2h-40V13.406z M0.5,11.943h40v-1.2
	h-40V11.943z M6.322,0.5H0.5v1.201h40V0.5H7.262H6.322z M0.5,3.165h40V1.963h-40V3.165z M0.5,4.627h40V3.426h-40V4.627z M0.5,6.09
	h40v-1.2h-40V6.09z M0.5,22.184h40v-1.199h-40V22.184z M10.6,9.016h29.9v-1.2h-40v1.2H10.6 M0.5,7.553h40v-1.2h-40V7.553z
	 M0.5,25.111h40v-1.2h-40V25.111z M19.75,26.574H40.5v-1.2h-40v1.2H19.75 M0.5,14.87h40v-1.201h-40V14.87z M0.5,23.648h40v-1.2h-40
	V23.648z M0.5,20.721h40v-1.2h-40V20.721z M0.5,19.258h40v-1.199h-40V19.258z M0.5,16.333h40v-1.201h-40V16.333z M0.5,17.795h40
	v-1.199h-40V17.795z"/>
</svg>
