<?xml version="1.0" encoding="utf-8"?>
<!-- Generator: Adobe Illustrator 15.0.0, SVG Export Plug-In . SVG Version: 6.00 Build 0)  -->
<!DOCTYPE svg PUBLIC "-//W3C//DTD SVG 1.1//EN" "http://www.w3.org/Graphics/SVG/1.1/DTD/svg11.dtd">
<svg version="1.1" id="Layer_1" xmlns="http://www.w3.org/2000/svg" xmlns:xlink="http://www.w3.org/1999/xlink" x="0px" y="0px"
	 width="41.128px" height="25.652px" viewBox="0 0 41.128 25.652" enable-background="new 0 0 41.128 25.652" xml:space="preserve">
<path fill="none" stroke="#000000" stroke-miterlimit="10" d="M3.656,13.046c-0.727,0.542-1.504,1.247-2.097,2.104
	C0.683,16.41,0.208,18,0.887,19.877c0.523,1.445,2.405,2.976,6.126,1.193c0,0,1.097,2.801,3.601,3.042
	c1.2,0.116,2.722-0.355,4.602-2.003c0,0,1.076,2.025,3.472,2.733c1.812,0.537,4.065,0.16,6.083-0.91
	c2.432-1.291,4.518-3.593,5.07-6.519c0,0,2.801,2.042,5.475,2.104c1.184,0.025,2.321-0.266,3.078-0.93
	c1.329-1.165,1.484-3.479-1.355-7.237c0,0,3.945-0.867,3.488-4.061c-0.248-1.737-0.855-2.942-1.869-3.66
	c-1.693-1.191-4.52-1.021-8.701,0.319c-0.053,0.017-0.104,0.034-0.158,0.051c0,0-0.065-0.094-0.193-0.251
	c-0.598-0.735-2.514-2.86-4.971-3.152c-1.684-0.201-3.621,0.459-5.563,3.019c-0.177,0.233-0.354,0.482-0.53,0.748
	c-0.084,0.126-0.168,0.256-0.252,0.39c-0.046,0.073-0.091,0.146-0.135,0.218c0,0-0.083-0.091-0.236-0.236
	c-0.079-0.076-0.176-0.167-0.29-0.269c-0.132-0.117-0.288-0.251-0.463-0.392c-1.057-0.848-2.85-1.991-4.833-1.991
	c-1.976,0-4.001,0.854-5.423,2.252C5.08,6.133,4.249,8.827,5.8,11.755C5.8,11.755,4.789,12.201,3.656,13.046"/>
</svg>
