<?xml version="1.0" encoding="utf-8"?>
<svg version="1.1" id="Layer_1" xmlns="http://www.w3.org/2000/svg" xmlns:xlink="http://www.w3.org/1999/xlink" x="0px" y="0px"
	 width="70px" height="58.832px" viewBox="0 0 70 58.832" enable-background="new 0 0 70 58.832" xml:space="preserve">
<path style="fill:none" d="M34.991,11.344c1.495-10.189,28.405-13.849,31.632,6.925c0.38,17.706-21.639,31.042-31.632,36.983
	C19.805,47.434,3.428,33.609,3.438,19.213C3.45,0.322,32.827-0.853,34.991,11.344z" isFrame="true" changeable="0"/>
<path opacity="0.04" style="fill:#000000" d="M68.324,19.026C65.416-3.447,40.63-0.573,35.521,6.769
	C29.961-2.766,2.721-0.08,1.7,18.762C0.866,34.134,17.968,49.256,35.001,57.428C46.268,51.299,68.73,37.96,68.324,19.026z
	 M34.993,54.25C20.39,46.732,4.642,33.438,4.65,19.594C4.663,1.428,32.912,0.299,34.993,12.026
	c1.438-9.799,27.315-13.317,30.418,6.659C65.775,35.711,44.604,48.537,34.993,54.25z" changeable="0"/>
<path opacity="0.04" style="fill:#000000" d="M68.688,18.912C65.748-3.807,40.691-0.901,35.527,6.521
	C29.906-3.118,2.368-0.402,1.335,18.645c-0.842,15.541,16.447,30.83,33.666,39.089C46.391,51.539,69.1,38.053,68.688,18.912z
	 M34.993,54.521C20.23,46.921,4.309,33.48,4.318,19.486C4.331,1.121,32.89-0.021,34.993,11.836
	c1.452-9.905,27.614-13.463,30.751,6.731C66.113,35.779,44.708,48.747,34.993,54.521z" changeable="0"/>
<path opacity="0.04" style="fill:#000000" d="M69.041,18.803C66.068-4.153,40.751-1.218,35.534,6.281
	C29.853-3.458,2.027-0.714,0.983,18.532C0.132,34.234,17.602,49.682,35.001,58.029C46.51,51.77,69.456,38.145,69.041,18.803z
	 M34.993,54.784C20.076,47.105,3.989,33.523,3.998,19.383c0.012-18.557,28.87-19.711,30.995-7.73
	C36.462,1.644,62.896-1.95,66.064,18.455C66.438,35.846,44.811,48.948,34.993,54.784z" changeable="0"/>
<path opacity="0.04" style="fill:#000000" d="M69.35,18.706C66.352-4.458,40.805-1.496,35.539,6.071
	C29.806-3.756,1.729-0.987,0.675,18.434C-0.184,34.279,17.444,49.866,35.001,58.29C46.613,51.973,69.77,38.223,69.35,18.706z
	 M34.993,55.014C19.94,47.266,3.708,33.561,3.717,19.292c0.012-18.725,29.131-19.89,31.275-7.8
	c1.482-10.101,28.156-13.727,31.354,6.863C66.723,35.904,44.898,49.125,34.993,55.014z" changeable="0"/>
<path opacity="0.04" style="fill:#000000" d="M69.63,18.619C66.605-4.734,40.852-1.748,35.543,5.881
	C29.764-4.026,1.457-1.235,0.395,18.345c-0.866,15.973,16.906,31.688,34.606,40.18C46.709,52.156,70.052,38.294,69.63,18.619z
	 M34.993,55.223C19.818,47.411,3.453,33.596,3.462,19.209C3.474,0.331,32.831-0.842,34.993,11.346
	c1.495-10.183,28.386-13.839,31.61,6.92C66.98,35.958,44.979,49.286,34.993,55.223z" changeable="0"/>
<path opacity="0.04" style="fill:#000000" d="M69.994,18.506C66.939-5.094,40.912-2.076,35.549,5.633
	C29.709-4.378,1.104-1.558,0.031,18.228C-0.844,34.37,17.115,50.25,35.001,58.832C46.832,52.395,70.421,38.389,69.994,18.506z
	 M34.993,55.495C19.658,47.6,3.121,33.639,3.13,19.102C3.143,0.025,32.808-1.16,34.993,11.155
	c1.51-10.29,28.685-13.984,31.942,6.993C67.318,36.027,45.084,49.496,34.993,55.495z" changeable="0"/>
<linearGradient id="SVGID_1_" gradientUnits="userSpaceOnUse" x1="34.9995" y1="1.7334" x2="34.9995" y2="57.0981">
	<stop  offset="0" style="stop-color:#F5B7CB"/>
	<stop  offset="1" style="stop-color:#EB69A6"/>
</linearGradient>
<path fill="url(#SVGID_1_)" d="M67.932,19.148C65.059-3.06,40.563-0.22,35.518,7.035C30.021-2.387,3.101,0.268,2.092,18.887
	c-0.824,15.192,16.076,30.134,32.909,38.21C46.135,51.042,68.333,37.859,67.932,19.148z M34.995,52.791
	C21.244,45.713,6.415,33.193,6.423,20.157C6.435,3.052,33.036,1.989,34.995,13.031c1.354-9.227,25.72-12.54,28.643,6.27
	C63.981,35.333,44.043,47.412,34.995,52.791z" changeable="1"/>
<radialGradient id="SVGID_2_" cx="23.3203" cy="11.2031" r="38.9416" gradientUnits="userSpaceOnUse">
	<stop  offset="0" style="stop-color:#DF0884"/>
	<stop  offset="0.2021" style="stop-color:#DA0981"/>
	<stop  offset="0.4472" style="stop-color:#CB0E79"/>
	<stop  offset="0.7146" style="stop-color:#B3146C"/>
	<stop  offset="0.9961" style="stop-color:#911E5A"/>
	<stop  offset="1" style="stop-color:#901E5A"/>
</radialGradient>
<path fill="url(#SVGID_2_)" d="M11.335,6.959c0.496-0.27,1.485-0.857,1.468-1.691c-0.128-0.99-1.22-0.863-1.444-0.54
	c-0.013-0.022-0.038-0.036-0.055-0.055C10.821,4.937,10.353,5.22,9.894,5.52C10.029,6.102,10.683,6.646,11.335,6.959z M21.258,5.89
	c0.874-0.075,1.746-0.093,2.602-0.058c0.093-0.172,0.15-0.36,0.146-0.563c-0.128-0.99-1.219-0.863-1.444-0.54
	c-0.245-0.419-1.444-0.301-1.489,0.529C21.061,5.473,21.135,5.686,21.258,5.89z M5.733,14.351c0.496-0.27,1.485-0.857,1.467-1.69
	c-0.128-0.99-1.219-0.863-1.444-0.54c-0.246-0.42-1.444-0.302-1.489,0.528C4.231,13.325,4.983,13.991,5.733,14.351z M8.493,10.955
	c0.496-0.269,1.485-0.856,1.467-1.69c-0.128-0.989-1.22-0.863-1.444-0.54c-0.246-0.419-1.444-0.301-1.49,0.528
	C6.99,9.93,7.744,10.595,8.493,10.955z M19.696,3.563c0.496-0.27,1.485-0.857,1.467-1.69c-0.003-0.022-0.012-0.037-0.016-0.058
	c-0.952,0.074-1.909,0.203-2.864,0.386C18.455,2.753,19.074,3.264,19.696,3.563z M16.682,6.824c0.304-0.1,0.608-0.196,0.917-0.281
	c0.419-0.313,0.817-0.743,0.806-1.275c-0.128-0.99-1.22-0.863-1.444-0.54c-0.245-0.419-1.444-0.301-1.489,0.529
	C15.438,5.856,16.026,6.447,16.682,6.824z M9.238,37.55c0.233,0.292,0.468,0.583,0.709,0.872c0.003-0.037,0.014-0.071,0.013-0.108
	C9.894,37.8,9.568,37.591,9.238,37.55z M14.753,3.149c-0.285,0.099-0.566,0.204-0.847,0.313c0.063,0.034,0.125,0.07,0.188,0.1
	C14.273,3.466,14.517,3.326,14.753,3.149z M12.653,35.407c-0.343-0.431-0.671-0.866-0.991-1.304
	c-0.136,0.042-0.247,0.11-0.303,0.191c-0.245-0.418-1.444-0.301-1.489,0.529c-0.037,0.677,0.716,1.342,1.466,1.701
	C11.708,36.322,12.36,35.939,12.653,35.407z M5.757,26.904c-0.246-0.419-1.444-0.301-1.489,0.528
	c-0.037,0.677,0.716,1.342,1.466,1.702c0.496-0.27,1.485-0.857,1.467-1.69C7.073,26.454,5.981,26.58,5.757,26.904z M9.949,31.532
	c-0.158-0.263-0.315-0.525-0.464-0.79c-0.368-0.161-0.831-0.04-0.968,0.157c-0.246-0.42-1.444-0.302-1.49,0.528
	C6.99,32.104,7.744,32.77,8.493,33.13C8.97,32.871,9.894,32.315,9.949,31.532z M6.788,34.173c0.125,0.192,0.259,0.382,0.387,0.573
	C7.115,34.458,6.97,34.274,6.788,34.173z M2.915,23.508c-0.093-0.16-0.325-0.24-0.578-0.235c0.132,0.822,0.315,1.641,0.54,2.457
	c0.005,0.002,0.01,0.006,0.015,0.008c0.496-0.27,1.485-0.857,1.467-1.691C4.231,23.058,3.139,23.185,2.915,23.508z M4.359,16.656
	c-0.128-0.99-1.22-0.863-1.444-0.54c-0.071-0.121-0.224-0.191-0.403-0.218c-0.145,0.645-0.249,1.317-0.322,2.009
	c0.217,0.172,0.458,0.323,0.702,0.44C3.388,18.077,4.377,17.49,4.359,16.656z M5.757,19.512c-0.246-0.419-1.444-0.3-1.489,0.529
	c-0.037,0.676,0.716,1.342,1.466,1.702c0.197-0.107,0.47-0.266,0.729-0.468c-0.023-0.372-0.039-0.745-0.039-1.118
	c0-0.298,0.027-0.581,0.043-0.869C6.165,19.254,5.863,19.358,5.757,19.512z M61.842,13.561c0.496-0.27,1.486-0.857,1.468-1.69
	c-0.128-0.99-1.22-0.863-1.444-0.54c-0.208-0.356-1.096-0.32-1.39,0.204c0.465,0.608,0.895,1.265,1.278,1.979
	C61.783,13.529,61.813,13.546,61.842,13.561z M60.455,30.748c-0.199,0.348-0.403,0.692-0.618,1.033
	C60.158,31.507,60.424,31.159,60.455,30.748z M64.602,10.164c0.074-0.041,0.161-0.09,0.253-0.145
	c-0.46-0.739-0.948-1.436-1.48-2.063c-0.133,0.123-0.227,0.289-0.238,0.506C63.1,9.139,63.853,9.804,64.602,10.164z M57.553,8.672
	c0.572,0.417,1.124,0.872,1.641,1.383c0.521-0.302,1.291-0.846,1.274-1.582c-0.128-0.989-1.22-0.863-1.444-0.54
	c-0.245-0.419-1.443-0.301-1.489,0.528C57.53,8.532,57.54,8.603,57.553,8.672z M63.136,15.854c-0.036,0.677,0.717,1.342,1.466,1.703
	c0.496-0.27,1.486-0.857,1.468-1.691c-0.128-0.99-1.22-0.863-1.444-0.54C64.38,14.906,63.182,15.024,63.136,15.854z M64.602,24.948
	c0.496-0.27,1.486-0.857,1.468-1.691c-0.128-0.99-1.22-0.862-1.444-0.54c-0.178-0.305-0.855-0.321-1.232,0.008
	c-0.051,0.325-0.099,0.65-0.166,0.97C63.442,24.205,64.021,24.668,64.602,24.948z M31.228,3.372
	c-0.438-0.206-0.896-0.391-1.371-0.558c0.279,0.303,0.66,0.566,1.042,0.75C30.994,3.512,31.108,3.445,31.228,3.372z M62.631,25.893
	c-0.261,0.807-0.565,1.602-0.915,2.383c0.042,0.022,0.084,0.047,0.126,0.067c0.496-0.27,1.486-0.857,1.468-1.69
	C63.246,26.162,62.945,25.947,62.631,25.893z M35.937,10.621c0.459-0.696,1.067-1.332,1.783-1.905
	c-0.372-0.366-1.027-0.234-1.195,0.008c-0.246-0.419-1.444-0.301-1.489,0.528C35.008,9.756,35.417,10.252,35.937,10.621z
	 M34.995,13.031c0.031-0.213,0.087-0.419,0.143-0.625c-0.091-0.234-0.247-0.377-0.429-0.451
	C34.83,12.301,34.929,12.658,34.995,13.031z M33.742,6.959c0.307-0.167,0.801-0.456,1.13-0.849
	c-0.481-0.599-1.065-1.133-1.723-1.612c-0.403,0.022-0.847,0.26-0.874,0.759C32.239,5.934,32.992,6.6,33.742,6.959z M54.062,2.355
	c-0.566-0.137-1.137-0.249-1.709-0.337c0.279,0.305,0.662,0.57,1.046,0.754C53.578,2.675,53.823,2.534,54.062,2.355z M56.24,6.169
	c0.496-0.27,1.486-0.857,1.468-1.691c-0.128-0.99-1.22-0.863-1.444-0.54c-0.245-0.419-1.443-0.301-1.488,0.529
	C54.738,5.143,55.49,5.809,56.24,6.169z M46.333,5.671c0.048-0.128,0.082-0.26,0.079-0.403c-0.128-0.99-1.22-0.863-1.443-0.54
	c-0.246-0.419-1.445-0.301-1.49,0.529c-0.015,0.266,0.096,0.529,0.276,0.773C44.59,5.855,45.452,5.732,46.333,5.671z M23.858,1.752
	c-0.008,0.037-0.024,0.068-0.026,0.108c-0.037,0.677,0.716,1.342,1.465,1.702c0.465-0.252,1.353-0.788,1.449-1.54
	C25.815,1.872,24.847,1.784,23.858,1.752z M51.719,41.064c-0.657,0.586-1.325,1.153-1.998,1.708c0.263,0.251,0.589,0.47,0.918,0.628
	c0.496-0.27,1.486-0.857,1.468-1.691C52.063,41.378,51.909,41.18,51.719,41.064z M51.04,5.933c0.497-0.317,1.081-0.812,1.066-1.455
	c-0.128-0.99-1.22-0.863-1.444-0.54c-0.245-0.419-1.443-0.301-1.489,0.529c-0.025,0.472,0.337,0.937,0.812,1.299
	C50.337,5.809,50.689,5.868,51.04,5.933z M51.933,45.693c-0.008,0.143,0.026,0.283,0.081,0.422c0.435-0.349,0.866-0.702,1.295-1.062
	C52.93,44.782,51.974,44.952,51.933,45.693z M44.969,48.562c-0.246-0.42-1.445-0.302-1.49,0.528
	c-0.037,0.676,0.715,1.342,1.467,1.702c0.494-0.271,1.484-0.857,1.467-1.69C46.283,48.111,45.191,48.238,44.969,48.562z
	 M54.806,38.096c-0.566,0.588-1.146,1.163-1.739,1.726c0.109,0.066,0.22,0.129,0.332,0.183c0.496-0.27,1.485-0.857,1.468-1.69
	C54.855,38.229,54.829,38.164,54.806,38.096z M47.727,45.166c-0.116-0.2-0.451-0.274-0.774-0.21
	c-0.218,0.164-0.435,0.322-0.652,0.482c-0.032,0.077-0.057,0.16-0.062,0.255c-0.037,0.678,0.715,1.342,1.465,1.702
	c0.496-0.269,1.486-0.856,1.469-1.69C49.043,44.716,47.951,44.842,47.727,45.166z M46.244,1.926c0.012,0.654,0.734,1.289,1.46,1.637
	c0.496-0.27,1.485-0.857,1.468-1.69c-0.005-0.04-0.021-0.068-0.029-0.104C48.161,1.761,47.19,1.813,46.244,1.926z M61.865,33.504
	c-0.245-0.418-1.443-0.301-1.488,0.529c-0.037,0.678,0.715,1.342,1.465,1.701c0.177-0.097,0.417-0.234,0.652-0.409
	c0.277-0.393,0.544-0.792,0.805-1.193c0.002-0.029,0.012-0.057,0.011-0.087C63.182,33.055,62.09,33.182,61.865,33.504z
	 M65.979,26.642c-0.021,0.377,0.207,0.748,0.538,1.066c0.212-0.597,0.406-1.199,0.573-1.811
	C66.647,25.817,66.011,26.041,65.979,26.642z M56.264,41.17c-0.245-0.42-1.443-0.302-1.488,0.528
	c-0.026,0.484,0.353,0.961,0.845,1.325c0.64-0.589,1.265-1.193,1.877-1.809C57.135,40.793,56.438,40.918,56.264,41.17z
	 M64.625,30.109c-0.245-0.42-1.443-0.302-1.489,0.527c-0.033,0.628,0.614,1.243,1.306,1.618c0.423-0.753,0.806-1.521,1.16-2.301
	C65.232,29.787,64.764,29.91,64.625,30.109z M67.828,18.52c-0.161,0.039-0.298,0.11-0.361,0.202c-0.244-0.419-1.443-0.3-1.488,0.529
	c-0.037,0.676,0.715,1.342,1.465,1.702c0.13-0.07,0.294-0.164,0.464-0.277c0.022-0.505,0.035-1.013,0.024-1.527
	C67.903,18.931,67.86,18.731,67.828,18.52z M59.023,37.773c-0.245-0.419-1.443-0.301-1.489,0.528
	c-0.032,0.608,0.572,1.206,1.239,1.582c0.557-0.6,1.099-1.21,1.621-1.834C60.119,37.359,59.225,37.483,59.023,37.773z M42.103,3.563
	c0.376-0.204,1.032-0.591,1.321-1.128c-0.725,0.181-1.421,0.396-2.087,0.639C41.569,3.267,41.835,3.435,42.103,3.563z
	 M36.523,52.557c-0.119-0.202-0.46-0.276-0.785-0.208c-0.185,0.109-0.363,0.216-0.539,0.321c-0.088,0.111-0.154,0.244-0.164,0.415
	c-0.037,0.677,0.716,1.343,1.464,1.702c0.496-0.27,1.486-0.856,1.467-1.69C37.84,52.107,36.748,52.234,36.523,52.557z
	 M19.719,45.166c-0.244-0.42-1.443-0.302-1.488,0.527c-0.037,0.678,0.716,1.342,1.465,1.702c0.496-0.269,1.486-0.856,1.467-1.69
	C21.036,44.716,19.944,44.842,19.719,45.166z M22.561,48.562c-0.21-0.361-1.122-0.321-1.403,0.225
	c0.701,0.518,1.414,1.021,2.133,1.517c0.383-0.306,0.726-0.709,0.715-1.201C23.877,48.111,22.786,48.238,22.561,48.562z
	 M25.297,47.396c0.102-0.056,0.227-0.127,0.357-0.209c-0.607-0.42-1.209-0.85-1.805-1.288
	C23.953,46.503,24.624,47.072,25.297,47.396z M28.621,6.671c0.477-0.319,1-0.794,0.987-1.402c-0.128-0.99-1.22-0.863-1.444-0.54
	c-0.246-0.419-1.444-0.301-1.49,0.529c-0.02,0.356,0.183,0.708,0.486,1.016C27.66,6.387,28.15,6.515,28.621,6.671z M18.31,41.381
	c-0.139-0.126-0.279-0.253-0.417-0.38c-0.362-0.14-0.8-0.023-0.934,0.169c-0.244-0.42-1.443-0.302-1.488,0.528
	c-0.037,0.677,0.715,1.343,1.466,1.702c0.496-0.27,1.485-0.857,1.468-1.691C18.388,41.581,18.354,41.474,18.31,41.381z
	 M14.49,37.569c-0.166,0.038-0.307,0.11-0.372,0.204c-0.245-0.419-1.443-0.301-1.489,0.528c-0.036,0.677,0.717,1.343,1.466,1.702
	c0.423-0.23,1.203-0.694,1.411-1.343C15.159,38.3,14.821,37.937,14.49,37.569z M38.812,50.481c0.171,0.118,0.352,0.224,0.532,0.311
	c0.469-0.257,1.373-0.801,1.451-1.566C40.116,49.664,39.451,50.084,38.812,50.481z M12.238,40.984
	c0.168,0.177,0.339,0.354,0.511,0.529C12.653,41.218,12.46,41.054,12.238,40.984z M27.382,48.353
	c-0.35,0.071-0.684,0.307-0.708,0.737c-0.037,0.676,0.715,1.342,1.465,1.702c0.375-0.204,1.029-0.589,1.321-1.123
	C28.764,49.241,28.07,48.804,27.382,48.353z M42.125,52.557c-0.244-0.419-1.443-0.301-1.488,0.528
	c-0.013,0.234,0.073,0.467,0.217,0.687c0.73-0.437,1.48-0.896,2.238-1.372C42.725,52.238,42.263,52.359,42.125,52.557z
	 M40.811,5.269c-0.128-0.99-1.22-0.863-1.444-0.54c-0.245-0.419-1.444-0.301-1.489,0.529c-0.036,0.676,0.717,1.342,1.467,1.702
	C39.839,6.689,40.829,6.102,40.811,5.269z M33.764,55.953c-0.166-0.284-0.763-0.314-1.149-0.051c0.794,0.411,1.59,0.813,2.386,1.195
	c0.019-0.01,0.039-0.021,0.058-0.031c0.097-0.176,0.154-0.367,0.15-0.574C35.081,55.504,33.989,55.63,33.764,55.953z M30.922,52.557
	c-0.245-0.419-1.443-0.301-1.489,0.528c-0.036,0.677,0.716,1.343,1.466,1.702c0.496-0.27,1.485-0.856,1.467-1.69
	C32.239,52.107,31.147,52.234,30.922,52.557z" changeable="0"/>
</svg>
