<?xml version="1.0" encoding="utf-8"?>
<svg version="1.1" id="Layer_1" xmlns="http://www.w3.org/2000/svg" xmlns:xlink="http://www.w3.org/1999/xlink" x="0px" y="0px"
	 width="70px" height="48.234px" viewBox="0 0 70 48.234" enable-background="new 0 0 70 48.234" xml:space="preserve">
<path style="fill:none" d="M68.167,45.867h-66V2.2h66V45.867z" isFrame="true" changeable="0"/>
<path opacity="0.35" style="fill:#000000" d="M69.984,26.802c-0.103,0-0.234-0.047-0.334-0.077
	c-0.084,0.021-0.198-0.173-0.328-0.173c-0.207,0-0.389-0.278-0.596-0.271c0.412-0.343-0.277-0.794-0.186-1.235
	c0.042-0.213,0.167-0.498,0.248-0.687c0.027-0.071,0.145-0.255,0.128-0.322c-0.024-0.104-0.205-0.15-0.285-0.145
	c0.185-0.328,0.429-0.588,0.662-0.893c0.011-0.012,0.021-0.022,0.031-0.036c-0.234-0.188-0.386-0.479-0.386-0.803
	c0-0.57,0.459-1.031,1.027-1.031c0.008,0,0.016,0,0.016,0v-1.075c0,0-0.008,0-0.016,0c-0.568,0-1.027-0.462-1.027-1.031
	s0.459-1.029,1.027-1.029c0.008,0,0.016,0,0.016,0V17c0,0-0.006,0-0.014,0c-0.57,0-1.029-0.461-1.029-1.029
	c0-0.569,0.459-1.03,1.027-1.03c0.008,0,0.016,0,0.016,0v-1.385c0,0-0.006,0-0.014,0c-0.57,0-1.029-0.462-1.029-1.03
	c0-0.569,0.459-1.03,1.029-1.03c0.006,0,0.014,0.001,0.014,0.001v-1.218c0,0-0.006,0.001-0.014,0.001
	c-0.568-0.001-1.029-0.461-1.029-1.031c0-0.567,0.459-1.03,1.029-1.03c0.008,0,0.014,0.001,0.014,0.001V7
	c0,0-0.006,0.001-0.014,0.001c-0.568,0-1.029-0.462-1.029-1.03c0-0.569,0.461-1.03,1.029-1.03c0.008,0,0.014,0,0.014,0V3.862
	c0,0-0.006,0.001-0.014,0.001c-0.568,0-1.029-0.461-1.029-1.03c0-0.568,0.461-1.031,1.029-1.031c0.008,0,0.014,0.002,0.014,0.002
	V0.28h-2.758c0.01,0.034,0.017,0.101,0.017,0.163c0,0.569-0.462,1.021-1.031,1.021c-0.567,0-1.028-0.446-1.028-1.017
	c0-0.063,0.006-0.133,0.016-0.167h-1.163c0.009,0.034,0.015,0.101,0.015,0.163c0,0.569-0.461,1.021-1.029,1.021
	c-0.569,0-1.031-0.446-1.031-1.017c0-0.063,0.007-0.133,0.018-0.167H60.84c0.012,0.034,0.018,0.101,0.018,0.163
	c0,0.569-0.463,1.021-1.032,1.021c-0.568,0-1.029-0.446-1.029-1.017c0-0.063,0.006-0.133,0.017-0.167h-1.193
	c0.012,0.034,0.02,0.101,0.02,0.163c0,0.569-0.463,1.021-1.033,1.021c-0.567,0-1.027-0.446-1.027-1.017
	c0-0.063,0.005-0.133,0.015-0.167h-1.024c0.012,0.034,0.016,0.101,0.016,0.163c0,0.569-0.461,1.021-1.029,1.021
	S52.52,1.017,52.52,0.447c0-0.063,0.006-0.133,0.019-0.167h-1.222c0.011,0.034,0.017,0.101,0.017,0.163
	c0,0.569-0.461,1.021-1.031,1.021c-0.567,0-1.028-0.446-1.028-1.017c0-0.063,0.006-0.133,0.016-0.167h-1.053
	c0.01,0.034,0.016,0.101,0.016,0.163c0,0.569-0.461,1.021-1.029,1.021c-0.57,0-1.031-0.446-1.031-1.017
	c0-0.063,0.007-0.133,0.018-0.167h-1.191c0.01,0.034,0.016,0.101,0.016,0.163c0,0.569-0.461,1.021-1.031,1.021
	c-0.568,0-1.029-0.446-1.029-1.017c0-0.063,0.006-0.133,0.016-0.167h-1.247c0.01,0.034,0.016,0.101,0.016,0.163
	c0,0.569-0.461,1.021-1.03,1.021c-0.568,0-1.029-0.446-1.029-1.017c0-0.063,0.006-0.133,0.016-0.167h-1.221
	c0.01,0.034,0.016,0.101,0.016,0.163c0,0.569-0.461,1.021-1.027,1.021c-0.571,0-1.032-0.446-1.032-1.017
	c0-0.063,0.005-0.133,0.018-0.167h-1.417c0.011,0.034,0.017,0.101,0.017,0.163c0,0.569-0.462,1.021-1.031,1.021
	c-0.569,0-1.031-0.446-1.031-1.017c0-0.063,0.006-0.133,0.017-0.167H32.24c0.01,0.034,0.016,0.101,0.016,0.163
	c0,0.569-0.461,1.021-1.03,1.021c-0.57,0-1.03-0.446-1.03-1.017c0-0.063,0.005-0.133,0.016-0.167h-1.109
	c0.01,0.034,0.016,0.101,0.016,0.163c0,0.569-0.461,1.021-1.03,1.021c-0.542,0-0.985-0.42-1.027-0.949
	c-0.369,0.123-0.745,0.218-1.113,0.335c-0.16,0.358-0.521,0.607-0.941,0.607c-0.392,0-0.733-0.218-0.907-0.539
	c-0.091-0.035-0.185-0.07-0.281-0.104c-0.273-0.096-0.578-0.168-0.837-0.326c-0.063-0.039-0.129-0.075-0.195-0.11
	c0,0.017,0,0.033,0,0.051c0,0.568-0.46,1.027-1.03,1.027c-0.568,0-1.03-0.442-1.03-1.012c0-0.063,0.006-0.13,0.016-0.164h-1.165
	c0.01,0.034,0.016,0.101,0.016,0.163c0,0.569-0.461,1.021-1.03,1.021s-1.03-0.446-1.03-1.017c0-0.063,0.006-0.133,0.016-0.167
	h-1.053c0.011,0.034,0.016,0.101,0.016,0.163c0,0.569-0.461,1.021-1.03,1.021c-0.569,0-1.03-0.446-1.03-1.017
	c0-0.063,0.006-0.133,0.016-0.167h-1.137c0.011,0.034,0.016,0.101,0.016,0.163c0,0.569-0.461,1.021-1.03,1.021
	c-0.569,0-1.031-0.446-1.031-1.017c0-0.063,0.006-0.133,0.016-0.167H9.943c0.011,0.034,0.016,0.101,0.016,0.163
	c0,0.569-0.46,1.021-1.03,1.021c-0.568,0-1.03-0.446-1.03-1.017c0-0.063,0.006-0.133,0.016-0.167H7.058
	c0.011,0.034,0.017,0.101,0.017,0.163c0,0.569-0.461,1.021-1.031,1.021c-0.568,0-1.03-0.446-1.03-1.017
	c0-0.063,0.006-0.133,0.016-0.167H3.585c0.01,0.034,0.016,0.101,0.016,0.163c0,0.569-0.462,1.021-1.03,1.021
	c-0.569,0-1.03-0.446-1.03-1.017c0-0.063,0.006-0.133,0.016-0.167H0.07v1.523c0,0,0.005,0,0.006,0c0.569,0,1.031,0.462,1.031,1.031
	c0,0.568-0.467,1.031-1.036,1.031c-0.001,0-0.001,0-0.001,0V4.94c0,0,0.005,0,0.006,0c0.569,0,1.031,0.461,1.031,1.031
	c0,0.568-0.463,1.029-1.032,1.029c-0.001,0-0.005,0-0.005,0v1.216c0,0,0.005,0,0.006,0c0.569,0,1.031,0.462,1.031,1.03
	c0,0.57-0.463,1.03-1.032,1.03c-0.001,0-0.005,0-0.005,0v1.217c0,0,0.005,0,0.006,0c0.569,0,1.031,0.46,1.031,1.029
	s-0.463,1.031-1.032,1.031c-0.001,0-0.005,0-0.005,0v1.384c0,0,0.005,0,0.006,0c0.569,0,1.031,0.461,1.031,1.03
	s-0.463,1.03-1.032,1.03c-0.001,0-0.005,0-0.005,0v0.992c0,0,0.005,0,0.006,0c0.569,0,1.031,0.46,1.031,1.03
	c0,0.568-0.463,1.029-1.032,1.029c-0.001,0-0.005,0-0.005,0v1.077c0,0,0.005-0.001,0.006-0.001c0.569,0,1.031,0.462,1.031,1.031
	s-0.463,1.031-1.032,1.031c-0.001,0-0.005,0-0.005,0v1.048c0,0,0.005,0,0.006,0c0.569,0,1.031,0.461,1.031,1.031
	c0,0.567-0.463,1.028-1.032,1.028c-0.001,0-0.005,0-0.005,0v1.302c0,0,0.005,0,0.006,0c0.569,0,1.031,0.462,1.031,1.03
	s-0.463,1.029-1.032,1.029c-0.001,0-0.005,0-0.005,0v0.825c0,0,0.005,0,0.006,0c0.569,0,1.031,0.466,1.031,1.034
	s-0.463,1.034-1.032,1.034c-0.001,0-0.005,0-0.005,0v1.208c0,0,0.005,0,0.006,0c0.569,0,1.031,0.468,1.031,1.034
	c0,0.57-0.467,1.037-1.036,1.037c-0.001,0-0.001,0-0.001,0v1.318c0,0,0.005,0,0.006,0c0.569,0,1.031,0.461,1.031,1.029
	c0,0.569-0.463,1.03-1.032,1.03c-0.001,0-0.005,0-0.005,0v1.076c0,0,0.005,0,0.006,0c0.569,0,1.031,0.465,1.031,1.033
	c0,0.57-0.467,1.035-1.036,1.035c-0.001,0-0.001,0-0.001,0v0.983c0,0,0.005,0,0.006,0c0.569,0,1.031,0.461,1.031,1.03
	c0,0.38-0.207,0.714-0.514,0.892c0.009,0.015,0.016,0.027,0.024,0.039c0.234,0.373,0.521,0.746,0.677,1.164
	c0.141,0.377,0.137,0.771,0.357,1.111c0.19-0.232,0.48-0.373,0.807-0.373c0.565,0,1.024,0.486,1.03,1.031h1.414
	c0.007-0.545,0.466-1.017,1.03-1.017s1.022,0.472,1.03,1.017h0.825c0.007-0.545,0.465-1.017,1.03-1.017
	c0.564,0,1.022,0.472,1.03,1.017h1.329c0.007-0.545,0.466-1.017,1.03-1.017s1.022,0.472,1.03,1.017h1.105
	c0.007-0.545,0.465-1.017,1.03-1.017s1.023,0.472,1.03,1.017h1.021c0.008-0.545,0.466-1.017,1.03-1.017
	c0.565,0,1.023,0.472,1.03,1.017h1.133c0.007-0.545,0.465-1.017,1.03-1.017c0.564,0,1.022,0.472,1.03,1.017h1.189
	c0.006-0.545,0.465-1.017,1.03-1.017s1.022,0.472,1.03,1.017h1.021c0.007-0.545,0.465-1.017,1.03-1.017
	c0.564,0,1.022,0.472,1.03,1.017h1.077c0.007-0.545,0.465-1.017,1.03-1.017s1.023,0.472,1.03,1.017h0.741
	c0.007-0.545,0.465-1.017,1.03-1.017s1.023,0.472,1.03,1.017h1.385c0.008-0.545,0.464-1.017,1.027-1.017
	c0.567,0,1.024,0.472,1.033,1.017h1.188c0.006-0.545,0.465-1.017,1.028-1.017c0.564,0,1.023,0.472,1.029,1.017h1.219
	c0.006-0.545,0.465-1.017,1.029-1.017s1.024,0.472,1.029,1.017h1.162c0.008-0.545,0.465-1.017,1.029-1.017s1.022,0.472,1.03,1.017
	h0.781c0.081-0.033,0.162-0.06,0.242-0.08c0.041-0.529,0.485-0.957,1.028-0.957c0.406,0,0.758,0.234,0.926,0.578
	c0.521-0.072,1.046-0.162,1.572-0.258c0.188-0.199,0.453-0.326,0.752-0.326c0.156,0,0.308,0.035,0.441,0.1
	c0.129-0.022,0.259-0.05,0.387-0.074c0.334-0.063,0.67-0.176,1.004-0.217c0.15-0.02,0.312,0.017,0.461,0.004
	c0.144-0.012,0.345-0.102,0.463-0.082c0.158,0.023,0.343,0.17,0.509,0.291c0.209,0.043,0.393,0.15,0.534,0.301
	c0.164,0.095,0.322,0.207,0.397,0.355c0.103,0.201,0.024,0.279-0.118,0.314c0.002,0.012,0.002,0.018,0.002,0.051h1.164
	c0.004-0.545,0.463-1.017,1.027-1.017s1.023,0.472,1.029,1.017h1.135c0.006-0.545,0.465-1.017,1.029-1.017
	c0.563,0,1.023,0.472,1.029,1.017h1.135c0.006-0.545,0.465-1.017,1.029-1.017c0.563,0,1.022,0.472,1.028,1.017h2.039
	c0.604,0.035,0.885-0.236,0.815-0.817v-2.011c0,0-0.012,0-0.018,0c-0.568,0-1.029-0.461-1.029-1.032
	c0-0.566,0.459-1.028,1.029-1.028c0.006,0,0.018,0,0.018,0v-0.993c0,0.002-0.009,0.002-0.018,0.002
	c-0.568,0-1.029-0.463-1.029-1.031s0.461-1.029,1.029-1.029c0.006,0,0.018,0,0.018,0v-1.078c0,0-0.009,0-0.018,0
	c-0.568,0-1.027-0.461-1.027-1.028c0-0.57,0.459-1.031,1.027-1.031c0.006,0,0.018,0.002,0.018,0.002v-1.33c0,0-0.009,0-0.016,0
	c-0.57,0-1.029-0.461-1.029-1.032c0-0.565,0.459-1.026,1.027-1.026c0.009,0,0.018,0,0.018,0v-1.218c0,0-0.009,0-0.016,0
	c-0.57,0-1.029-0.461-1.029-1.029c0-0.571,0.459-1.031,1.027-1.031c0.009,0,0.018,0,0.018,0.001v-0.825c0,0-0.009,0-0.016,0
	c-0.568,0-1.029-0.461-1.029-1.03c0-0.568,0.459-1.029,1.029-1.029c0.007,0,0.016,0,0.016,0v-0.628
	C69.984,26.973,70.02,26.802,69.984,26.802z M34.155,45.329c-0.108,0.033-0.216,0.105-0.325,0.158
	c-0.137,0.066-0.275,0.121-0.412,0.193c-0.086,0.045-0.18,0.094-0.273,0.126c-0.074,0.027-0.146,0.044-0.216,0.087
	c-0.057,0.032-0.1,0.075-0.164,0.092c0.091-0.064,0.128-0.24,0.164-0.342c0.039-0.105,0.099-0.213,0.157-0.314H2.871V3.08h64.262
	l0.381,42.249H34.155z" changeable="0"/>
<path style="fill:#E8E7C3" d="M69.916,26.55c-0.102,0-0.238-0.047-0.338-0.079c-0.084,0.022-0.203-0.171-0.331-0.171
	c-0.208,0-0.39-0.278-0.597-0.271c0.41-0.343-0.276-0.794-0.188-1.235c0.046-0.213,0.168-0.499,0.248-0.687
	c0.029-0.071,0.146-0.254,0.129-0.321c-0.023-0.104-0.205-0.151-0.285-0.145c0.184-0.328,0.428-0.589,0.662-0.894
	c0.012-0.012,0.021-0.024,0.032-0.036c-0.235-0.188-0.386-0.479-0.386-0.803c0-0.57,0.465-1.03,1.033-1.03c0.006,0,0.02,0,0.02,0
	V19.8c0,0.001-0.014,0.001-0.02,0.001c-0.568,0-1.031-0.461-1.031-1.03c0-0.568,0.463-1.029,1.031-1.029c0.006,0,0.02,0,0.02,0
	v-0.994c0,0.001-0.014,0.001-0.02,0.001c-0.568,0-1.031-0.462-1.031-1.03s0.463-1.029,1.033-1.029c0.006,0,0.018,0.001,0.018,0.001
	v-1.388c0,0.002-0.014,0.002-0.02,0.002c-0.568,0-1.031-0.462-1.031-1.03c0-0.569,0.463-1.03,1.033-1.03
	c0.006,0,0.018,0,0.018,0.001v-1.217c0,0-0.014,0-0.018,0c-0.57,0-1.031-0.462-1.031-1.03c0-0.57,0.463-1.031,1.031-1.031
	c0.006,0,0.018,0.001,0.018,0.001V6.748c0,0-0.012,0-0.018,0c-0.57,0-1.031-0.462-1.031-1.03s0.463-1.029,1.031-1.029
	c0.006,0,0.018,0.001,0.018,0.001V3.611c0,0-0.012,0-0.018,0c-0.568,0-1.031-0.461-1.031-1.03c0-0.568,0.463-1.031,1.031-1.031
	c0.006,0,0.018,0.001,0.018,0.001V0.235c0-0.167-0.063-0.262-0.299-0.229h-2.469c0.01,0.068,0.016,0.111,0.016,0.174
	c0,0.568-0.461,1.025-1.028,1.025c-0.571,0-1.032-0.455-1.032-1.023c0-0.063,0.006-0.107,0.018-0.176h-1.165
	c0.011,0.068,0.017,0.111,0.017,0.174c0,0.568-0.461,1.025-1.029,1.025c-0.57,0-1.031-0.455-1.031-1.023
	c0-0.063,0.006-0.107,0.016-0.176h-1.164c0.01,0.068,0.016,0.111,0.016,0.174c0,0.568-0.461,1.025-1.028,1.025
	c-0.569,0-1.031-0.455-1.031-1.023c0-0.063,0.007-0.107,0.017-0.176h-1.191c0.01,0.068,0.016,0.111,0.016,0.174
	c0,0.568-0.461,1.025-1.031,1.025c-0.566,0-1.028-0.455-1.028-1.023c0-0.063,0.007-0.107,0.017-0.176h-1.025
	c0.012,0.068,0.018,0.111,0.018,0.174c0,0.568-0.463,1.025-1.031,1.025c-0.567,0-1.028-0.455-1.028-1.023
	c0-0.063,0.006-0.107,0.016-0.176h-1.22c0.009,0.068,0.015,0.111,0.015,0.174c0,0.568-0.461,1.025-1.03,1.025
	c-0.568,0-1.029-0.455-1.029-1.023c0-0.063,0.006-0.107,0.016-0.176h-1.053c0.01,0.068,0.016,0.111,0.016,0.174
	c0,0.568-0.461,1.025-1.029,1.025c-0.567,0-1.03-0.455-1.03-1.023c0-0.063,0.006-0.107,0.019-0.176h-1.193
	c0.011,0.068,0.016,0.111,0.016,0.174c0,0.568-0.46,1.025-1.029,1.025c-0.57,0-1.031-0.455-1.031-1.023
	c0-0.063,0.007-0.107,0.017-0.176h-1.248c0.011,0.068,0.017,0.111,0.017,0.174c0,0.568-0.461,1.025-1.029,1.025
	c-0.57,0-1.031-0.455-1.031-1.023c0-0.063,0.006-0.107,0.016-0.176h-1.22c0.011,0.068,0.017,0.111,0.017,0.174
	c0,0.568-0.463,1.025-1.029,1.025c-0.569,0-1.032-0.455-1.032-1.023c0-0.063,0.006-0.107,0.017-0.176h-1.417
	c0.011,0.068,0.017,0.111,0.017,0.174c0,0.568-0.46,1.025-1.031,1.025c-0.569,0-1.03-0.455-1.03-1.023
	c0-0.063,0.006-0.107,0.016-0.176h-0.772c0.01,0.068,0.016,0.111,0.016,0.174c0,0.568-0.461,1.025-1.03,1.025
	c-0.569,0-1.031-0.455-1.031-1.023c0-0.063,0.006-0.107,0.017-0.176h-1.109c0.01,0.068,0.016,0.111,0.016,0.174
	c0,0.568-0.461,1.025-1.03,1.025c-0.542,0-0.986-0.417-1.027-0.947c-0.369,0.123-0.745,0.222-1.113,0.337
	c-0.161,0.359-0.521,0.608-0.941,0.608c-0.392,0-0.732-0.216-0.907-0.538c-0.092-0.035-0.186-0.07-0.281-0.104
	c-0.273-0.096-0.579-0.167-0.837-0.325c-0.064-0.039-0.129-0.075-0.196-0.111c0.001,0.018,0.001,0.033,0.001,0.05
	c0,0.569-0.462,1.028-1.03,1.028c-0.57,0-1.03-0.454-1.03-1.022c0-0.063,0.005-0.106,0.016-0.175h-1.165
	c0.01,0.068,0.016,0.111,0.016,0.174c0,0.568-0.461,1.025-1.03,1.025S17.47,0.751,17.47,0.182c0-0.063,0.006-0.107,0.017-0.176
	H16.42c0.01,0.068,0.016,0.111,0.016,0.174c0,0.568-0.462,1.025-1.03,1.025c-0.57,0-1.031-0.455-1.031-1.023
	c0-0.063,0.005-0.107,0.017-0.176h-1.137c0.01,0.068,0.016,0.111,0.016,0.174c0,0.568-0.461,1.025-1.03,1.025
	c-0.569,0-1.03-0.455-1.03-1.023c0-0.063,0.005-0.107,0.016-0.176H9.866c0.01,0.068,0.016,0.111,0.016,0.174
	c0,0.568-0.462,1.025-1.03,1.025c-0.57,0-1.03-0.455-1.03-1.023c0-0.063,0.005-0.107,0.016-0.176H6.98
	C6.99,0.075,6.997,0.118,6.997,0.18c0,0.568-0.461,1.025-1.03,1.025c-0.569,0-1.03-0.455-1.03-1.023
	c0-0.063,0.005-0.107,0.016-0.176H3.507C3.518,0.075,3.523,0.118,3.523,0.18c0,0.568-0.461,1.025-1.03,1.025
	c-0.569,0-1.031-0.455-1.031-1.023c0-0.063,0.006-0.107,0.017-0.176H0.301C0.028-0.009-0.012,0.093,0.002,0.469v1.082
	c0,0-0.001,0,0,0c0.569,0,1.029,0.463,1.029,1.03c0,0.569-0.459,1.03-1.028,1.03c-0.001,0-0.001,0-0.001,0v1.077c0,0-0.001,0,0,0
	c0.569,0,1.029,0.461,1.029,1.028c0,0.57-0.459,1.031-1.028,1.031c-0.001,0-0.001,0-0.001,0v1.217c0,0-0.001,0,0,0
	c0.569,0,1.029,0.461,1.029,1.03c0,0.57-0.459,1.031-1.028,1.031c-0.001,0-0.001,0-0.001,0v1.216c0,0-0.001,0,0,0
	c0.569,0,1.029,0.461,1.029,1.029c0,0.569-0.459,1.03-1.028,1.03c-0.001,0-0.001,0-0.001,0v1.386c0,0-0.001,0,0,0
	c0.569,0,1.029,0.457,1.029,1.025c0,0.57-0.46,1.027-1.029,1.027l0,0v0.999c0,0-0.001,0,0,0c0.569,0,1.029,0.461,1.029,1.03
	s-0.459,1.029-1.028,1.029c-0.001,0-0.001,0-0.001,0v1.077c0,0-0.001,0,0,0c0.569,0,1.029,0.461,1.029,1.031
	c0,0.568-0.459,1.029-1.028,1.029c-0.001,0-0.001,0-0.001,0v1.049c0,0-0.001,0,0,0c0.569,0,1.029,0.462,1.029,1.031
	c0,0.567-0.459,1.028-1.028,1.028c-0.001,0-0.001,0-0.001,0v1.302c0,0-0.001,0,0,0c0.569,0,1.029,0.461,1.029,1.03
	c0,0.568-0.459,1.029-1.028,1.029c-0.001,0-0.001,0-0.001,0v0.825c0,0-0.001-0.001,0-0.001c0.569,0,1.029,0.462,1.029,1.029
	c0,0.57-0.459,1.031-1.028,1.031c-0.001,0-0.001,0-0.001,0v1.217c0,0-0.001,0,0,0c0.569,0,1.029,0.461,1.029,1.03
	c0,0.567-0.459,1.029-1.028,1.029c-0.001,0-0.001,0-0.001,0v1.33c0,0-0.001,0,0,0c0.569,0,1.029,0.461,1.029,1.028
	s-0.459,1.031-1.028,1.031c-0.001,0-0.001,0-0.001,0v1.075c0,0-0.001,0,0,0c0.569,0,1.029,0.462,1.029,1.03
	c0,0.569-0.459,1.03-1.028,1.03c-0.001,0-0.001,0-0.001,0v0.992c0,0-0.001,0,0,0c0.569,0,1.029,0.461,1.029,1.031
	c0,0.379-0.207,0.711-0.515,0.891c0.009,0.015,0.016,0.027,0.023,0.039c0.235,0.373,0.521,0.746,0.677,1.164
	c0.14,0.377,0.138,0.771,0.357,1.111c0.188-0.238,0.479-0.389,0.807-0.389c0.564,0,1.022,0.438,1.03,1.021h1.413
	c0.008-0.582,0.465-1.018,1.03-1.018s1.023,0.436,1.03,1.018h0.826c0.007-0.582,0.465-1.018,1.029-1.018
	c0.565,0,1.023,0.436,1.03,1.018h1.329c0.008-0.582,0.466-1.018,1.03-1.018c0.565,0,1.023,0.436,1.03,1.018h1.106
	c0.007-0.582,0.465-1.018,1.03-1.018s1.023,0.436,1.03,1.018h1.021c0.006-0.582,0.465-1.018,1.03-1.018
	c0.564,0,1.022,0.436,1.03,1.018h1.133c0.007-0.582,0.465-1.018,1.03-1.018s1.023,0.436,1.03,1.018h1.189
	c0.008-0.582,0.466-1.018,1.03-1.018c0.565,0,1.023,0.436,1.03,1.018h1.021c0.007-0.582,0.465-1.018,1.03-1.018
	s1.023,0.436,1.03,1.018h1.077c0.007-0.582,0.465-1.018,1.03-1.018s1.023,0.436,1.03,1.018h0.741
	c0.007-0.582,0.465-1.018,1.031-1.018c0.564,0,1.023,0.436,1.029,1.018h1.385c0.008-0.582,0.467-1.018,1.029-1.018
	c0.566,0,1.022,0.436,1.031,1.018h1.188c0.006-0.582,0.465-1.018,1.028-1.018c0.564,0,1.024,0.436,1.031,1.018h1.219
	c0.005-0.582,0.464-1.018,1.027-1.018c0.564,0,1.023,0.436,1.032,1.018H46c0.008-0.582,0.465-1.018,1.031-1.018
	c0.564,0,1.021,0.436,1.029,1.018h0.78c0.08,0,0.162-0.049,0.242-0.072c0.043-0.528,0.485-0.95,1.026-0.95
	c0.408,0,0.761,0.237,0.929,0.582c0.521-0.074,1.045-0.162,1.571-0.259c0.188-0.198,0.453-0.325,0.75-0.325
	c0.158,0,0.31,0.036,0.443,0.102c0.129-0.023,0.258-0.049,0.387-0.074c0.336-0.063,0.67-0.177,1.004-0.217
	c0.15-0.021,0.313,0.016,0.461,0.004c0.144-0.012,0.345-0.102,0.466-0.084c0.155,0.023,0.342,0.172,0.506,0.293
	c0.209,0.043,0.396,0.15,0.535,0.301c0.164,0.095,0.321,0.207,0.396,0.355c0.103,0.201,0.025,0.268-0.115,0.303
	c0,0.014,0,0.043,0,0.043h1.162c0.006-0.582,0.467-1.018,1.029-1.018c0.564,0,1.023,0.436,1.031,1.018H61.8
	c0.005-0.582,0.464-1.018,1.028-1.018s1.023,0.436,1.031,1.018h1.133c0.006-0.582,0.465-1.018,1.029-1.018s1.023,0.436,1.03,1.018
	h2.351c0.379,0,0.549-0.145,0.514-0.543v-2.266c0,0-0.016,0-0.021,0c-0.569,0-1.029-0.461-1.029-1.031
	c0-0.568,0.462-1.029,1.029-1.029c0.006,0,0.021,0,0.021,0v-0.994c0,0-0.016,0.002-0.021,0.002c-0.569,0-1.029-0.463-1.029-1.03
	c0-0.568,0.462-1.03,1.029-1.03c0.008,0,0.021,0,0.021,0V38.96c0,0-0.016,0-0.021,0c-0.567,0-1.029-0.462-1.029-1.028
	c0-0.57,0.462-1.031,1.029-1.031c0.008,0,0.021,0,0.021,0v-1.328c0,0-0.016,0-0.021,0c-0.567,0-1.029-0.462-1.029-1.031
	c0-0.566,0.462-1.027,1.029-1.027c0.008,0,0.021,0,0.021,0v-1.218c0,0-0.014,0-0.021,0c-0.567,0-1.029-0.461-1.029-1.031
	c0-0.568,0.462-1.029,1.031-1.029c0.006,0,0.021,0,0.021,0v-0.824c0,0-0.015,0-0.021,0c-0.568,0-1.03-0.461-1.03-1.03
	c0.001-0.568,0.462-1.029,1.032-1.029c0.006,0,0.02,0,0.02,0V26.72C69.916,26.721,69.916,26.55,69.916,26.55z M34.077,45.091
	c-0.108,0.033-0.216,0.101-0.325,0.152c-0.137,0.066-0.274,0.115-0.411,0.188c-0.087,0.047-0.181,0.094-0.274,0.127
	c-0.074,0.026-0.146,0.043-0.215,0.084c-0.057,0.034-0.101,0.075-0.165,0.092c0.091-0.064,0.127-0.234,0.165-0.334
	c0.038-0.105,0.098-0.24,0.157-0.31H2.803V2.808h64.251l0.381,42.282H34.077z" changeable="1"/>
</svg>
