<?xml version="1.0" encoding="utf-8"?>
<svg version="1.1" id="Layer_1" xmlns="http://www.w3.org/2000/svg" xmlns:xlink="http://www.w3.org/1999/xlink" x="0px" y="0px"
	 width="70px" height="54.271px" viewBox="0 0 70 54.271" enable-background="new 0 0 70 54.271" xml:space="preserve">
<path style="fill:none" d="M67.507,33.127c-1.053-3.572-2.104-7.145-3.157-10.717l0,0c-0.18-0.608-0.357-1.214-0.534-1.818
	c-1.255-4.262-2.511-8.526-3.766-12.787c-0.628-2.133-1.256-4.267-1.886-6.399c-0.002-0.012-0.006-0.026-0.011-0.038
	c-8.537,3.672-17.38,6.617-26.451,8.659c-9,2.027-18.181,3.187-27.39,3.647c-1.255,0.063-2.512,0.113-3.769,0.15
	c0.311,1.914,0.621,3.827,0.932,5.741c0.692,4.272,1.385,8.544,2.078,12.817c0.17,1.045,0.339,2.092,0.508,3.138l0,0
	c0.025,0.16,0.052,0.318,0.077,0.479l0,0c0.522,3.22,1.045,6.441,1.566,9.661c0.386,2.377,0.771,4.754,1.157,7.131
	c0.007,0.044,0.014,0.086,0.021,0.13c9.071-1.58,18.114-3.331,27.111-5.296c9.184-2.005,18.314-4.232,27.387-6.684
	c2.602-0.703,5.196-1.423,7.79-2.158C68.615,36.896,68.061,35.011,67.507,33.127z" isFrame="true" changeable="0"/>
<radialGradient id="SVGID_1_" cx="358.125" cy="-462.4768" r="217.5889" fx="343.4139" fy="-546.1182" gradientTransform="matrix(1 0 0 -1 -271 -305.729)" gradientUnits="userSpaceOnUse">
	<stop  offset="0.226" style="stop-color:#FFFFFF"/>
	<stop  offset="0.4259" style="stop-color:#D0D2D5"/>
	<stop  offset="0.6997" style="stop-color:#9EA6AD"/>
	<stop  offset="0.7683" style="stop-color:#8C939B"/>
	<stop  offset="0.8968" style="stop-color:#666E76"/>
	<stop  offset="1" style="stop-color:#46515A"/>
</radialGradient>
<path fill="url(#SVGID_1_)" d="M68.445,34.196c-1.161-3.908-2.323-7.814-3.484-11.72c-0.148,0.04-0.299,0.067-0.454,0.067
	c-0.325,0-0.646-0.095-0.922-0.265c0.024,0.08,0.048,0.161,0.072,0.241c1.026,3.488,2.054,6.978,3.082,10.466
	c0.541,1.841,1.081,3.681,1.626,5.521c-2.531,0.719-5.066,1.421-7.606,2.107c-8.86,2.395-17.777,4.571-26.743,6.528
	C25.23,49.06,16.4,50.77,7.542,52.314c-0.007-0.043-0.014-0.085-0.021-0.128c-0.376-2.321-0.752-4.641-1.128-6.962
	c-0.51-3.146-1.021-6.292-1.53-9.436l0,0c-0.014-0.086-0.028-0.173-0.043-0.259c-0.209,0.254-0.496,0.449-0.853,0.548
	c-0.091,0.024-0.185,0.04-0.28,0.049c0.416,2.602,0.83,5.201,1.245,7.802c0.473,2.966,0.946,5.931,1.42,8.896
	c0.055,0.345,0.11,0.691,0.166,1.036c8.79-1.559,17.553-3.272,26.277-5.164c8.985-1.948,17.925-4.096,26.813-6.443
	c3.473-0.915,6.934-1.862,10.392-2.832C69.481,37.678,68.963,35.938,68.445,34.196z" changeable="1"/>
<radialGradient id="SVGID_2_" cx="348.6055" cy="-387.6702" r="133.7922" fx="315.8645" fy="-445.0209" gradientTransform="matrix(1 0 0 -1 -271 -305.729)" gradientUnits="userSpaceOnUse">
	<stop  offset="0.226" style="stop-color:#FFFFFF"/>
	<stop  offset="0.4259" style="stop-color:#D0D2D5"/>
	<stop  offset="0.6997" style="stop-color:#9EA6AD"/>
	<stop  offset="0.7683" style="stop-color:#8C939B"/>
	<stop  offset="0.8968" style="stop-color:#666E76"/>
	<stop  offset="1" style="stop-color:#46515A"/>
</radialGradient>
<path fill="url(#SVGID_2_)" d="M4.863,35.789L4.863,35.789c-0.026-0.155-0.051-0.311-0.077-0.467
	C4.621,34.3,4.455,33.279,4.29,32.258c-0.676-4.173-1.352-8.343-2.029-12.514c-0.303-1.868-0.606-3.738-0.909-5.607
	c1.228-0.036,2.455-0.084,3.68-0.146c8.992-0.45,17.959-1.582,26.746-3.562c8.857-1.994,17.491-4.87,25.828-8.457
	c0.004,0.013,0.008,0.025,0.013,0.037c0.613,2.083,1.226,4.166,1.84,6.25c1.226,4.161,2.451,8.324,3.678,12.484
	c0.174,0.592,0.348,1.184,0.522,1.776c0.005,0.017,0.009,0.033,0.015,0.048c0.445,0.026,0.894,0.051,1.341,0.082
	c-0.034-0.119-0.069-0.236-0.105-0.355c-1.279-4.302-2.559-8.603-3.837-12.905c-0.817-2.749-1.634-5.496-2.451-8.243
	c-0.072-0.246-0.146-0.491-0.219-0.736C50.083,4.1,41.453,7.076,32.588,9.142c-8.828,2.059-17.846,3.236-26.895,3.7
	c-1.896,0.096-3.791,0.163-5.688,0.197c0.284,1.774,0.566,3.548,0.849,5.323c0.648,4.062,1.296,8.125,1.944,12.188
	c0.313,1.955,0.625,3.91,0.937,5.866c0.375-0.21,0.753-0.415,1.13-0.621C4.864,35.795,4.864,35.792,4.863,35.789z" changeable="1"/>
<radialGradient id="SVGID_3_" cx="102.6045" cy="-208.9841" r="114.4256" fx="74.1434" fy="-283.1618" gradientTransform="matrix(0.9816 0.1908 0.1908 -0.9816 -28.6881 -197.4807)" gradientUnits="userSpaceOnUse">
	<stop  offset="0.226" style="stop-color:#FFFFFF"/>
	<stop  offset="0.4259" style="stop-color:#D0D2D5"/>
	<stop  offset="0.6997" style="stop-color:#9EA6AD"/>
	<stop  offset="0.7683" style="stop-color:#8C939B"/>
	<stop  offset="0.8968" style="stop-color:#666E76"/>
	<stop  offset="1" style="stop-color:#46515A"/>
</radialGradient>
<path fill="url(#SVGID_3_)" d="M68.647,34.597c0.564,1.9,0.903,3.112,1.303,4.584c0,0,0.063,0.235,0.048,0.239
	c-0.015,0.004-0.09-0.226-0.09-0.226c-0.469-1.454-0.846-2.651-1.413-4.554L59.751,5.233c-0.563-1.902-0.903-3.111-1.302-4.585
	c0,0-0.064-0.233-0.049-0.239c0.016-0.004,0.091,0.227,0.091,0.227c0.47,1.453,0.847,2.651,1.413,4.552L68.647,34.597z" changeable="1"/>
<radialGradient id="SVGID_4_" cx="52.7803" cy="-234.9109" r="86.837" fx="31.1814" fy="-291.2039" gradientTransform="matrix(0.9816 0.1908 0.1908 -0.9816 -28.6881 -197.4807)" gradientUnits="userSpaceOnUse">
	<stop  offset="0.226" style="stop-color:#FFFFFF"/>
	<stop  offset="0.4259" style="stop-color:#D0D2D5"/>
	<stop  offset="0.6997" style="stop-color:#9EA6AD"/>
	<stop  offset="0.7683" style="stop-color:#8C939B"/>
	<stop  offset="0.8968" style="stop-color:#666E76"/>
	<stop  offset="1" style="stop-color:#46515A"/>
</radialGradient>
<path fill="url(#SVGID_4_)" d="M0.727,18.076c-0.316-1.989-0.497-3.251-0.705-4.79c0,0-0.033-0.242-0.018-0.245
	c0.016-0.002,0.06,0.239,0.06,0.239c0.28,1.525,0.501,2.783,0.82,4.771l4.91,30.774c0.316,1.989,0.499,3.253,0.706,4.789
	c0,0,0.032,0.243,0.018,0.245c-0.017,0.003-0.06-0.238-0.06-0.238c-0.281-1.525-0.502-2.783-0.821-4.771L0.727,18.076z" changeable="1"/>
<radialGradient id="SVGID_5_" cx="174.6328" cy="-349.1765" r="194.8306" fx="100.5499" fy="-491.2238" gradientTransform="matrix(0.9816 0.1908 0.1908 -0.9816 -28.6881 -197.4807)" gradientUnits="userSpaceOnUse">
	<stop  offset="0.226" style="stop-color:#FFFFFF"/>
	<stop  offset="0.4259" style="stop-color:#D0D2D5"/>
	<stop  offset="0.6997" style="stop-color:#9EA6AD"/>
	<stop  offset="0.7683" style="stop-color:#8C939B"/>
	<stop  offset="0.8968" style="stop-color:#666E76"/>
	<stop  offset="1" style="stop-color:#46515A"/>
</radialGradient>
<path fill="url(#SVGID_5_)" d="M51.532,3.166c2.723-1.08,4.429-1.812,6.529-2.637c0,0,0.333-0.133,0.339-0.12
	c0.006,0.016-0.319,0.158-0.319,0.158c-2.072,0.893-3.767,1.663-6.492,2.746C37.482,8.784,22.506,11.952,7.404,12.8
	c-2.924,0.226-4.787,0.181-7.042,0.251c0,0-0.357,0.006-0.358-0.01c0-0.016,0.357-0.034,0.357-0.034
	c2.252-0.144,4.112-0.139,7.033-0.365C22.483,11.795,37.44,8.63,51.532,3.166z" changeable="1"/>
<radialGradient id="SVGID_6_" cx="434.5342" cy="-405.2556" r="134.9309" fx="343.6714" fy="-453.6914" gradientTransform="matrix(1 0 0 -1 -271 -305.729)" gradientUnits="userSpaceOnUse">
	<stop  offset="0.226" style="stop-color:#FFFFFF"/>
	<stop  offset="0.4259" style="stop-color:#D0D2D5"/>
	<stop  offset="0.6997" style="stop-color:#9EA6AD"/>
	<stop  offset="0.7683" style="stop-color:#8C939B"/>
	<stop  offset="0.8968" style="stop-color:#666E76"/>
	<stop  offset="1" style="stop-color:#46515A"/>
</radialGradient>
<path fill="url(#SVGID_6_)" d="M14.41,52.468c-3.121,0.582-5.101,0.931-7.508,1.342c0,0-0.381,0.066-0.384,0.051
	c-0.003-0.016,0.376-0.092,0.376-0.092c2.394-0.485,4.367-0.872,7.487-1.457c16.083-3.027,32.053-6.639,47.865-10.86
	c3.062-0.834,5.007-1.344,7.373-1.95c0,0,0.375-0.097,0.379-0.081c0.005,0.016-0.367,0.123-0.367,0.123
	c-2.347,0.677-4.282,1.226-7.345,2.061C46.472,45.828,30.496,49.44,14.41,52.468z" changeable="1"/>
</svg>
