<?xml version="1.0" encoding="utf-8"?>
<svg version="1.1" id="Layer_1" xmlns="http://www.w3.org/2000/svg" xmlns:xlink="http://www.w3.org/1999/xlink" x="0px" y="0px"
	 width="45.824px" height="70px" viewBox="0 0 45.824 70" enable-background="new 0 0 45.824 70" xml:space="preserve">
<path style="fill:none" d="M39.787,63.25H5.912v-49h33.875V63.25z" isFrame="true" changeable="0"/>
<path style="fill:#A6A6A6" d="M6.955,7.536l15.498-6.737l0.033-0.015l0.034,0.014l16.321,6.745L38.818,7.6L22.454,0.96h0.068L6.973,7.577
	L6.955,7.536z" changeable="0"/>
<path style="fill:#333333" d="M23.366,0.879c0,0.485-0.394,0.879-0.879,0.879c-0.485,0-0.879-0.394-0.879-0.879
	C21.608,0.394,22.002,0,22.487,0C22.972,0,23.366,0.394,23.366,0.879z" changeable="0"/>
<path style="fill:#404042" d="M0.071,7.571l2.978,2.935v55.729L0,69.342L0.071,7.571z M42.759,66.32l3.065,3.016V7.593l-3.065,2.968V66.32
	z" changeable="0"/>
<path style="fill:#4B4A4D" d="M42.797,10.562l3.027-2.968L0.072,7.573l2.988,2.933L42.797,10.562z M3.049,66.232L0,69.342l45.824-0.006
	l-3.065-3.016L3.049,66.232z" changeable="0"/>
<path opacity="0.17" style="fill:#000000" d="M0.769,69.336l44.392,0.036C45.16,69.372,25.195,70.809,0.769,69.336z" changeable="0"/>
<path style="fill:#FFFFFF" d="M1.91,9.448v58.056h42.031V9.448H1.91z M38.6,62.074H7.077V15.622H38.6V62.074z" changeable="1"/>
<path style="fill:#282828" d="M23.209,1.306l-1.585-0.545l0.1-0.29l1.585,0.545L23.209,1.306z" changeable="0"/>
</svg>
