<?xml version="1.0" encoding="utf-8"?>
<svg version="1.1" id="Layer_1" xmlns="http://www.w3.org/2000/svg" xmlns:xlink="http://www.w3.org/1999/xlink" x="0px" y="0px"
	 width="46.666px" height="70px" viewBox="0 0 46.666 70" enable-background="new 0 0 46.666 70" xml:space="preserve">
	<path style="fill:none" d="M10.755,67.773c-0.995-3.326-3.85-5.994-7.409-6.924V9.15c3.559-0.929,6.415-3.598,7.409-6.924
		h25.156c0.994,3.326,3.851,5.995,7.41,6.924V60.85c-3.56,0.93-6.416,3.598-7.41,6.924H10.755z" isFrame="true" changeable="0"/>
	<path style="fill:#1F1F1F" d="M0,0v70h46.666V0H0z M42.18,59.375c-3.356,0.876-6.048,3.393-6.986,6.528H11.473
		c-0.938-3.136-3.63-5.652-6.986-6.528v-48.75c3.356-0.876,6.049-3.393,6.986-6.529h23.721c0.938,3.136,3.63,5.652,6.986,6.529
		V59.375z" changeable="1"/>
	<path style="fill:#525252" d="M4.486,59.375v-48.75c3.356-0.876,6.049-3.393,6.986-6.529h23.721c0.734,2.458,2.55,4.536,4.915,5.741
		L46.666,0H0v70l6.558-9.837C5.906,59.831,5.211,59.564,4.486,59.375z" changeable="1"/>
	<path opacity="0.5" style="fill:#FFFFFF" d="M37.499,1.604H9.168c0,3.793-3.291,6.868-7.349,6.868l0,0v53.057l0,0
		c4.059,0,7.349,3.075,7.349,6.867h28.331c0-3.792,3.289-6.867,7.349-6.867V8.472C40.788,8.472,37.499,5.397,37.499,1.604z
		 M42.18,59.375c-3.356,0.876-6.048,3.393-6.986,6.528H11.473c-0.938-3.136-3.63-5.652-6.986-6.528v-48.75
		c3.356-0.876,6.049-3.393,6.986-6.529h23.721c0.938,3.136,3.63,5.652,6.986,6.529V59.375z" changeable="0"/>
	<path opacity="0.5" style="fill:#FFFFFF" d="M36.656,2.435H10.01C9.597,6.018,6.542,8.872,2.708,9.258l0,51.484
		c3.833,0.386,6.888,3.24,7.301,6.823h26.646c0.413-3.583,3.468-6.438,7.303-6.823V9.258C40.124,8.872,37.069,6.018,36.656,2.435z
		 M42.18,59.375c-3.356,0.876-6.048,3.393-6.986,6.528H11.473c-0.938-3.136-3.63-5.652-6.986-6.528v-48.75
		c3.356-0.876,6.049-3.393,6.986-6.529h23.721c0.938,3.136,3.63,5.652,6.986,6.529V59.375z" changeable="0"/>
	<path opacity="0.5" style="fill:#FFFFFF" d="M35.894,3.266H10.772C10.055,6.626,7.193,9.3,3.597,9.97v50.059
		c3.597,0.671,6.458,3.345,7.175,6.705h25.122c0.718-3.36,3.579-6.034,7.177-6.705V9.97C39.473,9.3,36.611,6.626,35.894,3.266z
		 M42.18,59.375c-3.356,0.876-6.048,3.393-6.986,6.528H11.473c-0.938-3.136-3.63-5.652-6.986-6.528v-48.75
		c3.356-0.876,6.049-3.393,6.986-6.529h23.721c0.938,3.136,3.63,5.652,6.986,6.529V59.375z" changeable="0"/>
</svg>
