<?xml version="1.0" encoding="utf-8"?>
<svg version="1.1" id="Layer_1" xmlns="http://www.w3.org/2000/svg" xmlns:xlink="http://www.w3.org/1999/xlink" x="0px" y="0px"
	 width="61.346px" height="70px" viewBox="0 0 61.346 70" enable-background="new 0 0 61.346 70" xml:space="preserve">
<path style="fill:none" d="M60.048,68.75H1.798V14h58.25V68.75z" isFrame="true" changeable="0"/>
<path style="fill:#F0FFB4" d="M0.033,4.055v65.617l61-0.261V4.055H0.033z M2.069,68.221l0.437-52.967l56.017-0.005l0.938,52.683
	L2.069,68.221z" changeable="1"/>
<path opacity="0.75" style="fill:#FFFFFF" d="M44.85,7.593L17.878,8.447l-0.25-7.891l0.873-0.02L43.254,0
	L43.22,0.062l0.654,0.425l-0.438,0.77l0.604,0.436l-0.419,0.7l0.645,0.545L43.8,3.624l0.676,0.353l-0.44,0.678l0.511,0.331
	l-0.438,0.77l0.604,0.436l-0.419,0.7l0.599,0.507l0.004,0.115L44.85,7.593z" changeable="0"/>
<path opacity="0.16" style="fill:#000000" d="M0,69.672c36.566,0.93,61.346-0.412,61.346-0.412L0,69.672z M44.85,7.593
	L17.878,8.447l-0.25-7.891l0.128,8.081L44.85,7.593z" changeable="0"/>
</svg>
