<?xml version="1.0" encoding="utf-8"?>
<svg version="1.1" id="Layer_1" xmlns="http://www.w3.org/2000/svg" xmlns:xlink="http://www.w3.org/1999/xlink" x="0px" y="0px"
	 width="70px" height="68.28px" viewBox="0 0 70 68.28" enable-background="new 0 0 70 68.28" xml:space="preserve">
<path style="fill:none" d="M63.596,43.179c0.813,2.435-1.352,5.745-1.352,5.745c-3.521,4.642-1.376,7.108-1.376,7.108
	c-4.241-2.418-6.55-0.991-8.086,0.324c-3.012,2.583-6.961,2.638-6.961,2.638c-0.88,3.751-6.05,6.991-11.219,6.991
	c-5.171,0-10.341-3.24-11.219-6.991c0,0-3.95-0.055-6.962-2.638c-1.536-1.315-3.844-2.742-8.086-0.324c0,0,2.146-2.467-1.375-7.108
	c0,0-2.163-3.312-1.352-5.745c0,0-8.718-2.637-3.785-9.867c-4.934-7.231,3.785-9.867,3.785-9.867
	C4.796,21.012,6.959,17.7,6.959,17.7c3.521-4.642,1.375-7.108,1.375-7.108c4.241,2.417,6.549,0.99,8.086-0.326
	c3.012-2.582,6.962-2.636,6.962-2.636c0.878-3.751,6.049-7.266,11.219-7.266c5.169,0,10.339,3.515,11.219,7.266
	c0,0,3.949,0.055,6.961,2.636c1.536,1.316,3.845,2.743,8.086,0.326c0,0-2.145,2.466,1.376,7.108c0,0,2.164,3.312,1.352,5.745
	c0,0,8.719,2.636,3.786,9.867C72.314,40.542,63.596,43.179,63.596,43.179z" isFrame="true" changeable="0"/>
<path opacity="0.25" style="fill:#000000" d="M5.939,22.815c-0.069,0.294-0.112,0.592-0.123,0.893
	c0.18-0.065,0.284-0.097,0.284-0.097C6.015,23.354,5.964,23.086,5.939,22.815z M63.102,23.611c0,0,0.836,0.253,1.838,0.817
	c0.422-2.829-2.381-5.379-3.282-7.425c-1.257-2.851,1.044-6.127,1.044-6.127c-1.063,0.628-2.006,1.116-2.848,1.474
	c-0.211,1.163-0.023,3.051,1.92,5.615C61.773,17.964,63.898,21.219,63.102,23.611z M45.63,8.065c0,0,0.421,0.006,1.091,0.104
	c-1.307-3.021-3.595-4.646-5.773-5.516C43.337,4.006,45.146,6,45.63,8.065z M9.054,11.42c-0.308-0.168-0.626-0.35-0.957-0.545
	c0,0,0.905,1.29,1.27,2.956C9.527,12.688,9.275,11.878,9.054,11.42z M2.381,33.31c-0.928-1.36-1.364-2.555-1.464-3.598
	c-0.256,1.291-0.129,2.921,0.661,4.972C1.79,34.246,2.055,33.789,2.381,33.31z M69.105,34.971c2.336-5.73-0.412-8.265-2.463-9.311
	c1.615,1.528,2.676,3.99,0.18,7.649c4.85,7.108-3.721,9.7-3.721,9.7c0.797,2.392-1.328,5.646-1.328,5.646
	c-3.461,4.563-1.354,6.987-1.354,6.987c-4.169-2.376-6.438-0.975-7.947,0.32c-2.961,2.537-6.844,2.592-6.844,2.592
	c-0.863,3.688-5.945,6.873-11.028,6.873c-5.083,0-10.165-3.188-11.028-6.873c0,0-3.882-0.055-6.843-2.592
	c-1.421-1.219-3.516-2.531-7.234-0.7c-0.172,2.054-1.399,3.803-1.399,3.803c4.542-2.685,6.864-2.798,8.633-1.176
	c3.574,3.278,6.994,2.961,6.994,2.961c2.669,7.964,11.674,7.422,11.674,7.422s9.006,0.542,11.675-7.422c0,0,3.419,0.317,6.993-2.961
	c1.77-1.622,4.092-1.509,8.634,1.176c0,0-2.302-3.276-1.044-6.127c0.961-2.183,4.086-4.937,3.154-7.992
	C64.813,44.947,72.58,43.49,69.105,34.971z M9.41,53.77c0.07-1.175-0.294-2.89-1.98-5.112c0,0-1.17-1.793-1.448-3.695
	c-0.916,3.051,2.2,5.8,3.16,7.979C9.262,53.212,9.35,53.492,9.41,53.77z M6.101,43.009c0,0-4.949-1.495-5.197-5.334
	c-0.96,6.019,4.854,7.228,5.075,7.271C5.885,44.289,5.897,43.621,6.101,43.009z" changeable="0"/>
<path style="fill:#FFFFFF" d="M64.016,23.334c0.93-3.056-2.195-5.811-3.156-7.992c-1.256-2.851,1.045-6.128,1.045-6.128
	c-4.543,2.685-6.864,2.799-8.635,1.176c-3.574-3.278-6.992-2.96-6.992-2.96c-2.67-7.964-11.675-7.422-11.675-7.422
	S25.596-0.534,22.927,7.43c0,0-3.419-0.318-6.994,2.96c-1.769,1.623-4.091,1.509-8.633-1.176c0,0,2.3,3.277,1.044,6.128
	c-0.961,2.182-4.085,4.937-3.155,7.992c0,0-7.768,1.457-4.294,9.976c-3.474,8.518,4.294,9.975,4.294,9.975
	c-0.93,3.057,2.194,5.813,3.155,7.993C9.6,54.128,7.3,57.406,7.3,57.406c4.542-2.685,6.864-2.799,8.633-1.176
	c3.575,3.277,6.994,2.96,6.994,2.96c2.669,7.964,11.675,7.422,11.675,7.422s9.005,0.542,11.675-7.422c0,0,3.418,0.317,6.992-2.96
	c1.771-1.623,4.092-1.509,8.635,1.176c0,0-2.301-3.277-1.045-6.128c0.961-2.182,4.086-4.937,3.156-7.993
	c0,0,7.768-1.457,4.293-9.975C71.782,24.792,64.016,23.334,64.016,23.334z M63.102,43.009c0.799,2.393-1.328,5.646-1.328,5.646
	c-3.461,4.563-1.353,6.987-1.353,6.987c-4.169-2.376-6.438-0.974-7.948,0.319c-2.961,2.539-6.843,2.593-6.843,2.593
	c-0.864,3.687-5.946,6.872-11.028,6.872c-5.083,0-10.165-3.186-11.028-6.872c0,0-3.882-0.054-6.843-2.593
	c-1.51-1.293-3.779-2.695-7.949-0.319c0,0,2.109-2.425-1.352-6.987c0,0-2.126-3.255-1.329-5.646c0,0-8.57-2.592-3.72-9.699
	c-4.85-7.108,3.72-9.699,3.72-9.699c-0.797-2.392,1.329-5.647,1.329-5.647c3.461-4.563,1.352-6.987,1.352-6.987
	c4.169,2.375,6.438,0.973,7.949-0.321c2.961-2.538,6.843-2.591,6.843-2.591c0.864-3.687,5.946-7.142,11.028-7.142
	c5.082,0,10.164,3.455,11.028,7.142c0,0,3.882,0.054,6.843,2.591c1.51,1.294,3.779,2.696,7.948,0.321c0,0-2.108,2.424,1.353,6.987
	c0,0,2.127,3.255,1.328,5.647c0,0,8.57,2.591,3.722,9.699C71.672,40.417,63.102,43.009,63.102,43.009z" changeable="1"/>
</svg>
