<?xml version="1.0" encoding="utf-8"?>
<svg version="1.1" id="Layer_1" xmlns="http://www.w3.org/2000/svg" xmlns:xlink="http://www.w3.org/1999/xlink" x="0px" y="0px"
	 width="70px" height="70px" viewBox="0 0 70 70" enable-background="new 0 0 70 70" xml:space="preserve">
<path style="fill:none" d="M57.125,1.25v68.125h-44.75V1.25H57.125L57.125,1.25z" isFrame="true" changeable="0"/>
<path style="fill:#030303" d="M3.691,70h62.617V0H3.691V70z M7.832,6.064c-0.329,0-0.595-0.242-0.595-0.541V3.063
	c0-0.299,0.267-0.541,0.595-0.541h3.681c0.328,0,0.595,0.242,0.595,0.541v2.461c0,0.299-0.267,0.541-0.595,0.541H7.832z
	 M7.832,14.926c-0.329,0-0.595-0.242-0.595-0.541v-2.46c0-0.3,0.267-0.541,0.595-0.541h3.681c0.328,0,0.595,0.241,0.595,0.541v2.46
	c0,0.299-0.267,0.541-0.595,0.541H7.832z M7.832,23.54c-0.329,0-0.595-0.242-0.595-0.541v-2.46c0-0.3,0.267-0.541,0.595-0.541h3.681
	c0.328,0,0.595,0.241,0.595,0.541v2.46c0,0.299-0.267,0.541-0.595,0.541H7.832z M7.832,32.057c-0.329,0-0.595-0.242-0.595-0.541
	v-2.459c0-0.301,0.267-0.541,0.595-0.541h3.681c0.328,0,0.595,0.24,0.595,0.541v2.459c0,0.299-0.267,0.541-0.595,0.541H7.832z
	 M7.832,40.916c-0.329,0-0.595-0.242-0.595-0.541v-2.46c0-0.3,0.267-0.541,0.595-0.541h3.681c0.328,0,0.595,0.241,0.595,0.541v2.46
	c0,0.299-0.267,0.541-0.595,0.541H7.832z M7.832,49.582c-0.329,0-0.595-0.244-0.595-0.543V46.58c0-0.3,0.267-0.541,0.595-0.541
	h3.681c0.328,0,0.595,0.241,0.595,0.541v2.459c0,0.299-0.267,0.543-0.595,0.543H7.832z M7.832,58.394
	c-0.329,0-0.595-0.242-0.595-0.541v-2.46c0-0.301,0.267-0.541,0.595-0.541h3.681c0.328,0,0.595,0.24,0.595,0.541v2.46
	c0,0.299-0.267,0.541-0.595,0.541H7.832z M7.832,66.957c-0.329,0-0.596-0.242-0.596-0.541v-2.459c0-0.3,0.267-0.541,0.595-0.541
	h3.68c0.329,0,0.596,0.241,0.596,0.541v2.459c0,0.299-0.267,0.541-0.596,0.541H7.832z M62.251,63.465
	c0.329,0,0.597,0.242,0.597,0.541v2.459c0,0.301-0.268,0.543-0.597,0.543H58.57c-0.328,0-0.594-0.241-0.594-0.543v-2.459
	c0-0.299,0.266-0.541,0.594-0.541H62.251z M62.251,55.047c0.329,0,0.597,0.242,0.597,0.541v2.459c0,0.299-0.268,0.541-0.597,0.541
	H58.57c-0.328,0-0.594-0.24-0.594-0.541v-2.459c0-0.299,0.266-0.541,0.594-0.541H62.251z M62.251,46.137
	c0.329,0,0.597,0.242,0.597,0.543v2.459c0,0.299-0.268,0.542-0.597,0.542H58.57c-0.328,0-0.594-0.242-0.594-0.542V46.68
	c0-0.301,0.266-0.543,0.594-0.543H62.251z M62.251,37.375c0.329,0,0.597,0.241,0.597,0.541v2.459c0,0.299-0.268,0.543-0.597,0.543
	H58.57c-0.328,0-0.594-0.244-0.594-0.543v-2.459c0-0.3,0.266-0.541,0.594-0.541H62.251z M62.251,28.711
	c0.329,0,0.597,0.241,0.597,0.541v2.46c0,0.3-0.268,0.542-0.597,0.542H58.57c-0.328,0-0.594-0.242-0.594-0.542v-2.46
	c0-0.3,0.266-0.541,0.594-0.541H62.251z M62.251,20.047c0.329,0,0.597,0.242,0.597,0.541v2.46c0,0.3-0.268,0.542-0.597,0.542H58.57
	c-0.328,0-0.594-0.242-0.594-0.542v-2.46c0-0.299,0.266-0.541,0.594-0.541H62.251z M62.251,11.384c0.329,0,0.597,0.241,0.597,0.541
	v2.46c0,0.299-0.268,0.541-0.597,0.541H58.57c-0.328,0-0.594-0.242-0.594-0.541v-2.46c0-0.3,0.266-0.541,0.594-0.541H62.251z
	 M62.251,2.621c0.329,0,0.597,0.241,0.597,0.541v2.46c0,0.299-0.268,0.541-0.597,0.541H58.57c-0.328,0-0.594-0.242-0.594-0.541
	v-2.46c0-0.3,0.266-0.541,0.594-0.541H62.251z M56.563,1.624V68.67H12.996V1.624H56.563z" changeable="1"/>
</svg>
