<?xml version="1.0" encoding="utf-8"?>
<svg version="1.1" id="Layer_1" xmlns="http://www.w3.org/2000/svg" xmlns:xlink="http://www.w3.org/1999/xlink" x="0px" y="0px"
	 width="70px" height="62.616px" viewBox="0 0 70 62.616" enable-background="new 0 0 70 62.616" xml:space="preserve">
<path style="fill:none" d="M68.75,53.433H0.625V8.683H68.75V53.433z" isFrame="true" changeable="0"/>
<path style="fill:#030303" d="M0,0v62.616h70V0H0z M63.935,4.14c0-0.329,0.243-0.595,0.542-0.595h2.46c0.299,0,0.541,0.267,0.541,0.595
	v3.68c0,0.329-0.242,0.595-0.541,0.595h-2.46c-0.299,0-0.542-0.266-0.542-0.595V4.14z M55.074,4.14c0-0.329,0.242-0.595,0.541-0.595
	h2.46c0.3,0,0.541,0.267,0.541,0.595v3.68c0,0.329-0.241,0.595-0.541,0.595h-2.46c-0.299,0-0.541-0.266-0.541-0.595V4.14z
	 M46.46,4.14c0-0.329,0.242-0.595,0.541-0.595h2.46c0.299,0,0.541,0.267,0.541,0.595v3.68c0,0.329-0.242,0.595-0.541,0.595h-2.46
	c-0.299,0-0.541-0.266-0.541-0.595V4.14z M37.943,4.14c0-0.329,0.242-0.595,0.542-0.595h2.459c0.3,0,0.541,0.267,0.541,0.595v3.68
	c0,0.329-0.241,0.595-0.541,0.595h-2.459c-0.3,0-0.542-0.266-0.542-0.595V4.14z M29.083,4.14c0-0.329,0.243-0.595,0.542-0.595h2.46
	c0.299,0,0.541,0.267,0.541,0.595v3.68c0,0.329-0.242,0.595-0.541,0.595h-2.46c-0.299,0-0.542-0.266-0.542-0.595V4.14z M20.418,4.14
	c0-0.329,0.243-0.595,0.542-0.595h2.46c0.299,0,0.541,0.267,0.541,0.595v3.68c0,0.329-0.242,0.595-0.541,0.595h-2.46
	c-0.299,0-0.542-0.266-0.542-0.595V4.14z M11.607,4.14c0-0.329,0.242-0.595,0.541-0.595h2.46c0.299,0,0.541,0.267,0.541,0.595v3.68
	c0,0.329-0.242,0.595-0.541,0.595h-2.46c-0.299,0-0.541-0.266-0.541-0.595V4.14z M3.042,4.14c0-0.329,0.242-0.595,0.541-0.595h2.46
	c0.299,0,0.541,0.267,0.541,0.595v3.68c0,0.329-0.242,0.595-0.541,0.595h-2.46c-0.299,0-0.541-0.266-0.541-0.595V4.14z
	 M6.535,58.559c0,0.329-0.242,0.596-0.541,0.596h-2.46c-0.299,0-0.542-0.267-0.542-0.596v-3.68c0-0.328,0.242-0.595,0.542-0.595
	h2.46c0.299,0,0.541,0.267,0.541,0.595V58.559z M14.953,58.559c0,0.329-0.242,0.596-0.541,0.596h-2.459
	c-0.299,0-0.542-0.267-0.542-0.596v-3.68c0-0.328,0.242-0.595,0.542-0.595h2.459c0.299,0,0.541,0.267,0.541,0.595V58.559z
	 M23.863,58.559c0,0.329-0.242,0.596-0.542,0.596h-2.459c-0.299,0-0.542-0.267-0.542-0.596v-3.68c0-0.328,0.242-0.595,0.542-0.595
	h2.459c0.299,0,0.542,0.267,0.542,0.595V58.559z M32.625,58.559c0,0.329-0.242,0.596-0.541,0.596h-2.46
	c-0.299,0-0.542-0.267-0.542-0.596v-3.68c0-0.328,0.243-0.595,0.542-0.595h2.46c0.299,0,0.541,0.267,0.541,0.595V58.559z
	 M41.289,58.559c0,0.329-0.242,0.596-0.541,0.596h-2.46c-0.299,0-0.542-0.267-0.542-0.596v-3.68c0-0.328,0.243-0.595,0.542-0.595
	h2.46c0.299,0,0.541,0.267,0.541,0.595V58.559z M49.953,58.559c0,0.329-0.242,0.596-0.541,0.596h-2.46
	c-0.3,0-0.542-0.267-0.542-0.596v-3.68c0-0.328,0.242-0.595,0.542-0.595h2.46c0.299,0,0.541,0.267,0.541,0.595V58.559z
	 M58.616,58.559c0,0.329-0.241,0.596-0.541,0.596h-2.46c-0.299,0-0.541-0.267-0.541-0.596v-3.68c0-0.328,0.242-0.595,0.541-0.595
	h2.46c0.3,0,0.541,0.267,0.541,0.595V58.559z M67.379,58.559c0,0.329-0.242,0.596-0.541,0.596h-2.46
	c-0.299,0-0.541-0.267-0.541-0.596v-3.68c0-0.328,0.242-0.595,0.541-0.595h2.46c0.299,0,0.541,0.267,0.541,0.595V58.559z
	 M68.376,52.87H1.329V9.304h67.047V52.87z" changeable="1"/>
</svg>
