<?xml version="1.0" encoding="utf-8"?>
<svg version="1.1" id="Layer_1" xmlns="http://www.w3.org/2000/svg" xmlns:xlink="http://www.w3.org/1999/xlink" x="0px" y="0px"
	 width="65.27px" height="70px" viewBox="0 0 65.27 70" enable-background="new 0 0 65.27 70" xml:space="preserve">
<path style="fill:none" d="M58.302,59.417H5.969V5.667h52.333V59.417z" isFrame="true" changeable="0"/>
<path style="fill:#FFFFFF" d="M60.468,4.11H4.561l-0.295,65h56.719L60.468,4.11z M57.776,58.669l-51,0.008V7.266
	c0-0.199,0.188-0.587,0.341-0.738C7.266,6.377,7.576,6.11,7.774,6.11h49.391c0.222,0,0.314,0.274,0.483,0.443
	c0.169,0.169,0.127,0.581,0.127,0.802L57.776,58.669L57.776,58.669z" changeable="1"/>
<path opacity="0.17" style="fill:#000000" d="M1.974,13.377l-0.529-0.083l-0.008,0.155l0.496,0.078L1.974,13.377z
	 M0.538,11.467l-0.396-0.103L0,11.484l0.511,0.132L0.538,11.467z M2.36,13.962L1.88,13.878l-0.041,0.149l0.495,0.087L2.36,13.962z
	 M1.467,12.727l-0.502-0.109L0.945,12.77l0.516,0.111L1.467,12.727z M1.009,12.117l-0.538-0.128l-0.027,0.149L0.99,12.27
	L1.009,12.117z M2.852,14.5l-0.537-0.129l-0.025,0.15l0.544,0.13L2.852,14.5z M65.27,11.353l-0.224-0.231l-0.03,0.004l0.021,0.523
	l-0.577,0.057l-0.004,0.499l-0.533,0.041l-0.048,0.564l-0.544,0.011l0.065,0.507l-0.528,0.02l0.017,0.408l-0.577,0.057l-0.005,0.5
	l-0.533,0.041l-0.047,0.564l-0.743,0.087L50.18,3.864l10.862,11.391l0.743-0.087l0.047-0.564l0.533-0.041l0.005-0.5l0.575-0.057
	l-0.017-0.408l0.53-0.02l-0.067-0.507l0.544-0.011l0.048-0.564l0.533-0.041l0.004-0.499l0.577-0.057l-0.021-0.523L65.27,11.353z
	 M16.603,4.934L3.654,15.772l-0.364-0.095l-0.01,0.154l0.469,0.181L16.612,5.067L16.603,4.934z M3.311,15.109L2.808,15l-0.02,0.152
	l0.514,0.111L3.311,15.109z M60.969,69.109H4.279C23.04,71.109,60.969,69.109,60.969,69.109z" changeable="0"/>
<path opacity="0.85" style="fill:#FCEEBD" d="M54.444,0l10.766,11.103l-0.191,0.022l0.021,0.523l-0.577,0.057
	l-0.004,0.499l-0.533,0.041l-0.048,0.564l-0.544,0.011l0.065,0.507l-0.528,0.02l0.017,0.408l-0.577,0.057l-0.005,0.5l-0.533,0.041
	l-0.047,0.564l-0.743,0.087l-10.8-11.141l0.08-0.378l0.566,0.003l0.089-0.527l0.497,0.04l0.106-0.569l0.405,0.053l0.066-0.526
	l0.5,0.112l0.059-0.54l0.566,0.003l0.089-0.527l0.498,0.04l0.105-0.57l0.521,0.068L54.444,0z M0.538,11.467l-0.095,0.516
	l0.564,0.135l-0.064,0.496l0.522,0.113l-0.03,0.566l0.537,0.084l-0.136,0.494l0.521,0.091l-0.07,0.403L2.852,14.5l-0.063,0.495
	l0.521,0.114l-0.03,0.565l0.374,0.098L16.612,4.926L16.561,4.18l-0.562-0.074L15.984,3.57l-0.499-0.028l-0.027-0.579l-0.41-0.003
	l0.006-0.53l-0.51,0.042l0.016-0.543l-0.562-0.075L13.982,1.32l-0.499-0.028l-0.027-0.579L12.93,0.708l-0.013-0.192L0,11.328
	L0.538,11.467z" changeable="0"/>
</svg>
