<?xml version="1.0" encoding="utf-8"?>
<svg version="1.1" id="Layer_1" xmlns="http://www.w3.org/2000/svg" xmlns:xlink="http://www.w3.org/1999/xlink" x="0px" y="0px"
	 width="46.955px" height="70px" viewBox="0 0 46.955 70" enable-background="new 0 0 46.955 70" xml:space="preserve">
<path style="fill:none" d="M3.448,3.583h39.943V66.46H3.448V3.583z" isFrame="true" changeable="0"/>
<path opacity="0.14" style="fill:#000000" d="M43.31,70v-0.432c0-0.692-0.563-1.256-1.256-1.256
	c-0.691,0-1.255,0.563-1.255,1.256V70h-2.237v-0.432c0-0.692-0.563-1.256-1.254-1.256c-0.692,0-1.256,0.563-1.256,1.256V70h-2.236
	v-0.432c0-0.692-0.563-1.256-1.256-1.256c-0.691,0-1.256,0.563-1.256,1.256V70h-2.236v-0.432c0-0.692-0.563-1.256-1.254-1.256
	c-0.692,0-1.256,0.563-1.256,1.256V70h-2.238v-0.432c0-0.692-0.563-1.256-1.254-1.256s-1.255,0.563-1.255,1.256V70h-2.237v-0.432
	c0-0.692-0.563-1.256-1.255-1.256s-1.255,0.563-1.255,1.256V70h-2.237v-0.432c0-0.692-0.563-1.256-1.255-1.256
	c-0.692,0-1.255,0.563-1.255,1.256V70h-2.237v-0.432c0-0.692-0.563-1.256-1.255-1.256c-0.692,0-1.255,0.563-1.255,1.256V70H5.331
	v-0.432c0-0.692-0.563-1.256-1.255-1.256c-0.692,0-1.255,0.563-1.255,1.256V70H0.186l1.009-0.773
	c0.313-0.242,0.493-0.604,0.493-0.996c0-0.691-0.563-1.254-1.255-1.254H0v-2.237h0.432c0.692,0,1.255-0.563,1.255-1.255
	c0-0.692-0.563-1.256-1.255-1.256H0v-2.236h0.432c0.692,0,1.255-0.563,1.255-1.256c0-0.691-0.563-1.256-1.255-1.256H0v-2.235h0.432
	c0.692,0,1.255-0.563,1.255-1.257c0-0.69-0.563-1.254-1.255-1.254H0v-2.236h0.432c0.692,0,1.255-0.563,1.255-1.256
	c0-0.691-0.563-1.256-1.255-1.256H0V45.75h0.432c0.692,0,1.255-0.563,1.255-1.255S1.124,43.24,0.432,43.24H0v-2.237h0.432
	c0.692,0,1.255-0.563,1.255-1.255s-0.563-1.255-1.255-1.255H0v-2.237h0.432c0.692,0,1.255-0.563,1.255-1.255
	c0-0.692-0.563-1.255-1.255-1.255H0v-2.237h0.432c0.692,0,1.255-0.563,1.255-1.255s-0.563-1.255-1.255-1.255H0v-2.237h0.432
	c0.692,0,1.255-0.563,1.255-1.255c0-0.692-0.563-1.255-1.255-1.255H0v-2.237h0.432c0.692,0,1.255-0.563,1.255-1.255
	c0-0.692-0.563-1.255-1.255-1.255H0v-2.237h0.432c0.692,0,1.255-0.563,1.255-1.255c0-0.692-0.563-1.255-1.255-1.255H0v-2.237h0.432
	c0.692,0,1.255-0.563,1.255-1.255s-0.563-1.255-1.255-1.255H0V7.772h0.432c0.692,0,1.255-0.563,1.255-1.255S1.124,5.262,0.432,5.262
	H0V3.024h0.432c0.692,0,1.255-0.563,1.255-1.255c0-0.392-0.18-0.754-0.493-0.995L0.186,0h3.047v0.432
	c0,0.692,0.563,1.255,1.255,1.255c0.692,0,1.255-0.563,1.255-1.255V0H7.98v0.432c0,0.692,0.563,1.255,1.255,1.255
	s1.255-0.563,1.255-1.255V0h2.237v0.432c0,0.692,0.563,1.255,1.255,1.255s1.255-0.563,1.255-1.255V0h2.237v0.432
	c0,0.692,0.563,1.255,1.255,1.255s1.255-0.563,1.255-1.255V0h2.237v0.432c0,0.692,0.563,1.255,1.255,1.255s1.255-0.563,1.255-1.255
	V0h2.236v0.432c0,0.692,0.563,1.255,1.256,1.255c0.691,0,1.254-0.563,1.254-1.255V0h2.237v0.432c0,0.692,0.563,1.255,1.255,1.255
	c0.692,0,1.256-0.563,1.256-1.255V0h2.236v0.432c0,0.692,0.563,1.255,1.255,1.255s1.257-0.563,1.257-1.255V0h2.235v0.432
	c0,0.692,0.563,1.255,1.255,1.255c0.692,0,1.256-0.563,1.256-1.255V0h3.047L45.76,0.775c-0.313,0.24-0.491,0.603-0.491,0.995
	c0,0.692,0.563,1.255,1.254,1.255h0.434v2.237h-0.434c-0.69,0-1.254,0.563-1.254,1.255s0.563,1.255,1.254,1.255h0.434v2.237h-0.434
	c-0.69,0-1.254,0.563-1.254,1.255c0,0.692,0.563,1.255,1.254,1.255h0.434v2.237h-0.434c-0.69,0-1.254,0.563-1.254,1.255
	c0,0.692,0.563,1.255,1.254,1.255h0.434v2.237h-0.434c-0.69,0-1.254,0.563-1.254,1.255c0,0.692,0.563,1.255,1.254,1.255h0.434v2.237
	h-0.434c-0.69,0-1.254,0.563-1.254,1.255s0.563,1.255,1.254,1.255h0.434v2.237h-0.434c-0.69,0-1.254,0.563-1.254,1.255
	s0.563,1.255,1.254,1.255h0.434v2.237h-0.434c-0.69,0-1.254,0.563-1.254,1.255c0,0.692,0.563,1.255,1.254,1.255h0.434v2.237h-0.434
	c-0.69,0-1.254,0.563-1.254,1.255s0.563,1.255,1.254,1.255h0.434v2.237h-0.434c-0.69,0-1.254,0.563-1.254,1.255
	s0.563,1.255,1.254,1.255h0.434v2.236h-0.434c-0.69,0-1.254,0.563-1.254,1.256c0,0.691,0.563,1.256,1.254,1.256h0.434v2.236h-0.434
	c-0.69,0-1.254,0.563-1.254,1.254c0,0.693,0.563,1.257,1.254,1.257h0.434v2.235h-0.434c-0.69,0-1.254,0.563-1.254,1.256
	c0,0.691,0.563,1.256,1.254,1.256h0.434v2.236h-0.434c-0.69,0-1.254,0.563-1.254,1.256c0,0.692,0.563,1.254,1.254,1.254h0.434v2.238
	h-0.434c-0.69,0-1.254,0.563-1.254,1.254c0,0.262,0.082,0.513,0.235,0.728l0.112,0.155l-0.041,0.188
	c-0.02,0.09-0.029,0.18-0.029,0.268V70H43.31z M41.985,64.506V5.494H4.969v59.012H41.985L41.985,64.506z" changeable="0"/>
<path opacity="0.14" style="fill:#000000" d="M43.453,69.855v-0.287c0-0.771-0.628-1.399-1.399-1.399
	c-0.771,0-1.398,0.628-1.398,1.399v0.287h-1.948v-0.287c0-0.771-0.628-1.399-1.399-1.399c-0.771,0-1.398,0.628-1.398,1.399v0.287
	h-1.948v-0.287c0-0.771-0.628-1.399-1.399-1.399c-0.771,0-1.398,0.628-1.398,1.399v0.287h-1.949v-0.287
	c0-0.771-0.627-1.399-1.398-1.399c-0.771,0-1.398,0.628-1.398,1.399v0.287h-1.95v-0.287c0-0.771-0.627-1.399-1.398-1.399
	s-1.399,0.628-1.399,1.399v0.287h-1.949v-0.287c0-0.771-0.627-1.399-1.399-1.399c-0.772,0-1.399,0.628-1.399,1.399v0.287H14.97
	v-0.287c0-0.771-0.627-1.399-1.399-1.399c-0.771,0-1.399,0.628-1.399,1.399v0.287h-1.949v-0.287c0-0.771-0.628-1.399-1.399-1.399
	s-1.399,0.628-1.399,1.399v0.287h-1.95v-0.287c0-0.771-0.627-1.399-1.399-1.399s-1.399,0.628-1.399,1.399v0.287H0.61l0.672-0.517
	c0.349-0.269,0.549-0.673,0.549-1.108c0-0.771-0.628-1.399-1.399-1.399H0.144v-1.948h0.288c0.771,0,1.399-0.628,1.399-1.398
	c0-0.771-0.628-1.399-1.399-1.399H0.144v-1.948h0.288c0.771,0,1.399-0.628,1.399-1.398c0-0.771-0.628-1.399-1.399-1.399H0.144
	v-1.948h0.288c0.771,0,1.399-0.629,1.399-1.399S1.204,52.59,0.432,52.59H0.144v-1.949h0.288c0.771,0,1.399-0.627,1.399-1.398
	s-0.628-1.398-1.399-1.398H0.144v-1.949h0.288c0.771,0,1.399-0.627,1.399-1.398s-0.628-1.398-1.399-1.398H0.144v-1.949h0.288
	c0.771,0,1.399-0.627,1.399-1.398s-0.628-1.398-1.399-1.398H0.144v-1.949h0.288c0.771,0,1.399-0.627,1.399-1.398
	c0-0.771-0.628-1.399-1.399-1.399H0.144v-1.949h0.288c0.771,0,1.399-0.627,1.399-1.399c0-0.771-0.628-1.399-1.399-1.399H0.144
	v-1.949h0.288c0.771,0,1.399-0.628,1.399-1.399c0-0.771-0.628-1.399-1.399-1.399H0.144v-1.949h0.288
	c0.771,0,1.399-0.627,1.399-1.399s-0.628-1.399-1.399-1.399H0.144V17.41h0.288c0.771,0,1.399-0.627,1.399-1.399
	c0-0.771-0.628-1.399-1.399-1.399H0.144v-1.949h0.288c0.771,0,1.399-0.628,1.399-1.399S1.204,9.865,0.432,9.865H0.144V7.916h0.288
	c0.771,0,1.399-0.628,1.399-1.399S1.204,5.118,0.432,5.118H0.144v-1.95h0.288c0.771,0,1.399-0.627,1.399-1.399
	c0-0.437-0.2-0.841-0.549-1.109L0.61,0.144h2.479v0.288c0,0.771,0.627,1.399,1.399,1.399c0.771,0,1.399-0.627,1.399-1.399V0.144
	h1.949v0.288c0,0.771,0.628,1.399,1.399,1.399s1.399-0.627,1.399-1.399V0.144h1.949v0.288c0,0.771,0.627,1.399,1.399,1.399
	s1.399-0.627,1.399-1.399V0.144h1.949v0.288c0,0.771,0.627,1.399,1.399,1.399s1.399-0.627,1.399-1.399V0.144h1.949v0.288
	c0,0.771,0.628,1.399,1.399,1.399s1.398-0.627,1.398-1.399V0.144h1.949v0.288c0,0.771,0.628,1.399,1.398,1.399
	c0.771,0,1.399-0.627,1.399-1.399V0.144h1.948v0.288c0,0.771,0.627,1.399,1.398,1.399s1.399-0.627,1.399-1.399V0.144h1.948v0.288
	c0,0.771,0.627,1.399,1.398,1.399s1.398-0.627,1.398-1.399V0.144h1.949v0.288c0,0.771,0.627,1.399,1.398,1.399
	s1.398-0.627,1.398-1.399V0.144h2.479l-0.672,0.517c-0.351,0.268-0.549,0.672-0.549,1.109c0,0.771,0.627,1.399,1.397,1.399h0.289
	v1.949h-0.289c-0.771,0-1.397,0.627-1.397,1.399s0.627,1.399,1.397,1.399h0.289v1.949h-0.289c-0.771,0-1.397,0.627-1.397,1.399
	s0.627,1.399,1.397,1.399h0.289v1.949h-0.289c-0.771,0-1.397,0.627-1.397,1.399s0.627,1.399,1.397,1.399h0.289v1.949h-0.289
	c-0.771,0-1.397,0.627-1.397,1.399s0.627,1.399,1.397,1.399h0.289v1.949h-0.289c-0.771,0-1.397,0.627-1.397,1.399
	s0.627,1.399,1.397,1.399h0.289v1.949h-0.289c-0.771,0-1.397,0.627-1.397,1.399s0.627,1.399,1.397,1.399h0.289V33.6h-0.289
	c-0.771,0-1.397,0.628-1.397,1.399c0,0.771,0.627,1.399,1.397,1.399h0.289v1.947h-0.289c-0.771,0-1.397,0.629-1.397,1.399
	s0.627,1.399,1.397,1.399h0.289v1.948h-0.289c-0.771,0-1.397,0.628-1.397,1.398s0.627,1.399,1.397,1.399h0.289v1.948h-0.289
	c-0.771,0-1.397,0.627-1.397,1.397c0,0.771,0.627,1.399,1.397,1.399h0.289v1.949h-0.289c-0.771,0-1.397,0.627-1.397,1.397
	c0,0.771,0.627,1.399,1.397,1.399h0.289v1.949h-0.289c-0.771,0-1.397,0.628-1.397,1.399c0,0.771,0.627,1.397,1.397,1.397h0.289
	v1.949h-0.289c-0.771,0-1.397,0.628-1.397,1.399c0,0.771,0.627,1.398,1.397,1.398h0.289v1.948h-0.289
	c-0.771,0-1.397,0.628-1.397,1.399c0,0.289,0.091,0.57,0.263,0.811l0.075,0.104l-0.026,0.127c-0.021,0.1-0.033,0.199-0.033,0.297
	v0.289h-1.942V69.855z M42.13,64.65V5.35H4.825v59.3H42.13z" changeable="0"/>
<path opacity="0.14" style="fill:#000000" d="M43.597,69.712v-0.144c0-0.853-0.691-1.545-1.543-1.545
	c-0.851,0-1.543,0.692-1.543,1.545v0.144h-1.66v-0.144c0-0.853-0.692-1.545-1.543-1.545c-0.852,0-1.543,0.692-1.543,1.545v0.144
	h-1.662v-0.144c0-0.853-0.691-1.545-1.543-1.545s-1.543,0.692-1.543,1.545v0.144h-1.66v-0.144c0-0.853-0.692-1.545-1.543-1.545
	c-0.853,0-1.545,0.692-1.545,1.545v0.144h-1.66v-0.144c0-0.853-0.692-1.545-1.542-1.545c-0.851,0-1.543,0.692-1.543,1.545v0.144
	h-1.661v-0.144c0-0.853-0.692-1.545-1.543-1.545s-1.543,0.692-1.543,1.545v0.144h-1.661v-0.144c0-0.853-0.692-1.545-1.543-1.545
	c-0.851,0-1.543,0.692-1.543,1.545v0.144h-1.661v-0.144c0-0.853-0.692-1.545-1.543-1.545c-0.851,0-1.545,0.693-1.545,1.545v0.144
	H5.619v-0.144c0-0.853-0.692-1.545-1.543-1.545c-0.851,0-1.543,0.692-1.543,1.545v0.144H1.034l0.336-0.258
	c0.385-0.296,0.605-0.741,0.605-1.224c0-0.852-0.692-1.543-1.543-1.543H0.288v-1.662h0.144c0.851,0,1.543-0.691,1.543-1.543
	s-0.692-1.543-1.543-1.543H0.288v-1.66h0.144c0.851,0,1.543-0.692,1.543-1.543c0-0.853-0.692-1.545-1.543-1.545H0.288v-1.659h0.144
	c0.851,0,1.543-0.692,1.543-1.544s-0.692-1.543-1.543-1.543H0.288v-1.66h0.144c0.851,0,1.543-0.692,1.543-1.544
	c0-0.851-0.692-1.543-1.543-1.543H0.288v-1.661h0.144c0.851,0,1.543-0.691,1.543-1.543s-0.692-1.543-1.543-1.543H0.288V41.29h0.144
	c0.851,0,1.543-0.692,1.543-1.543s-0.692-1.543-1.543-1.543H0.288v-1.661h0.144c0.851,0,1.543-0.691,1.543-1.543
	c0-0.851-0.692-1.543-1.543-1.543H0.288v-1.661h0.144c0.851,0,1.543-0.692,1.543-1.543S1.283,28.71,0.432,28.71H0.288v-1.661h0.144
	c0.851,0,1.543-0.692,1.543-1.543s-0.692-1.543-1.543-1.543H0.288v-1.661h0.144c0.851,0,1.543-0.692,1.543-1.543
	c0-0.851-0.692-1.543-1.543-1.543H0.288v-1.661h0.144c0.851,0,1.543-0.692,1.543-1.543c0-0.851-0.692-1.543-1.543-1.543H0.288
	v-1.661h0.144c0.851,0,1.543-0.692,1.543-1.543S1.283,9.722,0.432,9.722H0.288V8.06h0.144c0.851,0,1.543-0.692,1.543-1.543
	S1.283,4.974,0.432,4.974H0.288V3.313h0.144c0.851,0,1.543-0.692,1.543-1.543c0-0.482-0.221-0.928-0.605-1.223L1.034,0.288h1.911
	v0.144c0,0.851,0.692,1.543,1.543,1.543c0.851,0,1.543-0.692,1.543-1.543V0.288h1.661v0.144c0,0.851,0.692,1.543,1.543,1.543
	s1.543-0.692,1.543-1.543V0.288h1.661v0.144c0,0.851,0.692,1.543,1.543,1.543s1.543-0.692,1.543-1.543V0.288h1.661v0.144
	c0,0.851,0.692,1.543,1.543,1.543s1.543-0.692,1.543-1.543V0.288h1.661v0.144c0,0.851,0.692,1.543,1.543,1.543
	s1.542-0.692,1.542-1.543V0.288h1.662v0.144c0,0.851,0.691,1.543,1.543,1.543c0.851,0,1.543-0.692,1.543-1.543V0.288h1.66v0.144
	c0,0.851,0.692,1.543,1.543,1.543c0.852,0,1.543-0.692,1.543-1.543V0.288h1.661v0.144c0,0.851,0.692,1.543,1.543,1.543
	c0.853,0,1.544-0.692,1.544-1.543V0.288h1.66v0.144c0,0.851,0.691,1.543,1.543,1.543s1.544-0.692,1.544-1.543V0.288h1.911
	l-0.336,0.258C45.2,0.842,44.979,1.288,44.979,1.77c0,0.851,0.691,1.543,1.543,1.543h0.145v1.661h-0.145
	c-0.852,0-1.543,0.692-1.543,1.543s0.691,1.543,1.543,1.543h0.145v1.661h-0.145c-0.852,0-1.543,0.692-1.543,1.543
	s0.691,1.543,1.543,1.543h0.145v1.661h-0.145c-0.852,0-1.543,0.692-1.543,1.543c0,0.851,0.691,1.543,1.543,1.543h0.145v1.661h-0.145
	c-0.852,0-1.543,0.692-1.543,1.543c0,0.851,0.691,1.543,1.543,1.543h0.145v1.661h-0.145c-0.852,0-1.543,0.692-1.543,1.543
	s0.691,1.543,1.543,1.543h0.145v1.661h-0.145c-0.852,0-1.543,0.692-1.543,1.543s0.691,1.543,1.543,1.543h0.145v1.661h-0.145
	c-0.852,0-1.543,0.692-1.543,1.543c0,0.851,0.691,1.543,1.543,1.543h0.145v1.661h-0.145c-0.852,0-1.543,0.691-1.543,1.543
	s0.691,1.543,1.543,1.543h0.145v1.661h-0.145c-0.852,0-1.543,0.692-1.543,1.543s0.691,1.543,1.543,1.543h0.145v1.661h-0.145
	c-0.852,0-1.543,0.691-1.543,1.543s0.691,1.544,1.543,1.544h0.145v1.659h-0.145c-0.852,0-1.543,0.692-1.543,1.543
	c0,0.853,0.691,1.545,1.543,1.545h0.145v1.66h-0.145c-0.852,0-1.543,0.691-1.543,1.543s0.691,1.543,1.543,1.543h0.145v1.66h-0.145
	c-0.852,0-1.543,0.692-1.543,1.545c0,0.851,0.691,1.543,1.543,1.543h0.145v1.66h-0.145c-0.852,0-1.543,0.692-1.543,1.543
	c0,0.321,0.101,0.631,0.289,0.896l0.039,0.052l-0.015,0.063c-0.024,0.109-0.036,0.221-0.036,0.328v0.145L43.597,69.712
	L43.597,69.712z M42.272,64.794V5.206H4.681v59.588H42.272z" changeable="0"/>
<path style="fill:#FFFFFF" d="M46.522,4.83L46.522,4.83V3.457l0,0c-0.933,0-1.688-0.755-1.688-1.687c0-0.545,0.26-1.029,0.661-1.337
	h-1.345l0,0c0,0.932-0.754,1.687-1.688,1.687c-0.932,0-1.688-0.755-1.688-1.687l0,0h-1.373l0,0c0,0.932-0.754,1.687-1.688,1.687
	c-0.932,0-1.688-0.755-1.688-1.687l0,0h-1.373l0,0c0,0.932-0.756,1.687-1.688,1.687S31.28,1.365,31.28,0.433l0,0h-1.372l0,0
	c0,0.932-0.757,1.687-1.688,1.687s-1.688-0.755-1.688-1.687l0,0h-1.373l0,0c0,0.932-0.756,1.687-1.687,1.687
	c-0.932,0-1.688-0.755-1.688-1.687l0,0h-1.373l0,0c0,0.932-0.755,1.687-1.688,1.687c-0.932,0-1.687-0.755-1.687-1.687l0,0H15.67l0,0
	c0,0.932-0.756,1.687-1.688,1.687s-1.687-0.755-1.687-1.687l0,0h-1.373l0,0c0,0.932-0.755,1.687-1.687,1.687
	c-0.932,0-1.687-0.756-1.687-1.688l0,0H6.176l0,0c0,0.932-0.755,1.687-1.687,1.687c-0.932,0-1.688-0.755-1.688-1.687l0,0H1.458
	C1.859,0.741,2.12,1.224,2.12,1.77c0,0.932-0.756,1.687-1.688,1.687V4.83c0.932,0,1.688,0.755,1.688,1.687S1.364,8.205,0.432,8.205
	v1.373c0.932,0,1.688,0.755,1.688,1.687c0,0.932-0.756,1.688-1.688,1.688v1.373c0.932,0,1.688,0.755,1.688,1.688
	c0,0.932-0.756,1.687-1.688,1.687v1.373c0.932,0,1.688,0.755,1.688,1.687c0,0.932-0.756,1.688-1.688,1.688v1.373
	c0.932,0,1.688,0.755,1.688,1.687c0,0.932-0.756,1.688-1.688,1.688v1.373c0.932,0,1.688,0.755,1.688,1.687
	c0,0.932-0.756,1.688-1.688,1.688v1.373c0.932,0,1.688,0.756,1.688,1.688c0,0.933-0.756,1.688-1.688,1.688v1.371
	c0.932,0,1.688,0.756,1.688,1.688s-0.756,1.688-1.688,1.688v1.373c0.932,0,1.688,0.754,1.688,1.687s-0.756,1.688-1.688,1.688v1.373
	c0.932,0,1.688,0.754,1.688,1.687s-0.756,1.688-1.688,1.688v1.373c0.932,0,1.688,0.754,1.688,1.687s-0.756,1.688-1.688,1.688v1.373
	c0.932,0,1.688,0.754,1.688,1.688c0,0.932-0.756,1.688-1.688,1.688v1.373c0.932,0,1.688,0.756,1.688,1.688s-0.756,1.688-1.688,1.688
	v1.373c0.932,0,1.688,0.756,1.688,1.688c0,0.545-0.26,1.029-0.662,1.338h0.931c0-0.934,0.755-1.688,1.687-1.688
	c0.932,0,1.687,0.754,1.687,1.688h1.373c0-0.934,0.755-1.688,1.688-1.688c0.932,0,1.688,0.754,1.688,1.688h1.373
	c0-0.934,0.755-1.688,1.687-1.688c0.932,0,1.688,0.754,1.688,1.688h1.373c0-0.934,0.755-1.688,1.688-1.688
	c0.932,0,1.687,0.754,1.687,1.688h1.373c0-0.934,0.755-1.688,1.687-1.688s1.687,0.754,1.687,1.688h1.373
	c0-0.934,0.755-1.688,1.688-1.688c0.932,0,1.687,0.754,1.687,1.688h1.373c0-0.934,0.756-1.688,1.688-1.688
	c0.932,0,1.688,0.754,1.688,1.688h1.372c0-0.934,0.756-1.688,1.688-1.688c0.932,0,1.688,0.754,1.688,1.688h1.372
	c0-0.934,0.756-1.688,1.688-1.688c0.932,0,1.688,0.754,1.688,1.688h1.373c0-0.124,0.014-0.243,0.039-0.359
	c-0.199-0.275-0.317-0.611-0.317-0.979c0-0.932,0.755-1.688,1.687-1.688l0,0v-1.373l0,0c-0.932,0-1.687-0.756-1.687-1.688
	s0.755-1.688,1.687-1.688l0,0v-1.373l0,0c-0.932,0-1.687-0.756-1.687-1.688c0-0.934,0.755-1.688,1.687-1.688l0,0v-1.373l0,0
	c-0.932,0-1.687-0.756-1.687-1.688s0.755-1.687,1.687-1.687l0,0v-1.373l0,0c-0.932,0-1.687-0.756-1.687-1.688
	s0.755-1.687,1.687-1.687l0,0v-1.373l0,0c-0.932,0-1.687-0.756-1.687-1.688s0.755-1.687,1.687-1.687l0,0v-1.373l0,0
	c-0.932,0-1.687-0.756-1.687-1.688s0.755-1.688,1.687-1.688l0,0v-1.371l0,0c-0.932,0-1.687-0.756-1.687-1.688
	c0-0.932,0.755-1.688,1.687-1.688l0,0V31.94l0,0c-0.932,0-1.687-0.755-1.687-1.688c0-0.932,0.755-1.687,1.687-1.687l0,0v-1.373l0,0
	c-0.932,0-1.687-0.755-1.687-1.688c0-0.932,0.755-1.687,1.687-1.687l0,0v-1.373l0,0c-0.932,0-1.687-0.755-1.687-1.687
	c0-0.932,0.755-1.687,1.687-1.687l0,0v-1.373l0,0c-0.932,0-1.687-0.755-1.687-1.687c0-0.932,0.755-1.688,1.687-1.688l0,0v-1.373l0,0
	c-0.932,0-1.687-0.755-1.687-1.688c0-0.932,0.755-1.687,1.687-1.687l0,0v-1.37l0,0c-0.932,0-1.687-0.755-1.687-1.688
	C44.836,5.585,45.591,4.83,46.522,4.83z M42.418,64.938H4.537V5.062h37.881V64.938z" changeable="1"/>
<linearGradient id="SVGID_1_" gradientUnits="userSpaceOnUse" x1="276.5645" y1="-325.8604" x2="271.4316" y2="-325.8604" gradientTransform="matrix(1 0 0 -1 -271 -290)">
	<stop  offset="0" style="stop-color:#FFFFFF"/>
	<stop  offset="0.8545" style="stop-color:#E7DBC3"/>
	<stop  offset="1" style="stop-color:#E0C692"/>
</linearGradient>
<path fill="url(#SVGID_1_)" d="M2.077,2.142c-0.17,0.752-0.841,1.315-1.645,1.315V4.83c0.932,0,1.688,0.755,1.688,1.687
	S1.364,8.205,0.432,8.205v1.373c0.932,0,1.688,0.755,1.688,1.687c0,0.932-0.756,1.688-1.688,1.688v1.373
	c0.932,0,1.688,0.755,1.688,1.688c0,0.932-0.756,1.687-1.688,1.687v1.373c0.932,0,1.688,0.755,1.688,1.687
	c0,0.932-0.756,1.688-1.688,1.688v1.373c0.932,0,1.688,0.755,1.688,1.687c0,0.932-0.756,1.688-1.688,1.688v1.373
	c0.932,0,1.688,0.755,1.688,1.687c0,0.932-0.756,1.688-1.688,1.688v1.373c0.932,0,1.688,0.756,1.688,1.688
	c0,0.933-0.756,1.688-1.688,1.688v1.371c0.932,0,1.688,0.756,1.688,1.688s-0.756,1.688-1.688,1.688v1.373
	c0.932,0,1.688,0.754,1.688,1.687s-0.756,1.688-1.688,1.688v1.373c0.932,0,1.688,0.754,1.688,1.687s-0.756,1.688-1.688,1.688v1.373
	c0.932,0,1.688,0.754,1.688,1.687s-0.756,1.688-1.688,1.688v1.373c0.932,0,1.688,0.754,1.688,1.688c0,0.932-0.756,1.688-1.688,1.688
	v1.373c0.932,0,1.688,0.756,1.688,1.688s-0.756,1.688-1.688,1.688v1.373c0.932,0,1.688,0.756,1.688,1.688
	c0,0.545-0.26,1.029-0.662,1.338h0.588c0.865-1.793,1.322-3.836,2.491-5.385V5.062h1.029C4.245,4.312,2.983,3.343,2.077,2.142z" changeable="1"/>
<linearGradient id="SVGID_2_" gradientUnits="userSpaceOnUse" x1="294.4775" y1="-295.2158" x2="294.4775" y2="-290.4321" gradientTransform="matrix(1 0 0 -1 -271 -290)">
	<stop  offset="0" style="stop-color:#FFFFFF"/>
	<stop  offset="0.8545" style="stop-color:#E7DBC3"/>
	<stop  offset="1" style="stop-color:#E0C692"/>
</linearGradient>
<path fill="url(#SVGID_2_)" d="M45.497,0.432h-1.344l0,0c0,0.932-0.756,1.687-1.688,1.687c-0.932,0-1.687-0.755-1.687-1.687l0,0
	h-1.373l0,0c0,0.932-0.756,1.687-1.688,1.687c-0.932,0-1.687-0.755-1.687-1.687l0,0h-1.373l0,0c0,0.932-0.756,1.687-1.688,1.687
	c-0.932,0-1.687-0.755-1.687-1.687l0,0h-1.373l0,0c0,0.932-0.756,1.687-1.688,1.687c-0.933,0-1.688-0.755-1.688-1.687l0,0H25.16l0,0
	c0,0.932-0.755,1.687-1.687,1.687s-1.688-0.755-1.688-1.687l0,0h-1.373l0,0c0,0.932-0.755,1.687-1.688,1.687
	c-0.932,0-1.687-0.755-1.687-1.687l0,0H15.67l0,0c0,0.932-0.756,1.687-1.688,1.687s-1.687-0.755-1.687-1.687l0,0h-1.373l0,0
	c0,0.932-0.755,1.687-1.687,1.687c-0.932,0-1.687-0.755-1.687-1.687l0,0H6.176l0,0c0,0.932-0.755,1.687-1.687,1.687
	c-0.932,0-1.688-0.755-1.688-1.687l0,0H1.458C1.859,0.741,2.12,1.224,2.12,1.77c0,0.128-0.016,0.252-0.042,0.372
	c0.906,1.201,2.168,2.17,3.489,2.92h36.852v0.154c1.012-0.922,1.797-2.038,2.432-3.246c-0.009-0.066-0.014-0.133-0.014-0.201
	C44.836,1.224,45.097,0.741,45.497,0.432z" changeable="1"/>
<linearGradient id="SVGID_3_" gradientUnits="userSpaceOnUse" x1="313.3672" y1="-325.209" x2="317.5225" y2="-325.209" gradientTransform="matrix(1 0 0 -1 -271 -290)">
	<stop  offset="0" style="stop-color:#FFFFFF"/>
	<stop  offset="0.8545" style="stop-color:#E7DBC3"/>
	<stop  offset="1" style="stop-color:#E0C692"/>
</linearGradient>
<path fill="url(#SVGID_3_)" d="M44.849,1.97c-0.634,1.208-1.42,2.323-2.431,3.246v59.724h-0.051
	c0.723,1.205,1.632,2.303,2.483,3.509c-0.01-0.071-0.016-0.144-0.016-0.218c0-0.932,0.755-1.688,1.688-1.688l0,0v-1.372l0,0
	c-0.933,0-1.688-0.756-1.688-1.688c0-0.932,0.755-1.688,1.688-1.688l0,0v-1.373l0,0c-0.933,0-1.688-0.755-1.688-1.688
	s0.755-1.688,1.688-1.688l0,0v-1.373l0,0c-0.933,0-1.688-0.755-1.688-1.688c0-0.932,0.755-1.688,1.688-1.688l0,0v-1.373l0,0
	c-0.933,0-1.688-0.755-1.688-1.688c0-0.932,0.755-1.688,1.688-1.688l0,0v-1.373l0,0c-0.933,0-1.688-0.756-1.688-1.688
	s0.755-1.688,1.688-1.688l0,0V41.43l0,0c-0.933,0-1.688-0.756-1.688-1.688s0.755-1.688,1.688-1.688l0,0v-1.373l0,0
	c-0.933,0-1.688-0.756-1.688-1.688c0-0.932,0.755-1.688,1.688-1.688l0,0V31.94l0,0c-0.933,0-1.688-0.755-1.688-1.688
	c0-0.932,0.755-1.687,1.688-1.687l0,0v-1.373l0,0c-0.933,0-1.688-0.755-1.688-1.688c0-0.932,0.755-1.687,1.688-1.687l0,0v-1.373l0,0
	c-0.933,0-1.688-0.755-1.688-1.687c0-0.932,0.755-1.687,1.688-1.687l0,0v-1.373l0,0c-0.933,0-1.688-0.755-1.688-1.687
	c0-0.932,0.755-1.688,1.688-1.688l0,0v-1.373l0,0c-0.933,0-1.688-0.755-1.688-1.688c0-0.932,0.755-1.687,1.688-1.687l0,0v-1.37l0,0
	c-0.933,0-1.688-0.755-1.688-1.688c0-0.932,0.755-1.687,1.688-1.687l0,0V3.457l0,0C45.659,3.457,44.948,2.807,44.849,1.97z" changeable="1"/>
<linearGradient id="SVGID_4_" gradientUnits="userSpaceOnUse" x1="294.6025" y1="-354.1836" x2="294.6025" y2="-359.5684" gradientTransform="matrix(1 0 0 -1 -271 -290)">
	<stop  offset="0" style="stop-color:#FFFFFF"/>
	<stop  offset="0.8545" style="stop-color:#E7DBC3"/>
	<stop  offset="1" style="stop-color:#E0C692"/>
</linearGradient>
<path fill="url(#SVGID_4_)" d="M4.537,64.938v-0.754c-1.169,1.549-1.626,3.592-2.491,5.385h0.343c0-0.934,0.755-1.688,1.687-1.688
	c0.932,0,1.687,0.755,1.687,1.688h1.373c0-0.934,0.755-1.688,1.688-1.688c0.932,0,1.688,0.755,1.688,1.688h1.373
	c0-0.934,0.755-1.688,1.687-1.688c0.932,0,1.688,0.755,1.688,1.688h1.373c0-0.934,0.755-1.688,1.688-1.688
	c0.932,0,1.687,0.755,1.687,1.688h1.373c0-0.934,0.755-1.688,1.687-1.688s1.687,0.755,1.687,1.688h1.373
	c0-0.934,0.755-1.688,1.688-1.688c0.932,0,1.687,0.755,1.687,1.688h1.373c0-0.934,0.756-1.688,1.688-1.688
	c0.932,0,1.688,0.755,1.688,1.688h1.372c0-0.934,0.756-1.688,1.688-1.688c0.932,0,1.688,0.755,1.688,1.688h1.372
	c0-0.934,0.756-1.688,1.688-1.688c0.932,0,1.688,0.755,1.688,1.688h1.373c0-0.125,0.014-0.243,0.039-0.359
	c-0.159-0.221-0.266-0.48-0.303-0.762c-0.853-1.206-1.762-2.305-2.483-3.51H4.537z" changeable="1"/>
</svg>
