<?xml version="1.0" encoding="utf-8"?>
<svg version="1.1" id="Layer_1" xmlns="http://www.w3.org/2000/svg" xmlns:xlink="http://www.w3.org/1999/xlink" x="0px" y="0px"
	 width="70px" height="70px" viewBox="0 0 70 70" enable-background="new 0 0 70 70" xml:space="preserve">
<path style="fill:none" d="M66.077,35c0,8.477-3.394,16.158-8.896,21.766c-5.64,5.746-13.494,9.313-22.183,9.313
	c-8.003,0-15.3-3.025-20.809-7.995C7.886,52.395,3.923,44.16,3.923,35c0-9.449,4.217-17.913,10.872-23.612
	C20.228,6.734,27.286,3.923,35,3.923c10.23,0,19.307,4.944,24.971,12.573C63.807,21.665,66.077,28.067,66.077,35z" isFrame="true" changeable="0"/>
<path opacity="0.04" style="fill:#000000" d="M35,1.603c-8.354,0-15.992,3.068-21.849,8.138
	C6.078,15.865,1.603,24.91,1.603,35c0,9.672,4.112,18.384,10.684,24.482c5.959,5.531,13.941,8.914,22.713,8.914
	c9.393,0,17.879-3.877,23.945-10.119c5.85-6.016,9.451-14.227,9.451-23.277c0-7.444-2.437-14.319-6.554-19.872
	C55.76,6.922,46.001,1.603,35,1.603z M35,65.039c-7.716,0-14.752-2.909-20.072-7.689C8.809,51.85,4.961,43.874,4.961,35
	c0-9.182,4.12-17.402,10.612-22.912C20.811,7.643,27.592,4.961,35,4.961c9.813,0,18.527,4.707,24.01,11.985
	c3.785,5.026,6.029,11.278,6.029,18.054c0,8.283-3.354,15.784-8.775,21.219C50.825,61.668,43.307,65.039,35,65.039z" changeable="0"/>
<path opacity="0.04" style="fill:#000000" d="M35,1.099c-8.531,0-16.326,3.151-22.285,8.353
	C5.597,15.666,1.099,24.808,1.099,35c0,9.866,4.215,18.748,10.943,24.943C18.081,65.504,26.144,68.9,35,68.9
	c9.579,0,18.229-3.974,24.395-10.36C65.279,52.441,68.9,44.145,68.9,35c0-7.593-2.496-14.603-6.713-20.253
	C56.008,6.463,46.13,1.099,35,1.099z M35,65.491c-7.778,0-14.876-2.913-20.263-7.707C8.461,52.199,4.509,44.063,4.509,35
	c0-9.302,4.165-17.631,10.732-23.224C20.563,7.244,27.462,4.509,35,4.509c9.994,0,18.866,4.809,24.427,12.239
	c3.81,5.089,6.064,11.407,6.064,18.252c0,8.395-3.392,15.994-8.878,21.508C51.091,62.057,43.445,65.491,35,65.491z" changeable="0"/>
<path opacity="0.04" style="fill:#000000" d="M35,0.687c-8.635,0-16.525,3.19-22.557,8.456
	C5.239,15.432,0.687,24.685,0.687,35c0,10.012,4.288,19.021,11.128,25.295c6.106,5.6,14.247,9.018,23.185,9.018
	c9.684,0,18.428-4.01,24.666-10.459C65.639,52.68,69.313,44.27,69.313,35c0-7.66-2.511-14.733-6.752-20.442
	C56.309,6.141,46.292,0.687,35,0.687z M35,65.861c-7.944,0-15.187-3.002-20.656-7.932C8.077,52.281,4.138,44.102,4.138,35
	c0-9.373,4.178-17.771,10.774-23.431C20.311,6.937,27.328,4.138,35,4.138c10.12,0,19.104,4.871,24.73,12.396
	c3.851,5.149,6.131,11.541,6.131,18.465c0,8.426-3.377,16.063-8.852,21.633C51.412,62.329,43.619,65.861,35,65.861z" changeable="0"/>
<path opacity="0.04" style="fill:#000000" d="M35,0.366c-8.721,0-16.688,3.223-22.777,8.542
	C4.957,15.257,0.366,24.593,0.366,35c0,10.124,4.344,19.232,11.27,25.566c6.159,5.632,14.36,9.066,23.364,9.066
	c9.713,0,18.492-3.998,24.781-10.438c6.096-6.243,9.853-14.78,9.853-24.195c0-7.733-2.534-14.875-6.817-20.639
	C56.504,5.869,46.395,0.366,35,0.366z M35,66.15c-8.064,0-15.413-3.064-20.945-8.092C7.786,52.359,3.85,44.141,3.85,35
	c0-9.429,4.189-17.879,10.807-23.591C20.115,6.699,27.225,3.85,35,3.85c10.135,0,19.141,4.84,24.828,12.334
	C63.796,21.412,66.15,27.931,66.15,35c0,8.464-3.377,16.141-8.854,21.754C51.641,62.551,43.74,66.15,35,66.15z" changeable="0"/>
<path opacity="0.04" style="fill:#000000" d="M35,0c-8.774,0-16.793,3.228-22.936,8.562C4.673,14.979,0,24.444,0,35
	c0,10.255,4.41,19.479,11.438,25.881C17.656,66.546,25.925,70,35,70c9.835,0,18.723-4.057,25.081-10.588
	C66.219,53.105,70,44.495,70,35c0-7.744-2.516-14.901-6.773-20.698C56.855,5.629,46.586,0,35,0z M35,66.48
	c-8.15,0-15.576-3.098-21.167-8.179C7.498,52.544,3.52,44.236,3.52,35c0-9.56,4.261-18.124,10.988-23.897
	C20.015,6.376,27.174,3.52,35,3.52c10.398,0,19.62,5.042,25.354,12.813C64.204,21.557,66.48,28.012,66.48,35
	c0,8.57-3.426,16.342-8.981,22.02C51.784,62.857,43.814,66.48,35,66.48z" changeable="0"/>
<linearGradient id="SVGID_1_" gradientUnits="userSpaceOnUse" x1="577" y1="723.2129" x2="577" y2="788.7871" gradientTransform="matrix(1 0 0 1 -542 -721)">
	<stop  offset="0" style="stop-color:#F5B8CC"/>
	<stop  offset="1" style="stop-color:#EC69A7"/>
</linearGradient>
<path fill="url(#SVGID_1_)" d="M35,2.213c-8.26,0-15.807,3.055-21.573,8.097C6.554,16.32,2.213,25.153,2.213,35
	c0,8.767,3.441,16.729,9.045,22.612C17.23,63.88,25.659,67.787,35,67.787c9.401,0,17.879-3.958,23.857-10.298
	c5.536-5.87,8.93-13.783,8.93-22.489c0-9.212-3.8-17.538-9.918-23.495C51.962,5.755,43.895,2.213,35,2.213z M35,64.49
	c-8.529,0-16.213-3.621-21.597-9.409C8.505,49.816,5.51,42.758,5.51,35c0-8.737,3.8-16.587,9.837-21.987
	C20.563,8.347,27.45,5.51,35,5.51c8.529,0,16.213,3.621,21.598,9.409C61.495,20.184,64.49,27.242,64.49,35
	c0,8.334-3.457,15.86-9.016,21.224C50.171,61.342,42.953,64.49,35,64.49z" changeable="1"/>
<radialGradient id="SVGID_2_" cx="565" cy="729.252" r="81.75" gradientTransform="matrix(1 0 0 1 -542 -721)" gradientUnits="userSpaceOnUse">
	<stop  offset="0" style="stop-color:#DF0985"/>
	<stop  offset="0.19" style="stop-color:#D90B81"/>
	<stop  offset="0.4204" style="stop-color:#CA1179"/>
	<stop  offset="0.6718" style="stop-color:#B5186D"/>
	<stop  offset="0.9364" style="stop-color:#981D5E"/>
	<stop  offset="1" style="stop-color:#901E59"/>
</radialGradient>
<path fill="url(#SVGID_2_)" d="M12.484,15.963l-2.217-2.474c-0.186,0.213-0.375,0.423-0.555,0.641l2.235,2.488
	C12.124,16.398,12.302,16.179,12.484,15.963z M11.34,17.396l-2.235-2.494c-0.175,0.226-0.35,0.45-0.52,0.68l2.257,2.513
	C11.007,17.861,11.169,17.625,11.34,17.396z M13.703,14.613l-2.206-2.462c-0.196,0.202-0.392,0.404-0.583,0.611l2.211,2.462
	C13.313,15.017,13.509,14.816,13.703,14.613z M10.281,18.925L8.01,16.391c-0.164,0.238-0.324,0.479-0.482,0.721l2.285,2.543
	C9.964,19.408,10.124,19.167,10.281,18.925z M16.356,12.154l-2.205-2.459c-0.217,0.179-0.425,0.367-0.637,0.551l2.202,2.453
	C15.929,12.515,16.139,12.331,16.356,12.154z M17.798,11.054l-2.214-2.47c-0.227,0.167-0.449,0.34-0.672,0.513l2.207,2.458
	C17.343,11.383,17.57,11.218,17.798,11.054z M9.301,20.54l-2.314-2.583c-0.153,0.251-0.296,0.509-0.442,0.764l2.333,2.597
	C9.014,21.057,9.156,20.797,9.301,20.54z M14.992,13.342l-2.201-2.455c-0.207,0.19-0.408,0.386-0.609,0.581l2.203,2.453
	C14.584,13.726,14.787,13.532,14.992,13.342z M6.912,26.004l-2.505-2.795c-0.113,0.293-0.224,0.588-0.329,0.886l2.556,2.846
	C6.723,26.626,6.813,26.313,6.912,26.004z M5.609,32.678l-2.915-3.252c-0.061,0.353-0.116,0.707-0.165,1.063l3.01,3.352
	C5.554,33.45,5.579,33.063,5.609,32.678z M8.403,22.248l-2.358-2.631c-0.141,0.264-0.276,0.531-0.41,0.799l2.392,2.663
	C8.15,22.801,8.271,22.521,8.403,22.248z M5.517,35.285l-3.145-3.508c-0.037,0.38-0.063,0.763-0.087,1.146l3.266,3.638
	C5.529,36.137,5.521,35.711,5.517,35.285z M5.89,30.282l-2.741-3.058c-0.081,0.33-0.159,0.66-0.229,0.993l2.822,3.142
	C5.786,30.998,5.833,30.638,5.89,30.282z M7.61,24.072l-2.426-2.707c-0.127,0.277-0.257,0.553-0.377,0.834l2.464,2.744
	C7.377,24.65,7.494,24.361,7.61,24.072z M19.312,10.033l-2.229-2.487c-0.238,0.156-0.474,0.313-0.707,0.474l2.22,2.472
	C18.832,10.334,19.072,10.184,19.312,10.033z M5.683,38.18L2.23,34.327C2.226,34.551,2.213,34.774,2.213,35
	c0,0.189,0.011,0.376,0.014,0.564l3.646,4.06C5.798,39.146,5.735,38.664,5.683,38.18z M6.336,28.07L3.72,25.151
	c-0.098,0.313-0.185,0.629-0.274,0.946l2.662,2.963C6.176,28.728,6.257,28.399,6.336,28.07z M51.146,10.327l-5.758-6.423
	c-0.509-0.169-1.021-0.327-1.537-0.472l4.939,5.502C49.6,9.362,50.385,9.828,51.146,10.327z M46.477,7.826l-4.319-4.821
	c-0.45-0.1-0.904-0.19-1.361-0.271l3.993,4.446C45.357,7.38,45.922,7.592,46.477,7.826z M56.955,15.316l9.561,10.645
	c-0.18-0.625-0.373-1.244-0.589-1.854L49.189,5.435c-0.602-0.289-1.213-0.553-1.832-0.805l9.393,10.458
	C56.818,15.163,56.887,15.24,56.955,15.316z M42.951,6.603l-3.68-4.104c-0.414-0.054-0.828-0.104-1.248-0.142l3.488,3.883
	C41.996,6.35,42.477,6.471,42.951,6.603z M63.328,18.5l-8.844-9.868c-0.879-0.65-1.791-1.255-2.733-1.816l13.063,14.545
	C64.365,20.38,63.869,19.426,63.328,18.5z M39.915,5.925l-3.29-3.671c-0.381-0.019-0.766-0.023-1.149-0.029l3.157,3.516
	C39.063,5.793,39.491,5.854,39.915,5.925z M63.703,28.243l3.994,4.447c-0.031-0.44-0.066-0.879-0.114-1.314l-4.329-4.831
	C63.421,27.104,63.568,27.671,63.703,28.243z M62.393,24.077l4.94,5.501c-0.085-0.508-0.181-1.012-0.287-1.512l-5.756-6.421
	C61.693,22.436,62.061,23.247,62.393,24.077z M20.899,9.094L18.65,6.585c-0.249,0.144-0.499,0.284-0.743,0.434l2.249,2.503
	C20.402,9.378,20.648,9.231,20.899,9.094z M28.129,6.323L25.662,3.57c-0.296,0.088-0.59,0.18-0.882,0.276l2.434,2.71
	C27.517,6.474,27.822,6.396,28.129,6.323z M24.333,7.507l-2.337-2.608c-0.271,0.117-0.538,0.24-0.805,0.364l2.311,2.573
	C23.776,7.72,24.055,7.615,24.333,7.507z M37.195,5.6l-3.02-3.366c-0.364,0.009-0.729,0.018-1.09,0.039l2.932,3.263
	C36.413,5.549,36.805,5.571,37.195,5.6z M22.575,8.255l-2.289-2.553c-0.259,0.13-0.52,0.26-0.775,0.397l2.278,2.537
	C22.05,8.505,22.311,8.378,22.575,8.255z M26.177,6.854l-2.394-2.67C23.501,4.286,23.225,4.4,22.946,4.51l2.367,2.636
	C25.6,7.046,25.886,6.945,26.177,6.854z M34.693,5.518l-2.825-3.152c-0.342,0.033-0.681,0.076-1.02,0.119l2.749,3.062
	C33.96,5.528,34.326,5.521,34.693,5.518z M32.368,5.633l-2.676-2.986C29.366,2.7,29.043,2.758,28.72,2.821l2.625,2.922
	C31.684,5.701,32.024,5.663,32.368,5.633z M30.186,5.907l-2.557-2.852c-0.311,0.071-0.623,0.14-0.931,0.221l2.519,2.804
	C29.538,6.017,29.861,5.96,30.186,5.907z M11.412,52.699L3.41,43.771c0.175,0.633,0.369,1.258,0.581,1.875l17.108,19.049
	c0.57,0.268,1.151,0.517,1.739,0.75l-8.066-8.998C13.549,55.295,12.422,54.044,11.412,52.699z M57.607,53.93l2.22,2.473
	c0.171-0.197,0.345-0.394,0.511-0.596l-2.232-2.492C57.939,53.521,57.777,53.729,57.607,53.93z M52.316,58.864l2.218,2.468
	c0.208-0.154,0.409-0.316,0.614-0.477l-2.205-2.461C52.736,58.555,52.527,58.711,52.316,58.864z M59.796,50.954l2.278,2.536
	c0.15-0.221,0.297-0.447,0.441-0.674l-2.283-2.547C60.093,50.502,59.943,50.727,59.796,50.954z M60.771,49.334l2.316,2.581
	c0.143-0.233,0.271-0.474,0.409-0.711L61.165,48.6C61.037,48.848,60.906,49.092,60.771,49.334z M61.659,47.616l2.364,2.633
	c0.129-0.246,0.258-0.494,0.381-0.744l-2.393-2.67C61.896,47.098,61.781,47.357,61.659,47.616z M53.755,57.759l2.203,2.452
	c0.199-0.165,0.392-0.338,0.587-0.509l-2.199-2.454C54.148,57.419,53.956,57.593,53.755,57.759z M56.395,55.285l2.209,2.459
	c0.182-0.188,0.361-0.373,0.537-0.564l-2.211-2.467C56.755,54.907,56.574,55.096,56.395,55.285z M55.109,56.563l2.203,2.453
	c0.188-0.178,0.377-0.354,0.563-0.537l-2.2-2.455C55.488,56.205,55.3,56.384,55.109,56.563z M58.743,52.486l2.241,2.498
	c0.162-0.211,0.322-0.42,0.479-0.635l-2.256-2.517C59.055,52.055,58.9,52.271,58.743,52.486z M64.479,34.518l3.164,3.523
	c0.032-0.361,0.063-0.725,0.082-1.089l-3.287-3.668C64.46,33.693,64.473,34.105,64.479,34.518z M64.404,37.143l2.932,3.266
	c0.057-0.338,0.104-0.674,0.148-1.014l-3.021-3.369C64.451,36.398,64.432,36.771,64.404,37.143z M67.77,34.292l-3.676-4.101
	c0.076,0.466,0.143,0.937,0.195,1.41l3.486,3.881c0.002-0.162,0.012-0.321,0.012-0.483C67.787,34.763,67.773,34.529,67.77,34.292z
	 M64.141,39.553l2.748,3.063c0.074-0.312,0.15-0.621,0.217-0.937l-2.832-3.158C64.232,38.866,64.191,39.212,64.141,39.553z
	 M63.139,43.85l2.512,2.799c0.104-0.275,0.205-0.556,0.305-0.834l-2.561-2.854C63.313,43.257,63.229,43.557,63.139,43.85z
	 M62.445,45.786l2.434,2.71c0.117-0.26,0.239-0.518,0.35-0.78l-2.467-2.754C62.661,45.24,62.555,45.514,62.445,45.786z M63.7,41.771
	l2.628,2.926c0.091-0.295,0.17-0.594,0.253-0.893l-2.669-2.979C63.85,41.145,63.773,41.458,63.7,41.771z M19.242,59.922l5.623,6.262
	c0.478,0.154,0.961,0.299,1.448,0.433l-4.861-5.425C20.695,60.799,19.958,60.376,19.242,59.922z M27.283,63.463l3.649,4.064
	c0.387,0.048,0.775,0.091,1.167,0.125l-3.457-3.856C28.186,63.695,27.732,63.585,27.283,63.463z M30.296,64.111l3.268,3.64
	c0.357,0.017,0.716,0.022,1.077,0.026l-3.138-3.502C31.098,64.229,30.695,64.177,30.296,64.111z M23.788,62.277l4.283,4.77
	c0.422,0.092,0.849,0.17,1.276,0.244l-3.952-4.409C24.853,62.695,24.316,62.495,23.788,62.277z M32.999,64.415l3.005,3.347
	c0.339-0.01,0.678-0.021,1.014-0.041l-2.916-3.253C33.732,64.456,33.365,64.439,32.999,64.415z M7.483,45.607l-4.858-5.42
	c0.083,0.52,0.176,1.035,0.283,1.547l5.61,6.248C8.139,47.209,7.796,46.416,7.483,45.607z M6.24,41.51l-3.953-4.408
	c0.028,0.453,0.062,0.907,0.108,1.356l4.288,4.774C6.519,42.665,6.371,42.091,6.24,41.51z M35.485,64.479l2.824,3.145
	c0.315-0.031,0.629-0.077,0.942-0.117l-2.735-3.052C36.175,64.469,35.83,64.473,35.485,64.479z M50.809,59.891l2.231,2.483
	c0.218-0.144,0.435-0.291,0.647-0.44l-2.215-2.471C51.256,59.609,51.029,59.748,50.809,59.891z M6.412,51.049l9.557,10.641
	c0.823,0.59,1.674,1.142,2.552,1.65L5.025,48.284C5.445,49.23,5.908,50.152,6.412,51.049z M45.807,62.438l2.336,2.603
	c0.248-0.108,0.496-0.222,0.741-0.336l-2.308-2.574C46.322,62.236,46.063,62.337,45.807,62.438z M47.559,61.686l2.287,2.545
	c0.238-0.121,0.479-0.237,0.715-0.364l-2.273-2.538C48.045,61.448,47.805,61.568,47.559,61.686z M49.227,60.834l2.252,2.508
	c0.229-0.133,0.457-0.265,0.683-0.402l-2.242-2.502C49.688,60.57,49.458,60.705,49.227,60.834z M42.025,63.643l2.466,2.744
	c0.272-0.082,0.542-0.172,0.812-0.261l-2.427-2.708C42.594,63.496,42.313,63.57,42.025,63.643z M39.975,64.064l2.555,2.844
	c0.287-0.067,0.574-0.135,0.859-0.208l-2.508-2.798C40.581,63.963,40.277,64.014,39.975,64.064z M37.805,64.354l2.668,2.973
	c0.303-0.053,0.604-0.104,0.902-0.162l-2.616-2.919C38.441,64.284,38.125,64.324,37.805,64.354z M43.967,63.098l2.395,2.666
	c0.262-0.097,0.517-0.203,0.771-0.305l-2.359-2.634C44.505,62.919,44.236,63.012,43.967,63.098z" changeable="0"/>
<radialGradient id="SVGID_3_" cx="577" cy="756" r="32.7871" gradientTransform="matrix(1 0 0 1 -542 -721)" gradientUnits="userSpaceOnUse">
	<stop  offset="0.8498" style="stop-color:#F5E1E7"/>
	<stop  offset="1" style="stop-color:#AE457B"/>
</radialGradient>
<path opacity="0.3" fill="url(#SVGID_3_)" d="M35,2.213c-8.258,0-15.804,3.054-21.569,8.094
	C6.556,16.317,2.213,25.151,2.213,35c0,9.57,4.101,18.186,10.642,24.18c5.834,5.346,13.609,8.607,22.145,8.607
	c9.238,0,17.587-3.822,23.547-9.973c5.721-5.9,9.24-13.946,9.24-22.814c0-7.312-2.395-14.064-6.439-19.518
	C55.373,7.431,45.796,2.213,35,2.213z M35,64.49c-7.491,0-14.33-2.793-19.532-7.396C9.36,51.691,5.51,43.796,5.51,35
	c0-8.988,4.021-17.037,10.362-22.446C21.021,8.162,27.701,5.51,35,5.51c9.6,0,18.126,4.586,23.512,11.687
	C62.264,22.144,64.49,28.312,64.49,35c0,8.201-3.348,15.621-8.752,20.967C50.411,61.236,43.086,64.49,35,64.49z" changeable="0"/>
</svg>
