<?xml version="1.0" encoding="utf-8"?>
<svg version="1.1" id="Layer_1" xmlns="http://www.w3.org/2000/svg" xmlns:xlink="http://www.w3.org/1999/xlink" x="0px" y="0px"
	 width="55.729px" height="70px" viewBox="0 0 55.729 70" enable-background="new 0 0 55.729 70" xml:space="preserve">

	<path style="fill:none" d="M48.208,59.074c0,1.184-0.959,2.143-2.143,2.143H10.272c-1.183,0-2.142-0.959-2.142-2.143V13.58
		c0-1.183,0.959-2.143,2.142-2.143h35.793c1.183,0,2.143,0.959,2.143,2.143V59.074z" isFrame="true" changeable="0"/>
	<path style="fill:#000000" d="M21.016,9.182C21.162,9.294,21.099,9.077,21.016,9.182L21.016,9.182z M29.673,8.044c-0.128,0.021-0.173-0.036-0.25-0.062
		C29.407,8.141,29.614,8.112,29.673,8.044z M27.115,9.015c0-0.032-0.001-0.065-0.001-0.097C27.009,8.871,27.012,9.064,27.115,9.015z
		 M15.167,15.592c0.245,0.048,0.48,0.074,0.677-0.073c0.148,0.037,0.42-0.011,0.571-0.071c-0.596,0.018-0.969,0.146-1.57,0.051
		C14.834,15.638,15.059,15.571,15.167,15.592z M20.979,9.053c0.023-0.088-0.075-0.062-0.108-0.097
		C20.851,9.041,20.887,9.073,20.979,9.053z M20.768,9.25c-0.062,0.03-0.192,0.001-0.178,0.099
		C20.652,9.319,20.781,9.348,20.768,9.25z M13.6,15.837c-0.234,0.338-0.467,0.678-0.846,0.887c-0.051,0.063-0.05,0.17-0.141,0.196
		c-0.258,0.006-0.713,0.022-0.711,0.203c0.183-0.11,0.511-0.236,0.712-0.073c0.179-0.29,0.492-0.462,0.742-0.69
		C13.356,16.135,13.684,16.031,13.6,15.837z M14.274,15.505c0.053,0.005,0.033,0.078,0.037,0.129
		c-0.104,0.05-0.313,0.131-0.427,0.07c-0.018-0.246-0.325-0.345-0.15-0.583c-0.128,0.06-0.105-0.005-0.214-0.03
		c-0.025,0.29,0.324,0.505,0.437,0.774c-0.032-0.104,0.054-0.102,0.106-0.131c0.142,0.026,0.179,0.026,0.32-0.004
		c-0.004-0.229,0.312-0.173,0.389-0.329C14.613,15.315,14.423,15.477,14.274,15.505z M11.105,44.323
		c-0.01,0.02-0.087,0.126,0.001,0.13C11.117,44.432,11.194,44.327,11.105,44.323z M31.077,9.165
		c-0.053,0.006-0.132-0.01-0.143,0.034C30.982,9.24,31.068,9.241,31.077,9.165z M33.727,13.107
		c-0.058,0.003-0.156-0.052-0.071,0.001C33.623,13.188,33.86,13.115,33.727,13.107z M18.874,59.144c0-0.032,0-0.064-0.001-0.098
		C18.769,59,18.771,59.193,18.874,59.144z M29.572,8.629C29.492,8.256,29.554,8.728,29.572,8.629L29.572,8.629z M11.724,17.191
		c0.061,0.001,0.091-0.026,0.106-0.066C11.769,17.124,11.739,17.151,11.724,17.191z M16.401,58.165
		c0.022,0.02,0.17,0.075,0.179-0.001C16.491,58.207,16.43,58.07,16.401,58.165z M19.339,59.301c0.078,0.005,0.113-0.027,0.106-0.099
		C19.35,59.181,19.377,59.271,19.339,59.301z M19.598,56.959c0.038-0.001,0.065-0.002,0.087-0.002
		C19.618,56.959,19.531,56.961,19.598,56.959z M17.063,16.057c-0.469,0.017,0.454,0.059,0.465,0.093
		C17.431,16.06,17.222,15.993,17.063,16.057z M33.048,13.083c0.044,0.003,0.084,0.008,0.072,0.064
		c0.052-0.019,0.185,0.036,0.178-0.035C33.224,13.054,33.125,13.043,33.048,13.083z M18.939,14.802
		c0.136-0.147,0.34-0.403,0.351-0.556c-0.424,0.309-0.579,0.857-1.202,0.988c0.092,0.135-0.075,0.146-0.032,0.325
		c-0.129,0.036-0.438,0.082-0.391,0.167c0.139-0.045,0.326-0.119,0.463-0.07c-0.044-0.474,0.817-0.295,0.921-0.531
		c0.136,0.029,0.394,0.043,0.32-0.068C19.158,15.167,18.965,14.976,18.939,14.802z M23.095,13.131
		c-0.052,0.018-0.185-0.036-0.178,0.034C22.968,13.146,23.102,13.201,23.095,13.131z M22.786,14.174c-0.024,0-0.047,0-0.071,0
		c-0.055,0.081,0.122,0.094,0.107,0.031C22.8,14.204,22.779,14.202,22.786,14.174z M18.885,57c0.066-0.032,0.121,0.096,0.143-0.002
		C19.006,56.989,18.89,56.919,18.885,57z M23.273,13.161C23.099,13.174,23.557,13.141,23.273,13.161L23.273,13.161z M21.936,14.703
		c-0.203,0.056-0.592-0.005-0.82,0.106C21.394,14.799,21.868,14.793,21.936,14.703z M10.074,54.014
		c-0.028,0.082-0.096,0.129-0.104,0.229c0.067-0.005,0.119-0.022,0.143-0.066C9.993,54.167,10.204,54.034,10.074,54.014z
		 M10.235,55.572c-0.031,0.067,0.119,0.122,0.107,0.063C10.286,55.633,10.313,55.553,10.235,55.572z M15.509,58.208
		c-0.018-0.064,0.196-0.077,0.07-0.131c-0.063,0.089-0.215-0.016-0.286-0.029c0.031,0.157,0.292,0.299,0.147,0.42
		c0.123-0.101,0.217,0.157,0.286-0.003C15.584,58.445,15.513,58.358,15.509,58.208z M13.827,57.675
		c0.042,0.009,0.136,0.129,0.179,0.03C13.923,57.734,13.85,57.593,13.827,57.675z M14.471,57.863c0.015,0.14,0.391,0.4,0.646,0.317
		C14.843,58.128,14.645,58.006,14.471,57.863z M15.65,58.011c0.17,0.163,0.374,0.123,0.538,0.254c-0.052-0.197,0.16-0.01,0.177-0.1
		c-0.103-0.035-0.211-0.065-0.287-0.126C16.029,58.187,15.799,57.985,15.65,58.011z M14.077,57.737
		c0.013,0.076,0.038,0.14,0.109,0.161C14.173,57.823,14.147,57.759,14.077,57.737z M14.307,59.164
		c0.054-0.006,0.132,0.011,0.143-0.034c-0.073-0.009-0.096-0.063-0.144-0.096C14.248,59.099,14.31,59.076,14.307,59.164z
		 M23.452,13.159c0.074-0.02,0.235,0.038,0.25-0.035C23.627,13.144,23.466,13.086,23.452,13.159z M20.224,58.674
		c0.087,0.057,0.375-0.016,0.285-0.101C20.493,58.677,20.271,58.598,20.224,58.674z M16.479,58.684
		c0.053-0.001,0.147,0.119,0.178,0.03C16.612,58.708,16.481,58.623,16.479,58.684z M16.623,58.845
		c0.056,0.035,0.076,0.104,0.18,0.096C16.802,58.873,16.657,58.773,16.623,58.845z M17.367,58.447
		c0.004,0.051-0.003,0.112,0.073,0.097c0-0.021,0-0.043-0.001-0.065C17.403,58.479,17.396,58.453,17.367,58.447z M20.18,14.041
		c-0.189,0.304-0.275,0.699-0.633,0.852c0.152-0.003,0.261-0.046,0.392-0.069C19.885,14.465,20.215,14.277,20.18,14.041z
		 M18.161,59.185c0.063-0.02,0.21,0.036,0.214-0.035C18.295,59.136,18.18,59.078,18.161,59.185z M20.848,13.221
		c0-0.043,0.062-0.03,0.07-0.065C20.876,13.077,20.751,13.194,20.848,13.221z M20.393,13.941c0.084-0.086,0.159-0.35,0.102-0.456
		C20.497,13.635,20.341,13.958,20.393,13.941z M20.438,14.785c-0.119-0.057-0.154-0.296-0.252-0.192
		c0.081,0.199,0.38,0.368,0.681,0.252C20.749,14.802,20.617,14.771,20.438,14.785z M17.396,57.796
		c-0.115,0.039-0.221-0.097-0.285,0.003C17.244,57.772,17.341,57.945,17.396,57.796z M21.347,13.118c0-0.021,0-0.043-0.001-0.064
		c-0.024,0-0.048,0-0.071,0.001c0,0.021,0,0.043,0,0.064C21.299,13.119,21.323,13.118,21.347,13.118z M16.718,57.804
		c0.117,0,0.178,0.053,0.321,0.029C17.066,57.719,16.745,57.761,16.718,57.804z M17.149,58.027
		c-0.051,0.021-0.225,0.096-0.142,0.132c0.173-0.116,0.264,0.125,0.395,0.157C17.415,58.128,17.244,58.113,17.149,58.027z
		 M11.3,67.621c0.056,0.003,0.029,0.082,0.107,0.063C11.438,67.617,11.313,67.54,11.3,67.621z M13.476,64.477
		c0.019,0.094,0.132,0.269,0.251,0.16C13.575,64.648,13.571,64.52,13.476,64.477z M13.738,9.265c0.054-0.006,0.132,0.01,0.143-0.034
		c-0.072-0.009-0.096-0.064-0.144-0.096C13.679,9.2,13.741,9.176,13.738,9.265z M9.774,5.737C9.718,5.735,9.745,5.654,9.666,5.673
		C9.635,5.741,9.786,5.795,9.774,5.737z M10.435,66.851c-0.082-0.151-0.056-0.272-0.254-0.354c0.029,0.145,0.079,0.345,0.112,0.389
		C10.301,66.771,10.451,66.942,10.435,66.851z M10.223,67.015c0.032,0.025,0.102-0.021,0.106-0.033
		C10.379,66.857,10.151,66.96,10.223,67.015z M10.264,67.47c0.048-0.129,0.318-0.06,0.354-0.199
		C10.448,67.271,10.199,67.369,10.264,67.47z M10.841,68.048c0.022,0.001,0.042,0.004,0.036,0.031
		c-0.148-0.024-0.016,0.201-0.104,0.229c0.083-0.012,0.137,0.004,0.179,0.03c0.046-0.055,0.093-0.11,0.068-0.229
		C10.949,68.119,10.866,67.975,10.841,68.048z M10.41,67.76c-0.021,0.021-0.082,0.155,0.002,0.163
		C10.364,67.843,10.515,67.788,10.41,67.76z M9.631,21.308C9.831,21.317,9.515,21.302,9.631,21.308L9.631,21.308z M9.663,21.08
		c0,0.043-0.062,0.031-0.07,0.066c0.047,0,0.034,0.057,0.072,0.063C9.63,21.15,9.771,21.1,9.663,21.08z M9.695,17.571
		c0.048-0.128,0.319-0.059,0.354-0.198C9.879,17.373,9.631,17.47,9.695,17.571z M9.667,21.373c-0.032,0.006-0.016,0.18,0.037,0.064
		C9.712,21.417,9.688,21.369,9.667,21.373z M9.841,17.862c-0.021,0.021-0.082,0.155,0.002,0.163
		C9.795,17.944,9.946,17.888,9.841,17.862z M16.088,8.816c-0.045-0.006-0.176-0.092-0.179-0.03
		C15.962,8.784,16.057,8.904,16.088,8.816z M16.233,9.042c0-0.069-0.145-0.167-0.18-0.096C16.11,8.982,16.13,9.051,16.233,9.042z
		 M16.959,13.266C16.838,13.168,16.853,13.387,16.959,13.266L16.959,13.266z M10.731,17.722c0.056,0.002,0.028,0.082,0.107,0.063
		C10.87,17.718,10.745,17.641,10.731,17.722z M10.451,18.212c-0.071,0.008-0.154-0.137-0.179-0.063
		c0.022,0.001,0.043,0.004,0.036,0.031c-0.148-0.024-0.016,0.201-0.104,0.229c0.083-0.011,0.137,0.004,0.179,0.03
		C10.429,18.385,10.476,18.331,10.451,18.212z M19.94,8.674c-0.016,0.104-0.237,0.025-0.284,0.101
		C19.742,8.832,20.03,8.759,19.94,8.674z M18.877,9.304c-0.096-0.021-0.068,0.068-0.106,0.099
		C18.849,9.408,18.884,9.375,18.877,9.304z M17.806,9.251c-0.079-0.013-0.194-0.072-0.213,0.035
		C17.655,9.267,17.802,9.323,17.806,9.251z M18.305,9.246c0-0.033-0.001-0.065-0.001-0.098C18.2,9.101,18.202,9.294,18.305,9.246z
		 M46.705,34.301C46.583,34.204,46.598,34.422,46.705,34.301L46.705,34.301z M9.724,16.986c0.008-0.114,0.159,0.057,0.143-0.033
		C9.785,16.8,9.811,16.68,9.612,16.597C9.642,16.743,9.69,16.942,9.724,16.986z M16.871,8.644c0-0.021,0-0.043,0-0.064
		c-0.036,0-0.043-0.026-0.072-0.032C16.803,8.599,16.795,8.661,16.871,8.644z M9.654,17.117c0.032,0.024,0.102-0.021,0.107-0.033
		C9.81,16.958,9.583,17.062,9.654,17.117z M17.528,63.165C17.407,63.067,17.421,63.286,17.528,63.165L17.528,63.165z M41.421,59.05
		c0.082,0.007,0.135-0.01,0.143-0.067C41.482,58.975,41.429,58.993,41.421,59.05z M13.188,64.221
		c0.114,0.058,0.197,0.145,0.288,0.224C13.435,64.337,13.271,64.081,13.188,64.221z M43.82,56.651
		c0.014,0.104-0.281,0.22-0.068,0.293C43.677,56.779,43.966,56.773,43.82,56.651z M33.974,12.876
		c0.039,0.142-0.119,0.108-0.104,0.229c0.103-0.037,0.241-0.043,0.248-0.166C34.002,12.981,34.089,12.835,33.974,12.876z
		 M27.826,8.748c-0.077-0.001-0.245,0.078-0.141,0.131C27.666,8.776,27.861,8.865,27.826,8.748z M46.729,48.886
		c-0.012-0.132,0.012-0.073,0.106-0.065c-0.076-0.084,0.009-0.315-0.076-0.39c-0.06,0.166,0.025,0.317-0.138,0.424
		C46.67,48.853,46.7,48.87,46.729,48.886z M12.293,67.089c0.061,0.001,0.091-0.026,0.106-0.066
		C12.338,67.022,12.308,67.049,12.293,67.089z M46.775,49.861l-0.071,0.001c0,0.021,0,0.043,0.001,0.064
		C46.748,49.922,46.789,49.916,46.775,49.861z M46.734,49.406c-0.022-0.001-0.042-0.004-0.036-0.031
		c0.021-0.002,0.042-0.006,0.035-0.033c-0.036,0-0.072,0.001-0.107,0.001C46.577,49.44,46.845,49.455,46.734,49.406z M9.543,4.278
		C9.425,4.269,9.636,4.135,9.506,4.116C9.477,4.197,9.41,4.244,9.401,4.344C9.468,4.339,9.52,4.322,9.543,4.278z M46.58,42.067
		c0.077,0.071,0.126-0.024,0.105-0.132c-0.087-0.006-0.132-0.13-0.179,0.002C46.604,41.962,46.71,42,46.58,42.067z M21.417,63.121
		c0-0.044,0.062-0.031,0.07-0.066C21.445,62.976,21.319,63.092,21.417,63.121z M41.608,62.922c0.056-0.004,0.124,0.003,0.106-0.066
		C41.653,62.855,41.623,62.882,41.608,62.922z M46.635,65.724c-0.007,0.025-0.029,0.037-0.071,0.032
		c-0.015,0.103,0.033,0.146,0.144,0.129C46.688,65.828,46.688,65.75,46.635,65.724z M41.964,62.886
		c0.048-0.086,0.269-0.019,0.248-0.166C42.111,62.74,41.912,62.837,41.964,62.886z M50.795,67.069l0.404-0.005l-0.042-3.688
		l-0.404,0.005c-0.187,0.002-0.34-0.161-0.342-0.364l-0.024-2.133c-0.002-0.203,0.147-0.369,0.334-0.372l0.404-0.004l-0.042-3.688
		l-0.404,0.005c-0.187,0.002-0.34-0.161-0.343-0.364l-0.024-2.133c-0.002-0.203,0.147-0.37,0.334-0.372l0.404-0.005l-0.011-0.924
		c0.052-0.029,0.112-0.037,0.138-0.089c0.03,0.019,0.063-0.021,0.036-0.045c0.07-0.08,0.105-0.158,0.074-0.243
		c0.026-0.062,0.02-0.116,0.011-0.17c-0.015-0.012-0.019-0.025-0.043-0.035c0.008-0.118-0.04-0.289-0.19-0.309
		c0.003-0.037-0.034-0.033-0.032-0.07c-0.001-0.001-0.003-0.002-0.004-0.003l-0.021-1.8l-0.404,0.005
		c-0.187,0.002-0.34-0.161-0.343-0.364l-0.022-2.021l-0.001-0.111c-0.002-0.203,0.147-0.37,0.334-0.372l0.537-0.006
		c-0.023-0.049-0.055-0.096-0.089-0.142c-0.017-0.022-0.031-0.045-0.046-0.068l-0.005-0.465c0.027-0.041,0.027-0.09-0.001-0.122
		l-0.001-0.08c0.001-0.003,0.004-0.005,0.006-0.008c0-0.006-0.004-0.008-0.006-0.012l-0.032-2.79l-0.404,0.005
		c-0.187,0.002-0.34-0.161-0.343-0.364l-0.024-2.133c-0.002-0.203,0.147-0.37,0.334-0.372l0.404-0.005l-0.042-3.688l-0.403,0.005
		c-0.187,0.002-0.34-0.161-0.342-0.365l-0.024-2.132c-0.002-0.203,0.147-0.37,0.334-0.372l0.404-0.005l-0.042-3.688l-0.404,0.005
		c-0.187,0.002-0.34-0.161-0.343-0.364l-0.024-2.133c-0.003-0.203,0.147-0.37,0.334-0.372l0.404-0.005l-0.042-3.688l-0.404,0.004
		c-0.187,0.003-0.34-0.16-0.343-0.364l-0.024-2.133c-0.002-0.203,0.147-0.369,0.334-0.371l0.403-0.005l-0.042-3.688l-0.404,0.004
		c-0.187,0.002-0.34-0.161-0.343-0.363l-0.024-2.133c-0.002-0.204,0.147-0.371,0.334-0.373l0.404-0.004l-0.042-3.688l-0.404,0.005
		c-0.187,0.002-0.34-0.161-0.342-0.364l-0.025-2.133c-0.002-0.204,0.147-0.37,0.334-0.372l0.404-0.005l-0.042-3.688l-0.404,0.004
		c-0.187,0.002-0.34-0.161-0.343-0.364l-0.023-2.048c-1.113-0.193-2.235-0.354-3.37-0.475c0.032,0.503,0.087,1.013,0.075,1.497
		c-0.004,0.185-0.004,0.42-0.101,0.586C46.336,3.6,46.38,3.589,46.391,3.63c0.105,0.39,0.017,1.729-0.12,2.048
		c-0.012,0.03-0.053,0.069-0.106,0.066c0,0.077,0.063,0.095,0.038,0.195c-0.654,1.588-2.056,2.997-4.173,3.231
		c-0.174,0.019-0.234-0.055-0.356,0.037c-0.061,0.013-0.067-0.024-0.072-0.064c-0.194,0.106-0.558,0.061-0.855,0.075
		c-0.156,0.026,0.028-0.064-0.072-0.064c-0.146-0.037-0.517,0.152-0.642,0.007c-0.123,0.134-0.557,0.084-0.607-0.058
		c-0.045,0.039-0.347,0.165-0.321-0.029c-0.125,0.173-0.275,0.034-0.499,0.038c0.048,0.064,0.159,0.07,0.251,0.095
		c-0.617,0.075-1.541,0.033-2.318,0.059c0.059-0.108,0.235-0.113,0.283-0.231c-0.133-0.148-0.291,0.146-0.499,0.071
		c-0.04,0.03,0.003,0.073-0.07,0.131c-0.143-0.115-0.085,0.018-0.213,0.035c-0.219,0.029-0.548-0.013-0.821,0.009
		c-0.114,0.03-0.075-0.083-0.144-0.096c-0.053,0.015,0.015,0.042,0.001,0.098c-0.071,0.001-0.143,0.001-0.214,0.002
		c0.071-0.156-0.044-0.033-0.144-0.128c0.036-0.106,0.089-0.07-0.002-0.162c-0.007,0.105-0.266,0.203-0.104,0.261
		c-0.11,0.074-0.287-0.209-0.429-0.027c-0.035-0.131-0.188-0.354-0.323-0.191c-0.187-0.195-0.628-0.17-0.785,0.009
		c-0.072,0.012-0.112-0.005-0.108-0.063c-0.048,0.011-0.028,0.082-0.034,0.13C32.809,9.107,32.7,8.983,32.61,9.05
		c-0.058,0.155,0.133,0.034,0.037,0.097c-0.018,0.151-0.231-0.004-0.286-0.029c-0.024,0.099,0.038,0.118,0.038,0.194
		c-0.19-0.015-0.403,0.027-0.571,0.007c-0.042-0.005-0.082-0.064-0.072-0.064c-0.047,0-0.095,0.059-0.142,0.067
		c-0.283,0.051-0.636-0.028-1.035,0.012c0.012-0.043,0.062-0.052,0.07-0.098c-0.05,0.003-0.101,0.006-0.107-0.031
		c-0.516,0.266-0.858-0.115-0.969-0.509c-0.042,0.171,0.199,0.361,0.256,0.549c-0.083-0.009-0.137,0.006-0.178,0.034
		c0.094,0.094,0.273-0.137,0.322,0.062c-0.769-0.009-1.336,0.022-2.211,0.025c0.399-0.103,0.385-0.379,0.491-0.721
		c0.345-0.002,0.503-0.032,0.82-0.009c-0.518-0.177-1.104,0.025-1.713-0.078c-0.068,0.004-0.024,0.107-0.106,0.099
		c0.012,0.056,0.123-0.044,0.108,0.096c0.048-0.011,0.028-0.082,0.034-0.13c0.17,0.083,0.391-0.065,0.571,0.026
		c0.007,0.285-0.344,0.251-0.387,0.492c-0.112-0.021-0.047-0.086-0.038-0.162c-0.041,0.006-0.063-0.006-0.071-0.032
		c-0.051,0.084-0.416,0.058-0.319,0.166c-0.098,0.014-0.454,0.021-0.426,0.167c-0.393,0.147-1.301,0.104-1.961,0.12
		c0.073-0.118,0.265-0.129,0.39-0.199c-0.096-0.069-0.123-0.192-0.216-0.192c-0.053,0-0.092,0.127-0.143-0.031
		c-0.129,0.031-0.021,0.096-0.034,0.195c-0.213-0.082-0.324,0.19-0.533,0.233c-0.105,0.022-0.171-0.039-0.285,0.003
		c-0.003-0.095-0.083-0.12-0.145-0.161C23.612,9.283,23.9,9.375,23.801,9.41c-0.514,0.014-1.042,0-1.462,0.017
		c-0.018-0.101,0.095-0.087,0.105-0.164c-0.106,0.013-0.141,0.089-0.177,0.165c-0.149-0.098-0.115,0.025-0.393,0.004
		c-0.058-0.004-0.133-0.058-0.214-0.063c-0.099-0.006-0.271,0.103-0.322-0.029c-0.095,0.187-0.706,0.068-1.069,0.11
		c0.047-0.132-0.065-0.115-0.109-0.162c-0.055,0.03-0.018,0.12,0.001,0.13c-0.188,0.031-0.468,0.016-0.785,0.042
		c-0.077-0.048-0.11-0.137-0.181-0.192c-0.114,0.104-0.204,0.03-0.247,0.197c-0.034,0-0.067,0.001-0.101,0.001
		c-0.148-0.05-0.306-0.062-0.458-0.014c-0.017,0.005-0.032,0.013-0.047,0.02c-0.714,0.008-1.428,0.017-2.141,0.024
		c0.181-0.128,0.292-0.319,0.639-0.299c0-0.033,0-0.065-0.001-0.097c-0.103-0.073-0.298,0.062-0.393-0.061
		c-0.115,0.057,0.094,0.083,0.038,0.194c-0.186-0.059-0.352,0.152-0.533,0.201c-0.008-0.056,0.06-0.085-0.001-0.097
		c-0.158-0.003,0.018,0.091-0.07,0.13c-0.206,0.005-0.168,0.037-0.392,0.037c0.03-0.108,0.167-0.121,0.212-0.132
		c-0.031-0.203-0.13,0.009-0.285-0.029c-0.219-0.07-0.318-0.251-0.434-0.417c-0.136,0.061,0.172,0.271-0.032,0.292
		c0.146,0.061,0.199,0.209,0.36,0.256c-0.03,0.052-0.451,0.073-0.321-0.029c-0.112,0.1-0.214,0.008-0.356,0.069
		c-0.017-0.115-0.13-0.141-0.181-0.225c-0.096-0.021-0.068,0.068-0.106,0.099c0.024,0.118,0.166-0.078,0.179,0.03
		c-0.036,0.127-0.386,0.022-0.394-0.093c-0.072,0.032-0.141,0.068-0.213,0.1c0.026,0.03,0.066,0.048,0.108,0.064
		c-0.313,0.018-0.898,0.005-1.073-0.215c0.349,0.056,0.563-0.04,0.857,0.088c-0.048-0.109-0.302-0.025-0.253-0.225
		c-0.1-0.017-0.186-0.045-0.286-0.062c-0.023,0.044-0.091,0.049-0.104,0.103c-0.018-0.068-0.175-0.166-0.216-0.035
		c-0.095-0.033-0.122-0.127-0.216-0.16c0.07,0.117-0.11,0.17-0.068,0.261c-0.165-0.04-0.179-0.044-0.322-0.126
		c0.005-0.113,0.125-0.125,0.139-0.229c-0.126,0.026-0.132,0.161-0.211,0.229c-0.651-0.218-1.409-0.741-1.908-1.261
		c0.044-0.019,0.093-0.036,0.158-0.04c0.014-0.022,0.039-0.033,0.041-0.068c-0.026-0.005-0.046-0.005-0.083-0.021
		c-0.033,0.034-0.054,0.036-0.104,0.024c-0.001,0.032-0.023,0.052-0.049,0.067c-0.094-0.101-0.179-0.201-0.25-0.299
		c-0.017-0.023-0.039-0.056-0.062-0.092c0.012-0.011,0.023-0.023,0.027-0.043C10.048,7.326,10,7.315,9.954,7.315
		C9.905,7.218,9.875,7.123,9.932,7.1C9.929,7.065,9.89,7.064,9.853,7.061c0.001-0.008,0.003-0.013,0.002-0.022
		C9.831,7.033,9.812,7.032,9.794,7.033C9.866,6.996,9.87,7.026,9.966,6.969c-0.032-0.047-0.03-0.125-0.144-0.095
		c0.047-0.125,0.16-0.208,0.032-0.326c-0.045-0.011-0.183-0.02-0.25-0.094C9.724,6.48,9.667,6.21,9.6,6.129
		C9.499,6.103,9.508,6.175,9.422,6.163c0.041-0.215,0.183-0.532-0.009-0.779c0.042-0.199,0.104-0.379,0.136-0.586
		c-0.259-0.325-0.418-0.66-0.37-1.133c0.137,0.144,0.462-0.198,0.388-0.362c-0.013-0.027-0.021-0.04-0.027-0.045
		C9.547,3.253,9.556,3.24,9.567,3.206C9.66,2.92,9.482,2.533,9.378,2.331c-0.042-0.082-0.14-0.098-0.074-0.227
		c-0.005-0.115-0.117,0.07-0.107-0.031c-0.01-0.074-0.022-0.147-0.033-0.22C8.152,1.931,7.14,2.013,6.127,2.098l0.07,6.135
		C6.196,8.235,6.194,8.235,6.193,8.238c0.001,0,0.003,0,0.004,0.001l0.002,0.201c-0.004,0.007-0.01,0.015-0.014,0.022
		c-0.041,0.027-0.08,0.056-0.112,0.091c0.001,0.185,0.088,0.272,0.118,0.425c0.004,0.004,0.01,0.007,0.015,0.011l0.01,0.847
		C6.153,9.863,6.091,9.89,6.041,9.929L5.95,2.005c-0.21,0.068-0.431,0.126-0.666,0.15c0.045,0.062,0.073,0.139,0.074,0.224
		l0.024,2.132c0.002,0.204-0.146,0.37-0.334,0.372L4.743,4.887l0.042,3.688L5.09,8.572c0.188-0.002,0.34,0.161,0.343,0.364
		l0.023,2.041l0.001,0.092c0.002,0.203-0.146,0.37-0.334,0.372L2.538,11.47l-0.112,0.001c-0.187,0.002-0.341-0.161-0.343-0.364
		L2.058,8.975c-0.002-0.204,0.147-0.37,0.334-0.372l0.404-0.005L2.754,4.91L2.351,4.915C2.164,4.917,2.01,4.754,2.008,4.55
		L1.994,3.305C1.329,3.411,0.665,3.525,0,3.596L0.741,68.61c0.683,0.105,1.343,0.325,2.002,0.503L2.73,67.985
		c-0.002-0.203,0.147-0.37,0.334-0.372l0.404-0.005L3.427,63.92l-0.404,0.005c-0.187,0.002-0.34-0.161-0.343-0.364l-0.024-2.133
		c-0.002-0.203,0.148-0.369,0.334-0.371l0.404-0.005l-0.042-3.688l-0.404,0.005c-0.187,0.002-0.341-0.161-0.343-0.364l-0.024-2.133
		c-0.002-0.203,0.147-0.37,0.334-0.372l0.404-0.005l-0.042-3.688l-0.404,0.005c-0.187,0.002-0.34-0.161-0.343-0.364l-0.024-2.133
		c-0.002-0.203,0.147-0.37,0.334-0.372l0.404-0.005L3.203,44.25l-0.404,0.005c-0.187,0.002-0.341-0.161-0.343-0.364l-0.024-2.133
		c-0.002-0.203,0.147-0.37,0.334-0.372l0.404-0.005l-0.042-3.688l-0.404,0.004c-0.187,0.003-0.34-0.16-0.343-0.363l-0.024-2.133
		c-0.002-0.204,0.147-0.37,0.334-0.372l0.404-0.005l-0.042-3.688l-0.404,0.004c-0.187,0.003-0.34-0.16-0.343-0.363l-0.024-2.133
		c-0.002-0.204,0.147-0.37,0.334-0.372l0.404-0.005l-0.042-3.688l-0.404,0.004c-0.187,0.003-0.34-0.16-0.343-0.364l-0.024-2.133
		c-0.002-0.203,0.147-0.369,0.334-0.371l0.404-0.005l-0.042-3.688L2.5,18.028c-0.187,0.003-0.34-0.161-0.343-0.363l-0.024-2.133
		c-0.002-0.204,0.147-0.37,0.334-0.372l0.404-0.004l-0.02-1.759c0.038-0.03,0.066-0.083,0.085-0.145
		c0.177-0.03,0.254-0.167,0.39-0.24c0.071,0.019,0.153,0.084,0.249,0.098c0.086,0.012,0.15,0.02,0.167,0.099
		c-0.019,0.035-0.045,0.063-0.05,0.113c0.05,0.088,0.136,0.136,0.188,0.222c0.027,0,0.055,0,0.083-0.001
		c0.075,0.076,0.087,0.222,0.209,0.245c0.05,0.129,0.197,0.125,0.332,0.12c0.021,0.199,0.234,0.276,0.346,0.176l0.012,1.049
		l0.305-0.003c0.188-0.002,0.34,0.161,0.343,0.364l0.024,2.133c0.002,0.203-0.146,0.37-0.334,0.372L4.893,18l0.042,3.688
		l0.305-0.004c0.188-0.002,0.34,0.161,0.343,0.364l0.024,2.133c0.002,0.203-0.146,0.37-0.334,0.372l-0.305,0.004l0.042,3.688
		l0.306-0.004c0.187-0.002,0.34,0.161,0.342,0.364l0.024,2.133c0.002,0.203-0.147,0.37-0.334,0.372l-0.305,0.004l0.042,3.688
		l0.305-0.004c0.188-0.002,0.34,0.161,0.343,0.364l0.024,2.133c0.002,0.204-0.147,0.37-0.334,0.372l-0.306,0.004l0.042,3.688
		l0.306-0.003c0.187-0.003,0.34,0.16,0.342,0.364l0.024,2.132c0.002,0.204-0.147,0.37-0.334,0.372l-0.306,0.004l0.042,3.688
		l0.306-0.004c0.187-0.002,0.34,0.161,0.342,0.365l0.024,2.132c0.002,0.204-0.146,0.37-0.334,0.372l-0.305,0.004l0.042,3.688
		l0.306-0.003c0.187-0.003,0.34,0.16,0.342,0.364l0.024,2.133c0.002,0.203-0.147,0.369-0.334,0.371l-0.306,0.004l0.042,3.688
		l0.306-0.004c0.187-0.002,0.34,0.16,0.342,0.364l0.024,2.133c0.002,0.203-0.147,0.369-0.334,0.372l-0.306,0.003l0.042,3.688
		l0.305-0.003c0.188-0.003,0.34,0.161,0.343,0.364l0.012,1.087l0.598,0.177L6.064,12.024C6.087,12.01,6.111,12,6.143,12
		c0.127-0.12,0.099-0.395,0.004-0.55c-0.042-0.008-0.07,0.002-0.088,0.023L6.041,9.958c0.065-0.029,0.121-0.067,0.174-0.109
		l0.035,3.073c-0.011-0.005-0.021-0.01-0.035-0.013c0.01,0.018,0.022,0.034,0.035,0.047l0.644,56.451
		c1.026,0.063,2.05,0.119,3.07,0.171c-0.022-0.783-0.145-1.612-0.06-2.267c0.209-1.607,1.124-3.022,2.598-3.733
		c0.278,0.003,0.525,0.08,0.677-0.072c-0.091,0.001-0.265,0.015-0.5,0.006c0.242-0.136,0.561-0.349,0.925-0.271
		c0.032-0.136,0.185-0.095,0.248-0.133c0.126,0.025,0.124,0.191,0.287,0.094c-0.035-0.043-0.121-0.04-0.144-0.096
		c0.043-0.047,0.122-0.063,0.213-0.067c0.005,0.058-0.043,0.069-0.035,0.131c0.224,0.021,0.383-0.163,0.604-0.202
		c0.457-0.08,0.912,0.085,1.285,0.051c0.066,0.092,0.21,0.11,0.288,0.191c0.309-0.005,0.583-0.136,0.819-0.107
		c0.033-0.023,0.053-0.06,0.07-0.098c0.1,0.099,0.295,0.023,0.356-0.069c0.139,0.012-0.023,0.146,0.18,0.128
		c-0.057,0.096-0.113,0.014-0.178,0.066c0.064,0.148,0.197-0.041,0.357-0.004c0.042-0.005,0.03-0.059,0.035-0.098
		c0.12,0.062,0.194-0.078,0.32-0.101c0.262-0.049,0.742-0.009,1.177-0.014c0.428-0.005,0.89-0.044,1.178-0.014
		c0.161,0.018,0.329,0.013,0.394,0.158c-0.057,0.01-0.062-0.03-0.107-0.031c0.128,0.154,0.186,0.072,0.357,0.094
		c-0.002-0.097-0.169-0.04-0.215-0.096c0.074-0.041,0.149-0.081,0.212-0.132c1.435,0.005,3.073-0.061,4.637-0.053
		c0.144,0,0.352-0.063,0.465,0.06c-0.116-0.072-0.201,0.105-0.355,0.102c0.217,0.111,0.436-0.204,0.641-0.104
		c0.039-0.009,0.023-0.065,0.071-0.066c0.38-0.004,0.761-0.009,1.142-0.013c-0.03,0.049-0.114,0.048-0.178,0.067
		c0.261,0.162,0.833,0.131,1.142,0.02c0.325,0.13,0.812,0.102,1.034-0.11c0.314,0.038,0.529-0.063,0.784-0.009
		c0.182,0.038,0.277,0.204,0.431,0.223c0.145,0.018,0.365-0.015,0.498-0.136c-0.05-0.095-0.13-0.002-0.25-0.062
		c0.037-0.074,0.224-0.016,0.321-0.036c0.062,0.077-0.104,0.145,0.073,0.193c0.063-0.159-0.034-0.147,0.176-0.196
		c0.022,0.105-0.022,0.151-0.033,0.228c0.148,0.024,0.107-0.119,0.249-0.101c-0.012,0.043-0.063,0.052-0.07,0.099
		c0.246-0.018,0.389-0.126,0.533-0.233c1.891-0.019,3.688-0.044,5.636-0.064c0.076-0.016,0.068,0.046,0.072,0.097
		c0.104,0.007,0.123-0.063,0.177-0.1c0.89-0.016,1.937-0.015,2.711-0.031c0.028,0.028,0.039,0.073,0.037,0.13
		c0.144,0.036,0.312-0.003,0.249-0.101c0.088-0.048,0.462-0.081,0.5,0.027c0.07-0.137,0.234-0.013,0.393-0.037
		c-0.07,0.075,0.009,0.036,0.037,0.097c0.096,0.022,0.068-0.067,0.106-0.099c1.005,0.087,1.971,0.459,2.687,0.977
		c0.669,0.482,1.118,1.119,1.448,1.803c0.196,0.406,0.384,0.839,0.444,1.392c0.107,0.989,0.053,1.797,0.033,2.643
		c1.113-0.045,2.225-0.093,3.338-0.144l-0.021-1.913C50.458,67.238,50.608,67.071,50.795,67.069z M2.983,12.846
		c-0.006,0.015,0.009,0.031,0,0.056c-0.006,0.02-0.043,0.037-0.05,0.057c-0.015,0.041-0.007,0.09-0.02,0.112
		c-0.015,0.028-0.053,0.041-0.065,0.066L2.84,12.431c0.012,0.01,0.025,0.019,0.046,0.023c0.029,0.13,0.167,0.162,0.158,0.29
		C3.042,12.772,3.001,12.807,2.983,12.846z M46.84,55.578c-0.002,0.005-0.006,0.011-0.011,0.018c-0.006,0-0.013,0.001-0.021,0
		c-0.08-0.052-0.153-0.105-0.173-0.155c-0.051-0.015-0.106-0.044-0.163-0.081c-0.015-0.055-0.041-0.105-0.007-0.156
		c-0.024-0.119-0.199-0.203-0.327-0.205c-0.079,0.088,0.084,0.135,0.098,0.219c-0.13,0.019-0.267,0.012-0.405,0
		c-0.019,0.03-0.043,0.041-0.074,0.031c0.015-0.1-0.075-0.187-0.152-0.083c0.021,0.026-0.01,0.044-0.004,0.083
		c-0.059-0.005-0.083,0.049-0.136,0.026c-0.06-0.024-0.083-0.127-0.139-0.135c-0.04,0.012-0.077,0.03-0.107,0.071
		c0,0.041,0.006,0.074-0.011,0.11c-0.133,0.034-0.272,0.046-0.42,0.025c-0.015,0.02-0.036,0.016-0.047,0.048
		c-0.004-0.017-0.026-0.025-0.035-0.005c0.038,0.014,0.055,0.05,0.054,0.109c0-0.002-0.014,0.001-0.015,0.008
		c-0.003,0.036,0.007,0.094-0.016,0.118c-0.012,0.003-0.022,0.012-0.035,0.012c-0.041-0.027-0.09-0.087-0.129-0.044
		c0.011,0.071,0.13,0.065,0.15,0.133c-0.041,0.05-0.038,0.108-0.084,0.169c0.026,0.014-0.001,0.006-0.004,0.022
		c0.004,0.052,0.01,0.111-0.01,0.154c-0.006,0.011-0.04,0.036-0.043,0.041c-0.005,0.007,0.004,0.015-0.004,0.022
		c-0.013,0.01-0.028,0.004-0.039,0.019c-0.01,0.014-0.013,0.043-0.023,0.054c-0.018,0.02-0.049,0.022-0.071,0.041
		c-0.047,0.043-0.059,0.123-0.124,0.146c-0.024,0.064-0.045,0.146-0.093,0.214c-0.001,0.071,0.041,0.174,0.138,0.243
		c0.003,0.021,0.028,0.038,0.028,0.06c0.023,0.022,0.064,0.026,0.088,0.053c0.01,0.011,0.002,0.024,0.016,0.035
		c0.138,0.111,0.324,0.142,0.465,0.205c0.018-0.002,0.035-0.005,0.052-0.011c0.085,0.053,0.171-0.002,0.233,0.056
		c0.07,0.066-0.057,0.131-0.027,0.212c0.086,0.062,0.185,0.095,0.231,0.014c0.018-0.031-0.005-0.085,0.016-0.117
		c0.021-0.033,0.049-0.021,0.075-0.049c0.089,0.031,0.159-0.039,0.231,0.014c0.017,0.012,0.022,0.049,0.039,0.074
		c0,0.001,0.003,0.001,0.004,0.002c-0.763,0.87-1.833,1.52-3.209,1.672c-0.174,0.019-0.234-0.056-0.356,0.036
		c-0.061,0.013-0.068-0.024-0.072-0.063c-0.194,0.105-0.558,0.061-0.855,0.074c-0.156,0.025,0.028-0.064-0.072-0.064
		c-0.145-0.036-0.517,0.152-0.642,0.008c-0.123,0.135-0.557,0.084-0.607-0.058c-0.045,0.038-0.348,0.164-0.322-0.029
		c-0.125,0.173-0.275,0.034-0.499,0.038c0.048,0.064,0.159,0.07,0.251,0.095c-0.617,0.075-1.542,0.033-2.318,0.059
		c0.058-0.108,0.234-0.112,0.282-0.23c-0.133-0.148-0.291,0.146-0.499,0.07c-0.04,0.03,0.003,0.073-0.07,0.131
		c-0.143-0.115-0.085,0.019-0.214,0.035c-0.218,0.029-0.548-0.013-0.82,0.009c-0.114,0.03-0.075-0.083-0.144-0.095
		c-0.053,0.015,0.014,0.041,0.001,0.097c-0.071,0.001-0.143,0.002-0.214,0.003c0.072-0.157-0.044-0.033-0.144-0.129
		c0.035-0.105,0.089-0.069-0.002-0.162c-0.007,0.106-0.267,0.203-0.104,0.261c-0.11,0.074-0.287-0.209-0.429-0.026
		c-0.036-0.131-0.188-0.354-0.324-0.192c-0.186-0.194-0.628-0.17-0.785,0.009c-0.071,0.013-0.112-0.005-0.107-0.063
		c-0.048,0.011-0.029,0.082-0.034,0.131c-0.123-0.004-0.232-0.129-0.322-0.062c-0.058,0.155,0.133,0.034,0.037,0.097
		c-0.018,0.151-0.231-0.004-0.286-0.029c-0.025,0.101,0.038,0.118,0.038,0.195c-0.189-0.016-0.403,0.026-0.57,0.006
		c-0.042-0.005-0.083-0.063-0.072-0.063c-0.047,0-0.095,0.058-0.142,0.066c-0.282,0.052-0.635-0.028-1.035,0.012
		c0.012-0.043,0.062-0.052,0.07-0.099c-0.05,0.004-0.101,0.007-0.107-0.031c-0.516,0.266-0.858-0.114-0.969-0.509
		c-0.042,0.172,0.2,0.361,0.256,0.55c-0.083-0.01-0.137,0.006-0.178,0.034c0.094,0.095,0.272-0.137,0.322,0.062
		c-0.769-0.009-1.336,0.021-2.211,0.025c0.399-0.103,0.385-0.379,0.491-0.721c0.345-0.003,0.502-0.032,0.82-0.01
		c-0.518-0.177-1.104,0.025-1.713-0.077c-0.068,0.004-0.024,0.107-0.106,0.099c0.012,0.056,0.124-0.044,0.108,0.096
		c0.048-0.011,0.028-0.082,0.034-0.13c0.17,0.083,0.391-0.065,0.571,0.025c0.008,0.286-0.344,0.251-0.386,0.492
		c-0.112-0.021-0.048-0.086-0.038-0.162c-0.041,0.006-0.063-0.006-0.071-0.032c-0.051,0.085-0.416,0.058-0.319,0.167
		c-0.099,0.013-0.455,0.021-0.426,0.167c-0.393,0.147-1.301,0.104-1.961,0.12c0.072-0.118,0.264-0.13,0.39-0.199
		c-0.096-0.07-0.123-0.192-0.216-0.193c-0.053,0-0.092,0.127-0.143-0.03c-0.129,0.031-0.021,0.096-0.034,0.195
		c-0.212-0.082-0.324,0.189-0.532,0.233c-0.105,0.021-0.171-0.039-0.286,0.003c-0.003-0.095-0.083-0.119-0.145-0.161
		c-0.187,0.036,0.101,0.128,0.002,0.163c-0.514,0.014-1.043-0.001-1.462,0.017c-0.018-0.102,0.095-0.087,0.105-0.164
		c-0.106,0.013-0.141,0.089-0.176,0.165c-0.149-0.099-0.115,0.025-0.393,0.004c-0.058-0.004-0.133-0.058-0.215-0.062
		c-0.099-0.007-0.27,0.103-0.321-0.029c-0.095,0.188-0.706,0.068-1.069,0.109c0.047-0.132-0.065-0.114-0.109-0.161
		c-0.055,0.03-0.018,0.12,0.001,0.13c-0.188,0.031-0.468,0.016-0.784,0.041c-0.077-0.048-0.111-0.137-0.181-0.192
		c-0.114,0.104-0.204,0.031-0.248,0.197c-0.916,0.011-1.832,0.021-2.747,0.031c0.181-0.128,0.292-0.318,0.639-0.3
		c0-0.032,0-0.064-0.001-0.097c-0.103-0.073-0.298,0.062-0.394-0.061c-0.115,0.058,0.094,0.084,0.039,0.194
		c-0.186-0.06-0.352,0.152-0.533,0.201c-0.008-0.056,0.06-0.085-0.001-0.098c-0.158-0.003,0.018,0.092-0.07,0.131
		c-0.206,0.005-0.169,0.037-0.392,0.037c0.03-0.108,0.167-0.121,0.212-0.133c-0.031-0.202-0.13,0.01-0.286-0.029
		c-0.219-0.07-0.318-0.251-0.433-0.417c-0.137,0.062,0.172,0.271-0.033,0.293c0.146,0.061,0.199,0.209,0.36,0.255
		c-0.03,0.053-0.451,0.074-0.321-0.028c-0.112,0.101-0.214,0.008-0.356,0.069c-0.017-0.115-0.131-0.141-0.181-0.226
		c-0.096-0.021-0.068,0.067-0.106,0.099c0.024,0.117,0.166-0.077,0.179,0.03c-0.037,0.127-0.386,0.022-0.394-0.093
		c-0.073,0.032-0.141,0.068-0.213,0.1c0.027,0.03,0.066,0.049,0.108,0.064c-0.313,0.018-0.898,0.005-1.073-0.216
		c0.349,0.056,0.564-0.039,0.857,0.088c-0.048-0.108-0.302-0.024-0.253-0.225c-0.1-0.017-0.186-0.046-0.285-0.062
		c-0.023,0.045-0.091,0.05-0.104,0.104c-0.018-0.067-0.175-0.167-0.217-0.035c-0.094-0.032-0.122-0.127-0.216-0.16
		c0.071,0.117-0.11,0.17-0.068,0.261c-0.165-0.04-0.179-0.044-0.322-0.126c0.005-0.113,0.125-0.125,0.14-0.229
		c-0.126,0.026-0.132,0.16-0.212,0.229c-0.793-0.266-1.746-0.983-2.194-1.6c-0.074-0.102-0.25-0.378-0.148-0.42
		c-0.006-0.061-0.121-0.019-0.143-0.063c0.077-0.042,0.079-0.009,0.178-0.067c-0.032-0.047-0.03-0.125-0.144-0.096
		c0.046-0.124,0.159-0.208,0.032-0.325c-0.045-0.012-0.183-0.021-0.251-0.095c0.12,0.026,0.063-0.242-0.003-0.324
		c-0.101-0.026-0.092,0.046-0.178,0.034c0.041-0.215,0.182-0.532-0.009-0.779c0.042-0.199,0.104-0.379,0.136-0.586
		c-0.259-0.325-0.419-0.66-0.37-1.133c0.137,0.144,0.462-0.198,0.389-0.362c-0.013-0.027-0.021-0.04-0.027-0.046
		c0.006-0.004,0.015-0.018,0.026-0.052c0.092-0.285-0.084-0.673-0.189-0.875c-0.042-0.082-0.14-0.098-0.074-0.227
		c-0.005-0.115-0.117,0.07-0.107-0.031c-0.033-0.242-0.091-0.483-0.043-0.682c0.058-0.238,0.315-0.39,0.386-0.557
		c0.013-0.209-0.091-0.575-0.114-0.583c-0.103,0.019,0.053-0.127,0.035-0.033c0.226-0.484-0.032-1.049-0.336-1.328
		c0.04-0.971-0.199-1.822,0.331-2.31c0.059-0.659-0.269-1.25-0.377-1.75c-0.018-0.069,0.05-0.063,0.106-0.066
		c-0.069-0.034-0.147-0.061-0.109-0.193c0.011-0.156,0.107,0.067,0.179,0.063c0.341-0.553,0.122-1.778,0.114-2.535
		c-0.004-0.356-0.117-0.784-0.333-1.068c0.007-0.122-0.041-0.293,0.068-0.325c-0.152-0.08-0.042-0.651-0.082-0.941
		c0.295,0.174,0.059,0.576,0.151,0.746c0.266-0.229,0.153-0.869,0.059-1.105c0.224-0.385-0.026-0.826-0.227-1.102
		c-0.147-0.389,0.295-0.596,0.347-0.914c0.024-0.153-0.079-0.315-0.077-0.454c0.002-0.176,0.13-0.347,0.102-0.521
		c-0.041-0.242-0.219-0.363-0.399-0.548c0.088-0.372-0.094-0.977,0.02-1.43c0.06-0.001,0.119-0.001,0.179-0.002
		c-0.108,0.012-0.009,0.206-0.177,0.164c-0.031,0.105,0.117,0.045,0.144,0.097c-0.006,0.102-0.09,0.133-0.141,0.196
		c0.124,0.103,0.187,0.209,0.111,0.355c0.132,0.032,0.261-0.188,0.317-0.328c-0.082-0.077-0.126-0.038-0.25-0.029
		c-0.03-0.135,0.22-0.019,0.249-0.101c-0.026-0.877-0.793-1.273-0.308-2.043c0.068-0.108,0.216-0.191,0.246-0.328
		c0.042-0.19-0.086-0.418-0.042-0.616c-0.044,0.015-0.073,0.043-0.07,0.098c-0.077-0.021,0.02-0.244,0.105-0.131
		c-0.03-0.112,0.051-0.125,0.033-0.228c0.017-0.103-0.177-0.01-0.144-0.128c0.058-0.01,0.062,0.029,0.107,0.031
		c0.124-0.466-0.248-0.754-0.44-1.035c-0.05-0.69,0.139-1.063-0.017-1.526c0.178-0.12,0.07-0.494,0.315-0.556
		c0.314-0.604-0.189-1.27-0.234-1.752c-0.006-0.037-0.066-0.026-0.108-0.03c-0.001-0.142-0.003-0.282-0.005-0.423
		c0.077-0.079,0.196,0.12,0.286,0.029c0.267-0.398,0.035-0.999,0.126-1.495c0.012-0.064,0.07-0.056,0.071-0.034
		c-0.001-0.052-0.148-0.231-0.075-0.323c-0.122,0.02-0.056,0.207-0.212,0.197c-0.011,0.086,0.199-0.033,0.144,0.096
		c-0.17-0.002-0.289,0.044-0.32,0.166c-0.044-0.297-0.109-0.891,0.023-1.138c-0.131-0.052-0.052-0.301-0.077-0.453
		c0.184,0.055,0.354,0.346,0.148,0.485c0.057,0.101,0.151,0.302,0.076,0.421c0.081,0.041,0.203,0.104,0.073,0.162
		c0.042-0.006,0.063,0.007,0.072,0.031c0.14-0.229,0.007-0.656-0.011-1.007c-0.033-0.057-0.081-0.1-0.145-0.128
		c-0.016-0.068,0.023-0.086,0.034-0.131C9.562,22.831,9.48,22.72,9.396,22.74C9.35,22.612,9.5,22.66,9.502,22.576
		c-0.042-0.005-0.064,0.008-0.072,0.034c-0.078-0.418-0.032-1.212-0.056-1.787c0.079,0.058,0.169,0.105,0.252,0.16
		c-0.077-0.147-0.368-0.294-0.22-0.452c0.163-0.003,0.003,0.114,0.038,0.194c0.043-0.037,0.073-0.029,0.071,0.031
		c0.134,0.033,0.056-0.122,0.178-0.099c-0.087,0.013-0.208-0.12-0.073-0.194c-0.046-0.147-0.104,0.057-0.179-0.03
		c0.194-0.062,0.208-0.483-0.042-0.52c0.001-0.849-0.157-1.781-0.063-2.501c0.208-1.607,1.124-3.021,2.597-3.732
		c0.278,0.002,0.525,0.08,0.677-0.073c-0.092,0.001-0.266,0.014-0.5,0.006c0.242-0.136,0.56-0.349,0.925-0.271
		c0.032-0.136,0.184-0.094,0.248-0.133c0.126,0.026,0.124,0.191,0.287,0.094c-0.036-0.044-0.121-0.041-0.144-0.096
		c0.043-0.047,0.122-0.063,0.214-0.067c0.005,0.058-0.043,0.069-0.035,0.13c0.224,0.021,0.383-0.163,0.604-0.202
		c0.078-0.014,0.155-0.019,0.232-0.02c-0.027,0.05,0.04,0.08,0.055,0.024c-0.009-0.005-0.013-0.017-0.019-0.025
		c0.364-0.001,0.717,0.099,1.017,0.071c0.066,0.092,0.21,0.111,0.288,0.192c0.309-0.005,0.583-0.136,0.82-0.107
		c0.033-0.024,0.053-0.06,0.07-0.098c0.1,0.098,0.295,0.023,0.356-0.069c0.14,0.012-0.022,0.145,0.18,0.128
		c-0.057,0.096-0.113,0.014-0.178,0.067c0.064,0.148,0.196-0.041,0.356-0.004c0.042-0.005,0.03-0.059,0.035-0.098
		c0.01,0.005,0.019,0.007,0.028,0.009c0,0.008,0,0.016,0,0.024c0.015,0,0.023-0.006,0.031-0.011c0-0.003,0-0.005,0-0.008
		c0.088,0,0.157-0.096,0.26-0.115c0.262-0.047,0.742-0.008,1.177-0.013c0.427-0.005,0.889-0.044,1.177-0.013
		c0.161,0.017,0.33,0.012,0.394,0.158c-0.057,0.01-0.062-0.03-0.107-0.031c0.128,0.155,0.186,0.073,0.357,0.093
		c-0.001-0.097-0.168-0.039-0.215-0.095c0.074-0.041,0.15-0.081,0.212-0.132c1.435,0.005,3.074-0.061,4.638-0.053
		c0.144,0,0.352-0.063,0.464,0.06c-0.116-0.072-0.201,0.106-0.355,0.102c0.217,0.112,0.436-0.204,0.641-0.105
		c0.039-0.008,0.023-0.064,0.07-0.066c0.38-0.004,0.761-0.008,1.142-0.013c-0.029,0.049-0.114,0.048-0.178,0.067
		c0.261,0.163,0.833,0.132,1.143,0.02c0.324,0.131,0.812,0.102,1.033-0.109c0.315,0.038,0.529-0.063,0.784-0.009
		c0.182,0.038,0.277,0.204,0.431,0.223c0.145,0.018,0.365-0.015,0.498-0.136c-0.051-0.095-0.131-0.002-0.25-0.063
		c0.037-0.074,0.224-0.015,0.321-0.036c0.062,0.078-0.104,0.145,0.073,0.194c0.063-0.16-0.034-0.147,0.176-0.197
		c0.022,0.105-0.023,0.152-0.033,0.229c0.148,0.024,0.107-0.12,0.249-0.101c-0.012,0.043-0.062,0.052-0.07,0.098
		c0.245-0.017,0.388-0.125,0.532-0.233c1.891-0.019,3.688-0.043,5.636-0.064c0.076-0.017,0.068,0.045,0.073,0.096
		c0.104,0.007,0.122-0.063,0.177-0.1c0.89-0.015,1.937-0.015,2.711-0.031c0.028,0.029,0.039,0.073,0.037,0.129
		c0.144,0.036,0.313-0.003,0.249-0.1c0.088-0.048,0.462-0.081,0.5,0.027c0.07-0.136,0.234-0.013,0.393-0.037
		c-0.07,0.075,0.009,0.036,0.036,0.097c0.096,0.021,0.068-0.068,0.106-0.099c1.005,0.086,1.971,0.459,2.687,0.976
		c0.668,0.483,1.118,1.119,1.448,1.803c0.196,0.407,0.384,0.839,0.444,1.392c0.154,1.425-0.028,2.47,0.043,3.8
		c-0.042-0.005-0.031-0.059-0.037-0.097c-0.253,0.019-0.398-0.172-0.643-0.058c0.211,0.143,0.355,0.347,0.576,0.48
		c-0.017,0.149,0.008,0.193-0.067,0.326c0.057-0.01,0.062,0.029,0.107,0.031c0.053-0.016-0.014-0.042-0.001-0.098
		c0.166,0.084,0.035,0.252,0.041,0.389c0.019,0.476,0.076,1.094,0.054,1.624c-0.069-0.131-0.164,0.056-0.249,0.101
		c-0.002,0.143,0.121,0.132,0.003,0.228c0.006,0.072,0.089-0.044,0.178-0.002c0.08,0.768,0.143,1.627,0.135,2.434
		c-0.003,0.351,0.024,0.791-0.023,1.105c-0.006,0.039-0.071,0.074-0.071,0.065c0,0.075,0.061,0.116,0.074,0.194
		c0.036,0.216-0.019,0.539,0.009,0.813c0.011,0.11,0.048,0.194,0.039,0.291c-0.005,0.047-0.068,0.116-0.07,0.163
		c-0.024,0.816,0.202,1.641,0.064,2.501c-0.001,0.159-0.083-0.072-0.143,0.034c0.054,0.037,0.102,0.081,0.144,0.128
		c0.013,1.094,0.034,1.998,0.035,3.054c-0.07-0.06-0.029-0.06-0.143-0.031c-0.06,0.055-0.042,0.177-0.104,0.229
		c0.011,0.068,0.095-0.048,0.143,0.031c-0.075,0.051-0.128,0.122-0.104,0.261c0.163,0.06,0.047-0.13,0.177-0.1
		c0.068,0.167,0.054,0.299-0.139,0.327c-0.025,0.053,0.169,0.05,0.143-0.002c0.087,0.313,0.021,0.769,0.049,1.137
		c0.018,0.133-0.09-0.024-0.142,0.066c0.032,0.08,0.133,0.095,0.18,0.16c-0.003,0.083-0.05,0.126-0.141,0.132
		c0.041,0.07,0.097,0.196,0.11,0.291c0.086,0.616-0.042,1.528,0.025,2.209c-0.112,0.006-0.071-0.132-0.145-0.161
		c-0.162,0.092-0.341-0.043-0.535-0.026c-0.01,0.075,0.007,0.124,0.038,0.162c0.202,0.002,0.33,0.316,0.54,0.416
		c-0.123-0.003,0.014,0.15-0.141,0.196c0.005,0.083,0.053,0.125,0.144,0.128c-0.215,0.18,0.236,0.486-0.029,0.586
		c0.012,0.044,0.089,0.026,0.143,0.03c-0.022,0.585,0.063,1.046,0.017,1.494c0.007,0.129-0.055-0.01-0.106,0.066
		c0.144,0.256,0.148,0.563,0.152,0.843c0.018,1.262-0.032,2.567,0.011,4.125c0.033,0.104-0.092,0.068-0.105,0.132
		c0.045,0.099,0.148,0.302-0.033,0.292c0.11,0.135,0.064,0.422-0.101,0.554c0.083,0.148,0.23-0.087,0.212-0.229
		c0.089,0.595,0.027,1.331,0.058,1.98c-0.126-0.024-0.103-0.188-0.216-0.225c-0.102,0.076-0.025,0.259,0.11,0.323
		c0.032,0.104-0.092,0.069-0.105,0.132c0.093,0.012,0.159,0.066,0.215,0.095c0.036,0.081-0.071,0.042-0.071,0.033
		c0.002,0.052,0.206,0.231,0.003,0.292c0.122,0.04,0.058,0.253,0.076,0.389c-0.112-0.035-0.086,0.053-0.142,0.067
		c0.008,0.041,0.107,0.041,0.107-0.002c0.002,0.338,0.031,0.685,0.056,1.029c-0.003-0.005-0.006-0.009-0.012-0.013
		c-0.018,0.013-0.022,0.026-0.009,0.045c0.011,0,0.019-0.006,0.022-0.013c0.024,0.326,0.045,0.651,0.037,0.965
		c-0.005,0.184-0.004,0.419-0.101,0.586c0.017,0.033,0.062,0.023,0.072,0.063c0.041,0.152,0.052,0.45,0.043,0.775
		c-0.047-0.067-0.099-0.138-0.177-0.168c-0.057-0.021-0.122-0.014-0.182-0.017c-0.025,0.033-0.061,0.033-0.095,0.035
		c-0.091,0.061-0.144,0.19-0.138,0.288c0.061,0.044,0.049,0.121,0.1,0.17c0.051,0.051,0.123,0.055,0.203,0.105
		c0.057,0.004,0.109-0.006,0.164-0.011c0.018-0.033,0.047-0.03,0.074-0.031c0.013-0.01,0.025-0.021,0.036-0.035
		C46.959,55.042,46.905,55.426,46.84,55.578z M54.954,1.452C54.735,1.43,54.515,1.414,54.294,1.4l0.776,68.48
		c0.219,0.02,0.439,0.023,0.659,0.012L54.954,1.452z M46.708,65.917c-0.023,0-0.047,0.001-0.071,0.001
		C46.583,66,46.76,66.013,46.745,65.95C46.723,65.948,46.702,65.946,46.708,65.917z M52.979,1.57
		c0.066,0.066,0.108,0.16,0.109,0.266l0.024,2.132c0.002,0.204-0.147,0.37-0.334,0.372l-0.306,0.003l0.042,3.688l0.306-0.003
		c0.187-0.002,0.34,0.161,0.342,0.364l0.024,2.133c0.002,0.203-0.147,0.37-0.334,0.372L52.548,10.9l0.042,3.688l0.306-0.003
		c0.187-0.002,0.34,0.161,0.343,0.364l0.024,2.133c0.002,0.203-0.147,0.37-0.334,0.372l-0.306,0.003l0.042,3.688l0.306-0.004
		c0.187-0.002,0.34,0.161,0.342,0.364l0.024,2.133c0.002,0.203-0.147,0.37-0.334,0.372l-0.306,0.004l0.042,3.688l0.306-0.004
		c0.187-0.002,0.34,0.161,0.342,0.364l0.024,2.133c0.002,0.203-0.147,0.37-0.333,0.372l-0.306,0.004l0.042,3.688l0.306-0.004
		c0.187-0.002,0.34,0.161,0.343,0.364l0.024,2.133c0.002,0.204-0.147,0.37-0.334,0.372l-0.306,0.004l0.042,3.688l0.306-0.004
		c0.187-0.002,0.34,0.161,0.342,0.365l0.024,2.132c0.002,0.204-0.147,0.37-0.333,0.372l-0.306,0.004l0.042,3.688l0.306-0.004
		c0.187-0.001,0.34,0.162,0.342,0.365l0.024,2.132c0.002,0.204-0.147,0.37-0.334,0.373l-0.306,0.003l0.042,3.688l0.306-0.003
		c0.187-0.002,0.34,0.161,0.342,0.364l0.024,2.132c0.002,0.204-0.147,0.37-0.333,0.373l-0.306,0.003l0.042,3.688l0.306-0.003
		c0.187-0.002,0.34,0.16,0.343,0.364l0.024,2.133c0.002,0.203-0.147,0.369-0.334,0.372l-0.306,0.003l0.042,3.688l0.306-0.003
		c0.187-0.003,0.34,0.16,0.343,0.364l0.024,2.133c0,0.028-0.002,0.056-0.008,0.082c0.347,0.051,0.694,0.104,1.04,0.153L54.112,1.4
		C53.736,1.426,53.359,1.483,52.979,1.57z M38.182,62.767c-0.011,0.076-0.124,0.062-0.105,0.163c0.036,0,0.071-0.001,0.107-0.001
		C38.172,62.833,38.325,62.806,38.182,62.767z M41.394,62.924C41.576,63.011,41.526,62.81,41.394,62.924L41.394,62.924z
		 M23.354,64.072l-0.071,0.002c-0.055,0.08,0.123,0.094,0.107,0.031C23.369,64.103,23.348,64.1,23.354,64.072z M23.664,63.03
		c-0.052,0.018-0.185-0.036-0.178,0.034C23.537,63.045,23.67,63.1,23.664,63.03z M20.961,63.84c0.083-0.087,0.159-0.351,0.102-0.457
		C21.065,63.534,20.91,63.857,20.961,63.84z M34.542,62.775c0.039,0.143-0.12,0.108-0.104,0.229
		c0.103-0.037,0.241-0.043,0.248-0.165C34.571,62.88,34.657,62.734,34.542,62.775z M33.617,62.981
		c0.044,0.003,0.085,0.009,0.072,0.064c0.052-0.019,0.185,0.035,0.178-0.035C33.792,62.954,33.693,62.941,33.617,62.981z
		 M34.295,63.005c-0.059,0.004-0.156-0.052-0.072,0.001C34.191,63.087,34.428,63.014,34.295,63.005z M24.021,63.058
		c0.074-0.021,0.235,0.037,0.25-0.035C24.196,63.042,24.035,62.985,24.021,63.058z M21.843,62.953c0,0.021,0,0.044,0.001,0.065
		c0.023-0.001,0.048-0.001,0.071-0.001c0-0.021,0-0.044,0-0.065C21.891,62.953,21.867,62.953,21.843,62.953z M32.996,58.561
		c0.117,0.002,0.145,0.256,0.251,0.159C33.167,58.684,33.081,58.484,32.996,58.561z M32.532,58.599
		c0.048-0.001,0.095-0.001,0.143-0.002c0-0.032,0-0.065-0.001-0.098C32.606,58.514,32.521,58.513,32.532,58.599z M32.849,58.206
		c0.084,0.102-0.012,0.199,0.109,0.226C32.974,58.307,32.941,58.229,32.849,58.206z M30.141,58.529
		C30.061,58.155,30.123,58.627,30.141,58.529L30.141,58.529z M31.503,59.098c0.048,0.041,0.134,0.041,0.143-0.034
		C31.593,59.07,31.514,59.053,31.503,59.098z M42.778,27.817c0.025,0.118-0.076,0.125-0.068,0.228
		c0.099,0.051,0.107,0.185,0.287,0.159c0.001-0.117,0.087-0.158,0.104-0.261C43.016,27.879,42.982,27.769,42.778,27.817z
		 M35.891,59.015c0.016,0.063,0.015,0.14,0.109,0.129C36.004,59.062,35.943,59.042,35.891,59.015z M46.066,15.825
		c-0.007,0.025-0.029,0.038-0.07,0.033c-0.016,0.103,0.033,0.145,0.144,0.129C46.119,15.929,46.12,15.852,46.066,15.825z
		 M44.133,30.855c0.145,0.214,0.525,0.119,0.426-0.232C44.38,30.451,44.08,30.559,44.133,30.855z M29.991,57.88
		c-0.015,0.159,0.191,0.13,0.25,0.063C30.114,57.963,30.069,57.907,29.991,57.88z M46.14,16.019c-0.023,0-0.047,0-0.071,0.001
		c-0.054,0.08,0.123,0.094,0.107,0.031C46.154,16.049,46.134,16.046,46.14,16.019z M28.253,58.778
		c-0.019-0.103,0.177-0.014,0.142-0.132C28.318,58.645,28.149,58.724,28.253,58.778z M21.584,59.081
		C21.73,59.193,21.668,58.975,21.584,59.081L21.584,59.081z M23.153,58.933c-0.023,0.076-0.118,0.088-0.141,0.164
		C23.098,59.096,23.239,58.98,23.153,58.933z M41.396,12.987c0.048-0.086,0.268-0.019,0.248-0.166
		C41.542,12.84,41.343,12.938,41.396,12.987z M37.613,12.868c-0.01,0.077-0.124,0.062-0.105,0.164c0.036,0,0.071-0.001,0.107-0.001
		C37.604,12.935,37.756,12.908,37.613,12.868z M21.439,58.855c-0.021,0.085,0.016,0.117,0.108,0.096
		C21.571,58.864,21.473,58.889,21.439,58.855z M21.158,59.248c0.062-0.03,0.192-0.001,0.178-0.099
		C21.274,59.179,21.144,59.15,21.158,59.248z M37.648,56.721c-0.049,0.104-0.148,0.197-0.067,0.326
		C38.018,57.353,38.257,56.614,37.648,56.721z M27.684,58.914c0-0.032-0.001-0.064-0.001-0.097
		C27.578,58.77,27.58,58.962,27.684,58.914z M40.825,13.026C41.007,13.112,40.957,12.911,40.825,13.026L40.825,13.026z
		 M41.04,13.023c0.056-0.003,0.124,0.003,0.106-0.066C41.084,12.956,41.054,12.983,41.04,13.023z M40.773,55.419
		c-0.047,0.086-0.187,0.09-0.176,0.229c0.153,0.141,0.488,0.184,0.426-0.167C40.894,55.503,40.886,55.412,40.773,55.419z
		 M38.777,8.59c0-0.022,0-0.043-0.001-0.065l-0.071,0.001c0,0.021,0,0.043,0,0.065L38.777,8.59z M40.995,9.084
		c-0.082-0.008-0.134,0.009-0.142,0.066C40.934,9.159,40.987,9.141,40.995,9.084z M38.569,9.112c0-0.043-0.001-0.086-0.001-0.13
		c-0.036,0-0.071,0.001-0.107,0.001C38.451,9.068,38.475,9.123,38.569,9.112z M35.431,9.245c0.005-0.082-0.056-0.101-0.108-0.128
		C35.338,9.178,35.336,9.256,35.431,9.245z M38.317,59.02c0.097-0.021,0.284,0.038,0.321-0.036
		C38.506,58.911,38.336,58.924,38.317,59.02z M38.85,58.851c-0.004,0.081,0.02,0.136,0.073,0.162
		C38.928,58.932,38.903,58.878,38.85,58.851z M32.679,8.822c-0.081-0.036-0.166-0.237-0.251-0.16
		C32.544,8.664,32.573,8.918,32.679,8.822z M38.354,9.114c0.005-0.081-0.02-0.135-0.073-0.162
		C38.277,9.034,38.302,9.087,38.354,9.114z M39.273,58.424c0,0.021,0,0.043,0.001,0.065l0.071-0.001c0-0.022,0-0.043,0-0.065
		L39.273,58.424z M32.39,8.533c0.016-0.124-0.017-0.203-0.109-0.226C32.365,8.408,32.269,8.506,32.39,8.533z M38.069,9.085
		c-0.131-0.073-0.301-0.06-0.321,0.036C37.845,9.1,38.032,9.159,38.069,9.085z M39.029,58.882c-0.009,0.085,0.015,0.14,0.109,0.129
		c0-0.044-0.001-0.087-0.001-0.131C39.101,58.881,39.065,58.881,39.029,58.882z M51.964,51.287c0.005-0.008,0.014-0.004,0.018-0.015
		C51.971,51.252,51.95,51.281,51.964,51.287z M51.463,50.958c-0.026-0.017,0-0.044-0.039-0.058c-0.028,0.001-0.025,0.03-0.023,0.054
		C51.422,50.957,51.448,50.975,51.463,50.958z M51.834,51.41c-0.011,0.02-0.022,0.037-0.034,0.057
		c0.005,0.011,0.021,0.021,0.016,0.034C51.921,51.57,51.952,51.405,51.834,51.41z M52.209,46.914
		c-0.05-0.063-0.14-0.068-0.178-0.145c-0.023-0.048,0.003-0.114-0.053-0.148c-0.019-0.012-0.052-0.001-0.074-0.008
		c-0.101-0.032-0.175-0.09-0.288-0.092c-0.054,0-0.088,0.035-0.139,0.045c-0.057,0.012-0.094-0.006-0.144,0.027
		c-0.036,0.023-0.077,0.081-0.104,0.114c-0.065,0.079-0.141,0.22-0.118,0.328c0.029,0.139,0.144,0.234,0.21,0.354l0.66-0.008
		c0.018-0.008,0.034-0.017,0.047-0.031c0.034-0.034,0.067-0.094,0.089-0.146c0.006-0.015,0.012-0.03,0.016-0.043
		c0.018-0.061-0.002-0.113,0.037-0.166C52.199,46.959,52.263,46.979,52.209,46.914z M46.397,54.208
		c0.016-0.004,0.024-0.023,0.001-0.033C46.388,54.187,46.386,54.199,46.397,54.208z M44.714,55.605
		c-0.004-0.013-0.021-0.022-0.031-0.01C44.694,55.6,44.707,55.613,44.714,55.605z M46.729,51.664
		c-0.017,0.029,0.017,0.05,0.034,0.021C46.759,51.671,46.743,51.662,46.729,51.664z M42.317,55.873
		c-0.012-0.036,0.015-0.079-0.037-0.106c-0.01,0.002-0.021,0.004-0.031,0.006c-0.014,0.046,0.034,0.08,0.067,0.117
		c0.001,0.022,0.005,0.059,0.021,0.088c0.011,0.022,0.035,0.03,0.049,0.055c0.014,0.023,0.021,0.058,0.028,0.076
		c0.011,0.03,0.027,0.089,0.037,0.106c0.019,0.034,0.049,0.05,0.067,0.041C42.444,56.128,42.421,55.993,42.317,55.873z
		 M46.311,48.035c-0.016-0.013-0.027-0.005-0.035,0.013c0.009,0.005,0.018,0.011,0.026,0.016
		C46.31,48.053,46.313,48.043,46.311,48.035z M44.104,55.322c0.006,0.013,0.013,0.017,0.024,0.006
		c-0.008-0.005-0.004-0.014-0.017-0.019C44.109,55.313,44.106,55.318,44.104,55.322z M44.119,55.373
		c-0.007,0.03-0.014,0.061,0.014,0.084C44.147,55.425,44.123,55.401,44.119,55.373z M46.352,44.606
		c-0.017,0.002-0.025,0.023-0.002,0.033C46.36,44.625,46.362,44.615,46.352,44.606z M44.227,54.662
		c-0.011-0.011-0.001-0.025-0.026-0.033c-0.014,0.003-0.027,0.023-0.022,0.037C44.199,54.68,44.215,54.677,44.227,54.662z
		 M45.543,51.251c0.013-0.061,0.005-0.12,0.047-0.199c-0.007-0.017-0.005-0.035-0.025-0.049c-0.013,0.014-0.02,0.025-0.043,0.041
		c0.008,0.032,0.001,0.045-0.024,0.07C45.548,51.15,45.488,51.236,45.543,51.251z M45.205,54.551
		c0.019-0.077,0.012-0.147,0.003-0.219C45.196,54.408,45.182,54.483,45.205,54.551z M43.766,50.128
		c-0.041,0.037-0.09,0.015-0.138-0.016c-0.02,0.033,0.009,0.057,0.014,0.084c-0.044,0.002-0.076,0.042-0.129,0.016
		c-0.026,0.028,0.016,0.043,0.004,0.069c-0.016,0.021-0.043,0.004-0.054,0.044c0.019,0.022,0.054,0.009,0.054,0.032
		c-0.014,0.034-0.041,0.025-0.058,0.05c0.073,0.034,0.077,0.081,0.07,0.144c0.053,0.012,0.089,0.044,0.124,0.023
		c-0.009,0.033-0.032,0.068-0.001,0.093c0.042-0.033,0.123-0.021,0.163,0.005c0.035-0.003,0.058-0.042,0.095-0.035
		c0.011,0.021-0.018,0.051-0.007,0.071c0.011,0.007,0.022,0.014,0.034,0.021c0.009-0.007,0.02-0.01,0.029-0.016
		c0.002-0.022-0.019-0.04-0.029-0.061c-0.006-0.024,0.012-0.053,0.031-0.082c0.064-0.019,0.042-0.085,0.076-0.141
		c-0.047-0.066-0.005-0.15-0.104-0.206c0.007-0.023,0.012-0.046-0.019-0.062C43.876,50.171,43.812,50.186,43.766,50.128z
		 M44.975,50.883c0.011,0.008,0.02,0.006,0.027,0c-0.048-0.087-0.024-0.187-0.106-0.267c-0.013,0.05,0.031,0.095,0.046,0.137
		C44.958,50.798,44.957,50.842,44.975,50.883z M43.847,57.268c0.022,0.013,0.036-0.002,0.049-0.021
		C43.874,57.236,43.858,57.244,43.847,57.268z M45.201,54.161c0.005,0.003,0.009,0.006,0.014,0.008
		c0.002-0.004,0.005-0.008,0.008-0.012c-0.004-0.003-0.009-0.006-0.014-0.009C45.207,54.153,45.204,54.157,45.201,54.161z
		 M43.917,57.227c0.012,0.014,0.042-0.006,0.029-0.017C43.937,57.217,43.927,57.219,43.917,57.227z M45.606,50.615
		c-0.003,0.003-0.004,0.02-0.008,0.028c-0.005,0.015-0.008,0.065,0.014,0.084c0.031-0.008,0.069,0.007,0.101,0.002
		c0.029-0.029-0.001-0.047,0.027-0.076C45.701,50.598,45.64,50.583,45.606,50.615z M45.529,52.889
		c0.004,0.003,0.009,0.005,0.014,0.009c0.003-0.007,0.007-0.013,0.011-0.02c-0.005-0.002-0.009-0.005-0.014-0.008
		C45.536,52.876,45.532,52.883,45.529,52.889z M44.48,55.414c0.004-0.006,0.007-0.013,0.011-0.019
		c-0.005-0.01-0.013-0.019-0.03-0.026C44.443,55.389,44.456,55.403,44.48,55.414z M45.203,54.28
		c0.019,0.009-0.027,0.031,0.005,0.037C45.221,54.304,45.223,54.267,45.203,54.28z M45.202,54.237
		c0.012,0.008-0.008,0.023,0.009,0.03C45.219,54.257,45.22,54.223,45.202,54.237z M43.864,54.958
		c-0.035,0.001-0.072,0.054-0.052,0.086c0.104,0.038,0.287,0.192,0.29,0.023C44.048,54.992,43.947,55.016,43.864,54.958z
		 M45.664,45.956c0.001-0.012,0.027-0.027,0.012-0.035C45.66,45.923,45.633,45.938,45.664,45.956z M42.83,53.472
		c-0.019,0.009-0.021,0.003-0.025,0.026C42.841,53.535,42.863,53.49,42.83,53.472z M44.976,48.174
		c0.01-0.015,0.019-0.03,0.005-0.039C44.964,48.138,44.949,48.165,44.976,48.174z M46.096,45.042
		c-0.004-0.004-0.004-0.01,0.001-0.016c-0.025-0.03-0.058,0.013-0.036,0.028C46.071,45.044,46.09,45.066,46.096,45.042z
		 M44.104,49.159c-0.009-0.006-0.018-0.011-0.027-0.017c-0.026,0.011-0.035,0.055-0.025,0.087
		C44.068,49.203,44.089,49.193,44.104,49.159z M45.393,47.438c0.046,0.029,0.08-0.042,0.031-0.065
		C45.394,47.384,45.38,47.411,45.393,47.438z M44.296,46.498c-0.007,0.011-0.004,0.019,0.002,0.027
		C44.305,46.514,44.303,46.505,44.296,46.498z M43.519,49.548c-0.039,0.007-0.078,0.011-0.122,0.003
		c-0.024,0.068-0.049,0.07-0.091,0.105c0.003,0.018,0.035,0.006,0.026,0.032s-0.026,0.024-0.037,0.046
		c0.008,0.063-0.056,0.158,0.033,0.188c-0.002,0.019-0.003,0.037,0.004,0.054c0.09,0.056,0.187,0.033,0.216,0.13
		c0.058-0.034,0.123-0.049,0.202-0.014c0.018-0.028-0.005-0.049,0-0.075c0.04-0.011,0.08-0.018,0.113-0.051
		c-0.034-0.031-0.02-0.072-0.005-0.113c0.018-0.015,0.044,0.001,0.06-0.022c-0.016-0.017-0.027-0.007-0.061-0.036
		c0.007-0.029-0.016-0.052-0.028-0.076c0.021-0.021,0.027-0.032,0.006-0.056c-0.011-0.005-0.085-0.003-0.109-0.049
		c0.003-0.027,0.006-0.055,0.004-0.082c-0.035-0.012-0.068-0.018-0.103-0.028c-0.02,0.021,0.005,0.043-0.019,0.048
		c-0.043-0.019-0.031-0.059-0.074-0.062C43.506,49.499,43.54,49.526,43.519,49.548z M43.095,51.572
		c-0.006-0.033,0.035-0.069,0.044-0.116c-0.035-0.044-0.058-0.098-0.105-0.132c-0.016-0.011-0.031-0.004-0.048-0.012
		c-0.032-0.015-0.043-0.043-0.077-0.055c-0.017,0.037-0.05,0.02-0.071,0.041c-0.005,0.023-0.044,0.029-0.058,0.05
		c-0.031,0.047-0.013,0.104-0.028,0.152c0.03,0.018,0.033,0.04,0.036,0.063c-0.012-0.005-0.018,0.036-0.009,0.045
		c0.056-0.011,0.127,0.032,0.18,0.008c-0.001,0.021,0.023,0.029,0.043,0.034c0.03-0.025,0.06-0.049,0.099-0.042
		c0.002-0.013,0.03-0.031,0.016-0.041C43.11,51.575,43.103,51.573,43.095,51.572z M42.82,56.302
		c-0.026,0.034,0.017,0.061,0.034,0.021C42.85,56.31,42.833,56.3,42.82,56.302z M45.69,44.528c0.017-0.036,0.025-0.07-0.006-0.097
		C45.655,44.469,45.664,44.5,45.69,44.528z M44.853,53.748c-0.006-0.038-0.007-0.074-0.023-0.099
		c-0.064-0.046-0.11-0.071-0.174-0.122c-0.054,0.01-0.117-0.006-0.158,0.048c-0.019-0.032-0.042-0.001-0.069-0.008
		c-0.091,0.076-0.113,0.214-0.055,0.305c0.001,0.034,0.004,0.067,0.013,0.101c0.11,0.067,0.195,0.048,0.297,0.087
		c0.075-0.02,0.185-0.126,0.186-0.201C44.869,53.837,44.86,53.791,44.853,53.748z M43.43,50.668
		c0.043,0.017,0.066-0.038,0.102-0.048C43.493,50.619,43.461,50.644,43.43,50.668z M43.532,50.941
		c0.018-0.018-0.012-0.039-0.023-0.022C43.517,50.925,43.517,50.935,43.532,50.941z M44.66,49.351
		c-0.037-0.031-0.06-0.015-0.077,0.021C44.617,49.419,44.665,49.401,44.66,49.351z M46.237,51.536
		c0.006,0.004,0.013,0.008,0.02,0.012c0.028-0.009,0.023-0.049-0.008-0.047C46.238,51.513,46.236,51.525,46.237,51.536z
		 M46.16,53.246c0.003,0.004,0.017,0.03,0.027,0.016C46.184,53.256,46.17,53.23,46.16,53.246z M45.366,53.188
		c0.007,0.004,0.014,0.008,0.021,0.012c0.003-0.008,0.012-0.017,0.004-0.022C45.384,53.187,45.371,53.172,45.366,53.188z
		 M45.057,51.068c-0.017-0.052-0.011-0.106-0.056-0.152c-0.013,0.018,0.004,0.029-0.009,0.046
		C45.028,50.991,45.03,51.055,45.057,51.068z M44.215,51.834c0.023-0.005,0.02,0.02,0.047,0.028
		c0.007-0.041-0.072-0.088-0.105-0.113c0.027,0.018-0.009,0.048,0.024,0.064c0.015,0.012,0.018-0.013,0.031-0.006
		C44.239,51.833,44.21,51.824,44.215,51.834z M44.259,46.391c0.029,0.014,0.003,0.091,0.042,0.067
		c-0.025-0.029,0.024-0.097-0.03-0.103C44.26,46.37,44.275,46.376,44.259,46.391z M45.072,51.103
		c-0.009-0.008-0.005-0.018-0.013-0.025C45.046,51.087,45.06,51.117,45.072,51.103z M40.566,48.754
		c0.009,0.005,0.013,0.036,0.023,0.022C40.58,48.772,40.584,48.74,40.566,48.754z M44.833,52.882
		C44.866,52.875,44.819,52.849,44.833,52.882L44.833,52.882z M46.782,40.653c0.035-0.032-0.019-0.077-0.04-0.04
		C46.737,40.64,46.754,40.642,46.782,40.653z M42.759,54.746c-0.004,0.006-0.008,0.013-0.012,0.019
		c0.007,0.005,0.014,0.009,0.021,0.013c0.002-0.004,0.005-0.008,0.007-0.013C42.767,54.759,42.771,54.75,42.759,54.746z
		 M46.073,48.322c-0.012,0.074,0.009,0.143-0.003,0.218c0.02,0.024,0.036,0.051,0.014,0.084c0.044,0.075,0.016,0.167,0.097,0.235
		c0.01-0.011,0.025-0.001,0.035-0.013c-0.001-0.074,0.028-0.153-0.015-0.22c0.021-0.107-0.057-0.204-0.072-0.306
		c-0.014-0.089,0-0.172-0.026-0.261c-0.019-0.005-0.038-0.015-0.055-0.016c-0.053,0.058-0.033,0.142,0.011,0.209
		C46.042,48.281,46.064,48.299,46.073,48.322z M43.843,47.491c-0.007,0.007-0.017,0.006-0.021,0.021
		c0.022,0.007,0.012,0.019,0.03,0.026C43.856,47.52,43.864,47.502,43.843,47.491z M44.482,48.29
		c-0.02-0.013-0.031,0.007-0.042,0.024c0.012,0.01,0.019,0.003,0.031,0.011C44.481,48.312,44.483,48.3,44.482,48.29z M44.362,52.185
		c-0.01,0.004-0.019,0.012-0.025,0.027c0.016,0.021,0.033,0.021,0.052,0.006C44.377,52.208,44.387,52.193,44.362,52.185z
		 M44.57,45.33c0.01-0.004,0.019-0.012,0.026-0.027C44.572,45.273,44.551,45.321,44.57,45.33z M43.648,54.828
		c0.005,0.002,0.009,0.005,0.014,0.008c0.002-0.005,0.005-0.009,0.007-0.013c-0.004-0.003-0.009-0.006-0.013-0.009
		C43.653,54.819,43.651,54.823,43.648,54.828z M43.345,53.487c-0.009,0.007-0.02,0.01-0.031,0.007
		c-0.014,0.054,0.067,0.088,0.084,0.135c0.017,0.012,0.014,0.025,0.031,0.011C43.393,53.59,43.404,53.532,43.345,53.487z
		 M44.296,52.492C44.293,52.534,44.327,52.481,44.296,52.492L44.296,52.492z M43.905,51.968c-0.009,0.016-0.005,0.029,0.012,0.041
		C43.923,51.994,43.93,51.977,43.905,51.968z M46.098,53.257c-0.03-0.014-0.02-0.036-0.054-0.049
		c0.012-0.059-0.039-0.104-0.073-0.153c-0.02-0.016-0.028,0.006-0.045-0.002c-0.023-0.041-0.058-0.079-0.053-0.125
		c-0.085-0.064-0.077-0.147-0.136-0.217c-0.008-0.067,0.065-0.125,0.124-0.128c0.014,0.027,0.052,0.051,0.073,0.077
		c0.06-0.033-0.003-0.085,0.044-0.134c0.021,0.022,0.028-0.003,0.048,0.013c0.021,0.031,0.048,0.089,0.097,0.083
		c0.054-0.076-0.088-0.112-0.117-0.172c-0.021-0.011-0.036,0.005-0.062-0.021c0.034-0.04,0.06-0.121,0.072-0.134
		c0.024-0.024,0.023-0.039,0.017-0.058c-0.002-0.005,0.012-0.014,0.011-0.019c-0.004-0.025-0.024-0.058-0.02-0.088
		c0.045-0.045,0.065-0.06,0.116-0.115c-0.042-0.033-0.066,0.003-0.104-0.012c-0.007-0.016-0.019-0.029-0.008-0.048
		c0.021-0.021,0.033-0.021,0.041-0.051c-0.032-0.026-0.055-0.024-0.082-0.033c-0.017-0.036-0.042-0.056-0.031-0.086
		c0.02-0.052,0.13-0.051,0.16-0.098c-0.042-0.027-0.055,0.039-0.091,0.029c-0.036-0.051-0.081-0.007-0.132-0.055
		c-0.036-0.077,0.081-0.087,0.047-0.14c-0.052,0.004-0.093,0.049-0.15,0.036c-0.069-0.05,0.062-0.14,0.005-0.191
		c-0.056,0.029-0.049,0.109-0.118,0.089c-0.02-0.006-0.012-0.025-0.036-0.047c-0.007-0.006-0.022-0.004-0.024-0.006
		c-0.003-0.004,0.001-0.021-0.002-0.027c-0.02-0.027-0.054-0.043-0.069-0.067c0.004-0.023,0.012-0.015,0.012-0.034
		c-0.063-0.039-0.129,0.013-0.178-0.041c-0.012-0.002-0.016,0.023-0.028,0.017c0.003-0.007,0.007-0.016-0.006-0.021
		c-0.05,0.021-0.113-0.005-0.169-0.009c-0.003-0.016-0.004-0.032-0.019-0.045c-0.049-0.034-0.078,0.033-0.093,0.063
		c-0.027,0.007-0.055,0.014-0.083,0.017c-0.066-0.024-0.046-0.067-0.1-0.094c-0.042,0.043-0.041,0.073-0.03,0.125
		c-0.01-0.005-0.015,0.012-0.021,0.021c-0.071-0.002-0.138,0.009-0.193,0.062c-0.023-0.007-0.042,0.008-0.065,0.002
		c0.006-0.004,0.013-0.008,0.018-0.015c0.02-0.026,0.005-0.063,0.021-0.097c-0.04-0.028-0.042-0.041-0.094-0.073
		c-0.092,0.083-0.198-0.132-0.297-0.087c-0.008,0.035,0.031,0.04,0.054,0.033c0.027,0.044,0.078,0.022,0.109,0.049
		c0.041,0.033,0.016,0.042,0.02,0.088c0.003,0.039,0.023,0.06-0.014,0.084c0.037,0.041,0.118,0.056,0.126,0.11
		c0.015-0.014-0.006-0.021,0.001-0.032c0.019-0.001,0.042,0.017,0.062,0.02c-0.001,0.019,0.001,0.036-0.017,0.058
		c-0.015-0.007-0.023,0.009-0.038,0.002c0.009-0.016,0.005-0.03-0.012-0.041c-0.017,0.017,0.019,0.021-0.005,0.039
		c-0.035,0.014-0.073,0.017-0.105,0.038c0.032,0.064,0.022,0.161-0.016,0.21c-0.049-0.002-0.061,0.015-0.082,0.043
		c-0.005,0.035,0.066,0.056,0.054,0.093c-0.047,0.017-0.117-0.011-0.158-0.028c-0.093,0.012-0.196-0.011-0.3-0.037
		c0.011-0.015,0.001-0.026,0.006-0.039c0.01,0.004,0.017-0.003,0.027,0c0.029,0.014,0.015,0.036,0.053,0.049
		c0.003-0.061,0.047-0.066,0.063-0.105c0.03-0.006,0.083,0.013,0.106,0.038c0.006-0.041-0.078-0.063-0.044-0.11
		c0.022-0.007,0.048-0.001,0.067-0.019c0.013-0.022-0.012-0.037-0.001-0.06c0.015-0.032,0.043-0.029,0.078-0.038
		c0.03,0.022,0.056,0.028,0.079,0.022c-0.066-0.041-0.125-0.047-0.13-0.104c0.045-0.062-0.027-0.1,0.014-0.161
		c0.065,0.007,0.132,0.065,0.176,0.09c-0.015-0.028-0.061-0.05-0.062-0.079c-0.027-0.008-0.022-0.017-0.051-0.023
		c-0.016-0.032-0.044-0.063-0.083-0.091c-0.006-0.022-0.021-0.043-0.024-0.066c-0.033-0.019-0.05-0.057-0.076-0.088
		c-0.021-0.024-0.049-0.083-0.087-0.053c-0.009,0.021,0.028,0.034,0.032,0.053c-0.018,0.012-0.009,0.045-0.022,0.037
		c-0.013-0.029-0.039-0.057-0.058-0.085c-0.048,0.006-0.09,0.034-0.152-0.008c0.027-0.043,0.016-0.104-0.023-0.115
		c-0.02,0.056-0.01,0.078-0.03,0.126c-0.042,0.021-0.102-0.018-0.146-0.003c-0.035-0.013-0.029-0.052-0.063-0.048
		c-0.011,0.037,0.013,0.066,0.002,0.104c-0.032,0.01-0.068,0.009-0.089,0.056c-0.025,0.004-0.062-0.034-0.076,0.005
		c-0.001,0.025,0.043,0.042,0.032,0.069c-0.006,0.036-0.027,0.042-0.039,0.078c-0.022,0-0.047-0.008-0.06,0.023
		c-0.003,0.027,0.036,0.047,0.049,0.071c-0.026,0.057,0,0.111-0.038,0.154c-0.032,0.036-0.088,0.008-0.12,0.046
		c0.028,0.026,0.038-0.009,0.059-0.007c0.053,0.01,0.091-0.03,0.149-0.003c-0.013,0.043-0.054,0.047-0.029,0.093
		c0.029,0.012,0.048-0.014,0.08,0.006c0.008,0.013,0.012,0.026,0.012,0.041c-0.014,0.005-0.029,0.004-0.039,0.019
		c0.021,0.021,0.025-0.013,0.042-0.008c0.025,0.063,0.078,0.002,0.119,0.046c0.001,0.034,0.036,0.062,0.065,0.09
		c0.038,0.002,0.063-0.037,0.102-0.031c0.047,0.028,0.081,0.012,0.118,0.004c0.018,0.028-0.003,0.065,0.017,0.095
		c0.027,0.004-0.001-0.025,0.001-0.033c0.117,0.015,0.234,0.029,0.348,0.033c0.038,0.017,0.072,0.019,0.104,0.011
		c-0.008,0.033,0.009,0.061,0.02,0.088c-0.019,0.053-0.085,0.062-0.146,0.03c-0.015-0.001-0.026,0.012-0.042,0.009
		c-0.054-0.018-0.107-0.004-0.156-0.001c-0.016,0-0.038-0.024-0.042,0.008c0.108,0.022,0.247,0.036,0.371,0.056
		c0.003,0.026,0.031,0.029,0.042,0.051c-0.001-0.002-0.009,0.023-0.001,0.033c0.039,0.049,0.014,0.099,0.024,0.142
		c0.008,0.033,0.038,0.05,0.035,0.08c-0.004,0.039-0.05,0.052-0.053,0.087c0.031,0.037,0.081,0.021,0.114,0.009
		c0.042,0.063,0.242,0.101,0.13,0.181c-0.099-0.025-0.101,0.114-0.169,0.142c0.027,0.017,0.041-0.011,0.057-0.032
		c0.091,0.032,0.132-0.106,0.215-0.098c0.022,0.044,0.096,0.048,0.127,0.093c-0.047,0.028-0.028,0.085-0.016,0.117
		c0.07,0.019,0.05-0.075,0.115-0.083c0.029,0.017,0.026,0.039,0.06,0.054c0.03,0.003,0.056-0.012,0.075-0.048
		c0.073-0.022,0.144,0.026,0.2,0.096c-0.007,0.05,0,0.098,0.015,0.144c-0.022,0.016-0.034,0.056,0.01,0.074
		c0.025-0.003,0.016-0.038,0.033-0.04c-0.033-0.033-0.018-0.075-0.033-0.112c0.047-0.007,0.004-0.059,0.039-0.095
		c0.013,0.007,0.017-0.018,0.031-0.007c0.033,0.015,0.032,0.022,0.058,0.027c0.026-0.033,0.007-0.079,0.049-0.098
		c0.013,0.015,0.005,0.032,0.019,0.045c0.023-0.022-0.011-0.034,0.005-0.055c0.038,0.008,0.068-0.009,0.092-0.046
		c0.038,0.002,0.086,0.039,0.126,0.051c0.087,0.172,0.181,0.343,0.31,0.507c0.018-0.01-0.015-0.035,0.008-0.028
		c0.03,0.025,0.01,0.06,0.051,0.082c0.005-0.004,0.008-0.013,0.015-0.009C46.159,53.322,46.082,53.298,46.098,53.257z
		 M44.193,42.924c-0.026-0.046-0.003-0.084-0.05-0.115c-0.088-0.06-0.199,0.08-0.269,0.125c0.021,0.119,0.08,0.066,0.171,0.053
		c0.009-0.002,0.021,0.011,0.031,0.01c0.051-0.006,0.091-0.034,0.113-0.05C44.182,42.941,44.188,42.932,44.193,42.924z
		 M41.963,48.828c0.005-0.054-0.041-0.084-0.062-0.13c-0.022-0.047-0.015-0.1-0.042-0.146c-0.029-0.05-0.085-0.074-0.128-0.111
		c-0.042-0.035-0.074-0.079-0.115-0.114c-0.016-0.014-0.104-0.058-0.11-0.076c-0.026-0.08-0.105-0.103-0.18-0.159
		c-0.052,0.034-0.084,0.065-0.12,0.122c-0.065,0.011-0.125,0.078-0.177,0.079c-0.024,0.052-0.049,0.104-0.035,0.148
		c-0.022,0.01-0.042,0.032-0.064,0.045c-0.003,0.047-0.017,0.095-0.01,0.138c0.007,0.04-0.032,0.103-0.031,0.148
		c0.001,0.047,0.014,0.094,0.038,0.137c0.025,0.045,0.063,0.079,0.089,0.121c0.03,0.048,0.041,0.085,0.095,0.117
		c0.026,0.017,0.061,0.02,0.088,0.042c0.022,0.02,0.036,0.037,0.056,0.053c0.01,0.006,0.02,0.013,0.033,0.018
		c0.016,0.006,0.1,0.002,0.101,0.003c0.089,0.078,0.172,0,0.253-0.008c0.079-0.05,0.174-0.106,0.229-0.183
		c0.03-0.04,0.022-0.097,0.04-0.143C41.926,48.894,41.959,48.865,41.963,48.828z M45.474,39.711c0.02-0.02,0.035-0.034,0.006-0.056
		C45.451,39.664,45.442,39.69,45.474,39.711z M42.668,49.069c-0.011-0.02-0.033,0.009-0.019,0.015
		C42.655,49.076,42.664,49.08,42.668,49.069z M44.238,42.698c-0.04,0-0.072,0.027-0.051,0.054
		C44.217,42.788,44.297,42.757,44.238,42.698z M43.62,43.371c-0.011,0.021-0.032,0.043-0.027,0.06
		c0.016,0.021,0.022,0.017,0.051,0.039C43.72,43.461,43.693,43.349,43.62,43.371z M42.82,42.745c0.003,0.03,0.018,0.059,0.02,0.089
		c-0.024,0.086,0.037,0.155,0.073,0.229c0.073,0.05,0.11,0.105,0.191,0.141c0.014-0.015,0.041,0.012,0.058,0.01
		c0.025,0.042,0.057,0.053,0.118,0.079c0.029-0.006,0.056-0.024,0.087-0.022c0.025,0.017,0.05,0.03,0.071,0.034
		c0.065-0.076,0.162-0.072,0.239-0.151c0-0.016,0.009-0.034,0.013-0.052c0.066-0.059,0.121-0.128,0.145-0.208
		c0.012-0.04,0-0.094,0.016-0.134c0.008-0.02,0.031-0.025,0.03-0.05c0.026,0.016,0.042-0.009,0.066-0.002
		c0.006-0.021,0.021-0.019,0.029-0.033c-0.023-0.065-0.01-0.139-0.095-0.192c0.018-0.017-0.01-0.023-0.005-0.036
		c-0.006-0.021-0.015-0.006-0.031-0.011c0.022-0.054-0.034-0.092-0.057-0.135c-0.009,0.021-0.021-0.014-0.027-0.017
		c-0.06-0.04-0.134-0.047-0.185-0.044c-0.117-0.095-0.239-0.132-0.331-0.048c-0.021-0.014-0.047-0.004-0.076,0.005
		c-0.038-0.022-0.059,0.016-0.097-0.008c-0.05,0.036-0.106,0.046-0.136,0.104c-0.015,0.028-0.01,0.071-0.019,0.106
		c-0.016,0.06-0.044,0.109-0.052,0.163c-0.03-0.005-0.013,0.029-0.04,0.035C42.825,42.646,42.86,42.688,42.82,42.745z M43.6,44.119
		c-0.02,0.021,0,0.033,0.008,0.047C43.613,44.149,43.621,44.13,43.6,44.119z M44.521,57.219c0.01-0.004,0.019-0.011,0.025-0.027
		c-0.011-0.03-0.042-0.063-0.048-0.088c-0.001-0.004-0.018-0.008-0.021-0.012c-0.046-0.067-0.052-0.133-0.124-0.176
		c-0.031,0.019-0.016,0.056-0.014,0.084C44.428,57.068,44.446,57.149,44.521,57.219z M44.545,42.571
		c-0.035-0.015-0.066-0.011-0.087,0.022C44.46,42.676,44.587,42.641,44.545,42.571z M41.274,47.873
		c0.053,0.018,0.048,0.055,0.093,0.074c0.111,0.047,0.222-0.068,0.175-0.183c-0.038-0.033-0.063-0.07-0.103-0.104
		c-0.107-0.026-0.195,0.059-0.184,0.15C41.259,47.833,41.268,47.857,41.274,47.873z M44.242,53.784
		c0.02-0.012,0.063-0.068,0.045-0.091c0.011-0.017,0.01,0.026,0.021-0.004c-0.001-0.031,0.016-0.06,0.035-0.088
		c0.021-0.031,0.069-0.059,0.053-0.104c-0.041,0.085-0.1,0.13-0.133,0.189C44.309,53.731,44.219,53.751,44.242,53.784z
		 M44.905,53.965c0.011,0.005,0.016-0.011,0.022-0.021C44.911,53.917,44.878,53.958,44.905,53.965z M4.604,14.658
		c-0.003,0.042,0.009,0.066,0.042,0.067C4.663,14.703,4.638,14.659,4.604,14.658z M4.846,14.127
		c-0.024,0.001-0.072,0.033-0.051,0.045C4.796,14.142,4.853,14.168,4.846,14.127z M4.5,8.302c-0.007,0-0.014,0-0.021,0
		c0,0.007,0,0.015,0,0.022c0.007,0,0.013,0,0.02,0C4.5,8.317,4.5,8.309,4.5,8.302z M6.205,12.899
		c-0.037-0.018-0.066-0.045-0.093-0.022C6.131,12.896,6.193,12.943,6.205,12.899z M16.128,8.518
		c-0.044,0.004-0.108-0.012-0.124,0.023c0.015,0.003,0.017,0.019,0.031,0.022C16.054,8.517,16.117,8.579,16.128,8.518z M9.527,0.045
		C9.525,0.03,9.569,0.01,9.537,0c0.001,0.006-0.006,0.016-0.011,0.024C9.521,0.031,9.519,0.037,9.522,0.041
		C9.523,0.042,9.523,0.044,9.527,0.045z M10.074,7.228c0.002-0.016,0.017-0.02,0.021-0.034C10.073,7.184,10.048,7.223,10.074,7.228z
		 M10.288,6.978c0.069-0.123,0.208-0.17,0.244-0.329c-0.07,0.022-0.091,0.109-0.132,0.159c-0.042,0.051-0.096,0.083-0.133,0.136
		C10.267,6.963,10.275,6.973,10.288,6.978z M10.247,7c-0.031-0.003-0.032,0.026-0.062,0.023C10.177,7.089,10.1,7.14,10.104,7.182
		C10.154,7.124,10.226,7.089,10.247,7z M11.009,7.722c0.057,0.013,0.056-0.036,0.113-0.023c0.037-0.088,0.008-0.173-0.054-0.19
		c-0.005-0.002-0.028,0.009-0.041,0.011c-0.023,0.004-0.086,0.039-0.092,0.08C10.968,7.631,10.979,7.687,11.009,7.722z
		 M19.978,13.775c-0.054-0.012-0.091,0.05-0.061,0.091C19.934,13.833,19.979,13.828,19.978,13.775z M19.583,13.6
		c0.083-0.153-0.13-0.19-0.135-0.077C19.443,13.624,19.534,13.611,19.583,13.6z M19.003,13.449c0.007-0.042-0.017-0.049-0.052-0.044
		c0,0.019,0,0.038,0.001,0.057C18.976,13.464,18.991,13.459,19.003,13.449z M13.678,14.565c0.1-0.038,0.135-0.199,0.101-0.271
		c-0.021-0.043-0.075-0.063-0.104-0.111c-0.174-0.021-0.255,0.126-0.213,0.306C13.533,14.536,13.59,14.599,13.678,14.565z
		 M14.692,15.655c-0.01,0.015-0.009,0.042-0.031,0.045c-0.004,0.179,0.219,0.093,0.124-0.047
		C14.754,15.654,14.723,15.654,14.692,15.655z M12.435,16.006c0,0.051,0.074,0.061,0.083,0.01c0.15,0.025,0.271,0.009,0.35-0.094
		c0.094-0.014,0.156-0.063,0.216-0.114c0.002-0.026,0.016-0.042,0.009-0.079c0.149-0.079,0.322-0.265,0.233-0.463
		c0.047-0.022,0.013-0.065,0.061-0.09c0.017-0.087,0-0.155-0.023-0.225c0.036-0.074,0.067-0.141,0.018-0.225
		c-0.067-0.008-0.133-0.019-0.166-0.066c-0.002-0.043-0.001-0.083,0.008-0.112c-0.068-0.092-0.091-0.29-0.271-0.221
		c-0.029-0.024-0.069-0.037-0.104-0.055c-0.01-0.065-0.037-0.092-0.063-0.101c-0.158-0.052-0.125,0.169-0.267,0.127
		c-0.033-0.056-0.118-0.083-0.197-0.054c-0.052,0.089-0.064,0.221-0.151,0.271c-0.083-0.029-0.214-0.048-0.237,0.07
		c-0.007,0.04,0.025,0.081,0.022,0.124c-0.006,0.085-0.062,0.117-0.122,0.136c-0.021,0.052-0.047,0.097-0.061,0.158
		c0.018,0.043,0.065,0.099,0.085,0.157c0.003,0.009-0.008,0.034,0,0.067c0.016,0.06,0.04,0.025,0.001,0.079
		c-0.035,0.049-0.065,0.073-0.082,0.125c0.022,0.066,0.056,0.12,0.115,0.145c0.062,0.113,0.151,0.196,0.22,0.301
		C12.257,15.873,12.318,16.016,12.435,16.006z M17.446,14.534c0.077,0.094,0.219,0.113,0.321,0.063
		c0.002-0.001,0.013-0.029,0.02-0.034c0.063-0.044,0.074-0.159,0.111-0.271c0.149-0.026,0.137-0.322,0.078-0.417
		c-0.003-0.004-0.006-0.027-0.011-0.033c-0.031-0.039-0.065-0.042-0.094-0.056c-0.02-0.009-0.038-0.048-0.052-0.056
		c0.001,0.001-0.01,0.018-0.021,0.012c-0.005-0.003-0.005-0.029-0.011-0.034c-0.024-0.021-0.051-0.008-0.062-0.021
		c-0.01,0.015-0.035,0.015-0.041,0.034c-0.1-0.028-0.206,0.042-0.246,0.16c-0.057,0.017-0.089,0.061-0.081,0.146
		c0.012,0.017,0.039,0.018,0.052,0.033c-0.036,0.087,0.027,0.118,0.043,0.18C17.405,14.328,17.422,14.431,17.446,14.534z
		 M18.681,14.149c0.013,0.064,0.034,0.074,0.033,0.135c0.033,0.058,0.152,0.065,0.217,0.065c0.012,0,0.018-0.008,0.031-0.012
		c0.049-0.013,0.144-0.012,0.186-0.036c0.054-0.032,0.115-0.175,0.131-0.237c0.027-0.104,0.023-0.218,0.018-0.281
		c-0.047-0.027-0.056-0.097-0.084-0.145c-0.092-0.008-0.14-0.105-0.229-0.121c-0.116-0.02-0.205,0.059-0.288,0.138
		c-0.038-0.022-0.046,0.006-0.072,0.023c0,0.056,0.011,0.055,0.001,0.101C18.544,13.856,18.587,14.101,18.681,14.149z
		 M15.033,15.718c0.014,0,0.015,0.014,0.031,0.011C15.08,15.702,15.029,15.697,15.033,15.718z M15.055,14.865
		c0-0.045,0.052-0.033,0.041-0.091c-0.023-0.033-0.056-0.008-0.083,0.012C15.025,14.813,15.022,14.859,15.055,14.865z
		 M13.121,13.629C13.13,13.563,13.075,13.625,13.121,13.629L13.121,13.629z M13.477,14.141c0-0.007,0-0.015,0-0.022
		c-0.007,0-0.014,0-0.021,0c0,0.008,0,0.015,0,0.023C13.463,14.141,13.47,14.141,13.477,14.141z" changeable="1"/>
	<path style="fill:#82704D" d="M2.983,12.846c0.018-0.039,0.059-0.073,0.061-0.102c0.009-0.128-0.129-0.16-0.158-0.29
		C2.865,12.45,2.852,12.44,2.84,12.431l0.008,0.707c0.012-0.025,0.05-0.039,0.065-0.066c0.012-0.022,0.004-0.071,0.02-0.112
		c0.007-0.021,0.044-0.037,0.05-0.057C2.992,12.876,2.977,12.861,2.983,12.846z M5.191,44.228L3.203,44.25l0.042,3.688l1.989-0.022
		L5.191,44.228z M5.117,37.671l-1.989,0.022l0.042,3.688l1.989-0.022L5.117,37.671z M5.042,31.115l-1.989,0.022l0.042,3.688
		l1.989-0.022L5.042,31.115z M5.266,50.785l-1.989,0.022l0.042,3.688l1.989-0.022L5.266,50.785z M4.848,14.083
		c-0.112,0.1-0.325,0.023-0.346-0.176c-0.135,0.005-0.281,0.009-0.332-0.12c-0.122-0.023-0.135-0.169-0.209-0.245
		c-0.027,0-0.055,0.001-0.083,0.001c-0.052-0.086-0.138-0.134-0.188-0.222c0.004-0.05,0.031-0.078,0.05-0.113
		c-0.017-0.079-0.081-0.087-0.167-0.099c-0.096-0.014-0.177-0.079-0.249-0.098c-0.136,0.074-0.213,0.21-0.39,0.24
		c-0.019,0.063-0.047,0.115-0.085,0.145l0.02,1.759l1.989-0.023L4.848,14.083z M4.846,14.127c0.007,0.041-0.049,0.015-0.051,0.045
		C4.773,14.16,4.821,14.128,4.846,14.127z M4.604,14.658c0.034,0.001,0.059,0.045,0.042,0.067C4.613,14.724,4.601,14.7,4.604,14.658
		z M4.967,24.558l-1.989,0.022l0.042,3.688l1.989-0.022L4.967,24.558z M4.743,4.887L2.754,4.91l0.042,3.688l1.989-0.022L4.743,4.887
		z M4.48,8.302c0.007,0,0.014,0,0.021,0c0,0.007,0,0.015,0,0.022c-0.007,0-0.013,0-0.02,0C4.48,8.317,4.48,8.309,4.48,8.302z
		 M4.893,18l-1.989,0.023l0.042,3.688l1.989-0.022L4.893,18z M52.473,4.343l-1.989,0.023l0.042,3.688l1.989-0.022L52.473,4.343z
		 M52.171,46.996c-0.039,0.053-0.019,0.105-0.037,0.166c-0.004,0.013-0.01,0.028-0.016,0.043c-0.022,0.053-0.056,0.112-0.089,0.146
		c-0.013,0.015-0.03,0.023-0.047,0.031l0.981-0.011l-0.042-3.688l-1.989,0.022l0.032,2.79c0.002,0.004,0.006,0.006,0.006,0.012
		c-0.001,0.003-0.004,0.005-0.006,0.008l0.001,0.08c0.028,0.032,0.028,0.081,0.001,0.122l0.005,0.465
		c0.016,0.023,0.03,0.046,0.046,0.068c0.034,0.046,0.065,0.093,0.089,0.142l0.215-0.003c-0.067-0.12-0.182-0.216-0.21-0.354
		c-0.023-0.108,0.052-0.249,0.118-0.328c0.027-0.033,0.068-0.091,0.104-0.114c0.05-0.033,0.087-0.016,0.144-0.027
		c0.051-0.01,0.085-0.045,0.139-0.045c0.113,0.002,0.188,0.06,0.288,0.092c0.022,0.007,0.055-0.004,0.074,0.008
		c0.057,0.034,0.03,0.101,0.053,0.148c0.038,0.076,0.128,0.082,0.178,0.145C52.263,46.979,52.199,46.959,52.171,46.996z
		 M52.996,50.241l-1.989,0.022l0.021,1.8c0.001,0.001,0.003,0.002,0.004,0.003c-0.002,0.037,0.036,0.033,0.032,0.07
		c0.15,0.02,0.198,0.19,0.19,0.309c0.024,0.01,0.029,0.023,0.043,0.035c0.009,0.054,0.015,0.108-0.011,0.17
		c0.032,0.085-0.003,0.163-0.074,0.243c0.027,0.023-0.006,0.063-0.036,0.045c-0.026,0.052-0.086,0.06-0.138,0.089l0.011,0.924
		l1.989-0.022L52.996,50.241z M51.401,50.955c-0.002-0.023-0.005-0.053,0.023-0.054c0.039,0.014,0.013,0.041,0.039,0.058
		C51.448,50.975,51.422,50.957,51.401,50.955z M51.816,51.5c0.006-0.014-0.011-0.023-0.016-0.034
		c0.012-0.02,0.022-0.037,0.034-0.057C51.952,51.405,51.921,51.57,51.816,51.5z M51.964,51.287
		c-0.015-0.006,0.007-0.034,0.018-0.015C51.978,51.283,51.969,51.279,51.964,51.287z M53.146,63.354l-1.989,0.022l0.042,3.688
		l1.989-0.022L53.146,63.354z M53.071,56.797l-1.989,0.022l0.042,3.688l1.989-0.023L53.071,56.797z M52.847,37.127l-1.989,0.022
		l0.042,3.688l1.989-0.022L52.847,37.127z M52.548,10.9l-1.989,0.022l0.042,3.688l1.989-0.023L52.548,10.9z M5.341,57.341
		l-1.989,0.022l0.042,3.688l1.989-0.022L5.341,57.341z M3.427,63.92l0.042,3.688l1.989-0.022l-0.042-3.688L3.427,63.92z
		 M52.623,17.457l-1.989,0.023l0.042,3.688l1.989-0.022L52.623,17.457z M52.697,24.014l-1.989,0.022l0.042,3.688l1.989-0.022
		L52.697,24.014z M52.772,30.571l-1.989,0.022l0.042,3.688l1.989-0.022L52.772,30.571z" changeable="1"/>
	<path style="fill:#F2D699" d="M6.215,9.836L6.206,8.99c-0.005-0.004-0.01-0.007-0.015-0.011C6.162,8.826,6.074,8.738,6.073,8.553
		c0.033-0.035,0.071-0.064,0.112-0.091c0.003-0.008,0.009-0.015,0.014-0.022L6.197,8.239c-0.001,0-0.003-0.001-0.004-0.001
		c0.001-0.002,0.003-0.003,0.004-0.005L6.18,6.779C6.122,6.78,6.063,6.782,6.005,6.784l0.036,3.145
		C6.091,9.89,6.153,9.863,6.215,9.836z M6.215,12.91c0.014,0.002,0.024,0.008,0.035,0.013L6.215,9.849
		c-0.053,0.042-0.109,0.08-0.174,0.109l0.017,1.516c0.019-0.021,0.046-0.031,0.088-0.023c0.095,0.155,0.123,0.43-0.004,0.55
		C6.111,12,6.087,12.01,6.064,12.024l0.65,57.022c0.059,0.016,0.118,0.031,0.176,0.049L6.25,12.957
		C6.237,12.943,6.225,12.928,6.215,12.91z M6.112,12.877c0.026-0.023,0.056,0.004,0.093,0.022
		C6.193,12.943,6.131,12.896,6.112,12.877z M54.291,1.453l-0.176-0.052l0.78,68.563c0.059,0.013,0.117,0.025,0.176,0.036
		L54.291,1.453z" changeable="1"/>

</svg>
