<?xml version="1.0" encoding="utf-8"?>
<svg version="1.1" id="Layer_1" xmlns="http://www.w3.org/2000/svg" xmlns:xlink="http://www.w3.org/1999/xlink" x="0px" y="0px"
	 width="70px" height="70.203px" viewBox="0 0 70 70.203" enable-background="new 0 0 70 70.203" xml:space="preserve">
<path style="fill:none" d="M1.25,1.102H68.5v68.25H1.25V1.102z" isFrame="true" changeable="0"/>
<path opacity="0.26" style="fill:#000000" d="M0.236,0.791l0.351,69.413l68.603-0.267l0.349-69.165L0.236,0.791z
	 M68.006,50.068c-0.027,0.283-0.279,0.527-0.502,0.678c-0.145,0.1-0.292,0.191-0.439,0.285c-0.146,0.094-0.31,0.184-0.418,0.322
	c-0.219,0.275-0.322,0.789-0.207,1.121c0.076,0.217,0.264,0.363,0.447,0.484c0.068,0.047,0.135,0.092,0.2,0.143
	c0.085,0.064,0.183,0.113,0.261,0.188c0.248,0.232,0.506,0.479,0.446,0.854c-0.089,0.578-0.655,0.813-1.052,1.154
	c-0.109,0.098-0.208,0.203-0.285,0.326c-0.075,0.119-0.124,0.258-0.128,0.398c-0.021,0.766,1.062,1.135,1.438,1.658
	c0.473,0.658-0.304,1.207-0.849,1.488c-0.478,0.246-0.885,0.705-0.536,1.244c0.229,0.355,0.697,0.709,1.09,0.859
	c0.198,0.076,0.321,0.127,0.416,0.342c0.073,0.17,0.104,0.381,0.061,0.563c-0.061,0.246-0.18,0.385-0.373,0.535
	c-0.082,0.064-0.169,0.117-0.254,0.178c-0.102,0.072-0.182,0.17-0.289,0.225c-0.086,0.043-0.17,0.066-0.252,0.127
	c-0.149,0.104-0.325,0.252-0.398,0.426c-0.105,0.252-0.037,0.455,0.096,0.686c0.156,0.27,0.367,0.48,0.604,0.68
	c0.11,0.096,0.245,0.217,0.335,0.342c0.094,0.127,0.127,0.307,0.177,0.455c0.105,0.313,0.06,0.773-0.022,1.086
	c-0.092,0.359-0.35,0.68-0.643,0.906c-0.506,0.391-1.27,0.582-1.867,0.271c-0.463-0.239-0.553,0.271-0.971,0.306
	c-0.087,0.006-0.168-0.011-0.242-0.041c-0.188-0.076-0.344-0.25-0.477-0.396c-0.469-0.517-1.154-0.819-1.475-0.194
	c-1.037,2.024-1.459-1.476-2.719-0.701c-0.218,0.133-0.361,0.353-0.476,0.571c-0.281,0.544-0.83,1.318-1.488,0.847
	c-0.526-0.377-0.896-1.457-1.657-1.438c-0.145,0.004-0.281,0.054-0.4,0.129c-0.122,0.076-0.229,0.177-0.324,0.283
	c-0.343,0.396-0.58,0.963-1.156,1.053c-0.376,0.06-0.617-0.198-0.853-0.446c-0.073-0.078-0.122-0.177-0.188-0.261
	c-0.051-0.063-0.096-0.131-0.141-0.198c-0.066-0.104-0.146-0.211-0.234-0.295c-0.086-0.084-0.167-0.17-0.281-0.207
	c-0.09-0.029-0.225-0.026-0.313-0.004c-0.237,0.062-0.472,0.155-0.623,0.362c-0.172,0.233-0.321,0.496-0.485,0.735
	c-0.152,0.224-0.396,0.476-0.679,0.503c-0.114,0.012-0.265-0.027-0.358-0.082c-0.185-0.104-0.25-0.293-0.346-0.468
	c-0.096-0.176-0.199-0.349-0.316-0.513c-0.153-0.217-0.338-0.434-0.57-0.569c-0.307-0.176-0.63-0.116-0.88,0.123
	c-0.136,0.127-0.229,0.281-0.315,0.444c-0.279,0.543-0.83,1.318-1.486,0.847c-0.525-0.377-0.896-1.457-1.658-1.438
	c-0.863,0.021-0.857,1.156-1.522,1.484c-0.301,0.148-0.749,0.123-1.009-0.107c-0.449-0.4-0.768-1.537-1.551-1.293
	c-0.274,0.086-0.531,0.236-0.701,0.477c-0.316,0.438-0.831,1.293-1.482,0.83c-0.283-0.201-0.442-0.529-0.643-0.807
	c-0.148-0.209-0.325-0.414-0.547-0.549c-0.307-0.188-0.637-0.139-0.895,0.104c-0.137,0.129-0.235,0.285-0.321,0.451
	c-0.281,0.543-0.83,1.318-1.488,0.846c-0.526-0.377-0.895-1.457-1.658-1.438c-0.98,0.025-0.946,1.646-1.942,1.576
	c-0.25-0.018-0.454-0.17-0.624-0.348c-0.055-0.061-0.099-0.131-0.157-0.188c-0.045-0.045-0.086-0.072-0.122-0.129
	c-0.07-0.109-0.136-0.229-0.204-0.342c-0.124-0.211-0.315-0.436-0.536-0.545c-0.122-0.061-0.258-0.102-0.392-0.049
	c-0.121,0.047-0.226,0.16-0.317,0.248c-0.221,0.213-0.37,0.479-0.548,0.721c-0.101,0.139-0.222,0.256-0.345,0.373
	c-0.1,0.1-0.251,0.225-0.388,0.25c-0.124,0.027-0.308,0.018-0.42-0.037c-0.263-0.125-0.381-0.396-0.526-0.633
	c-0.163-0.266-0.338-0.525-0.565-0.742c-0.533-0.512-1.102-0.111-1.383,0.434c-0.281,0.543-0.83,1.318-1.488,0.848
	c-0.526-0.377-0.895-1.457-1.659-1.438c-0.47,0.015-0.715,0.405-0.949,0.758c-0.233,0.349-0.482,0.658-0.878,0.808
	c-0.258,0.099-0.524-0.019-0.69-0.22c-0.089-0.11-0.195-0.209-0.286-0.315c-0.052-0.063-0.091-0.141-0.141-0.204
	c-0.048-0.064-0.102-0.111-0.149-0.173c-0.245-0.323-0.784-0.959-1.226-0.563c-0.189,0.168-0.363,0.401-0.475,0.627
	c-0.055,0.109-0.093,0.228-0.172,0.326c-0.075,0.094-0.146,0.188-0.218,0.283c-0.166,0.221-0.43,0.28-0.687,0.282
	c-0.125,0.002-0.257-0.047-0.36-0.112c-0.073-0.048-0.137-0.101-0.201-0.156c-0.169-0.151-0.267-0.407-0.39-0.601
	c-0.134-0.207-0.281-0.405-0.46-0.577c-0.534-0.511-1.103-0.115-1.385,0.432c-0.281,0.543-0.83,1.298-1.488,0.824
	C9.827,68.082,9.458,67,8.694,67c-0.007,0-0.013,0-0.02,0c-0.223,0-0.42,0.152-0.578,0.305c-0.173,0.164-0.308,0.379-0.427,0.584
	c-0.05,0.088-0.097,0.182-0.143,0.271c-0.092,0.184-0.178,0.351-0.386,0.419c-0.177,0.06-0.376,0.042-0.559,0.028
	c-0.191-0.018-0.416-0.047-0.523-0.231c-0.046-0.08-0.07-0.163-0.107-0.245c-0.057-0.127-0.129-0.255-0.232-0.349
	c-0.307-0.281-0.555,0.175-0.813,0.31c-0.598,0.311-1.362,0.119-1.867-0.271c-0.292-0.227-0.55-0.547-0.643-0.904
	c-0.081-0.313-0.129-0.771-0.023-1.086c0.05-0.146,0.083-0.328,0.176-0.455c0.09-0.125,0.223-0.246,0.335-0.342
	c0.235-0.197,0.446-0.41,0.604-0.682c0.132-0.229,0.2-0.432,0.094-0.684c-0.072-0.174-0.248-0.32-0.398-0.426
	c-0.082-0.059-0.165-0.084-0.251-0.127c-0.108-0.053-0.188-0.15-0.289-0.223c-0.085-0.063-0.172-0.113-0.254-0.18
	c-0.194-0.148-0.312-0.289-0.373-0.533c-0.045-0.184-0.014-0.395,0.06-0.563c0.094-0.216,0.217-0.267,0.416-0.343
	c0.391-0.149,0.858-0.504,1.088-0.858c0.349-0.539-0.06-0.998-0.536-1.244c-0.544-0.28-1.319-0.83-0.847-1.487
	c0.377-0.524,1.458-0.896,1.438-1.658c-0.004-0.144-0.052-0.28-0.127-0.399c-0.077-0.123-0.176-0.229-0.285-0.326
	c-0.396-0.342-0.962-0.577-1.052-1.155c-0.058-0.375,0.2-0.617,0.447-0.853c0.078-0.074,0.175-0.123,0.26-0.188
	c0.064-0.049,0.131-0.095,0.2-0.142c0.103-0.065,0.209-0.146,0.294-0.231c0.083-0.086,0.17-0.168,0.208-0.283
	c0.029-0.092,0.027-0.223,0.004-0.313c-0.061-0.237-0.156-0.471-0.364-0.623c-0.234-0.172-0.496-0.319-0.737-0.485
	c-0.222-0.151-0.474-0.396-0.501-0.678c-0.011-0.115,0.028-0.265,0.082-0.359c0.104-0.184,0.293-0.25,0.466-0.344
	c0.176-0.099,0.349-0.201,0.512-0.315c0.217-0.156,0.435-0.338,0.57-0.572c0.177-0.307,0.118-0.631-0.122-0.881
	c-0.128-0.133-0.282-0.229-0.445-0.313c-0.544-0.281-1.319-0.83-0.847-1.488c0.377-0.525,1.458-0.895,1.438-1.658
	c-0.023-0.863-1.156-0.857-1.486-1.521C2,42.586,2.026,42.139,2.259,41.879c0.403-0.449,1.537-0.768,1.293-1.551
	c-0.086-0.275-0.237-0.531-0.475-0.702c-0.44-0.315-1.293-0.831-0.83-1.483c0.201-0.283,0.529-0.441,0.804-0.642
	c0.208-0.149,0.415-0.325,0.549-0.547c0.186-0.308,0.137-0.638-0.106-0.894c-0.129-0.138-0.285-0.234-0.45-0.32
	c-0.544-0.281-1.319-0.83-0.847-1.488c0.377-0.525,1.458-0.895,1.438-1.658c-0.026-0.979-1.646-0.946-1.576-1.941
	c0.018-0.25,0.171-0.454,0.348-0.624c0.058-0.055,0.131-0.099,0.186-0.156c0.043-0.045,0.072-0.087,0.128-0.122
	c0.11-0.07,0.227-0.136,0.341-0.204c0.271-0.16,0.586-0.422,0.582-0.769c-0.008-0.509-0.535-0.995-0.872-1.324
	c-0.091-0.089-0.176-0.188-0.237-0.3c-0.132-0.241-0.098-0.507,0.062-0.729c0.377-0.526,1.458-0.895,1.438-1.659
	c-0.023-0.863-1.156-0.858-1.486-1.522c-0.149-0.301-0.124-0.749,0.109-1.008c0.403-0.449,1.537-0.767,1.293-1.551
	c-0.086-0.275-0.237-0.531-0.475-0.702c-0.44-0.316-1.293-0.831-0.83-1.483c0.201-0.283,0.529-0.444,0.805-0.642
	c0.208-0.15,0.414-0.325,0.549-0.547c0.186-0.307,0.137-0.637-0.106-0.894c-0.129-0.136-0.285-0.234-0.45-0.32
	c-0.544-0.281-1.319-0.83-0.847-1.488c0.377-0.525,1.458-0.895,1.438-1.658c-0.026-0.98-1.646-0.946-1.576-1.941
	c0.018-0.25,0.171-0.454,0.348-0.624c0.058-0.055,0.13-0.099,0.186-0.156c0.043-0.045,0.072-0.087,0.128-0.122
	c0.11-0.07,0.227-0.136,0.341-0.204C4.048,9.556,4.218,8.8,3.732,8.291C3.566,8.12,3.365,7.984,3.158,7.866
	c-0.087-0.05-0.176-0.097-0.267-0.143C2.538,7.545,2.329,7.134,2.462,6.751C2.598,6.362,3.015,6.2,3.276,5.915
	C3.558,5.608,3.1,5.36,2.966,5.102C2.656,4.504,2.847,3.74,3.238,3.235c0.227-0.293,0.546-0.55,0.907-0.643
	C4.458,2.511,4.918,2.463,5.23,2.569c0.149,0.05,0.328,0.083,0.457,0.177c0.125,0.09,0.246,0.223,0.341,0.335
	c0.197,0.235,0.409,0.446,0.68,0.604c0.227,0.132,0.432,0.2,0.684,0.094C7.564,3.706,7.711,3.53,7.816,3.38
	C7.874,3.298,7.9,3.214,7.943,3.129C7.997,3.021,8.093,2.94,8.165,2.84c0.062-0.085,0.114-0.172,0.178-0.254
	c0.151-0.195,0.29-0.312,0.535-0.374c0.183-0.045,0.393-0.014,0.563,0.061c0.214,0.093,0.265,0.216,0.342,0.416
	c0.15,0.391,0.503,0.857,0.858,1.088c0.539,0.349,0.999-0.06,1.245-0.536c0.211-0.408,0.573-0.946,1.018-0.99l0.007,0.002
	c1.074-0.069,1.037,1.55,2.094,1.576c0.824,0.02,1.222-1.06,1.79-1.438c0.71-0.473,1.302,0.302,1.605,0.847
	c0.092,0.165,0.198,0.321,0.345,0.45c0.277,0.243,0.633,0.292,0.964,0.106c0.239-0.135,0.428-0.341,0.589-0.549
	c0.214-0.275,0.387-0.603,0.692-0.804c0.704-0.463,1.259,0.39,1.6,0.83c0.184,0.237,0.46,0.389,0.757,0.475
	c0.845,0.244,1.188-0.89,1.673-1.293c0.28-0.233,0.763-0.259,1.087-0.109c0.717,0.33,0.711,1.463,1.643,1.486
	c0.824,0.02,1.222-1.06,1.789-1.438c0.71-0.473,1.302,0.302,1.606,0.847c0.091,0.163,0.195,0.317,0.339,0.445
	c0.27,0.24,0.62,0.299,0.95,0.122c0.253-0.136,0.45-0.353,0.617-0.57c0.126-0.164,0.238-0.336,0.341-0.512
	c0.102-0.173,0.173-0.363,0.372-0.467c0.103-0.054,0.264-0.093,0.388-0.082c0.305,0.028,0.567,0.28,0.731,0.502
	c0.178,0.241,0.339,0.502,0.524,0.737c0.165,0.208,0.416,0.304,0.672,0.364C36.18,3.8,36.322,3.803,36.42,3.773
	c0.124-0.038,0.213-0.125,0.305-0.208c0.094-0.084,0.18-0.192,0.254-0.294c0.049-0.068,0.098-0.135,0.15-0.2
	c0.071-0.085,0.124-0.183,0.204-0.26c0.183-0.178,0.394-0.468,0.683-0.436c0.241,0.028,0.438,0.246,0.578,0.425
	c0.057,0.072,0.11,0.146,0.163,0.22c0.06,0.083,0.117,0.167,0.177,0.25c0.17,0.237,0.428,0.389,0.702,0.475
	c0.783,0.244,1.103-0.89,1.552-1.293c0.261-0.233,0.707-0.259,1.008-0.109c0.664,0.33,0.658,1.463,1.521,1.486
	c0.764,0.02,1.133-1.06,1.659-1.438c0.658-0.473,1.207,0.302,1.487,0.847c0.084,0.163,0.182,0.317,0.313,0.445
	c0.25,0.24,0.574,0.299,0.882,0.122c0.232-0.136,0.416-0.353,0.57-0.57c0.117-0.164,0.223-0.336,0.314-0.512
	C49.04,2.55,49.105,2.36,49.29,2.256c0.096-0.054,0.245-0.093,0.358-0.082c0.281,0.028,0.525,0.28,0.679,0.502
	c0.166,0.241,0.313,0.502,0.485,0.737c0.151,0.208,0.387,0.304,0.623,0.364c0.092,0.023,0.225,0.025,0.313-0.004
	c0.116-0.038,0.196-0.125,0.283-0.208c0.087-0.084,0.167-0.192,0.233-0.294c0.045-0.068,0.09-0.135,0.142-0.2
	c0.065-0.085,0.114-0.183,0.188-0.26c0.233-0.248,0.478-0.505,0.854-0.447c0.576,0.089,0.813,0.657,1.156,1.052
	c0.095,0.109,0.201,0.208,0.324,0.285c0.119,0.076,0.258,0.124,0.399,0.128c0.764,0.02,1.133-1.06,1.657-1.438
	c0.658-0.473,1.207,0.302,1.488,0.847c0.246,0.477,0.705,0.885,1.244,0.536c0.355-0.23,0.709-0.697,0.858-1.088
	c0.075-0.199,0.127-0.322,0.342-0.416c0.171-0.075,0.381-0.106,0.563-0.06c0.244,0.061,0.384,0.178,0.535,0.373
	c0.063,0.082,0.114,0.169,0.178,0.254c0.07,0.1,0.168,0.181,0.222,0.289c0.042,0.086,0.069,0.17,0.127,0.251
	c0.104,0.15,0.252,0.326,0.427,0.398c0.252,0.105,0.455,0.038,0.684-0.094c0.271-0.158,0.482-0.368,0.681-0.604
	c0.097-0.113,0.217-0.245,0.341-0.335c0.131-0.093,0.309-0.126,0.457-0.177c0.313-0.105,0.771-0.058,1.085,0.023
	c0.36,0.093,0.681,0.35,0.906,0.643c0.392,0.504,0.582,1.269,0.271,1.867c-0.135,0.259-0.592,0.507-0.311,0.813
	c0.096,0.104,0.223,0.176,0.35,0.232c0.66,0.298,0.688,1.247,0.035,1.575c-0.09,0.045-0.18,0.092-0.267,0.143
	c-0.206,0.119-0.584,0.254-0.749,0.427C66.309,8.448,66,8.645,66,8.868c0,0.007,0,0.013,0,0.02c0,0.764,1.234,1.133,1.611,1.658
	c0.474,0.658-0.213,1.207-0.758,1.488c-0.547,0.282-0.897,0.852-0.388,1.385c0.173,0.179,0.396,0.326,0.603,0.46
	c0.188,0.123,0.457,0.221,0.607,0.39c0.059,0.064,0.114,0.128,0.162,0.201c0.064,0.103,0.117,0.236,0.116,0.36
	c-0.002,0.257-0.062,0.521-0.281,0.687c-0.097,0.072-0.188,0.144-0.282,0.219c-0.102,0.079-0.218,0.117-0.326,0.172
	c-0.226,0.112-0.459,0.286-0.627,0.475c-0.395,0.442,0.242,0.98,0.563,1.226c0.063,0.047,0.107,0.102,0.173,0.149
	c0.065,0.05,0.146,0.088,0.205,0.141c0.104,0.091,0.206,0.197,0.313,0.286c0.203,0.166,0.318,0.432,0.222,0.69
	c-0.147,0.396-0.459,0.645-0.81,0.877c-0.351,0.235-0.744,0.479-0.756,0.95c-0.021,0.764,1.062,1.133,1.438,1.659
	c0.473,0.658-0.304,1.207-0.849,1.488c-0.543,0.281-0.939,0.851-0.433,1.383c0.218,0.226,0.479,0.402,0.744,0.564
	c0.237,0.146,0.506,0.264,0.632,0.527c0.055,0.112,0.064,0.296,0.039,0.42c-0.027,0.136-0.154,0.288-0.251,0.388
	c-0.118,0.123-0.235,0.244-0.372,0.345c-0.242,0.178-0.509,0.328-0.722,0.548c-0.089,0.091-0.2,0.196-0.247,0.317
	c-0.053,0.134-0.014,0.27,0.048,0.392c0.108,0.221,0.334,0.412,0.544,0.536c0.114,0.067,0.23,0.134,0.342,0.204
	c0.057,0.035,0.084,0.077,0.129,0.122c0.055,0.058,0.127,0.102,0.187,0.156c0.177,0.17,0.331,0.374,0.349,0.624
	c0.069,0.996-1.551,0.961-1.574,1.941c-0.021,0.764,1.06,1.133,1.437,1.659c0.474,0.658-0.302,1.207-0.847,1.488
	c-0.166,0.085-0.32,0.184-0.449,0.32c-0.243,0.256-0.292,0.586-0.105,0.894c0.135,0.222,0.34,0.396,0.549,0.546
	c0.274,0.198,0.604,0.358,0.806,0.644c0.463,0.651-0.392,1.168-0.83,1.481c-0.237,0.172-0.39,0.428-0.476,0.702
	c-0.244,0.783,0.892,1.103,1.293,1.552c0.232,0.26,0.258,0.707,0.108,1.008c-0.33,0.664-1.463,0.66-1.485,1.522
	c-0.021,0.765,1.062,1.134,1.438,1.658c0.474,0.658-0.304,1.207-0.849,1.487c-0.161,0.084-0.314,0.183-0.443,0.313
	c-0.239,0.25-0.298,0.574-0.121,0.882c0.137,0.233,0.354,0.416,0.568,0.571c0.164,0.115,0.338,0.22,0.514,0.315
	c0.174,0.095,0.361,0.16,0.467,0.345C67.979,49.805,68.018,49.955,68.006,50.068z" changeable="0"/>
<path style="fill:#FFFFFF" d="M0,0.628v68.724C0,69.582,0.325,70,0.483,70h68.246C69.445,70,70,69.402,70,68.688V1.299
	C70,0.546,69.302,0,68.381,0H0.659C0.318,0,0,0.341,0,0.628z M68.006,49.5c-0.027,0.283-0.279,0.527-0.502,0.678
	c-0.145,0.1-0.292,0.191-0.439,0.285c-0.146,0.094-0.31,0.184-0.418,0.324c-0.219,0.275-0.322,0.787-0.207,1.121
	c0.076,0.217,0.264,0.363,0.447,0.486c0.068,0.045,0.135,0.09,0.2,0.141c0.085,0.066,0.183,0.115,0.261,0.188
	c0.248,0.234,0.506,0.479,0.446,0.854c-0.089,0.575-0.655,0.813-1.052,1.155c-0.109,0.095-0.208,0.201-0.285,0.324
	c-0.075,0.12-0.124,0.258-0.128,0.399c-0.021,0.765,1.062,1.133,1.438,1.658c0.473,0.657-0.304,1.206-0.849,1.487
	c-0.478,0.246-0.885,0.705-0.536,1.244c0.229,0.354,0.697,0.709,1.09,0.858c0.198,0.075,0.321,0.127,0.416,0.342
	c0.073,0.17,0.104,0.382,0.061,0.563c-0.061,0.244-0.18,0.384-0.373,0.535c-0.082,0.063-0.169,0.114-0.254,0.176
	c-0.102,0.072-0.182,0.171-0.289,0.224c-0.086,0.043-0.17,0.07-0.252,0.127c-0.149,0.104-0.325,0.252-0.398,0.427
	c-0.105,0.252-0.037,0.457,0.096,0.685c0.156,0.271,0.367,0.481,0.604,0.68c0.11,0.097,0.245,0.218,0.335,0.343
	c0.094,0.129,0.127,0.307,0.177,0.454c0.105,0.313,0.06,0.773-0.022,1.087c-0.092,0.36-0.35,0.68-0.643,0.905
	c-0.506,0.392-1.27,0.582-1.867,0.271c-0.463-0.239-0.553,0.271-0.971,0.306c-0.087,0.006-0.168-0.011-0.242-0.039
	c-0.188-0.078-0.344-0.25-0.477-0.397c-0.469-0.517-1.154-0.82-1.475-0.195c-1.037,2.025-1.459-1.475-2.719-0.698
	c-0.218,0.133-0.361,0.351-0.476,0.569c-0.281,0.545-0.83,1.317-1.488,0.847c-0.526-0.377-0.896-1.457-1.657-1.438
	c-0.145,0.004-0.281,0.053-0.4,0.129c-0.122,0.076-0.229,0.176-0.324,0.285c-0.343,0.396-0.58,0.963-1.156,1.051
	c-0.376,0.061-0.617-0.197-0.853-0.445c-0.073-0.076-0.122-0.178-0.188-0.262c-0.051-0.063-0.096-0.131-0.141-0.197
	c-0.066-0.104-0.146-0.211-0.234-0.295c-0.086-0.082-0.167-0.172-0.281-0.207c-0.09-0.029-0.225-0.027-0.313-0.006
	c-0.237,0.063-0.472,0.156-0.623,0.363c-0.172,0.234-0.321,0.496-0.485,0.738c-0.152,0.221-0.396,0.473-0.679,0.5
	c-0.114,0.012-0.265-0.027-0.358-0.08c-0.185-0.104-0.25-0.295-0.346-0.467c-0.096-0.178-0.199-0.35-0.316-0.514
	c-0.153-0.217-0.338-0.436-0.57-0.568c-0.307-0.178-0.63-0.119-0.88,0.121c-0.136,0.127-0.229,0.281-0.315,0.445
	c-0.279,0.545-0.83,1.316-1.486,0.846c-0.525-0.377-0.896-1.457-1.658-1.438c-0.863,0.021-0.857,1.154-1.522,1.484
	c-0.301,0.146-0.749,0.125-1.009-0.107c-0.449-0.402-0.768-1.537-1.551-1.293c-0.274,0.086-0.531,0.236-0.701,0.475
	c-0.316,0.441-0.831,1.293-1.482,0.83c-0.283-0.201-0.442-0.529-0.643-0.805c-0.148-0.207-0.325-0.414-0.547-0.551
	c-0.307-0.186-0.637-0.137-0.895,0.105c-0.137,0.129-0.235,0.283-0.321,0.449c-0.281,0.545-0.83,1.318-1.488,0.848
	c-0.526-0.377-0.895-1.457-1.658-1.438c-0.98,0.026-0.946,1.646-1.942,1.575c-0.25-0.019-0.454-0.17-0.624-0.348
	c-0.055-0.058-0.099-0.132-0.157-0.187c-0.045-0.043-0.086-0.072-0.122-0.127c-0.07-0.111-0.136-0.229-0.204-0.343
	c-0.124-0.211-0.315-0.437-0.536-0.545c-0.122-0.062-0.258-0.101-0.392-0.049c-0.121,0.049-0.226,0.159-0.317,0.248
	c-0.221,0.213-0.37,0.479-0.548,0.721c-0.101,0.138-0.222,0.256-0.345,0.373c-0.1,0.099-0.251,0.224-0.388,0.252
	c-0.124,0.024-0.308,0.015-0.42-0.039c-0.263-0.127-0.381-0.396-0.526-0.633c-0.163-0.267-0.338-0.526-0.565-0.744
	c-0.533-0.508-1.102-0.11-1.383,0.435c-0.281,0.545-0.83,1.317-1.488,0.847c-0.526-0.377-0.895-1.457-1.659-1.438
	c-0.47,0.014-0.715,0.405-0.949,0.758c-0.233,0.349-0.482,0.658-0.878,0.808c-0.258,0.098-0.524-0.017-0.69-0.22
	c-0.089-0.108-0.195-0.209-0.286-0.315c-0.052-0.062-0.091-0.14-0.141-0.205c-0.048-0.063-0.102-0.11-0.149-0.172
	c-0.245-0.322-0.784-0.959-1.226-0.563c-0.189,0.168-0.363,0.401-0.475,0.627c-0.055,0.108-0.093,0.228-0.172,0.326
	c-0.075,0.096-0.146,0.188-0.218,0.284c-0.166,0.222-0.43,0.281-0.687,0.281c-0.125,0.002-0.257-0.047-0.36-0.113
	c-0.073-0.047-0.137-0.1-0.201-0.155c-0.169-0.151-0.267-0.408-0.39-0.599c-0.134-0.207-0.281-0.407-0.46-0.58
	c-0.534-0.51-1.103-0.114-1.385,0.433c-0.281,0.545-0.83,1.582-1.488,1.108C9.827,67.799,9.458,67,8.694,67c-0.007,0-0.013,0-0.02,0
	c-0.223,0-0.42-0.131-0.578,0.021c-0.173,0.164-0.308,0.232-0.427,0.439c-0.05,0.088-0.097,0.111-0.143,0.201
	c-0.092,0.186-0.178,0.314-0.386,0.384c-0.177,0.058-0.376,0.021-0.559,0.011C6.39,68.042,6.165,68,6.058,67.816
	c-0.046-0.08-0.07-0.168-0.107-0.25c-0.057-0.125-0.129-0.256-0.232-0.353c-0.307-0.28-0.555,0.177-0.813,0.312
	c-0.598,0.309-1.362,0.117-1.867-0.273c-0.292-0.227-0.55-0.545-0.643-0.906c-0.081-0.313-0.129-0.771-0.023-1.086
	c0.05-0.148,0.083-0.326,0.176-0.455c0.09-0.125,0.223-0.246,0.335-0.342c0.235-0.197,0.446-0.408,0.604-0.68
	c0.132-0.227,0.2-0.432,0.094-0.684c-0.072-0.176-0.248-0.32-0.398-0.428c-0.082-0.057-0.165-0.084-0.251-0.127
	c-0.108-0.053-0.188-0.148-0.289-0.223c-0.085-0.063-0.172-0.113-0.254-0.178c-0.194-0.15-0.312-0.291-0.373-0.535
	c-0.045-0.184-0.014-0.395,0.06-0.563c0.094-0.215,0.217-0.266,0.416-0.342c0.391-0.148,0.858-0.504,1.088-0.857
	c0.349-0.539-0.06-0.998-0.536-1.244c-0.544-0.281-1.319-0.83-0.847-1.488c0.377-0.525,1.458-0.895,1.438-1.658
	c-0.004-0.143-0.052-0.279-0.127-0.4c-0.077-0.123-0.176-0.229-0.285-0.324c-0.396-0.344-0.962-0.58-1.052-1.154
	c-0.058-0.377,0.2-0.619,0.447-0.854c0.078-0.072,0.175-0.121,0.26-0.188c0.064-0.052,0.131-0.097,0.2-0.142
	c0.103-0.067,0.209-0.147,0.294-0.233c0.083-0.086,0.17-0.168,0.208-0.283c0.029-0.09,0.027-0.224,0.004-0.313
	c-0.061-0.235-0.156-0.472-0.364-0.623c-0.234-0.172-0.496-0.319-0.737-0.485c-0.222-0.149-0.474-0.396-0.501-0.679
	c-0.011-0.112,0.028-0.264,0.082-0.358c0.104-0.185,0.293-0.25,0.466-0.344c0.176-0.097,0.349-0.199,0.512-0.316
	c0.217-0.155,0.435-0.338,0.57-0.571c0.177-0.308,0.118-0.631-0.122-0.881c-0.128-0.134-0.282-0.229-0.445-0.313
	c-0.546-0.283-1.32-0.832-0.848-1.49c0.377-0.524,1.458-0.896,1.438-1.657c-0.023-0.863-1.156-0.857-1.486-1.523
	C2,42.018,2.026,41.57,2.259,41.311c0.403-0.449,1.537-0.768,1.293-1.551c-0.086-0.275-0.237-0.531-0.475-0.701
	c-0.44-0.314-1.293-0.832-0.83-1.482c0.201-0.283,0.529-0.443,0.804-0.643c0.208-0.148,0.415-0.324,0.549-0.547
	c0.186-0.307,0.137-0.637-0.106-0.894c-0.129-0.136-0.285-0.234-0.45-0.32c-0.544-0.281-1.319-0.83-0.847-1.488
	c0.377-0.526,1.458-0.895,1.438-1.658c-0.026-0.98-1.646-0.946-1.576-1.942c0.018-0.25,0.171-0.454,0.348-0.624
	c0.058-0.055,0.131-0.099,0.186-0.156c0.043-0.045,0.072-0.087,0.128-0.122c0.11-0.07,0.227-0.136,0.341-0.204
	c0.271-0.16,0.586-0.422,0.582-0.769c-0.008-0.509-0.535-0.996-0.872-1.324c-0.091-0.089-0.176-0.188-0.237-0.3
	c-0.132-0.241-0.098-0.506,0.062-0.728c0.377-0.526,1.458-0.895,1.438-1.659c-0.023-0.863-1.156-0.858-1.486-1.523
	c-0.149-0.3-0.124-0.748,0.109-1.008c0.403-0.449,1.537-0.767,1.293-1.551c-0.086-0.275-0.237-0.532-0.475-0.702
	c-0.44-0.316-1.293-0.831-0.83-1.483c0.201-0.283,0.529-0.444,0.805-0.642C3.659,17.14,3.865,16.965,4,16.743
	c0.186-0.307,0.137-0.637-0.106-0.894c-0.129-0.136-0.285-0.234-0.45-0.32c-0.544-0.281-1.319-0.83-0.847-1.488
	c0.377-0.526,1.458-0.895,1.438-1.658c-0.026-0.98-1.646-0.946-1.576-1.942c0.018-0.25,0.171-0.454,0.348-0.624
	c0.058-0.055,0.13-0.099,0.186-0.156c0.043-0.044,0.071-0.085,0.127-0.12c0.11-0.07,0.227-0.136,0.341-0.204
	c0.586-0.348,0.756-1.103,0.27-1.612C3.566,7.552,3.365,7.416,3.158,7.298C3.071,7.248,2.982,7.2,2.892,7.155
	c-0.354-0.178-0.563-0.589-0.43-0.972c0.136-0.389,0.553-0.55,0.814-0.835C3.558,5.041,3.1,4.793,2.966,4.535
	c-0.311-0.598-0.12-1.362,0.271-1.867c0.227-0.293,0.546-0.55,0.907-0.643c0.313-0.081,0.773-0.129,1.085-0.023
	c0.149,0.05,0.328,0.083,0.457,0.176C5.811,2.268,5.932,2.4,6.027,2.513c0.197,0.235,0.409,0.446,0.68,0.603
	c0.227,0.132,0.432,0.2,0.684,0.095c0.173-0.073,0.321-0.249,0.426-0.398c0.058-0.082,0.084-0.166,0.127-0.251
	c0.053-0.108,0.15-0.189,0.222-0.289C8.227,2.187,8.279,2.1,8.343,2.018c0.151-0.195,0.29-0.313,0.535-0.374
	C9.061,1.599,9.271,1.63,9.441,1.705c0.214,0.093,0.265,0.216,0.342,0.416c0.15,0.391,0.503,0.857,0.858,1.088
	c0.539,0.349,0.999-0.06,1.245-0.536c0.211-0.408,0.573-0.946,1.018-0.99l0.007,0.002c1.074-0.07,1.037,1.55,2.094,1.576
	c0.824,0.021,1.222-1.06,1.79-1.438c0.71-0.473,1.302,0.302,1.605,0.847c0.092,0.165,0.198,0.321,0.345,0.45
	c0.277,0.243,0.633,0.292,0.964,0.105c0.239-0.134,0.428-0.34,0.589-0.549c0.214-0.275,0.387-0.603,0.692-0.804
	c0.704-0.463,1.259,0.39,1.6,0.83c0.184,0.237,0.46,0.389,0.757,0.475c0.845,0.244,1.188-0.89,1.673-1.293
	c0.28-0.233,0.763-0.259,1.087-0.109c0.717,0.33,0.711,1.463,1.643,1.486c0.824,0.021,1.222-1.06,1.789-1.438
	c0.71-0.473,1.302,0.302,1.606,0.847c0.091,0.163,0.195,0.317,0.339,0.445c0.27,0.24,0.62,0.298,0.95,0.122
	c0.253-0.136,0.45-0.353,0.617-0.57c0.126-0.164,0.238-0.336,0.341-0.512c0.102-0.174,0.173-0.363,0.372-0.467
	c0.103-0.054,0.264-0.093,0.388-0.082c0.305,0.028,0.567,0.28,0.731,0.502c0.178,0.241,0.339,0.502,0.524,0.736
	c0.165,0.208,0.416,0.304,0.672,0.365c0.099,0.023,0.241,0.025,0.339-0.004c0.124-0.038,0.213-0.125,0.305-0.208
	c0.094-0.085,0.18-0.192,0.254-0.294c0.049-0.068,0.098-0.135,0.15-0.2c0.071-0.085,0.124-0.183,0.204-0.26
	c0.183-0.178,0.394-0.468,0.683-0.436c0.241,0.027,0.438,0.246,0.578,0.425c0.057,0.072,0.11,0.146,0.163,0.22
	c0.06,0.083,0.117,0.167,0.177,0.249c0.17,0.237,0.428,0.389,0.702,0.475c0.783,0.244,1.103-0.89,1.552-1.293
	c0.26-0.233,0.707-0.259,1.008-0.109c0.664,0.33,0.658,1.463,1.521,1.486c0.764,0.02,1.133-1.06,1.659-1.438
	c0.658-0.473,1.207,0.302,1.487,0.847c0.084,0.163,0.182,0.317,0.313,0.445c0.25,0.24,0.574,0.298,0.882,0.122
	c0.232-0.136,0.416-0.353,0.57-0.57c0.117-0.164,0.223-0.336,0.314-0.512c0.097-0.174,0.162-0.363,0.347-0.467
	c0.096-0.054,0.245-0.093,0.358-0.082c0.281,0.028,0.525,0.28,0.679,0.502c0.166,0.241,0.313,0.502,0.485,0.736
	c0.151,0.208,0.387,0.304,0.623,0.365c0.092,0.023,0.225,0.025,0.313-0.004c0.114-0.038,0.196-0.125,0.282-0.208
	c0.088-0.085,0.168-0.192,0.234-0.294c0.045-0.068,0.09-0.135,0.141-0.2c0.066-0.085,0.115-0.183,0.188-0.26
	c0.234-0.248,0.478-0.505,0.854-0.447c0.576,0.089,0.813,0.657,1.156,1.052c0.095,0.109,0.201,0.208,0.322,0.285
	c0.121,0.075,0.26,0.124,0.401,0.128c0.764,0.02,1.133-1.06,1.657-1.438c0.658-0.473,1.207,0.302,1.488,0.847
	c0.246,0.477,0.705,0.885,1.244,0.536c0.355-0.23,0.708-0.697,0.858-1.088c0.075-0.2,0.127-0.323,0.342-0.416
	C61.09,1.626,61.3,1.595,61.482,1.64c0.244,0.061,0.384,0.179,0.535,0.374c0.063,0.082,0.114,0.169,0.178,0.254
	c0.07,0.1,0.168,0.181,0.222,0.289c0.042,0.086,0.069,0.17,0.127,0.251c0.104,0.15,0.252,0.326,0.427,0.398
	c0.252,0.105,0.455,0.038,0.684-0.094c0.271-0.158,0.482-0.368,0.681-0.604c0.097-0.113,0.217-0.245,0.341-0.335
	c0.131-0.093,0.309-0.126,0.457-0.177c0.313-0.105,0.771-0.058,1.085,0.023c0.36,0.093,0.681,0.35,0.906,0.643
	c0.392,0.504,0.582,1.269,0.271,1.867c-0.135,0.259-0.593,0.507-0.311,0.813c0.096,0.104,0.223,0.175,0.35,0.232
	c0.66,0.298,0.688,1.247,0.035,1.575c-0.09,0.045-0.18,0.092-0.267,0.143c-0.206,0.118-0.584,0.254-0.749,0.426
	C66.309,7.88,66,8.077,66,8.3c0,0.006,0,0.013,0,0.02c0,0.764,1.234,1.133,1.611,1.659c0.474,0.658-0.213,1.207-0.758,1.488
	c-0.547,0.282-0.897,0.852-0.388,1.385c0.173,0.179,0.396,0.326,0.603,0.46c0.188,0.123,0.457,0.221,0.607,0.39
	c0.059,0.064,0.114,0.127,0.162,0.201c0.064,0.103,0.117,0.236,0.116,0.36c-0.002,0.257-0.062,0.521-0.281,0.687
	c-0.097,0.072-0.188,0.144-0.282,0.219c-0.102,0.079-0.218,0.117-0.326,0.172c-0.226,0.112-0.459,0.286-0.627,0.475
	c-0.395,0.442,0.242,0.98,0.563,1.226c0.063,0.047,0.107,0.102,0.173,0.149c0.065,0.05,0.146,0.088,0.205,0.141
	c0.104,0.091,0.206,0.196,0.313,0.286c0.203,0.166,0.318,0.432,0.222,0.69c-0.147,0.396-0.459,0.645-0.81,0.877
	c-0.351,0.234-0.744,0.479-0.756,0.95c-0.021,0.764,1.062,1.133,1.438,1.658c0.473,0.659-0.304,1.208-0.849,1.489
	c-0.543,0.281-0.939,0.85-0.433,1.383c0.218,0.226,0.479,0.402,0.744,0.564c0.237,0.146,0.506,0.264,0.632,0.527
	c0.055,0.112,0.064,0.296,0.039,0.419c-0.027,0.137-0.154,0.289-0.251,0.389c-0.118,0.123-0.235,0.244-0.372,0.344
	c-0.242,0.179-0.509,0.328-0.722,0.549c-0.089,0.091-0.2,0.196-0.247,0.317c-0.053,0.134-0.014,0.27,0.048,0.392
	c0.108,0.222,0.334,0.412,0.544,0.537c0.114,0.067,0.23,0.134,0.342,0.204c0.057,0.036,0.084,0.077,0.129,0.122
	c0.055,0.058,0.127,0.101,0.187,0.156c0.177,0.17,0.331,0.374,0.349,0.624c0.069,0.996-1.551,0.961-1.574,1.941
	c-0.021,0.764,1.06,1.133,1.437,1.659c0.474,0.658-0.302,1.207-0.847,1.488c-0.166,0.085-0.32,0.184-0.449,0.32
	c-0.243,0.256-0.292,0.586-0.105,0.895c0.135,0.223,0.34,0.396,0.549,0.548c0.274,0.196,0.604,0.356,0.806,0.641
	c0.463,0.652-0.392,1.168-0.83,1.484c-0.237,0.17-0.39,0.426-0.476,0.7c-0.244,0.783,0.892,1.103,1.293,1.552
	c0.232,0.26,0.258,0.708,0.108,1.008c-0.33,0.666-1.463,0.66-1.485,1.522c-0.021,0.765,1.062,1.134,1.438,1.658
	c0.474,0.657-0.304,1.207-0.849,1.487c-0.161,0.084-0.314,0.183-0.443,0.313c-0.239,0.25-0.298,0.574-0.121,0.882
	c0.137,0.233,0.354,0.416,0.568,0.571c0.164,0.117,0.338,0.222,0.514,0.315c0.174,0.095,0.361,0.16,0.467,0.345
	C67.979,49.236,68.018,49.387,68.006,49.5z" changeable="1"/>
</svg>
