<?xml version="1.0" encoding="utf-8"?>
<svg version="1.1" id="Layer_1" xmlns="http://www.w3.org/2000/svg" xmlns:xlink="http://www.w3.org/1999/xlink" x="0px" y="0px"
	 width="66.718px" height="70px" viewBox="0 0 66.718 70" enable-background="new 0 0 66.718 70" xml:space="preserve">
<path style="fill:none" d="M59.724,56.501c-0.126,1.801-1.297,3.075-3.02,3.558c-1.034,0.292-2.966,0.016-3.116-0.364
	c0.336,0.844,1.557,2.303,0.567,3.3c-1.31,1.318-3.788,1.125-5.387,0.929c-0.624-0.073-1.248-0.169-1.868-0.278
	c-1.724-0.305-3.396-0.807-5.086-1.258c-1.9-0.507-3.932-0.858-5.833-0.162c-0.963,0.35-1.697,1.06-2.218,1.929
	c-0.366,0.611-0.637,1.28-0.798,1.976c-0.162-0.695-0.432-1.364-0.797-1.976c-0.522-0.869-1.256-1.579-2.218-1.929
	c-1.903-0.696-3.934-0.345-5.835,0.162c-1.69,0.451-3.362,0.953-5.087,1.258c-0.619,0.109-1.241,0.204-1.866,0.278
	c-1.599,0.195-4.078,0.39-5.387-0.931c-0.988-0.995,0.233-2.458,0.569-3.298c-0.15,0.379-2.083,0.654-3.119,0.364
	c-1.72-0.482-2.893-1.761-3.017-3.56c-0.304-4.391,2.937-7.876,3.823-11.995c0.278-1.29,0.312-2.614-0.011-3.902
	c-0.354-1.414-1.429-2.911-2.581-3.805c-1.588-1.23-3.723-1.852-5.677-2.188c1.954-0.341,4.089-0.972,5.677-2.204
	c1.152-0.893,2.227-2.402,2.581-3.817c0.322-1.287,0.288-2.613,0.011-3.902c-0.886-4.12-4.127-7.606-3.823-11.996
	c0.125-1.799,1.297-3.076,3.017-3.56c1.034-0.29,2.968-0.014,3.119,0.366c-0.336-0.842-1.558-2.304-0.569-3.301
	c1.309-1.319,3.79-1.125,5.387-0.931c0.625,0.076,1.247,0.169,1.866,0.279c1.726,0.305,3.397,0.804,5.087,1.256
	c1.901,0.507,3.931,0.859,5.835,0.164c0.962-0.351,1.696-1.061,2.218-1.93c0.366-0.61,0.636-1.28,0.797-1.975
	c0.162,0.694,0.432,1.364,0.798,1.975c0.521,0.869,1.255,1.578,2.218,1.93c1.901,0.696,3.933,0.343,5.833-0.164
	c1.69-0.452,3.362-0.951,5.086-1.256c0.62-0.11,1.242-0.204,1.868-0.279c1.599-0.194,4.076-0.388,5.387,0.931
	c0.989,0.997-0.231,2.458-0.567,3.301c0.15-0.38,2.082-0.656,3.116-0.366c1.723,0.484,2.894,1.761,3.02,3.56
	c0.303,4.39-2.938,7.875-3.824,11.996c-0.277,1.289-0.312,2.615,0.012,3.902c0.353,1.416,1.43,2.925,2.578,3.817
	c1.59,1.232,3.725,1.863,5.679,2.204c-1.954,0.337-4.089,0.958-5.679,2.188c-1.148,0.894-2.226,2.396-2.578,3.812
	c-0.323,1.288-0.287,2.609-0.012,3.899C56.786,48.626,60.027,52.11,59.724,56.501z" isFrame="true" changeable="0"/>
<path opacity="0.2" style="fill:#000000" d="M5.665,33.826c0.913-0.34,1.782-0.78,2.526-1.358
	c1.118-0.867,2.161-2.332,2.505-3.706c0.313-1.249,0.279-2.536,0.01-3.787c-0.86-3.999-4.006-7.382-3.711-11.643
	c0.121-1.746,1.259-2.986,2.929-3.455c1.004-0.282,2.88-0.014,3.027,0.355c-0.326-0.818-1.512-2.237-0.552-3.204
	c1.271-1.28,3.678-1.092,5.229-0.904c0.607,0.074,1.21,0.164,1.811,0.271c1.675,0.296,3.297,0.781,4.938,1.219
	c1.845,0.492,3.815,0.834,5.663,0.159c0.934-0.341,1.646-1.03,2.153-1.873c0.271-0.452,0.487-0.938,0.645-1.443
	c-2.05,4.849-6.149,3.135-6.149,3.135c-12.688-5.103-15.24,0-15.24,0c-2.296-1.206-3.144-1.27-3.417-0.943
	C7.593,7.177,9.55,9.557,9.55,9.557s-6.868,2.093-1.373,12.82C8.177,22.376,14.215,29.702,5.665,33.826z M66.718,35.425
	c-15.373-3.368-7.393-13.049-7.393-13.049c5.494-10.727-1.373-12.82-1.373-12.82s1.957-2.379,1.519-2.905
	c-0.271-0.326-1.121-0.263-3.415,0.943c0,0-2.551-5.103-15.24,0c0,0-5.839,2.441-7.064-6.744c-0.173,1.292-0.437,2.355-0.762,3.226
	c0.159,0.641,0.411,1.261,0.751,1.826c0.506,0.843,1.219,1.531,2.153,1.873c1.846,0.675,3.816,0.333,5.662-0.159
	c1.641-0.438,3.264-0.923,4.938-1.219c0.602-0.107,1.205-0.198,1.812-0.271c1.552-0.188,3.957-0.376,5.229,0.904
	c0.961,0.967-0.226,2.385-0.552,3.204c0.146-0.369,2.021-0.637,3.026-0.355c1.671,0.469,2.808,1.709,2.93,3.455
	c0.294,4.261-2.852,7.644-3.712,11.643c-0.269,1.251-0.302,2.538,0.011,3.787c0.344,1.374,1.387,2.839,2.504,3.706
	c1.543,1.196,3.614,1.808,5.51,2.139c-1.896,0.327-3.967,0.93-5.51,2.125c-1.117,0.867-2.16,2.324-2.504,3.699
	c-0.313,1.248-0.279,2.531-0.011,3.784c0.86,3.997,4.006,7.38,3.712,11.64c-0.122,1.748-1.259,2.985-2.93,3.453
	c-1.006,0.285-2.881,0.016-3.026-0.353c0.326,0.817,1.513,2.235,0.552,3.202c-1.271,1.279-3.678,1.092-5.229,0.902
	c-0.606-0.071-1.21-0.164-1.812-0.271c-1.674-0.296-3.297-0.783-4.938-1.22c-1.846-0.493-3.816-0.836-5.662-0.159
	c-0.936,0.34-1.646,1.03-2.153,1.872c-0.355,0.594-0.618,1.244-0.774,1.918c-0.157-0.674-0.419-1.324-0.774-1.918
	c-0.507-0.842-1.219-1.532-2.153-1.872c-1.847-0.677-3.818-0.334-5.663,0.159c-1.641,0.437-3.263,0.924-4.938,1.22
	c-0.601,0.104-1.204,0.198-1.811,0.271c-1.552,0.188-3.958,0.377-5.229-0.904c-0.959-0.965,0.226-2.385,0.552-3.2
	c-0.146,0.367-2.022,0.635-3.027,0.353c-1.67-0.468-2.808-1.709-2.929-3.455c-0.295-4.26,2.851-7.644,3.711-11.642
	c0.27-1.252,0.303-2.538-0.01-3.788c-0.344-1.371-1.387-2.824-2.505-3.691c-1.359-1.055-3.131-1.647-4.83-1.998
	c-0.776,0.251-1.632,0.481-2.577,0.689c15.371,3.368,7.392,13.049,7.392,13.049C2.682,59.202,9.55,61.294,9.55,61.294
	s-1.957,2.377-1.519,2.904c0.273,0.325,1.121,0.265,3.417-0.943c0,0,2.551,5.104,15.24,0c0,0,5.84-2.44,7.064,6.745
	c1.226-9.188,7.064-6.745,7.064-6.745c12.689,5.104,15.24,0,15.24,0c2.294,1.208,3.145,1.271,3.415,0.943
	c0.438-0.527-1.519-2.904-1.519-2.904s6.867-2.093,1.373-12.819C59.326,48.475,51.345,38.793,66.718,35.425z" changeable="0"/>
<path style="fill:#FFFFFF" d="M65.932,34.575c-15.369-3.369-7.392-13.049-7.392-13.049c5.494-10.727-1.373-12.82-1.373-12.82
	s1.957-2.378,1.519-2.905c-0.272-0.326-1.121-0.263-3.416,0.943c0,0-2.55-5.103-15.239,0c0,0-5.84,2.441-7.064-6.744
	c-1.224,9.185-7.064,6.744-7.064,6.744c-12.689-5.103-15.24,0-15.24,0c-2.295-1.207-3.144-1.27-3.417-0.943
	C6.808,6.328,8.765,8.706,8.765,8.706s-6.867,2.093-1.373,12.82c0,0,7.979,9.681-7.392,13.049c15.371,3.368,7.392,13.05,7.392,13.05
	C1.898,58.352,8.765,60.443,8.765,60.443s-1.957,2.38-1.519,2.906c0.272,0.325,1.122,0.262,3.417-0.943c0,0,2.551,5.102,15.24,0
	c0,0,5.84-2.44,7.064,6.742c1.224-9.184,7.064-6.742,7.064-6.742c12.689,5.102,15.239,0,15.239,0
	c2.295,1.205,3.144,1.27,3.416,0.943c0.438-0.526-1.519-2.906-1.519-2.906s6.867-2.092,1.373-12.818
	C58.541,47.625,50.563,37.943,65.932,34.575z M58.938,55.857c-0.122,1.748-1.259,2.984-2.931,3.453
	c-1.004,0.283-2.879,0.015-3.025-0.354c0.326,0.818,1.512,2.234,0.551,3.202c-1.271,1.28-3.677,1.092-5.229,0.901
	c-0.605-0.07-1.211-0.164-1.813-0.27c-1.673-0.296-3.296-0.783-4.937-1.221c-1.845-0.492-3.816-0.834-5.662-0.158
	c-0.935,0.34-1.647,1.029-2.153,1.872c-0.355,0.594-0.618,1.243-0.774,1.918c-0.157-0.675-0.419-1.324-0.774-1.918
	c-0.507-0.843-1.219-1.532-2.153-1.872c-1.847-0.676-3.818-0.334-5.663,0.158c-1.641,0.438-3.263,0.925-4.938,1.221
	c-0.601,0.105-1.204,0.198-1.811,0.27c-1.552,0.189-3.958,0.379-5.229-0.903c-0.959-0.966,0.226-2.386,0.552-3.2
	c-0.146,0.367-2.022,0.635-3.027,0.354c-1.67-0.469-2.808-1.709-2.929-3.455c-0.295-4.262,2.851-7.645,3.711-11.643
	c0.27-1.252,0.303-2.538-0.01-3.788c-0.344-1.372-1.387-2.825-2.505-3.692c-1.541-1.194-3.614-1.797-5.51-2.125
	c1.896-0.331,3.969-0.943,5.51-2.139c1.118-0.867,2.161-2.332,2.505-3.706c0.313-1.249,0.279-2.536,0.01-3.787
	c-0.86-3.999-4.006-7.382-3.711-11.643c0.121-1.746,1.259-2.986,2.929-3.455c1.004-0.282,2.88-0.014,3.027,0.355
	c-0.326-0.818-1.512-2.237-0.552-3.204c1.271-1.28,3.678-1.092,5.229-0.904c0.607,0.074,1.21,0.164,1.811,0.271
	c1.675,0.296,3.297,0.781,4.938,1.219c1.845,0.492,3.815,0.834,5.663,0.159c0.934-0.341,1.646-1.03,2.153-1.873
	c0.355-0.592,0.617-1.243,0.774-1.917c0.157,0.673,0.419,1.324,0.774,1.917c0.505,0.843,1.218,1.531,2.153,1.873
	c1.846,0.675,3.817,0.333,5.662-0.159c1.641-0.438,3.264-0.923,4.937-1.219c0.602-0.107,1.205-0.198,1.813-0.271
	c1.552-0.188,3.957-0.376,5.229,0.904c0.961,0.967-0.225,2.385-0.551,3.204c0.146-0.369,2.021-0.637,3.025-0.355
	c1.672,0.469,2.809,1.709,2.931,3.455c0.294,4.261-2.853,7.644-3.712,11.643c-0.27,1.251-0.303,2.538,0.011,3.787
	c0.343,1.374,1.388,2.839,2.503,3.706c1.543,1.196,3.615,1.808,5.512,2.139c-1.896,0.327-3.969,0.93-5.512,2.125
	c-1.115,0.867-2.16,2.326-2.503,3.699c-0.313,1.25-0.278,2.532-0.011,3.785C56.085,48.214,59.232,51.596,58.938,55.857z" changeable="1"/>
</svg>
