<?xml version="1.0" encoding="utf-8"?>
<svg version="1.1" id="Layer_1" xmlns="http://www.w3.org/2000/svg" xmlns:xlink="http://www.w3.org/1999/xlink" x="0px" y="0px"
	 width="59.645px" height="70px" viewBox="0 0 59.645 70" enable-background="new 0 0 59.645 70" xml:space="preserve">
<path style="fill:none" d="M5.502,6.196h48.642V54.7H5.502V6.196z" isFrame="true" changeable="0"/>
<path opacity="0.04" style="fill:#000000" d="M0.017,0v70h59.611V0H0.017z M54.144,54.7H5.502V6.196h48.642V54.7z" changeable="0"/>
<path opacity="0.04" style="fill:#000000" d="M0.336,0.375v69.25h58.973V0.375H0.336z M54.144,54.7H5.502V6.196h48.642V54.7z" changeable="0"/>
<path opacity="0.06" style="fill:#000000" d="M0.66,0.755v68.49h58.321V0.755H0.66z M54.144,54.7H5.502V6.196h48.642V54.7z" changeable="0"/>
<path opacity="0.08" style="fill:#000000" d="M1.036,1.197v67.605h57.567V1.197H1.036z M54.144,54.7H5.502V6.196h48.642V54.7
	z" changeable="0"/>
<path opacity="0.1" style="fill:#000000" d="M1.405,1.629V68.37H58.24V1.629H1.405z M54.144,54.7H5.502V6.196h48.642V54.7z" changeable="0"/>
<path style="fill:#FFFFFF" d="M1.818,2.115L1.803,67.871l56.023,0.013l0.015-65.755L1.818,2.115z M54.149,31.784L54.143,54.7L5.49,54.688
	l0.006-22.915L5.501,6.196l48.649,0.012L54.149,31.784z" changeable="1"/>
</svg>
