<?xml version="1.0" encoding="utf-8"?>
<svg version="1.1" id="Layer_1" xmlns="http://www.w3.org/2000/svg" xmlns:xlink="http://www.w3.org/1999/xlink" x="0px" y="0px"
	 width="70px" height="56.635px" viewBox="0 0 70 56.635" enable-background="new 0 0 70 56.635" xml:space="preserve">
<path style="fill:none" d="M2.186,3.317l64.859-0.383l0.298,50.441l-64.86,0.382L2.186,3.317z" isFrame="true" changeable="0"/>
<path style="fill:#FFFFFF" d="M5.939,55.775l-2.544,0.113H3.393l-0.424,0.004l-0.011-0.002l-0.42-0.096H2.375l-0.021,0.002l-0.014-0.018
	l-0.07-0.081L1.697,55.7l-0.676,0.004l-0.013,0.003l-0.057,0.009v-0.067L0.949,55.05l-0.007-1.298l-0.004-0.6l0.001-0.011
	l0.082-0.495l-0.002-0.24L1.016,52.25v-0.023l0.015-0.018l0.155-0.184l-0.003-0.248v-0.019v-0.043l-0.002-0.367l-0.001-0.2
	l0.015-0.041l0.084-0.102l0.047-0.058l0.03,0.072l0.057,0.127l0.021-0.026l-0.001-0.175l-0.006-1.101l0.001-0.006l0.078-1.1v-0.001
	l0.065-0.743l0.013-0.145l-0.17-0.689l-0.021-0.067H1.46h0.03L1.406,46.08l-0.144-0.167H1.218l-0.069,0.083l-0.083,0.1l-0.001-0.141
	l-0.002-0.399l-0.002-0.4l-0.002-0.297l-0.001-0.101v-0.059h0.049h0.085v-0.002h0.084h0.035v-0.041l0,0l-0.059-1.04l-0.037-0.655
	v-0.005l-0.01-1.698l-0.011-1.8v-0.003l0.005-0.129l0.036-0.006l-0.034-0.005l0.002-0.056l0.002-0.051l0,0l0.064-1.456l0.015-0.035
	l0.075-0.091l0.078-0.285l0.082-0.392l-0.003-0.453l0.014-0.041l0.027-0.033l-0.046-0.151l-0.003-0.014l-0.083-1.092V35.16
	l-0.002-0.344l-0.001-0.149l-0.087-0.494l-0.001-0.012l-0.001-0.287l-0.001-0.039l0.032-0.014l0.114-0.05l0.087-0.534l-0.007-0.3
	l-0.029-0.091L1.454,32.94l-0.02,0.016l-0.042,0.021l-0.065,0.026v-0.08L1.325,32.57L1.3,32.422l0.003-0.036l0.004-0.011l0,0
	l0.101-0.254l0.018-0.043l-0.14,0.004l-0.042,0.002l-0.007-0.049l-0.175-1.058l0,0l-0.096-0.547l-0.167-0.95l-0.001-0.005
	l-0.002-0.021l0.002-0.027l0.051-0.172l0.004-0.301l-0.021-0.198l0.096-0.022l0.048,0.219l0.001,0.007l0.09,0.799H1.066l0.083,0.654
	l0.005,0.041l0.073,0.255l-0.002-0.29v-0.055l-0.004-0.796l-0.089-0.795l-0.089-0.796l-0.083-0.39l-0.024-0.052l-0.052,0.25
	l-0.003,0.011l-0.083,0.2H0.796l-0.025,0.063l-0.092-0.019l-0.001-0.003v-0.007l0.005-0.316l0.01-0.034l0.156-0.237L0.88,27.05
	l0.032-0.411l0.01-0.03l0.152-0.231l-0.021-0.198v-0.007l0.001-0.149l0.002-0.167l0.002-0.139l0.082,0.1l0.132,0.16l0.005,0.007
	l0.071,0.086l0.002-0.005l0.017-0.055l0.046,0.02l0.021,0.008l-0.154-0.272l-0.009-0.029l-0.021-0.538V25.19l0.032-0.403
	l-0.047-0.438v-0.006L1.213,22.01l-0.064-0.373l-0.134-0.765l-0.173-0.995l-0.022-0.009l-0.08-0.033l-0.019-0.009l-0.009-0.022
	L0.66,19.678L0.607,19.55l-0.008-0.022l0.007-0.023l0.056-0.188l0.084-0.283l0.05-0.172L0.725,18.53l-0.01-0.046l0.036-0.021
	l0.107-0.062l0.017-0.005l0.18-0.026l0.073-0.042l0.003-0.267L0.99,17.717l-0.017-0.042H0.969l-0.018-0.023l-0.15-0.238l-0.008-0.02
	L0.76,17.243l-0.043-0.197l-0.001-0.021l0.03-0.378l-0.19-0.174l-0.015-0.021l-0.105-0.254l-0.003-0.011l-0.072-0.334l-0.122-0.149
	l-0.022-0.025l0.011-0.034l0.05-0.166l-0.094-0.234L0.164,15.2l0.034-0.027l0.12-0.1l0.031-0.082l-0.012-0.019l0.008-0.029
	l0.054-0.179l0.057-0.189l0,0l0.013-0.043l0.024-0.083l0.057,0.062l0.021,0.024l0.032-0.014l0.032-0.086l-0.069-0.227l-0.002-0.014
	L0.542,14l0.003-0.026l0.056-0.188l0.138-0.465l0.03-0.387l-0.031-0.078l0,0l-0.004-0.013L0.54,12.762l-0.097,0.111L0.428,12.89
	l-0.154,0.235l-0.003,0.028l-0.004,0.035L0.24,13.2l-0.022,0.009l-0.019,0.007l-0.019-0.01l-0.109-0.059L0,13.108l0.061-0.058
	l0.198-0.185l0.014-0.047l0.099-0.388l0.003-0.012l0.002-0.01l0.092-0.564l-0.017-0.62l-0.065-0.502v-0.007l-0.016-0.631
	L0.354,9.458L0.183,8.905L0.18,8.879l0.043-0.451l0.021-0.216l0.034-0.756l0.002-0.01l0.068-0.341l-0.037-0.4V6.7L0.304,6.385V6.356
	l0.02-0.019l0.182-0.171L0.488,6.111L0.485,6.085l0.022-0.222l0.008-0.08l0.062,0.034l0.065,0.036l0.023-0.064L0.657,5.488
	l0.004-0.025l0.097-0.244L0.75,4.936L0.595,4.703L0.553,4.64l0.064-0.028L0.65,4.599L0.596,4.425L0.482,4.473L0.444,4.471
	L0.336,4.412L0.311,4.379L0.282,4.286L0.223,4.099l0.003-0.045l0.015-0.041l0.036-0.087l0.015-0.038l0.035,0.004l0.13,0.018
	l-0.05-0.972l0.002-0.015l0.093-0.571l0.001-0.005l0.121-0.479l0.011-0.023l0.125-0.156l0.093-0.236L0.845,1.151L0.836,0.835
	l0.002-0.019l0.12-0.466l-0.03-0.223l-0.007-0.06l0.051-0.006l0.062-0.006h0.004l0.34-0.002l0.168-0.001l0.17-0.001h0.085H1.92
	L1.837,0.15L1.753,0.249L1.74,0.26L1.571,0.361L1.564,0.364L1.311,0.466L1.295,0.469H1.26v0.006l0.132,0.077l0.159-0.001l0.34-0.001
	l0.243-0.001l0.158-0.097l0.021-0.005l0.151-0.001l0.034-0.043L2.455,0.355L2.212,0.261l0.014-0.113L2.82,0.145l0.011,0.001
	l0.424,0.097L3.26,0.245l0.256,0.098l0.006,0.004l0.169,0.099l0.014,0.011l0.249,0.29L4.19,0.836l0.326-0.001l0.42-0.101l0.01-0.001
	l0.243-0.001L5.32,0.653L5.317,0.501L5.237,0.313L5.231,0.287L5.23,0.189l0.014-0.042l0.084-0.1L5.377-0.01l0.03,0.071l0.076,0.175
	l0.318,0.091l0.003,0.001l0.504,0.195L6.983,0.62l0,0l0.759,0.095l0.761-0.004h0.003L10.201,0.8l1.524-0.108h0.004l1.611,0.09l0,0
	l1.696-0.01l0,0l1.777-0.111h0.008l0.845,0.095l0.846-0.006h0.004l2.034,0.19h0.083l0.01,0.001l0.421,0.096l0.504-0.002l1.102-0.007
	l0.51-0.002l0.009,0.001l0.419,0.097l0.336-0.002l0.033,0.016l0.157,0.182l0.234-0.001l0.339-0.002l0.169-0.001H24.9l0.015,0.017
	L25,1.432l0.049,0.056l-0.061,0.036l-0.109,0.065l0.023,0.026l0.149-0.001l0.933-0.005h0.005l0.934,0.094h0.001l0.754,0.094
	l0.583-0.201l0.063-0.022l0.001,0.077v0.037l0.859-0.098l0.144-0.168V1.369l-0.072-0.082l0.035-0.099l0.339-0.002l0.34-0.002
	l0.252-0.001l0,0h0.085h0.049l0.001,0.057v0.1l0,0l0.001,0.1l0,0v0.042h0.035l0,0l1.439-0.108h0.002l1.442-0.009l1.526-0.008h0.003
	l1.442,0.091l0.03,0.016l0.077,0.09l0.242,0.092l0.332,0.097l0.503-0.003l1.015-0.105h0.004l0.42-0.002l0.418-0.101L39.3,1.528
	l0.677-0.004l0.675-0.003L42,1.214l0,0l1.271-0.307h0.002l0.593-0.103h0.009L44.345,0.8l-0.091-0.052l0.113-0.045l0.251-0.1
	l0.149-0.089l0.028-0.018l0.024,0.024l0.109,0.107l0.378-0.228l0.019-0.006l0.34-0.038l0.032,0.013l0.093,0.091l0.038,0.037
	L45.8,0.544l-0.076,0.108l-0.012,0.012l-0.026,0.019l-0.018,0.008l-0.048,0.01V0.73l-0.022,0.018l-0.023,0.017l0.003,0.028
	l0.137,0.064L45.86,0.84l0.153-0.111l0.038-0.028l0.021-0.006l0,0l0.509-0.104L46.59,0.59l0.244-0.005l0.031,0.014l0.042,0.042l0,0
	l0.178,0.174l0.16,0.072l0.151-0.017l0.236-0.123l0.015-0.004l0.049-0.005l0.052-0.257l-0.016-0.191l-0.008-0.1l0.079-0.049
	l0.093,0.09l0.175,0.172l0.247,0.068l0.428,0.053l0.858,0.108l0.93-0.001l0.846-0.091l0.932-0.101h0.002l0.935-0.001l1.014-0.111
	h0.009l0.942,0.097l0,0l1.109,0.079l0.082-0.008l0.011,0.001l0.514,0.142l0.584-0.063h0.009l0.51,0.044l0.165-0.018l0.03-0.003
	l0.016,0.031l0.085,0.16l0.138-0.016l0.169-0.019l0.021-0.002l0.016,0.016l0.094,0.091l0.019,0.039l0.009,0.1l0.007,0.076
	l0.065,0.063l0.498,0.043l0.511,0.045l0.412-0.045l0.324-0.134l0.06-0.024l0.006,0.074l0.005,0.042l0.428-0.046l0.054-0.162
	l-0.02-0.185l-0.004-0.058l0.049-0.005l0.084-0.008l0.085-0.009l0.167-0.018l0.085-0.01l0.022,0.003l0.176,0.081l0.027,0.013
	l0.004,0.036l0.007,0.1l0.006,0.045l1.652-0.081h0.006l1.637,0.225l0.039,0.005l0.003,0.046l0.007,0.064l0.146,0.068l0.434,0.151
	l0.5,0.04l0.502-0.054h0.015l0.344,0.062l0,0l0.425,0.053l0.754-0.083l0.677-0.073h0.006l0.229,0.013l0.071,0.005l-0.028,0.078
	l-0.045,0.112l0.022,0.078l-0.076-0.007L68.83,1.571l-0.322,0.035l-0.069,0.049l0.081,0.036l0.632,0.08l0.098,0.012l-0.067,0.084
	l-0.041,0.052l-0.07,0.336l-0.003,0.011l-0.102,0.256l-0.015,0.021l-0.188,0.177l0.033,0.378l-0.002,0.02l-0.068,0.35l-0.009,0.021
	l-0.178,0.285L68.47,3.947l-0.073,0.194l0.006,0.266l0.072,0.041l0.181,0.024l0.017,0.004l0.109,0.061l0.037,0.02l-0.011,0.046
	L68.74,4.938l0.053,0.171l0,0l0.088,0.281H68.88l0.061,0.188l-0.003,0.043L68.887,5.75l-0.051,0.128l-0.026,0.03l-0.078,0.034
	L68.709,5.95l-0.161,0.998l-0.188,1.14l0.004,0.233l0.004,2.101v0.006l-0.042,0.438l0.034,0.402v0.008l-0.013,0.538l-0.009,0.029
	l-0.15,0.274l0.022-0.009l0.045-0.02l0.018,0.054l0.003,0.006l0.073-0.094l0.131-0.162l0.08-0.101l0.005,0.139l0.007,0.317v0.007
	l-0.019,0.199l0.154,0.228l0,0l0,0l0,0l0,0l0,0l0.01,0.03l0.039,0.41l0.034,0.393l0.158,0.234l0.013,0.036l0.008,0.315v0.008
	l-0.022,0.222l-0.004,0.019l-0.099,0.248l-0.021,0.213l-0.021,0.219l0.007,0.302l0.289,0.929l0.048,0.156l0.017,0.049l-0.041,0.02
	l-0.05,0.028l-0.004,0.273l0.069,0.315l0.006,0.022l0.137,0.338l0.016,0.036l-0.024,0.029l-0.101,0.125l0.107,0.338l0.015,0.049
	l-0.04,0.023l-0.02,0.011l-0.046,0.152l0.022,0.208l-0.092,0.032l-0.097-0.234l-0.05-0.021l-0.178,0.025h-0.006l-0.269-0.006
	l-0.188-0.004l0.018,0.044l0.104,0.254l0.044,0.106l0.015,0.005l0.036-0.121l-0.023-0.208l0.083-0.047l0.133,0.16l0.012,0.025
	l0.075,0.35l-0.001,0.033l-0.058,0.188l-0.011,0.023l-0.137,0.155l-0.023,0.025l-0.026-0.012l-0.16-0.067l0,0l-0.079-0.033
	l-0.02-0.016l-0.077-0.093l-0.025,0.091l-0.005,0.299l0.093,0.534l0.088,0.036l0.013-0.041l0.054-0.179l0.005-0.308l0.002-0.019
	l0.057-0.188l0.094,0.005l0.076,0.349l0.001,0.021l-0.062,0.505l-0.06,0.492l0.124,0.464l0.002,0.019l-0.004,0.316l-0.004,0.118
	l-0.003,0.19l0.097,0.235l0.126,0.154l0.011,0.022l0.129,0.477v0.006l0.101,0.571l0.001,0.014l-0.037,0.974l0.129-0.02l0.035-0.005
	l0.016,0.037l0.053,0.129l0.009,0.021l-0.007,0.024l-0.057,0.188l-0.028,0.094l-0.022,0.033l-0.11,0.06l-0.036,0.003l-0.113-0.048
	l-0.052,0.174l0.034,0.014l0.064,0.026l-0.041,0.065l-0.155,0.234l-0.004,0.283l0.099,0.242l0.005,0.025l-0.002,0.176v0.01l0,0
	l-0.002,0.116l0.023,0.064l0.066-0.036l0.062-0.034l0.009,0.08l0.023,0.221l-0.003,0.025l-0.019,0.057l0.185,0.167l0.021,0.02
	l-0.001,0.026l-0.003,0.316l-0.002,0.004l-0.03,0.4l0.073,0.343l0.001,0.009l0.044,0.754l0.07,0.665l-0.003,0.024l-0.163,0.559
	l-0.008,0.4l-0.094,0.019l-0.048-0.16l-0.063-0.073l-0.149,0.003h-0.021l-0.016-0.019l-0.084-0.099l-0.001-0.002l0.002,0.354
	l0.037,0.166l0.049,0.224l0.086,0.298v0.034l-0.08,0.292l0.003,0.391l0.089,0.992v0.005l0.003,0.5v0.015l-0.004,0.024l-0.017,0.041
	l0.022,0.248v0.006v0.078l0.003,0.04l-0.034,0.017l-0.016,0.007l-0.021,0.054l0.042,0.022l0.026,0.016v0.036l0.003,0.197
	l-0.017,0.041l-0.065,0.076l0.002,0.005l-0.015,0.011l-0.008,0.01l-0.002-0.003l-0.058,0.04l-0.091-0.101l-0.193,0.081l-0.033,0.093
	l0.036,0.388l0.067,0.216l0.076,0.248l0.059,0.188l0.002,0.024l-0.02,0.208l0.112,0.362l0.059,0.188h0.002l0.052,0.165l0.07,0.038
	l0.015-0.004l0.071-0.031l-0.007,0.089l-0.018,0.271l0,0l-0.024,0.335l-0.001,0.024l-0.017,0.016l-0.019,0.016l0.019,0.182v0.012
	l-0.028,0.434l-0.001,0.009l-0.022,0.114l-0.009,0.021l-0.178,0.286l-0.009,0.017l-0.011,0.028l0,0l-0.023,0.058l-0.104,0.264
	l0.006,0.267l0.074,0.041l0.181,0.024l0.016,0.004l0.051,0.028l0.028,0.015v0.036v0.067l0,0l0.002,0.241v0.015L69,39.041
	l0.013,0.035l0.003,0.021v0.007l0.001,0.324l0,0l0.003,0.376l0.07,0.082l0.008,0.009l0.024,0.027l-0.018,0.037l-0.008,0.022
	l-0.028,0.029l-0.079,0.034l-0.022,0.01l-0.159,0.997l-0.144,0.876l-0.011,0.056l-0.032,0.209l0.002,1.308l0.002,1.025v0.006
	l-0.04,0.438l0.036,0.402v0.009l-0.016,0.537l-0.008,0.028l-0.152,0.273l0.022-0.011l0.046-0.021l0.02,0.056l0.002,0.007
	l0.073-0.095l0.13-0.161l0.082-0.101l0.003,0.139l0.008,0.316v0.008l-0.021,0.2l0.157,0.229l0.01,0.028l0.037,0.41l0.035,0.391
	l0.159,0.235l0.013,0.034v0.009l0,0l0.006,0.306v0.009l-0.022,0.221l-0.004,0.02l-0.098,0.249l-0.01,0.11l-0.005,0.028l-0.007,0.073
	l-0.021,0.218l0.008,0.302l0.148,0.476l0.003,0.023l-0.052,0.991l0,0l-0.023,1.374l-0.041,2.31L69.1,54.794l-0.019,0.924
	l-0.002,0.07l-0.059-0.019l-0.171-0.048l-0.009-0.004l-0.218-0.119l-0.019-0.017l-0.15-0.223l-0.03,0.004l-0.25,0.03l-0.039,0.005
	l-0.018-0.001l-0.297-0.085l-0.013-0.005l-0.242-0.21l-0.313-0.171l-0.228,0.007l-0.033,0.088l-0.021,0.212l-0.006,0.02
	l-0.051,0.126l-0.018,0.045l-0.038-0.013l-0.286-0.081l-0.143,0.062v0.004l-0.24,0.103v-0.001l-0.161,0.068l-0.036-0.002
	l-0.109-0.061l-0.11-0.06l-0.024-0.033l-0.025-0.093l-0.008-0.026l-0.847-0.192l-0.968-0.221l-1.867,0.002h-0.113h-0.005
	l-0.355-0.049l0,0l-0.018-0.002l-0.344,0.042h-0.006l-0.389-0.015l-0.068-0.002l-0.023-0.011l-0.039-0.029l-0.196-0.148l0.01,0.025
	l0.018,0.054l-0.046,0.021l-0.006,0.002l0.079,0.089l0.14,0.154l-0.032,0.101l-0.269,0.01h-0.008l-0.167-0.023l-0.193,0.181
	l-0.026,0.013l-0.346,0.043l-0.334,0.043l-0.199,0.187l-0.03,0.011l-0.268,0.01h-0.006l-0.188-0.025l-0.016-0.006l-0.211-0.114
	L58.2,55.414l-0.187-0.024l-0.257,0.01l-0.788,0.339l-0.132,0.059l-0.041,0.018l-0.021-0.047l-0.022-0.059l-0.231-0.007
	l-0.284,0.086l-0.288,0.159l-0.029,0.019l-0.024-0.025l-0.106-0.119L55.5,55.944l-0.04,0.019l-0.021-0.048l-0.012-0.022L55.3,55.84
	l-0.177,0.023l-0.025-0.111l0.197-0.111l0.018-0.06l-0.006-0.065L55.29,55.37v-0.008l0.005-0.316l0.003-0.224l-0.037,0.021
	l-0.143,0.081l-0.074,0.041l-0.09,0.051l-0.005,0.019l0.104,0.043l0.09-0.014l0.088-0.015l0.038,0.1l-0.07,0.078l0,0L55.133,55.3
	l-0.022,0.014l-0.297,0.089l-0.026-0.001l-0.16-0.067l-0.021-0.016l-0.13-0.16l-0.022-0.024l0.011-0.033l0.057-0.188l0.026-0.094
	l0.014-0.024l0.079-0.09l-0.079-0.03l-0.118-0.003l-0.134-0.003l-0.453,0.109l-0.027,0.104l0.031,0.015l0,0l0.152,0.063l0.262,0.007
	l0.015,0.004l0.159,0.067l-0.003,0.112l-0.298,0.088h-0.021l-0.428-0.07l-0.417-0.068l-0.394,0.146l-0.015,0.002l-0.27-0.006
	l-0.256-0.005l-0.199,0.112l-0.13,0.15l-0.02,0.014l-0.405,0.15l-0.004,0.002l-0.484,0.115l-0.013,0.001l-0.826-0.047l0.017,0.155
	l0.005,0.041l-0.03,0.019l-0.11,0.062l-0.035,0.003l-0.159-0.068l-0.081-0.032l-0.025-0.03l-0.052-0.126l-0.002-0.045l0.038-0.132
	l-0.148-0.063l-0.014,0.039l-0.022,0.076l-0.054-0.051l-0.2-0.182l-0.241-0.005l-0.206,0.115l-0.021,0.005H48.87l-0.15-0.004
	l-0.055-0.001l-0.054,0.029l0.029,0.074l0.028,0.072l-0.066,0.012l-0.189,0.026l-0.022-0.003l-0.047-0.02L48.2,55.914l-0.017,0.023
	h-0.022l-0.268-0.006h0.002l-0.34-0.036l-0.289,0.085l-0.009,0.002l-0.643,0.05l-0.565,0.083l-0.022-0.004l-0.472-0.197
	l-0.344-0.007l-0.017-0.115l0.135-0.054l0.064-0.074l-0.001-0.174v-0.023l0.016-0.018l0.083-0.103h0.002h-0.299l-0.332,0.103
	l-0.251,0.1h-0.031l-0.238-0.1l-0.33,0.003l-0.847,0.104h-0.004l-0.424,0.002v0.002h-0.014l-0.021-0.006l-0.034-0.02l-0.208,0.025
	h-0.007h-0.068h-0.034l-0.012-0.038l-0.003-0.019l-0.044-0.024h-0.002l-0.021,0.05l-0.013,0.031l-0.03,0.003H42.06h-0.019
	l-0.015-0.018l-0.066-0.075l-0.005,0.003l-0.011-0.018l-0.006-0.01l0.002-0.002l-0.036-0.067l0.088-0.11l-0.07-0.226l-0.075-0.043
	l-0.33,0.04l-0.392,0.167l-0.161,0.07l-0.023,0.003l-0.178-0.023l-0.306,0.131l-0.159,0.069l-0.139,0.061l-0.034,0.086l0.006,0.015
	l0.025,0.086l-0.074-0.009l-0.229-0.021l0,0l-0.285-0.029l-0.023-0.002l-0.013-0.017l-0.013-0.019l-0.155,0.019h-0.009l-0.367-0.037
	l-0.009-0.001l-0.096-0.028l-0.018-0.01l-0.243-0.208l-0.016-0.009l-0.023-0.014l0,0l-0.05-0.027L38.31,55.17l-0.226,0.008
	l-0.032,0.087l-0.022,0.211l-0.006,0.021l-0.022,0.061l-0.013,0.032h-0.031H37.9l0,0l-0.204,0.001l-0.013-0.001l-0.051-0.018
	l-0.028,0.017l-0.018,0.003l-0.281,0.001l-0.319,0.002l-0.069,0.084l-0.007,0.008l-0.022,0.028l-0.031-0.018l-0.021-0.012
	l-0.023-0.031l-0.027-0.095l-0.009-0.024l-0.846-0.193l-0.034-0.009l-0.202-0.045l-0.731-0.166l-1.979,0.001h-0.006l-0.373-0.052
	l-0.341,0.041h-0.006l-0.458-0.016l-0.024-0.01l-0.142-0.109l-0.091-0.069l0.007,0.024l0.019,0.056l-0.046,0.02l-0.006,0.002
	l0.081,0.09l0.098,0.109l0.04,0.045l0.085,0.094l-0.117,0.007l-0.04,0.001l-0.229,0.008h-0.008l-0.167-0.024l-0.194,0.181
	l-0.025,0.015l-0.348,0.041l-0.333,0.04l-0.198,0.187l-0.03,0.015l-0.268,0.009h-0.003l-0.188-0.023l-0.016-0.006l-0.21-0.115
	l-0.181-0.024l-0.185-0.022l-0.255,0.009l-0.405,0.172l-0.021,0.005l-0.84-0.066l0,0l-6.105-0.162h-0.005l-1.184-0.192l-1.186,0.007
	h-0.003l-1.188-0.093l-0.003-0.001l-0.922-0.14l-0.005,0.045l-0.077,0.002l-0.107,0.042l0.624,0.242l-0.02,0.112l-0.759-0.094
	l-0.668,0.004l-0.248,0.099l-0.005,0.002l-0.424,0.104l-0.01,0.001l-1.018,0.005l-0.863,0.007l-0.022-0.007l-0.006-0.004
	l-0.004,0.011h-0.031h-0.086l-0.305,0.073l-0.041-0.102l0.063-0.06l0.107-0.133l-0.07-0.228l-0.078-0.042l-0.329,0.04l-0.392,0.168
	l-0.159,0.07l-0.023,0.004l-0.176-0.024l-0.308,0.132l-0.161,0.068l-0.14,0.063l-0.022,0.06l-0.017,0.038l-0.035-0.006l-0.041-0.008
	l-0.422,0.002l-0.012-0.001l-0.339-0.101h-0.004l-0.248-0.097l-0.417,0.003H9.657l-0.59-0.097l-0.422,0.002l0,0l-0.419,0.002
	l-1.102,0.109H7.122L5.939,55.775L5.939,55.775L5.939,55.775z M3.392,55.774l2.539-0.115l0,0l1.187-0.106l1.103-0.106h0.004
	l0.424-0.003l0,0l0.424-0.002l0.006,0.001l0.592,0.095l0.419-0.002l0.016,0.002l0.25,0.098l0.334,0.097l0.418-0.002h0.009
	l0.008,0.002l0.017-0.041l0.027-0.028l0.161-0.069l0.16-0.068l0.318-0.137l0.023-0.002l0.176,0.022l0.15-0.065l0.396-0.169
	l0.013-0.004l0.347-0.043l0.026,0.005l0.109,0.061l0.025,0.032l0.088,0.282l0.01,0.033l-0.021,0.023l-0.069,0.085l0.139-0.032
	l0.01-0.002h0.061l0.018-0.047l0.045,0.023l0.041,0.023l0.852-0.006l1.014-0.007L15.68,55.5l0.25-0.1l0.016-0.003l0.678-0.006
	l0.006,0.002l0.303,0.039l-0.329-0.122l-0.001-0.109l0.131-0.054l-0.127-0.036l0.017-0.114l1.271,0.193l1.185,0.092l1.187-0.008
	l0.006,0.001l1.187,0.193l6.103,0.163h0.002l0.831,0.064l0.402-0.174l0.016-0.002l0.268-0.009h0.007l0.188,0.023l0.189,0.023
	l0.016,0.007l0.208,0.114l0.178,0.022l0.249-0.009l0.197-0.184l0.025-0.012l0.347-0.044l0.334-0.041l0.198-0.187l0.036-0.012
	l0.187,0.025l0.146-0.006l-0.052-0.059l-0.138-0.154l-0.057-0.066l0.073-0.03l0.033-0.016l-0.012-0.04l-0.029-0.094l0.072-0.068
	l0.213,0.164l0.13,0.101l0.439,0.017l0.344-0.043h0.011l0.376,0.051l1.98-0.002l0.01,0.002l0.735,0.167l0.2,0.045l0.037,0.01
	l0.97,0.221l0.004,0.062l0.015-0.014l0.016-0.02h0.021l0.338-0.003h0.273l0.036-0.018l0.027-0.001l0.059,0.017h0.199l0,0h0.024
	l0.008-0.019l0.021-0.213l0.004-0.019l0.052-0.127l0.014-0.032l0.029-0.003l0.268-0.008l0.023,0.006l0.186,0.102l0.059-0.198
	l0.096,0.021l-0.004,0.263l0.238,0.207l0.082,0.022l0.358,0.035l0.177-0.023l0.024-0.005l0.02,0.026l0.017,0.023l0.263,0.024l0,0
	l0.166,0.016l0,0l0.053-0.126l0.026-0.03l0.161-0.068l0.16-0.069l0.319-0.137l0.022-0.004l0.177,0.023l0.148-0.064l0.394-0.162
	l0.013-0.004l0.347-0.043l0.023,0.004l0.111,0.063l0.023,0.032l0.087,0.28l0.011,0.034l-0.022,0.024l-0.054,0.067l0.05,0.06
	l0.114-0.004l0.019-0.039l0.008-0.026l0.023-0.052l0.045,0.023l0.047,0.025l0.063,0.033l0.023,0.031l0.001,0.002h0.031l0.218-0.024
	l0.024,0.005l0.038,0.021h0.001l0,0l0.422-0.002l0.845-0.104l0.008-0.003l0.338-0.002l0.019,0.005l0.239,0.094l0.239-0.097
	l0.003-0.003l0.339-0.102l0.014-0.002l0.339-0.001l0.341-0.002l0.013,0.114l-0.325,0.099l-0.06,0.07v0.176V55.7l-0.016,0.019
	l-0.056,0.067l0.139,0.002l0.016,0.002l0.469,0.195l0.555-0.079h0.004l0.639-0.05l0.292-0.088l0.019-0.001l0.345,0.039l0.242,0.005
	l0.15-0.227l0.021-0.033l0.033,0.016l0.069,0.026l0.11-0.017l-0.032-0.051l-0.022-0.051l0.045-0.024l0.107-0.062l0.022-0.007
	l0.066,0.003l0.152,0.002l0.04,0.002l0.206-0.116l0.022-0.006l0.269,0.006l0.028,0.014l0.159,0.144l0.006-0.019l0.017-0.055
	l0.045,0.02l0.243,0.101l0.046,0.021l-0.017,0.055l-0.052,0.166l0.034,0.082l0.063,0.024l0.142,0.06l0.059-0.031l-0.021-0.18
	l-0.009-0.07l0.059,0.003l0.88,0.049l0.479-0.113l0.388-0.144l0.126-0.147l0.016-0.009l0.214-0.122l0.023-0.007l0.268,0.007
	l0.26,0.005l0.396-0.148h0.023l0.429,0.069l0.42,0.069l0.13-0.038l-0.259-0.007l-0.018-0.004L53.834,55l0,0l-0.079-0.032
	l-0.046-0.021l0.016-0.055l0.059-0.188l0.009-0.03l0.025-0.007l0.484-0.117h0.01l0.142,0.003l0.127,0.004l0.017,0.002l0.16,0.068
	l0.073,0.03l-0.056,0.066l-0.045,0.048l-0.084,0.1l-0.022,0.08l-0.046,0.156l0.103,0.124l0.135,0.058l0.27-0.081l0.022-0.023
	l-0.043,0.006l-0.022-0.003l-0.16-0.066l-0.045-0.021l0.017-0.056l0.028-0.094l0.022-0.032l0.103-0.062l0.072-0.042l0.143-0.079
	l0.108-0.062l0.07-0.04l-0.001,0.093l-0.004,0.316l-0.004,0.311l0.016,0.142l0.008,0.078l-0.002,0.023l-0.027,0.096l-0.007,0.022
	l-0.02,0.011l-0.002,0.002l0.129,0.053l0.02,0.009l0.008,0.021l0.274-0.115l0.028-0.016l0.021,0.023l0.106,0.115l0.258-0.146
	l0.012-0.004l0.297-0.089l0.013-0.002l0.268,0.007h0.03l0.015,0.031l0.019,0.046l0.09-0.039l0.796-0.344l0.017-0.003l0.268-0.009
	h0.007l0.188,0.025l0.19,0.024l0.015,0.004l0.209,0.113l0.179,0.024l0.249-0.008l0.196-0.185l0.025-0.014l0.346-0.042l0.335-0.041
	l0.199-0.186l0.019-0.017l0.019,0.004l0.187,0.022l0.146-0.004l-0.053-0.059l-0.137-0.154l-0.058-0.065l0.074-0.032l0.031-0.014
	l-0.013-0.04l0,0l-0.027-0.094l0.071-0.067l0.316,0.242l0.025,0.021l0.056,0.003l0.387,0.015l0.344-0.043h0.012l0.022,0.005l0,0
	l0.354,0.048h0.109l1.871-0.001l0.009,0.001l0.975,0.22l0.971,0.221l0.01,0.113l-0.034,0.016l0.006,0.017l0.091,0.051l0.09,0.05
	l0.141-0.061l0,0l0.239-0.104l0,0l0.159-0.068l0.028-0.003l0.257,0.074l0.03-0.076l0.021-0.212l0.004-0.017l0.05-0.129l0.015-0.032
	l0.028-0.001l0.269-0.009l0.021,0.006l0.328,0.179l0.01,0.006l0.238,0.207l0.279,0.078l0.03-0.003l0.252-0.03l0.058-0.006
	l0.025-0.005l0.018,0.023l0.159,0.238l0.205,0.111l0.106,0.029l0.016-0.85l0.003-0.194l0.041-2.307l0.024-1.377v-0.003l0.051-0.981
	l-0.147-0.475l-0.002-0.019l-0.009-0.315v-0.005l0.021-0.222l0.009-0.072l0.002-0.028l0.013-0.118l0.005-0.02l0.096-0.247
	l0.022-0.21l-0.008-0.291l-0.158-0.234l-0.012-0.028l-0.035-0.41l-0.036-0.391l-0.158-0.235l-0.014-0.021l0.003-0.022l0.021-0.219
	l-0.005-0.17l-0.049,0.062l-0.129,0.161l-0.056,0.067l-0.027-0.085l-0.012-0.041l-0.033,0.016l0,0l-0.078,0.033l-0.06-0.085
	l0.223-0.404l0.013-0.52l-0.035-0.406v-0.016l0.043-0.44l-0.002-1.02l-0.006-1.314l0.003-0.011l0.034-0.215l0.009-0.056l0.145-0.876
	l0.184-1.144l0.054-0.005l-0.014-0.014l-0.016-0.018v-0.023l-0.002-0.399l0,0l-0.002-0.321l-0.014-0.043l-0.001-0.033l0.015-0.068
	l-0.002-0.234l0,0v-0.029l-0.016-0.008l-0.182-0.024l-0.015-0.004l-0.11-0.061l-0.035-0.017v-0.035l-0.009-0.315l0.004-0.026
	l0.087-0.216l-0.168-0.07l0.018-0.112l0.224,0.006l0.172-0.282l0.021-0.098l0.028-0.422l-0.019-0.207l-0.003-0.032l0.021-0.021
	l0.022-0.021l0.022-0.309h-0.003l0.017-0.199l0,0l-0.11-0.061l-0.02-0.011l-0.008-0.023l-0.059-0.188l0,0l-0.058-0.189l-0.117-0.375
	l-0.009-0.021l0.02-0.208l-0.055-0.176l-0.075-0.244l-0.07-0.225l-0.002-0.014l-0.035-0.41l0.004-0.03l0.049-0.129l0.027-0.028
	l0.239-0.104l0.026-0.012l0.022,0.022l0.058,0.065l0.051-0.058l-0.003-0.137l-0.059-0.032l-0.045-0.022l0.022-0.052l0.052-0.128
	l0.024-0.029h0.002v-0.038l-0.022-0.258l0.006-0.029l0.017-0.043v-0.002l-0.002-0.499L68.79,31.54v-0.006l-0.002-0.4l0.002-0.018
	l0.078-0.282l-0.081-0.281l-0.001-0.004l-0.05-0.225l-0.038-0.175l-0.001-0.014l-0.003-0.4l0,0l-0.002-0.398l0.097-0.017
	l0.083,0.385l0.063,0.071l0.147-0.001h0.022l0.017,0.018l0.056,0.065l0.002-0.162l0.002-0.018l0.165-0.554l-0.07-0.653v-0.002
	l-0.043-0.753l-0.075-0.343l-0.001-0.021l0.032-0.409l0.004-0.286L69,26.484l-0.026-0.023l0.012-0.041l0.023-0.081l-0.016-0.127
	l-0.045,0.024l-0.045,0.025l-0.022-0.053l-0.052-0.127l-0.005-0.025l0.001-0.131v-0.011l0,0l0.002-0.16l-0.098-0.244l-0.008-0.025
	l0.004-0.316l0.013-0.035l0.12-0.187l-0.015-0.007l-0.047-0.018l0.017-0.055l0.084-0.283l0.018-0.055l0.046,0.02l0.142,0.059
	l0.071-0.041l0.022-0.071l0.049-0.166l-0.026-0.068l-0.154,0.023l-0.058,0.008l0.003-0.069l0.039-1.035l-0.098-0.563l-0.124-0.459
	l-0.124-0.152l-0.009-0.015l-0.105-0.255l-0.004-0.025l0.002-0.204l0.002-0.112l0.005-0.307l-0.125-0.468l-0.002-0.026l0.063-0.504
	l0.06-0.493l-0.033-0.153l-0.004,0.307l-0.008,0.011l-0.058,0.188l-0.027,0.094l-0.016,0.054l-0.047-0.019l-0.161-0.067
	l-0.023-0.011l-0.007-0.032l-0.102-0.571l-0.001-0.012l0.005-0.316l0.003-0.019l0.057-0.188l0.025-0.088l0.055,0.067l0.124,0.151
	l0.07,0.029l0,0l0.133,0.055l0.106-0.121l0.047-0.159l-0.069-0.318l-0.021-0.025l0.006,0.049l-0.002,0.026l-0.057,0.188
	l-0.019,0.055l-0.046-0.02l-0.079-0.033l-0.027-0.029l-0.051-0.127l-0.104-0.255l-0.054-0.128l-0.034-0.084l0.079,0.001l0.269,0.005
	l0.263,0.006l0.186-0.028l0.022,0.004l0.079,0.033l0.028,0.029l0.001,0.002l0.045-0.151l0.006-0.023l0.019-0.01l-0.1-0.32
	l-0.011-0.034l0.022-0.025l0.097-0.122l-0.123-0.307l-0.004-0.011l-0.006-0.028l-0.068-0.321l-0.003-0.015l0.005-0.316l0.001-0.036
	l0.026-0.015l0.037-0.021l-0.032-0.106l-0.294-0.938l-0.002-0.019l-0.009-0.316v-0.007l0.021-0.223l0.023-0.221l0.007-0.019
	l0.097-0.248l0.021-0.209l-0.009-0.292l-0.158-0.232l-0.011-0.03l-0.037-0.41l-0.034-0.392l-0.16-0.235l-0.011-0.042l0.021-0.22
	l-0.005-0.171l-0.048,0.062l-0.131,0.163l-0.054,0.068l-0.027-0.088l-0.012-0.04l-0.033,0.016l0,0l-0.079,0.034L68.025,12.2
	l0.223-0.404l0.013-0.519l-0.034-0.406v-0.012l0.041-0.442l-0.004-2.096V8.082V8.071l0.186-1.144l0.188-1.145l0.095-0.009
	l0.013,0.04l0.016-0.006L68.801,5.7l0.043-0.106L68.791,5.43H68.79l-0.087-0.282l0,0l-0.061-0.188l-0.001-0.033l0.062-0.304
	l-0.065-0.036l-0.18-0.024l-0.015-0.005l-0.11-0.059l-0.027-0.015l-0.002-0.037L68.298,4.13l0.004-0.025l0.08-0.206l0.072-0.179
	l0.004-0.01l0.174-0.282L68.7,3.1l-0.036-0.399l-0.003-0.032l0.022-0.02l0.202-0.188l0.095-0.238l0.069-0.344l0.002-0.004
	l-0.548-0.068l-0.016-0.005l-0.176-0.081l-0.092-0.043l0.083-0.062l0.146-0.106l-0.13,0.014l-0.761,0.083H67.55l-0.43-0.054h-0.003
	l-0.341-0.061l-0.501,0.054h-0.008L65.751,1.5L65.74,1.498l-0.437-0.153l-0.007-0.001l-0.172-0.079l-0.026-0.013l-0.005-0.035
	L65.09,1.163l-1.594-0.218l-1.691,0.083l-0.046,0.002l-0.005-0.055l-0.008-0.1L61.74,0.813l-0.137-0.064L61.53,0.757l-0.169,0.018
	l-0.083,0.009l-0.035,0.003l0.011,0.142L61.25,0.955l-0.068,0.208l-0.011,0.034l-0.03,0.003l-0.508,0.055L60.584,1.26L60.58,1.203
	l-0.003-0.025l-0.27,0.112l-0.014,0.003l-0.422,0.046h-0.008l-0.516-0.045l-0.517-0.045l-0.027-0.014l-0.093-0.091l-0.017-0.039
	l-0.009-0.1l-0.002-0.075l-0.063-0.059l-0.147,0.016l-0.169,0.019l-0.03,0.003l-0.017-0.031l-0.084-0.16l-0.139,0.016h-0.007
	l-0.512-0.044l-0.587,0.063l-0.018-0.001l-0.514-0.141L56.321,0.62h-0.005l-1.114-0.08H55.2l-0.938-0.098l-1.01,0.11h-0.005
	l-0.933,0.001l-0.93,0.101l-0.845,0.091h-0.005L49.6,0.746h-0.005l-0.858-0.106l-0.432-0.054l-0.004-0.001l-0.262-0.072L48.018,0.5
	l-0.184-0.181l-0.002-0.001l0.013,0.16v0.019l-0.061,0.309l-0.01,0.04l-0.035,0.004l-0.077,0.008L47.425,0.98L47.41,0.985
	l-0.17,0.018L47.219,1l-0.176-0.081L47.029,0.91l-0.185-0.181l0,0l-0.028-0.028l-0.23,0.001l-0.497,0.101l-0.032,0.023l-0.16,0.118
	l-0.022,0.008L45.706,0.97l-0.022-0.003l-0.178-0.082l-0.026-0.013l-0.004-0.037l-0.008-0.1l-0.003-0.035l0.024-0.02l0.023-0.017
	V0.65V0.602l0.04-0.008l0.078-0.016l0.01-0.008l0.041-0.057l-0.036-0.039l-0.307,0.033l-0.397,0.24l-0.028,0.018L44.89,0.741
	l-0.111-0.107l-0.122,0.073l-0.009,0.004l-0.142,0.057l0.066,0.038L44.735,0.9l0.337,0.096l0.011,0.108l-0.17,0.101l-0.011,0.004
	l-0.34,0.103l-0.005,0.001L43.88,1.417l-0.679,0.104h-0.006l-0.679,0.004l-0.424,0.002l-0.118,0.001l0.083-0.1l0.084-0.1l0.02-0.015
	l0.144-0.057l-0.288,0.069h-0.001l-1.354,0.308l-0.011,0.001l-0.677,0.003L39.3,1.645l-0.42,0.101l-0.008,0.001l-0.423,0.002
	l-1.015,0.105h-0.004l-0.51,0.002H36.91l-0.341-0.098l-0.003-0.001l-0.255-0.099l-0.02-0.014L36.22,1.561L34.8,1.47l0,0
	l-1.527,0.009l-1.441,0.008l0,0l-1.438,0.108h-0.003h-0.084h-0.049V1.54l-0.001-0.1l0,0v-0.1h-0.001V1.297h-0.035l0,0l-0.254,0.001
	l-0.34,0.001L29.404,1.3l0.001,0.001l0.016,0.017v0.024v0.1v0.024l-0.015,0.016l-0.167,0.202l-0.03,0.017l-0.933,0.105l-0.055,0.005
	V1.751V1.728L27.693,1.91l-0.021,0.002l-0.762-0.095l0,0l-0.929-0.094l-0.933,0.005l-0.17,0.001h-0.021l-0.015-0.017l-0.085-0.1
	l-0.049-0.056l0.063-0.036l0.108-0.065L24.857,1.43h-0.151l-0.339,0.002l-0.253,0.002l-0.033-0.018l-0.157-0.182l-0.319,0.001
	l-0.009-0.001l-0.42-0.096L22.67,1.141l-1.103,0.007L21.059,1.15l-0.011-0.001l-0.419-0.097h-0.081h-0.004L18.51,0.865l-0.846,0.004
	H17.66l-0.845-0.094l-1.776,0.111h-0.003l-1.696,0.01h-0.002l-1.61-0.091l-1.523,0.108h-0.005l-1.694-0.09l0,0L7.74,0.828H7.735
	L6.974,0.735l0,0l-0.68-0.096l-0.01-0.003L5.778,0.441L5.439,0.343L5.417,0.336L5.406,0.313L5.352,0.185L5.329,0.212v0.062
	L5.41,0.461l0.004,0.025l0.002,0.2v0.036L5.391,0.738l-0.17,0.101L5.198,0.845l-0.25,0.002L4.53,0.948L4.521,0.95L4.182,0.952
	L4.166,0.948L3.911,0.85L3.892,0.835l-0.25-0.292l-0.16-0.092L3.235,0.356L2.816,0.26l-0.3,0.002l0.001,0.001l0.086,0.099
	l0.034,0.041L2.603,0.444L2.52,0.545L2.503,0.562H2.483L2.325,0.563L2.166,0.657L2.145,0.663L1.89,0.666L1.553,0.668h-0.17
	L1.36,0.662l-0.169-0.1L1.162,0.547V0.512V0.411L1.161,0.354H1.21h0.077L1.53,0.258l0.15-0.09H1.548l-0.17,0.001L1.041,0.171
	L1.033,0.172l0.023,0.175L1.056,0.372L0.935,0.841l0.008,0.307L0.95,1.463L0.945,1.49L0.845,1.746L0.836,1.761L0.713,1.913
	L0.596,2.375L0.505,2.938l0.051,1.034L0.56,4.042L0.503,4.034L0.349,4.013L0.329,4.062L0.323,4.081l0.049,0.165l0.022,0.071
	l0.072,0.04l0.142-0.06l0.045-0.02L0.67,4.331l0.088,0.281l0.018,0.054L0.73,4.688L0.713,4.694l0.125,0.184l0.01,0.036l0.008,0.315
	L0.853,5.255L0.756,5.499L0.764,5.8L0.759,5.825l-0.05,0.128L0.688,6.006L0.644,5.982L0.598,5.957L0.583,6.086l0.026,0.081
	l0.012,0.04L0.594,6.232L0.403,6.411l0.008,0.285l0.037,0.407l-0.001,0.02l-0.07,0.344L0.342,8.221v0.003L0.321,8.44L0.279,8.878
	l0.17,0.549l0.002,0.019l0.017,0.633l0.016,0.627l0.066,0.501l0.001,0.006l0.015,0.633v0.012l-0.093,0.57l0.016,0.04l-0.029,0.018
	L0.387,12.78l0.11-0.126l0.023-0.024l0.029,0.013l0.24,0.1l0.019,0.008l0.009,0.022l0.016,0.035l0,0l0.038,0.091l0.004,0.03
	l-0.032,0.41l-0.003,0.015l-0.14,0.472l-0.052,0.175l0.019,0.173l0.075,0.243l0.008,0.022l-0.009,0.022l-0.055,0.127l-0.028,0.029
	l-0.08,0.036l-0.028,0.012l-0.012-0.012l-0.044,0.147l-0.044,0.149l0.017,0.024l-0.014,0.032l-0.05,0.129l-0.016,0.023l-0.097,0.081
	l0.085,0.211l0.01,0.022l-0.007,0.023L0.33,15.649l0.111,0.136l0.013,0.025l0.074,0.343l0.096,0.237l0.205,0.185l0.021,0.02
	l-0.003,0.031l-0.032,0.399l0.041,0.188l0.031,0.141l0.129,0.204l0.206-0.006l0.02,0.112l-0.14,0.06l0.122,0.302l0.007,0.025
	l-0.004,0.317l-0.001,0.036L1.199,18.42L1.09,18.481l-0.015,0.005l-0.181,0.026L0.83,18.549l0.065,0.304l-0.001,0.033l-0.056,0.189
	l-0.084,0.283l-0.049,0.166l0.043,0.106l0.044,0.105l0.015,0.007l0.013-0.04l0.094,0.008l0.199,1.142l0.133,0.765l0.066,0.378
	l0.001,0.011l0.024,2.334l0.047,0.441v0.012l-0.031,0.407l0.019,0.517l0.156,0.275l0.073,0.127l-0.059,0.087l-0.078-0.033l0,0
	l-0.035-0.015l-0.012,0.039l-0.03,0.088l-0.055-0.07L1.206,26.06l-0.004-0.005l-0.05-0.062v0.029l-0.002,0.143l0.022,0.22
	l0.003,0.022l-0.013,0.019l-0.155,0.238l-0.031,0.392l-0.024,0.285h0.01l0.087,0.201l0.003,0.013l0.088,0.397L1.14,27.96
	l0.088,0.798l0.09,0.8v0.01l0.007,0.799v0.054l0.003,0.444v0.141l-0.083-0.1l-0.085-0.099l-0.012-0.023l-0.049-0.169l0.06,0.342
	v-0.001l0.166,1.006l0.178-0.006l0.078-0.003l-0.033,0.086l-0.05,0.127l-0.098,0.25l0.023,0.135l0.001,0.011l0.001,0.251L1.512,32.7
	l0.055-0.07l0.027,0.088l0.059,0.188l0.003,0.02l0.008,0.315v0.013L1.57,33.825l-0.005,0.034L1.538,33.87l-0.106,0.045l0.001,0.242
	l0.087,0.492l0.001,0.012l0.001,0.155l0.002,0.344l0.083,1.083l0.055,0.176l0.011,0.03L1.65,36.475L1.616,36.52l0.003,0.438
	l-0.002,0.017l-0.083,0.4l-0.001,0.004l-0.083,0.3l-0.012,0.023l-0.071,0.084l-0.063,1.43l0.118,0.017l0.049,0.006l-0.005,0.06
	l-0.022,0.221L1.44,39.536l-0.05,0.127l-0.091-0.005l-0.004-0.017l0.009,1.616l0.011,1.701l0,0l0.036,0.65l0.058,1.043v0.004
	l0.001,0.1v0.059L1.36,44.815H1.277l-0.084-0.001v-0.001l-0.037,0.001v0.041l0.001,0.3l0.002,0.398l0.002,0.26l0.001-0.001
	l0.035-0.019h0.084l0.034,0.017l0.17,0.202l0.015,0.033l0.091,1.098l0.006,0.065H1.544H1.526l0.154,0.623l0.002,0.024l-0.014,0.156
	l-0.065,0.745l0,0l-0.078,1.094l0.006,1.099l0.001,0.2v0.022l-0.014,0.02l-0.084,0.101l-0.047,0.056l-0.031-0.07L1.3,51.151
	l-0.021,0.024l0.001,0.178l0.001,0.307l0.206-0.006l0.019,0.112L1.283,51.86l0.001,0.19l0.001,0.025l-0.016,0.018l-0.154,0.183
	l0.001,0.13l0.001,0.248v0.011l-0.082,0.493l0.003,0.594l0.007,1.3l0.004,0.537l0.646-0.003l0.593-0.005H2.31l0.015,0.018
	l0.069,0.081l0.149-0.001l0.01,0.001l0.421,0.097L3.392,55.774L3.392,55.774L3.392,55.774z M1.303,39.33l0.046,0.153l0.014-0.144
	L1.303,39.33L1.303,39.33z M0.895,29.457l0.125,0.704L0.97,29.774v-0.001l-0.047-0.417l-0.029,0.095L0.895,29.457L0.895,29.457z
	 M0.79,27.75l0.01-0.047l-0.021,0.029v0.043L0.79,27.75L0.79,27.75z M43.286,1.02l-0.598,0.145l0.328-0.057h0.001l0.675-0.104
	l0.288-0.086h-0.108L43.286,1.02L43.286,1.02z M44.381,0.823l0.011,0.09l-0.678,0.204l-0.006,0.001l-0.679,0.104l0,0l-0.588,0.103
	l-0.216,0.087l0.293-0.001l0.676-0.004l0.674-0.103L44.542,1.2l0.33-0.099l0.047-0.028l-0.211-0.061l-0.011-0.005l-0.169-0.099
	L44.381,0.823L44.381,0.823z M68.991,1.453l-0.094,0.011l0.235,0.03l0.012-0.032L68.991,1.453L68.991,1.453z M69.057,35.279
	l0.003,0.023l0.005,0.013l0.094-0.015l0.007-0.068l-0.002-0.017l-0.007-0.039l-0.098,0.011L69.057,35.279L69.057,35.279z
	 M40.918,55.763l-0.008-0.114l-0.081-0.005l-0.02,0.005l-0.011,0.005l0.013,0.112l0.061,0.005h0.013L40.918,55.763L40.918,55.763z
	 M46.115,0.589l0.024,0.002L46.588,0.5l0.094-0.02l-0.068-0.079l-0.022-0.026l-0.017-0.019l-0.023,0.002l-0.212,0.023L46.003,0.42
	L45.99,0.532L46.115,0.589z" changeable="1"/>
<path style="fill:#414042" d="M47.189,1.044l-0.022-0.026l-0.213,0.023l-0.338,0.038l0.125,0.057L47.189,1.044z M1.88,0.239L1.879,0.253
	l0.037-0.014H1.88z M1.688,0.313L1.679,0.289L1.664,0.239H1.521l0.01,0.073H1.688z M69.72,35.894l0.004-0.068l-0.006-0.041
	l-0.003,0.097L69.72,35.894z M69.929,29.061l-0.043-0.757l-0.076-0.35l0.032-0.409l0.004-0.317l-0.212-0.194l0.028-0.094
	l-0.024-0.222l-0.106,0.062l-0.054-0.126l0.002-0.13v-0.011l0.002-0.176l-0.104-0.253l0.004-0.317l0.164-0.25l-0.079-0.033
	l0.084-0.283l0.159,0.068l0.108-0.062l0.027-0.094l0.056-0.188l-0.052-0.128l-0.188,0.027l0.04-1.042l-0.1-0.572l-0.127-0.477
	l-0.133-0.16l-0.104-0.254l0.004-0.204l0.001-0.113l0.004-0.316l-0.127-0.477l0.12-1.009l-0.073-0.35l-0.058,0.189l-0.005,0.316
	l-0.056,0.188l-0.027,0.094l-0.161-0.067L68.763,20l0.004-0.316l0.057-0.188l0.133,0.161l0.078,0.033l0.16,0.067l0.137-0.156
	l0.056-0.188l-0.074-0.349l-0.133-0.161l0.023,0.223l-0.057,0.188l-0.079-0.033l-0.053-0.127l-0.104-0.257l-0.054-0.127l0.27,0.005
	l0.268,0.005l0.188-0.027l0.078,0.033l0.106,0.254l-0.024-0.222l0.057-0.188l0.038-0.022l-0.115-0.372l0.121-0.151l-0.14-0.343
	l-0.006-0.027l-0.07-0.321l0.005-0.316l0.077-0.044l-0.049-0.156l-0.291-0.938l-0.007-0.316l0.02-0.221l0.022-0.223l0.103-0.256
	l0.022-0.222l-0.009-0.317l-0.165-0.248l-0.039-0.41l-0.036-0.41l0,0l-0.167-0.247l0.021-0.222l-0.006-0.316l-0.131,0.163
	l-0.129,0.162l-0.028-0.093l-0.078,0.034l-0.08,0.034l0.231-0.418l0.013-0.538l-0.036-0.41l0.042-0.444l-0.005-2.101V8.679
	l0.186-1.144L69.3,6.391l0.029,0.094l0.08-0.034l0.049-0.129l0.052-0.128l-0.146-0.47l-0.061-0.188l0.064-0.348l-0.109-0.061
	l-0.189-0.025L68.96,5.043l-0.005-0.315l0.079-0.206l0.069-0.178l0.18-0.291l0.072-0.35l-0.039-0.41l0.21-0.196l0.101-0.255
	l0.072-0.35l0.052-0.064l-0.64-0.08l-0.176-0.081l0.161-0.117l0.337-0.038l0.344,0.043l-0.002-0.015l0.052-0.134l-0.229-0.014
	l-0.676,0.073l-0.76,0.082l-0.43-0.054l-0.346-0.063l-0.506,0.055l-0.516-0.045l-0.438-0.154l-0.178-0.081l-0.008-0.1l-1.635-0.224
	l-1.697,0.083l-0.009-0.099l-0.008-0.1l-0.177-0.081l-0.083,0.008l-0.253,0.027l-0.084,0.009l0.018,0.199L61.746,1.74L61.24,1.795
	l-0.012-0.096l-0.33,0.137l-0.422,0.046l-0.515-0.045l-0.515-0.045l-0.093-0.091l-0.008-0.1l-0.009-0.099l-0.094-0.091L59.078,1.43
	l-0.169,0.019l-0.101-0.19L58.64,1.277l-0.514-0.045l-0.592,0.064l-0.522-0.144l-0.085,0.009l-1.115-0.08l-0.943-0.099l-1.013,0.11
	L52.92,1.095l-0.93,0.101l-0.846,0.091l-0.936,0.001L49.35,1.181l-0.432-0.053l-0.26-0.071l-0.185-0.181l-0.092-0.091l0.009,0.1
	l0.017,0.2L48.346,1.39l-0.084,0.009l-0.246,0.128l-0.169,0.019l-0.176-0.081l-0.184-0.181l-0.046-0.042l-0.25,0.001l-0.51,0.103
	h-0.003l-0.038,0.029l-0.16,0.117l-0.169,0.019L46.135,1.43l-0.009-0.1l0.048-0.035V1.25l0.088-0.018l0.026-0.019l0.073-0.108
	L46.27,1.014l-0.339,0.037l-0.405,0.245l-0.135-0.132l-0.152,0.091l-0.253,0.102l0.17,0.099l0.169,0.099l0.342,0.098l-0.17,0.101
	l-0.338,0.103L44.48,1.959l-0.678,0.104l-0.678,0.004L42.699,2.07l0.085-0.099l0.253-0.103l0.593-0.103l0.677-0.104l0.677-0.204
	L44.475,1.46l-0.593,0.103l-1.271,0.307l-1.354,0.308l-0.68,0.003l-0.675,0.004l-0.426,0.103l-0.425,0.002l-1.014,0.106L37.53,2.399
	l-0.342-0.098l-0.254-0.099L36.85,2.104l-1.443-0.091l-1.526,0.009L32.44,2.03l-1.441,0.109h-0.084v-0.1l-0.002-0.1v-0.1
	l-0.339,0.002l-0.679,0.003l0.086,0.1l0.001,0.1l-0.169,0.201L28.88,2.351v-0.1l-0.592,0.204L27.523,2.36L26.59,2.266l-0.935,0.005
	l-0.169,0.001l-0.084-0.1l0.168-0.101l-0.086-0.1l-0.168,0.001l-0.34,0.002l-0.253,0.001l-0.171-0.2l-0.339,0.002l-0.425-0.098
	l-0.508,0.002l-1.103,0.006l-0.508,0.002l-0.425-0.097h-0.084l-2.037-0.188l-0.847,0.005l-0.849-0.093l-1.78,0.111l-1.696,0.01
	l-1.612-0.091l-1.527,0.11l-1.696-0.09L8.35,1.373L7.587,1.277L6.908,1.181L6.397,0.984l-0.34-0.098l-0.084-0.2L5.888,0.787v0.1
	l0.086,0.2l0.001,0.201L5.808,1.387L5.552,1.389L5.129,1.491L4.788,1.494L4.535,1.395L4.279,1.096L4.109,0.998L3.854,0.899
	L3.43,0.802L2.836,0.806L3.09,0.905l0.085,0.098L3.091,1.104L2.922,1.105l-0.169,0.1L2.498,1.207L2.159,1.209H1.989l-0.17-0.098
	v-0.1h0.084L2.158,0.91l0.167-0.101l0.084-0.1H2.327H2.155L1.986,0.711L1.647,0.713L1.584,0.72l0.031,0.235L1.494,1.433L1.51,2.065
	L1.408,2.321L1.279,2.483L1.156,2.961L1.063,3.534l0.052,1.042L0.927,4.55L0.893,4.638l-0.016,0.04l0.059,0.188l0.03,0.094
	l0.109,0.06L1.234,4.95l0.088,0.282L1.241,5.267l0.166,0.248l0.009,0.316L1.314,6.087l0.008,0.316L1.271,6.531L1.163,6.472
	L1.142,6.693l0.028,0.095L0.96,6.984L0.969,7.3l0.036,0.41L0.934,8.06L0.9,8.818L0.879,9.035L0.836,9.485l0.175,0.563l0.015,0.631
	l0.016,0.632l0.067,0.503l0.016,0.631l-0.093,0.573L1.03,13.032l0.003,0.007l-0.006,0.003l-0.1,0.388l-0.016,0.066l-0.21,0.196
	l0.109,0.06l0.021-0.009L0.837,13.7l0.165-0.25l0.016-0.019l0.119-0.136l0.241,0.1l0.015,0.035l0.036,0.092l-0.032,0.41
	l-0.141,0.472l-0.058,0.188l0.021,0.192l0.077,0.249l-0.051,0.128l-0.079,0.035l-0.044-0.048L1.11,15.191L1.055,15.38l-0.052,0.18
	l0.014,0.022l-0.049,0.128l-0.132,0.11l0.104,0.254l-0.056,0.188l0.132,0.16l0.075,0.351l0.105,0.254l0.211,0.194l-0.031,0.41
	l0.042,0.198l0.031,0.151l0.153,0.237l0.232-0.008l-0.19,0.083l0.146,0.36l-0.004,0.316l-0.109,0.061l-0.188,0.028L1.38,19.117
	l0.075,0.349l-0.14,0.471l-0.056,0.189l0.051,0.127l0.053,0.127l0.079,0.034l0.029-0.094l0.199,1.142l0.133,0.765l0.067,0.377
	l0.022,2.339l0.048,0.443l-0.032,0.41l0.021,0.538l0.163,0.289l0.072,0.127l-0.08-0.033l-0.08-0.032l-0.027,0.092L1.85,26.624
	l-0.005-0.006l-0.131-0.161l-0.002,0.167l-0.002,0.148l0.024,0.223l-0.165,0.248l-0.064,0.822l-0.165,0.25L1.335,28.63v0.003
	l0.026-0.063l0.083-0.202l0.083-0.4l0.085,0.201l0.087,0.398l0.18,1.597l0.004,0.8v0.055l0.003,0.445l-0.084-0.099l-0.087-0.302
	l-0.006-0.046l-0.083-0.651l-0.09-0.799l-0.047-0.221l0.022,0.201l-0.004,0.315l-0.056,0.183l0.003,0.022l0.167,0.95l0.097,0.547
	l0.174,1.055l0.219-0.007l-0.051,0.127l-0.102,0.258L1.955,33.01l0.026,0.153l0.002,0.357l0.043-0.019l0.13-0.163l0.058,0.188
	l0.007,0.316l-0.091,0.57l-0.142,0.063l0.002,0.285l0.088,0.499l0.001,0.155l0.002,0.345l0.083,1.093l0.057,0.183l-0.048,0.06
	l0.003,0.462l-0.083,0.4l-0.082,0.3L1.93,38.358l-0.065,1.454l-0.002,0.053l0.164,0.022l-0.022,0.222l-0.05,0.129l-0.095-0.308
	l-0.005,0.127l0.009,1.8l0.012,1.698l0.036,0.656l0.059,1.044l0.001,0.1l-0.085,0.002H1.799H1.714l0.001,0.1l0.002,0.3l0.002,0.398
	l0.002,0.398l0.084-0.101h0.085l0.17,0.199l0.092,1.099H2.067l0.175,0.701l-0.014,0.155l-0.066,0.743l-0.078,1.101L2.09,51.55
	l0.001,0.201l-0.083,0.101l-0.087-0.198l-0.083,0.101l0.001,0.201l0.002,0.366l0.253-0.009l-0.239,0.101l-0.016-0.052l0.001,0.289
	l-0.168,0.2l0.001,0.155l0.001,0.248l-0.082,0.5l0.004,0.6l0.007,1.3l0.004,0.6l0.016-0.002l0.678-0.005l0.594-0.006l0.084,0.101
	l0.17-0.003l0.424,0.099l0.424-0.004l2.544-0.113l1.187-0.107l1.102-0.107l0.424-0.003L9.683,56.1l0.594,0.098l0.424-0.004
	l0.254,0.1l0.342,0.097l0.424-0.002l0.045,0.009l0.032-0.078l0.158-0.07l0.161-0.068l0.319-0.137l0.188,0.023l0.158-0.068
	l0.398-0.172l0.348-0.042l0.109,0.06l0.087,0.283l-0.129,0.162l-0.066,0.06l0.312-0.072l0.091-0.001l0.011-0.027l0.051,0.027
	l0.864-0.006l1.018-0.006l0.423-0.104l0.253-0.103l0.679-0.004l0.762,0.097l-0.764-0.296l0.253-0.103h0.084l-0.339-0.099
	l1.273,0.192l1.188,0.092l1.188-0.006l1.188,0.193l6.106,0.164l0.842,0.064l0.411-0.177l0.268-0.01l0.188,0.024l0.188,0.026
	l0.218,0.116l0.188,0.025l0.269-0.008l0.209-0.197l0.695-0.086l0.21-0.198l0.188,0.025l0.228-0.009l0.04-0.002l-0.04-0.043
	l-0.098-0.11l-0.138-0.155l0.08-0.032l-0.059-0.188l0.213,0.163l0.143,0.11l0.456,0.018l0.347-0.045l0.378,0.052h1.984l0.736,0.167
	l0.202,0.045l0.034,0.009l0.972,0.221l-0.078,0.035l0.027,0.093l0.021,0.011l0.007-0.008l0.085-0.102l0.341-0.002h0.281l0.045-0.021
	l0.063,0.019h0.205h0.057l0.022-0.061l0.021-0.223l0.053-0.128l0.267-0.009l0.235,0.127l0.075-0.256l-0.003,0.297l0.02,0.012
	l0.249,0.211l0.096,0.027l0.368,0.036l0.181-0.022l0.028,0.044l0.284,0.027l0.229,0.022l-0.012-0.039l0.051-0.129l0.16-0.068
	l0.16-0.069l0.318-0.138l0.188,0.026l0.161-0.07l0.397-0.171l0.347-0.043l0.109,0.062l0.088,0.282l-0.113,0.141l0.031-0.012
	l0.086,0.1l0.166-0.001l0.029-0.074l0.012-0.025l0.046,0.025l0.064,0.032l0.013,0.041h0.067l0.223-0.026l0.047,0.024h0.014
	l0.425-0.003l0.846-0.104l0.34-0.003l0.254,0.099l0.254-0.101l0.339-0.103l0.34-0.002l0.341-0.003l-0.341,0.104l-0.082,0.101
	l0.001,0.199l-0.085,0.101l-0.148,0.06l0.349,0.007l0.481,0.201l0.563-0.081l0.647-0.052l0.295-0.089l0.35,0.04l0.268,0.005
	l0.161-0.249l0.078,0.032l0.188-0.027l-0.051-0.127l0.109-0.062l0.066,0.001l0.149,0.004l0.054,0.001l0.216-0.122l0.268,0.006
	l0.211,0.195l0.027-0.095l0.241,0.101l-0.058,0.188l0.053,0.127l0.078,0.034l0.161,0.066l0.106-0.063l-0.022-0.221l0.886,0.05
	l0.484-0.116l0.402-0.149l0.137-0.156l0.217-0.121l0.268,0.005l0.267,0.007l0.404-0.15l0.43,0.071l0.43,0.07l0.296-0.088
	l-0.159-0.068l-0.269-0.006l-0.161-0.066l-0.081-0.033l0.058-0.188l0.484-0.117l0.139,0.004l0.129,0.003l0.16,0.068l-0.043,0.048
	l-0.093,0.108l-0.029,0.094l-0.056,0.189l0.132,0.16l0.16,0.067l0.296-0.088l0.065-0.071l0.072-0.082l-0.088,0.013l-0.101,0.016
	l-0.161-0.066l0.029-0.095l0.107-0.063l0.073-0.042l0.143-0.079l0.109-0.063l-0.002,0.316l-0.007,0.315l0.018,0.145l0.008,0.078
	l-0.027,0.095l-0.217,0.119l0.188-0.025l0.161,0.068l0.02,0.045l0.314-0.135l0.128,0.142l0.292-0.163l0.296-0.089l0.27,0.006
	l0.036,0.092l0.131-0.057l0.798-0.342l0.269-0.011l0.376,0.052l0.218,0.118l0.188,0.025l0.268-0.009l0.209-0.198l0.345-0.045
	l0.347-0.043l0.208-0.197l0.19,0.025l0.267-0.01l-0.138-0.153l-0.139-0.156l0.08-0.034l-0.06-0.187l0.317,0.244l0.038,0.027
	l0.07,0.003l0.389,0.016l0.347-0.042l0.023,0.003l0.354,0.048h0.112l1.874-0.001l0.971,0.222l0.972,0.221l-0.08,0.033l0.029,0.094
	l0.218,0.119l0.16-0.069l0.238-0.104l0.159-0.068l0.292,0.098l0.052-0.129l0.021-0.222l0.051-0.128l0.268-0.009l0.327,0.179
	l0.247,0.213l0.297,0.086l0.038-0.007l0.252-0.029l0.058-0.007l0.167,0.249l0.217,0.118l0.17,0.049l0.018-0.924l0.005-0.192
	l0.039-2.31l0.023-1.377l0.054-0.99l-0.152-0.484l-0.009-0.316l0.028-0.297l0.003-0.029l0.012-0.116l0.101-0.254l0.023-0.223
	l-0.01-0.311v-0.009l-0.167-0.249l-0.037-0.41l-0.036-0.409l-0.165-0.248l0.023-0.222l-0.011-0.316l-0.129,0.161l-0.13,0.161
	l-0.028-0.094l-0.16,0.069l0.23-0.421l0.015-0.536l-0.036-0.409l0.042-0.444l-0.002-1.024l-0.002-1.315l0.033-0.214l0.01-0.056
	l0.144-0.876l0.185-1.144l0.028,0.095l0.079-0.033l0.011-0.022l-0.009-0.01l-0.086-0.1L69.58,40.02l-0.002-0.324v-0.008
	l-0.016-0.053l0.016-0.075l-0.002-0.24v-0.067l-0.051-0.026l-0.188-0.023l-0.11-0.062l-0.006-0.316l0.108-0.276l-0.219-0.091
	l0.252,0.006l0.009-0.022l0.182-0.289l0.023-0.115l0.028-0.434l-0.02-0.214l0.036-0.033l0.023-0.335l0.018-0.271l-0.032,0.016
	l-0.109-0.061l-0.058-0.188l-0.061-0.188l-0.115-0.373l0.021-0.222l-0.06-0.188L69.174,35.3l-0.069-0.224l-0.036-0.41l0.05-0.128
	l0.239-0.103l0.114,0.126l-0.009-0.037l0.083-0.102l-0.002-0.197l-0.085-0.047l0.051-0.129l0.032-0.016v-0.078l-0.022-0.262
	l0.022-0.056v-0.017l-0.005-0.497l-0.09-1l-0.002-0.4l0.084-0.299l-0.088-0.299l-0.048-0.225l-0.038-0.174l-0.002-0.399
	l-0.005-0.397l0.088,0.397l0.086,0.1l0.169-0.001l0.086,0.102l0.05,0.172l0.006-0.411L70,29.725L69.929,29.061z M3.719,52.781
	L3.434,4.275l62.372-0.366l0.286,48.506L3.719,52.781z M41.426,56.307l0.059,0.006l0.033-0.009l-0.08-0.002L41.426,56.307z" changeable="0"/>
<radialGradient id="SVGID_1_" cx="576.7422" cy="762.9961" r="44.8894" gradientTransform="matrix(1 0 0 1 -542 -734.3652)" gradientUnits="userSpaceOnUse">
	<stop  offset="0" style="stop-color:#E7D3B2"/>
	<stop  offset="0.27" style="stop-color:#F9F3D6"/>
	<stop  offset="0.5" style="stop-color:#F9F4DF"/>
	<stop  offset="0.71" style="stop-color:#F9F3D6"/>
	<stop  offset="1" style="stop-color:#A78B6B"/>
</radialGradient>
<path fill="url(#SVGID_1_)" d="M69.319,28.461l-0.042-0.758l-0.076-0.349l0.032-0.41l0.004-0.316l-0.212-0.194l0.028-0.094
	l-0.023-0.222l-0.108,0.061l-0.052-0.127l0.001-0.131v-0.01l0.003-0.175l-0.105-0.255l0.006-0.316l0.163-0.249l-0.079-0.032
	l0.084-0.283l0.159,0.067l0.108-0.061l0.027-0.094l0.057-0.189l-0.052-0.127l-0.188,0.027l0.04-1.043l-0.101-0.571l-0.126-0.477
	l-0.132-0.16l-0.105-0.254l0.004-0.204v-0.113l0.005-0.315l-0.127-0.477l0.06-0.504l0.063-0.505l-0.075-0.349l-0.057,0.188
	l-0.005,0.316l-0.056,0.189l-0.027,0.094l-0.159-0.067L68.154,19.4l0.006-0.317l0.056-0.188l0.133,0.161l0.078,0.033l0.16,0.067
	L68.722,19l0.059-0.188l-0.076-0.349l-0.13-0.161l0.022,0.221l-0.06,0.189l-0.077-0.034l-0.052-0.127l-0.106-0.254l-0.052-0.127
	l0.269,0.005l0.268,0.005l0.188-0.027l0.08,0.033l0.104,0.254l-0.023-0.222l0.058-0.188l0.039-0.022l-0.116-0.372l0.121-0.151
	l-0.14-0.344l-0.007-0.027l-0.069-0.321l0.005-0.316l0.076-0.044l-0.048-0.156l-0.291-0.938l-0.009-0.316l0.021-0.223l0.021-0.221
	l0.101-0.257l0.023-0.221l-0.008-0.317l-0.167-0.248l-0.037-0.408l-0.039-0.41l0,0l-0.166-0.247l0.022-0.222l-0.008-0.316
	l-0.131,0.162l-0.129,0.162l-0.027-0.093l-0.081,0.034l-0.078,0.034l0.231-0.419l0.013-0.539l-0.035-0.41l0.042-0.443L68.319,8.32
	V8.081l0.185-1.144l0.187-1.145l0.029,0.094l0.079-0.034l0.051-0.128l0.05-0.128l-0.063-0.188l-0.088-0.282L68.69,4.939l0.072-0.351
	l-0.11-0.059l-0.188-0.025l-0.109-0.06l-0.009-0.316l0.079-0.206l0.068-0.179l0.183-0.29l0.07-0.35l-0.036-0.41l0.209-0.196
	l0.101-0.255l0.071-0.351l0.052-0.063l-0.64-0.08l-0.177-0.082l0.161-0.117l0.337-0.037l0.344,0.042l-0.004-0.013l0.051-0.134
	l-0.229-0.014l-0.675,0.073L67.555,1.55l-0.431-0.054l-0.345-0.063l-0.507,0.055l-0.515-0.045L65.32,1.291l-0.177-0.082
	l-0.009-0.098l-1.634-0.224L61.803,0.97l-0.008-0.098l-0.009-0.102L61.609,0.69l-0.084,0.008l-0.168,0.019l-0.086,0.01l-0.084,0.009
	l0.017,0.199l-0.069,0.208l-0.508,0.055l-0.007-0.1l-0.33,0.137L59.869,1.28l-0.517-0.045l-0.514-0.044L58.747,1.1l-0.008-0.098
	l-0.008-0.099l-0.093-0.091l-0.168,0.019l-0.17,0.018L58.2,0.659l-0.169,0.019l-0.514-0.045l-0.591,0.063l-0.522-0.143l-0.085,0.009
	l-1.113-0.08l-0.944-0.099l-1.014,0.111l-0.937,0.001l-0.929,0.101l-0.845,0.093L49.602,0.69l-0.859-0.107l-0.431-0.054L48.05,0.456
	l-0.184-0.181l-0.094-0.091l0.01,0.1l0.015,0.2l-0.06,0.307l-0.086,0.009l-0.245,0.127l-0.168,0.02l-0.178-0.082l-0.184-0.181
	l-0.043-0.042l-0.251,0.001l-0.508,0.103h-0.003l-0.041,0.029l-0.159,0.118l-0.169,0.018l-0.177-0.081l-0.01-0.1l0.047-0.035V0.65
	l0.088-0.018l0.024-0.019l0.076-0.108L45.66,0.415l-0.341,0.037l-0.404,0.245l-0.133-0.132L44.63,0.656l-0.255,0.102l0.172,0.099
	l0.169,0.099l0.341,0.097L44.89,1.155l-0.339,0.102l-0.679,0.104l-0.677,0.104l-0.679,0.004l-0.424,0.002l0.083-0.1l0.253-0.102
	l0.593-0.103l0.678-0.104l0.676-0.204l-0.51,0.003l-0.593,0.103l-1.268,0.307L40.649,1.58l-0.675,0.002l-0.679,0.003l-0.424,0.103
	l-0.425,0.003l-1.017,0.105L36.921,1.8L36.58,1.703l-0.252-0.098l-0.086-0.099L34.8,1.414l-1.526,0.009l-1.441,0.009l-1.44,0.108
	h-0.085V1.439l-0.001-0.1v-0.1h-0.085l-0.256,0.002l-0.34,0.001l-0.339,0.002l0.084,0.1l0.002,0.1l-0.169,0.2l-0.933,0.106
	l-0.001-0.1l-0.592,0.204l-0.763-0.095L25.98,1.667L25.047,1.67l-0.169,0.001l-0.085-0.1l0.169-0.101l-0.085-0.1l-0.169,0.001
	l-0.339,0.002l-0.254,0.002l-0.17-0.2l-0.341,0.002l-0.424-0.098l-0.51,0.003l-1.102,0.006l-0.509,0.002l-0.426-0.098h-0.084
	l-2.036-0.188l-0.848,0.004l-0.847-0.094l-1.781,0.111l-1.696,0.01l-1.614-0.09l-1.525,0.11l-1.696-0.09L7.743,0.773L6.979,0.678
	L6.301,0.581L5.79,0.385L5.45,0.287L5.364,0.086L5.28,0.188l0.001,0.1l0.086,0.2l0.001,0.199L5.198,0.789L4.943,0.79L4.521,0.891
	l-0.34,0.003L3.927,0.795L3.67,0.497L3.5,0.398L3.247,0.3L2.82,0.202L2.227,0.205l0.255,0.099l0.085,0.1L2.483,0.504L2.314,0.506
	L2.146,0.606L1.89,0.607L1.55,0.609L1.381,0.611l-0.17-0.099L1.21,0.411h0.085L1.55,0.311l0.168-0.101l0.083-0.102H1.717
	l-0.17,0.002L1.378,0.111L1.039,0.113L0.977,0.121l0.031,0.235L0.885,0.833l0.008,0.316l0.008,0.316L0.8,1.722L0.67,1.884
	L0.549,2.362L0.456,2.934l0.053,1.042L0.32,3.95L0.285,4.038L0.269,4.079l0.06,0.188l0.028,0.093l0.11,0.061l0.159-0.069
	l0.087,0.282l-0.08,0.035L0.8,4.916l0.007,0.315L0.707,5.487l0.008,0.315l-0.05,0.128L0.556,5.87L0.533,6.093l0.03,0.094
	L0.354,6.383l0.009,0.316l0.036,0.41l-0.072,0.35l-0.034,0.76L0.271,8.435l-0.043,0.45l0.175,0.564l0.016,0.631l0.016,0.631
	l0.067,0.503l0.016,0.631l-0.093,0.573l-0.004,0.014l0.003,0.007l-0.006,0.003l-0.099,0.388l-0.018,0.066l-0.208,0.196l0.109,0.06
	l0.021-0.009l0.006-0.045l0.164-0.249l0.017-0.02l0.119-0.136l0.24,0.1l0.014,0.035l0.038,0.092l-0.032,0.41l-0.14,0.472
	l-0.056,0.188l0.02,0.192l0.077,0.25l-0.05,0.128l-0.08,0.033l-0.044-0.048l-0.013,0.044l-0.057,0.189l-0.053,0.178l0.016,0.022
	L0.356,15.11l-0.13,0.11l0.104,0.254l-0.057,0.188l0.132,0.16l0.076,0.349l0.104,0.256l0.212,0.194l-0.031,0.41l0.043,0.198
	l0.033,0.151l0.151,0.237l0.231-0.008l-0.189,0.083l0.147,0.36l-0.004,0.315l-0.108,0.062L0.88,18.456l-0.109,0.062l0.076,0.349
	l-0.056,0.189l-0.085,0.283l-0.056,0.188l0.052,0.127l0.052,0.126l0.08,0.033l0.027-0.094l0.2,1.143l0.134,0.764l0.065,0.378
	l0.023,2.339l0.048,0.443l-0.032,0.41l0.02,0.537l0.164,0.29l0.073,0.126l-0.08-0.032l-0.081-0.033L1.37,26.179l-0.127-0.155
	l-0.004-0.007l-0.133-0.16l-0.002,0.167l-0.001,0.15l0.022,0.221l-0.164,0.25l-0.032,0.411l-0.032,0.409l-0.163,0.252l-0.005,0.313
	v0.003l0.026-0.062l0.083-0.203l0.083-0.399l0.085,0.199l0.086,0.4l0.09,0.799l0.09,0.798l0.005,0.8v0.055l0.003,0.444l-0.085-0.1
	l-0.087-0.298L1.102,30.42l-0.083-0.652l-0.09-0.799l-0.047-0.221l0.021,0.202l-0.004,0.315l-0.055,0.183l0.003,0.021l0.167,0.951
	l0.096,0.547l0.174,1.056l0.22-0.008l-0.052,0.128l-0.1,0.256L1.348,32.41l0.025,0.153l0.002,0.358l0.043-0.02l0.129-0.161
	l0.059,0.188l0.008,0.316l-0.092,0.571l-0.141,0.063l0.002,0.286l0.088,0.499l0.001,0.155l0.002,0.345l0.083,1.092l0.057,0.183
	l-0.048,0.061l0.003,0.464l-0.083,0.399L1.404,37.66l-0.084,0.1l-0.063,1.453l-0.003,0.054l0.166,0.021L1.396,39.51l-0.05,0.13
	L1.25,39.332l-0.005,0.127l0.01,1.802l0.011,1.698l0.037,0.655l0.059,1.042v0.103H1.277H1.192L1.107,44.76l0.001,0.1l0.002,0.299
	l0.002,0.4l0.002,0.398l0.084-0.102h0.084l0.169,0.199l0.092,1.099H1.46l0.173,0.7L1.62,48.012l-0.066,0.744l-0.078,1.101
	l0.006,1.099l0.001,0.2L1.399,51.25l-0.087-0.199L1.23,51.151l0.001,0.199l0.002,0.369l0.254-0.009l-0.239,0.103l-0.016-0.052
	l0.002,0.289l-0.169,0.203l0.001,0.155l0.002,0.247l-0.082,0.5l0.003,0.6l0.009,1.3l0.004,0.598l0.016-0.002l0.678-0.005
	l0.595-0.003l0.084,0.1l0.169-0.002l0.425,0.099l0.424-0.003l2.544-0.113l1.187-0.109l1.102-0.105l0.424-0.004l0.424-0.002
	L9.667,55.6l0.424-0.002l0.255,0.099l0.34,0.099l0.425-0.003l0.045,0.009l0.031-0.079l0.161-0.068l0.159-0.069l0.319-0.138
	l0.189,0.024l0.159-0.068l0.398-0.17l0.347-0.044l0.109,0.063l0.087,0.28l-0.129,0.162l-0.066,0.063l0.311-0.075l0.091-0.001
	l0.011-0.026l0.053,0.026l0.863-0.005l1.02-0.007l0.423-0.103l0.254-0.103l0.678-0.005l0.763,0.096l-0.764-0.296l0.253-0.102
	l0.085-0.002l-0.341-0.097l1.273,0.193l1.187,0.092l1.188-0.007l1.188,0.193l6.106,0.162l0.842,0.064l0.411-0.175l0.269-0.01
	l0.188,0.025l0.188,0.024l0.218,0.12l0.188,0.023l0.268-0.011l0.21-0.197l0.347-0.043l0.347-0.043l0.21-0.196l0.188,0.025
	l0.228-0.007l0.04-0.002l-0.04-0.045l-0.097-0.11l-0.138-0.155l0.078-0.033l-0.028-0.093l-0.03-0.095l0.214,0.163l0.143,0.11
	l0.456,0.017l0.347-0.041l0.378,0.051l1.984-0.002l0.737,0.167l0.201,0.045l0.034,0.009l0.972,0.222l-0.081,0.033l0.03,0.094
	l0.02,0.011l0.008-0.007l0.084-0.102l0.34-0.003l0.283-0.002l0.043-0.02l0.064,0.02l0.205-0.002h0.056l0.023-0.06l0.021-0.221
	l0.052-0.129l0.268-0.009l0.233,0.128l0.077-0.258l-0.005,0.297l0.02,0.014l0.25,0.212l0.096,0.025l0.367,0.038l0.182-0.023
	l0.028,0.044l0.285,0.029l0.229,0.021l-0.014-0.039l0.051-0.127l0.159-0.068l0.16-0.069l0.318-0.137l0.19,0.023l0.16-0.068
	l0.396-0.171l0.347-0.043l0.11,0.061l0.087,0.282l-0.109,0.134l0.032-0.012l0.085,0.1l0.167-0.001l0.03-0.075l0.011-0.024
	l0.045,0.024l0.063,0.033l0.014,0.042l0.068-0.002l0.221-0.026l0.048,0.025h0.015l0.426-0.003l0.845-0.106l0.342-0.002l0.253,0.101
	l0.252-0.103l0.34-0.104l0.34-0.002l0.34-0.002l-0.338,0.104l-0.084,0.101v0.2l-0.083,0.101l-0.154,0.065l0.349,0.01l0.48,0.199
	l0.564-0.081l0.645-0.052l0.298-0.087l0.346,0.036l0.27,0.008l0.162-0.251l0.079,0.031l0.188-0.025l-0.052-0.128l0.107-0.061
	l0.067,0.001l0.151,0.003l0.054,0.001l0.214-0.122l0.269,0.008l0.211,0.194l0.028-0.094l0.239,0.1l-0.056,0.188l0.052,0.127
	l0.079,0.032l0.161,0.067l0.107-0.061l-0.024-0.223l0.887,0.051l0.484-0.116l0.402-0.15l0.137-0.155l0.216-0.122l0.269,0.007
	l0.268,0.005l0.404-0.149l0.429,0.071l0.429,0.071l0.297-0.089l-0.16-0.07l-0.27-0.004l-0.16-0.067l-0.08-0.033l0.058-0.188
	l0.483-0.115l0.139,0.002l0.129,0.004l0.159,0.067L54.69,54.73l-0.092,0.108l-0.026,0.095l-0.06,0.188l0.133,0.16l0.161,0.066
	l0.298-0.089l0.063-0.071l0.074-0.084l-0.088,0.014l-0.101,0.017l-0.161-0.068l0.028-0.095l0.108-0.061l0.073-0.042l0.142-0.079
	l0.109-0.063l-0.005,0.316l-0.004,0.316l0.017,0.144l0.009,0.077l-0.026,0.095l-0.216,0.121l0.187-0.027l0.161,0.067l0.02,0.045
	l0.315-0.135l0.128,0.144l0.291-0.162l0.295-0.089l0.271,0.005l0.036,0.092l0.132-0.057l0.795-0.344l0.271-0.009l0.188,0.025
	l0.189,0.024l0.215,0.119l0.188,0.024l0.268-0.011l0.21-0.196l0.347-0.043l0.348-0.043l0.208-0.196l0.188,0.024l0.27-0.01
	l-0.139-0.154l-0.139-0.155l0.078-0.034l-0.027-0.094l-0.028-0.093l0.316,0.244l0.039,0.028l0.068,0.002l0.389,0.017l0.346-0.042
	l0.023,0.002l0.355,0.048h0.113l1.874-0.001l0.97,0.222l0.973,0.22l-0.079,0.034l0.027,0.094l0.11,0.062l0.108,0.059l0.161-0.068
	l0.239-0.103l0.16-0.068l0.296,0.083l0.052-0.126l0.022-0.222l0.05-0.128l0.268-0.009l0.327,0.179l0.247,0.212l0.297,0.085
	l0.038-0.006l0.252-0.028l0.058-0.008l0.166,0.248l0.218,0.118l0.169,0.049l0.019-0.923l0.003-0.192l0.041-2.309l0.023-1.38
	l0.051-0.988l-0.149-0.482l-0.009-0.317l0.021-0.223l0.008-0.072l0.004-0.028l0.011-0.117l0.104-0.257l0.02-0.222l-0.006-0.306
	v-0.009l-0.168-0.249l-0.036-0.41l-0.036-0.409l-0.166-0.25l0.022-0.221l-0.01-0.315l-0.134,0.163l-0.131,0.16l-0.027-0.093
	l-0.079,0.033l-0.079,0.034l0.23-0.42l0.016-0.537l-0.038-0.409l0.043-0.443l-0.003-1.023l-0.002-1.317l0.034-0.213l0.009-0.055
	l0.145-0.876l0.184-1.144l0.029,0.093l0.079-0.032l0.011-0.023l-0.009-0.008l-0.083-0.1l-0.005-0.399v-0.324V39.09l-0.02-0.053
	l0.018-0.074l-0.001-0.241l-0.001-0.065l-0.062-0.025l-0.188-0.026l-0.11-0.06l-0.008-0.315l0.108-0.276l-0.218-0.09l0.253,0.005
	l0.008-0.023l0.181-0.29l0.022-0.113l0.028-0.435l-0.02-0.214l0.038-0.033l0.022-0.335l0.02-0.27L69.02,36.17l-0.109-0.06
	l-0.061-0.188l-0.057-0.188l-0.116-0.376l0.023-0.222l-0.059-0.188l-0.076-0.245l-0.068-0.224l-0.037-0.41l0.052-0.128l0.24-0.103
	l0.113,0.127l-0.011-0.038l0.086-0.102l-0.003-0.197l-0.085-0.049l0.049-0.127l0.036-0.016l-0.002-0.078l-0.023-0.262l0.021-0.056
	v-0.014l-0.003-0.5l-0.09-0.998l-0.003-0.4l0.083-0.298l-0.087-0.297l-0.048-0.226l-0.039-0.173l-0.002-0.4l-0.002-0.398
	l0.087,0.398l0.085,0.1l0.168-0.001l0.086,0.101l0.05,0.172l0.006-0.411l0.167-0.565L69.319,28.461z M3.719,52.781L3.434,4.275
	l62.372-0.366l0.286,48.506L3.719,52.781z" changeable="1"/>
<path style="fill:#FFFFFF" d="M66.092,52.473L3.719,52.84H3.662v-0.059L3.375,4.276V4.218h0.059l62.373-0.367h0.059v0.059l0.286,48.506
	v0.058H66.092L66.092,52.473z M3.776,52.724l62.258-0.367L65.749,3.966L3.492,4.333L3.776,52.724z" changeable="1"/>
</svg>
