<?xml version="1.0" encoding="utf-8"?>
<svg version="1.1" id="Layer_1" xmlns="http://www.w3.org/2000/svg" xmlns:xlink="http://www.w3.org/1999/xlink" x="0px" y="0px"
	 width="70px" height="59.193px" viewBox="0 0 70 59.193" enable-background="new 0 0 70 59.193" xml:space="preserve">
<path style="fill:none" d="M1.532,12.458l64.801-3.608l2.69,43.99L3.963,56.878L1.532,12.458z" isFrame="true" changeable="0"/>
<path opacity="0.17" style="fill:#000000" d="M4.775,56.542l63.713-3.144l0.889,2.332L4.271,59.193L4.775,56.542z
	 M64.25,10.441l3.162,41.442L64.85,9.995L3.144,13.432L64.25,10.441z" changeable="0"/>
<path style="fill:#FFFFFF" d="M67.098,7.458L0,11.085l3.022,47.633L70,54.486L67.098,7.458z M3.144,13.432L64.85,9.996l2.563,41.89
	L5.459,55.73L3.144,13.432z" changeable="1"/>
<path style="fill:#FFFFFF" d="M13.399,10.93l17.117-9.997l0.063-0.037l0.065,0.032l16.647,8.179l-0.043,0.088L30.525,1.174l0.128-0.005
	l-17.214,9.829L13.399,10.93z" changeable="0"/>
<path style="fill:#616161" d="M31.091,0.96l-0.927,0.83c-0.043-0.002-0.089-0.009-0.139-0.021c-0.022-0.006-0.048-0.018-0.073-0.027
	c0.287-0.378,0.582-0.753,0.816-1.163c0.045-0.008,0.092,0.003,0.128,0.035C30.959,0.668,31.146,0.897,31.091,0.96z" changeable="0"/>
<path opacity="0.45" style="fill:#262626" d="M31.091,0.96l-0.442,0.396
	c-0.084-0.088-0.146-0.189-0.178-0.313c0.105-0.149,0.206-0.306,0.298-0.466c0.045-0.008,0.092,0.003,0.128,0.035
	C30.959,0.668,31.146,0.897,31.091,0.96z" changeable="0"/>
<path style="fill:#616161" d="M31.728,0.65c0.171,0.376,0.022,0.695-0.332,0.713s-0.78-0.272-0.951-0.649
	c-0.171-0.376-0.022-0.693,0.331-0.713C31.13-0.017,31.556,0.273,31.728,0.65z" changeable="0"/>
<path style="fill:#858585" d="M31.737,1.179c-0.065,0.105-0.183,0.177-0.342,0.185c-0.354,0.018-0.78-0.272-0.951-0.649
	c-0.129-0.282-0.076-0.533,0.11-0.647c-0.081,0.132-0.084,0.321,0.011,0.526c0.171,0.379,0.597,0.67,0.951,0.649
	C31.604,1.238,31.678,1.216,31.737,1.179z" changeable="0"/>
</svg>
