<?xml version="1.0" encoding="utf-8"?>
<svg version="1.1" id="Layer_1" xmlns="http://www.w3.org/2000/svg" xmlns:xlink="http://www.w3.org/1999/xlink" x="0px" y="0px"
	 width="70px" height="70px" viewBox="0 0 70 70" enable-background="new 0 0 70 70" xml:space="preserve">
<path style="fill:none" d="M66.077,35c0,10.163-4.879,19.188-12.423,24.857C48.459,63.764,42,66.077,35,66.077
	c-10.182,0-19.221-4.897-24.889-12.466C6.225,48.424,3.923,41.98,3.923,35c0-7.977,3.005-15.251,7.946-20.754
	C17.558,7.909,25.813,3.923,35,3.923c10.1,0,19.072,4.817,24.749,12.278C63.721,21.421,66.077,27.936,66.077,35z" isFrame="true" changeable="0"/>
<path opacity="0.04" style="fill:#000000" d="M35,1.603c-9.935,0-18.857,4.338-24.975,11.225
	C4.786,18.725,1.603,26.491,1.603,35c0,7.461,2.447,14.352,6.583,19.911C14.273,63.096,24.018,68.396,35,68.396
	c7.704,0,14.799-2.609,20.449-6.992C63.327,55.296,68.396,45.739,68.396,35c0-7.417-2.418-14.269-6.508-19.811
	C55.809,6.948,46.027,1.603,35,1.603z M35,65.039c-9.803,0-18.509-4.696-23.992-11.961C7.212,48.049,4.961,41.787,4.961,35
	c0-7.804,2.976-14.912,7.854-20.253C18.309,8.733,26.214,4.961,35,4.961c9.77,0,18.449,4.664,23.936,11.886
	C62.766,21.889,65.04,28.179,65.04,35c0,9.831-4.724,18.561-12.024,24.04C47.996,62.809,41.759,65.039,35,65.039z" changeable="0"/>
<path opacity="0.04" style="fill:#000000" d="M35,1.099c-10.074,0-19.122,4.394-25.332,11.37
	C4.338,18.458,1.099,26.351,1.099,35c0,7.516,2.445,14.458,6.583,20.078C13.854,63.461,23.792,68.9,35,68.9
	c7.881,0,15.134-2.689,20.893-7.201C63.813,55.494,68.9,45.842,68.9,35c0-7.499-2.436-14.429-6.558-20.043
	C56.174,6.553,46.225,1.099,35,1.099z M35,65.491c-9.957,0-18.798-4.772-24.363-12.154C6.79,48.234,4.509,41.884,4.509,35
	c0-7.881,2.99-15.063,7.897-20.475C17.984,8.373,26.041,4.509,35,4.509c9.953,0,18.793,4.769,24.357,12.147
	C63.208,21.76,65.491,28.114,65.491,35c0,9.979-4.792,18.835-12.2,24.396C48.195,63.225,41.861,65.491,35,65.491z" changeable="0"/>
<path opacity="0.04" style="fill:#000000" d="M35,0.687c-10.191,0-19.344,4.443-25.629,11.497
	C3.969,18.248,0.687,26.24,0.687,35c0,7.604,2.473,14.628,6.657,20.314C13.591,63.805,23.652,69.313,35,69.313
	c7.971,0,15.307-2.717,21.13-7.274C64.154,55.756,69.313,45.98,69.313,35c0-7.602-2.472-14.626-6.654-20.313
	C56.411,6.196,46.35,0.687,35,0.687z M35,65.861c-10.116,0-19.095-4.867-24.724-12.387C6.421,48.324,4.138,41.93,4.138,35
	c0-7.973,3.023-15.24,7.985-20.717C17.77,8.052,25.928,4.138,35,4.138c10.018,0,18.918,4.771,24.557,12.166
	c3.955,5.188,6.305,11.668,6.305,18.696c0,10.104-4.854,19.074-12.359,24.703C48.346,63.57,41.939,65.861,35,65.861z" changeable="0"/>
<path opacity="0.04" style="fill:#000000" d="M35,0.366C24.7,0.366,15.45,4.863,9.105,12c-5.437,6.116-8.739,14.172-8.739,23
	c0,7.668,2.492,14.754,6.71,20.492C13.38,64.068,23.54,69.634,35,69.634c8.012,0,15.389-2.72,21.255-7.286
	C64.396,56.01,69.634,46.116,69.634,35c0-7.669-2.491-14.756-6.712-20.495C56.618,5.931,46.459,0.366,35,0.366z M35,66.15
	c-10.268,0-19.375-4.969-25.049-12.631C6.117,48.344,3.85,41.938,3.85,35c0-8.012,3.024-15.317,7.994-20.836
	C17.546,7.832,25.808,3.85,35,3.85c10.141,0,19.146,4.844,24.836,12.344C63.799,21.42,66.15,27.935,66.15,35
	c0,10.118-4.824,19.109-12.299,24.799C48.619,63.784,42.086,66.15,35,66.15z" changeable="0"/>
<path opacity="0.04" style="fill:#000000" d="M35,0C24.635,0,15.323,4.505,8.915,11.664C3.371,17.856,0,26.035,0,35
	c0,7.768,2.53,14.943,6.812,20.751C13.185,64.395,23.438,70,35,70c8.131,0,15.613-2.771,21.555-7.423C64.738,56.171,70,46.199,70,35
	c0-7.763-2.527-14.936-6.805-20.741C56.823,5.611,46.566,0,35,0z M35,66.48c-10.344,0-19.523-4.989-25.261-12.692
	C5.832,48.544,3.52,42.042,3.52,35c0-8.117,3.072-15.517,8.117-21.1C17.398,7.526,25.731,3.52,35,3.52
	c10.277,0,19.406,4.926,25.15,12.546c3.975,5.269,6.33,11.827,6.33,18.934c0,10.25-4.899,19.355-12.483,25.104
	C48.717,64.105,42.137,66.48,35,66.48z" changeable="0"/>
<radialGradient id="SVGID_1_" cx="577" cy="756" r="32.7871" gradientTransform="matrix(1 0 0 1 -542 -721)" gradientUnits="userSpaceOnUse">
	<stop  offset="0" style="stop-color:#FFFFFF"/>
	<stop  offset="0.8685" style="stop-color:#E2CDE4"/>
	<stop  offset="0.939" style="stop-color:#B681BB"/>
	<stop  offset="1" style="stop-color:#8F3F97"/>
</radialGradient>
<path fill="url(#SVGID_1_)" d="M35,2.213c-9.754,0-18.515,4.261-24.521,11.022C5.336,19.024,2.213,26.647,2.213,35
	c0,7.355,2.423,14.146,6.514,19.617c5.979,7.994,15.522,13.17,26.273,13.17c7.566,0,14.535-2.563,20.083-6.869
	C62.813,54.92,67.787,45.541,67.787,35c0-7.321-2.398-14.081-6.455-19.538C55.357,7.422,45.787,2.213,35,2.213z M35,64.49
	c-9.553,0-18.045-4.542-23.435-11.586C7.767,47.941,5.51,41.734,5.51,35c0-7.66,2.92-14.637,7.708-19.88
	C18.61,9.215,26.373,5.51,35,5.51c9.639,0,18.197,4.624,23.578,11.775C62.29,22.217,64.49,28.352,64.49,35
	c0,9.643-4.627,18.203-11.782,23.584C47.775,62.293,41.645,64.49,35,64.49z" changeable="1"/>
<path style="fill:#FFFFFF" d="M3.978,37.542c0-0.522-0.423-0.946-0.946-0.946c-0.311,0-0.585,0.152-0.757,0.385
	c0.024,0.414,0.056,0.828,0.096,1.237c0.171,0.167,0.404,0.271,0.661,0.271C3.555,38.488,3.978,38.064,3.978,37.542z M3.978,29.544
	c0-0.523-0.423-0.947-0.946-0.947c-0.067,0-0.132,0.008-0.195,0.021c-0.112,0.572-0.21,1.149-0.293,1.732
	c0.143,0.086,0.309,0.14,0.488,0.14C3.555,30.49,3.978,30.066,3.978,29.544z M5.069,38.725c-0.523,0-0.946,0.424-0.946,0.947
	c0,0.521,0.423,0.946,0.946,0.946c0.397,0,0.735-0.245,0.876-0.593c-0.055-0.315-0.104-0.633-0.148-0.953
	C5.623,38.861,5.363,38.725,5.069,38.725z M4.925,42.846c-0.523,0-0.947,0.424-0.947,0.947c0,0.521,0.424,0.946,0.947,0.946
	c0.522,0,0.946-0.425,0.946-0.946C5.871,43.27,5.447,42.846,4.925,42.846z M4.925,46.8c-0.173,0-0.333,0.05-0.473,0.13
	c0.228,0.584,0.472,1.156,0.731,1.723c0.396-0.111,0.688-0.473,0.688-0.904C5.871,47.225,5.447,46.8,4.925,46.8z M3.031,40.854
	c-0.101,0-0.195,0.021-0.287,0.049c0.112,0.619,0.243,1.229,0.39,1.834c0.474-0.051,0.844-0.447,0.844-0.937
	C3.978,41.277,3.555,40.854,3.031,40.854z M3.863,33.52c0-0.522-0.424-0.946-0.946-0.946c-0.243,0-0.463,0.094-0.63,0.245
	c-0.029,0.444-0.053,0.892-0.063,1.342c0.173,0.187,0.418,0.306,0.693,0.306C3.439,34.466,3.863,34.043,3.863,33.52z M5.785,31.015
	c-0.173-0.203-0.428-0.334-0.716-0.334c-0.523,0-0.946,0.424-0.946,0.946s0.423,0.946,0.946,0.946c0.212,0,0.405-0.071,0.563-0.189
	C5.673,31.925,5.725,31.469,5.785,31.015z M5.069,34.703c-0.523,0-0.946,0.423-0.946,0.945c0,0.521,0.423,0.947,0.946,0.947
	c0.175,0,0.337-0.053,0.478-0.136C5.523,35.979,5.51,35.49,5.51,35c0-0.061,0.005-0.12,0.005-0.181
	C5.381,34.747,5.231,34.703,5.069,34.703z M4.925,24.468c0.522,0,0.946-0.423,0.946-0.946c0-0.522-0.424-0.946-0.946-0.946
	c-0.104,0-0.201,0.021-0.294,0.052c-0.184,0.45-0.358,0.906-0.522,1.367C4.272,24.276,4.574,24.468,4.925,24.468z M6.962,46.632
	c0.318,0,0.598-0.157,0.769-0.397c-0.199-0.481-0.384-0.975-0.558-1.469c-0.068-0.017-0.138-0.024-0.211-0.024
	c-0.522,0-0.946,0.423-0.946,0.944C6.016,46.208,6.439,46.632,6.962,46.632z M5.069,26.56c-0.523,0-0.946,0.423-0.946,0.946
	c0,0.522,0.423,0.946,0.946,0.946c0.522,0,0.946-0.424,0.946-0.946C6.016,26.982,5.592,26.56,5.069,26.56z M15.662,12.746
	c-0.156-0.308-0.472-0.52-0.84-0.52c-0.523,0-0.947,0.424-0.947,0.946c0,0.341,0.182,0.637,0.452,0.804
	C14.759,13.552,15.205,13.144,15.662,12.746z M15.165,56.823c-0.512,0.013-0.922,0.429-0.922,0.944c0,0.521,0.424,0.943,0.946,0.943
	s0.946-0.423,0.946-0.943c0-0.039-0.007-0.076-0.012-0.113C15.8,57.383,15.479,57.107,15.165,56.823z M17.228,58.95
	c-0.523,0-0.946,0.423-0.946,0.946c0,0.521,0.423,0.944,0.946,0.944c0.522,0,0.946-0.424,0.946-0.944
	C18.174,59.373,17.75,58.95,17.228,58.95z M6.962,48.859c-0.522,0-0.946,0.425-0.946,0.947c0,0.521,0.424,0.944,0.946,0.944
	s0.946-0.424,0.946-0.944C7.908,49.284,7.484,48.859,6.962,48.859z M19.12,60.941c-0.522,0-0.946,0.424-0.946,0.947
	c0,0.521,0.424,0.944,0.946,0.944s0.946-0.424,0.946-0.944C20.066,61.365,19.643,60.941,19.12,60.941z M13.16,54.814
	c-0.033-0.002-0.065-0.01-0.1-0.01c-0.523,0-0.947,0.424-0.947,0.945s0.424,0.945,0.947,0.945c0.522,0,0.946-0.424,0.946-0.945
	c0-0.02-0.005-0.035-0.006-0.053C13.716,55.409,13.434,55.117,13.16,54.814z M21.135,63.048c-0.522,0-0.946,0.425-0.946,0.947
	c0,0.101,0.021,0.194,0.049,0.286c0.408,0.205,0.82,0.404,1.237,0.595c0.354-0.137,0.606-0.479,0.606-0.881
	C22.081,63.473,21.658,63.048,21.135,63.048z M6.945,22.361c0.522,0,0.946-0.423,0.946-0.945c0-0.523-0.424-0.947-0.946-0.947
	c-0.523,0-0.946,0.424-0.946,0.947C5.999,21.938,6.422,22.361,6.945,22.361z M10.015,51.799c0-0.523-0.424-0.945-0.946-0.945
	s-0.946,0.422-0.946,0.945c0,0.521,0.424,0.946,0.946,0.946S10.015,52.32,10.015,51.799z M13.061,58.95
	c-0.131,0-0.256,0.026-0.369,0.073c0.416,0.387,0.841,0.763,1.276,1.127c0.022-0.082,0.039-0.166,0.039-0.254
	C14.007,59.373,13.583,58.95,13.061,58.95z M9.068,54.928c-0.032,0-0.063,0.008-0.096,0.01c0.32,0.418,0.65,0.828,0.991,1.23
	c0.03-0.094,0.051-0.189,0.051-0.294C10.015,55.352,9.591,54.928,9.068,54.928z M11.907,53.691c0-0.522-0.423-0.946-0.946-0.946
	c-0.522,0-0.946,0.424-0.946,0.946c0,0.521,0.424,0.944,0.946,0.944C11.484,54.639,11.907,54.214,11.907,53.691z M11.168,56.82
	c-0.187,0-0.359,0.056-0.505,0.146c0.413,0.459,0.841,0.904,1.279,1.34c0.107-0.152,0.171-0.34,0.171-0.539
	C12.113,57.244,11.69,56.82,11.168,56.82z M11.036,14.271c0.522,0,0.946-0.424,0.946-0.946c0-0.451-0.316-0.827-0.738-0.922
	c-0.378,0.396-0.745,0.804-1.103,1.219C10.267,13.998,10.617,14.271,11.036,14.271z M61.585,16.317c0.112,0,0.22-0.023,0.317-0.059
	c-0.344-0.494-0.701-0.979-1.072-1.454c-0.118,0.159-0.191,0.354-0.191,0.566C60.639,15.894,61.063,16.317,61.585,16.317z
	 M61.585,20.324c0.522,0,0.946-0.424,0.946-0.946c0-0.523-0.424-0.946-0.946-0.946s-0.946,0.423-0.946,0.946
	C60.639,19.9,61.063,20.324,61.585,20.324z M30.372,5.874c0.558-0.088,1.119-0.161,1.686-0.218c0.032-0.094,0.053-0.193,0.053-0.299
	c0-0.522-0.424-0.946-0.946-0.946s-0.946,0.424-0.946,0.946C30.218,5.549,30.275,5.726,30.372,5.874z M58.646,17.378
	c0.221,0.295,0.431,0.597,0.64,0.898c0.097,0.034,0.198,0.056,0.308,0.056c0.522,0,0.946-0.424,0.946-0.946
	c0-0.521-0.424-0.946-0.946-0.946C59.073,16.439,58.65,16.859,58.646,17.378z M56.35,13.479c0-0.523-0.424-0.947-0.945-0.947
	c-0.338,0-0.633,0.179-0.801,0.445c0.463,0.411,0.912,0.834,1.348,1.272C56.191,14.077,56.35,13.797,56.35,13.479z M55.594,10.28
	c0.25,0,0.477-0.099,0.645-0.257c-0.473-0.403-0.959-0.794-1.453-1.17c-0.084,0.142-0.137,0.304-0.137,0.48
	C54.646,9.856,55.07,10.28,55.594,10.28z M59.594,14.317c0.247,0,0.471-0.097,0.639-0.253c-0.399-0.483-0.815-0.954-1.246-1.414
	c-0.204,0.174-0.34,0.431-0.34,0.721C58.646,13.894,59.07,14.317,59.594,14.317z M67.652,34.512c0.043,0,0.086-0.007,0.127-0.013
	c-0.008-0.629-0.034-1.255-0.078-1.875c-0.018-0.001-0.032-0.005-0.049-0.005c-0.522,0-0.946,0.424-0.946,0.946
	C66.706,34.089,67.13,34.512,67.652,34.512z M67.479,30.495c-0.082-0.588-0.178-1.171-0.289-1.749
	c-0.287,0.162-0.481,0.467-0.481,0.82C66.706,30.029,67.039,30.413,67.479,30.495z M65.639,24.217c0.109,0,0.213-0.023,0.313-0.058
	c-0.209-0.596-0.435-1.184-0.677-1.763c-0.342,0.142-0.584,0.479-0.584,0.874C64.691,23.793,65.115,24.217,65.639,24.217z
	 M63.577,24.567c-0.351,0-0.651,0.191-0.815,0.474c0.159,0.443,0.309,0.892,0.446,1.345c0.112,0.048,0.237,0.074,0.369,0.074
	c0.522,0,0.946-0.424,0.946-0.946S64.1,24.567,63.577,24.567z M63.797,28.647c0.122,0.56,0.232,1.122,0.323,1.692
	c0.243-0.171,0.403-0.453,0.403-0.773C64.523,29.119,64.213,28.747,63.797,28.647z M8.114,17.5c0-0.301-0.144-0.566-0.362-0.739
	c-0.348,0.519-0.68,1.048-0.998,1.586c0.125,0.063,0.265,0.1,0.414,0.1C7.69,18.446,8.114,18.023,8.114,17.5z M21.196,6.304
	c-0.522,0-0.946,0.424-0.946,0.946c0,0.523,0.424,0.946,0.946,0.946c0.523,0,0.946-0.423,0.946-0.946
	C22.143,6.728,21.72,6.304,21.196,6.304z M11.982,15.432c0,0.29,0.134,0.547,0.339,0.721c0.402-0.483,0.824-0.95,1.256-1.407
	c-0.169-0.16-0.396-0.26-0.648-0.26C12.406,14.485,11.982,14.909,11.982,15.432z M13.074,12.227c0.522,0,0.946-0.424,0.946-0.946
	c0-0.426-0.283-0.782-0.67-0.901c-0.409,0.36-0.809,0.729-1.198,1.109C12.247,11.91,12.623,12.227,13.074,12.227z M11.036,16.378
	c-0.522,0-0.946,0.424-0.946,0.946c0,0.424,0.279,0.777,0.662,0.898c0.34-0.49,0.695-0.967,1.063-1.435
	C11.644,16.54,11.359,16.378,11.036,16.378z M8.838,20.469c0.257,0,0.488-0.103,0.658-0.268c0.086-0.148,0.167-0.299,0.256-0.445
	c0.02-0.074,0.032-0.152,0.032-0.233c0-0.522-0.423-0.946-0.946-0.946c-0.522,0-0.946,0.424-0.946,0.946S8.315,20.469,8.838,20.469z
	 M9.206,16.378c0.522,0,0.946-0.424,0.946-0.946c0-0.453-0.319-0.832-0.745-0.924c-0.356,0.444-0.702,0.898-1.035,1.362
	C8.53,16.171,8.842,16.378,9.206,16.378z M16.497,12.043c0.468-0.378,0.949-0.739,1.44-1.088c-0.133-0.362-0.478-0.621-0.885-0.621
	c-0.523,0-0.947,0.423-0.947,0.946C16.105,11.595,16.261,11.871,16.497,12.043z M19.076,10.186c0.297-0.191,0.597-0.38,0.901-0.561
	c0.052-0.117,0.082-0.246,0.082-0.383c0-0.522-0.424-0.946-0.946-0.946c-0.523,0-0.947,0.424-0.947,0.946
	C18.166,9.752,18.57,10.165,19.076,10.186z M23.28,6.182c0.522,0,0.946-0.424,0.946-0.946c0-0.463-0.334-0.848-0.773-0.929
	c-0.313,0.117-0.623,0.24-0.931,0.366c-0.117,0.158-0.188,0.352-0.188,0.563C22.334,5.758,22.757,6.182,23.28,6.182z M26.084,3.44
	c-0.514,0.146-1.022,0.303-1.526,0.472c0.166,0.143,0.379,0.232,0.615,0.232C25.611,4.145,25.977,3.845,26.084,3.44z M14.967,10.188
	c0.522,0,0.946-0.424,0.946-0.946c0-0.271-0.115-0.513-0.297-0.686c-0.502,0.368-0.993,0.749-1.473,1.145
	C14.306,9.99,14.611,10.188,14.967,10.188z M17.221,8.296c0.522,0,0.945-0.424,0.945-0.946c0-0.154-0.04-0.298-0.105-0.427
	C17.525,7.247,17,7.586,16.485,7.939C16.659,8.155,16.922,8.296,17.221,8.296z M29.271,4.145c0.522,0,0.946-0.424,0.946-0.946
	c0-0.231-0.086-0.44-0.224-0.605c-0.542,0.083-1.079,0.18-1.611,0.288c-0.035,0.1-0.058,0.205-0.058,0.317
	C28.325,3.721,28.748,4.145,29.271,4.145z M57.775,54.813c-0.521,0-0.945,0.424-0.945,0.946s0.424,0.946,0.945,0.946
	c0.522,0,0.947-0.424,0.947-0.946S58.3,54.813,57.775,54.813z M62.021,46.811c-0.252,0.576-0.522,1.144-0.813,1.698
	c0.107,0.044,0.229,0.069,0.354,0.069c0.521,0,0.944-0.424,0.944-0.946C62.509,47.277,62.313,46.973,62.021,46.811z M57.578,12.279
	c0.292,0,0.551-0.135,0.724-0.343c-0.44-0.445-0.895-0.879-1.36-1.299c-0.188,0.173-0.31,0.42-0.31,0.695
	C56.632,11.856,57.057,12.279,57.578,12.279z M59.67,52.753c-0.523,0-0.947,0.423-0.947,0.946c0,0.521,0.424,0.945,0.947,0.945
	c0.521,0,0.946-0.424,0.946-0.945C60.616,53.176,60.191,52.753,59.67,52.753z M23.906,62.324c-0.574-0.233-1.144-0.479-1.7-0.747
	c-0.016,0.067-0.025,0.14-0.025,0.212c0,0.521,0.423,0.945,0.946,0.945C23.451,62.734,23.736,62.572,23.906,62.324z M55.441,56.988
	c-0.523,0-0.946,0.424-0.946,0.945c0,0.522,0.423,0.945,0.946,0.945c0.521,0,0.945-0.423,0.945-0.945
	C56.389,57.412,55.964,56.988,55.441,56.988z M58.434,15.371c0-0.523-0.424-0.946-0.945-0.946c-0.379,0-0.7,0.222-0.854,0.542
	c0.395,0.424,0.775,0.855,1.145,1.301C58.156,16.145,58.434,15.792,58.434,15.371z M51.419,60.941c-0.522,0-0.946,0.424-0.946,0.947
	c0,0.521,0.424,0.944,0.946,0.944s0.946-0.424,0.946-0.944C52.365,61.365,51.941,60.941,51.419,60.941z M51.45,8.388
	c-0.523,0-0.946,0.423-0.946,0.946c0,0.522,0.423,0.946,0.946,0.946c0.522,0,0.946-0.424,0.946-0.946
	C52.396,8.811,51.973,8.388,51.45,8.388z M53.549,58.881c-0.523,0-0.947,0.424-0.947,0.947c0,0.521,0.424,0.945,0.947,0.945
	c0.521,0,0.946-0.424,0.946-0.945C54.495,59.305,54.07,58.881,53.549,58.881z M54.457,11.333c0-0.522-0.424-0.946-0.945-0.946
	c-0.517,0-0.935,0.413-0.945,0.927c0.404,0.3,0.805,0.609,1.19,0.93C54.159,12.134,54.457,11.771,54.457,11.333z M53.512,8.388
	c0.17,0,0.327-0.049,0.465-0.128c-0.457-0.325-0.925-0.639-1.398-0.941C52.572,7.36,52.564,7.4,52.564,7.442
	C52.564,7.964,52.986,8.388,53.512,8.388z M65.639,34.726c-0.521,0-0.947,0.424-0.947,0.946c0,0.523,0.426,0.946,0.947,0.946
	s0.945-0.423,0.945-0.946C66.584,35.149,66.16,34.726,65.639,34.726z M61.709,22.496c0.229,0.487,0.441,0.982,0.645,1.483
	c0.111-0.155,0.18-0.344,0.18-0.549C62.531,22.95,62.173,22.558,61.709,22.496z M49.525,63.048c-0.522,0-0.945,0.425-0.945,0.947
	c0,0.28,0.125,0.53,0.32,0.705c0.529-0.248,1.051-0.509,1.563-0.784C50.424,63.432,50.021,63.048,49.525,63.048z M65.639,38.801
	c-0.521,0-0.947,0.424-0.947,0.947c0,0.521,0.426,0.945,0.947,0.945s0.945-0.424,0.945-0.945
	C66.584,39.225,66.16,38.801,65.639,38.801z M65.639,42.801c-0.521,0-0.947,0.424-0.947,0.946s0.426,0.946,0.947,0.946
	c0.379,0,0.701-0.226,0.854-0.545c0.024-0.094,0.054-0.188,0.077-0.278c0.008-0.041,0.015-0.081,0.015-0.123
	C66.584,43.225,66.16,42.801,65.639,42.801z M66.706,37.48c0,0.509,0.401,0.918,0.903,0.94c0.063-0.621,0.111-1.248,0.141-1.879
	c-0.032-0.003-0.063-0.01-0.098-0.01C67.13,36.534,66.706,36.958,66.706,37.48z M65.639,26.56c-0.521,0-0.947,0.423-0.947,0.946
	c0,0.522,0.426,0.946,0.947,0.946s0.945-0.424,0.945-0.946C66.584,26.982,66.16,26.56,65.639,26.56z M65.639,30.727
	c-0.521,0-0.947,0.423-0.947,0.946c0,0.522,0.426,0.946,0.947,0.946s0.945-0.424,0.945-0.946
	C66.584,31.149,66.16,30.727,65.639,30.727z M63.479,22.431c0.522,0,0.946-0.424,0.946-0.946c0-0.523-0.424-0.946-0.946-0.946
	c-0.521,0-0.945,0.423-0.945,0.946C62.531,22.007,62.955,22.431,63.479,22.431z M64.305,38.281c0.202-0.174,0.334-0.428,0.334-0.717
	c0-0.229-0.084-0.438-0.221-0.602C64.389,37.406,64.354,37.846,64.305,38.281z M63.577,48.837c-0.522,0-0.946,0.424-0.946,0.947
	c0,0.522,0.424,0.946,0.946,0.946c0.071,0,0.144-0.01,0.21-0.025c0.23-0.422,0.451-0.852,0.664-1.284
	C64.309,49.078,63.973,48.837,63.577,48.837z M63.577,44.693c-0.522,0-0.946,0.424-0.946,0.945s0.424,0.945,0.946,0.945
	s0.946-0.424,0.946-0.945S64.1,44.693,63.577,44.693z M63.923,40.761c-0.121,0.613-0.262,1.22-0.421,1.818
	c0.025,0.002,0.05,0.008,0.075,0.008c0.522,0,0.946-0.424,0.946-0.946C64.523,41.24,64.273,40.898,63.923,40.761z M61.563,50.989
	c-0.521,0-0.944,0.424-0.944,0.946c0,0.521,0.423,0.945,0.944,0.945c0.522,0,0.946-0.424,0.946-0.945
	C62.509,51.413,62.085,50.989,61.563,50.989z M31.256,65.086c-0.523,0-0.947,0.424-0.947,0.946s0.424,0.946,0.947,0.946
	c0.522,0,0.946-0.424,0.946-0.946S31.778,65.086,31.256,65.086z M33.369,64.941c0.349,0,0.65-0.191,0.814-0.475
	c-0.563-0.015-1.123-0.045-1.679-0.092C32.651,64.709,32.983,64.941,33.369,64.941z M33.271,67.094c-0.397,0-0.735,0.244-0.876,0.59
	c0.589,0.047,1.183,0.078,1.78,0.094C34.061,67.383,33.701,67.094,33.271,67.094z M33.33,2.255
	c-0.063,0.003-0.124,0.008-0.187,0.012c-0.451,0.072-0.797,0.459-0.797,0.932c0,0.522,0.424,0.946,0.947,0.946
	c0.522,0,0.946-0.424,0.946-0.946C34.24,2.688,33.836,2.275,33.33,2.255z M49.458,8.196c0.522,0,0.946-0.423,0.946-0.946
	c0-0.522-0.424-0.946-0.946-0.946s-0.946,0.424-0.946,0.946C48.512,7.773,48.936,8.196,49.458,8.196z M35.263,65.086
	c-0.523,0-0.947,0.424-0.947,0.946s0.424,0.946,0.947,0.946c0.522,0,0.946-0.424,0.946-0.946S35.785,65.086,35.263,65.086z
	 M35.309,4.411c-0.523,0-0.947,0.424-0.947,0.946c0,0.058,0.008,0.113,0.018,0.168C34.586,5.521,34.792,5.51,35,5.51
	c0.415,0,0.826,0.015,1.236,0.031c0.012-0.06,0.019-0.12,0.019-0.184C36.255,4.835,35.831,4.411,35.309,4.411z M23.356,64.941
	c-0.323,0-0.607,0.162-0.778,0.408c0.563,0.229,1.135,0.445,1.713,0.646c0.005-0.036,0.012-0.071,0.012-0.108
	C24.303,65.364,23.879,64.941,23.356,64.941z M25.808,63.021c-0.183-0.063-0.365-0.123-0.547-0.188
	c-0.005,0-0.008-0.001-0.012-0.001c-0.523,0-0.946,0.423-0.946,0.944c0,0.522,0.423,0.947,0.946,0.947
	c0.522,0,0.946-0.425,0.946-0.947C26.195,63.469,26.042,63.193,25.808,63.021z M28.348,63.995c0,0.522,0.423,0.946,0.946,0.946
	c0.486,0,0.883-0.369,0.936-0.842c-0.621-0.103-1.234-0.226-1.842-0.363C28.363,63.818,28.348,63.904,28.348,63.995z M27.173,4.289
	c-0.523,0-0.947,0.424-0.947,0.946s0.424,0.946,0.947,0.946c0.522,0,0.946-0.424,0.946-0.946S27.695,4.289,27.173,4.289z
	 M27.142,64.941c-0.522,0-0.946,0.423-0.946,0.944c0,0.371,0.216,0.689,0.527,0.847c0.133,0.033,0.267,0.064,0.4,0.1
	c0.006,0,0.012,0.002,0.019,0.002c0.522,0,0.946-0.424,0.946-0.945C28.088,65.364,27.664,64.941,27.142,64.941z M37.414,66.979
	c-0.463,0-0.848,0.334-0.93,0.773c0.611-0.027,1.22-0.07,1.822-0.13C38.18,67.248,37.83,66.979,37.414,66.979z M46.26,7.25
	c0-0.522-0.423-0.946-0.945-0.946c-0.453,0-0.83,0.317-0.924,0.742c0.594,0.199,1.178,0.415,1.754,0.649
	C46.216,7.563,46.26,7.412,46.26,7.25z M45.428,63.048c-0.521,0-0.945,0.425-0.945,0.947s0.425,0.946,0.945,0.946
	c0.523,0,0.946-0.424,0.946-0.946S45.951,63.048,45.428,63.048z M43.391,65.086c-0.521,0-0.947,0.424-0.947,0.946
	c0,0.337,0.179,0.63,0.441,0.798c0.451-0.111,0.897-0.23,1.342-0.361c0.067-0.131,0.11-0.277,0.11-0.437
	C44.337,65.51,43.913,65.086,43.391,65.086z M46.536,62.146c0.112,0.396,0.474,0.688,0.907,0.688c0.521,0,0.945-0.424,0.945-0.945
	c0-0.197-0.062-0.382-0.164-0.533C47.671,61.635,47.109,61.902,46.536,62.146z M47.063,4.504C46.743,4.655,46.52,4.98,46.52,5.358
	c0,0.522,0.424,0.946,0.945,0.946c0.523,0,0.946-0.424,0.946-0.946c0-0.108-0.021-0.211-0.056-0.308
	C47.93,4.859,47.499,4.677,47.063,4.504z M43.346,6.304c0.521,0,0.945-0.424,0.945-0.946s-0.424-0.946-0.945-0.946
	s-0.947,0.424-0.947,0.946S42.822,6.304,43.346,6.304z M40.473,63.977c0.09,0.428,0.469,0.752,0.926,0.752
	c0.522,0,0.947-0.424,0.947-0.945c0-0.072-0.011-0.143-0.025-0.208C41.712,63.729,41.096,63.857,40.473,63.977z M37.742,2.328
	c-0.202-0.017-0.404-0.031-0.607-0.044c-0.408,0.104-0.712,0.473-0.712,0.914c0,0.522,0.423,0.946,0.946,0.946
	c0.521,0,0.945-0.424,0.945-0.946C38.314,2.808,38.079,2.473,37.742,2.328z M40.088,5.956c0.135-0.163,0.221-0.37,0.221-0.599
	c0-0.522-0.425-0.946-0.947-0.946c-0.521,0-0.945,0.424-0.945,0.946c0,0.13,0.025,0.253,0.073,0.365
	C39.025,5.786,39.561,5.864,40.088,5.956z M37.414,64.941c0.415,0,0.764-0.271,0.893-0.643c-0.568,0.063-1.142,0.115-1.72,0.146
	C36.748,64.739,37.057,64.941,37.414,64.941z M40.645,2.698c-0.092,0.146-0.146,0.315-0.146,0.5c0,0.522,0.424,0.946,0.944,0.946
	c0.522,0,0.947-0.424,0.947-0.946c0-0.052-0.008-0.103-0.017-0.152C41.805,2.915,41.227,2.8,40.645,2.698z M39.406,65.086
	c-0.522,0-0.946,0.424-0.946,0.946s0.424,0.946,0.946,0.946c0.521,0,0.945-0.424,0.945-0.946
	C40.354,65.51,39.93,65.086,39.406,65.086z" changeable="0"/>
<path style="fill:#602C80" d="M42.215,5.357c0,0.623,0.508,1.13,1.131,1.13c0.622,0,1.129-0.507,1.129-1.13s-0.507-1.13-1.129-1.13
	C42.723,4.227,42.215,4.734,42.215,5.357z M43.346,4.594c0.42,0,0.764,0.343,0.764,0.764s-0.344,0.764-0.764,0.764
	c-0.422,0-0.765-0.343-0.765-0.764S42.924,4.594,43.346,4.594z M37.414,64.758c-0.258,0-0.486-0.13-0.625-0.326h-0.001
	c-0.134,0.008-0.269,0.02-0.403,0.023c0.178,0.395,0.571,0.669,1.029,0.669c0.525,0,0.965-0.362,1.09-0.849
	c-0.136,0.017-0.27,0.037-0.406,0.052C37.975,64.581,37.716,64.758,37.414,64.758z M38.289,5.697
	c0.038,0.004,0.076,0.01,0.113,0.014c0.104,0.014,0.205,0.026,0.308,0.039c-0.069-0.115-0.112-0.248-0.112-0.393
	c0-0.421,0.342-0.764,0.764-0.764s0.765,0.343,0.765,0.764c0,0.223-0.099,0.421-0.25,0.561c0.142,0.023,0.278,0.05,0.42,0.075
	c0.123-0.182,0.196-0.399,0.196-0.636c0-0.623-0.508-1.13-1.131-1.13s-1.129,0.507-1.129,1.13
	C38.23,5.477,38.255,5.589,38.289,5.697z M41.443,4.327c0.623,0,1.131-0.507,1.131-1.129c0-0.037-0.008-0.071-0.012-0.107l0,0
	c-0.127-0.029-0.256-0.059-0.383-0.087c0.016,0.062,0.026,0.126,0.026,0.194c0,0.42-0.345,0.763-0.765,0.763
	c-0.422,0-0.764-0.343-0.764-0.763c0-0.177,0.063-0.336,0.162-0.466c-0.121-0.021-0.244-0.041-0.367-0.062
	c-0.008-0.001-0.016-0.003-0.021-0.004c-0.086,0.159-0.141,0.338-0.141,0.531C40.314,3.82,40.82,4.327,41.443,4.327z M50.479,9.898
	c0.291,0.18,0.58,0.364,0.863,0.554c0.036,0.004,0.071,0.012,0.108,0.012c0.623,0,1.129-0.507,1.129-1.13s-0.506-1.13-1.129-1.13
	s-1.13,0.507-1.13,1.13C50.32,9.54,50.38,9.731,50.479,9.898z M51.45,8.57c0.421,0,0.763,0.343,0.763,0.764
	s-0.342,0.763-0.763,0.763s-0.765-0.342-0.765-0.763S51.029,8.57,51.45,8.57z M63.577,44.51c-0.298,0-0.565,0.118-0.767,0.307
	c-0.002,0.002-0.002,0.002-0.002,0.004c-0.11,0.313-0.229,0.619-0.349,0.928c-0.001,0.002-0.002,0.004-0.003,0.007
	c0.059,0.568,0.534,1.019,1.118,1.019c0.623,0,1.13-0.508,1.13-1.131S64.2,44.51,63.577,44.51z M63.577,46.402
	c-0.421,0-0.765-0.342-0.765-0.764s0.344-0.765,0.765-0.765s0.764,0.343,0.764,0.765S63.998,46.402,63.577,46.402z M49.458,8.38
	c0.623,0,1.13-0.507,1.13-1.13c0-0.622-0.507-1.129-1.13-1.129s-1.13,0.507-1.13,1.129C48.328,7.873,48.835,8.38,49.458,8.38z
	 M49.458,6.487c0.421,0,0.763,0.342,0.763,0.763s-0.342,0.764-0.763,0.764s-0.765-0.343-0.765-0.764S49.037,6.487,49.458,6.487z
	 M44.38,7.042c0.062,0.021,0.124,0.042,0.187,0.063c0.067-0.352,0.377-0.618,0.748-0.618c0.42,0,0.765,0.342,0.765,0.763
	c0,0.139-0.04,0.267-0.104,0.378c0.113,0.046,0.229,0.088,0.342,0.135c0.08-0.154,0.129-0.327,0.129-0.513
	c0-0.622-0.508-1.129-1.131-1.129c-0.529,0-0.977,0.371-1.096,0.866C44.271,7.006,44.326,7.024,44.38,7.042z M47.466,6.487
	c0.623,0,1.13-0.507,1.13-1.13c0-0.071-0.009-0.142-0.021-0.21c0,0,0,0,0-0.001c-0.156-0.07-0.313-0.139-0.472-0.208
	c0.08,0.12,0.127,0.265,0.127,0.419c0,0.421-0.344,0.764-0.766,0.764c-0.421,0-0.763-0.343-0.763-0.764
	c0-0.371,0.266-0.681,0.616-0.749c-0.004-0.001-0.006-0.002-0.01-0.003c-0.156-0.063-0.313-0.126-0.471-0.188
	c-0.304,0.203-0.505,0.548-0.505,0.939C46.336,5.98,46.844,6.487,47.466,6.487z M30.034,5.357c0,0.201,0.058,0.387,0.149,0.551
	c0.003-0.001,0.006-0.001,0.009-0.002c0.128-0.021,0.255-0.046,0.384-0.064c0.001,0,0.001-0.001,0.002-0.001
	C30.469,5.709,30.4,5.542,30.4,5.357c0-0.421,0.343-0.764,0.764-0.764s0.764,0.343,0.764,0.764c0,0.115-0.028,0.224-0.074,0.321
	h0.001c0.132-0.014,0.266-0.024,0.398-0.037c0.023-0.091,0.041-0.186,0.041-0.284c0-0.623-0.507-1.13-1.13-1.13
	S30.034,4.734,30.034,5.357z M27.173,6.365c0.622,0,1.129-0.507,1.129-1.13c0-0.622-0.507-1.13-1.129-1.13
	c-0.623,0-1.13,0.508-1.13,1.13C26.043,5.858,26.55,6.365,27.173,6.365z M27.173,4.473c0.42,0,0.763,0.342,0.763,0.763
	C27.936,5.657,27.593,6,27.173,6c-0.422,0-0.764-0.343-0.764-0.764C26.409,4.815,26.751,4.473,27.173,4.473z M29.271,4.327
	c0.623,0,1.129-0.507,1.129-1.129c0-0.235-0.072-0.454-0.195-0.635c-0.142,0.021-0.283,0.042-0.425,0.064
	c-0.002,0.001-0.003,0.001-0.005,0.001c0.157,0.14,0.259,0.342,0.259,0.569c0,0.42-0.342,0.763-0.763,0.763
	s-0.764-0.343-0.764-0.763c0-0.131,0.036-0.252,0.094-0.359c-0.141,0.028-0.281,0.057-0.422,0.087h-0.001
	c-0.022,0.088-0.037,0.178-0.037,0.272C28.142,3.82,28.648,4.327,29.271,4.327z M26.283,3.387c-0.136,0.037-0.272,0.075-0.407,0.114
	c-0.001,0-0.003,0.001-0.004,0.001c-0.118,0.27-0.387,0.459-0.699,0.459c-0.148,0-0.286-0.044-0.403-0.118l-0.022,0.008
	c-0.128,0.042-0.256,0.084-0.384,0.128c-0.001,0-0.002,0-0.003,0.001c0.206,0.213,0.493,0.348,0.813,0.348
	C25.731,4.327,26.193,3.92,26.283,3.387z M23.28,6.365c0.623,0,1.129-0.507,1.129-1.13c0-0.462-0.279-0.859-0.679-1.034
	c-0.496,0.182-0.988,0.376-1.474,0.58c-0.004,0.002-0.008,0.004-0.013,0.006c-0.06,0.138-0.094,0.289-0.094,0.448
	C22.15,5.858,22.657,6.365,23.28,6.365z M23.28,4.473c0.421,0,0.763,0.342,0.763,0.763C24.043,5.657,23.701,6,23.28,6
	c-0.421,0-0.764-0.343-0.764-0.764C22.516,4.815,22.859,4.473,23.28,4.473z M59.67,52.568c-0.623,0-1.13,0.508-1.13,1.131
	s0.507,1.129,1.13,1.129s1.129-0.506,1.129-1.129S60.293,52.568,59.67,52.568z M59.67,54.462c-0.421,0-0.764-0.342-0.764-0.763
	c0-0.422,0.343-0.764,0.764-0.764s0.764,0.342,0.764,0.764C60.434,54.12,60.091,54.462,59.67,54.462z M33.369,64.758
	c-0.274,0-0.513-0.146-0.647-0.363c-0.007,0-0.014-0.002-0.02-0.002c-0.132-0.011-0.265-0.019-0.396-0.028
	c0.153,0.44,0.569,0.762,1.063,0.762c0.451,0,0.838-0.269,1.019-0.647c-0.141-0.004-0.281-0.006-0.421-0.013
	C33.827,64.643,33.612,64.758,33.369,64.758z M37.369,4.327c0.623,0,1.129-0.507,1.129-1.129c0-0.333-0.146-0.63-0.376-0.836
	c-0.458-0.044-0.918-0.079-1.38-0.104c-0.303,0.203-0.504,0.548-0.504,0.939C36.238,3.82,36.746,4.327,37.369,4.327z M37.369,2.435
	c0.421,0,0.763,0.342,0.763,0.764c0,0.42-0.342,0.763-0.763,0.763s-0.764-0.343-0.764-0.763C36.605,2.776,36.948,2.435,37.369,2.435
	z M33.294,4.327c0.622,0,1.129-0.507,1.129-1.129c0-0.41-0.221-0.766-0.548-0.964c-0.422,0.014-0.842,0.035-1.26,0.065
	c-0.272,0.207-0.451,0.53-0.451,0.898C32.164,3.82,32.671,4.327,33.294,4.327z M33.294,2.435c0.42,0,0.763,0.342,0.763,0.764
	c0,0.42-0.343,0.763-0.763,0.763c-0.422,0-0.764-0.343-0.764-0.763C32.53,2.776,32.872,2.435,33.294,2.435z M34.196,5.53
	c0.122-0.003,0.244-0.008,0.367-0.009c-0.012-0.054-0.019-0.107-0.019-0.164c0-0.421,0.343-0.764,0.764-0.764
	c0.42,0,0.762,0.343,0.762,0.764c0,0.063-0.008,0.121-0.022,0.179c0.123,0.005,0.248,0.004,0.371,0.01
	c0.011-0.062,0.019-0.124,0.019-0.188c0-0.623-0.506-1.13-1.127-1.13c-0.623,0-1.13,0.507-1.13,1.13
	C34.179,5.417,34.188,5.474,34.196,5.53z M63.577,48.654c-0.623,0-1.13,0.507-1.13,1.13s0.507,1.129,1.13,1.129
	c0.034,0,0.065-0.007,0.099-0.011c0.002-0.002,0.004-0.004,0.006-0.008c0.077-0.144,0.156-0.285,0.233-0.429
	c0-0.001,0.001-0.003,0.001-0.004c-0.104,0.054-0.217,0.083-0.339,0.083c-0.421,0-0.765-0.342-0.765-0.763
	c0-0.423,0.344-0.765,0.765-0.765c0.381,0,0.694,0.28,0.751,0.646c0.023-0.045,0.045-0.091,0.066-0.135
	c0.053-0.104,0.104-0.207,0.154-0.313C64.355,48.884,63.994,48.654,63.577,48.654z M61.563,50.807c-0.623,0-1.129,0.508-1.129,1.131
	c0,0.621,0.506,1.129,1.129,1.129s1.131-0.508,1.131-1.129C62.691,51.313,62.186,50.807,61.563,50.807z M61.563,52.699
	c-0.42,0-0.764-0.344-0.764-0.764c0-0.422,0.344-0.765,0.764-0.765c0.422,0,0.765,0.343,0.765,0.765
	C62.325,52.355,61.982,52.699,61.563,52.699z M66.523,37.48c0,0.602,0.473,1.09,1.063,1.123c0.015-0.121,0.026-0.242,0.038-0.362
	c-0.408-0.015-0.736-0.349-0.736-0.761c0-0.422,0.342-0.765,0.764-0.765c0.031,0,0.06,0.007,0.09,0.011v-0.004
	c0.006-0.119,0.01-0.24,0.015-0.361c-0.034-0.004-0.067-0.01-0.104-0.01C67.029,36.352,66.523,36.857,66.523,37.48z M21.196,8.38
	c0.623,0,1.13-0.507,1.13-1.13c0-0.622-0.507-1.129-1.13-1.129c-0.622,0-1.13,0.507-1.13,1.129
	C20.066,7.873,20.574,8.38,21.196,8.38z M21.196,6.487c0.421,0,0.764,0.342,0.764,0.763s-0.343,0.764-0.764,0.764
	c-0.421,0-0.763-0.343-0.763-0.764S20.775,6.487,21.196,6.487z M65.639,36.802c0.623,0,1.129-0.507,1.129-1.13
	c0-0.622-0.507-1.13-1.129-1.13c-0.623,0-1.131,0.508-1.131,1.13C64.508,36.295,65.016,36.802,65.639,36.802z M65.639,34.909
	c0.42,0,0.764,0.342,0.764,0.763s-0.344,0.764-0.764,0.764c-0.422,0-0.764-0.343-0.764-0.764S65.217,34.909,65.639,34.909z
	 M64.436,36.723c-0.01,0.185-0.025,0.363-0.041,0.547c0.039,0.09,0.063,0.19,0.063,0.297c0,0.146-0.043,0.277-0.113,0.395
	c-0.019,0.189-0.047,0.379-0.068,0.566v0.002c0.328-0.196,0.55-0.555,0.55-0.963C64.82,37.229,64.67,36.93,64.436,36.723z
	 M64.508,27.506c0,0.623,0.508,1.129,1.131,1.129s1.129-0.506,1.129-1.129s-0.507-1.13-1.129-1.13
	C65.016,26.376,64.508,26.883,64.508,27.506z M66.4,27.506c0,0.421-0.342,0.763-0.764,0.763s-0.764-0.342-0.764-0.763
	s0.342-0.764,0.764-0.764S66.4,27.085,66.4,27.506z M65.639,38.618c-0.623,0-1.131,0.507-1.131,1.13
	c0,0.622,0.508,1.129,1.131,1.129s1.129-0.507,1.129-1.129C66.768,39.125,66.262,38.618,65.639,38.618z M65.639,40.511
	c-0.422,0-0.764-0.343-0.764-0.763c0-0.422,0.342-0.764,0.764-0.764c0.42,0,0.764,0.342,0.764,0.764
	C66.4,40.168,66.059,40.511,65.639,40.511z M64.707,41.641c0-0.488-0.314-0.901-0.752-1.06c-0.021,0.112-0.037,0.228-0.061,0.339
	c-0.002,0.008-0.002,0.018-0.004,0.025c0.264,0.121,0.448,0.386,0.448,0.695c0,0.42-0.343,0.762-0.764,0.762
	c-0.011,0-0.017-0.002-0.024-0.002c-0.029,0.119-0.066,0.235-0.101,0.354c0.041,0.005,0.082,0.015,0.125,0.015
	C64.2,42.77,64.707,42.264,64.707,41.641z M53.512,8.57c0.231,0,0.448-0.07,0.629-0.191c-0.107-0.079-0.219-0.156-0.328-0.233
	l-0.004-0.002c-0.092,0.039-0.19,0.061-0.297,0.061c-0.422,0-0.765-0.342-0.765-0.763c0-0.005,0.001-0.009,0.002-0.013
	c-0.003-0.002-0.005-0.003-0.008-0.005c-0.111-0.071-0.226-0.142-0.337-0.212c-0.016,0.073-0.023,0.15-0.023,0.229
	C52.381,8.064,52.889,8.57,53.512,8.57z M63.577,26.277c-0.168,0-0.321-0.057-0.447-0.148c0.05,0.154,0.093,0.311,0.138,0.466
	c0.101,0.028,0.203,0.049,0.312,0.049c0.623,0,1.13-0.507,1.13-1.13s-0.507-1.13-1.13-1.13c-0.363,0-0.685,0.176-0.892,0.442
	c0,0,0,0,0,0.001c0.059,0.155,0.106,0.314,0.162,0.471c0.094-0.315,0.383-0.548,0.729-0.548c0.421,0,0.764,0.343,0.764,0.764
	C64.342,25.935,63.998,26.277,63.577,26.277z M61.563,48.395c-0.094,0-0.184-0.02-0.267-0.051c-0.013,0.025-0.024,0.051-0.038,0.075
	c-0.044,0.085-0.086,0.171-0.131,0.255c0.135,0.057,0.281,0.088,0.436,0.088c0.623,0,1.131-0.507,1.131-1.13
	c0-0.428-0.242-0.797-0.596-0.987c-0.048,0.111-0.101,0.223-0.148,0.332c0.226,0.133,0.378,0.375,0.378,0.655
	C62.325,48.053,61.982,48.395,61.563,48.395z M66.523,33.565c0,0.623,0.506,1.13,1.129,1.13c0.045,0,0.088-0.009,0.131-0.014
	c-0.001-0.122-0.002-0.244-0.006-0.365c-0.041,0.007-0.082,0.013-0.125,0.013c-0.422,0-0.764-0.343-0.764-0.764
	s0.342-0.763,0.764-0.763c0.021,0,0.039,0.004,0.06,0.006c-0.008-0.123-0.015-0.246-0.024-0.369c-0.012,0-0.021-0.004-0.035-0.004
	C67.029,32.436,66.523,32.943,66.523,33.565z M61.622,22.305c0.049,0.101,0.092,0.204,0.14,0.306
	c0.014,0.031,0.026,0.062,0.04,0.092c0.315,0.095,0.548,0.383,0.548,0.729c0,0.12-0.031,0.232-0.08,0.333
	c0.057,0.136,0.106,0.273,0.16,0.409c0.176-0.198,0.285-0.457,0.285-0.742C62.715,22.82,62.229,22.324,61.622,22.305z
	 M65.639,32.803c0.623,0,1.129-0.507,1.129-1.13s-0.507-1.13-1.129-1.13c-0.623,0-1.131,0.507-1.131,1.13
	S65.016,32.803,65.639,32.803z M65.639,30.909c0.42,0,0.764,0.343,0.764,0.764s-0.344,0.763-0.764,0.763
	c-0.422,0-0.764-0.342-0.764-0.763S65.217,30.909,65.639,30.909z M63.752,28.454c0.016,0.071,0.032,0.142,0.049,0.212
	c0.014,0.063,0.03,0.125,0.043,0.188c0.289,0.109,0.497,0.386,0.497,0.713c0,0.227-0.101,0.428-0.258,0.567
	c0.002,0.009,0.003,0.018,0.005,0.025c0.021,0.125,0.046,0.247,0.064,0.371c0,0.001,0,0.002,0,0.003
	c0.33-0.198,0.555-0.555,0.555-0.967C64.707,29.003,64.291,28.539,63.752,28.454z M67.504,30.681
	c-0.011-0.079-0.021-0.158-0.033-0.237c-0.008-0.049-0.014-0.097-0.021-0.145c-0.322-0.09-0.562-0.382-0.562-0.732
	c0-0.263,0.133-0.494,0.336-0.632c-0.018-0.085-0.033-0.169-0.051-0.254c-0.008-0.041-0.015-0.081-0.021-0.122
	c-0.371,0.186-0.629,0.565-0.629,1.008C66.523,30.139,66.951,30.606,67.504,30.681z M59.594,14.501c0.291,0,0.555-0.114,0.756-0.296
	c-0.078-0.094-0.156-0.187-0.233-0.279c-0.138,0.128-0.318,0.209-0.521,0.209c-0.422,0-0.765-0.343-0.765-0.764
	c0-0.237,0.11-0.446,0.28-0.587c-0.084-0.089-0.166-0.179-0.25-0.267c-0.24,0.207-0.396,0.511-0.396,0.854
	C58.464,13.994,58.971,14.501,59.594,14.501z M65.639,24.399c0.131,0,0.254-0.026,0.373-0.067c-0.041-0.115-0.08-0.23-0.123-0.345
	c-0.078,0.027-0.162,0.046-0.25,0.046c-0.422,0-0.764-0.343-0.764-0.763c0-0.317,0.193-0.59,0.471-0.705
	c-0.047-0.11-0.091-0.223-0.138-0.333c-0.001-0.002-0.001-0.004-0.002-0.006c-0.409,0.171-0.698,0.574-0.698,1.044
	C64.508,23.893,65.016,24.399,65.639,24.399z M37.414,66.796c-0.564,0-1.031,0.419-1.112,0.963c0.106-0.004,0.214-0.007,0.318-0.012
	c0.019-0.001,0.036-0.001,0.055-0.002c0.082-0.334,0.382-0.583,0.739-0.583c0.318,0,0.593,0.197,0.707,0.477
	c0.123-0.012,0.247-0.021,0.37-0.037C38.352,67.139,37.924,66.796,37.414,66.796z M52.396,11.191L52.396,11.191
	c0.119,0.089,0.242,0.176,0.358,0.265c0.001,0.001,0.003,0.002,0.004,0.003c-0.007-0.041-0.013-0.082-0.013-0.126
	c0-0.421,0.343-0.763,0.766-0.763c0.42,0,0.762,0.342,0.762,0.763c0,0.403-0.313,0.73-0.709,0.758
	c0.119,0.097,0.236,0.194,0.354,0.293c0.421-0.165,0.723-0.572,0.723-1.051c0-0.622-0.508-1.129-1.129-1.129
	C52.938,10.204,52.466,10.636,52.396,11.191z M57.646,16.116c0.084,0.101,0.166,0.201,0.248,0.303c0,0.001,0.002,0.001,0.002,0.002
	c0.42-0.165,0.72-0.572,0.72-1.05c0-0.623-0.507-1.13-1.13-1.13c-0.426,0-0.791,0.239-0.984,0.588
	c0.089,0.095,0.182,0.187,0.27,0.282c0.107-0.293,0.388-0.504,0.717-0.504c0.422,0,0.764,0.343,0.764,0.764
	C58.25,15.736,57.991,16.043,57.646,16.116z M55.594,10.464c0.307,0,0.582-0.123,0.786-0.321c-0.003-0.002-0.006-0.004-0.008-0.006
	c-0.091-0.078-0.185-0.155-0.274-0.232c-0.136,0.118-0.311,0.192-0.504,0.192c-0.421,0-0.763-0.342-0.763-0.763
	c0-0.134,0.038-0.258,0.099-0.368c-0.098-0.075-0.195-0.15-0.293-0.225c-0.107,0.173-0.172,0.375-0.172,0.593
	C54.465,9.957,54.973,10.464,55.594,10.464z M55.82,14.116l0.003,0.003c0.075,0.076,0.149,0.157,0.226,0.233l0.026,0.028
	c0.276-0.206,0.458-0.532,0.458-0.902c0-0.623-0.508-1.13-1.131-1.13c-0.394,0-0.737,0.201-0.939,0.506
	c0.094,0.082,0.189,0.161,0.282,0.244c0.132-0.229,0.376-0.384,0.657-0.384c0.422,0,0.765,0.342,0.765,0.764
	C56.167,13.745,56.027,13.979,55.82,14.116z M62.35,21.484c0,0.623,0.506,1.129,1.129,1.129s1.129-0.506,1.129-1.129
	s-0.506-1.13-1.129-1.13S62.35,20.861,62.35,21.484z M63.479,20.721c0.422,0,0.765,0.343,0.765,0.764
	c0,0.421-0.343,0.763-0.765,0.763c-0.42,0-0.764-0.342-0.764-0.763C62.715,21.064,63.059,20.721,63.479,20.721z M58.484,17.17
	c0.108,0.145,0.218,0.29,0.324,0.437c0.049,0.065,0.099,0.13,0.146,0.196c-0.078-0.12-0.125-0.263-0.125-0.417
	c0-0.421,0.343-0.764,0.764-0.764s0.765,0.343,0.765,0.764c0,0.421-0.344,0.763-0.765,0.763c-0.254,0-0.477-0.125-0.614-0.315
	c0.16,0.221,0.313,0.442,0.467,0.667c0.05,0.007,0.099,0.016,0.147,0.016c0.623,0,1.13-0.507,1.13-1.13
	c0-0.623-0.507-1.13-1.13-1.13C59.045,16.256,58.587,16.65,58.484,17.17z M65.639,42.617c-0.623,0-1.131,0.507-1.131,1.13
	s0.508,1.129,1.131,1.129c0.272,0,0.521-0.101,0.715-0.263c0.123-0.401,0.237-0.807,0.348-1.215
	c0.001-0.004,0.002-0.008,0.004-0.015C66.551,42.939,66.134,42.617,65.639,42.617z M65.639,44.51c-0.422,0-0.764-0.342-0.764-0.763
	s0.342-0.765,0.764-0.765c0.42,0,0.764,0.344,0.764,0.765S66.059,44.51,65.639,44.51z M60.456,19.378
	c0,0.623,0.507,1.129,1.129,1.129c0.623,0,1.13-0.506,1.13-1.129s-0.507-1.13-1.13-1.13C60.963,18.248,60.456,18.755,60.456,19.378z
	 M62.35,19.378c0,0.421-0.344,0.763-0.765,0.763s-0.763-0.342-0.763-0.763s0.342-0.764,0.763-0.764S62.35,18.957,62.35,19.378z
	 M61.585,16.5c0.151,0,0.295-0.03,0.427-0.085c-0.072-0.104-0.145-0.21-0.218-0.313c-0.065,0.019-0.136,0.032-0.209,0.032
	c-0.421,0-0.763-0.342-0.763-0.763c0-0.153,0.046-0.295,0.123-0.415c0-0.001-0.002-0.003-0.002-0.004
	c-0.076-0.098-0.151-0.195-0.229-0.292c-0.159,0.194-0.259,0.44-0.259,0.711C60.456,15.994,60.963,16.5,61.585,16.5z M57.578,12.463
	c0.342,0,0.645-0.155,0.852-0.395c-0.086-0.088-0.17-0.177-0.257-0.263c-0.14,0.176-0.353,0.291-0.595,0.291
	c-0.421,0-0.764-0.343-0.764-0.764c0-0.229,0.104-0.432,0.264-0.571c-0.092-0.083-0.184-0.164-0.273-0.246
	c-0.219,0.206-0.354,0.495-0.354,0.817C56.449,11.956,56.956,12.463,57.578,12.463z M13.061,58.768c-0.185,0-0.355,0.049-0.51,0.127
	c0.098,0.092,0.196,0.185,0.295,0.273c0.068-0.021,0.14-0.035,0.215-0.035c0.421,0,0.763,0.344,0.763,0.764
	c0,0.041-0.006,0.082-0.012,0.121c0.103,0.088,0.204,0.176,0.307,0.262c0.044-0.119,0.071-0.246,0.071-0.383
	C14.189,59.273,13.684,58.768,13.061,58.768z M15.877,57.439c0,0-0.001,0-0.002-0.002c0.049,0.101,0.078,0.211,0.078,0.33
	c0,0.42-0.343,0.762-0.764,0.762s-0.764-0.342-0.764-0.762c0-0.422,0.343-0.766,0.764-0.766c0.08,0,0.156,0.018,0.229,0.039
	l-0.001-0.001c-0.142-0.126-0.283-0.253-0.423-0.382c-0.001-0.001-0.002-0.002-0.003-0.004c-0.528,0.096-0.932,0.556-0.932,1.109
	c0,0.623,0.507,1.129,1.13,1.129c0.607,0,1.101-0.48,1.125-1.084C16.166,57.691,16.022,57.564,15.877,57.439z M45.428,62.865
	c-0.623,0-1.13,0.507-1.13,1.13c0,0.622,0.507,1.129,1.13,1.129s1.131-0.507,1.131-1.129C46.559,63.372,46.051,62.865,45.428,62.865
	z M45.428,64.758c-0.421,0-0.763-0.342-0.763-0.763s0.342-0.765,0.763-0.765c0.422,0,0.764,0.344,0.764,0.765
	S45.85,64.758,45.428,64.758z M18.356,59.896c0-0.301-0.119-0.571-0.311-0.774c-0.121-0.085-0.241-0.17-0.361-0.257
	c-0.14-0.063-0.294-0.1-0.457-0.1c-0.623,0-1.13,0.508-1.13,1.131s0.507,1.129,1.13,1.129S18.356,60.52,18.356,59.896z
	 M17.228,60.659c-0.421,0-0.764-0.343-0.764-0.763c0-0.422,0.343-0.766,0.764-0.766s0.763,0.344,0.763,0.766
	C17.991,60.316,17.648,60.659,17.228,60.659z M48.389,61.273c-0.109,0.056-0.219,0.111-0.33,0.168
	c0.092,0.125,0.147,0.279,0.147,0.447c0,0.42-0.343,0.762-0.763,0.762c-0.358,0-0.657-0.248-0.739-0.58
	c-0.001,0-0.003,0-0.003,0.002c-0.11,0.048-0.221,0.097-0.332,0.144c-0.001,0-0.001,0-0.002,0.001
	c0.142,0.463,0.566,0.801,1.076,0.801c0.621,0,1.129-0.506,1.129-1.129C48.572,61.661,48.504,61.45,48.389,61.273z M9.068,54.744
	c-0.077,0-0.153,0.008-0.227,0.023C8.93,54.884,9.019,55,9.108,55.115c0.402,0.021,0.724,0.352,0.724,0.759
	c0,0.042-0.006,0.083-0.013,0.123c0.038,0.045,0.076,0.09,0.114,0.135c0.056,0.065,0.111,0.132,0.167,0.197
	c0.062-0.14,0.098-0.293,0.098-0.455C10.198,55.251,9.691,54.744,9.068,54.744z M4.161,41.801c0-0.623-0.507-1.13-1.13-1.13
	c-0.111,0-0.218,0.021-0.319,0.052c0.02,0.113,0.041,0.228,0.063,0.338c0.001,0.008,0.003,0.018,0.004,0.023
	c0.08-0.027,0.164-0.047,0.253-0.047c0.421,0,0.764,0.343,0.764,0.764c0,0.4-0.312,0.727-0.705,0.758
	c0.018,0.073,0.036,0.148,0.055,0.225c0.011,0.045,0.021,0.09,0.032,0.135C3.73,42.844,4.161,42.374,4.161,41.801z M6.054,43.793
	c0-0.623-0.507-1.13-1.129-1.13c-0.623,0-1.13,0.507-1.13,1.13s0.507,1.129,1.13,1.129C5.547,44.922,6.054,44.416,6.054,43.793z
	 M4.161,43.793c0-0.421,0.342-0.764,0.764-0.764c0.42,0,0.763,0.343,0.763,0.764s-0.343,0.764-0.763,0.764
	C4.503,44.557,4.161,44.214,4.161,43.793z M10.198,51.799c0-0.623-0.507-1.13-1.13-1.13s-1.13,0.507-1.13,1.13
	s0.507,1.129,1.13,1.129S10.198,52.422,10.198,51.799z M8.305,51.799c0-0.421,0.343-0.764,0.764-0.764
	c0.421,0,0.764,0.343,0.764,0.764c0,0.422-0.343,0.764-0.764,0.764C8.648,52.563,8.305,52.221,8.305,51.799z M51.419,60.759
	c-0.622,0-1.13,0.507-1.13,1.13s0.508,1.129,1.13,1.129c0.623,0,1.13-0.506,1.13-1.129S52.042,60.759,51.419,60.759z M51.419,62.65
	c-0.421,0-0.763-0.342-0.763-0.762c0-0.423,0.342-0.766,0.763-0.766s0.765,0.343,0.765,0.766
	C52.184,62.309,51.84,62.65,51.419,62.65z M4.925,46.616c-0.195,0-0.377,0.055-0.538,0.143c0.001,0.002,0.002,0.005,0.003,0.007
	c0.043,0.112,0.086,0.227,0.13,0.336c0.117-0.074,0.256-0.119,0.405-0.119c0.42,0,0.763,0.345,0.763,0.766
	c0,0.355-0.249,0.656-0.582,0.738c0.051,0.111,0.104,0.223,0.156,0.332c0.457-0.145,0.792-0.565,0.792-1.07
	C6.054,47.123,5.547,46.616,4.925,46.616z M49.525,62.865c-0.623,0-1.129,0.507-1.129,1.13c0,0.307,0.123,0.585,0.324,0.789
	c0.12-0.056,0.241-0.112,0.361-0.17c-0.191-0.14-0.32-0.363-0.32-0.619c0-0.421,0.344-0.765,0.764-0.765
	c0.422,0,0.764,0.344,0.764,0.765c0,0.005-0.001,0.01-0.001,0.014c0.114-0.061,0.229-0.118,0.344-0.181
	c0.003-0.002,0.005-0.003,0.007-0.004C50.557,63.282,50.091,62.865,49.525,62.865z M6.962,48.677c-0.623,0-1.13,0.507-1.13,1.13
	c0,0.077,0.008,0.152,0.022,0.226c0.097,0.187,0.194,0.37,0.293,0.556c0.206,0.215,0.494,0.352,0.814,0.352
	c0.623,0,1.13-0.506,1.13-1.129S7.585,48.677,6.962,48.677z M6.962,50.57c-0.421,0-0.763-0.344-0.763-0.764
	c0-0.423,0.342-0.766,0.763-0.766s0.764,0.343,0.764,0.766C7.726,50.227,7.383,50.57,6.962,50.57z M11.168,56.639
	c-0.233,0-0.449,0.069-0.629,0.19c0.082,0.093,0.165,0.187,0.248,0.276c0.001,0.002,0.002,0.002,0.002,0.002
	c0.112-0.064,0.24-0.104,0.379-0.104c0.42,0,0.763,0.343,0.763,0.765c0,0.149-0.046,0.291-0.121,0.408
	c0.087,0.088,0.176,0.174,0.264,0.26c0.139-0.188,0.224-0.418,0.224-0.668C12.297,57.145,11.79,56.639,11.168,56.639z
	 M31.256,64.902c-0.623,0-1.13,0.508-1.13,1.13s0.507,1.13,1.13,1.13c0.622,0,1.129-0.508,1.129-1.13S31.878,64.902,31.256,64.902z
	 M31.256,66.796c-0.422,0-0.764-0.343-0.764-0.764s0.342-0.763,0.764-0.763c0.42,0,0.763,0.342,0.763,0.763
	S31.676,66.796,31.256,66.796z M30.15,64.086c-0.033-0.006-0.067-0.012-0.101-0.018c-0.038,0.386-0.36,0.688-0.756,0.688
	c-0.421,0-0.764-0.342-0.764-0.763c0-0.076,0.015-0.147,0.035-0.22c-0.08-0.018-0.159-0.034-0.239-0.055
	c-0.039-0.01-0.077-0.018-0.116-0.027c-0.026,0.098-0.046,0.195-0.046,0.302c0,0.622,0.507,1.129,1.13,1.129
	c0.575,0,1.047-0.437,1.115-0.992C30.322,64.118,30.237,64.102,30.15,64.086z M33.271,66.91c-0.492,0-0.907,0.318-1.062,0.757
	c0.127,0.011,0.252,0.022,0.38,0.031c0,0,0.001,0,0.002,0c0.126-0.249,0.382-0.423,0.68-0.423c0.325,0,0.602,0.207,0.711,0.494
	h0.006c0.122,0.004,0.244,0.006,0.366,0.008c0.004,0,0.009,0,0.013,0.002C34.248,67.282,33.803,66.91,33.271,66.91z M42.496,63.525
	c-0.001,0-0.001,0-0.002,0c-0.116,0.031-0.234,0.06-0.354,0.089c0.014,0.054,0.021,0.108,0.021,0.167
	c0,0.421-0.343,0.763-0.763,0.763c-0.365,0-0.672-0.258-0.746-0.603c-0.049,0.011-0.096,0.018-0.146,0.025
	c-0.07,0.014-0.146,0.025-0.217,0.039c0.104,0.516,0.563,0.902,1.105,0.902c0.623,0,1.129-0.508,1.129-1.131
	C42.527,63.693,42.516,63.607,42.496,63.525z M35.263,64.902c-0.623,0-1.13,0.508-1.13,1.13s0.507,1.13,1.13,1.13
	c0.622,0,1.129-0.508,1.129-1.13S35.885,64.902,35.263,64.902z M35.263,66.796c-0.422,0-0.764-0.343-0.764-0.764
	s0.342-0.763,0.764-0.763c0.42,0,0.762,0.342,0.762,0.763S35.684,66.796,35.263,66.796z M39.406,64.902
	c-0.623,0-1.131,0.508-1.131,1.13s0.508,1.13,1.131,1.13s1.13-0.508,1.13-1.13S40.029,64.902,39.406,64.902z M39.406,66.796
	c-0.422,0-0.764-0.343-0.764-0.764s0.342-0.763,0.764-0.763c0.421,0,0.764,0.342,0.764,0.763S39.827,66.796,39.406,66.796z
	 M24.079,62.393c-0.117-0.047-0.235-0.091-0.351-0.139c-0.141,0.182-0.356,0.299-0.602,0.299c-0.421,0-0.764-0.343-0.764-0.764
	c0-0.046,0.006-0.09,0.014-0.135c-0.112-0.053-0.224-0.106-0.335-0.161c-0.026,0.095-0.045,0.192-0.045,0.296
	c0,0.623,0.507,1.13,1.13,1.13C23.527,62.919,23.878,62.708,24.079,62.393z M19.12,60.759c-0.623,0-1.13,0.507-1.13,1.13
	s0.507,1.129,1.13,1.129s1.13-0.506,1.13-1.129S19.743,60.759,19.12,60.759z M19.12,62.65c-0.421,0-0.764-0.342-0.764-0.762
	c0-0.423,0.343-0.766,0.764-0.766s0.764,0.343,0.764,0.766C19.884,62.309,19.541,62.65,19.12,62.65z M21.135,62.865
	c-0.622,0-1.13,0.507-1.13,1.13c0,0.062,0.009,0.12,0.019,0.179c0,0,0,0,0.001,0c0.146,0.075,0.293,0.146,0.44,0.221
	c0.01,0.006,0.021,0.01,0.031,0.018c-0.078-0.12-0.124-0.264-0.124-0.415c0-0.421,0.342-0.765,0.763-0.765
	c0.421,0,0.764,0.344,0.764,0.765c0,0.396-0.305,0.719-0.691,0.756c0.003,0.001,0.006,0.003,0.01,0.004
	c0.157,0.073,0.315,0.146,0.475,0.218c0.341-0.193,0.573-0.559,0.573-0.978C22.265,63.372,21.758,62.865,21.135,62.865z
	 M23.356,64.758c-0.399,0-0.748,0.209-0.949,0.521c0.115,0.049,0.231,0.096,0.348,0.143c0.141-0.18,0.356-0.298,0.602-0.298
	c0.42,0,0.763,0.343,0.763,0.765c0,0.016-0.004,0.029-0.005,0.045c0.095,0.033,0.189,0.067,0.284,0.103
	c0.023,0.008,0.047,0.017,0.069,0.022c0.009-0.056,0.018-0.11,0.018-0.17C24.485,65.266,23.979,64.758,23.356,64.758z
	 M27.142,64.758c-0.623,0-1.13,0.508-1.13,1.131c0,0.276,0.104,0.527,0.271,0.727c0.42,0.113,0.843,0.225,1.27,0.322
	c0.42-0.164,0.719-0.57,0.719-1.049C28.271,65.266,27.765,64.758,27.142,64.758z M27.142,66.65c-0.421,0-0.764-0.342-0.764-0.765
	c0-0.421,0.343-0.764,0.764-0.764s0.763,0.343,0.763,0.764C27.905,66.309,27.563,66.65,27.142,66.65z M26.378,63.781
	c0-0.234-0.071-0.452-0.194-0.633c-0.277-0.088-0.55-0.186-0.823-0.278c-0.153-0.054-0.31-0.103-0.463-0.157
	c-0.45,0.148-0.778,0.569-0.778,1.068c0,0.623,0.507,1.129,1.13,1.129S26.378,64.404,26.378,63.781z M25.249,64.544
	c-0.421,0-0.764-0.342-0.764-0.763c0-0.422,0.343-0.764,0.764-0.764s0.763,0.342,0.763,0.764
	C26.012,64.202,25.67,64.544,25.249,64.544z M43.391,64.902c-0.623,0-1.129,0.508-1.129,1.13c0,0.343,0.155,0.646,0.396,0.854
	c0.08-0.02,0.16-0.04,0.24-0.06c0.092-0.021,0.184-0.043,0.271-0.066c-0.313-0.095-0.545-0.383-0.545-0.728
	c0-0.421,0.342-0.763,0.766-0.763c0.42,0,0.762,0.342,0.762,0.763c0,0.2-0.078,0.383-0.205,0.519c0.15-0.042,0.3-0.088,0.449-0.133
	c0.02-0.006,0.037-0.012,0.057-0.018c0.04-0.115,0.066-0.238,0.066-0.368C44.52,65.41,44.014,64.902,43.391,64.902z M8.298,17.5
	c0-0.363-0.176-0.685-0.444-0.892L7.85,16.615c-0.064,0.095-0.127,0.19-0.19,0.286c-0.003,0.005-0.006,0.009-0.009,0.013
	c0.17,0.141,0.281,0.35,0.281,0.586c0,0.421-0.343,0.764-0.764,0.764c-0.115,0-0.224-0.027-0.321-0.073
	c-0.015,0.023-0.028,0.048-0.043,0.072c-0.048,0.08-0.096,0.16-0.143,0.241c0.153,0.078,0.324,0.126,0.507,0.126
	C7.791,18.63,8.298,18.123,8.298,17.5z M9.832,53.691c0,0.623,0.507,1.129,1.129,1.129c0.623,0,1.13-0.506,1.13-1.129
	c0-0.051-0.009-0.101-0.015-0.147c-0.024-0.028-0.046-0.06-0.069-0.088c-0.217-0.271-0.434-0.539-0.642-0.815
	c-0.126-0.05-0.261-0.078-0.404-0.078C10.339,52.563,9.832,53.068,9.832,53.691z M10.961,52.928c0.421,0,0.764,0.344,0.764,0.764
	c0,0.423-0.343,0.766-0.764,0.766s-0.763-0.343-0.763-0.766C10.198,53.271,10.54,52.928,10.961,52.928z M55.441,56.805
	c-0.623,0-1.131,0.508-1.131,1.131s0.508,1.129,1.131,1.129s1.129-0.506,1.129-1.129S56.064,56.805,55.441,56.805z M55.441,58.698
	c-0.422,0-0.766-0.343-0.766-0.765c0-0.42,0.344-0.764,0.766-0.764c0.42,0,0.763,0.344,0.763,0.764
	C56.204,58.355,55.861,58.698,55.441,58.698z M12.929,14.668c0.202,0,0.386,0.081,0.522,0.21c0.056-0.06,0.113-0.119,0.17-0.179
	c0.027-0.028,0.055-0.058,0.082-0.086c-0.202-0.191-0.474-0.312-0.774-0.312c-0.622,0-1.13,0.507-1.13,1.13
	c0,0.346,0.16,0.652,0.406,0.859c0.077-0.094,0.158-0.185,0.236-0.277c-0.167-0.14-0.275-0.348-0.275-0.582
	C12.166,15.011,12.508,14.668,12.929,14.668z M13.074,12.409c0.623,0,1.129-0.506,1.129-1.129c0-0.469-0.287-0.871-0.693-1.042
	c-0.11,0.096-0.218,0.192-0.327,0.289c0.369,0.054,0.654,0.369,0.654,0.753c0,0.421-0.342,0.763-0.763,0.763
	c-0.405,0-0.733-0.316-0.759-0.715c-0.104,0.101-0.207,0.202-0.31,0.303C12.154,12.081,12.574,12.409,13.074,12.409z M8.838,18.393
	c-0.622,0-1.13,0.507-1.13,1.13s0.508,1.13,1.13,1.13c0.162,0,0.315-0.035,0.455-0.098l0.006-0.011
	c0.212-0.377,0.432-0.749,0.659-1.114C9.91,18.851,9.43,18.393,8.838,18.393z M8.838,20.286c-0.421,0-0.763-0.343-0.763-0.764
	s0.342-0.764,0.763-0.764s0.764,0.343,0.764,0.764S9.259,20.286,8.838,20.286z M13.061,56.882c0.579,0,1.051-0.438,1.116-1.001
	c-0.144-0.145-0.28-0.293-0.421-0.438c0.043,0.095,0.067,0.199,0.067,0.31c0,0.421-0.342,0.765-0.763,0.765
	s-0.764-0.344-0.764-0.765s0.343-0.763,0.764-0.763c0.125,0,0.242,0.033,0.347,0.087c-0.137-0.147-0.272-0.295-0.406-0.444
	c-0.001-0.001-0.002-0.002-0.003-0.003c-0.594,0.033-1.067,0.522-1.067,1.123C11.931,56.375,12.438,56.882,13.061,56.882z
	 M14.822,12.409c0.312,0,0.581,0.189,0.698,0.459c0.094-0.082,0.188-0.163,0.282-0.244c-0.193-0.345-0.559-0.581-0.98-0.581
	c-0.623,0-1.13,0.507-1.13,1.13c0,0.389,0.197,0.731,0.497,0.935c0.09-0.09,0.185-0.175,0.276-0.264
	c-0.241-0.128-0.407-0.379-0.407-0.671C14.059,12.752,14.4,12.409,14.822,12.409z M10.641,18.379
	c0.03-0.044,0.062-0.086,0.092-0.129c0.043-0.063,0.088-0.122,0.131-0.184c-0.338-0.079-0.591-0.381-0.591-0.742
	c0-0.421,0.343-0.763,0.764-0.763c0.281,0,0.524,0.154,0.657,0.382c0.078-0.102,0.156-0.202,0.236-0.302
	c-0.207-0.27-0.528-0.446-0.894-0.446c-0.623,0-1.13,0.507-1.13,1.129C9.906,17.808,10.213,18.218,10.641,18.379z M16.351,12.158
	c0.077-0.063,0.157-0.122,0.234-0.184c0.021-0.017,0.042-0.033,0.063-0.05c-0.214-0.135-0.358-0.373-0.358-0.645
	c0-0.421,0.343-0.764,0.764-0.764c0.346,0,0.635,0.233,0.729,0.549c0.096-0.068,0.192-0.138,0.289-0.205
	c0.008-0.006,0.016-0.012,0.023-0.017c-0.171-0.407-0.573-0.693-1.041-0.693c-0.623,0-1.13,0.507-1.13,1.13
	C15.923,11.637,16.092,11.951,16.351,12.158z M17.983,9.242c0,0.529,0.366,0.971,0.858,1.093c0.001-0.001,0.002-0.001,0.004-0.003
	c0.447-0.293,0.903-0.573,1.367-0.843h0.001c0.018-0.08,0.028-0.162,0.028-0.247c0-0.623-0.506-1.13-1.129-1.13
	S17.983,8.619,17.983,9.242z M19.113,8.479c0.421,0,0.763,0.343,0.763,0.764c0,0.421-0.342,0.764-0.763,0.764
	c-0.421,0-0.763-0.344-0.763-0.765C18.35,8.821,18.692,8.479,19.113,8.479z M17.221,8.479c0.622,0,1.129-0.506,1.129-1.129
	c0-0.188-0.051-0.363-0.133-0.52c-0.103,0.062-0.205,0.123-0.307,0.185l-0.006,0.004c0.05,0.101,0.079,0.212,0.079,0.331
	c0,0.421-0.343,0.763-0.763,0.763c-0.236,0-0.444-0.109-0.585-0.277c-0.063,0.043-0.127,0.088-0.19,0.132
	c-0.037,0.025-0.073,0.051-0.109,0.076C16.543,8.307,16.86,8.479,17.221,8.479z M14.967,10.372c0.623,0,1.129-0.507,1.129-1.13
	c0-0.31-0.125-0.592-0.329-0.796c-0.026,0.02-0.053,0.039-0.08,0.059c-0.074,0.055-0.149,0.108-0.223,0.163
	c0.161,0.14,0.266,0.344,0.266,0.574c0,0.421-0.342,0.764-0.763,0.764c-0.298,0-0.553-0.173-0.679-0.422
	c-0.097,0.079-0.191,0.157-0.286,0.237C14.199,10.149,14.556,10.372,14.967,10.372z M11.036,14.455c0.623,0,1.13-0.507,1.13-1.13
	c0-0.5-0.329-0.92-0.78-1.068l0,0c-0.1,0.103-0.197,0.206-0.295,0.311c0.396,0.029,0.708,0.355,0.708,0.758
	c0,0.421-0.342,0.764-0.763,0.764c-0.376,0-0.688-0.274-0.75-0.633c-0.001,0-0.001,0-0.001,0c-0.093,0.107-0.185,0.215-0.276,0.323
	c-0.001,0.001-0.002,0.002-0.003,0.004C10.182,14.178,10.576,14.455,11.036,14.455z M4.925,24.651c0.622,0,1.129-0.507,1.129-1.13
	c0-0.622-0.507-1.129-1.129-1.129c-0.071,0-0.14,0.008-0.207,0.021c-0.013,0.032-0.026,0.064-0.039,0.097
	c-0.05,0.12-0.1,0.24-0.147,0.361c0.115-0.07,0.249-0.112,0.394-0.112c0.42,0,0.763,0.342,0.763,0.763s-0.343,0.764-0.763,0.764
	c-0.345,0-0.633-0.23-0.728-0.543c-0.007,0.02-0.014,0.039-0.021,0.059c-0.049,0.136-0.097,0.271-0.144,0.407
	C4.24,24.476,4.561,24.651,4.925,24.651z M5.069,36.777c0.177,0,0.341-0.043,0.49-0.115c-0.008-0.139-0.013-0.278-0.018-0.418
	c-0.131,0.104-0.294,0.168-0.473,0.168c-0.421,0-0.764-0.342-0.764-0.764c0-0.42,0.343-0.765,0.764-0.765
	c0.165,0,0.316,0.054,0.441,0.144c0-0.01-0.001-0.02-0.001-0.029c0-0.129,0.009-0.257,0.01-0.386c-0.138-0.06-0.29-0.095-0.45-0.095
	c-0.623,0-1.13,0.507-1.13,1.128C3.938,36.271,4.446,36.777,5.069,36.777z M5.069,40.801c0.384,0,0.724-0.193,0.927-0.486
	c0-0.002,0-0.004,0-0.004c-0.092-0.504-0.171-1.014-0.236-1.524c-0.191-0.149-0.43-0.242-0.69-0.242c-0.623,0-1.13,0.507-1.13,1.13
	C3.939,40.294,4.446,40.801,5.069,40.801z M5.069,38.908c0.421,0,0.763,0.342,0.763,0.764c0,0.42-0.342,0.764-0.763,0.764
	c-0.421,0-0.764-0.344-0.764-0.764C4.306,39.25,4.648,38.908,5.069,38.908z M5.069,30.863c0.3,0,0.557,0.176,0.681,0.427
	c0.013-0.096,0.025-0.191,0.037-0.288c0.01-0.072,0.018-0.146,0.027-0.217c-0.199-0.177-0.458-0.288-0.745-0.288
	c-0.623,0-1.13,0.507-1.13,1.13s0.507,1.13,1.13,1.13c0.199,0,0.383-0.057,0.546-0.147c0.007-0.088,0.012-0.178,0.02-0.266
	c0.006-0.077,0.011-0.154,0.018-0.229c-0.14,0.168-0.348,0.277-0.583,0.277c-0.421,0-0.764-0.343-0.764-0.764
	S4.648,30.863,5.069,30.863z M4.047,33.52c0-0.622-0.507-1.129-1.13-1.129c-0.227,0-0.438,0.068-0.614,0.184
	C2.301,32.6,2.3,32.625,2.298,32.649c-0.011,0.158-0.021,0.316-0.03,0.475c0.135-0.22,0.374-0.367,0.649-0.367
	c0.421,0,0.763,0.342,0.763,0.763s-0.342,0.764-0.763,0.764c-0.3,0-0.558-0.176-0.682-0.428C2.228,34.037,2.223,34.218,2.22,34.4
	v0.003c0.192,0.152,0.433,0.247,0.696,0.247C3.54,34.649,4.047,34.143,4.047,33.52z M4.161,29.544c0-0.623-0.507-1.13-1.13-1.13
	c-0.055,0-0.106,0.009-0.159,0.016c-0.011,0.052-0.021,0.104-0.03,0.156c-0.016,0.078-0.03,0.156-0.045,0.235
	c0.074-0.024,0.152-0.041,0.234-0.041c0.421,0,0.764,0.342,0.764,0.764c0,0.42-0.343,0.763-0.764,0.763
	c-0.174,0-0.332-0.061-0.46-0.158c-0.007,0.049-0.014,0.098-0.021,0.146c-0.012,0.082-0.023,0.165-0.035,0.247
	c0.156,0.081,0.329,0.131,0.516,0.131C3.654,30.673,4.161,30.166,4.161,29.544z M5.069,28.635c0.623,0,1.13-0.506,1.13-1.129
	s-0.507-1.13-1.13-1.13s-1.13,0.507-1.13,1.13S4.446,28.635,5.069,28.635z M5.069,26.742c0.421,0,0.763,0.343,0.763,0.764
	s-0.342,0.763-0.763,0.763c-0.421,0-0.764-0.342-0.764-0.763S4.648,26.742,5.069,26.742z M6.945,22.545
	c0.623,0,1.13-0.507,1.13-1.129c0-0.623-0.507-1.13-1.13-1.13s-1.13,0.507-1.13,1.13C5.815,22.038,6.322,22.545,6.945,22.545z
	 M6.945,20.652c0.421,0,0.763,0.342,0.763,0.764c0,0.42-0.342,0.763-0.763,0.763c-0.421,0-0.764-0.343-0.764-0.763
	C6.182,20.994,6.524,20.652,6.945,20.652z M9.206,16.562c0.623,0,1.129-0.507,1.129-1.13c0-0.509-0.341-0.936-0.805-1.076
	c-0.087,0.106-0.173,0.213-0.258,0.319c0.39,0.035,0.696,0.358,0.696,0.757c0,0.421-0.342,0.764-0.763,0.764
	c-0.325,0-0.603-0.206-0.712-0.494c-0.08,0.111-0.162,0.221-0.241,0.332C8.453,16.349,8.805,16.562,9.206,16.562z M53.549,58.698
	c-0.623,0-1.13,0.507-1.13,1.13c0,0.622,0.507,1.129,1.13,1.129s1.129-0.507,1.129-1.129C54.678,59.205,54.172,58.698,53.549,58.698
	z M53.549,60.591c-0.421,0-0.764-0.343-0.764-0.763c0-0.422,0.343-0.764,0.764-0.764c0.422,0,0.764,0.342,0.764,0.764
	C54.313,60.248,53.971,60.591,53.549,60.591z M57.775,54.63c-0.621,0-1.129,0.507-1.129,1.13s0.508,1.131,1.129,1.131
	c0.623,0,1.131-0.508,1.131-1.131S58.398,54.63,57.775,54.63z M57.775,56.521c-0.42,0-0.762-0.342-0.762-0.764
	c0-0.421,0.342-0.764,0.762-0.764c0.422,0,0.765,0.343,0.765,0.764C58.54,56.18,58.197,56.521,57.775,56.521z M6.962,44.922
	c0.1,0,0.195,0.021,0.283,0.057c-0.004-0.01-0.007-0.019-0.01-0.025C7.19,44.825,7.15,44.697,7.107,44.57
	c-0.048-0.006-0.096-0.016-0.146-0.016c-0.623,0-1.13,0.508-1.13,1.131s0.507,1.129,1.13,1.129c0.338,0,0.638-0.151,0.846-0.39
	c-0.041-0.096-0.078-0.192-0.116-0.293c-0.016-0.036-0.03-0.075-0.046-0.114c-0.124,0.254-0.382,0.431-0.684,0.431
	c-0.421,0-0.763-0.343-0.763-0.763C6.198,45.264,6.541,44.922,6.962,44.922z M4.161,37.542c0-0.623-0.507-1.13-1.13-1.13
	c-0.3,0-0.57,0.12-0.773,0.313c0.011,0.207,0.025,0.414,0.04,0.621c0.087-0.326,0.382-0.566,0.733-0.566
	c0.421,0,0.764,0.344,0.764,0.765s-0.343,0.765-0.764,0.765c-0.308,0-0.572-0.186-0.693-0.447c0.001,0.011,0.002,0.021,0.003,0.029
	c0.018,0.192,0.034,0.387,0.055,0.578c0,0.004,0.001,0.008,0.001,0.01c0.182,0.123,0.399,0.195,0.635,0.195
	C3.654,38.672,4.161,38.165,4.161,37.542z" changeable="1"/>
</svg>
