<?xml version="1.0" encoding="utf-8"?>
<svg version="1.1" id="Layer_1" xmlns="http://www.w3.org/2000/svg" xmlns:xlink="http://www.w3.org/1999/xlink" x="0px" y="0px"
	 width="70px" height="58.832px" viewBox="0 0 70 58.832" enable-background="new 0 0 70 58.832" xml:space="preserve">
<path style="fill:none" d="M34.991,11.344c1.495-10.189,28.405-13.849,31.632,6.925c0.38,17.706-21.639,31.042-31.632,36.983
	C19.805,47.434,3.428,33.609,3.438,19.213C3.45,0.322,32.827-0.853,34.991,11.344z" isFrame="true" changeable="0"/>
<path opacity="0.06" style="fill:#000000" d="M68.324,19.026C65.416-3.447,40.63-0.573,35.521,6.769
	C29.961-2.766,2.721-0.08,1.7,18.762C0.866,34.134,17.968,49.256,35.001,57.428C46.268,51.299,68.73,37.96,68.324,19.026z
	 M34.993,54.25C20.39,46.732,4.642,33.438,4.65,19.594C4.663,1.428,32.912,0.299,34.993,12.026
	c1.438-9.799,27.315-13.317,30.418,6.659C65.775,35.711,44.604,48.537,34.993,54.25z" changeable="0"/>
<path opacity="0.25" style="fill:#000000" d="M68.688,18.912C65.748-3.807,40.691-0.901,35.527,6.521
	C29.906-3.118,2.368-0.402,1.335,18.645c-0.842,15.541,16.447,30.83,33.666,39.089C46.391,51.539,69.1,38.053,68.688,18.912z
	 M34.993,54.521C20.23,46.921,4.309,33.48,4.318,19.486C4.331,1.121,32.89-0.021,34.993,11.836
	c1.452-9.905,27.614-13.463,30.751,6.731C66.113,35.779,44.708,48.747,34.993,54.521z" changeable="0"/>
<path opacity="0.04" style="fill:#000000" d="M69.041,18.803C66.068-4.153,40.751-1.218,35.534,6.281
	C29.853-3.458,2.027-0.714,0.983,18.532C0.132,34.234,17.602,49.682,35.001,58.029C46.51,51.77,69.456,38.145,69.041,18.803z
	 M34.993,54.784C20.076,47.105,3.989,33.523,3.998,19.383c0.012-18.557,28.87-19.711,30.995-7.73
	C36.462,1.644,62.896-1.95,66.064,18.455C66.438,35.846,44.811,48.948,34.993,54.784z" changeable="0"/>
<path opacity="0.04" style="fill:#000000" d="M69.35,18.706C66.352-4.458,40.805-1.496,35.539,6.071
	C29.806-3.756,1.729-0.987,0.675,18.434C-0.184,34.279,17.444,49.866,35.001,58.29C46.613,51.973,69.77,38.223,69.35,18.706z
	 M34.993,55.014C19.94,47.266,3.708,33.561,3.717,19.292c0.012-18.725,29.131-19.89,31.275-7.8
	c1.482-10.101,28.156-13.727,31.354,6.863C66.723,35.904,44.898,49.125,34.993,55.014z" changeable="0"/>
<path opacity="0.04" style="fill:#000000" d="M69.63,18.619C66.605-4.734,40.852-1.748,35.543,5.881
	C29.764-4.026,1.457-1.235,0.395,18.345c-0.866,15.973,16.906,31.688,34.606,40.18C46.709,52.156,70.052,38.294,69.63,18.619z
	 M34.993,55.223C19.818,47.411,3.453,33.596,3.462,19.209C3.474,0.331,32.831-0.842,34.993,11.346
	c1.495-10.183,28.386-13.839,31.61,6.92C66.98,35.958,44.979,49.286,34.993,55.223z" changeable="0"/>
<path opacity="0.04" style="fill:#000000" d="M69.994,18.506C66.939-5.094,40.912-2.076,35.549,5.633
	C29.709-4.378,1.104-1.558,0.031,18.228C-0.844,34.37,17.115,50.25,35.001,58.832C46.832,52.395,70.421,38.389,69.994,18.506z
	 M34.993,55.495C19.658,47.6,3.121,33.639,3.13,19.102C3.143,0.025,32.808-1.16,34.993,11.155
	c1.51-10.29,28.685-13.984,31.942,6.993C67.318,36.027,45.084,49.496,34.993,55.495z" changeable="0"/>
<radialGradient id="SVGID_1_" cx="300.416" cy="-315.3335" r="39.6678" gradientTransform="matrix(1 0 0 -1 -271 -301.168)" gradientUnits="userSpaceOnUse">
	<stop  offset="0" style="stop-color:#FFFFFF"/>
	<stop  offset="0.6244" style="stop-color:#E8E8E8"/>
	<stop  offset="1" style="stop-color:#EFEFEF"/>
</radialGradient>
<path fill="url(#SVGID_1_)" stroke="#CCCFCF" stroke-width="0.25" stroke-miterlimit="10" d="M67.932,19.148
	C65.059-3.06,40.563-0.22,35.518,7.035C30.021-2.387,3.101,0.268,2.092,18.887c-0.824,15.192,16.076,30.134,32.909,38.21
	C46.135,51.042,68.333,37.859,67.932,19.148z M34.993,53.958C20.562,46.529,4.999,33.391,5.008,19.709
	C5.02,1.758,32.937,0.642,34.993,12.231c1.421-9.684,26.993-13.16,30.06,6.58C65.414,35.637,44.488,48.313,34.993,53.958z" changeable="1"/>
</svg>
